0, 0, Header, 1, 2, 1024
1, 0, Start_track
1, 0, Time_signature, 4, 2, 24, 8
1, 0, Key_signature, -3, "major"
1, 0, Tempo, 789473
1, 0, Tempo, 789473
1, 12288, Time_signature, 2, 2, 24, 8
1, 14336, Time_signature, 4, 2, 24, 8
1, 18432, Tempo, 476190
1, 264192, Tempo, 476190
1, 509952, End_track
2, 0, Start_track
2, 0, Title_t, "Acoustic Grand Piano"
2, 0, Program_c, 0, 0
2, 0, Note_on_c, 0, 72, 64
2, 0, Note_on_c, 0, 60, 64
2, 0, Note_on_c, 0, 63, 64
2, 0, Note_on_c, 0, 67, 64
2, 1024, Note_off_c, 0, 72, 0
2, 1024, Note_on_c, 0, 75, 64
2, 2048, Note_off_c, 0, 75, 0
2, 2048, Note_on_c, 0, 77, 64
2, 2048, Note_off_c, 0, 60, 0
2, 2048, Note_off_c, 0, 63, 0
2, 2048, Note_off_c, 0, 67, 0
2, 2048, Note_on_c, 0, 60, 64
2, 2048, Note_on_c, 0, 65, 64
2, 2048, Note_on_c, 0, 68, 64
2, 2816, Note_off_c, 0, 77, 0
2, 2816, Note_on_c, 0, 75, 64
2, 3584, Note_off_c, 0, 75, 0
2, 3584, Note_on_c, 0, 77, 64
2, 4096, Note_off_c, 0, 77, 0
2, 4096, Note_off_c, 0, 60, 0
2, 4096, Note_off_c, 0, 65, 0
2, 4096, Note_off_c, 0, 68, 0
2, 4096, Note_on_c, 0, 77, 64
2, 4096, Note_on_c, 0, 58, 64
2, 4096, Note_on_c, 0, 62, 64
2, 4096, Note_on_c, 0, 65, 64
2, 4608, Note_off_c, 0, 77, 0
2, 4608, Note_on_c, 0, 77, 64
2, 5120, Note_off_c, 0, 77, 0
2, 5120, Note_on_c, 0, 82, 64
2, 5632, Note_off_c, 0, 82, 0
2, 5632, Note_on_c, 0, 80, 64
2, 6144, Note_off_c, 0, 80, 0
2, 6144, Note_on_c, 0, 79, 64
2, 6144, Note_off_c, 0, 58, 0
2, 6144, Note_off_c, 0, 62, 0
2, 6144, Note_off_c, 0, 65, 0
2, 6144, Note_on_c, 0, 63, 64
2, 6144, Note_on_c, 0, 70, 64
2, 6400, Note_off_c, 0, 79, 0
2, 6400, Note_on_c, 0, 77, 64
2, 6912, Note_off_c, 0, 77, 0
2, 6912, Note_on_c, 0, 79, 64
2, 8192, Note_off_c, 0, 79, 0
2, 8192, Note_off_c, 0, 63, 0
2, 8192, Note_off_c, 0, 70, 0
2, 8192, Note_on_c, 0, 79, 64
2, 8192, Note_on_c, 0, 60, 64
2, 8192, Note_on_c, 0, 63, 64
2, 8192, Note_on_c, 0, 67, 64
2, 9216, Note_off_c, 0, 79, 0
2, 9216, Note_on_c, 0, 82, 64
2, 10240, Note_off_c, 0, 82, 0
2, 10240, Note_on_c, 0, 84, 64
2, 10240, Note_off_c, 0, 60, 0
2, 10240, Note_off_c, 0, 63, 0
2, 10240, Note_off_c, 0, 67, 0
2, 10240, Note_on_c, 0, 63, 64
2, 10240, Note_on_c, 0, 65, 64
2, 10240, Note_on_c, 0, 68, 64
2, 10240, Note_on_c, 0, 72, 64
2, 11008, Note_off_c, 0, 84, 0
2, 11008, Note_on_c, 0, 77, 64
2, 11776, Note_off_c, 0, 77, 0
2, 11776, Note_on_c, 0, 75, 64
2, 12288, Note_off_c, 0, 75, 0
2, 12288, Note_off_c, 0, 63, 0
2, 12288, Note_off_c, 0, 65, 0
2, 12288, Note_off_c, 0, 68, 0
2, 12288, Note_off_c, 0, 72, 0
2, 12288, Note_on_c, 0, 82, 64
2, 12288, Note_on_c, 0, 74, 64
2, 12288, Note_on_c, 0, 62, 64
2, 12288, Note_on_c, 0, 65, 64
2, 12288, Note_on_c, 0, 67, 64
2, 12288, Note_on_c, 0, 70, 64
2, 12800, Note_off_c, 0, 82, 0
2, 12800, Note_on_c, 0, 82, 64
2, 13312, Note_off_c, 0, 82, 0
2, 13312, Note_on_c, 0, 79, 64
2, 13824, Note_off_c, 0, 79, 0
2, 13824, Note_on_c, 0, 82, 64
2, 14336, Note_off_c, 0, 82, 0
2, 14336, Note_off_c, 0, 74, 0
2, 14336, Note_off_c, 0, 62, 0
2, 14336, Note_off_c, 0, 65, 0
2, 14336, Note_off_c, 0, 67, 0
2, 14336, Note_off_c, 0, 70, 0
2, 14336, Note_on_c, 0, 82, 64
2, 14336, Note_on_c, 0, 67, 64
2, 14336, Note_on_c, 0, 68, 64
2, 14336, Note_on_c, 0, 72, 64
2, 14336, Note_on_c, 0, 75, 64
2, 15104, Note_off_c, 0, 82, 0
2, 15104, Note_on_c, 0, 84, 64
2, 18432, Note_off_c, 0, 84, 0
2, 18432, Note_off_c, 0, 67, 0
2, 18432, Note_off_c, 0, 68, 0
2, 18432, Note_off_c, 0, 72, 0
2, 18432, Note_off_c, 0, 75, 0
2, 18432, Note_on_c, 0, 60, 64
2, 18432, Note_on_c, 0, 48, 64
2, 18944, Note_off_c, 0, 48, 0
2, 18944, Note_on_c, 0, 48, 64
2, 19456, Note_off_c, 0, 60, 0
2, 19456, Note_on_c, 0, 63, 64
2, 19456, Note_off_c, 0, 48, 0
2, 19456, Note_on_c, 0, 48, 64
2, 19968, Note_off_c, 0, 48, 0
2, 19968, Note_on_c, 0, 51, 64
2, 20480, Note_off_c, 0, 63, 0
2, 20480, Note_on_c, 0, 56, 64
2, 20480, Note_on_c, 0, 60, 64
2, 20480, Note_on_c, 0, 65, 64
2, 20480, Note_off_c, 0, 51, 0
2, 20480, Note_on_c, 0, 53, 64
2, 20736, Note_off_c, 0, 53, 0
2, 20736, Note_on_c, 0, 53, 64
2, 20992, Note_off_c, 0, 53, 0
2, 21248, Note_off_c, 0, 56, 0
2, 21248, Note_off_c, 0, 60, 0
2, 21248, Note_off_c, 0, 65, 0
2, 21248, Note_on_c, 0, 63, 64
2, 21248, Note_on_c, 0, 53, 64
2, 21760, Note_off_c, 0, 53, 0
2, 21760, Note_on_c, 0, 53, 64
2, 22016, Note_off_c, 0, 63, 0
2, 22016, Note_on_c, 0, 65, 64
2, 22016, Note_off_c, 0, 53, 0
2, 22016, Note_on_c, 0, 48, 64
2, 22528, Note_off_c, 0, 65, 0
2, 22528, Note_off_c, 0, 48, 0
2, 22528, Note_on_c, 0, 58, 64
2, 22528, Note_on_c, 0, 62, 64
2, 22528, Note_on_c, 0, 65, 64
2, 22528, Note_on_c, 0, 46, 64
2, 23040, Note_off_c, 0, 58, 0
2, 23040, Note_off_c, 0, 62, 0
2, 23040, Note_off_c, 0, 65, 0
2, 23040, Note_on_c, 0, 65, 64
2, 23040, Note_off_c, 0, 46, 0
2, 23040, Note_on_c, 0, 46, 64
2, 23552, Note_off_c, 0, 65, 0
2, 23552, Note_on_c, 0, 70, 64
2, 23552, Note_off_c, 0, 46, 0
2, 23552, Note_on_c, 0, 46, 64
2, 24064, Note_off_c, 0, 70, 0
2, 24064, Note_on_c, 0, 68, 64
2, 24064, Note_off_c, 0, 46, 0
2, 24064, Note_on_c, 0, 50, 64
2, 24576, Note_off_c, 0, 68, 0
2, 24576, Note_on_c, 0, 67, 64
2, 24576, Note_off_c, 0, 50, 0
2, 24576, Note_on_c, 0, 51, 64
2, 24832, Note_off_c, 0, 67, 0
2, 24832, Note_on_c, 0, 65, 64
2, 24832, Note_off_c, 0, 51, 0
2, 24832, Note_on_c, 0, 51, 64
2, 25088, Note_off_c, 0, 51, 0
2, 25344, Note_off_c, 0, 65, 0
2, 25344, Note_on_c, 0, 67, 64
2, 25344, Note_on_c, 0, 51, 64
2, 25600, Note_off_c, 0, 51, 0
2, 25600, Note_on_c, 0, 51, 64
2, 26112, Note_off_c, 0, 51, 0
2, 26112, Note_on_c, 0, 50, 64
2, 26624, Note_off_c, 0, 67, 0
2, 26624, Note_off_c, 0, 50, 0
2, 26624, Note_on_c, 0, 63, 64
2, 26624, Note_on_c, 0, 67, 64
2, 26624, Note_on_c, 0, 48, 64
2, 27136, Note_off_c, 0, 48, 0
2, 27136, Note_on_c, 0, 48, 64
2, 27648, Note_off_c, 0, 63, 0
2, 27648, Note_off_c, 0, 67, 0
2, 27648, Note_on_c, 0, 70, 64
2, 27648, Note_off_c, 0, 48, 0
2, 27648, Note_on_c, 0, 48, 64
2, 28160, Note_off_c, 0, 48, 0
2, 28160, Note_on_c, 0, 51, 64
2, 28672, Note_off_c, 0, 70, 0
2, 28672, Note_on_c, 0, 65, 64
2, 28672, Note_on_c, 0, 68, 64
2, 28672, Note_on_c, 0, 72, 64
2, 28672, Note_off_c, 0, 51, 0
2, 28672, Note_on_c, 0, 53, 64
2, 28928, Note_off_c, 0, 53, 0
2, 28928, Note_on_c, 0, 53, 64
2, 29184, Note_off_c, 0, 53, 0
2, 29440, Note_off_c, 0, 65, 0
2, 29440, Note_off_c, 0, 68, 0
2, 29440, Note_off_c, 0, 72, 0
2, 29440, Note_on_c, 0, 65, 64
2, 29440, Note_on_c, 0, 53, 64
2, 29952, Note_off_c, 0, 53, 0
2, 29952, Note_on_c, 0, 53, 64
2, 30208, Note_off_c, 0, 65, 0
2, 30208, Note_on_c, 0, 63, 64
2, 30208, Note_off_c, 0, 53, 0
2, 30208, Note_on_c, 0, 48, 64
2, 30720, Note_off_c, 0, 63, 0
2, 30720, Note_off_c, 0, 48, 0
2, 30720, Note_on_c, 0, 62, 64
2, 30720, Note_on_c, 0, 65, 64
2, 30720, Note_on_c, 0, 70, 64
2, 30720, Note_on_c, 0, 46, 64
2, 31232, Note_off_c, 0, 62, 0
2, 31232, Note_off_c, 0, 65, 0
2, 31232, Note_off_c, 0, 70, 0
2, 31232, Note_on_c, 0, 62, 64
2, 31232, Note_on_c, 0, 65, 64
2, 31232, Note_on_c, 0, 70, 64
2, 31232, Note_off_c, 0, 46, 0
2, 31232, Note_on_c, 0, 46, 64
2, 31744, Note_off_c, 0, 62, 0
2, 31744, Note_off_c, 0, 65, 0
2, 31744, Note_off_c, 0, 70, 0
2, 31744, Note_on_c, 0, 62, 64
2, 31744, Note_on_c, 0, 65, 64
2, 31744, Note_on_c, 0, 67, 64
2, 31744, Note_off_c, 0, 46, 0
2, 31744, Note_on_c, 0, 46, 64
2, 32256, Note_off_c, 0, 62, 0
2, 32256, Note_off_c, 0, 65, 0
2, 32256, Note_off_c, 0, 67, 0
2, 32256, Note_on_c, 0, 62, 64
2, 32256, Note_on_c, 0, 65, 64
2, 32256, Note_on_c, 0, 70, 64
2, 32256, Note_off_c, 0, 46, 0
2, 32256, Note_on_c, 0, 47, 64
2, 32768, Note_off_c, 0, 62, 0
2, 32768, Note_off_c, 0, 65, 0
2, 32768, Note_off_c, 0, 70, 0
2, 32768, Note_on_c, 0, 67, 64
2, 32768, Note_on_c, 0, 70, 64
2, 32768, Note_off_c, 0, 47, 0
2, 32768, Note_on_c, 0, 48, 64
2, 33024, Note_off_c, 0, 48, 0
2, 33024, Note_on_c, 0, 48, 64
2, 33536, Note_off_c, 0, 67, 0
2, 33536, Note_off_c, 0, 70, 0
2, 33536, Note_on_c, 0, 67, 64
2, 33536, Note_on_c, 0, 72, 64
2, 33536, Note_off_c, 0, 48, 0
2, 33536, Note_on_c, 0, 48, 64
2, 33792, Note_off_c, 0, 48, 0
2, 33792, Note_on_c, 0, 46, 64
2, 34816, Note_off_c, 0, 67, 0
2, 34816, Note_off_c, 0, 72, 0
2, 34816, Note_off_c, 0, 46, 0
2, 34816, Note_on_c, 0, 51, 64
2, 34816, Note_on_c, 0, 55, 64
2, 34816, Note_on_c, 0, 58, 64
2, 35840, Note_on_c, 0, 75, 64
2, 36352, Note_off_c, 0, 75, 0
2, 36352, Note_on_c, 0, 70, 64
2, 36608, Note_off_c, 0, 70, 0
2, 36608, Note_on_c, 0, 70, 64
2, 37888, Note_off_c, 0, 70, 0
2, 38400, Note_on_c, 0, 75, 64
2, 38912, Note_off_c, 0, 75, 0
2, 38912, Note_off_c, 0, 51, 0
2, 38912, Note_off_c, 0, 55, 0
2, 38912, Note_off_c, 0, 58, 0
2, 38912, Note_on_c, 0, 75, 64
2, 38912, Note_on_c, 0, 46, 64
2, 38912, Note_on_c, 0, 50, 64
2, 38912, Note_on_c, 0, 53, 64
2, 38912, Note_on_c, 0, 58, 64
2, 39680, Note_off_c, 0, 75, 0
2, 39680, Note_on_c, 0, 77, 64
2, 40448, Note_off_c, 0, 77, 0
2, 40448, Note_on_c, 0, 70, 64
2, 40960, Note_off_c, 0, 70, 0
2, 40960, Note_on_c, 0, 70, 64
2, 41984, Note_off_c, 0, 70, 0
2, 42496, Note_on_c, 0, 70, 64
2, 43008, Note_off_c, 0, 70, 0
2, 43008, Note_off_c, 0, 46, 0
2, 43008, Note_off_c, 0, 50, 0
2, 43008, Note_off_c, 0, 53, 0
2, 43008, Note_off_c, 0, 58, 0
2, 43008, Note_on_c, 0, 79, 64
2, 43008, Note_on_c, 0, 48, 64
2, 43008, Note_on_c, 0, 51, 64
2, 43008, Note_on_c, 0, 55, 64
2, 43776, Note_off_c, 0, 79, 0
2, 43776, Note_on_c, 0, 80, 64
2, 44544, Note_off_c, 0, 80, 0
2, 44544, Note_on_c, 0, 79, 64
2, 45056, Note_off_c, 0, 79, 0
2, 45056, Note_on_c, 0, 77, 64
2, 45056, Note_off_c, 0, 48, 0
2, 45056, Note_off_c, 0, 51, 0
2, 45056, Note_off_c, 0, 55, 0
2, 45056, Note_on_c, 0, 46, 64
2, 45056, Note_on_c, 0, 50, 64
2, 45056, Note_on_c, 0, 53, 64
2, 45056, Note_on_c, 0, 55, 64
2, 45824, Note_off_c, 0, 77, 0
2, 45824, Note_on_c, 0, 75, 64
2, 46592, Note_off_c, 0, 75, 0
2, 46592, Note_on_c, 0, 77, 64
2, 47104, Note_off_c, 0, 77, 0
2, 47104, Note_off_c, 0, 46, 0
2, 47104, Note_off_c, 0, 50, 0
2, 47104, Note_off_c, 0, 53, 0
2, 47104, Note_off_c, 0, 55, 0
2, 47104, Note_on_c, 0, 79, 64
2, 47104, Note_on_c, 0, 44, 64
2, 47104, Note_on_c, 0, 48, 64
2, 47104, Note_on_c, 0, 51, 64
2, 47104, Note_on_c, 0, 55, 64
2, 47872, Note_off_c, 0, 79, 0
2, 47872, Note_on_c, 0, 80, 64
2, 48640, Note_off_c, 0, 80, 0
2, 48640, Note_on_c, 0, 79, 64
2, 49152, Note_off_c, 0, 79, 0
2, 49152, Note_on_c, 0, 72, 64
2, 50176, Note_off_c, 0, 72, 0
2, 50688, Note_on_c, 0, 72, 64
2, 50944, Note_off_c, 0, 72, 0
2, 50944, Note_on_c, 0, 74, 64
2, 51200, Note_off_c, 0, 74, 0
2, 51200, Note_off_c, 0, 44, 0
2, 51200, Note_off_c, 0, 48, 0
2, 51200, Note_off_c, 0, 51, 0
2, 51200, Note_off_c, 0, 55, 0
2, 51200, Note_on_c, 0, 75, 64
2, 51200, Note_on_c, 0, 46, 64
2, 51200, Note_on_c, 0, 51, 64
2, 51200, Note_on_c, 0, 53, 64
2, 51968, Note_off_c, 0, 75, 0
2, 51968, Note_on_c, 0, 75, 64
2, 52736, Note_off_c, 0, 75, 0
2, 52736, Note_on_c, 0, 74, 64
2, 53248, Note_off_c, 0, 74, 0
2, 53248, Note_on_c, 0, 74, 64
2, 53248, Note_off_c, 0, 46, 0
2, 53248, Note_off_c, 0, 51, 0
2, 53248, Note_off_c, 0, 53, 0
2, 53248, Note_on_c, 0, 46, 64
2, 53248, Note_on_c, 0, 50, 64
2, 53248, Note_on_c, 0, 53, 64
2, 54272, Note_off_c, 0, 74, 0
2, 54784, Note_on_c, 0, 75, 64
2, 55040, Note_off_c, 0, 75, 0
2, 55040, Note_on_c, 0, 77, 64
2, 55296, Note_off_c, 0, 77, 0
2, 55296, Note_off_c, 0, 46, 0
2, 55296, Note_off_c, 0, 50, 0
2, 55296, Note_off_c, 0, 53, 0
2, 55296, Note_on_c, 0, 80, 64
2, 55296, Note_on_c, 0, 51, 64
2, 55296, Note_on_c, 0, 58, 64
2, 56064, Note_off_c, 0, 80, 0
2, 56064, Note_on_c, 0, 79, 64
2, 56832, Note_off_c, 0, 79, 0
2, 56832, Note_on_c, 0, 77, 64
2, 57344, Note_off_c, 0, 77, 0
2, 57344, Note_on_c, 0, 75, 64
2, 57344, Note_off_c, 0, 51, 0
2, 57344, Note_off_c, 0, 58, 0
2, 57344, Note_on_c, 0, 48, 64
2, 57344, Note_on_c, 0, 58, 64
2, 58368, Note_off_c, 0, 75, 0
2, 58880, Note_on_c, 0, 79, 64
2, 59392, Note_off_c, 0, 79, 0
2, 59392, Note_off_c, 0, 48, 0
2, 59392, Note_off_c, 0, 58, 0
2, 59392, Note_on_c, 0, 79, 64
2, 59392, Note_on_c, 0, 50, 64
2, 59392, Note_on_c, 0, 60, 64
2, 60160, Note_off_c, 0, 79, 0
2, 60160, Note_on_c, 0, 77, 64
2, 60928, Note_off_c, 0, 77, 0
2, 60928, Note_on_c, 0, 76, 64
2, 61440, Note_off_c, 0, 76, 0
2, 61440, Note_on_c, 0, 77, 64
2, 62464, Note_off_c, 0, 77, 0
2, 62464, Note_on_c, 0, 72, 64
2, 63488, Note_off_c, 0, 72, 0
2, 63488, Note_off_c, 0, 50, 0
2, 63488, Note_off_c, 0, 60, 0
2, 63488, Note_on_c, 0, 72, 64
2, 63488, Note_on_c, 0, 65, 64
2, 63488, Note_on_c, 0, 69, 64
2, 63488, Note_on_c, 0, 43, 64
2, 65024, Note_off_c, 0, 72, 0
2, 65024, Note_on_c, 0, 74, 64
2, 65536, Note_off_c, 0, 74, 0
2, 65536, Note_on_c, 0, 74, 64
2, 65536, Note_off_c, 0, 65, 0
2, 65536, Note_off_c, 0, 69, 0
2, 65536, Note_on_c, 0, 67, 64
2, 65536, Note_on_c, 0, 71, 64
2, 65536, Note_off_c, 0, 43, 0
2, 65536, Note_on_c, 0, 43, 64
2, 67584, Note_off_c, 0, 74, 0
2, 67584, Note_off_c, 0, 67, 0
2, 67584, Note_off_c, 0, 71, 0
2, 67584, Note_off_c, 0, 43, 0
2, 67584, Note_on_c, 0, 51, 64
2, 67584, Note_on_c, 0, 55, 64
2, 67584, Note_on_c, 0, 58, 64
2, 68608, Note_on_c, 0, 75, 64
2, 69120, Note_off_c, 0, 75, 0
2, 69120, Note_on_c, 0, 70, 64
2, 69376, Note_off_c, 0, 70, 0
2, 69376, Note_on_c, 0, 70, 64
2, 70656, Note_off_c, 0, 70, 0
2, 71168, Note_on_c, 0, 75, 64
2, 71680, Note_off_c, 0, 75, 0
2, 71680, Note_off_c, 0, 51, 0
2, 71680, Note_off_c, 0, 55, 0
2, 71680, Note_off_c, 0, 58, 0
2, 71680, Note_on_c, 0, 75, 64
2, 71680, Note_on_c, 0, 46, 64
2, 71680, Note_on_c, 0, 50, 64
2, 71680, Note_on_c, 0, 53, 64
2, 71680, Note_on_c, 0, 58, 64
2, 72448, Note_off_c, 0, 75, 0
2, 72448, Note_on_c, 0, 77, 64
2, 73216, Note_off_c, 0, 77, 0
2, 73216, Note_on_c, 0, 70, 64
2, 73728, Note_off_c, 0, 70, 0
2, 73728, Note_on_c, 0, 70, 64
2, 74752, Note_off_c, 0, 70, 0
2, 75264, Note_on_c, 0, 70, 64
2, 75776, Note_off_c, 0, 70, 0
2, 75776, Note_off_c, 0, 46, 0
2, 75776, Note_off_c, 0, 50, 0
2, 75776, Note_off_c, 0, 53, 0
2, 75776, Note_off_c, 0, 58, 0
2, 75776, Note_on_c, 0, 79, 64
2, 75776, Note_on_c, 0, 48, 64
2, 75776, Note_on_c, 0, 51, 64
2, 75776, Note_on_c, 0, 55, 64
2, 76544, Note_off_c, 0, 79, 0
2, 76544, Note_on_c, 0, 80, 64
2, 77312, Note_off_c, 0, 80, 0
2, 77312, Note_on_c, 0, 79, 64
2, 77824, Note_off_c, 0, 79, 0
2, 77824, Note_on_c, 0, 77, 64
2, 77824, Note_off_c, 0, 48, 0
2, 77824, Note_off_c, 0, 51, 0
2, 77824, Note_off_c, 0, 55, 0
2, 77824, Note_on_c, 0, 46, 64
2, 77824, Note_on_c, 0, 50, 64
2, 77824, Note_on_c, 0, 53, 64
2, 77824, Note_on_c, 0, 55, 64
2, 78592, Note_off_c, 0, 77, 0
2, 78592, Note_on_c, 0, 75, 64
2, 79360, Note_off_c, 0, 75, 0
2, 79360, Note_on_c, 0, 77, 64
2, 79872, Note_off_c, 0, 77, 0
2, 79872, Note_off_c, 0, 46, 0
2, 79872, Note_off_c, 0, 50, 0
2, 79872, Note_off_c, 0, 53, 0
2, 79872, Note_off_c, 0, 55, 0
2, 79872, Note_on_c, 0, 79, 64
2, 79872, Note_on_c, 0, 44, 64
2, 79872, Note_on_c, 0, 48, 64
2, 79872, Note_on_c, 0, 51, 64
2, 79872, Note_on_c, 0, 55, 64
2, 80640, Note_off_c, 0, 79, 0
2, 80640, Note_on_c, 0, 80, 64
2, 81408, Note_off_c, 0, 80, 0
2, 81408, Note_on_c, 0, 79, 64
2, 81920, Note_off_c, 0, 79, 0
2, 81920, Note_on_c, 0, 72, 64
2, 82944, Note_off_c, 0, 72, 0
2, 83456, Note_on_c, 0, 72, 64
2, 83712, Note_off_c, 0, 72, 0
2, 83712, Note_on_c, 0, 74, 64
2, 83968, Note_off_c, 0, 74, 0
2, 83968, Note_off_c, 0, 44, 0
2, 83968, Note_off_c, 0, 48, 0
2, 83968, Note_off_c, 0, 51, 0
2, 83968, Note_off_c, 0, 55, 0
2, 83968, Note_on_c, 0, 75, 64
2, 83968, Note_on_c, 0, 46, 64
2, 83968, Note_on_c, 0, 51, 64
2, 83968, Note_on_c, 0, 53, 64
2, 84736, Note_off_c, 0, 75, 0
2, 84736, Note_on_c, 0, 75, 64
2, 85504, Note_off_c, 0, 75, 0
2, 85504, Note_on_c, 0, 74, 64
2, 86016, Note_off_c, 0, 74, 0
2, 86016, Note_on_c, 0, 74, 64
2, 86016, Note_off_c, 0, 46, 0
2, 86016, Note_off_c, 0, 51, 0
2, 86016, Note_off_c, 0, 53, 0
2, 86016, Note_on_c, 0, 46, 64
2, 86016, Note_on_c, 0, 50, 64
2, 86016, Note_on_c, 0, 53, 64
2, 87040, Note_off_c, 0, 74, 0
2, 87552, Note_on_c, 0, 75, 64
2, 87808, Note_off_c, 0, 75, 0
2, 87808, Note_on_c, 0, 77, 64
2, 88064, Note_off_c, 0, 77, 0
2, 88064, Note_off_c, 0, 46, 0
2, 88064, Note_off_c, 0, 50, 0
2, 88064, Note_off_c, 0, 53, 0
2, 88064, Note_on_c, 0, 80, 64
2, 88064, Note_on_c, 0, 51, 64
2, 88064, Note_on_c, 0, 58, 64
2, 88832, Note_off_c, 0, 80, 0
2, 88832, Note_on_c, 0, 79, 64
2, 89600, Note_off_c, 0, 79, 0
2, 89600, Note_on_c, 0, 77, 64
2, 90112, Note_off_c, 0, 77, 0
2, 90112, Note_on_c, 0, 75, 64
2, 90112, Note_off_c, 0, 51, 0
2, 90112, Note_off_c, 0, 58, 0
2, 90112, Note_on_c, 0, 48, 64
2, 90112, Note_on_c, 0, 58, 64
2, 91136, Note_off_c, 0, 75, 0
2, 91648, Note_on_c, 0, 79, 64
2, 92160, Note_off_c, 0, 79, 0
2, 92160, Note_off_c, 0, 48, 0
2, 92160, Note_off_c, 0, 58, 0
2, 92160, Note_on_c, 0, 79, 64
2, 92160, Note_on_c, 0, 50, 64
2, 92160, Note_on_c, 0, 60, 64
2, 92928, Note_off_c, 0, 79, 0
2, 92928, Note_on_c, 0, 77, 64
2, 93696, Note_off_c, 0, 77, 0
2, 93696, Note_on_c, 0, 76, 64
2, 94208, Note_off_c, 0, 76, 0
2, 94208, Note_on_c, 0, 77, 64
2, 94976, Note_off_c, 0, 77, 0
2, 94976, Note_on_c, 0, 79, 64
2, 95744, Note_off_c, 0, 79, 0
2, 95744, Note_on_c, 0, 80, 64
2, 96256, Note_off_c, 0, 80, 0
2, 96256, Note_off_c, 0, 50, 0
2, 96256, Note_off_c, 0, 60, 0
2, 96256, Note_on_c, 0, 79, 64
2, 96256, Note_on_c, 0, 69, 64
2, 96256, Note_on_c, 0, 72, 64
2, 96256, Note_on_c, 0, 43, 64
2, 97280, Note_off_c, 0, 69, 0
2, 97280, Note_off_c, 0, 72, 0
2, 97280, Note_on_c, 0, 67, 64
2, 97280, Note_on_c, 0, 71, 64
2, 97280, Note_off_c, 0, 43, 0
2, 97280, Note_on_c, 0, 43, 64
2, 98304, Note_off_c, 0, 67, 0
2, 98304, Note_off_c, 0, 71, 0
2, 98304, Note_on_c, 0, 69, 64
2, 98304, Note_on_c, 0, 72, 64
2, 98304, Note_off_c, 0, 43, 0
2, 98304, Note_on_c, 0, 43, 64
2, 99328, Note_off_c, 0, 79, 0
2, 99328, Note_off_c, 0, 69, 0
2, 99328, Note_off_c, 0, 72, 0
2, 99328, Note_on_c, 0, 71, 64
2, 99328, Note_on_c, 0, 74, 64
2, 99328, Note_off_c, 0, 43, 0
2, 99328, Note_on_c, 0, 43, 64
2, 100352, Note_off_c, 0, 71, 0
2, 100352, Note_off_c, 0, 74, 0
2, 100352, Note_off_c, 0, 43, 0
2, 100352, Note_on_c, 0, 75, 64
2, 100352, Note_on_c, 0, 67, 64
2, 100352, Note_on_c, 0, 72, 64
2, 100352, Note_on_c, 0, 44, 64
2, 100864, Note_off_c, 0, 44, 0
2, 100864, Note_on_c, 0, 44, 64
2, 101120, Note_off_c, 0, 75, 0
2, 101120, Note_on_c, 0, 75, 64
2, 101376, Note_off_c, 0, 44, 0
2, 101376, Note_on_c, 0, 44, 64
2, 101888, Note_off_c, 0, 75, 0
2, 101888, Note_on_c, 0, 74, 64
2, 101888, Note_off_c, 0, 44, 0
2, 101888, Note_on_c, 0, 44, 64
2, 102400, Note_off_c, 0, 74, 0
2, 102400, Note_on_c, 0, 75, 64
2, 102400, Note_off_c, 0, 44, 0
2, 102400, Note_on_c, 0, 44, 64
2, 102912, Note_off_c, 0, 44, 0
2, 102912, Note_on_c, 0, 44, 64
2, 103168, Note_off_c, 0, 75, 0
2, 103168, Note_on_c, 0, 75, 64
2, 103424, Note_off_c, 0, 44, 0
2, 103424, Note_on_c, 0, 44, 64
2, 103936, Note_off_c, 0, 75, 0
2, 103936, Note_on_c, 0, 74, 64
2, 103936, Note_off_c, 0, 44, 0
2, 103936, Note_on_c, 0, 44, 64
2, 104448, Note_off_c, 0, 74, 0
2, 104448, Note_off_c, 0, 67, 0
2, 104448, Note_off_c, 0, 72, 0
2, 104448, Note_off_c, 0, 44, 0
2, 104448, Note_on_c, 0, 77, 64
2, 104448, Note_on_c, 0, 70, 64
2, 104448, Note_on_c, 0, 74, 64
2, 104448, Note_on_c, 0, 43, 64
2, 104960, Note_off_c, 0, 43, 0
2, 104960, Note_on_c, 0, 43, 64
2, 105216, Note_off_c, 0, 77, 0
2, 105216, Note_on_c, 0, 77, 64
2, 105472, Note_off_c, 0, 43, 0
2, 105472, Note_on_c, 0, 43, 64
2, 105984, Note_off_c, 0, 77, 0
2, 105984, Note_on_c, 0, 75, 64
2, 105984, Note_off_c, 0, 43, 0
2, 105984, Note_on_c, 0, 43, 64
2, 106496, Note_off_c, 0, 75, 0
2, 106496, Note_on_c, 0, 74, 64
2, 106496, Note_off_c, 0, 70, 0
2, 106496, Note_off_c, 0, 74, 0
2, 106496, Note_on_c, 0, 67, 64
2, 106496, Note_on_c, 0, 70, 64
2, 106496, Note_off_c, 0, 43, 0
2, 106496, Note_on_c, 0, 48, 64
2, 107008, Note_off_c, 0, 48, 0
2, 107008, Note_on_c, 0, 48, 64
2, 107264, Note_off_c, 0, 74, 0
2, 107264, Note_on_c, 0, 72, 64
2, 107520, Note_off_c, 0, 48, 0
2, 107520, Note_on_c, 0, 48, 64
2, 108032, Note_off_c, 0, 72, 0
2, 108032, Note_on_c, 0, 74, 64
2, 108032, Note_off_c, 0, 48, 0
2, 108032, Note_on_c, 0, 48, 64
2, 108544, Note_off_c, 0, 74, 0
2, 108544, Note_off_c, 0, 67, 0
2, 108544, Note_off_c, 0, 70, 0
2, 108544, Note_off_c, 0, 48, 0
2, 108544, Note_on_c, 0, 75, 64
2, 108544, Note_on_c, 0, 68, 64
2, 108544, Note_on_c, 0, 72, 64
2, 108544, Note_on_c, 0, 41, 64
2, 109056, Note_off_c, 0, 41, 0
2, 109056, Note_on_c, 0, 41, 64
2, 109312, Note_off_c, 0, 75, 0
2, 109312, Note_on_c, 0, 75, 64
2, 109568, Note_off_c, 0, 41, 0
2, 109568, Note_on_c, 0, 41, 64
2, 110080, Note_off_c, 0, 75, 0
2, 110080, Note_on_c, 0, 74, 64
2, 110080, Note_off_c, 0, 41, 0
2, 110080, Note_on_c, 0, 41, 64
2, 110592, Note_off_c, 0, 74, 0
2, 110592, Note_on_c, 0, 77, 64
2, 110592, Note_off_c, 0, 68, 0
2, 110592, Note_off_c, 0, 72, 0
2, 110592, Note_on_c, 0, 68, 64
2, 110592, Note_on_c, 0, 72, 64
2, 110592, Note_off_c, 0, 41, 0
2, 110592, Note_on_c, 0, 46, 64
2, 111104, Note_off_c, 0, 46, 0
2, 111104, Note_on_c, 0, 46, 64
2, 111360, Note_off_c, 0, 77, 0
2, 111360, Note_on_c, 0, 74, 64
2, 111616, Note_off_c, 0, 46, 0
2, 111616, Note_on_c, 0, 46, 64
2, 112128, Note_off_c, 0, 74, 0
2, 112128, Note_on_c, 0, 72, 64
2, 112128, Note_off_c, 0, 46, 0
2, 112128, Note_on_c, 0, 46, 64
2, 112640, Note_off_c, 0, 72, 0
2, 112640, Note_off_c, 0, 68, 0
2, 112640, Note_off_c, 0, 72, 0
2, 112640, Note_off_c, 0, 46, 0
2, 112640, Note_on_c, 0, 73, 64
2, 112640, Note_on_c, 0, 77, 64
2, 112640, Note_on_c, 0, 70, 64
2, 112640, Note_on_c, 0, 46, 64
2, 113152, Note_off_c, 0, 46, 0
2, 113152, Note_on_c, 0, 46, 64
2, 113664, Note_off_c, 0, 73, 0
2, 113664, Note_off_c, 0, 77, 0
2, 113664, Note_on_c, 0, 75, 64
2, 113664, Note_on_c, 0, 79, 64
2, 113664, Note_off_c, 0, 46, 0
2, 113664, Note_on_c, 0, 53, 64
2, 114176, Note_off_c, 0, 53, 0
2, 114176, Note_on_c, 0, 52, 64
2, 114688, Note_off_c, 0, 75, 0
2, 114688, Note_off_c, 0, 79, 0
2, 114688, Note_on_c, 0, 77, 64
2, 114688, Note_on_c, 0, 80, 64
2, 114688, Note_off_c, 0, 70, 0
2, 114688, Note_off_c, 0, 52, 0
2, 114688, Note_on_c, 0, 51, 64
2, 115200, Note_off_c, 0, 51, 0
2, 115200, Note_on_c, 0, 51, 64
2, 115712, Note_off_c, 0, 77, 0
2, 115712, Note_off_c, 0, 80, 0
2, 115712, Note_on_c, 0, 79, 64
2, 115712, Note_on_c, 0, 82, 64
2, 115712, Note_off_c, 0, 51, 0
2, 115712, Note_on_c, 0, 46, 64
2, 116224, Note_off_c, 0, 46, 0
2, 116224, Note_on_c, 0, 45, 64
2, 116736, Note_off_c, 0, 79, 0
2, 116736, Note_off_c, 0, 82, 0
2, 116736, Note_off_c, 0, 45, 0
2, 116736, Note_on_c, 0, 72, 64
2, 116736, Note_on_c, 0, 75, 64
2, 116736, Note_on_c, 0, 44, 64
2, 117248, Note_off_c, 0, 44, 0
2, 117248, Note_on_c, 0, 44, 64
2, 117504, Note_off_c, 0, 72, 0
2, 117504, Note_off_c, 0, 75, 0
2, 117504, Note_on_c, 0, 72, 64
2, 117504, Note_on_c, 0, 75, 64
2, 117760, Note_off_c, 0, 44, 0
2, 117760, Note_on_c, 0, 44, 64
2, 118272, Note_off_c, 0, 72, 0
2, 118272, Note_off_c, 0, 75, 0
2, 118272, Note_on_c, 0, 70, 64
2, 118272, Note_on_c, 0, 74, 64
2, 118272, Note_off_c, 0, 44, 0
2, 118272, Note_on_c, 0, 44, 64
2, 118784, Note_off_c, 0, 70, 0
2, 118784, Note_off_c, 0, 74, 0
2, 118784, Note_on_c, 0, 72, 64
2, 118784, Note_on_c, 0, 75, 64
2, 118784, Note_off_c, 0, 44, 0
2, 118784, Note_on_c, 0, 44, 64
2, 119296, Note_off_c, 0, 44, 0
2, 119296, Note_on_c, 0, 44, 64
2, 119552, Note_off_c, 0, 72, 0
2, 119552, Note_off_c, 0, 75, 0
2, 119552, Note_on_c, 0, 72, 64
2, 119552, Note_on_c, 0, 75, 64
2, 119808, Note_off_c, 0, 44, 0
2, 119808, Note_on_c, 0, 44, 64
2, 120320, Note_off_c, 0, 72, 0
2, 120320, Note_off_c, 0, 75, 0
2, 120320, Note_on_c, 0, 70, 64
2, 120320, Note_on_c, 0, 74, 64
2, 120320, Note_off_c, 0, 44, 0
2, 120320, Note_on_c, 0, 44, 64
2, 120832, Note_off_c, 0, 70, 0
2, 120832, Note_off_c, 0, 74, 0
2, 120832, Note_off_c, 0, 44, 0
2, 120832, Note_on_c, 0, 74, 64
2, 120832, Note_on_c, 0, 77, 64
2, 120832, Note_on_c, 0, 43, 64
2, 121344, Note_off_c, 0, 43, 0
2, 121344, Note_on_c, 0, 43, 64
2, 121600, Note_off_c, 0, 74, 0
2, 121600, Note_off_c, 0, 77, 0
2, 121600, Note_on_c, 0, 74, 64
2, 121600, Note_on_c, 0, 77, 64
2, 121856, Note_off_c, 0, 43, 0
2, 121856, Note_on_c, 0, 43, 64
2, 122368, Note_off_c, 0, 74, 0
2, 122368, Note_off_c, 0, 77, 0
2, 122368, Note_on_c, 0, 72, 64
2, 122368, Note_on_c, 0, 75, 64
2, 122368, Note_off_c, 0, 43, 0
2, 122368, Note_on_c, 0, 43, 64
2, 122880, Note_off_c, 0, 72, 0
2, 122880, Note_off_c, 0, 75, 0
2, 122880, Note_on_c, 0, 70, 64
2, 122880, Note_on_c, 0, 74, 64
2, 122880, Note_off_c, 0, 43, 0
2, 122880, Note_on_c, 0, 48, 64
2, 123392, Note_off_c, 0, 48, 0
2, 123392, Note_on_c, 0, 48, 64
2, 123648, Note_off_c, 0, 70, 0
2, 123648, Note_off_c, 0, 74, 0
2, 123648, Note_on_c, 0, 72, 64
2, 123648, Note_on_c, 0, 75, 64
2, 123904, Note_off_c, 0, 48, 0
2, 123904, Note_on_c, 0, 48, 64
2, 124416, Note_off_c, 0, 72, 0
2, 124416, Note_off_c, 0, 75, 0
2, 124416, Note_on_c, 0, 74, 64
2, 124416, Note_on_c, 0, 77, 64
2, 124416, Note_off_c, 0, 48, 0
2, 124416, Note_on_c, 0, 48, 64
2, 124928, Note_off_c, 0, 74, 0
2, 124928, Note_off_c, 0, 77, 0
2, 124928, Note_off_c, 0, 48, 0
2, 124928, Note_on_c, 0, 72, 64
2, 124928, Note_on_c, 0, 74, 64
2, 124928, Note_on_c, 0, 79, 64
2, 124928, Note_on_c, 0, 50, 64
2, 125440, Note_off_c, 0, 50, 0
2, 125440, Note_on_c, 0, 50, 64
2, 125696, Note_off_c, 0, 72, 0
2, 125696, Note_off_c, 0, 74, 0
2, 125696, Note_off_c, 0, 79, 0
2, 125696, Note_on_c, 0, 72, 64
2, 125696, Note_on_c, 0, 74, 64
2, 125696, Note_on_c, 0, 80, 64
2, 125952, Note_off_c, 0, 50, 0
2, 125952, Note_on_c, 0, 50, 64
2, 126464, Note_off_c, 0, 72, 0
2, 126464, Note_off_c, 0, 74, 0
2, 126464, Note_off_c, 0, 80, 0
2, 126464, Note_on_c, 0, 72, 64
2, 126464, Note_on_c, 0, 74, 64
2, 126464, Note_on_c, 0, 79, 64
2, 126464, Note_off_c, 0, 50, 0
2, 126464, Note_on_c, 0, 50, 64
2, 126976, Note_off_c, 0, 72, 0
2, 126976, Note_off_c, 0, 74, 0
2, 126976, Note_off_c, 0, 79, 0
2, 126976, Note_on_c, 0, 72, 64
2, 126976, Note_on_c, 0, 74, 64
2, 126976, Note_on_c, 0, 77, 64
2, 126976, Note_off_c, 0, 50, 0
2, 126976, Note_on_c, 0, 50, 64
2, 127488, Note_off_c, 0, 50, 0
2, 127488, Note_on_c, 0, 50, 64
2, 127744, Note_off_c, 0, 72, 0
2, 127744, Note_off_c, 0, 74, 0
2, 127744, Note_off_c, 0, 77, 0
2, 127744, Note_on_c, 0, 72, 64
2, 127744, Note_on_c, 0, 75, 64
2, 128000, Note_off_c, 0, 50, 0
2, 128000, Note_on_c, 0, 50, 64
2, 128512, Note_off_c, 0, 72, 0
2, 128512, Note_off_c, 0, 75, 0
2, 128512, Note_on_c, 0, 72, 64
2, 128512, Note_on_c, 0, 74, 64
2, 128512, Note_on_c, 0, 77, 64
2, 128512, Note_off_c, 0, 50, 0
2, 128512, Note_on_c, 0, 50, 64
2, 129024, Note_off_c, 0, 72, 0
2, 129024, Note_off_c, 0, 74, 0
2, 129024, Note_off_c, 0, 77, 0
2, 129024, Note_off_c, 0, 50, 0
2, 129024, Note_on_c, 0, 69, 64
2, 129024, Note_on_c, 0, 72, 64
2, 129024, Note_on_c, 0, 77, 64
2, 129024, Note_on_c, 0, 79, 64
2, 129024, Note_on_c, 0, 43, 64
2, 131072, Note_off_c, 0, 69, 0
2, 131072, Note_off_c, 0, 72, 0
2, 131072, Note_off_c, 0, 77, 0
2, 131072, Note_off_c, 0, 79, 0
2, 131072, Note_on_c, 0, 71, 64
2, 131072, Note_on_c, 0, 74, 64
2, 131072, Note_on_c, 0, 79, 64
2, 131072, Note_off_c, 0, 43, 0
2, 131072, Note_on_c, 0, 43, 64
2, 131840, Note_off_c, 0, 71, 0
2, 131840, Note_off_c, 0, 74, 0
2, 131840, Note_off_c, 0, 79, 0
2, 131840, Note_on_c, 0, 72, 64
2, 131840, Note_on_c, 0, 77, 64
2, 131840, Note_on_c, 0, 81, 64
2, 131840, Note_off_c, 0, 43, 0
2, 131840, Note_on_c, 0, 43, 64
2, 132608, Note_off_c, 0, 72, 0
2, 132608, Note_off_c, 0, 77, 0
2, 132608, Note_off_c, 0, 81, 0
2, 132608, Note_on_c, 0, 74, 64
2, 132608, Note_on_c, 0, 79, 64
2, 132608, Note_on_c, 0, 83, 64
2, 132608, Note_off_c, 0, 43, 0
2, 132608, Note_on_c, 0, 43, 64
2, 133120, Note_off_c, 0, 74, 0
2, 133120, Note_off_c, 0, 79, 0
2, 133120, Note_off_c, 0, 83, 0
2, 133120, Note_off_c, 0, 43, 0
2, 133120, Note_on_c, 0, 72, 64
2, 133120, Note_on_c, 0, 48, 64
2, 133632, Note_off_c, 0, 48, 0
2, 133632, Note_on_c, 0, 48, 64
2, 134144, Note_off_c, 0, 72, 0
2, 134144, Note_on_c, 0, 67, 64
2, 134144, Note_on_c, 0, 72, 64
2, 134144, Note_on_c, 0, 75, 64
2, 134144, Note_off_c, 0, 48, 0
2, 134144, Note_on_c, 0, 48, 64
2, 134656, Note_off_c, 0, 48, 0
2, 134656, Note_on_c, 0, 51, 64
2, 135168, Note_off_c, 0, 67, 0
2, 135168, Note_off_c, 0, 72, 0
2, 135168, Note_off_c, 0, 75, 0
2, 135168, Note_on_c, 0, 77, 64
2, 135168, Note_on_c, 0, 68, 64
2, 135168, Note_on_c, 0, 72, 64
2, 135168, Note_off_c, 0, 51, 0
2, 135168, Note_on_c, 0, 53, 64
2, 135424, Note_off_c, 0, 53, 0
2, 135424, Note_on_c, 0, 53, 64
2, 135680, Note_off_c, 0, 53, 0
2, 135936, Note_off_c, 0, 77, 0
2, 135936, Note_on_c, 0, 75, 64
2, 135936, Note_on_c, 0, 53, 64
2, 136448, Note_off_c, 0, 53, 0
2, 136448, Note_on_c, 0, 53, 64
2, 136704, Note_off_c, 0, 75, 0
2, 136704, Note_on_c, 0, 77, 64
2, 136704, Note_off_c, 0, 53, 0
2, 136704, Note_on_c, 0, 48, 64
2, 137216, Note_off_c, 0, 77, 0
2, 137216, Note_off_c, 0, 68, 0
2, 137216, Note_off_c, 0, 72, 0
2, 137216, Note_off_c, 0, 48, 0
2, 137216, Note_on_c, 0, 77, 64
2, 137216, Note_on_c, 0, 46, 64
2, 137728, Note_off_c, 0, 77, 0
2, 137728, Note_on_c, 0, 77, 64
2, 137728, Note_off_c, 0, 46, 0
2, 137728, Note_on_c, 0, 46, 64
2, 138240, Note_off_c, 0, 77, 0
2, 138240, Note_on_c, 0, 82, 64
2, 138240, Note_off_c, 0, 46, 0
2, 138240, Note_on_c, 0, 46, 64
2, 138752, Note_off_c, 0, 82, 0
2, 138752, Note_on_c, 0, 80, 64
2, 138752, Note_off_c, 0, 46, 0
2, 138752, Note_on_c, 0, 50, 64
2, 139264, Note_off_c, 0, 80, 0
2, 139264, Note_on_c, 0, 79, 64
2, 139264, Note_off_c, 0, 50, 0
2, 139264, Note_on_c, 0, 51, 64
2, 139520, Note_off_c, 0, 79, 0
2, 139520, Note_on_c, 0, 77, 64
2, 139520, Note_off_c, 0, 51, 0
2, 139520, Note_on_c, 0, 51, 64
2, 139776, Note_off_c, 0, 51, 0
2, 140032, Note_off_c, 0, 77, 0
2, 140032, Note_on_c, 0, 79, 64
2, 140032, Note_on_c, 0, 51, 64
2, 140288, Note_off_c, 0, 51, 0
2, 140288, Note_on_c, 0, 51, 64
2, 140800, Note_off_c, 0, 51, 0
2, 140800, Note_on_c, 0, 50, 64
2, 141312, Note_off_c, 0, 79, 0
2, 141312, Note_off_c, 0, 50, 0
2, 141312, Note_on_c, 0, 75, 64
2, 141312, Note_on_c, 0, 79, 64
2, 141312, Note_on_c, 0, 48, 64
2, 141824, Note_off_c, 0, 48, 0
2, 141824, Note_on_c, 0, 48, 64
2, 142336, Note_off_c, 0, 75, 0
2, 142336, Note_off_c, 0, 79, 0
2, 142336, Note_on_c, 0, 75, 64
2, 142336, Note_on_c, 0, 79, 64
2, 142336, Note_on_c, 0, 82, 64
2, 142336, Note_off_c, 0, 48, 0
2, 142336, Note_on_c, 0, 48, 64
2, 142848, Note_off_c, 0, 48, 0
2, 142848, Note_on_c, 0, 51, 64
2, 143360, Note_off_c, 0, 75, 0
2, 143360, Note_off_c, 0, 79, 0
2, 143360, Note_off_c, 0, 82, 0
2, 143360, Note_on_c, 0, 75, 64
2, 143360, Note_on_c, 0, 80, 64
2, 143360, Note_on_c, 0, 84, 64
2, 143360, Note_off_c, 0, 51, 0
2, 143360, Note_on_c, 0, 53, 64
2, 143616, Note_off_c, 0, 53, 0
2, 143616, Note_on_c, 0, 53, 64
2, 143872, Note_off_c, 0, 53, 0
2, 144128, Note_off_c, 0, 75, 0
2, 144128, Note_off_c, 0, 80, 0
2, 144128, Note_off_c, 0, 84, 0
2, 144128, Note_on_c, 0, 77, 64
2, 144128, Note_on_c, 0, 53, 64
2, 144640, Note_off_c, 0, 53, 0
2, 144640, Note_on_c, 0, 53, 64
2, 144896, Note_off_c, 0, 77, 0
2, 144896, Note_on_c, 0, 75, 64
2, 144896, Note_off_c, 0, 53, 0
2, 144896, Note_on_c, 0, 48, 64
2, 145408, Note_off_c, 0, 75, 0
2, 145408, Note_off_c, 0, 48, 0
2, 145408, Note_on_c, 0, 74, 64
2, 145408, Note_on_c, 0, 46, 64
2, 145920, Note_off_c, 0, 74, 0
2, 145920, Note_on_c, 0, 74, 64
2, 145920, Note_off_c, 0, 46, 0
2, 145920, Note_on_c, 0, 46, 64
2, 146432, Note_off_c, 0, 74, 0
2, 146432, Note_on_c, 0, 72, 64
2, 146432, Note_off_c, 0, 46, 0
2, 146432, Note_on_c, 0, 46, 64
2, 146944, Note_off_c, 0, 72, 0
2, 146944, Note_on_c, 0, 74, 64
2, 146944, Note_off_c, 0, 46, 0
2, 146944, Note_on_c, 0, 50, 64
2, 147456, Note_off_c, 0, 74, 0
2, 147456, Note_on_c, 0, 77, 64
2, 147456, Note_off_c, 0, 50, 0
2, 147456, Note_on_c, 0, 51, 64
2, 147712, Note_off_c, 0, 77, 0
2, 147712, Note_on_c, 0, 75, 64
2, 148224, Note_off_c, 0, 75, 0
2, 148224, Note_on_c, 0, 75, 64
2, 148480, Note_off_c, 0, 51, 0
2, 148480, Note_on_c, 0, 50, 64
2, 149504, Note_off_c, 0, 75, 0
2, 149504, Note_off_c, 0, 50, 0
2, 149504, Note_on_c, 0, 72, 64
2, 149504, Note_on_c, 0, 48, 64
2, 150016, Note_off_c, 0, 48, 0
2, 150016, Note_on_c, 0, 48, 64
2, 150528, Note_off_c, 0, 72, 0
2, 150528, Note_on_c, 0, 67, 64
2, 150528, Note_on_c, 0, 72, 64
2, 150528, Note_on_c, 0, 75, 64
2, 150528, Note_off_c, 0, 48, 0
2, 150528, Note_on_c, 0, 48, 64
2, 151040, Note_off_c, 0, 48, 0
2, 151040, Note_on_c, 0, 51, 64
2, 151552, Note_off_c, 0, 67, 0
2, 151552, Note_off_c, 0, 72, 0
2, 151552, Note_off_c, 0, 75, 0
2, 151552, Note_on_c, 0, 77, 64
2, 151552, Note_on_c, 0, 68, 64
2, 151552, Note_on_c, 0, 72, 64
2, 151552, Note_off_c, 0, 51, 0
2, 151552, Note_on_c, 0, 53, 64
2, 151808, Note_off_c, 0, 53, 0
2, 151808, Note_on_c, 0, 53, 64
2, 152064, Note_off_c, 0, 53, 0
2, 152320, Note_off_c, 0, 77, 0
2, 152320, Note_on_c, 0, 75, 64
2, 152320, Note_on_c, 0, 53, 64
2, 152832, Note_off_c, 0, 53, 0
2, 152832, Note_on_c, 0, 53, 64
2, 153088, Note_off_c, 0, 75, 0
2, 153088, Note_on_c, 0, 77, 64
2, 153088, Note_off_c, 0, 53, 0
2, 153088, Note_on_c, 0, 48, 64
2, 153600, Note_off_c, 0, 77, 0
2, 153600, Note_off_c, 0, 68, 0
2, 153600, Note_off_c, 0, 72, 0
2, 153600, Note_off_c, 0, 48, 0
2, 153600, Note_on_c, 0, 77, 64
2, 153600, Note_on_c, 0, 46, 64
2, 154112, Note_off_c, 0, 77, 0
2, 154112, Note_on_c, 0, 77, 64
2, 154112, Note_off_c, 0, 46, 0
2, 154112, Note_on_c, 0, 46, 64
2, 154624, Note_off_c, 0, 77, 0
2, 154624, Note_on_c, 0, 82, 64
2, 154624, Note_off_c, 0, 46, 0
2, 154624, Note_on_c, 0, 46, 64
2, 155136, Note_off_c, 0, 82, 0
2, 155136, Note_on_c, 0, 80, 64
2, 155136, Note_off_c, 0, 46, 0
2, 155136, Note_on_c, 0, 50, 64
2, 155648, Note_off_c, 0, 80, 0
2, 155648, Note_on_c, 0, 79, 64
2, 155648, Note_off_c, 0, 50, 0
2, 155648, Note_on_c, 0, 51, 64
2, 155904, Note_off_c, 0, 79, 0
2, 155904, Note_on_c, 0, 77, 64
2, 155904, Note_off_c, 0, 51, 0
2, 155904, Note_on_c, 0, 51, 64
2, 156160, Note_off_c, 0, 51, 0
2, 156416, Note_off_c, 0, 77, 0
2, 156416, Note_on_c, 0, 79, 64
2, 156416, Note_on_c, 0, 51, 64
2, 156672, Note_off_c, 0, 51, 0
2, 156672, Note_on_c, 0, 51, 64
2, 157184, Note_off_c, 0, 51, 0
2, 157184, Note_on_c, 0, 50, 64
2, 157696, Note_off_c, 0, 79, 0
2, 157696, Note_off_c, 0, 50, 0
2, 157696, Note_on_c, 0, 75, 64
2, 157696, Note_on_c, 0, 79, 64
2, 157696, Note_on_c, 0, 48, 64
2, 158208, Note_off_c, 0, 48, 0
2, 158208, Note_on_c, 0, 48, 64
2, 158720, Note_off_c, 0, 75, 0
2, 158720, Note_off_c, 0, 79, 0
2, 158720, Note_on_c, 0, 75, 64
2, 158720, Note_on_c, 0, 79, 64
2, 158720, Note_on_c, 0, 82, 64
2, 158720, Note_off_c, 0, 48, 0
2, 158720, Note_on_c, 0, 48, 64
2, 159232, Note_off_c, 0, 48, 0
2, 159232, Note_on_c, 0, 51, 64
2, 159744, Note_off_c, 0, 75, 0
2, 159744, Note_off_c, 0, 79, 0
2, 159744, Note_off_c, 0, 82, 0
2, 159744, Note_on_c, 0, 75, 64
2, 159744, Note_on_c, 0, 80, 64
2, 159744, Note_on_c, 0, 84, 64
2, 159744, Note_off_c, 0, 51, 0
2, 159744, Note_on_c, 0, 53, 64
2, 160000, Note_off_c, 0, 53, 0
2, 160000, Note_on_c, 0, 53, 64
2, 160256, Note_off_c, 0, 53, 0
2, 160512, Note_off_c, 0, 75, 0
2, 160512, Note_off_c, 0, 80, 0
2, 160512, Note_off_c, 0, 84, 0
2, 160512, Note_on_c, 0, 77, 64
2, 160512, Note_on_c, 0, 53, 64
2, 161024, Note_off_c, 0, 53, 0
2, 161024, Note_on_c, 0, 53, 64
2, 161280, Note_off_c, 0, 77, 0
2, 161280, Note_on_c, 0, 75, 64
2, 161280, Note_off_c, 0, 53, 0
2, 161280, Note_on_c, 0, 48, 64
2, 161792, Note_off_c, 0, 75, 0
2, 161792, Note_off_c, 0, 48, 0
2, 161792, Note_on_c, 0, 74, 64
2, 161792, Note_on_c, 0, 77, 64
2, 161792, Note_on_c, 0, 82, 64
2, 161792, Note_on_c, 0, 46, 64
2, 162304, Note_off_c, 0, 74, 0
2, 162304, Note_off_c, 0, 77, 0
2, 162304, Note_off_c, 0, 82, 0
2, 162304, Note_on_c, 0, 74, 64
2, 162304, Note_on_c, 0, 77, 64
2, 162304, Note_on_c, 0, 82, 64
2, 162304, Note_off_c, 0, 46, 0
2, 162304, Note_on_c, 0, 46, 64
2, 162816, Note_off_c, 0, 74, 0
2, 162816, Note_off_c, 0, 77, 0
2, 162816, Note_off_c, 0, 82, 0
2, 162816, Note_on_c, 0, 74, 64
2, 162816, Note_on_c, 0, 77, 64
2, 162816, Note_on_c, 0, 79, 64
2, 162816, Note_off_c, 0, 46, 0
2, 162816, Note_on_c, 0, 46, 64
2, 163328, Note_off_c, 0, 74, 0
2, 163328, Note_off_c, 0, 77, 0
2, 163328, Note_off_c, 0, 79, 0
2, 163328, Note_on_c, 0, 74, 64
2, 163328, Note_on_c, 0, 77, 64
2, 163328, Note_on_c, 0, 82, 64
2, 163328, Note_off_c, 0, 46, 0
2, 163328, Note_on_c, 0, 47, 64
2, 163840, Note_off_c, 0, 74, 0
2, 163840, Note_off_c, 0, 77, 0
2, 163840, Note_off_c, 0, 82, 0
2, 163840, Note_on_c, 0, 74, 64
2, 163840, Note_on_c, 0, 77, 64
2, 163840, Note_on_c, 0, 82, 64
2, 163840, Note_off_c, 0, 47, 0
2, 163840, Note_on_c, 0, 48, 64
2, 164096, Note_off_c, 0, 48, 0
2, 164096, Note_on_c, 0, 48, 64
2, 164608, Note_off_c, 0, 74, 0
2, 164608, Note_off_c, 0, 77, 0
2, 164608, Note_off_c, 0, 82, 0
2, 164608, Note_on_c, 0, 75, 64
2, 164608, Note_on_c, 0, 79, 64
2, 164608, Note_on_c, 0, 84, 64
2, 164608, Note_off_c, 0, 48, 0
2, 164608, Note_on_c, 0, 48, 64
2, 164864, Note_off_c, 0, 48, 0
2, 164864, Note_on_c, 0, 46, 64
2, 165888, Note_off_c, 0, 75, 0
2, 165888, Note_off_c, 0, 79, 0
2, 165888, Note_off_c, 0, 84, 0
2, 165888, Note_off_c, 0, 46, 0
2, 165888, Note_on_c, 0, 72, 64
2, 165888, Note_on_c, 0, 48, 64
2, 166400, Note_off_c, 0, 48, 0
2, 166400, Note_on_c, 0, 48, 64
2, 166912, Note_off_c, 0, 72, 0
2, 166912, Note_on_c, 0, 67, 64
2, 166912, Note_on_c, 0, 72, 64
2, 166912, Note_on_c, 0, 75, 64
2, 166912, Note_off_c, 0, 48, 0
2, 166912, Note_on_c, 0, 48, 64
2, 167424, Note_off_c, 0, 48, 0
2, 167424, Note_on_c, 0, 51, 64
2, 167936, Note_off_c, 0, 67, 0
2, 167936, Note_off_c, 0, 72, 0
2, 167936, Note_off_c, 0, 75, 0
2, 167936, Note_on_c, 0, 77, 64
2, 167936, Note_on_c, 0, 68, 64
2, 167936, Note_on_c, 0, 72, 64
2, 167936, Note_off_c, 0, 51, 0
2, 167936, Note_on_c, 0, 53, 64
2, 168192, Note_off_c, 0, 53, 0
2, 168192, Note_on_c, 0, 53, 64
2, 168448, Note_off_c, 0, 53, 0
2, 168704, Note_off_c, 0, 77, 0
2, 168704, Note_on_c, 0, 75, 64
2, 168704, Note_on_c, 0, 53, 64
2, 169216, Note_off_c, 0, 53, 0
2, 169216, Note_on_c, 0, 53, 64
2, 169472, Note_off_c, 0, 75, 0
2, 169472, Note_on_c, 0, 77, 64
2, 169472, Note_off_c, 0, 53, 0
2, 169472, Note_on_c, 0, 48, 64
2, 169984, Note_off_c, 0, 77, 0
2, 169984, Note_off_c, 0, 68, 0
2, 169984, Note_off_c, 0, 72, 0
2, 169984, Note_off_c, 0, 48, 0
2, 169984, Note_on_c, 0, 77, 64
2, 169984, Note_on_c, 0, 46, 64
2, 170496, Note_off_c, 0, 77, 0
2, 170496, Note_on_c, 0, 77, 64
2, 170496, Note_off_c, 0, 46, 0
2, 170496, Note_on_c, 0, 46, 64
2, 171008, Note_off_c, 0, 77, 0
2, 171008, Note_on_c, 0, 82, 64
2, 171008, Note_off_c, 0, 46, 0
2, 171008, Note_on_c, 0, 46, 64
2, 171520, Note_off_c, 0, 82, 0
2, 171520, Note_on_c, 0, 80, 64
2, 171520, Note_off_c, 0, 46, 0
2, 171520, Note_on_c, 0, 50, 64
2, 172032, Note_off_c, 0, 80, 0
2, 172032, Note_on_c, 0, 79, 64
2, 172032, Note_off_c, 0, 50, 0
2, 172032, Note_on_c, 0, 51, 64
2, 172288, Note_off_c, 0, 79, 0
2, 172288, Note_on_c, 0, 77, 64
2, 172288, Note_off_c, 0, 51, 0
2, 172288, Note_on_c, 0, 51, 64
2, 172544, Note_off_c, 0, 51, 0
2, 172800, Note_off_c, 0, 77, 0
2, 172800, Note_on_c, 0, 79, 64
2, 172800, Note_on_c, 0, 51, 64
2, 173056, Note_off_c, 0, 51, 0
2, 173056, Note_on_c, 0, 51, 64
2, 173568, Note_off_c, 0, 51, 0
2, 173568, Note_on_c, 0, 50, 64
2, 174080, Note_off_c, 0, 79, 0
2, 174080, Note_off_c, 0, 50, 0
2, 174080, Note_on_c, 0, 75, 64
2, 174080, Note_on_c, 0, 79, 64
2, 174080, Note_on_c, 0, 48, 64
2, 174592, Note_off_c, 0, 48, 0
2, 174592, Note_on_c, 0, 48, 64
2, 175104, Note_off_c, 0, 75, 0
2, 175104, Note_off_c, 0, 79, 0
2, 175104, Note_on_c, 0, 75, 64
2, 175104, Note_on_c, 0, 79, 64
2, 175104, Note_on_c, 0, 82, 64
2, 175104, Note_off_c, 0, 48, 0
2, 175104, Note_on_c, 0, 48, 64
2, 175616, Note_off_c, 0, 48, 0
2, 175616, Note_on_c, 0, 51, 64
2, 176128, Note_off_c, 0, 75, 0
2, 176128, Note_off_c, 0, 79, 0
2, 176128, Note_off_c, 0, 82, 0
2, 176128, Note_on_c, 0, 75, 64
2, 176128, Note_on_c, 0, 80, 64
2, 176128, Note_on_c, 0, 84, 64
2, 176128, Note_off_c, 0, 51, 0
2, 176128, Note_on_c, 0, 53, 64
2, 176384, Note_off_c, 0, 53, 0
2, 176384, Note_on_c, 0, 53, 64
2, 176640, Note_off_c, 0, 53, 0
2, 176896, Note_off_c, 0, 75, 0
2, 176896, Note_off_c, 0, 80, 0
2, 176896, Note_off_c, 0, 84, 0
2, 176896, Note_on_c, 0, 77, 64
2, 176896, Note_on_c, 0, 53, 64
2, 177408, Note_off_c, 0, 53, 0
2, 177408, Note_on_c, 0, 53, 64
2, 177664, Note_off_c, 0, 77, 0
2, 177664, Note_on_c, 0, 75, 64
2, 177664, Note_off_c, 0, 53, 0
2, 177664, Note_on_c, 0, 48, 64
2, 178176, Note_off_c, 0, 75, 0
2, 178176, Note_off_c, 0, 48, 0
2, 178176, Note_on_c, 0, 74, 64
2, 178176, Note_on_c, 0, 77, 64
2, 178176, Note_on_c, 0, 82, 64
2, 178176, Note_on_c, 0, 46, 64
2, 178688, Note_off_c, 0, 74, 0
2, 178688, Note_off_c, 0, 77, 0
2, 178688, Note_off_c, 0, 82, 0
2, 178688, Note_on_c, 0, 74, 64
2, 178688, Note_on_c, 0, 77, 64
2, 178688, Note_on_c, 0, 82, 64
2, 178688, Note_off_c, 0, 46, 0
2, 178688, Note_on_c, 0, 46, 64
2, 179200, Note_off_c, 0, 74, 0
2, 179200, Note_off_c, 0, 77, 0
2, 179200, Note_off_c, 0, 82, 0
2, 179200, Note_on_c, 0, 74, 64
2, 179200, Note_on_c, 0, 77, 64
2, 179200, Note_on_c, 0, 79, 64
2, 179200, Note_off_c, 0, 46, 0
2, 179200, Note_on_c, 0, 43, 64
2, 179712, Note_off_c, 0, 74, 0
2, 179712, Note_off_c, 0, 77, 0
2, 179712, Note_off_c, 0, 79, 0
2, 179712, Note_on_c, 0, 74, 64
2, 179712, Note_on_c, 0, 77, 64
2, 179712, Note_on_c, 0, 82, 64
2, 179712, Note_off_c, 0, 43, 0
2, 179712, Note_on_c, 0, 46, 64
2, 180224, Note_off_c, 0, 74, 0
2, 180224, Note_off_c, 0, 77, 0
2, 180224, Note_off_c, 0, 82, 0
2, 180224, Note_on_c, 0, 74, 64
2, 180224, Note_on_c, 0, 77, 64
2, 180224, Note_on_c, 0, 82, 64
2, 180224, Note_off_c, 0, 46, 0
2, 180224, Note_on_c, 0, 46, 64
2, 180992, Note_off_c, 0, 74, 0
2, 180992, Note_off_c, 0, 77, 0
2, 180992, Note_off_c, 0, 82, 0
2, 180992, Note_on_c, 0, 75, 64
2, 180992, Note_on_c, 0, 79, 64
2, 180992, Note_on_c, 0, 84, 64
2, 180992, Note_off_c, 0, 46, 0
2, 180992, Note_on_c, 0, 48, 64
2, 182272, Note_off_c, 0, 75, 0
2, 182272, Note_off_c, 0, 79, 0
2, 182272, Note_off_c, 0, 84, 0
2, 182272, Note_off_c, 0, 48, 0
2, 182272, Note_on_c, 0, 43, 64
2, 182528, Note_off_c, 0, 43, 0
2, 182528, Note_on_c, 0, 46, 64
2, 182784, Note_off_c, 0, 46, 0
2, 182784, Note_on_c, 0, 48, 64
2, 183040, Note_off_c, 0, 48, 0
2, 183040, Note_on_c, 0, 43, 64
2, 183296, Note_off_c, 0, 43, 0
2, 183296, Note_on_c, 0, 41, 64
2, 183296, Note_on_c, 0, 36, 64
2, 183552, Note_off_c, 0, 41, 0
2, 183552, Note_on_c, 0, 43, 64
2, 183808, Note_off_c, 0, 43, 0
2, 183808, Note_on_c, 0, 46, 64
2, 184064, Note_off_c, 0, 46, 0
2, 184064, Note_on_c, 0, 48, 64
2, 184320, Note_off_c, 0, 48, 0
2, 184320, Note_on_c, 0, 43, 64
2, 184320, Note_off_c, 0, 36, 0
2, 184576, Note_off_c, 0, 43, 0
2, 184576, Note_on_c, 0, 46, 64
2, 184832, Note_off_c, 0, 46, 0
2, 184832, Note_on_c, 0, 48, 64
2, 185088, Note_off_c, 0, 48, 0
2, 185088, Note_on_c, 0, 43, 64
2, 185344, Note_off_c, 0, 43, 0
2, 185344, Note_on_c, 0, 41, 64
2, 185344, Note_on_c, 0, 36, 64
2, 185600, Note_off_c, 0, 41, 0
2, 185600, Note_on_c, 0, 43, 64
2, 185856, Note_off_c, 0, 43, 0
2, 185856, Note_on_c, 0, 46, 64
2, 186112, Note_off_c, 0, 46, 0
2, 186112, Note_on_c, 0, 48, 64
2, 186368, Note_off_c, 0, 48, 0
2, 186368, Note_off_c, 0, 36, 0
2, 186368, Note_on_c, 0, 43, 64
2, 186624, Note_off_c, 0, 43, 0
2, 186624, Note_on_c, 0, 46, 64
2, 186880, Note_off_c, 0, 46, 0
2, 186880, Note_on_c, 0, 48, 64
2, 187136, Note_off_c, 0, 48, 0
2, 187136, Note_on_c, 0, 43, 64
2, 187392, Note_off_c, 0, 43, 0
2, 187392, Note_on_c, 0, 41, 64
2, 187392, Note_on_c, 0, 36, 64
2, 187648, Note_off_c, 0, 41, 0
2, 187648, Note_on_c, 0, 43, 64
2, 187904, Note_off_c, 0, 43, 0
2, 187904, Note_on_c, 0, 46, 64
2, 188160, Note_off_c, 0, 46, 0
2, 188160, Note_on_c, 0, 48, 64
2, 188416, Note_off_c, 0, 48, 0
2, 188416, Note_on_c, 0, 43, 64
2, 188416, Note_off_c, 0, 36, 0
2, 188672, Note_off_c, 0, 43, 0
2, 188672, Note_on_c, 0, 46, 64
2, 188928, Note_off_c, 0, 46, 0
2, 188928, Note_on_c, 0, 48, 64
2, 189184, Note_off_c, 0, 48, 0
2, 189184, Note_on_c, 0, 43, 64
2, 189440, Note_off_c, 0, 43, 0
2, 189440, Note_on_c, 0, 41, 64
2, 189440, Note_on_c, 0, 36, 64
2, 189696, Note_off_c, 0, 41, 0
2, 189696, Note_on_c, 0, 43, 64
2, 189952, Note_off_c, 0, 43, 0
2, 189952, Note_on_c, 0, 46, 64
2, 190208, Note_off_c, 0, 46, 0
2, 190208, Note_on_c, 0, 48, 64
2, 190464, Note_off_c, 0, 48, 0
2, 190464, Note_off_c, 0, 36, 0
2, 190464, Note_on_c, 0, 39, 64
2, 190720, Note_off_c, 0, 39, 0
2, 190720, Note_on_c, 0, 42, 64
2, 190976, Note_off_c, 0, 42, 0
2, 190976, Note_on_c, 0, 44, 64
2, 191232, Note_off_c, 0, 44, 0
2, 191232, Note_on_c, 0, 39, 64
2, 191488, Note_off_c, 0, 39, 0
2, 191488, Note_on_c, 0, 37, 64
2, 191488, Note_on_c, 0, 32, 64
2, 191744, Note_off_c, 0, 37, 0
2, 191744, Note_on_c, 0, 39, 64
2, 192000, Note_off_c, 0, 39, 0
2, 192000, Note_on_c, 0, 42, 64
2, 192256, Note_off_c, 0, 42, 0
2, 192256, Note_on_c, 0, 44, 64
2, 192512, Note_off_c, 0, 44, 0
2, 192512, Note_on_c, 0, 39, 64
2, 192512, Note_off_c, 0, 32, 0
2, 192768, Note_off_c, 0, 39, 0
2, 192768, Note_on_c, 0, 42, 64
2, 193024, Note_off_c, 0, 42, 0
2, 193024, Note_on_c, 0, 44, 64
2, 193280, Note_off_c, 0, 44, 0
2, 193280, Note_on_c, 0, 39, 64
2, 193536, Note_off_c, 0, 39, 0
2, 193536, Note_on_c, 0, 37, 64
2, 193536, Note_on_c, 0, 32, 64
2, 193792, Note_off_c, 0, 37, 0
2, 193792, Note_on_c, 0, 39, 64
2, 194048, Note_off_c, 0, 39, 0
2, 194048, Note_on_c, 0, 42, 64
2, 194304, Note_off_c, 0, 42, 0
2, 194304, Note_on_c, 0, 44, 64
2, 194560, Note_off_c, 0, 44, 0
2, 194560, Note_off_c, 0, 32, 0
2, 194560, Note_on_c, 0, 41, 64
2, 194816, Note_off_c, 0, 41, 0
2, 194816, Note_on_c, 0, 44, 64
2, 195072, Note_off_c, 0, 44, 0
2, 195072, Note_on_c, 0, 46, 64
2, 195328, Note_off_c, 0, 46, 0
2, 195328, Note_on_c, 0, 41, 64
2, 195584, Note_off_c, 0, 41, 0
2, 195584, Note_on_c, 0, 39, 64
2, 195584, Note_on_c, 0, 34, 64
2, 195840, Note_off_c, 0, 39, 0
2, 195840, Note_on_c, 0, 41, 64
2, 196096, Note_off_c, 0, 41, 0
2, 196096, Note_on_c, 0, 44, 64
2, 196352, Note_off_c, 0, 44, 0
2, 196352, Note_on_c, 0, 46, 64
2, 196608, Note_off_c, 0, 46, 0
2, 196608, Note_on_c, 0, 41, 64
2, 196608, Note_off_c, 0, 34, 0
2, 196864, Note_off_c, 0, 41, 0
2, 196864, Note_on_c, 0, 44, 64
2, 197120, Note_off_c, 0, 44, 0
2, 197120, Note_on_c, 0, 46, 64
2, 197376, Note_off_c, 0, 46, 0
2, 197376, Note_on_c, 0, 41, 64
2, 197632, Note_off_c, 0, 41, 0
2, 197632, Note_on_c, 0, 39, 64
2, 197632, Note_on_c, 0, 34, 64
2, 197888, Note_off_c, 0, 39, 0
2, 197888, Note_on_c, 0, 41, 64
2, 198144, Note_off_c, 0, 41, 0
2, 198144, Note_on_c, 0, 44, 64
2, 198400, Note_off_c, 0, 44, 0
2, 198400, Note_on_c, 0, 46, 64
2, 198656, Note_off_c, 0, 46, 0
2, 198656, Note_off_c, 0, 34, 0
2, 198656, Note_on_c, 0, 43, 64
2, 198912, Note_off_c, 0, 43, 0
2, 198912, Note_on_c, 0, 46, 64
2, 199168, Note_off_c, 0, 46, 0
2, 199168, Note_on_c, 0, 48, 64
2, 199424, Note_off_c, 0, 48, 0
2, 199424, Note_on_c, 0, 43, 64
2, 199680, Note_off_c, 0, 43, 0
2, 199680, Note_on_c, 0, 41, 64
2, 199680, Note_on_c, 0, 36, 64
2, 199936, Note_off_c, 0, 41, 0
2, 199936, Note_on_c, 0, 43, 64
2, 200192, Note_off_c, 0, 43, 0
2, 200192, Note_on_c, 0, 46, 64
2, 200448, Note_off_c, 0, 46, 0
2, 200448, Note_on_c, 0, 48, 64
2, 200704, Note_off_c, 0, 48, 0
2, 200704, Note_on_c, 0, 43, 64
2, 200704, Note_off_c, 0, 36, 0
2, 200960, Note_off_c, 0, 43, 0
2, 200960, Note_on_c, 0, 46, 64
2, 201216, Note_off_c, 0, 46, 0
2, 201216, Note_on_c, 0, 48, 64
2, 201472, Note_off_c, 0, 48, 0
2, 201472, Note_on_c, 0, 43, 64
2, 201728, Note_off_c, 0, 43, 0
2, 201728, Note_on_c, 0, 41, 64
2, 201728, Note_on_c, 0, 36, 64
2, 201984, Note_off_c, 0, 41, 0
2, 201984, Note_on_c, 0, 43, 64
2, 202240, Note_off_c, 0, 43, 0
2, 202240, Note_on_c, 0, 46, 64
2, 202496, Note_off_c, 0, 46, 0
2, 202496, Note_on_c, 0, 48, 64
2, 202752, Note_off_c, 0, 48, 0
2, 202752, Note_off_c, 0, 36, 0
2, 202752, Note_on_c, 0, 43, 64
2, 203008, Note_off_c, 0, 43, 0
2, 203008, Note_on_c, 0, 46, 64
2, 203264, Note_off_c, 0, 46, 0
2, 203264, Note_on_c, 0, 48, 64
2, 203520, Note_off_c, 0, 48, 0
2, 203520, Note_on_c, 0, 43, 64
2, 203776, Note_off_c, 0, 43, 0
2, 203776, Note_on_c, 0, 41, 64
2, 203776, Note_on_c, 0, 36, 64
2, 204032, Note_off_c, 0, 41, 0
2, 204032, Note_on_c, 0, 43, 64
2, 204288, Note_off_c, 0, 43, 0
2, 204288, Note_on_c, 0, 46, 64
2, 204544, Note_off_c, 0, 46, 0
2, 204544, Note_on_c, 0, 48, 64
2, 204800, Note_off_c, 0, 48, 0
2, 204800, Note_on_c, 0, 43, 64
2, 204800, Note_off_c, 0, 36, 0
2, 205056, Note_off_c, 0, 43, 0
2, 205056, Note_on_c, 0, 46, 64
2, 205312, Note_off_c, 0, 46, 0
2, 205312, Note_on_c, 0, 48, 64
2, 205568, Note_off_c, 0, 48, 0
2, 205568, Note_on_c, 0, 43, 64
2, 205824, Note_off_c, 0, 43, 0
2, 205824, Note_on_c, 0, 41, 64
2, 205824, Note_on_c, 0, 36, 64
2, 206080, Note_off_c, 0, 41, 0
2, 206080, Note_on_c, 0, 43, 64
2, 206336, Note_off_c, 0, 43, 0
2, 206336, Note_on_c, 0, 46, 64
2, 206592, Note_off_c, 0, 46, 0
2, 206592, Note_on_c, 0, 48, 64
2, 206848, Note_off_c, 0, 48, 0
2, 206848, Note_off_c, 0, 36, 0
2, 206848, Note_on_c, 0, 39, 64
2, 207104, Note_off_c, 0, 39, 0
2, 207104, Note_on_c, 0, 42, 64
2, 207360, Note_off_c, 0, 42, 0
2, 207360, Note_on_c, 0, 44, 64
2, 207616, Note_off_c, 0, 44, 0
2, 207616, Note_on_c, 0, 39, 64
2, 207872, Note_off_c, 0, 39, 0
2, 207872, Note_on_c, 0, 37, 64
2, 207872, Note_on_c, 0, 32, 64
2, 208128, Note_off_c, 0, 37, 0
2, 208128, Note_on_c, 0, 39, 64
2, 208384, Note_off_c, 0, 39, 0
2, 208384, Note_on_c, 0, 42, 64
2, 208640, Note_off_c, 0, 42, 0
2, 208640, Note_on_c, 0, 44, 64
2, 208896, Note_off_c, 0, 44, 0
2, 208896, Note_on_c, 0, 39, 64
2, 208896, Note_off_c, 0, 32, 0
2, 209152, Note_off_c, 0, 39, 0
2, 209152, Note_on_c, 0, 42, 64
2, 209408, Note_off_c, 0, 42, 0
2, 209408, Note_on_c, 0, 44, 64
2, 209664, Note_off_c, 0, 44, 0
2, 209664, Note_on_c, 0, 39, 64
2, 209920, Note_off_c, 0, 39, 0
2, 209920, Note_on_c, 0, 37, 64
2, 209920, Note_on_c, 0, 32, 64
2, 210176, Note_off_c, 0, 37, 0
2, 210176, Note_on_c, 0, 39, 64
2, 210432, Note_off_c, 0, 39, 0
2, 210432, Note_on_c, 0, 42, 64
2, 210688, Note_off_c, 0, 42, 0
2, 210688, Note_on_c, 0, 44, 64
2, 210944, Note_off_c, 0, 44, 0
2, 210944, Note_off_c, 0, 32, 0
2, 210944, Note_on_c, 0, 41, 64
2, 211200, Note_off_c, 0, 41, 0
2, 211200, Note_on_c, 0, 44, 64
2, 211456, Note_off_c, 0, 44, 0
2, 211456, Note_on_c, 0, 46, 64
2, 211712, Note_off_c, 0, 46, 0
2, 211712, Note_on_c, 0, 41, 64
2, 211968, Note_off_c, 0, 41, 0
2, 211968, Note_on_c, 0, 39, 64
2, 211968, Note_on_c, 0, 34, 64
2, 212224, Note_off_c, 0, 39, 0
2, 212224, Note_on_c, 0, 41, 64
2, 212480, Note_off_c, 0, 41, 0
2, 212480, Note_on_c, 0, 44, 64
2, 212736, Note_off_c, 0, 44, 0
2, 212736, Note_on_c, 0, 46, 64
2, 212992, Note_off_c, 0, 46, 0
2, 212992, Note_on_c, 0, 41, 64
2, 212992, Note_off_c, 0, 34, 0
2, 213248, Note_off_c, 0, 41, 0
2, 213248, Note_on_c, 0, 44, 64
2, 213504, Note_off_c, 0, 44, 0
2, 213504, Note_on_c, 0, 46, 64
2, 213760, Note_off_c, 0, 46, 0
2, 213760, Note_on_c, 0, 41, 64
2, 214016, Note_off_c, 0, 41, 0
2, 214016, Note_on_c, 0, 39, 64
2, 214016, Note_on_c, 0, 34, 64
2, 214272, Note_off_c, 0, 39, 0
2, 214272, Note_on_c, 0, 41, 64
2, 214528, Note_off_c, 0, 41, 0
2, 214528, Note_on_c, 0, 44, 64
2, 214784, Note_off_c, 0, 44, 0
2, 214784, Note_on_c, 0, 46, 64
2, 215040, Note_off_c, 0, 46, 0
2, 215040, Note_off_c, 0, 34, 0
2, 215040, Note_on_c, 0, 63, 64
2, 215040, Note_on_c, 0, 67, 64
2, 215040, Note_on_c, 0, 68, 64
2, 215040, Note_on_c, 0, 72, 64
2, 215040, Note_on_c, 0, 41, 64
2, 215552, Note_off_c, 0, 63, 0
2, 215552, Note_off_c, 0, 67, 0
2, 215552, Note_off_c, 0, 68, 0
2, 215552, Note_off_c, 0, 72, 0
2, 215552, Note_on_c, 0, 63, 64
2, 215552, Note_on_c, 0, 67, 64
2, 215552, Note_on_c, 0, 68, 64
2, 215552, Note_on_c, 0, 72, 64
2, 215552, Note_off_c, 0, 41, 0
2, 215552, Note_on_c, 0, 41, 64
2, 216064, Note_off_c, 0, 41, 0
2, 216064, Note_on_c, 0, 41, 64
2, 216320, Note_off_c, 0, 63, 0
2, 216320, Note_off_c, 0, 67, 0
2, 216320, Note_off_c, 0, 68, 0
2, 216320, Note_off_c, 0, 72, 0
2, 216320, Note_on_c, 0, 63, 64
2, 216320, Note_on_c, 0, 67, 64
2, 216320, Note_on_c, 0, 68, 64
2, 216320, Note_on_c, 0, 72, 64
2, 216576, Note_off_c, 0, 41, 0
2, 216576, Note_on_c, 0, 41, 64
2, 217088, Note_off_c, 0, 63, 0
2, 217088, Note_off_c, 0, 67, 0
2, 217088, Note_off_c, 0, 68, 0
2, 217088, Note_off_c, 0, 72, 0
2, 217088, Note_on_c, 0, 60, 64
2, 217088, Note_on_c, 0, 67, 64
2, 217344, Note_off_c, 0, 41, 0
2, 217344, Note_on_c, 0, 41, 64
2, 217856, Note_off_c, 0, 41, 0
2, 217856, Note_on_c, 0, 41, 64
2, 218112, Note_off_c, 0, 60, 0
2, 218112, Note_off_c, 0, 67, 0
2, 218112, Note_on_c, 0, 60, 64
2, 218112, Note_on_c, 0, 65, 64
2, 218112, Note_off_c, 0, 41, 0
2, 218112, Note_on_c, 0, 41, 64
2, 218624, Note_off_c, 0, 41, 0
2, 218624, Note_on_c, 0, 42, 64
2, 219136, Note_off_c, 0, 60, 0
2, 219136, Note_off_c, 0, 65, 0
2, 219136, Note_off_c, 0, 42, 0
2, 219136, Note_on_c, 0, 65, 64
2, 219136, Note_on_c, 0, 72, 64
2, 219136, Note_on_c, 0, 43, 64
2, 219648, Note_off_c, 0, 43, 0
2, 219648, Note_on_c, 0, 43, 64
2, 220160, Note_off_c, 0, 43, 0
2, 220160, Note_on_c, 0, 43, 64
2, 220672, Note_off_c, 0, 43, 0
2, 220672, Note_on_c, 0, 43, 64
2, 220928, Note_off_c, 0, 43, 0
2, 220928, Note_on_c, 0, 43, 64
2, 221184, Note_off_c, 0, 65, 0
2, 221184, Note_off_c, 0, 72, 0
2, 221184, Note_on_c, 0, 55, 64
2, 221184, Note_on_c, 0, 60, 64
2, 221440, Note_off_c, 0, 43, 0
2, 221440, Note_on_c, 0, 43, 64
2, 221952, Note_off_c, 0, 43, 0
2, 221952, Note_on_c, 0, 43, 64
2, 222208, Note_off_c, 0, 55, 0
2, 222208, Note_off_c, 0, 60, 0
2, 222208, Note_on_c, 0, 55, 64
2, 222208, Note_on_c, 0, 60, 64
2, 222208, Note_off_c, 0, 43, 0
2, 222208, Note_on_c, 0, 43, 64
2, 222720, Note_off_c, 0, 43, 0
2, 222720, Note_on_c, 0, 43, 64
2, 223232, Note_off_c, 0, 55, 0
2, 223232, Note_off_c, 0, 60, 0
2, 223232, Note_off_c, 0, 43, 0
2, 223232, Note_on_c, 0, 60, 64
2, 223232, Note_on_c, 0, 67, 64
2, 223232, Note_on_c, 0, 44, 64
2, 223744, Note_off_c, 0, 44, 0
2, 223744, Note_on_c, 0, 44, 64
2, 224256, Note_off_c, 0, 44, 0
2, 224256, Note_on_c, 0, 44, 64
2, 224768, Note_off_c, 0, 44, 0
2, 224768, Note_on_c, 0, 44, 64
2, 225024, Note_off_c, 0, 44, 0
2, 225024, Note_on_c, 0, 44, 64
2, 225280, Note_off_c, 0, 60, 0
2, 225280, Note_off_c, 0, 67, 0
2, 225280, Note_on_c, 0, 60, 64
2, 225280, Note_on_c, 0, 67, 64
2, 225536, Note_off_c, 0, 44, 0
2, 225536, Note_on_c, 0, 44, 64
2, 226048, Note_off_c, 0, 44, 0
2, 226048, Note_on_c, 0, 44, 64
2, 226304, Note_off_c, 0, 60, 0
2, 226304, Note_off_c, 0, 67, 0
2, 226304, Note_on_c, 0, 60, 64
2, 226304, Note_on_c, 0, 65, 64
2, 226304, Note_off_c, 0, 44, 0
2, 226304, Note_on_c, 0, 44, 64
2, 226816, Note_off_c, 0, 44, 0
2, 226816, Note_on_c, 0, 44, 64
2, 227328, Note_off_c, 0, 60, 0
2, 227328, Note_off_c, 0, 65, 0
2, 227328, Note_off_c, 0, 44, 0
2, 227328, Note_on_c, 0, 65, 64
2, 227328, Note_on_c, 0, 72, 64
2, 227328, Note_on_c, 0, 43, 64
2, 227840, Note_off_c, 0, 43, 0
2, 227840, Note_on_c, 0, 43, 64
2, 228352, Note_off_c, 0, 43, 0
2, 228352, Note_on_c, 0, 43, 64
2, 228864, Note_off_c, 0, 65, 0
2, 228864, Note_off_c, 0, 72, 0
2, 228864, Note_on_c, 0, 70, 64
2, 228864, Note_off_c, 0, 43, 0
2, 228864, Note_on_c, 0, 43, 64
2, 229120, Note_off_c, 0, 43, 0
2, 229120, Note_on_c, 0, 43, 64
2, 229376, Note_on_c, 0, 62, 64
2, 229632, Note_off_c, 0, 43, 0
2, 229632, Note_on_c, 0, 43, 64
2, 230144, Note_off_c, 0, 43, 0
2, 230144, Note_on_c, 0, 43, 64
2, 230400, Note_off_c, 0, 62, 0
2, 230400, Note_on_c, 0, 62, 64
2, 230400, Note_off_c, 0, 43, 0
2, 230400, Note_on_c, 0, 43, 64
2, 230912, Note_off_c, 0, 43, 0
2, 230912, Note_on_c, 0, 43, 64
2, 231424, Note_off_c, 0, 70, 0
2, 231424, Note_off_c, 0, 62, 0
2, 231424, Note_off_c, 0, 43, 0
2, 231424, Note_on_c, 0, 60, 64
2, 231424, Note_on_c, 0, 67, 64
2, 231424, Note_on_c, 0, 41, 64
2, 231936, Note_off_c, 0, 41, 0
2, 231936, Note_on_c, 0, 41, 64
2, 232448, Note_off_c, 0, 41, 0
2, 232448, Note_on_c, 0, 41, 64
2, 232960, Note_off_c, 0, 60, 0
2, 232960, Note_off_c, 0, 67, 0
2, 232960, Note_on_c, 0, 60, 64
2, 232960, Note_off_c, 0, 41, 0
2, 232960, Note_on_c, 0, 41, 64
2, 233216, Note_off_c, 0, 41, 0
2, 233216, Note_on_c, 0, 41, 64
2, 233472, Note_off_c, 0, 60, 0
2, 233472, Note_on_c, 0, 67, 64
2, 233728, Note_off_c, 0, 41, 0
2, 233728, Note_on_c, 0, 41, 64
2, 234240, Note_off_c, 0, 41, 0
2, 234240, Note_on_c, 0, 41, 64
2, 234496, Note_off_c, 0, 67, 0
2, 234496, Note_on_c, 0, 65, 64
2, 234496, Note_off_c, 0, 41, 0
2, 234496, Note_on_c, 0, 41, 64
2, 235008, Note_off_c, 0, 41, 0
2, 235008, Note_on_c, 0, 41, 64
2, 235520, Note_off_c, 0, 65, 0
2, 235520, Note_off_c, 0, 41, 0
2, 235520, Note_on_c, 0, 65, 64
2, 235520, Note_on_c, 0, 72, 64
2, 235520, Note_on_c, 0, 43, 64
2, 236032, Note_off_c, 0, 43, 0
2, 236032, Note_on_c, 0, 43, 64
2, 236544, Note_off_c, 0, 43, 0
2, 236544, Note_on_c, 0, 43, 64
2, 237056, Note_off_c, 0, 43, 0
2, 237056, Note_on_c, 0, 43, 64
2, 237312, Note_off_c, 0, 43, 0
2, 237312, Note_on_c, 0, 43, 64
2, 237568, Note_off_c, 0, 65, 0
2, 237568, Note_off_c, 0, 72, 0
2, 237824, Note_off_c, 0, 43, 0
2, 237824, Note_on_c, 0, 43, 64
2, 238336, Note_off_c, 0, 43, 0
2, 238336, Note_on_c, 0, 43, 64
2, 238592, Note_on_c, 0, 62, 64
2, 238592, Note_on_c, 0, 70, 64
2, 238592, Note_off_c, 0, 43, 0
2, 238592, Note_on_c, 0, 43, 64
2, 239104, Note_off_c, 0, 43, 0
2, 239104, Note_on_c, 0, 43, 64
2, 239616, Note_off_c, 0, 62, 0
2, 239616, Note_off_c, 0, 70, 0
2, 239616, Note_off_c, 0, 43, 0
2, 239616, Note_on_c, 0, 63, 64
2, 239616, Note_on_c, 0, 70, 64
2, 239616, Note_on_c, 0, 74, 64
2, 239616, Note_on_c, 0, 44, 64
2, 240128, Note_off_c, 0, 44, 0
2, 240128, Note_on_c, 0, 44, 64
2, 240640, Note_off_c, 0, 44, 0
2, 240640, Note_on_c, 0, 44, 64
2, 241152, Note_off_c, 0, 44, 0
2, 241152, Note_on_c, 0, 44, 64
2, 241408, Note_off_c, 0, 44, 0
2, 241408, Note_on_c, 0, 44, 64
2, 241920, Note_off_c, 0, 44, 0
2, 241920, Note_on_c, 0, 44, 64
2, 242432, Note_off_c, 0, 44, 0
2, 242432, Note_on_c, 0, 44, 64
2, 242688, Note_off_c, 0, 44, 0
2, 242688, Note_on_c, 0, 44, 64
2, 243200, Note_off_c, 0, 44, 0
2, 243200, Note_on_c, 0, 44, 64
2, 243712, Note_off_c, 0, 44, 0
2, 243712, Note_on_c, 0, 46, 64
2, 244224, Note_off_c, 0, 46, 0
2, 244224, Note_on_c, 0, 46, 64
2, 244736, Note_off_c, 0, 46, 0
2, 244736, Note_on_c, 0, 46, 64
2, 245248, Note_off_c, 0, 46, 0
2, 245248, Note_on_c, 0, 46, 64
2, 245760, Note_off_c, 0, 46, 0
2, 245760, Note_on_c, 0, 46, 64
2, 246784, Note_off_c, 0, 63, 0
2, 246784, Note_off_c, 0, 70, 0
2, 246784, Note_off_c, 0, 74, 0
2, 246784, Note_off_c, 0, 46, 0
2, 246784, Note_on_c, 0, 47, 64
2, 247808, Note_off_c, 0, 47, 0
2, 247808, Note_on_c, 0, 60, 64
2, 247808, Note_on_c, 0, 48, 64
2, 248320, Note_off_c, 0, 48, 0
2, 248320, Note_on_c, 0, 48, 64
2, 248832, Note_off_c, 0, 60, 0
2, 248832, Note_on_c, 0, 63, 64
2, 248832, Note_off_c, 0, 48, 0
2, 248832, Note_on_c, 0, 48, 64
2, 249344, Note_off_c, 0, 48, 0
2, 249344, Note_on_c, 0, 51, 64
2, 249856, Note_off_c, 0, 63, 0
2, 249856, Note_on_c, 0, 56, 64
2, 249856, Note_on_c, 0, 60, 64
2, 249856, Note_on_c, 0, 65, 64
2, 249856, Note_off_c, 0, 51, 0
2, 249856, Note_on_c, 0, 53, 64
2, 250112, Note_off_c, 0, 53, 0
2, 250112, Note_on_c, 0, 53, 64
2, 250368, Note_off_c, 0, 53, 0
2, 250624, Note_off_c, 0, 56, 0
2, 250624, Note_off_c, 0, 60, 0
2, 250624, Note_off_c, 0, 65, 0
2, 250624, Note_on_c, 0, 63, 64
2, 250624, Note_on_c, 0, 53, 64
2, 251136, Note_off_c, 0, 53, 0
2, 251136, Note_on_c, 0, 53, 64
2, 251392, Note_off_c, 0, 63, 0
2, 251392, Note_on_c, 0, 65, 64
2, 251392, Note_off_c, 0, 53, 0
2, 251392, Note_on_c, 0, 48, 64
2, 251904, Note_off_c, 0, 65, 0
2, 251904, Note_off_c, 0, 48, 0
2, 251904, Note_on_c, 0, 58, 64
2, 251904, Note_on_c, 0, 62, 64
2, 251904, Note_on_c, 0, 65, 64
2, 251904, Note_on_c, 0, 46, 64
2, 252416, Note_off_c, 0, 58, 0
2, 252416, Note_off_c, 0, 62, 0
2, 252416, Note_off_c, 0, 65, 0
2, 252416, Note_on_c, 0, 65, 64
2, 252416, Note_off_c, 0, 46, 0
2, 252416, Note_on_c, 0, 46, 64
2, 252928, Note_off_c, 0, 65, 0
2, 252928, Note_on_c, 0, 70, 64
2, 252928, Note_off_c, 0, 46, 0
2, 252928, Note_on_c, 0, 46, 64
2, 253440, Note_off_c, 0, 70, 0
2, 253440, Note_on_c, 0, 68, 64
2, 253440, Note_off_c, 0, 46, 0
2, 253440, Note_on_c, 0, 50, 64
2, 253952, Note_off_c, 0, 68, 0
2, 253952, Note_on_c, 0, 67, 64
2, 253952, Note_off_c, 0, 50, 0
2, 253952, Note_on_c, 0, 51, 64
2, 254208, Note_off_c, 0, 67, 0
2, 254208, Note_on_c, 0, 65, 64
2, 254208, Note_off_c, 0, 51, 0
2, 254208, Note_on_c, 0, 51, 64
2, 254464, Note_off_c, 0, 51, 0
2, 254720, Note_off_c, 0, 65, 0
2, 254720, Note_on_c, 0, 67, 64
2, 254720, Note_on_c, 0, 51, 64
2, 254976, Note_off_c, 0, 51, 0
2, 254976, Note_on_c, 0, 51, 64
2, 255488, Note_off_c, 0, 51, 0
2, 255488, Note_on_c, 0, 50, 64
2, 256000, Note_off_c, 0, 67, 0
2, 256000, Note_off_c, 0, 50, 0
2, 256000, Note_on_c, 0, 63, 64
2, 256000, Note_on_c, 0, 67, 64
2, 256000, Note_on_c, 0, 48, 64
2, 256512, Note_off_c, 0, 48, 0
2, 256512, Note_on_c, 0, 48, 64
2, 257024, Note_off_c, 0, 63, 0
2, 257024, Note_off_c, 0, 67, 0
2, 257024, Note_on_c, 0, 70, 64
2, 257024, Note_off_c, 0, 48, 0
2, 257024, Note_on_c, 0, 48, 64
2, 257536, Note_off_c, 0, 48, 0
2, 257536, Note_on_c, 0, 51, 64
2, 258048, Note_off_c, 0, 70, 0
2, 258048, Note_on_c, 0, 65, 64
2, 258048, Note_on_c, 0, 68, 64
2, 258048, Note_on_c, 0, 72, 64
2, 258048, Note_off_c, 0, 51, 0
2, 258048, Note_on_c, 0, 53, 64
2, 258304, Note_off_c, 0, 53, 0
2, 258304, Note_on_c, 0, 53, 64
2, 258560, Note_off_c, 0, 53, 0
2, 258816, Note_off_c, 0, 65, 0
2, 258816, Note_off_c, 0, 68, 0
2, 258816, Note_off_c, 0, 72, 0
2, 258816, Note_on_c, 0, 65, 64
2, 258816, Note_on_c, 0, 53, 64
2, 259328, Note_off_c, 0, 53, 0
2, 259328, Note_on_c, 0, 53, 64
2, 259584, Note_off_c, 0, 65, 0
2, 259584, Note_on_c, 0, 63, 64
2, 259584, Note_off_c, 0, 53, 0
2, 259584, Note_on_c, 0, 48, 64
2, 260096, Note_off_c, 0, 63, 0
2, 260096, Note_off_c, 0, 48, 0
2, 260096, Note_on_c, 0, 62, 64
2, 260096, Note_on_c, 0, 65, 64
2, 260096, Note_on_c, 0, 70, 64
2, 260096, Note_on_c, 0, 46, 64
2, 260608, Note_off_c, 0, 62, 0
2, 260608, Note_off_c, 0, 65, 0
2, 260608, Note_off_c, 0, 70, 0
2, 260608, Note_on_c, 0, 62, 64
2, 260608, Note_on_c, 0, 65, 64
2, 260608, Note_on_c, 0, 70, 64
2, 260608, Note_off_c, 0, 46, 0
2, 260608, Note_on_c, 0, 46, 64
2, 261120, Note_off_c, 0, 62, 0
2, 261120, Note_off_c, 0, 65, 0
2, 261120, Note_off_c, 0, 70, 0
2, 261120, Note_on_c, 0, 62, 64
2, 261120, Note_on_c, 0, 65, 64
2, 261120, Note_on_c, 0, 67, 64
2, 261120, Note_off_c, 0, 46, 0
2, 261120, Note_on_c, 0, 46, 64
2, 261632, Note_off_c, 0, 62, 0
2, 261632, Note_off_c, 0, 65, 0
2, 261632, Note_off_c, 0, 67, 0
2, 261632, Note_on_c, 0, 62, 64
2, 261632, Note_on_c, 0, 65, 64
2, 261632, Note_on_c, 0, 70, 64
2, 261632, Note_off_c, 0, 46, 0
2, 261632, Note_on_c, 0, 47, 64
2, 262144, Note_off_c, 0, 62, 0
2, 262144, Note_off_c, 0, 65, 0
2, 262144, Note_off_c, 0, 70, 0
2, 262144, Note_on_c, 0, 67, 64
2, 262144, Note_on_c, 0, 70, 64
2, 262144, Note_off_c, 0, 47, 0
2, 262144, Note_on_c, 0, 48, 64
2, 262400, Note_off_c, 0, 48, 0
2, 262400, Note_on_c, 0, 48, 64
2, 262912, Note_off_c, 0, 67, 0
2, 262912, Note_off_c, 0, 70, 0
2, 262912, Note_on_c, 0, 67, 64
2, 262912, Note_on_c, 0, 72, 64
2, 262912, Note_off_c, 0, 48, 0
2, 262912, Note_on_c, 0, 48, 64
2, 263168, Note_off_c, 0, 48, 0
2, 263168, Note_on_c, 0, 46, 64
2, 264192, Note_off_c, 0, 67, 0
2, 264192, Note_off_c, 0, 72, 0
2, 264192, Note_off_c, 0, 46, 0
2, 264192, Note_on_c, 0, 60, 64
2, 264192, Note_on_c, 0, 48, 64
2, 264704, Note_off_c, 0, 48, 0
2, 264704, Note_on_c, 0, 48, 64
2, 265216, Note_off_c, 0, 60, 0
2, 265216, Note_on_c, 0, 63, 64
2, 265216, Note_off_c, 0, 48, 0
2, 265216, Note_on_c, 0, 48, 64
2, 265728, Note_off_c, 0, 48, 0
2, 265728, Note_on_c, 0, 51, 64
2, 266240, Note_off_c, 0, 63, 0
2, 266240, Note_on_c, 0, 56, 64
2, 266240, Note_on_c, 0, 60, 64
2, 266240, Note_on_c, 0, 65, 64
2, 266240, Note_off_c, 0, 51, 0
2, 266240, Note_on_c, 0, 53, 64
2, 266496, Note_off_c, 0, 53, 0
2, 266496, Note_on_c, 0, 53, 64
2, 266752, Note_off_c, 0, 53, 0
2, 267008, Note_off_c, 0, 56, 0
2, 267008, Note_off_c, 0, 60, 0
2, 267008, Note_off_c, 0, 65, 0
2, 267008, Note_on_c, 0, 63, 64
2, 267008, Note_on_c, 0, 53, 64
2, 267520, Note_off_c, 0, 53, 0
2, 267520, Note_on_c, 0, 53, 64
2, 267776, Note_off_c, 0, 63, 0
2, 267776, Note_on_c, 0, 65, 64
2, 267776, Note_off_c, 0, 53, 0
2, 267776, Note_on_c, 0, 48, 64
2, 268288, Note_off_c, 0, 65, 0
2, 268288, Note_off_c, 0, 48, 0
2, 268288, Note_on_c, 0, 58, 64
2, 268288, Note_on_c, 0, 62, 64
2, 268288, Note_on_c, 0, 65, 64
2, 268288, Note_on_c, 0, 46, 64
2, 268800, Note_off_c, 0, 58, 0
2, 268800, Note_off_c, 0, 62, 0
2, 268800, Note_off_c, 0, 65, 0
2, 268800, Note_on_c, 0, 65, 64
2, 268800, Note_off_c, 0, 46, 0
2, 268800, Note_on_c, 0, 46, 64
2, 269312, Note_off_c, 0, 65, 0
2, 269312, Note_on_c, 0, 70, 64
2, 269312, Note_off_c, 0, 46, 0
2, 269312, Note_on_c, 0, 46, 64
2, 269824, Note_off_c, 0, 70, 0
2, 269824, Note_on_c, 0, 68, 64
2, 269824, Note_off_c, 0, 46, 0
2, 269824, Note_on_c, 0, 50, 64
2, 270336, Note_off_c, 0, 68, 0
2, 270336, Note_on_c, 0, 67, 64
2, 270336, Note_off_c, 0, 50, 0
2, 270336, Note_on_c, 0, 51, 64
2, 270592, Note_off_c, 0, 67, 0
2, 270592, Note_on_c, 0, 65, 64
2, 270592, Note_off_c, 0, 51, 0
2, 270592, Note_on_c, 0, 51, 64
2, 270848, Note_off_c, 0, 51, 0
2, 271104, Note_off_c, 0, 65, 0
2, 271104, Note_on_c, 0, 67, 64
2, 271104, Note_on_c, 0, 51, 64
2, 271360, Note_off_c, 0, 51, 0
2, 271360, Note_on_c, 0, 51, 64
2, 271872, Note_off_c, 0, 51, 0
2, 271872, Note_on_c, 0, 50, 64
2, 272384, Note_off_c, 0, 67, 0
2, 272384, Note_off_c, 0, 50, 0
2, 272384, Note_on_c, 0, 63, 64
2, 272384, Note_on_c, 0, 67, 64
2, 272384, Note_on_c, 0, 48, 64
2, 272896, Note_off_c, 0, 48, 0
2, 272896, Note_on_c, 0, 48, 64
2, 273408, Note_off_c, 0, 63, 0
2, 273408, Note_off_c, 0, 67, 0
2, 273408, Note_on_c, 0, 70, 64
2, 273408, Note_off_c, 0, 48, 0
2, 273408, Note_on_c, 0, 48, 64
2, 273920, Note_off_c, 0, 48, 0
2, 273920, Note_on_c, 0, 51, 64
2, 274432, Note_off_c, 0, 70, 0
2, 274432, Note_on_c, 0, 65, 64
2, 274432, Note_on_c, 0, 68, 64
2, 274432, Note_on_c, 0, 72, 64
2, 274432, Note_off_c, 0, 51, 0
2, 274432, Note_on_c, 0, 53, 64
2, 274688, Note_off_c, 0, 53, 0
2, 274688, Note_on_c, 0, 53, 64
2, 274944, Note_off_c, 0, 53, 0
2, 275200, Note_off_c, 0, 65, 0
2, 275200, Note_off_c, 0, 68, 0
2, 275200, Note_off_c, 0, 72, 0
2, 275200, Note_on_c, 0, 65, 64
2, 275200, Note_on_c, 0, 53, 64
2, 275712, Note_off_c, 0, 53, 0
2, 275712, Note_on_c, 0, 53, 64
2, 275968, Note_off_c, 0, 65, 0
2, 275968, Note_on_c, 0, 63, 64
2, 275968, Note_off_c, 0, 53, 0
2, 275968, Note_on_c, 0, 48, 64
2, 276480, Note_off_c, 0, 63, 0
2, 276480, Note_off_c, 0, 48, 0
2, 276480, Note_on_c, 0, 62, 64
2, 276480, Note_on_c, 0, 65, 64
2, 276480, Note_on_c, 0, 70, 64
2, 276480, Note_on_c, 0, 46, 64
2, 276992, Note_off_c, 0, 62, 0
2, 276992, Note_off_c, 0, 65, 0
2, 276992, Note_off_c, 0, 70, 0
2, 276992, Note_on_c, 0, 62, 64
2, 276992, Note_on_c, 0, 65, 64
2, 276992, Note_on_c, 0, 70, 64
2, 276992, Note_off_c, 0, 46, 0
2, 276992, Note_on_c, 0, 46, 64
2, 277504, Note_off_c, 0, 62, 0
2, 277504, Note_off_c, 0, 65, 0
2, 277504, Note_off_c, 0, 70, 0
2, 277504, Note_on_c, 0, 62, 64
2, 277504, Note_on_c, 0, 65, 64
2, 277504, Note_on_c, 0, 67, 64
2, 277504, Note_off_c, 0, 46, 0
2, 277504, Note_on_c, 0, 46, 64
2, 278016, Note_off_c, 0, 62, 0
2, 278016, Note_off_c, 0, 65, 0
2, 278016, Note_off_c, 0, 67, 0
2, 278016, Note_on_c, 0, 62, 64
2, 278016, Note_on_c, 0, 65, 64
2, 278016, Note_on_c, 0, 70, 64
2, 278016, Note_off_c, 0, 46, 0
2, 278016, Note_on_c, 0, 47, 64
2, 278528, Note_off_c, 0, 62, 0
2, 278528, Note_off_c, 0, 65, 0
2, 278528, Note_off_c, 0, 70, 0
2, 278528, Note_on_c, 0, 67, 64
2, 278528, Note_on_c, 0, 70, 64
2, 278528, Note_off_c, 0, 47, 0
2, 278528, Note_on_c, 0, 48, 64
2, 278784, Note_off_c, 0, 48, 0
2, 278784, Note_on_c, 0, 48, 64
2, 279296, Note_off_c, 0, 67, 0
2, 279296, Note_off_c, 0, 70, 0
2, 279296, Note_on_c, 0, 67, 64
2, 279296, Note_on_c, 0, 72, 64
2, 279296, Note_off_c, 0, 48, 0
2, 279296, Note_on_c, 0, 48, 64
2, 279552, Note_off_c, 0, 48, 0
2, 279552, Note_on_c, 0, 46, 64
2, 280576, Note_off_c, 0, 67, 0
2, 280576, Note_off_c, 0, 72, 0
2, 280576, Note_off_c, 0, 46, 0
2, 280576, Note_on_c, 0, 51, 64
2, 280576, Note_on_c, 0, 55, 64
2, 280576, Note_on_c, 0, 58, 64
2, 281600, Note_on_c, 0, 75, 64
2, 282112, Note_off_c, 0, 75, 0
2, 282112, Note_on_c, 0, 70, 64
2, 282368, Note_off_c, 0, 70, 0
2, 282368, Note_on_c, 0, 70, 64
2, 283648, Note_off_c, 0, 70, 0
2, 284160, Note_on_c, 0, 75, 64
2, 284672, Note_off_c, 0, 75, 0
2, 284672, Note_off_c, 0, 51, 0
2, 284672, Note_off_c, 0, 55, 0
2, 284672, Note_off_c, 0, 58, 0
2, 284672, Note_on_c, 0, 75, 64
2, 284672, Note_on_c, 0, 46, 64
2, 284672, Note_on_c, 0, 50, 64
2, 284672, Note_on_c, 0, 53, 64
2, 284672, Note_on_c, 0, 58, 64
2, 285440, Note_off_c, 0, 75, 0
2, 285440, Note_on_c, 0, 77, 64
2, 286208, Note_off_c, 0, 77, 0
2, 286208, Note_on_c, 0, 70, 64
2, 286720, Note_off_c, 0, 70, 0
2, 286720, Note_on_c, 0, 70, 64
2, 287744, Note_off_c, 0, 70, 0
2, 288256, Note_on_c, 0, 70, 64
2, 288768, Note_off_c, 0, 70, 0
2, 288768, Note_off_c, 0, 46, 0
2, 288768, Note_off_c, 0, 50, 0
2, 288768, Note_off_c, 0, 53, 0
2, 288768, Note_off_c, 0, 58, 0
2, 288768, Note_on_c, 0, 79, 64
2, 288768, Note_on_c, 0, 48, 64
2, 288768, Note_on_c, 0, 51, 64
2, 288768, Note_on_c, 0, 55, 64
2, 289536, Note_off_c, 0, 79, 0
2, 289536, Note_on_c, 0, 80, 64
2, 290304, Note_off_c, 0, 80, 0
2, 290304, Note_on_c, 0, 79, 64
2, 290816, Note_off_c, 0, 79, 0
2, 290816, Note_on_c, 0, 77, 64
2, 290816, Note_off_c, 0, 48, 0
2, 290816, Note_off_c, 0, 51, 0
2, 290816, Note_off_c, 0, 55, 0
2, 290816, Note_on_c, 0, 46, 64
2, 290816, Note_on_c, 0, 50, 64
2, 290816, Note_on_c, 0, 53, 64
2, 290816, Note_on_c, 0, 55, 64
2, 291584, Note_off_c, 0, 77, 0
2, 291584, Note_on_c, 0, 75, 64
2, 292352, Note_off_c, 0, 75, 0
2, 292352, Note_on_c, 0, 77, 64
2, 292864, Note_off_c, 0, 77, 0
2, 292864, Note_off_c, 0, 46, 0
2, 292864, Note_off_c, 0, 50, 0
2, 292864, Note_off_c, 0, 53, 0
2, 292864, Note_off_c, 0, 55, 0
2, 292864, Note_on_c, 0, 79, 64
2, 292864, Note_on_c, 0, 44, 64
2, 292864, Note_on_c, 0, 48, 64
2, 292864, Note_on_c, 0, 51, 64
2, 292864, Note_on_c, 0, 55, 64
2, 293632, Note_off_c, 0, 79, 0
2, 293632, Note_on_c, 0, 80, 64
2, 294400, Note_off_c, 0, 80, 0
2, 294400, Note_on_c, 0, 79, 64
2, 294912, Note_off_c, 0, 79, 0
2, 294912, Note_on_c, 0, 72, 64
2, 295936, Note_off_c, 0, 72, 0
2, 296448, Note_on_c, 0, 72, 64
2, 296704, Note_off_c, 0, 72, 0
2, 296704, Note_on_c, 0, 74, 64
2, 296960, Note_off_c, 0, 74, 0
2, 296960, Note_off_c, 0, 44, 0
2, 296960, Note_off_c, 0, 48, 0
2, 296960, Note_off_c, 0, 51, 0
2, 296960, Note_off_c, 0, 55, 0
2, 296960, Note_on_c, 0, 75, 64
2, 296960, Note_on_c, 0, 46, 64
2, 296960, Note_on_c, 0, 51, 64
2, 296960, Note_on_c, 0, 53, 64
2, 297728, Note_off_c, 0, 75, 0
2, 297728, Note_on_c, 0, 75, 64
2, 298496, Note_off_c, 0, 75, 0
2, 298496, Note_on_c, 0, 74, 64
2, 299008, Note_off_c, 0, 74, 0
2, 299008, Note_on_c, 0, 74, 64
2, 299008, Note_off_c, 0, 46, 0
2, 299008, Note_off_c, 0, 51, 0
2, 299008, Note_off_c, 0, 53, 0
2, 299008, Note_on_c, 0, 46, 64
2, 299008, Note_on_c, 0, 50, 64
2, 299008, Note_on_c, 0, 53, 64
2, 300032, Note_off_c, 0, 74, 0
2, 300544, Note_on_c, 0, 75, 64
2, 300800, Note_off_c, 0, 75, 0
2, 300800, Note_on_c, 0, 77, 64
2, 301056, Note_off_c, 0, 77, 0
2, 301056, Note_off_c, 0, 46, 0
2, 301056, Note_off_c, 0, 50, 0
2, 301056, Note_off_c, 0, 53, 0
2, 301056, Note_on_c, 0, 80, 64
2, 301056, Note_on_c, 0, 51, 64
2, 301056, Note_on_c, 0, 58, 64
2, 301824, Note_off_c, 0, 80, 0
2, 301824, Note_on_c, 0, 79, 64
2, 302592, Note_off_c, 0, 79, 0
2, 302592, Note_on_c, 0, 77, 64
2, 303104, Note_off_c, 0, 77, 0
2, 303104, Note_on_c, 0, 75, 64
2, 303104, Note_off_c, 0, 51, 0
2, 303104, Note_off_c, 0, 58, 0
2, 303104, Note_on_c, 0, 48, 64
2, 303104, Note_on_c, 0, 58, 64
2, 304128, Note_off_c, 0, 75, 0
2, 304640, Note_on_c, 0, 79, 64
2, 305152, Note_off_c, 0, 79, 0
2, 305152, Note_off_c, 0, 48, 0
2, 305152, Note_off_c, 0, 58, 0
2, 305152, Note_on_c, 0, 79, 64
2, 305152, Note_on_c, 0, 50, 64
2, 305152, Note_on_c, 0, 60, 64
2, 305920, Note_off_c, 0, 79, 0
2, 305920, Note_on_c, 0, 77, 64
2, 306688, Note_off_c, 0, 77, 0
2, 306688, Note_on_c, 0, 76, 64
2, 307200, Note_off_c, 0, 76, 0
2, 307200, Note_on_c, 0, 77, 64
2, 308224, Note_off_c, 0, 77, 0
2, 308224, Note_on_c, 0, 72, 64
2, 309248, Note_off_c, 0, 72, 0
2, 309248, Note_off_c, 0, 50, 0
2, 309248, Note_off_c, 0, 60, 0
2, 309248, Note_on_c, 0, 72, 64
2, 309248, Note_on_c, 0, 65, 64
2, 309248, Note_on_c, 0, 69, 64
2, 309248, Note_on_c, 0, 43, 64
2, 310784, Note_off_c, 0, 72, 0
2, 310784, Note_on_c, 0, 74, 64
2, 311296, Note_off_c, 0, 74, 0
2, 311296, Note_on_c, 0, 74, 64
2, 311296, Note_off_c, 0, 65, 0
2, 311296, Note_off_c, 0, 69, 0
2, 311296, Note_on_c, 0, 67, 64
2, 311296, Note_on_c, 0, 71, 64
2, 311296, Note_off_c, 0, 43, 0
2, 311296, Note_on_c, 0, 43, 64
2, 313344, Note_off_c, 0, 74, 0
2, 313344, Note_off_c, 0, 67, 0
2, 313344, Note_off_c, 0, 71, 0
2, 313344, Note_off_c, 0, 43, 0
2, 313344, Note_on_c, 0, 51, 64
2, 313344, Note_on_c, 0, 55, 64
2, 313344, Note_on_c, 0, 58, 64
2, 314368, Note_on_c, 0, 75, 64
2, 314880, Note_off_c, 0, 75, 0
2, 314880, Note_on_c, 0, 70, 64
2, 315136, Note_off_c, 0, 70, 0
2, 315136, Note_on_c, 0, 70, 64
2, 316416, Note_off_c, 0, 70, 0
2, 316928, Note_on_c, 0, 75, 64
2, 317440, Note_off_c, 0, 75, 0
2, 317440, Note_off_c, 0, 51, 0
2, 317440, Note_off_c, 0, 55, 0
2, 317440, Note_off_c, 0, 58, 0
2, 317440, Note_on_c, 0, 75, 64
2, 317440, Note_on_c, 0, 46, 64
2, 317440, Note_on_c, 0, 50, 64
2, 317440, Note_on_c, 0, 53, 64
2, 317440, Note_on_c, 0, 58, 64
2, 318208, Note_off_c, 0, 75, 0
2, 318208, Note_on_c, 0, 77, 64
2, 318976, Note_off_c, 0, 77, 0
2, 318976, Note_on_c, 0, 70, 64
2, 319488, Note_off_c, 0, 70, 0
2, 319488, Note_on_c, 0, 70, 64
2, 320512, Note_off_c, 0, 70, 0
2, 321024, Note_on_c, 0, 70, 64
2, 321536, Note_off_c, 0, 70, 0
2, 321536, Note_off_c, 0, 46, 0
2, 321536, Note_off_c, 0, 50, 0
2, 321536, Note_off_c, 0, 53, 0
2, 321536, Note_off_c, 0, 58, 0
2, 321536, Note_on_c, 0, 79, 64
2, 321536, Note_on_c, 0, 48, 64
2, 321536, Note_on_c, 0, 51, 64
2, 321536, Note_on_c, 0, 55, 64
2, 322304, Note_off_c, 0, 79, 0
2, 322304, Note_on_c, 0, 80, 64
2, 323072, Note_off_c, 0, 80, 0
2, 323072, Note_on_c, 0, 79, 64
2, 323584, Note_off_c, 0, 79, 0
2, 323584, Note_on_c, 0, 77, 64
2, 323584, Note_off_c, 0, 48, 0
2, 323584, Note_off_c, 0, 51, 0
2, 323584, Note_off_c, 0, 55, 0
2, 323584, Note_on_c, 0, 46, 64
2, 323584, Note_on_c, 0, 50, 64
2, 323584, Note_on_c, 0, 53, 64
2, 323584, Note_on_c, 0, 55, 64
2, 324352, Note_off_c, 0, 77, 0
2, 324352, Note_on_c, 0, 75, 64
2, 325120, Note_off_c, 0, 75, 0
2, 325120, Note_on_c, 0, 77, 64
2, 325632, Note_off_c, 0, 77, 0
2, 325632, Note_off_c, 0, 46, 0
2, 325632, Note_off_c, 0, 50, 0
2, 325632, Note_off_c, 0, 53, 0
2, 325632, Note_off_c, 0, 55, 0
2, 325632, Note_on_c, 0, 79, 64
2, 325632, Note_on_c, 0, 44, 64
2, 325632, Note_on_c, 0, 48, 64
2, 325632, Note_on_c, 0, 51, 64
2, 325632, Note_on_c, 0, 55, 64
2, 326400, Note_off_c, 0, 79, 0
2, 326400, Note_on_c, 0, 80, 64
2, 327168, Note_off_c, 0, 80, 0
2, 327168, Note_on_c, 0, 79, 64
2, 327680, Note_off_c, 0, 79, 0
2, 327680, Note_on_c, 0, 72, 64
2, 328704, Note_off_c, 0, 72, 0
2, 329216, Note_on_c, 0, 72, 64
2, 329472, Note_off_c, 0, 72, 0
2, 329472, Note_on_c, 0, 74, 64
2, 329728, Note_off_c, 0, 74, 0
2, 329728, Note_off_c, 0, 44, 0
2, 329728, Note_off_c, 0, 48, 0
2, 329728, Note_off_c, 0, 51, 0
2, 329728, Note_off_c, 0, 55, 0
2, 329728, Note_on_c, 0, 75, 64
2, 329728, Note_on_c, 0, 46, 64
2, 329728, Note_on_c, 0, 51, 64
2, 329728, Note_on_c, 0, 53, 64
2, 330496, Note_off_c, 0, 75, 0
2, 330496, Note_on_c, 0, 75, 64
2, 331264, Note_off_c, 0, 75, 0
2, 331264, Note_on_c, 0, 74, 64
2, 331776, Note_off_c, 0, 74, 0
2, 331776, Note_on_c, 0, 74, 64
2, 331776, Note_off_c, 0, 46, 0
2, 331776, Note_off_c, 0, 51, 0
2, 331776, Note_off_c, 0, 53, 0
2, 331776, Note_on_c, 0, 46, 64
2, 331776, Note_on_c, 0, 50, 64
2, 331776, Note_on_c, 0, 53, 64
2, 332800, Note_off_c, 0, 74, 0
2, 333312, Note_on_c, 0, 75, 64
2, 333568, Note_off_c, 0, 75, 0
2, 333568, Note_on_c, 0, 77, 64
2, 333824, Note_off_c, 0, 77, 0
2, 333824, Note_off_c, 0, 46, 0
2, 333824, Note_off_c, 0, 50, 0
2, 333824, Note_off_c, 0, 53, 0
2, 333824, Note_on_c, 0, 80, 64
2, 333824, Note_on_c, 0, 51, 64
2, 333824, Note_on_c, 0, 58, 64
2, 334592, Note_off_c, 0, 80, 0
2, 334592, Note_on_c, 0, 79, 64
2, 335360, Note_off_c, 0, 79, 0
2, 335360, Note_on_c, 0, 77, 64
2, 335872, Note_off_c, 0, 77, 0
2, 335872, Note_on_c, 0, 75, 64
2, 335872, Note_off_c, 0, 51, 0
2, 335872, Note_off_c, 0, 58, 0
2, 335872, Note_on_c, 0, 48, 64
2, 335872, Note_on_c, 0, 58, 64
2, 336896, Note_off_c, 0, 75, 0
2, 337408, Note_on_c, 0, 79, 64
2, 337920, Note_off_c, 0, 79, 0
2, 337920, Note_off_c, 0, 48, 0
2, 337920, Note_off_c, 0, 58, 0
2, 337920, Note_on_c, 0, 79, 64
2, 337920, Note_on_c, 0, 50, 64
2, 337920, Note_on_c, 0, 60, 64
2, 338688, Note_off_c, 0, 79, 0
2, 338688, Note_on_c, 0, 77, 64
2, 339456, Note_off_c, 0, 77, 0
2, 339456, Note_on_c, 0, 76, 64
2, 339968, Note_off_c, 0, 76, 0
2, 339968, Note_on_c, 0, 77, 64
2, 340736, Note_off_c, 0, 77, 0
2, 340736, Note_on_c, 0, 79, 64
2, 341504, Note_off_c, 0, 79, 0
2, 341504, Note_on_c, 0, 80, 64
2, 342016, Note_off_c, 0, 80, 0
2, 342016, Note_off_c, 0, 50, 0
2, 342016, Note_off_c, 0, 60, 0
2, 342016, Note_on_c, 0, 79, 64
2, 342016, Note_on_c, 0, 69, 64
2, 342016, Note_on_c, 0, 72, 64
2, 342016, Note_on_c, 0, 43, 64
2, 343040, Note_off_c, 0, 69, 0
2, 343040, Note_off_c, 0, 72, 0
2, 343040, Note_on_c, 0, 67, 64
2, 343040, Note_on_c, 0, 71, 64
2, 343040, Note_off_c, 0, 43, 0
2, 343040, Note_on_c, 0, 43, 64
2, 344064, Note_off_c, 0, 67, 0
2, 344064, Note_off_c, 0, 71, 0
2, 344064, Note_on_c, 0, 69, 64
2, 344064, Note_on_c, 0, 72, 64
2, 344064, Note_off_c, 0, 43, 0
2, 344064, Note_on_c, 0, 43, 64
2, 345088, Note_off_c, 0, 79, 0
2, 345088, Note_off_c, 0, 69, 0
2, 345088, Note_off_c, 0, 72, 0
2, 345088, Note_on_c, 0, 71, 64
2, 345088, Note_on_c, 0, 74, 64
2, 345088, Note_off_c, 0, 43, 0
2, 345088, Note_on_c, 0, 43, 64
2, 346112, Note_off_c, 0, 71, 0
2, 346112, Note_off_c, 0, 74, 0
2, 346112, Note_off_c, 0, 43, 0
2, 346112, Note_on_c, 0, 75, 64
2, 346112, Note_on_c, 0, 67, 64
2, 346112, Note_on_c, 0, 72, 64
2, 346112, Note_on_c, 0, 44, 64
2, 346624, Note_off_c, 0, 44, 0
2, 346624, Note_on_c, 0, 44, 64
2, 346880, Note_off_c, 0, 75, 0
2, 346880, Note_on_c, 0, 75, 64
2, 347136, Note_off_c, 0, 44, 0
2, 347136, Note_on_c, 0, 44, 64
2, 347648, Note_off_c, 0, 75, 0
2, 347648, Note_on_c, 0, 74, 64
2, 347648, Note_off_c, 0, 44, 0
2, 347648, Note_on_c, 0, 44, 64
2, 348160, Note_off_c, 0, 74, 0
2, 348160, Note_on_c, 0, 75, 64
2, 348160, Note_off_c, 0, 44, 0
2, 348160, Note_on_c, 0, 44, 64
2, 348672, Note_off_c, 0, 44, 0
2, 348672, Note_on_c, 0, 44, 64
2, 348928, Note_off_c, 0, 75, 0
2, 348928, Note_on_c, 0, 75, 64
2, 349184, Note_off_c, 0, 44, 0
2, 349184, Note_on_c, 0, 44, 64
2, 349696, Note_off_c, 0, 75, 0
2, 349696, Note_on_c, 0, 74, 64
2, 349696, Note_off_c, 0, 44, 0
2, 349696, Note_on_c, 0, 44, 64
2, 350208, Note_off_c, 0, 74, 0
2, 350208, Note_off_c, 0, 67, 0
2, 350208, Note_off_c, 0, 72, 0
2, 350208, Note_off_c, 0, 44, 0
2, 350208, Note_on_c, 0, 77, 64
2, 350208, Note_on_c, 0, 70, 64
2, 350208, Note_on_c, 0, 74, 64
2, 350208, Note_on_c, 0, 43, 64
2, 350720, Note_off_c, 0, 43, 0
2, 350720, Note_on_c, 0, 43, 64
2, 350976, Note_off_c, 0, 77, 0
2, 350976, Note_on_c, 0, 77, 64
2, 351232, Note_off_c, 0, 43, 0
2, 351232, Note_on_c, 0, 43, 64
2, 351744, Note_off_c, 0, 77, 0
2, 351744, Note_on_c, 0, 75, 64
2, 351744, Note_off_c, 0, 43, 0
2, 351744, Note_on_c, 0, 43, 64
2, 352256, Note_off_c, 0, 75, 0
2, 352256, Note_on_c, 0, 74, 64
2, 352256, Note_off_c, 0, 70, 0
2, 352256, Note_off_c, 0, 74, 0
2, 352256, Note_on_c, 0, 67, 64
2, 352256, Note_on_c, 0, 70, 64
2, 352256, Note_off_c, 0, 43, 0
2, 352256, Note_on_c, 0, 48, 64
2, 352768, Note_off_c, 0, 48, 0
2, 352768, Note_on_c, 0, 48, 64
2, 353024, Note_off_c, 0, 74, 0
2, 353024, Note_on_c, 0, 72, 64
2, 353280, Note_off_c, 0, 48, 0
2, 353280, Note_on_c, 0, 48, 64
2, 353792, Note_off_c, 0, 72, 0
2, 353792, Note_on_c, 0, 74, 64
2, 353792, Note_off_c, 0, 48, 0
2, 353792, Note_on_c, 0, 48, 64
2, 354304, Note_off_c, 0, 74, 0
2, 354304, Note_off_c, 0, 67, 0
2, 354304, Note_off_c, 0, 70, 0
2, 354304, Note_off_c, 0, 48, 0
2, 354304, Note_on_c, 0, 75, 64
2, 354304, Note_on_c, 0, 68, 64
2, 354304, Note_on_c, 0, 72, 64
2, 354304, Note_on_c, 0, 41, 64
2, 354816, Note_off_c, 0, 41, 0
2, 354816, Note_on_c, 0, 41, 64
2, 355072, Note_off_c, 0, 75, 0
2, 355072, Note_on_c, 0, 75, 64
2, 355328, Note_off_c, 0, 41, 0
2, 355328, Note_on_c, 0, 41, 64
2, 355840, Note_off_c, 0, 75, 0
2, 355840, Note_on_c, 0, 74, 64
2, 355840, Note_off_c, 0, 41, 0
2, 355840, Note_on_c, 0, 41, 64
2, 356352, Note_off_c, 0, 74, 0
2, 356352, Note_on_c, 0, 77, 64
2, 356352, Note_off_c, 0, 68, 0
2, 356352, Note_off_c, 0, 72, 0
2, 356352, Note_on_c, 0, 68, 64
2, 356352, Note_on_c, 0, 72, 64
2, 356352, Note_off_c, 0, 41, 0
2, 356352, Note_on_c, 0, 46, 64
2, 356864, Note_off_c, 0, 46, 0
2, 356864, Note_on_c, 0, 46, 64
2, 357120, Note_off_c, 0, 77, 0
2, 357120, Note_on_c, 0, 74, 64
2, 357376, Note_off_c, 0, 46, 0
2, 357376, Note_on_c, 0, 46, 64
2, 357888, Note_off_c, 0, 74, 0
2, 357888, Note_on_c, 0, 72, 64
2, 357888, Note_off_c, 0, 46, 0
2, 357888, Note_on_c, 0, 46, 64
2, 358400, Note_off_c, 0, 72, 0
2, 358400, Note_off_c, 0, 68, 0
2, 358400, Note_off_c, 0, 72, 0
2, 358400, Note_off_c, 0, 46, 0
2, 358400, Note_on_c, 0, 73, 64
2, 358400, Note_on_c, 0, 77, 64
2, 358400, Note_on_c, 0, 70, 64
2, 358400, Note_on_c, 0, 46, 64
2, 358912, Note_off_c, 0, 46, 0
2, 358912, Note_on_c, 0, 46, 64
2, 359424, Note_off_c, 0, 73, 0
2, 359424, Note_off_c, 0, 77, 0
2, 359424, Note_on_c, 0, 75, 64
2, 359424, Note_on_c, 0, 79, 64
2, 359424, Note_off_c, 0, 46, 0
2, 359424, Note_on_c, 0, 53, 64
2, 359936, Note_off_c, 0, 53, 0
2, 359936, Note_on_c, 0, 52, 64
2, 360448, Note_off_c, 0, 75, 0
2, 360448, Note_off_c, 0, 79, 0
2, 360448, Note_on_c, 0, 77, 64
2, 360448, Note_on_c, 0, 80, 64
2, 360448, Note_off_c, 0, 70, 0
2, 360448, Note_off_c, 0, 52, 0
2, 360448, Note_on_c, 0, 51, 64
2, 360960, Note_off_c, 0, 51, 0
2, 360960, Note_on_c, 0, 51, 64
2, 361472, Note_off_c, 0, 77, 0
2, 361472, Note_off_c, 0, 80, 0
2, 361472, Note_on_c, 0, 79, 64
2, 361472, Note_on_c, 0, 82, 64
2, 361472, Note_off_c, 0, 51, 0
2, 361472, Note_on_c, 0, 46, 64
2, 361984, Note_off_c, 0, 46, 0
2, 361984, Note_on_c, 0, 45, 64
2, 362496, Note_off_c, 0, 79, 0
2, 362496, Note_off_c, 0, 82, 0
2, 362496, Note_off_c, 0, 45, 0
2, 362496, Note_on_c, 0, 72, 64
2, 362496, Note_on_c, 0, 75, 64
2, 362496, Note_on_c, 0, 44, 64
2, 363008, Note_off_c, 0, 44, 0
2, 363008, Note_on_c, 0, 44, 64
2, 363264, Note_off_c, 0, 72, 0
2, 363264, Note_off_c, 0, 75, 0
2, 363264, Note_on_c, 0, 72, 64
2, 363264, Note_on_c, 0, 75, 64
2, 363520, Note_off_c, 0, 44, 0
2, 363520, Note_on_c, 0, 44, 64
2, 364032, Note_off_c, 0, 72, 0
2, 364032, Note_off_c, 0, 75, 0
2, 364032, Note_on_c, 0, 70, 64
2, 364032, Note_on_c, 0, 74, 64
2, 364032, Note_off_c, 0, 44, 0
2, 364032, Note_on_c, 0, 44, 64
2, 364544, Note_off_c, 0, 70, 0
2, 364544, Note_off_c, 0, 74, 0
2, 364544, Note_on_c, 0, 72, 64
2, 364544, Note_on_c, 0, 75, 64
2, 364544, Note_off_c, 0, 44, 0
2, 364544, Note_on_c, 0, 44, 64
2, 365056, Note_off_c, 0, 44, 0
2, 365056, Note_on_c, 0, 44, 64
2, 365312, Note_off_c, 0, 72, 0
2, 365312, Note_off_c, 0, 75, 0
2, 365312, Note_on_c, 0, 72, 64
2, 365312, Note_on_c, 0, 75, 64
2, 365568, Note_off_c, 0, 44, 0
2, 365568, Note_on_c, 0, 44, 64
2, 366080, Note_off_c, 0, 72, 0
2, 366080, Note_off_c, 0, 75, 0
2, 366080, Note_on_c, 0, 70, 64
2, 366080, Note_on_c, 0, 74, 64
2, 366080, Note_off_c, 0, 44, 0
2, 366080, Note_on_c, 0, 44, 64
2, 366592, Note_off_c, 0, 70, 0
2, 366592, Note_off_c, 0, 74, 0
2, 366592, Note_off_c, 0, 44, 0
2, 366592, Note_on_c, 0, 74, 64
2, 366592, Note_on_c, 0, 77, 64
2, 366592, Note_on_c, 0, 43, 64
2, 367104, Note_off_c, 0, 43, 0
2, 367104, Note_on_c, 0, 43, 64
2, 367360, Note_off_c, 0, 74, 0
2, 367360, Note_off_c, 0, 77, 0
2, 367360, Note_on_c, 0, 74, 64
2, 367360, Note_on_c, 0, 77, 64
2, 367616, Note_off_c, 0, 43, 0
2, 367616, Note_on_c, 0, 43, 64
2, 368128, Note_off_c, 0, 74, 0
2, 368128, Note_off_c, 0, 77, 0
2, 368128, Note_on_c, 0, 72, 64
2, 368128, Note_on_c, 0, 75, 64
2, 368128, Note_off_c, 0, 43, 0
2, 368128, Note_on_c, 0, 43, 64
2, 368640, Note_off_c, 0, 72, 0
2, 368640, Note_off_c, 0, 75, 0
2, 368640, Note_on_c, 0, 70, 64
2, 368640, Note_on_c, 0, 74, 64
2, 368640, Note_off_c, 0, 43, 0
2, 368640, Note_on_c, 0, 48, 64
2, 369152, Note_off_c, 0, 48, 0
2, 369152, Note_on_c, 0, 48, 64
2, 369408, Note_off_c, 0, 70, 0
2, 369408, Note_off_c, 0, 74, 0
2, 369408, Note_on_c, 0, 72, 64
2, 369408, Note_on_c, 0, 75, 64
2, 369664, Note_off_c, 0, 48, 0
2, 369664, Note_on_c, 0, 48, 64
2, 370176, Note_off_c, 0, 72, 0
2, 370176, Note_off_c, 0, 75, 0
2, 370176, Note_on_c, 0, 74, 64
2, 370176, Note_on_c, 0, 77, 64
2, 370176, Note_off_c, 0, 48, 0
2, 370176, Note_on_c, 0, 48, 64
2, 370688, Note_off_c, 0, 74, 0
2, 370688, Note_off_c, 0, 77, 0
2, 370688, Note_off_c, 0, 48, 0
2, 370688, Note_on_c, 0, 72, 64
2, 370688, Note_on_c, 0, 74, 64
2, 370688, Note_on_c, 0, 79, 64
2, 370688, Note_on_c, 0, 50, 64
2, 371200, Note_off_c, 0, 50, 0
2, 371200, Note_on_c, 0, 50, 64
2, 371456, Note_off_c, 0, 72, 0
2, 371456, Note_off_c, 0, 74, 0
2, 371456, Note_off_c, 0, 79, 0
2, 371456, Note_on_c, 0, 72, 64
2, 371456, Note_on_c, 0, 74, 64
2, 371456, Note_on_c, 0, 80, 64
2, 371712, Note_off_c, 0, 50, 0
2, 371712, Note_on_c, 0, 50, 64
2, 372224, Note_off_c, 0, 72, 0
2, 372224, Note_off_c, 0, 74, 0
2, 372224, Note_off_c, 0, 80, 0
2, 372224, Note_on_c, 0, 72, 64
2, 372224, Note_on_c, 0, 74, 64
2, 372224, Note_on_c, 0, 79, 64
2, 372224, Note_off_c, 0, 50, 0
2, 372224, Note_on_c, 0, 50, 64
2, 372736, Note_off_c, 0, 72, 0
2, 372736, Note_off_c, 0, 74, 0
2, 372736, Note_off_c, 0, 79, 0
2, 372736, Note_on_c, 0, 72, 64
2, 372736, Note_on_c, 0, 74, 64
2, 372736, Note_on_c, 0, 77, 64
2, 372736, Note_off_c, 0, 50, 0
2, 372736, Note_on_c, 0, 50, 64
2, 373248, Note_off_c, 0, 50, 0
2, 373248, Note_on_c, 0, 50, 64
2, 373504, Note_off_c, 0, 72, 0
2, 373504, Note_off_c, 0, 74, 0
2, 373504, Note_off_c, 0, 77, 0
2, 373504, Note_on_c, 0, 72, 64
2, 373504, Note_on_c, 0, 75, 64
2, 373760, Note_off_c, 0, 50, 0
2, 373760, Note_on_c, 0, 50, 64
2, 374272, Note_off_c, 0, 72, 0
2, 374272, Note_off_c, 0, 75, 0
2, 374272, Note_on_c, 0, 72, 64
2, 374272, Note_on_c, 0, 74, 64
2, 374272, Note_on_c, 0, 77, 64
2, 374272, Note_off_c, 0, 50, 0
2, 374272, Note_on_c, 0, 50, 64
2, 374784, Note_off_c, 0, 72, 0
2, 374784, Note_off_c, 0, 74, 0
2, 374784, Note_off_c, 0, 77, 0
2, 374784, Note_off_c, 0, 50, 0
2, 374784, Note_on_c, 0, 69, 64
2, 374784, Note_on_c, 0, 72, 64
2, 374784, Note_on_c, 0, 77, 64
2, 374784, Note_on_c, 0, 79, 64
2, 374784, Note_on_c, 0, 43, 64
2, 376832, Note_off_c, 0, 69, 0
2, 376832, Note_off_c, 0, 72, 0
2, 376832, Note_off_c, 0, 77, 0
2, 376832, Note_off_c, 0, 79, 0
2, 376832, Note_on_c, 0, 71, 64
2, 376832, Note_on_c, 0, 74, 64
2, 376832, Note_on_c, 0, 79, 64
2, 376832, Note_off_c, 0, 43, 0
2, 376832, Note_on_c, 0, 43, 64
2, 377600, Note_off_c, 0, 71, 0
2, 377600, Note_off_c, 0, 74, 0
2, 377600, Note_off_c, 0, 79, 0
2, 377600, Note_on_c, 0, 72, 64
2, 377600, Note_on_c, 0, 77, 64
2, 377600, Note_on_c, 0, 81, 64
2, 377600, Note_off_c, 0, 43, 0
2, 377600, Note_on_c, 0, 43, 64
2, 378368, Note_off_c, 0, 72, 0
2, 378368, Note_off_c, 0, 77, 0
2, 378368, Note_off_c, 0, 81, 0
2, 378368, Note_on_c, 0, 74, 64
2, 378368, Note_on_c, 0, 79, 64
2, 378368, Note_on_c, 0, 83, 64
2, 378368, Note_off_c, 0, 43, 0
2, 378368, Note_on_c, 0, 43, 64
2, 378880, Note_off_c, 0, 74, 0
2, 378880, Note_off_c, 0, 79, 0
2, 378880, Note_off_c, 0, 83, 0
2, 378880, Note_off_c, 0, 43, 0
2, 378880, Note_on_c, 0, 72, 64
2, 378880, Note_on_c, 0, 48, 64
2, 379392, Note_off_c, 0, 48, 0
2, 379392, Note_on_c, 0, 48, 64
2, 379904, Note_off_c, 0, 72, 0
2, 379904, Note_on_c, 0, 67, 64
2, 379904, Note_on_c, 0, 72, 64
2, 379904, Note_on_c, 0, 75, 64
2, 379904, Note_off_c, 0, 48, 0
2, 379904, Note_on_c, 0, 48, 64
2, 380416, Note_off_c, 0, 48, 0
2, 380416, Note_on_c, 0, 51, 64
2, 380928, Note_off_c, 0, 67, 0
2, 380928, Note_off_c, 0, 72, 0
2, 380928, Note_off_c, 0, 75, 0
2, 380928, Note_on_c, 0, 77, 64
2, 380928, Note_on_c, 0, 68, 64
2, 380928, Note_on_c, 0, 72, 64
2, 380928, Note_off_c, 0, 51, 0
2, 380928, Note_on_c, 0, 53, 64
2, 381184, Note_off_c, 0, 53, 0
2, 381184, Note_on_c, 0, 53, 64
2, 381440, Note_off_c, 0, 53, 0
2, 381696, Note_off_c, 0, 77, 0
2, 381696, Note_on_c, 0, 75, 64
2, 381696, Note_on_c, 0, 53, 64
2, 382208, Note_off_c, 0, 53, 0
2, 382208, Note_on_c, 0, 53, 64
2, 382464, Note_off_c, 0, 75, 0
2, 382464, Note_on_c, 0, 77, 64
2, 382464, Note_off_c, 0, 53, 0
2, 382464, Note_on_c, 0, 48, 64
2, 382976, Note_off_c, 0, 77, 0
2, 382976, Note_off_c, 0, 68, 0
2, 382976, Note_off_c, 0, 72, 0
2, 382976, Note_off_c, 0, 48, 0
2, 382976, Note_on_c, 0, 77, 64
2, 382976, Note_on_c, 0, 46, 64
2, 383488, Note_off_c, 0, 77, 0
2, 383488, Note_on_c, 0, 77, 64
2, 383488, Note_off_c, 0, 46, 0
2, 383488, Note_on_c, 0, 46, 64
2, 384000, Note_off_c, 0, 77, 0
2, 384000, Note_on_c, 0, 82, 64
2, 384000, Note_off_c, 0, 46, 0
2, 384000, Note_on_c, 0, 46, 64
2, 384512, Note_off_c, 0, 82, 0
2, 384512, Note_on_c, 0, 80, 64
2, 384512, Note_off_c, 0, 46, 0
2, 384512, Note_on_c, 0, 50, 64
2, 385024, Note_off_c, 0, 80, 0
2, 385024, Note_on_c, 0, 79, 64
2, 385024, Note_off_c, 0, 50, 0
2, 385024, Note_on_c, 0, 51, 64
2, 385280, Note_off_c, 0, 79, 0
2, 385280, Note_on_c, 0, 77, 64
2, 385280, Note_off_c, 0, 51, 0
2, 385280, Note_on_c, 0, 51, 64
2, 385536, Note_off_c, 0, 51, 0
2, 385792, Note_off_c, 0, 77, 0
2, 385792, Note_on_c, 0, 79, 64
2, 385792, Note_on_c, 0, 51, 64
2, 386048, Note_off_c, 0, 51, 0
2, 386048, Note_on_c, 0, 51, 64
2, 386560, Note_off_c, 0, 51, 0
2, 386560, Note_on_c, 0, 50, 64
2, 387072, Note_off_c, 0, 79, 0
2, 387072, Note_off_c, 0, 50, 0
2, 387072, Note_on_c, 0, 75, 64
2, 387072, Note_on_c, 0, 79, 64
2, 387072, Note_on_c, 0, 48, 64
2, 387584, Note_off_c, 0, 48, 0
2, 387584, Note_on_c, 0, 48, 64
2, 388096, Note_off_c, 0, 75, 0
2, 388096, Note_off_c, 0, 79, 0
2, 388096, Note_on_c, 0, 75, 64
2, 388096, Note_on_c, 0, 79, 64
2, 388096, Note_on_c, 0, 82, 64
2, 388096, Note_off_c, 0, 48, 0
2, 388096, Note_on_c, 0, 48, 64
2, 388608, Note_off_c, 0, 48, 0
2, 388608, Note_on_c, 0, 51, 64
2, 389120, Note_off_c, 0, 75, 0
2, 389120, Note_off_c, 0, 79, 0
2, 389120, Note_off_c, 0, 82, 0
2, 389120, Note_on_c, 0, 75, 64
2, 389120, Note_on_c, 0, 80, 64
2, 389120, Note_on_c, 0, 84, 64
2, 389120, Note_off_c, 0, 51, 0
2, 389120, Note_on_c, 0, 53, 64
2, 389376, Note_off_c, 0, 53, 0
2, 389376, Note_on_c, 0, 53, 64
2, 389632, Note_off_c, 0, 53, 0
2, 389888, Note_off_c, 0, 75, 0
2, 389888, Note_off_c, 0, 80, 0
2, 389888, Note_off_c, 0, 84, 0
2, 389888, Note_on_c, 0, 77, 64
2, 389888, Note_on_c, 0, 53, 64
2, 390400, Note_off_c, 0, 53, 0
2, 390400, Note_on_c, 0, 53, 64
2, 390656, Note_off_c, 0, 77, 0
2, 390656, Note_on_c, 0, 75, 64
2, 390656, Note_off_c, 0, 53, 0
2, 390656, Note_on_c, 0, 48, 64
2, 391168, Note_off_c, 0, 75, 0
2, 391168, Note_off_c, 0, 48, 0
2, 391168, Note_on_c, 0, 74, 64
2, 391168, Note_on_c, 0, 46, 64
2, 391680, Note_off_c, 0, 74, 0
2, 391680, Note_on_c, 0, 74, 64
2, 391680, Note_off_c, 0, 46, 0
2, 391680, Note_on_c, 0, 46, 64
2, 392192, Note_off_c, 0, 74, 0
2, 392192, Note_on_c, 0, 72, 64
2, 392192, Note_off_c, 0, 46, 0
2, 392192, Note_on_c, 0, 46, 64
2, 392704, Note_off_c, 0, 72, 0
2, 392704, Note_on_c, 0, 74, 64
2, 392704, Note_off_c, 0, 46, 0
2, 392704, Note_on_c, 0, 50, 64
2, 393216, Note_off_c, 0, 74, 0
2, 393216, Note_on_c, 0, 77, 64
2, 393216, Note_off_c, 0, 50, 0
2, 393216, Note_on_c, 0, 51, 64
2, 393472, Note_off_c, 0, 77, 0
2, 393472, Note_on_c, 0, 75, 64
2, 393984, Note_off_c, 0, 75, 0
2, 393984, Note_on_c, 0, 75, 64
2, 394240, Note_off_c, 0, 51, 0
2, 394240, Note_on_c, 0, 50, 64
2, 395264, Note_off_c, 0, 75, 0
2, 395264, Note_off_c, 0, 50, 0
2, 395264, Note_on_c, 0, 72, 64
2, 395264, Note_on_c, 0, 48, 64
2, 395776, Note_off_c, 0, 48, 0
2, 395776, Note_on_c, 0, 48, 64
2, 396288, Note_off_c, 0, 72, 0
2, 396288, Note_on_c, 0, 67, 64
2, 396288, Note_on_c, 0, 72, 64
2, 396288, Note_on_c, 0, 75, 64
2, 396288, Note_off_c, 0, 48, 0
2, 396288, Note_on_c, 0, 48, 64
2, 396800, Note_off_c, 0, 48, 0
2, 396800, Note_on_c, 0, 51, 64
2, 397312, Note_off_c, 0, 67, 0
2, 397312, Note_off_c, 0, 72, 0
2, 397312, Note_off_c, 0, 75, 0
2, 397312, Note_on_c, 0, 77, 64
2, 397312, Note_on_c, 0, 68, 64
2, 397312, Note_on_c, 0, 72, 64
2, 397312, Note_off_c, 0, 51, 0
2, 397312, Note_on_c, 0, 53, 64
2, 397568, Note_off_c, 0, 53, 0
2, 397568, Note_on_c, 0, 53, 64
2, 397824, Note_off_c, 0, 53, 0
2, 398080, Note_off_c, 0, 77, 0
2, 398080, Note_on_c, 0, 75, 64
2, 398080, Note_on_c, 0, 53, 64
2, 398592, Note_off_c, 0, 53, 0
2, 398592, Note_on_c, 0, 53, 64
2, 398848, Note_off_c, 0, 75, 0
2, 398848, Note_on_c, 0, 77, 64
2, 398848, Note_off_c, 0, 53, 0
2, 398848, Note_on_c, 0, 48, 64
2, 399360, Note_off_c, 0, 77, 0
2, 399360, Note_off_c, 0, 68, 0
2, 399360, Note_off_c, 0, 72, 0
2, 399360, Note_off_c, 0, 48, 0
2, 399360, Note_on_c, 0, 77, 64
2, 399360, Note_on_c, 0, 46, 64
2, 399872, Note_off_c, 0, 77, 0
2, 399872, Note_on_c, 0, 77, 64
2, 399872, Note_off_c, 0, 46, 0
2, 399872, Note_on_c, 0, 46, 64
2, 400384, Note_off_c, 0, 77, 0
2, 400384, Note_on_c, 0, 82, 64
2, 400384, Note_off_c, 0, 46, 0
2, 400384, Note_on_c, 0, 46, 64
2, 400896, Note_off_c, 0, 82, 0
2, 400896, Note_on_c, 0, 80, 64
2, 400896, Note_off_c, 0, 46, 0
2, 400896, Note_on_c, 0, 50, 64
2, 401408, Note_off_c, 0, 80, 0
2, 401408, Note_on_c, 0, 79, 64
2, 401408, Note_off_c, 0, 50, 0
2, 401408, Note_on_c, 0, 51, 64
2, 401664, Note_off_c, 0, 79, 0
2, 401664, Note_on_c, 0, 77, 64
2, 401664, Note_off_c, 0, 51, 0
2, 401664, Note_on_c, 0, 51, 64
2, 401920, Note_off_c, 0, 51, 0
2, 402176, Note_off_c, 0, 77, 0
2, 402176, Note_on_c, 0, 79, 64
2, 402176, Note_on_c, 0, 51, 64
2, 402432, Note_off_c, 0, 51, 0
2, 402432, Note_on_c, 0, 51, 64
2, 402944, Note_off_c, 0, 51, 0
2, 402944, Note_on_c, 0, 50, 64
2, 403456, Note_off_c, 0, 79, 0
2, 403456, Note_off_c, 0, 50, 0
2, 403456, Note_on_c, 0, 75, 64
2, 403456, Note_on_c, 0, 79, 64
2, 403456, Note_on_c, 0, 48, 64
2, 403968, Note_off_c, 0, 48, 0
2, 403968, Note_on_c, 0, 48, 64
2, 404480, Note_off_c, 0, 75, 0
2, 404480, Note_off_c, 0, 79, 0
2, 404480, Note_on_c, 0, 75, 64
2, 404480, Note_on_c, 0, 79, 64
2, 404480, Note_on_c, 0, 82, 64
2, 404480, Note_off_c, 0, 48, 0
2, 404480, Note_on_c, 0, 48, 64
2, 404992, Note_off_c, 0, 48, 0
2, 404992, Note_on_c, 0, 51, 64
2, 405504, Note_off_c, 0, 75, 0
2, 405504, Note_off_c, 0, 79, 0
2, 405504, Note_off_c, 0, 82, 0
2, 405504, Note_on_c, 0, 75, 64
2, 405504, Note_on_c, 0, 80, 64
2, 405504, Note_on_c, 0, 84, 64
2, 405504, Note_off_c, 0, 51, 0
2, 405504, Note_on_c, 0, 53, 64
2, 405760, Note_off_c, 0, 53, 0
2, 405760, Note_on_c, 0, 53, 64
2, 406016, Note_off_c, 0, 53, 0
2, 406272, Note_off_c, 0, 75, 0
2, 406272, Note_off_c, 0, 80, 0
2, 406272, Note_off_c, 0, 84, 0
2, 406272, Note_on_c, 0, 77, 64
2, 406272, Note_on_c, 0, 53, 64
2, 406784, Note_off_c, 0, 53, 0
2, 406784, Note_on_c, 0, 53, 64
2, 407040, Note_off_c, 0, 77, 0
2, 407040, Note_on_c, 0, 75, 64
2, 407040, Note_off_c, 0, 53, 0
2, 407040, Note_on_c, 0, 48, 64
2, 407552, Note_off_c, 0, 75, 0
2, 407552, Note_off_c, 0, 48, 0
2, 407552, Note_on_c, 0, 74, 64
2, 407552, Note_on_c, 0, 77, 64
2, 407552, Note_on_c, 0, 82, 64
2, 407552, Note_on_c, 0, 46, 64
2, 408064, Note_off_c, 0, 74, 0
2, 408064, Note_off_c, 0, 77, 0
2, 408064, Note_off_c, 0, 82, 0
2, 408064, Note_on_c, 0, 74, 64
2, 408064, Note_on_c, 0, 77, 64
2, 408064, Note_on_c, 0, 82, 64
2, 408064, Note_off_c, 0, 46, 0
2, 408064, Note_on_c, 0, 46, 64
2, 408576, Note_off_c, 0, 74, 0
2, 408576, Note_off_c, 0, 77, 0
2, 408576, Note_off_c, 0, 82, 0
2, 408576, Note_on_c, 0, 74, 64
2, 408576, Note_on_c, 0, 77, 64
2, 408576, Note_on_c, 0, 79, 64
2, 408576, Note_off_c, 0, 46, 0
2, 408576, Note_on_c, 0, 46, 64
2, 409088, Note_off_c, 0, 74, 0
2, 409088, Note_off_c, 0, 77, 0
2, 409088, Note_off_c, 0, 79, 0
2, 409088, Note_on_c, 0, 74, 64
2, 409088, Note_on_c, 0, 77, 64
2, 409088, Note_on_c, 0, 82, 64
2, 409088, Note_off_c, 0, 46, 0
2, 409088, Note_on_c, 0, 47, 64
2, 409600, Note_off_c, 0, 74, 0
2, 409600, Note_off_c, 0, 77, 0
2, 409600, Note_off_c, 0, 82, 0
2, 409600, Note_on_c, 0, 74, 64
2, 409600, Note_on_c, 0, 77, 64
2, 409600, Note_on_c, 0, 82, 64
2, 409600, Note_off_c, 0, 47, 0
2, 409600, Note_on_c, 0, 48, 64
2, 409856, Note_off_c, 0, 48, 0
2, 409856, Note_on_c, 0, 48, 64
2, 410368, Note_off_c, 0, 74, 0
2, 410368, Note_off_c, 0, 77, 0
2, 410368, Note_off_c, 0, 82, 0
2, 410368, Note_on_c, 0, 75, 64
2, 410368, Note_on_c, 0, 79, 64
2, 410368, Note_on_c, 0, 84, 64
2, 410368, Note_off_c, 0, 48, 0
2, 410368, Note_on_c, 0, 48, 64
2, 410624, Note_off_c, 0, 48, 0
2, 410624, Note_on_c, 0, 46, 64
2, 411648, Note_off_c, 0, 75, 0
2, 411648, Note_off_c, 0, 79, 0
2, 411648, Note_off_c, 0, 84, 0
2, 411648, Note_off_c, 0, 46, 0
2, 411648, Note_on_c, 0, 72, 64
2, 411648, Note_on_c, 0, 48, 64
2, 412160, Note_off_c, 0, 48, 0
2, 412160, Note_on_c, 0, 48, 64
2, 412672, Note_off_c, 0, 72, 0
2, 412672, Note_on_c, 0, 67, 64
2, 412672, Note_on_c, 0, 72, 64
2, 412672, Note_on_c, 0, 75, 64
2, 412672, Note_off_c, 0, 48, 0
2, 412672, Note_on_c, 0, 48, 64
2, 413184, Note_off_c, 0, 48, 0
2, 413184, Note_on_c, 0, 51, 64
2, 413696, Note_off_c, 0, 67, 0
2, 413696, Note_off_c, 0, 72, 0
2, 413696, Note_off_c, 0, 75, 0
2, 413696, Note_on_c, 0, 77, 64
2, 413696, Note_on_c, 0, 68, 64
2, 413696, Note_on_c, 0, 72, 64
2, 413696, Note_off_c, 0, 51, 0
2, 413696, Note_on_c, 0, 53, 64
2, 413952, Note_off_c, 0, 53, 0
2, 413952, Note_on_c, 0, 53, 64
2, 414208, Note_off_c, 0, 53, 0
2, 414464, Note_off_c, 0, 77, 0
2, 414464, Note_on_c, 0, 75, 64
2, 414464, Note_on_c, 0, 53, 64
2, 414976, Note_off_c, 0, 53, 0
2, 414976, Note_on_c, 0, 53, 64
2, 415232, Note_off_c, 0, 75, 0
2, 415232, Note_on_c, 0, 77, 64
2, 415232, Note_off_c, 0, 53, 0
2, 415232, Note_on_c, 0, 48, 64
2, 415744, Note_off_c, 0, 77, 0
2, 415744, Note_off_c, 0, 68, 0
2, 415744, Note_off_c, 0, 72, 0
2, 415744, Note_off_c, 0, 48, 0
2, 415744, Note_on_c, 0, 77, 64
2, 415744, Note_on_c, 0, 46, 64
2, 416256, Note_off_c, 0, 77, 0
2, 416256, Note_on_c, 0, 77, 64
2, 416256, Note_off_c, 0, 46, 0
2, 416256, Note_on_c, 0, 46, 64
2, 416768, Note_off_c, 0, 77, 0
2, 416768, Note_on_c, 0, 82, 64
2, 416768, Note_off_c, 0, 46, 0
2, 416768, Note_on_c, 0, 46, 64
2, 417280, Note_off_c, 0, 82, 0
2, 417280, Note_on_c, 0, 80, 64
2, 417280, Note_off_c, 0, 46, 0
2, 417280, Note_on_c, 0, 50, 64
2, 417792, Note_off_c, 0, 80, 0
2, 417792, Note_on_c, 0, 79, 64
2, 417792, Note_off_c, 0, 50, 0
2, 417792, Note_on_c, 0, 51, 64
2, 418048, Note_off_c, 0, 79, 0
2, 418048, Note_on_c, 0, 77, 64
2, 418048, Note_off_c, 0, 51, 0
2, 418048, Note_on_c, 0, 51, 64
2, 418304, Note_off_c, 0, 51, 0
2, 418560, Note_off_c, 0, 77, 0
2, 418560, Note_on_c, 0, 79, 64
2, 418560, Note_on_c, 0, 51, 64
2, 418816, Note_off_c, 0, 51, 0
2, 418816, Note_on_c, 0, 51, 64
2, 419328, Note_off_c, 0, 51, 0
2, 419328, Note_on_c, 0, 50, 64
2, 419840, Note_off_c, 0, 79, 0
2, 419840, Note_off_c, 0, 50, 0
2, 419840, Note_on_c, 0, 75, 64
2, 419840, Note_on_c, 0, 79, 64
2, 419840, Note_on_c, 0, 48, 64
2, 420352, Note_off_c, 0, 48, 0
2, 420352, Note_on_c, 0, 48, 64
2, 420864, Note_off_c, 0, 75, 0
2, 420864, Note_off_c, 0, 79, 0
2, 420864, Note_on_c, 0, 75, 64
2, 420864, Note_on_c, 0, 79, 64
2, 420864, Note_on_c, 0, 82, 64
2, 420864, Note_off_c, 0, 48, 0
2, 420864, Note_on_c, 0, 48, 64
2, 421376, Note_off_c, 0, 48, 0
2, 421376, Note_on_c, 0, 51, 64
2, 421888, Note_off_c, 0, 75, 0
2, 421888, Note_off_c, 0, 79, 0
2, 421888, Note_off_c, 0, 82, 0
2, 421888, Note_on_c, 0, 75, 64
2, 421888, Note_on_c, 0, 80, 64
2, 421888, Note_on_c, 0, 84, 64
2, 421888, Note_off_c, 0, 51, 0
2, 421888, Note_on_c, 0, 53, 64
2, 422144, Note_off_c, 0, 53, 0
2, 422144, Note_on_c, 0, 53, 64
2, 422400, Note_off_c, 0, 53, 0
2, 422656, Note_off_c, 0, 75, 0
2, 422656, Note_off_c, 0, 80, 0
2, 422656, Note_off_c, 0, 84, 0
2, 422656, Note_on_c, 0, 77, 64
2, 422656, Note_on_c, 0, 53, 64
2, 423168, Note_off_c, 0, 53, 0
2, 423168, Note_on_c, 0, 53, 64
2, 423424, Note_off_c, 0, 77, 0
2, 423424, Note_on_c, 0, 75, 64
2, 423424, Note_off_c, 0, 53, 0
2, 423424, Note_on_c, 0, 48, 64
2, 423936, Note_off_c, 0, 75, 0
2, 423936, Note_off_c, 0, 48, 0
2, 423936, Note_on_c, 0, 74, 64
2, 423936, Note_on_c, 0, 77, 64
2, 423936, Note_on_c, 0, 82, 64
2, 423936, Note_on_c, 0, 41, 64
2, 424448, Note_off_c, 0, 74, 0
2, 424448, Note_off_c, 0, 77, 0
2, 424448, Note_off_c, 0, 82, 0
2, 424448, Note_on_c, 0, 74, 64
2, 424448, Note_on_c, 0, 77, 64
2, 424448, Note_on_c, 0, 82, 64
2, 424448, Note_off_c, 0, 41, 0
2, 424448, Note_on_c, 0, 41, 64
2, 424960, Note_off_c, 0, 74, 0
2, 424960, Note_off_c, 0, 77, 0
2, 424960, Note_off_c, 0, 82, 0
2, 424960, Note_on_c, 0, 74, 64
2, 424960, Note_on_c, 0, 77, 64
2, 424960, Note_on_c, 0, 79, 64
2, 424960, Note_off_c, 0, 41, 0
2, 424960, Note_on_c, 0, 43, 64
2, 425472, Note_off_c, 0, 74, 0
2, 425472, Note_off_c, 0, 77, 0
2, 425472, Note_off_c, 0, 79, 0
2, 425472, Note_on_c, 0, 74, 64
2, 425472, Note_on_c, 0, 77, 64
2, 425472, Note_on_c, 0, 82, 64
2, 425472, Note_off_c, 0, 43, 0
2, 425472, Note_on_c, 0, 43, 64
2, 425984, Note_off_c, 0, 74, 0
2, 425984, Note_off_c, 0, 77, 0
2, 425984, Note_off_c, 0, 82, 0
2, 425984, Note_on_c, 0, 74, 64
2, 425984, Note_on_c, 0, 77, 64
2, 425984, Note_on_c, 0, 82, 64
2, 425984, Note_off_c, 0, 43, 0
2, 425984, Note_on_c, 0, 44, 64
2, 426496, Note_off_c, 0, 44, 0
2, 426496, Note_on_c, 0, 44, 64
2, 426752, Note_off_c, 0, 74, 0
2, 426752, Note_off_c, 0, 77, 0
2, 426752, Note_off_c, 0, 82, 0
2, 426752, Note_on_c, 0, 75, 64
2, 426752, Note_on_c, 0, 79, 64
2, 426752, Note_on_c, 0, 84, 64
2, 427008, Note_off_c, 0, 44, 0
2, 427008, Note_on_c, 0, 46, 64
2, 427520, Note_off_c, 0, 46, 0
2, 427520, Note_on_c, 0, 46, 64
2, 428032, Note_off_c, 0, 75, 0
2, 428032, Note_off_c, 0, 79, 0
2, 428032, Note_off_c, 0, 84, 0
2, 428032, Note_off_c, 0, 46, 0
2, 428032, Note_on_c, 0, 75, 64
2, 428032, Note_on_c, 0, 67, 64
2, 428032, Note_on_c, 0, 72, 64
2, 428032, Note_on_c, 0, 44, 64
2, 428544, Note_off_c, 0, 44, 0
2, 428544, Note_on_c, 0, 44, 64
2, 428800, Note_off_c, 0, 75, 0
2, 428800, Note_on_c, 0, 75, 64
2, 429056, Note_off_c, 0, 44, 0
2, 429056, Note_on_c, 0, 44, 64
2, 429568, Note_off_c, 0, 75, 0
2, 429568, Note_on_c, 0, 74, 64
2, 429568, Note_off_c, 0, 44, 0
2, 429568, Note_on_c, 0, 44, 64
2, 430080, Note_off_c, 0, 74, 0
2, 430080, Note_on_c, 0, 75, 64
2, 430080, Note_off_c, 0, 44, 0
2, 430080, Note_on_c, 0, 44, 64
2, 430592, Note_off_c, 0, 44, 0
2, 430592, Note_on_c, 0, 44, 64
2, 430848, Note_off_c, 0, 75, 0
2, 430848, Note_on_c, 0, 75, 64
2, 431104, Note_off_c, 0, 44, 0
2, 431104, Note_on_c, 0, 44, 64
2, 431616, Note_off_c, 0, 75, 0
2, 431616, Note_on_c, 0, 74, 64
2, 431616, Note_off_c, 0, 44, 0
2, 431616, Note_on_c, 0, 44, 64
2, 432128, Note_off_c, 0, 74, 0
2, 432128, Note_off_c, 0, 67, 0
2, 432128, Note_off_c, 0, 72, 0
2, 432128, Note_off_c, 0, 44, 0
2, 432128, Note_on_c, 0, 77, 64
2, 432128, Note_on_c, 0, 70, 64
2, 432128, Note_on_c, 0, 74, 64
2, 432128, Note_on_c, 0, 43, 64
2, 432640, Note_off_c, 0, 43, 0
2, 432640, Note_on_c, 0, 43, 64
2, 432896, Note_off_c, 0, 77, 0
2, 432896, Note_on_c, 0, 77, 64
2, 433152, Note_off_c, 0, 43, 0
2, 433152, Note_on_c, 0, 43, 64
2, 433664, Note_off_c, 0, 77, 0
2, 433664, Note_on_c, 0, 75, 64
2, 433664, Note_off_c, 0, 43, 0
2, 433664, Note_on_c, 0, 43, 64
2, 434176, Note_off_c, 0, 75, 0
2, 434176, Note_on_c, 0, 74, 64
2, 434176, Note_off_c, 0, 70, 0
2, 434176, Note_off_c, 0, 74, 0
2, 434176, Note_on_c, 0, 67, 64
2, 434176, Note_on_c, 0, 70, 64
2, 434176, Note_off_c, 0, 43, 0
2, 434176, Note_on_c, 0, 48, 64
2, 434688, Note_off_c, 0, 48, 0
2, 434688, Note_on_c, 0, 48, 64
2, 434944, Note_off_c, 0, 74, 0
2, 434944, Note_on_c, 0, 72, 64
2, 435200, Note_off_c, 0, 48, 0
2, 435200, Note_on_c, 0, 48, 64
2, 435712, Note_off_c, 0, 72, 0
2, 435712, Note_on_c, 0, 74, 64
2, 435712, Note_off_c, 0, 48, 0
2, 435712, Note_on_c, 0, 48, 64
2, 436224, Note_off_c, 0, 74, 0
2, 436224, Note_off_c, 0, 67, 0
2, 436224, Note_off_c, 0, 70, 0
2, 436224, Note_off_c, 0, 48, 0
2, 436224, Note_on_c, 0, 75, 64
2, 436224, Note_on_c, 0, 68, 64
2, 436224, Note_on_c, 0, 72, 64
2, 436224, Note_on_c, 0, 41, 64
2, 436736, Note_off_c, 0, 41, 0
2, 436736, Note_on_c, 0, 41, 64
2, 436992, Note_off_c, 0, 75, 0
2, 436992, Note_on_c, 0, 75, 64
2, 437248, Note_off_c, 0, 41, 0
2, 437248, Note_on_c, 0, 41, 64
2, 437760, Note_off_c, 0, 75, 0
2, 437760, Note_on_c, 0, 74, 64
2, 437760, Note_off_c, 0, 41, 0
2, 437760, Note_on_c, 0, 41, 64
2, 438272, Note_off_c, 0, 74, 0
2, 438272, Note_on_c, 0, 77, 64
2, 438272, Note_off_c, 0, 68, 0
2, 438272, Note_off_c, 0, 72, 0
2, 438272, Note_on_c, 0, 68, 64
2, 438272, Note_on_c, 0, 72, 64
2, 438272, Note_off_c, 0, 41, 0
2, 438272, Note_on_c, 0, 46, 64
2, 438784, Note_off_c, 0, 46, 0
2, 438784, Note_on_c, 0, 46, 64
2, 439040, Note_off_c, 0, 77, 0
2, 439040, Note_on_c, 0, 74, 64
2, 439296, Note_off_c, 0, 46, 0
2, 439296, Note_on_c, 0, 46, 64
2, 439808, Note_off_c, 0, 74, 0
2, 439808, Note_on_c, 0, 72, 64
2, 439808, Note_off_c, 0, 46, 0
2, 439808, Note_on_c, 0, 46, 64
2, 440320, Note_off_c, 0, 72, 0
2, 440320, Note_off_c, 0, 68, 0
2, 440320, Note_off_c, 0, 72, 0
2, 440320, Note_off_c, 0, 46, 0
2, 440320, Note_on_c, 0, 73, 64
2, 440320, Note_on_c, 0, 77, 64
2, 440320, Note_on_c, 0, 70, 64
2, 440320, Note_on_c, 0, 46, 64
2, 440832, Note_off_c, 0, 46, 0
2, 440832, Note_on_c, 0, 46, 64
2, 441344, Note_off_c, 0, 73, 0
2, 441344, Note_off_c, 0, 77, 0
2, 441344, Note_on_c, 0, 75, 64
2, 441344, Note_on_c, 0, 79, 64
2, 441344, Note_off_c, 0, 46, 0
2, 441344, Note_on_c, 0, 53, 64
2, 441856, Note_off_c, 0, 53, 0
2, 441856, Note_on_c, 0, 52, 64
2, 442368, Note_off_c, 0, 75, 0
2, 442368, Note_off_c, 0, 79, 0
2, 442368, Note_on_c, 0, 77, 64
2, 442368, Note_on_c, 0, 80, 64
2, 442368, Note_off_c, 0, 70, 0
2, 442368, Note_off_c, 0, 52, 0
2, 442368, Note_on_c, 0, 51, 64
2, 442880, Note_off_c, 0, 51, 0
2, 442880, Note_on_c, 0, 51, 64
2, 443392, Note_off_c, 0, 77, 0
2, 443392, Note_off_c, 0, 80, 0
2, 443392, Note_on_c, 0, 79, 64
2, 443392, Note_on_c, 0, 82, 64
2, 443392, Note_off_c, 0, 51, 0
2, 443392, Note_on_c, 0, 46, 64
2, 443904, Note_off_c, 0, 46, 0
2, 443904, Note_on_c, 0, 45, 64
2, 444416, Note_off_c, 0, 79, 0
2, 444416, Note_off_c, 0, 82, 0
2, 444416, Note_off_c, 0, 45, 0
2, 444416, Note_on_c, 0, 72, 64
2, 444416, Note_on_c, 0, 75, 64
2, 444416, Note_on_c, 0, 44, 64
2, 444928, Note_off_c, 0, 44, 0
2, 444928, Note_on_c, 0, 44, 64
2, 445184, Note_off_c, 0, 72, 0
2, 445184, Note_off_c, 0, 75, 0
2, 445184, Note_on_c, 0, 72, 64
2, 445184, Note_on_c, 0, 75, 64
2, 445440, Note_off_c, 0, 44, 0
2, 445440, Note_on_c, 0, 44, 64
2, 445952, Note_off_c, 0, 72, 0
2, 445952, Note_off_c, 0, 75, 0
2, 445952, Note_on_c, 0, 70, 64
2, 445952, Note_on_c, 0, 74, 64
2, 445952, Note_off_c, 0, 44, 0
2, 445952, Note_on_c, 0, 44, 64
2, 446464, Note_off_c, 0, 70, 0
2, 446464, Note_off_c, 0, 74, 0
2, 446464, Note_on_c, 0, 72, 64
2, 446464, Note_on_c, 0, 75, 64
2, 446464, Note_off_c, 0, 44, 0
2, 446464, Note_on_c, 0, 44, 64
2, 446976, Note_off_c, 0, 44, 0
2, 446976, Note_on_c, 0, 44, 64
2, 447232, Note_off_c, 0, 72, 0
2, 447232, Note_off_c, 0, 75, 0
2, 447232, Note_on_c, 0, 72, 64
2, 447232, Note_on_c, 0, 75, 64
2, 447488, Note_off_c, 0, 44, 0
2, 447488, Note_on_c, 0, 44, 64
2, 448000, Note_off_c, 0, 72, 0
2, 448000, Note_off_c, 0, 75, 0
2, 448000, Note_on_c, 0, 70, 64
2, 448000, Note_on_c, 0, 74, 64
2, 448000, Note_off_c, 0, 44, 0
2, 448000, Note_on_c, 0, 44, 64
2, 448512, Note_off_c, 0, 70, 0
2, 448512, Note_off_c, 0, 74, 0
2, 448512, Note_off_c, 0, 44, 0
2, 448512, Note_on_c, 0, 74, 64
2, 448512, Note_on_c, 0, 77, 64
2, 448512, Note_on_c, 0, 43, 64
2, 449024, Note_off_c, 0, 43, 0
2, 449024, Note_on_c, 0, 43, 64
2, 449280, Note_off_c, 0, 74, 0
2, 449280, Note_off_c, 0, 77, 0
2, 449280, Note_on_c, 0, 74, 64
2, 449280, Note_on_c, 0, 77, 64
2, 449536, Note_off_c, 0, 43, 0
2, 449536, Note_on_c, 0, 43, 64
2, 450048, Note_off_c, 0, 74, 0
2, 450048, Note_off_c, 0, 77, 0
2, 450048, Note_on_c, 0, 72, 64
2, 450048, Note_on_c, 0, 75, 64
2, 450048, Note_off_c, 0, 43, 0
2, 450048, Note_on_c, 0, 43, 64
2, 450560, Note_off_c, 0, 72, 0
2, 450560, Note_off_c, 0, 75, 0
2, 450560, Note_on_c, 0, 70, 64
2, 450560, Note_on_c, 0, 74, 64
2, 450560, Note_off_c, 0, 43, 0
2, 450560, Note_on_c, 0, 48, 64
2, 451072, Note_off_c, 0, 48, 0
2, 451072, Note_on_c, 0, 48, 64
2, 451328, Note_off_c, 0, 70, 0
2, 451328, Note_off_c, 0, 74, 0
2, 451328, Note_on_c, 0, 72, 64
2, 451328, Note_on_c, 0, 75, 64
2, 451584, Note_off_c, 0, 48, 0
2, 451584, Note_on_c, 0, 48, 64
2, 452096, Note_off_c, 0, 72, 0
2, 452096, Note_off_c, 0, 75, 0
2, 452096, Note_on_c, 0, 74, 64
2, 452096, Note_on_c, 0, 77, 64
2, 452096, Note_off_c, 0, 48, 0
2, 452096, Note_on_c, 0, 48, 64
2, 452608, Note_off_c, 0, 74, 0
2, 452608, Note_off_c, 0, 77, 0
2, 452608, Note_off_c, 0, 48, 0
2, 452608, Note_on_c, 0, 72, 64
2, 452608, Note_on_c, 0, 74, 64
2, 452608, Note_on_c, 0, 79, 64
2, 452608, Note_on_c, 0, 50, 64
2, 453120, Note_off_c, 0, 50, 0
2, 453120, Note_on_c, 0, 50, 64
2, 453376, Note_off_c, 0, 72, 0
2, 453376, Note_off_c, 0, 74, 0
2, 453376, Note_off_c, 0, 79, 0
2, 453376, Note_on_c, 0, 72, 64
2, 453376, Note_on_c, 0, 74, 64
2, 453376, Note_on_c, 0, 80, 64
2, 453632, Note_off_c, 0, 50, 0
2, 453632, Note_on_c, 0, 50, 64
2, 454144, Note_off_c, 0, 72, 0
2, 454144, Note_off_c, 0, 74, 0
2, 454144, Note_off_c, 0, 80, 0
2, 454144, Note_on_c, 0, 72, 64
2, 454144, Note_on_c, 0, 74, 64
2, 454144, Note_on_c, 0, 79, 64
2, 454144, Note_off_c, 0, 50, 0
2, 454144, Note_on_c, 0, 50, 64
2, 454656, Note_off_c, 0, 72, 0
2, 454656, Note_off_c, 0, 74, 0
2, 454656, Note_off_c, 0, 79, 0
2, 454656, Note_on_c, 0, 72, 64
2, 454656, Note_on_c, 0, 74, 64
2, 454656, Note_on_c, 0, 77, 64
2, 454656, Note_off_c, 0, 50, 0
2, 454656, Note_on_c, 0, 50, 64
2, 455168, Note_off_c, 0, 50, 0
2, 455168, Note_on_c, 0, 50, 64
2, 455424, Note_off_c, 0, 72, 0
2, 455424, Note_off_c, 0, 74, 0
2, 455424, Note_off_c, 0, 77, 0
2, 455424, Note_on_c, 0, 72, 64
2, 455424, Note_on_c, 0, 75, 64
2, 455680, Note_off_c, 0, 50, 0
2, 455680, Note_on_c, 0, 50, 64
2, 456192, Note_off_c, 0, 72, 0
2, 456192, Note_off_c, 0, 75, 0
2, 456192, Note_on_c, 0, 72, 64
2, 456192, Note_on_c, 0, 74, 64
2, 456192, Note_on_c, 0, 77, 64
2, 456192, Note_off_c, 0, 50, 0
2, 456192, Note_on_c, 0, 50, 64
2, 456704, Note_off_c, 0, 72, 0
2, 456704, Note_off_c, 0, 74, 0
2, 456704, Note_off_c, 0, 77, 0
2, 456704, Note_off_c, 0, 50, 0
2, 456704, Note_on_c, 0, 69, 64
2, 456704, Note_on_c, 0, 72, 64
2, 456704, Note_on_c, 0, 77, 64
2, 456704, Note_on_c, 0, 79, 64
2, 456704, Note_on_c, 0, 43, 64
2, 458752, Note_off_c, 0, 69, 0
2, 458752, Note_off_c, 0, 72, 0
2, 458752, Note_off_c, 0, 77, 0
2, 458752, Note_off_c, 0, 79, 0
2, 458752, Note_on_c, 0, 71, 64
2, 458752, Note_on_c, 0, 74, 64
2, 458752, Note_on_c, 0, 79, 64
2, 458752, Note_off_c, 0, 43, 0
2, 458752, Note_on_c, 0, 43, 64
2, 459520, Note_off_c, 0, 71, 0
2, 459520, Note_off_c, 0, 74, 0
2, 459520, Note_off_c, 0, 79, 0
2, 459520, Note_on_c, 0, 72, 64
2, 459520, Note_on_c, 0, 77, 64
2, 459520, Note_on_c, 0, 81, 64
2, 459520, Note_off_c, 0, 43, 0
2, 459520, Note_on_c, 0, 43, 64
2, 460288, Note_off_c, 0, 72, 0
2, 460288, Note_off_c, 0, 77, 0
2, 460288, Note_off_c, 0, 81, 0
2, 460288, Note_on_c, 0, 74, 64
2, 460288, Note_on_c, 0, 79, 64
2, 460288, Note_on_c, 0, 83, 64
2, 460288, Note_off_c, 0, 43, 0
2, 460288, Note_on_c, 0, 43, 64
2, 460800, Note_off_c, 0, 74, 0
2, 460800, Note_off_c, 0, 79, 0
2, 460800, Note_off_c, 0, 83, 0
2, 460800, Note_off_c, 0, 43, 0
2, 460800, Note_on_c, 0, 72, 64
2, 460800, Note_on_c, 0, 48, 64
2, 461312, Note_off_c, 0, 48, 0
2, 461312, Note_on_c, 0, 48, 64
2, 461824, Note_off_c, 0, 72, 0
2, 461824, Note_on_c, 0, 67, 64
2, 461824, Note_on_c, 0, 72, 64
2, 461824, Note_on_c, 0, 75, 64
2, 461824, Note_off_c, 0, 48, 0
2, 461824, Note_on_c, 0, 48, 64
2, 462336, Note_off_c, 0, 48, 0
2, 462336, Note_on_c, 0, 51, 64
2, 462848, Note_off_c, 0, 67, 0
2, 462848, Note_off_c, 0, 72, 0
2, 462848, Note_off_c, 0, 75, 0
2, 462848, Note_on_c, 0, 77, 64
2, 462848, Note_on_c, 0, 68, 64
2, 462848, Note_on_c, 0, 72, 64
2, 462848, Note_off_c, 0, 51, 0
2, 462848, Note_on_c, 0, 53, 64
2, 463104, Note_off_c, 0, 53, 0
2, 463104, Note_on_c, 0, 53, 64
2, 463360, Note_off_c, 0, 53, 0
2, 463616, Note_off_c, 0, 77, 0
2, 463616, Note_on_c, 0, 75, 64
2, 463616, Note_on_c, 0, 53, 64
2, 464128, Note_off_c, 0, 53, 0
2, 464128, Note_on_c, 0, 53, 64
2, 464384, Note_off_c, 0, 75, 0
2, 464384, Note_on_c, 0, 77, 64
2, 464384, Note_off_c, 0, 53, 0
2, 464384, Note_on_c, 0, 48, 64
2, 464896, Note_off_c, 0, 77, 0
2, 464896, Note_off_c, 0, 68, 0
2, 464896, Note_off_c, 0, 72, 0
2, 464896, Note_off_c, 0, 48, 0
2, 464896, Note_on_c, 0, 77, 64
2, 464896, Note_on_c, 0, 46, 64
2, 465408, Note_off_c, 0, 77, 0
2, 465408, Note_on_c, 0, 77, 64
2, 465408, Note_off_c, 0, 46, 0
2, 465408, Note_on_c, 0, 46, 64
2, 465920, Note_off_c, 0, 77, 0
2, 465920, Note_on_c, 0, 82, 64
2, 465920, Note_off_c, 0, 46, 0
2, 465920, Note_on_c, 0, 46, 64
2, 466432, Note_off_c, 0, 82, 0
2, 466432, Note_on_c, 0, 80, 64
2, 466432, Note_off_c, 0, 46, 0
2, 466432, Note_on_c, 0, 50, 64
2, 466944, Note_off_c, 0, 80, 0
2, 466944, Note_on_c, 0, 79, 64
2, 466944, Note_off_c, 0, 50, 0
2, 466944, Note_on_c, 0, 51, 64
2, 467200, Note_off_c, 0, 79, 0
2, 467200, Note_on_c, 0, 77, 64
2, 467200, Note_off_c, 0, 51, 0
2, 467200, Note_on_c, 0, 51, 64
2, 467456, Note_off_c, 0, 51, 0
2, 467712, Note_off_c, 0, 77, 0
2, 467712, Note_on_c, 0, 79, 64
2, 467712, Note_on_c, 0, 51, 64
2, 467968, Note_off_c, 0, 51, 0
2, 467968, Note_on_c, 0, 51, 64
2, 468480, Note_off_c, 0, 51, 0
2, 468480, Note_on_c, 0, 50, 64
2, 468992, Note_off_c, 0, 79, 0
2, 468992, Note_off_c, 0, 50, 0
2, 468992, Note_on_c, 0, 75, 64
2, 468992, Note_on_c, 0, 79, 64
2, 468992, Note_on_c, 0, 48, 64
2, 469504, Note_off_c, 0, 48, 0
2, 469504, Note_on_c, 0, 48, 64
2, 470016, Note_off_c, 0, 75, 0
2, 470016, Note_off_c, 0, 79, 0
2, 470016, Note_on_c, 0, 75, 64
2, 470016, Note_on_c, 0, 79, 64
2, 470016, Note_on_c, 0, 82, 64
2, 470016, Note_off_c, 0, 48, 0
2, 470016, Note_on_c, 0, 48, 64
2, 470528, Note_off_c, 0, 48, 0
2, 470528, Note_on_c, 0, 51, 64
2, 471040, Note_off_c, 0, 75, 0
2, 471040, Note_off_c, 0, 79, 0
2, 471040, Note_off_c, 0, 82, 0
2, 471040, Note_on_c, 0, 75, 64
2, 471040, Note_on_c, 0, 80, 64
2, 471040, Note_on_c, 0, 84, 64
2, 471040, Note_off_c, 0, 51, 0
2, 471040, Note_on_c, 0, 53, 64
2, 471296, Note_off_c, 0, 53, 0
2, 471296, Note_on_c, 0, 53, 64
2, 471552, Note_off_c, 0, 53, 0
2, 471808, Note_off_c, 0, 75, 0
2, 471808, Note_off_c, 0, 80, 0
2, 471808, Note_off_c, 0, 84, 0
2, 471808, Note_on_c, 0, 77, 64
2, 471808, Note_on_c, 0, 53, 64
2, 472320, Note_off_c, 0, 53, 0
2, 472320, Note_on_c, 0, 53, 64
2, 472576, Note_off_c, 0, 77, 0
2, 472576, Note_on_c, 0, 75, 64
2, 472576, Note_off_c, 0, 53, 0
2, 472576, Note_on_c, 0, 48, 64
2, 473088, Note_off_c, 0, 75, 0
2, 473088, Note_off_c, 0, 48, 0
2, 473088, Note_on_c, 0, 74, 64
2, 473088, Note_on_c, 0, 46, 64
2, 473600, Note_off_c, 0, 74, 0
2, 473600, Note_on_c, 0, 74, 64
2, 473600, Note_off_c, 0, 46, 0
2, 473600, Note_on_c, 0, 46, 64
2, 474112, Note_off_c, 0, 74, 0
2, 474112, Note_on_c, 0, 72, 64
2, 474112, Note_off_c, 0, 46, 0
2, 474112, Note_on_c, 0, 46, 64
2, 474624, Note_off_c, 0, 72, 0
2, 474624, Note_on_c, 0, 74, 64
2, 474624, Note_off_c, 0, 46, 0
2, 474624, Note_on_c, 0, 50, 64
2, 475136, Note_off_c, 0, 74, 0
2, 475136, Note_on_c, 0, 77, 64
2, 475136, Note_off_c, 0, 50, 0
2, 475136, Note_on_c, 0, 51, 64
2, 475392, Note_off_c, 0, 77, 0
2, 475392, Note_on_c, 0, 75, 64
2, 475904, Note_off_c, 0, 75, 0
2, 475904, Note_on_c, 0, 75, 64
2, 476160, Note_off_c, 0, 51, 0
2, 476160, Note_on_c, 0, 50, 64
2, 477184, Note_off_c, 0, 75, 0
2, 477184, Note_off_c, 0, 50, 0
2, 477184, Note_on_c, 0, 72, 64
2, 477184, Note_on_c, 0, 48, 64
2, 477696, Note_off_c, 0, 48, 0
2, 477696, Note_on_c, 0, 48, 64
2, 478208, Note_off_c, 0, 72, 0
2, 478208, Note_on_c, 0, 67, 64
2, 478208, Note_on_c, 0, 72, 64
2, 478208, Note_on_c, 0, 75, 64
2, 478208, Note_off_c, 0, 48, 0
2, 478208, Note_on_c, 0, 48, 64
2, 478720, Note_off_c, 0, 48, 0
2, 478720, Note_on_c, 0, 51, 64
2, 479232, Note_off_c, 0, 67, 0
2, 479232, Note_off_c, 0, 72, 0
2, 479232, Note_off_c, 0, 75, 0
2, 479232, Note_on_c, 0, 77, 64
2, 479232, Note_on_c, 0, 68, 64
2, 479232, Note_on_c, 0, 72, 64
2, 479232, Note_off_c, 0, 51, 0
2, 479232, Note_on_c, 0, 53, 64
2, 479488, Note_off_c, 0, 53, 0
2, 479488, Note_on_c, 0, 53, 64
2, 479744, Note_off_c, 0, 53, 0
2, 480000, Note_off_c, 0, 77, 0
2, 480000, Note_on_c, 0, 75, 64
2, 480000, Note_on_c, 0, 53, 64
2, 480512, Note_off_c, 0, 53, 0
2, 480512, Note_on_c, 0, 53, 64
2, 480768, Note_off_c, 0, 75, 0
2, 480768, Note_on_c, 0, 77, 64
2, 480768, Note_off_c, 0, 53, 0
2, 480768, Note_on_c, 0, 48, 64
2, 481280, Note_off_c, 0, 77, 0
2, 481280, Note_off_c, 0, 68, 0
2, 481280, Note_off_c, 0, 72, 0
2, 481280, Note_off_c, 0, 48, 0
2, 481280, Note_on_c, 0, 77, 64
2, 481280, Note_on_c, 0, 46, 64
2, 481792, Note_off_c, 0, 77, 0
2, 481792, Note_on_c, 0, 77, 64
2, 481792, Note_off_c, 0, 46, 0
2, 481792, Note_on_c, 0, 46, 64
2, 482304, Note_off_c, 0, 77, 0
2, 482304, Note_on_c, 0, 82, 64
2, 482304, Note_off_c, 0, 46, 0
2, 482304, Note_on_c, 0, 46, 64
2, 482816, Note_off_c, 0, 82, 0
2, 482816, Note_on_c, 0, 80, 64
2, 482816, Note_off_c, 0, 46, 0
2, 482816, Note_on_c, 0, 50, 64
2, 483328, Note_off_c, 0, 80, 0
2, 483328, Note_on_c, 0, 79, 64
2, 483328, Note_off_c, 0, 50, 0
2, 483328, Note_on_c, 0, 51, 64
2, 483584, Note_off_c, 0, 79, 0
2, 483584, Note_on_c, 0, 77, 64
2, 483584, Note_off_c, 0, 51, 0
2, 483584, Note_on_c, 0, 51, 64
2, 483840, Note_off_c, 0, 51, 0
2, 484096, Note_off_c, 0, 77, 0
2, 484096, Note_on_c, 0, 79, 64
2, 484096, Note_on_c, 0, 51, 64
2, 484352, Note_off_c, 0, 51, 0
2, 484352, Note_on_c, 0, 51, 64
2, 484864, Note_off_c, 0, 51, 0
2, 484864, Note_on_c, 0, 50, 64
2, 485376, Note_off_c, 0, 79, 0
2, 485376, Note_off_c, 0, 50, 0
2, 485376, Note_on_c, 0, 75, 64
2, 485376, Note_on_c, 0, 79, 64
2, 485376, Note_on_c, 0, 48, 64
2, 485888, Note_off_c, 0, 48, 0
2, 485888, Note_on_c, 0, 48, 64
2, 486400, Note_off_c, 0, 75, 0
2, 486400, Note_off_c, 0, 79, 0
2, 486400, Note_on_c, 0, 75, 64
2, 486400, Note_on_c, 0, 79, 64
2, 486400, Note_on_c, 0, 82, 64
2, 486400, Note_off_c, 0, 48, 0
2, 486400, Note_on_c, 0, 48, 64
2, 486912, Note_off_c, 0, 48, 0
2, 486912, Note_on_c, 0, 51, 64
2, 487424, Note_off_c, 0, 75, 0
2, 487424, Note_off_c, 0, 79, 0
2, 487424, Note_off_c, 0, 82, 0
2, 487424, Note_on_c, 0, 75, 64
2, 487424, Note_on_c, 0, 80, 64
2, 487424, Note_on_c, 0, 84, 64
2, 487424, Note_off_c, 0, 51, 0
2, 487424, Note_on_c, 0, 53, 64
2, 487680, Note_off_c, 0, 53, 0
2, 487680, Note_on_c, 0, 53, 64
2, 487936, Note_off_c, 0, 53, 0
2, 488192, Note_off_c, 0, 75, 0
2, 488192, Note_off_c, 0, 80, 0
2, 488192, Note_off_c, 0, 84, 0
2, 488192, Note_on_c, 0, 77, 64
2, 488192, Note_on_c, 0, 53, 64
2, 488704, Note_off_c, 0, 53, 0
2, 488704, Note_on_c, 0, 53, 64
2, 488960, Note_off_c, 0, 77, 0
2, 488960, Note_on_c, 0, 75, 64
2, 488960, Note_off_c, 0, 53, 0
2, 488960, Note_on_c, 0, 48, 64
2, 489472, Note_off_c, 0, 75, 0
2, 489472, Note_off_c, 0, 48, 0
2, 489472, Note_on_c, 0, 74, 64
2, 489472, Note_on_c, 0, 77, 64
2, 489472, Note_on_c, 0, 82, 64
2, 489472, Note_on_c, 0, 46, 64
2, 489984, Note_off_c, 0, 74, 0
2, 489984, Note_off_c, 0, 77, 0
2, 489984, Note_off_c, 0, 82, 0
2, 489984, Note_on_c, 0, 74, 64
2, 489984, Note_on_c, 0, 77, 64
2, 489984, Note_on_c, 0, 82, 64
2, 489984, Note_off_c, 0, 46, 0
2, 489984, Note_on_c, 0, 46, 64
2, 490496, Note_off_c, 0, 74, 0
2, 490496, Note_off_c, 0, 77, 0
2, 490496, Note_off_c, 0, 82, 0
2, 490496, Note_on_c, 0, 74, 64
2, 490496, Note_on_c, 0, 77, 64
2, 490496, Note_on_c, 0, 79, 64
2, 490496, Note_off_c, 0, 46, 0
2, 490496, Note_on_c, 0, 46, 64
2, 491008, Note_off_c, 0, 74, 0
2, 491008, Note_off_c, 0, 77, 0
2, 491008, Note_off_c, 0, 79, 0
2, 491008, Note_on_c, 0, 74, 64
2, 491008, Note_on_c, 0, 77, 64
2, 491008, Note_on_c, 0, 82, 64
2, 491008, Note_off_c, 0, 46, 0
2, 491008, Note_on_c, 0, 47, 64
2, 491520, Note_off_c, 0, 74, 0
2, 491520, Note_off_c, 0, 77, 0
2, 491520, Note_off_c, 0, 82, 0
2, 491520, Note_on_c, 0, 74, 64
2, 491520, Note_on_c, 0, 77, 64
2, 491520, Note_on_c, 0, 82, 64
2, 491520, Note_off_c, 0, 47, 0
2, 491520, Note_on_c, 0, 48, 64
2, 491776, Note_off_c, 0, 48, 0
2, 491776, Note_on_c, 0, 48, 64
2, 492288, Note_off_c, 0, 74, 0
2, 492288, Note_off_c, 0, 77, 0
2, 492288, Note_off_c, 0, 82, 0
2, 492288, Note_on_c, 0, 75, 64
2, 492288, Note_on_c, 0, 79, 64
2, 492288, Note_on_c, 0, 84, 64
2, 492288, Note_off_c, 0, 48, 0
2, 492288, Note_on_c, 0, 48, 64
2, 492544, Note_off_c, 0, 48, 0
2, 492544, Note_on_c, 0, 46, 64
2, 493568, Note_off_c, 0, 75, 0
2, 493568, Note_off_c, 0, 79, 0
2, 493568, Note_off_c, 0, 84, 0
2, 493568, Note_off_c, 0, 46, 0
2, 493568, Note_on_c, 0, 72, 64
2, 493568, Note_on_c, 0, 48, 64
2, 494080, Note_off_c, 0, 48, 0
2, 494080, Note_on_c, 0, 48, 64
2, 494592, Note_off_c, 0, 72, 0
2, 494592, Note_on_c, 0, 67, 64
2, 494592, Note_on_c, 0, 72, 64
2, 494592, Note_on_c, 0, 75, 64
2, 494592, Note_off_c, 0, 48, 0
2, 494592, Note_on_c, 0, 48, 64
2, 495104, Note_off_c, 0, 48, 0
2, 495104, Note_on_c, 0, 51, 64
2, 495616, Note_off_c, 0, 67, 0
2, 495616, Note_off_c, 0, 72, 0
2, 495616, Note_off_c, 0, 75, 0
2, 495616, Note_on_c, 0, 77, 64
2, 495616, Note_on_c, 0, 68, 64
2, 495616, Note_on_c, 0, 72, 64
2, 495616, Note_off_c, 0, 51, 0
2, 495616, Note_on_c, 0, 53, 64
2, 495872, Note_off_c, 0, 53, 0
2, 495872, Note_on_c, 0, 53, 64
2, 496128, Note_off_c, 0, 53, 0
2, 496384, Note_off_c, 0, 77, 0
2, 496384, Note_on_c, 0, 75, 64
2, 496384, Note_on_c, 0, 53, 64
2, 496896, Note_off_c, 0, 53, 0
2, 496896, Note_on_c, 0, 53, 64
2, 497152, Note_off_c, 0, 75, 0
2, 497152, Note_on_c, 0, 77, 64
2, 497152, Note_off_c, 0, 53, 0
2, 497152, Note_on_c, 0, 48, 64
2, 497664, Note_off_c, 0, 77, 0
2, 497664, Note_off_c, 0, 68, 0
2, 497664, Note_off_c, 0, 72, 0
2, 497664, Note_off_c, 0, 48, 0
2, 497664, Note_on_c, 0, 77, 64
2, 497664, Note_on_c, 0, 46, 64
2, 498176, Note_off_c, 0, 77, 0
2, 498176, Note_on_c, 0, 77, 64
2, 498176, Note_off_c, 0, 46, 0
2, 498176, Note_on_c, 0, 46, 64
2, 498688, Note_off_c, 0, 77, 0
2, 498688, Note_on_c, 0, 82, 64
2, 498688, Note_off_c, 0, 46, 0
2, 498688, Note_on_c, 0, 46, 64
2, 499200, Note_off_c, 0, 82, 0
2, 499200, Note_on_c, 0, 80, 64
2, 499200, Note_off_c, 0, 46, 0
2, 499200, Note_on_c, 0, 50, 64
2, 499712, Note_off_c, 0, 80, 0
2, 499712, Note_on_c, 0, 79, 64
2, 499712, Note_off_c, 0, 50, 0
2, 499712, Note_on_c, 0, 51, 64
2, 499968, Note_off_c, 0, 79, 0
2, 499968, Note_on_c, 0, 77, 64
2, 499968, Note_off_c, 0, 51, 0
2, 499968, Note_on_c, 0, 51, 64
2, 500224, Note_off_c, 0, 51, 0
2, 500480, Note_off_c, 0, 77, 0
2, 500480, Note_on_c, 0, 79, 64
2, 500480, Note_on_c, 0, 51, 64
2, 500736, Note_off_c, 0, 51, 0
2, 500736, Note_on_c, 0, 51, 64
2, 501248, Note_off_c, 0, 51, 0
2, 501248, Note_on_c, 0, 50, 64
2, 501760, Note_off_c, 0, 79, 0
2, 501760, Note_off_c, 0, 50, 0
2, 501760, Note_on_c, 0, 75, 64
2, 501760, Note_on_c, 0, 79, 64
2, 501760, Note_on_c, 0, 48, 64
2, 502272, Note_off_c, 0, 48, 0
2, 502272, Note_on_c, 0, 48, 64
2, 502784, Note_off_c, 0, 75, 0
2, 502784, Note_off_c, 0, 79, 0
2, 502784, Note_on_c, 0, 75, 64
2, 502784, Note_on_c, 0, 79, 64
2, 502784, Note_on_c, 0, 82, 64
2, 502784, Note_off_c, 0, 48, 0
2, 502784, Note_on_c, 0, 48, 64
2, 503296, Note_off_c, 0, 48, 0
2, 503296, Note_on_c, 0, 51, 64
2, 503808, Note_off_c, 0, 75, 0
2, 503808, Note_off_c, 0, 79, 0
2, 503808, Note_off_c, 0, 82, 0
2, 503808, Note_on_c, 0, 75, 64
2, 503808, Note_on_c, 0, 80, 64
2, 503808, Note_on_c, 0, 84, 64
2, 503808, Note_off_c, 0, 51, 0
2, 503808, Note_on_c, 0, 53, 64
2, 504064, Note_off_c, 0, 53, 0
2, 504064, Note_on_c, 0, 53, 64
2, 504320, Note_off_c, 0, 53, 0
2, 504576, Note_off_c, 0, 75, 0
2, 504576, Note_off_c, 0, 80, 0
2, 504576, Note_off_c, 0, 84, 0
2, 504576, Note_on_c, 0, 77, 64
2, 504576, Note_on_c, 0, 53, 64
2, 505088, Note_off_c, 0, 53, 0
2, 505088, Note_on_c, 0, 53, 64
2, 505344, Note_off_c, 0, 77, 0
2, 505344, Note_on_c, 0, 75, 64
2, 505344, Note_off_c, 0, 53, 0
2, 505344, Note_on_c, 0, 48, 64
2, 505856, Note_off_c, 0, 75, 0
2, 505856, Note_off_c, 0, 48, 0
2, 505856, Note_on_c, 0, 74, 64
2, 505856, Note_on_c, 0, 77, 64
2, 505856, Note_on_c, 0, 82, 64
2, 505856, Note_on_c, 0, 46, 64
2, 506368, Note_off_c, 0, 74, 0
2, 506368, Note_off_c, 0, 77, 0
2, 506368, Note_off_c, 0, 82, 0
2, 506368, Note_on_c, 0, 74, 64
2, 506368, Note_on_c, 0, 77, 64
2, 506368, Note_on_c, 0, 82, 64
2, 506368, Note_off_c, 0, 46, 0
2, 506368, Note_on_c, 0, 46, 64
2, 506880, Note_off_c, 0, 74, 0
2, 506880, Note_off_c, 0, 77, 0
2, 506880, Note_off_c, 0, 82, 0
2, 506880, Note_on_c, 0, 74, 64
2, 506880, Note_on_c, 0, 77, 64
2, 506880, Note_on_c, 0, 79, 64
2, 506880, Note_off_c, 0, 46, 0
2, 506880, Note_on_c, 0, 43, 64
2, 507392, Note_off_c, 0, 74, 0
2, 507392, Note_off_c, 0, 77, 0
2, 507392, Note_off_c, 0, 79, 0
2, 507392, Note_on_c, 0, 74, 64
2, 507392, Note_on_c, 0, 77, 64
2, 507392, Note_on_c, 0, 82, 64
2, 507392, Note_off_c, 0, 43, 0
2, 507392, Note_on_c, 0, 46, 64
2, 507904, Note_off_c, 0, 74, 0
2, 507904, Note_off_c, 0, 77, 0
2, 507904, Note_off_c, 0, 82, 0
2, 507904, Note_on_c, 0, 74, 64
2, 507904, Note_on_c, 0, 77, 64
2, 507904, Note_on_c, 0, 82, 64
2, 507904, Note_off_c, 0, 46, 0
2, 507904, Note_on_c, 0, 46, 64
2, 508672, Note_off_c, 0, 74, 0
2, 508672, Note_off_c, 0, 77, 0
2, 508672, Note_off_c, 0, 82, 0
2, 508672, Note_on_c, 0, 75, 64
2, 508672, Note_on_c, 0, 79, 64
2, 508672, Note_on_c, 0, 84, 64
2, 508672, Note_off_c, 0, 46, 0
2, 508672, Note_on_c, 0, 48, 64
2, 509952, Note_off_c, 0, 75, 0
2, 509952, Note_off_c, 0, 79, 0
2, 509952, Note_off_c, 0, 84, 0
2, 509952, Note_off_c, 0, 48, 0
2, 509952, End_track
0, 0, End_of_file
