0, 0, Header, 1, 2, 384
1, 0, Start_track
1, 0, Time_signature, 4, 2, 24, 8
1, 0, Tempo, 327868
1, 0, End_track
2, 0, Start_track
2, 0, Title_t, "Secret Piano"
2, 0, Program_c, 0, 0
2, 0, Note_on_c, 0, 52, 50
2, 192, Note_off_c, 0, 52, 0
2, 192, Note_on_c, 0, 54, 50
2, 384, Note_off_c, 0, 54, 0
2, 384, Note_on_c, 0, 55, 50
2, 576, Note_off_c, 0, 55, 0
2, 576, Note_on_c, 0, 52, 50
2, 768, Note_off_c, 0, 52, 0
2, 768, Note_on_c, 0, 54, 50
2, 960, Note_off_c, 0, 54, 0
2, 960, Note_on_c, 0, 55, 50
2, 1152, Note_off_c, 0, 55, 0
2, 1152, Note_on_c, 0, 57, 50
2, 1344, Note_off_c, 0, 57, 0
2, 1344, Note_on_c, 0, 54, 50
2, 1536, Note_off_c, 0, 54, 0
2, 1536, Note_on_c, 0, 55, 50
2, 1728, Note_off_c, 0, 55, 0
2, 1728, Note_on_c, 0, 57, 50
2, 1920, Note_off_c, 0, 57, 0
2, 1920, Note_on_c, 0, 59, 50
2, 2112, Note_off_c, 0, 59, 0
2, 2112, Note_on_c, 0, 55, 50
2, 2304, Note_off_c, 0, 55, 0
2, 2304, Note_on_c, 0, 57, 50
2, 2496, Note_off_c, 0, 57, 0
2, 2496, Note_on_c, 0, 55, 50
2, 2688, Note_off_c, 0, 55, 0
2, 2688, Note_on_c, 0, 54, 50
2, 2880, Note_off_c, 0, 54, 0
2, 2880, Note_on_c, 0, 50, 50
2, 3072, Note_off_c, 0, 50, 0
2, 3072, Note_on_c, 0, 52, 50
2, 3264, Note_off_c, 0, 52, 0
2, 3264, Note_on_c, 0, 54, 50
2, 3456, Note_off_c, 0, 54, 0
2, 3456, Note_on_c, 0, 55, 50
2, 3648, Note_off_c, 0, 55, 0
2, 3648, Note_on_c, 0, 52, 50
2, 3840, Note_off_c, 0, 52, 0
2, 3840, Note_on_c, 0, 54, 50
2, 4032, Note_off_c, 0, 54, 0
2, 4032, Note_on_c, 0, 55, 50
2, 4224, Note_off_c, 0, 55, 0
2, 4224, Note_on_c, 0, 57, 50
2, 4416, Note_off_c, 0, 57, 0
2, 4416, Note_on_c, 0, 54, 50
2, 4608, Note_off_c, 0, 54, 0
2, 4608, Note_on_c, 0, 55, 50
2, 4800, Note_off_c, 0, 55, 0
2, 4800, Note_on_c, 0, 57, 50
2, 4992, Note_off_c, 0, 57, 0
2, 4992, Note_on_c, 0, 59, 50
2, 5184, Note_off_c, 0, 59, 0
2, 5184, Note_on_c, 0, 55, 50
2, 5376, Note_off_c, 0, 55, 0
2, 5376, Note_on_c, 0, 57, 50
2, 5568, Note_off_c, 0, 57, 0
2, 5568, Note_on_c, 0, 55, 50
2, 5760, Note_off_c, 0, 55, 0
2, 5760, Note_on_c, 0, 54, 50
2, 5952, Note_off_c, 0, 54, 0
2, 5952, Note_on_c, 0, 50, 50
2, 6144, Note_off_c, 0, 50, 0
2, 6144, Note_on_c, 0, 64, 50
2, 6144, Note_on_c, 0, 52, 50
2, 6144, Note_on_c, 0, 71, 50
2, 6336, Note_off_c, 0, 52, 0
2, 6336, Note_on_c, 0, 54, 50
2, 6528, Note_off_c, 0, 54, 0
2, 6528, Note_on_c, 0, 55, 50
2, 6720, Note_off_c, 0, 55, 0
2, 6720, Note_on_c, 0, 52, 50
2, 6912, Note_off_c, 0, 52, 0
2, 6912, Note_on_c, 0, 54, 50
2, 7104, Note_off_c, 0, 54, 0
2, 7104, Note_on_c, 0, 55, 50
2, 7296, Note_off_c, 0, 55, 0
2, 7296, Note_on_c, 0, 57, 50
2, 7488, Note_off_c, 0, 57, 0
2, 7488, Note_on_c, 0, 54, 50
2, 7680, Note_off_c, 0, 54, 0
2, 7680, Note_on_c, 0, 55, 50
2, 7872, Note_off_c, 0, 55, 0
2, 7872, Note_on_c, 0, 57, 50
2, 8064, Note_off_c, 0, 57, 0
2, 8064, Note_on_c, 0, 59, 50
2, 8256, Note_off_c, 0, 59, 0
2, 8256, Note_on_c, 0, 55, 50
2, 8448, Note_off_c, 0, 55, 0
2, 8448, Note_on_c, 0, 57, 50
2, 8640, Note_off_c, 0, 57, 0
2, 8640, Note_on_c, 0, 55, 50
2, 8832, Note_off_c, 0, 55, 0
2, 8832, Note_on_c, 0, 54, 50
2, 9024, Note_off_c, 0, 54, 0
2, 9024, Note_on_c, 0, 50, 50
2, 9216, Note_off_c, 0, 50, 0
2, 9216, Note_off_c, 0, 71, 0
2, 9216, Note_off_c, 0, 64, 0
2, 9216, Note_on_c, 0, 72, 50
2, 9216, Note_on_c, 0, 52, 50
2, 9216, Note_on_c, 0, 64, 50
2, 9408, Note_off_c, 0, 52, 0
2, 9408, Note_on_c, 0, 54, 50
2, 9600, Note_off_c, 0, 54, 0
2, 9600, Note_on_c, 0, 55, 50
2, 9792, Note_off_c, 0, 55, 0
2, 9792, Note_on_c, 0, 52, 50
2, 9984, Note_off_c, 0, 52, 0
2, 9984, Note_on_c, 0, 54, 50
2, 10176, Note_off_c, 0, 54, 0
2, 10176, Note_on_c, 0, 55, 50
2, 10368, Note_off_c, 0, 55, 0
2, 10368, Note_on_c, 0, 57, 50
2, 10560, Note_off_c, 0, 57, 0
2, 10560, Note_on_c, 0, 54, 50
2, 10752, Note_off_c, 0, 54, 0
2, 10752, Note_on_c, 0, 55, 50
2, 10944, Note_off_c, 0, 55, 0
2, 10944, Note_on_c, 0, 57, 50
2, 11136, Note_off_c, 0, 57, 0
2, 11136, Note_on_c, 0, 59, 50
2, 11328, Note_off_c, 0, 59, 0
2, 11328, Note_on_c, 0, 55, 50
2, 11520, Note_off_c, 0, 55, 0
2, 11520, Note_on_c, 0, 57, 50
2, 11712, Note_off_c, 0, 57, 0
2, 11712, Note_on_c, 0, 55, 50
2, 11904, Note_off_c, 0, 55, 0
2, 11904, Note_on_c, 0, 54, 50
2, 12096, Note_off_c, 0, 54, 0
2, 12096, Note_on_c, 0, 50, 50
2, 12288, Note_off_c, 0, 64, 0
2, 12288, Note_off_c, 0, 72, 0
2, 12288, Note_off_c, 0, 50, 0
2, 12288, Note_on_c, 0, 71, 50
2, 12288, Note_on_c, 0, 64, 50
2, 12288, Note_on_c, 0, 52, 50
2, 12288, Note_on_c, 0, 55, 50
2, 12480, Note_off_c, 0, 55, 0
2, 12480, Note_off_c, 0, 52, 0
2, 12480, Note_on_c, 0, 57, 50
2, 12480, Note_on_c, 0, 54, 50
2, 12672, Note_off_c, 0, 54, 0
2, 12672, Note_off_c, 0, 57, 0
2, 12672, Note_on_c, 0, 55, 50
2, 12672, Note_on_c, 0, 59, 50
2, 12864, Note_off_c, 0, 59, 0
2, 12864, Note_off_c, 0, 55, 0
2, 12864, Note_on_c, 0, 52, 50
2, 12864, Note_on_c, 0, 55, 50
2, 13056, Note_off_c, 0, 55, 0
2, 13056, Note_off_c, 0, 52, 0
2, 13056, Note_on_c, 0, 54, 50
2, 13056, Note_on_c, 0, 57, 50
2, 13248, Note_off_c, 0, 57, 0
2, 13248, Note_off_c, 0, 54, 0
2, 13248, Note_on_c, 0, 55, 50
2, 13248, Note_on_c, 0, 59, 50
2, 13440, Note_off_c, 0, 59, 0
2, 13440, Note_off_c, 0, 55, 0
2, 13440, Note_on_c, 0, 57, 50
2, 13440, Note_on_c, 0, 60, 50
2, 13632, Note_off_c, 0, 60, 0
2, 13632, Note_off_c, 0, 57, 0
2, 13632, Note_on_c, 0, 54, 50
2, 13632, Note_on_c, 0, 57, 50
2, 13824, Note_off_c, 0, 54, 0
2, 13824, Note_off_c, 0, 57, 0
2, 13824, Note_on_c, 0, 55, 50
2, 13824, Note_on_c, 0, 59, 50
2, 14016, Note_off_c, 0, 59, 0
2, 14016, Note_off_c, 0, 55, 0
2, 14016, Note_on_c, 0, 57, 50
2, 14016, Note_on_c, 0, 60, 50
2, 14208, Note_off_c, 0, 60, 0
2, 14208, Note_off_c, 0, 57, 0
2, 14208, Note_on_c, 0, 62, 50
2, 14208, Note_on_c, 0, 59, 50
2, 14400, Note_off_c, 0, 59, 0
2, 14400, Note_off_c, 0, 62, 0
2, 14400, Note_on_c, 0, 55, 50
2, 14400, Note_on_c, 0, 59, 50
2, 14592, Note_off_c, 0, 59, 0
2, 14592, Note_off_c, 0, 55, 0
2, 14592, Note_on_c, 0, 57, 50
2, 14592, Note_on_c, 0, 60, 50
2, 14784, Note_off_c, 0, 60, 0
2, 14784, Note_off_c, 0, 57, 0
2, 14784, Note_on_c, 0, 55, 50
2, 14784, Note_on_c, 0, 59, 50
2, 14976, Note_off_c, 0, 59, 0
2, 14976, Note_off_c, 0, 55, 0
2, 14976, Note_on_c, 0, 54, 50
2, 14976, Note_on_c, 0, 57, 50
2, 15168, Note_off_c, 0, 54, 0
2, 15168, Note_off_c, 0, 57, 0
2, 15168, Note_on_c, 0, 50, 50
2, 15168, Note_on_c, 0, 54, 50
2, 15360, Note_off_c, 0, 64, 0
2, 15360, Note_off_c, 0, 54, 0
2, 15360, Note_off_c, 0, 71, 0
2, 15360, Note_off_c, 0, 50, 0
2, 15360, Note_on_c, 0, 64, 50
2, 15360, Note_on_c, 0, 55, 50
2, 15360, Note_on_c, 0, 52, 50
2, 15360, Note_on_c, 0, 72, 50
2, 15552, Note_off_c, 0, 52, 0
2, 15552, Note_off_c, 0, 55, 0
2, 15552, Note_on_c, 0, 57, 50
2, 15552, Note_on_c, 0, 54, 50
2, 15744, Note_off_c, 0, 54, 0
2, 15744, Note_off_c, 0, 57, 0
2, 15744, Note_on_c, 0, 55, 50
2, 15744, Note_on_c, 0, 59, 50
2, 15936, Note_off_c, 0, 59, 0
2, 15936, Note_off_c, 0, 55, 0
2, 15936, Note_on_c, 0, 52, 50
2, 15936, Note_on_c, 0, 55, 50
2, 16128, Note_off_c, 0, 55, 0
2, 16128, Note_off_c, 0, 52, 0
2, 16128, Note_on_c, 0, 54, 50
2, 16128, Note_on_c, 0, 57, 50
2, 16320, Note_off_c, 0, 54, 0
2, 16320, Note_off_c, 0, 57, 0
2, 16320, Note_on_c, 0, 55, 50
2, 16320, Note_on_c, 0, 59, 50
2, 16512, Note_off_c, 0, 59, 0
2, 16512, Note_off_c, 0, 55, 0
2, 16512, Note_on_c, 0, 60, 50
2, 16512, Note_on_c, 0, 57, 50
2, 16704, Note_off_c, 0, 57, 0
2, 16704, Note_off_c, 0, 60, 0
2, 16704, Note_on_c, 0, 57, 50
2, 16704, Note_on_c, 0, 54, 50
2, 16896, Note_off_c, 0, 54, 0
2, 16896, Note_off_c, 0, 57, 0
2, 16896, Note_on_c, 0, 59, 50
2, 16896, Note_on_c, 0, 55, 50
2, 17088, Note_off_c, 0, 55, 0
2, 17088, Note_off_c, 0, 59, 0
2, 17088, Note_on_c, 0, 57, 50
2, 17088, Note_on_c, 0, 60, 50
2, 17280, Note_off_c, 0, 60, 0
2, 17280, Note_off_c, 0, 57, 0
2, 17280, Note_on_c, 0, 62, 50
2, 17280, Note_on_c, 0, 59, 50
2, 17472, Note_off_c, 0, 59, 0
2, 17472, Note_off_c, 0, 62, 0
2, 17472, Note_on_c, 0, 59, 50
2, 17472, Note_on_c, 0, 55, 50
2, 17664, Note_off_c, 0, 59, 0
2, 17664, Note_off_c, 0, 55, 0
2, 17664, Note_on_c, 0, 60, 50
2, 17664, Note_on_c, 0, 57, 50
2, 17856, Note_off_c, 0, 57, 0
2, 17856, Note_off_c, 0, 60, 0
2, 17856, Note_on_c, 0, 59, 50
2, 17856, Note_on_c, 0, 55, 50
2, 18048, Note_off_c, 0, 59, 0
2, 18048, Note_off_c, 0, 55, 0
2, 18048, Note_on_c, 0, 57, 50
2, 18048, Note_on_c, 0, 54, 50
2, 18240, Note_off_c, 0, 54, 0
2, 18240, Note_off_c, 0, 57, 0
2, 18240, Note_on_c, 0, 50, 50
2, 18240, Note_on_c, 0, 54, 50
2, 18432, Note_off_c, 0, 54, 0
2, 18432, Note_off_c, 0, 72, 0
2, 18432, Note_off_c, 0, 50, 0
2, 18432, Note_off_c, 0, 64, 0
2, 18432, Note_on_c, 0, 71, 50
2, 18432, Note_on_c, 0, 52, 50
2, 18432, Note_on_c, 0, 55, 50
2, 18432, Note_on_c, 0, 64, 50
2, 18624, Note_off_c, 0, 55, 0
2, 18624, Note_off_c, 0, 52, 0
2, 18624, Note_on_c, 0, 54, 50
2, 18624, Note_on_c, 0, 57, 50
2, 18816, Note_off_c, 0, 64, 0
2, 18816, Note_off_c, 0, 57, 0
2, 18816, Note_off_c, 0, 71, 0
2, 18816, Note_off_c, 0, 54, 0
2, 18816, Note_on_c, 0, 55, 50
2, 18816, Note_on_c, 0, 59, 50
2, 18816, Note_on_c, 0, 76, 50
2, 19008, Note_off_c, 0, 76, 0
2, 19008, Note_off_c, 0, 59, 0
2, 19008, Note_off_c, 0, 55, 0
2, 19008, Note_on_c, 0, 52, 50
2, 19008, Note_on_c, 0, 55, 50
2, 19200, Note_off_c, 0, 55, 0
2, 19200, Note_off_c, 0, 52, 0
2, 19200, Note_on_c, 0, 76, 50
2, 19200, Note_on_c, 0, 54, 50
2, 19200, Note_on_c, 0, 57, 50
2, 19392, Note_off_c, 0, 57, 0
2, 19392, Note_off_c, 0, 54, 0
2, 19392, Note_on_c, 0, 55, 50
2, 19392, Note_on_c, 0, 59, 50
2, 19584, Note_off_c, 0, 76, 0
2, 19584, Note_off_c, 0, 59, 0
2, 19584, Note_off_c, 0, 55, 0
2, 19584, Note_on_c, 0, 57, 50
2, 19584, Note_on_c, 0, 60, 50
2, 19776, Note_off_c, 0, 60, 0
2, 19776, Note_off_c, 0, 57, 0
2, 19776, Note_on_c, 0, 76, 50
2, 19776, Note_on_c, 0, 54, 50
2, 19776, Note_on_c, 0, 57, 50
2, 19968, Note_off_c, 0, 57, 0
2, 19968, Note_off_c, 0, 54, 0
2, 19968, Note_off_c, 0, 76, 0
2, 19968, Note_on_c, 0, 76, 50
2, 19968, Note_on_c, 0, 59, 50
2, 19968, Note_on_c, 0, 55, 50
2, 20160, Note_off_c, 0, 55, 0
2, 20160, Note_off_c, 0, 59, 0
2, 20160, Note_on_c, 0, 60, 50
2, 20160, Note_on_c, 0, 57, 50
2, 20352, Note_off_c, 0, 76, 0
2, 20352, Note_off_c, 0, 60, 0
2, 20352, Note_off_c, 0, 57, 0
2, 20352, Note_on_c, 0, 59, 50
2, 20352, Note_on_c, 0, 62, 50
2, 20544, Note_off_c, 0, 62, 0
2, 20544, Note_off_c, 0, 59, 0
2, 20544, Note_on_c, 0, 74, 50
2, 20544, Note_on_c, 0, 59, 50
2, 20544, Note_on_c, 0, 55, 50
2, 20736, Note_off_c, 0, 55, 0
2, 20736, Note_off_c, 0, 59, 0
2, 20736, Note_on_c, 0, 60, 50
2, 20736, Note_on_c, 0, 57, 50
2, 20928, Note_off_c, 0, 60, 0
2, 20928, Note_off_c, 0, 57, 0
2, 20928, Note_off_c, 0, 74, 0
2, 20928, Note_on_c, 0, 55, 50
2, 20928, Note_on_c, 0, 59, 50
2, 21120, Note_off_c, 0, 59, 0
2, 21120, Note_off_c, 0, 55, 0
2, 21120, Note_on_c, 0, 54, 50
2, 21120, Note_on_c, 0, 57, 50
2, 21120, Note_on_c, 0, 76, 50
2, 21312, Note_off_c, 0, 76, 0
2, 21312, Note_off_c, 0, 54, 0
2, 21312, Note_off_c, 0, 57, 0
2, 21312, Note_on_c, 0, 54, 50
2, 21312, Note_on_c, 0, 50, 50
2, 21504, Note_off_c, 0, 54, 0
2, 21504, Note_off_c, 0, 50, 0
2, 21504, Note_on_c, 0, 64, 50
2, 21504, Note_on_c, 0, 72, 50
2, 21504, Note_on_c, 0, 52, 50
2, 21504, Note_on_c, 0, 55, 50
2, 21696, Note_off_c, 0, 55, 0
2, 21696, Note_off_c, 0, 52, 0
2, 21696, Note_on_c, 0, 54, 50
2, 21696, Note_on_c, 0, 57, 50
2, 21888, Note_off_c, 0, 57, 0
2, 21888, Note_off_c, 0, 64, 0
2, 21888, Note_off_c, 0, 54, 0
2, 21888, Note_off_c, 0, 72, 0
2, 21888, Note_on_c, 0, 76, 50
2, 21888, Note_on_c, 0, 59, 50
2, 21888, Note_on_c, 0, 55, 50
2, 22080, Note_off_c, 0, 55, 0
2, 22080, Note_off_c, 0, 59, 0
2, 22080, Note_off_c, 0, 76, 0
2, 22080, Note_on_c, 0, 55, 50
2, 22080, Note_on_c, 0, 52, 50
2, 22272, Note_off_c, 0, 55, 0
2, 22272, Note_off_c, 0, 52, 0
2, 22272, Note_on_c, 0, 54, 50
2, 22272, Note_on_c, 0, 76, 50
2, 22272, Note_on_c, 0, 57, 50
2, 22464, Note_off_c, 0, 57, 0
2, 22464, Note_off_c, 0, 54, 0
2, 22464, Note_on_c, 0, 55, 50
2, 22464, Note_on_c, 0, 59, 50
2, 22656, Note_off_c, 0, 76, 0
2, 22656, Note_off_c, 0, 59, 0
2, 22656, Note_off_c, 0, 55, 0
2, 22656, Note_on_c, 0, 60, 50
2, 22656, Note_on_c, 0, 57, 50
2, 22848, Note_off_c, 0, 57, 0
2, 22848, Note_off_c, 0, 60, 0
2, 22848, Note_on_c, 0, 83, 50
2, 22848, Note_on_c, 0, 54, 50
2, 22848, Note_on_c, 0, 57, 50
2, 23040, Note_off_c, 0, 57, 0
2, 23040, Note_off_c, 0, 54, 0
2, 23040, Note_off_c, 0, 83, 0
2, 23040, Note_on_c, 0, 59, 50
2, 23040, Note_on_c, 0, 55, 50
2, 23040, Note_on_c, 0, 81, 50
2, 23232, Note_off_c, 0, 55, 0
2, 23232, Note_off_c, 0, 59, 0
2, 23232, Note_on_c, 0, 60, 50
2, 23232, Note_on_c, 0, 57, 50
2, 23424, Note_off_c, 0, 81, 0
2, 23424, Note_off_c, 0, 57, 0
2, 23424, Note_off_c, 0, 60, 0
2, 23424, Note_on_c, 0, 62, 50
2, 23424, Note_on_c, 0, 59, 50
2, 23616, Note_off_c, 0, 59, 0
2, 23616, Note_off_c, 0, 62, 0
2, 23616, Note_on_c, 0, 79, 50
2, 23616, Note_on_c, 0, 55, 50
2, 23616, Note_on_c, 0, 59, 50
2, 23808, Note_off_c, 0, 55, 0
2, 23808, Note_off_c, 0, 59, 0
2, 23808, Note_on_c, 0, 57, 50
2, 23808, Note_on_c, 0, 60, 50
2, 24000, Note_off_c, 0, 79, 0
2, 24000, Note_off_c, 0, 60, 0
2, 24000, Note_off_c, 0, 57, 0
2, 24000, Note_on_c, 0, 55, 50
2, 24000, Note_on_c, 0, 59, 50
2, 24192, Note_off_c, 0, 59, 0
2, 24192, Note_off_c, 0, 55, 0
2, 24192, Note_on_c, 0, 57, 50
2, 24192, Note_on_c, 0, 54, 50
2, 24192, Note_on_c, 0, 78, 50
2, 24384, Note_off_c, 0, 78, 0
2, 24384, Note_off_c, 0, 57, 0
2, 24384, Note_off_c, 0, 54, 0
2, 24384, Note_on_c, 0, 54, 50
2, 24384, Note_on_c, 0, 50, 50
2, 24384, Note_on_c, 0, 74, 50
2, 24576, Note_off_c, 0, 74, 0
2, 24576, Note_off_c, 0, 50, 0
2, 24576, Note_off_c, 0, 54, 0
2, 24576, Note_on_c, 0, 55, 50
2, 24576, Note_on_c, 0, 52, 50
2, 24576, Note_on_c, 0, 64, 50
2, 24576, Note_on_c, 0, 71, 50
2, 24768, Note_off_c, 0, 52, 0
2, 24768, Note_off_c, 0, 55, 0
2, 24768, Note_on_c, 0, 54, 50
2, 24768, Note_on_c, 0, 57, 50
2, 24960, Note_off_c, 0, 64, 0
2, 24960, Note_off_c, 0, 71, 0
2, 24960, Note_off_c, 0, 57, 0
2, 24960, Note_off_c, 0, 54, 0
2, 24960, Note_on_c, 0, 76, 50
2, 24960, Note_on_c, 0, 59, 50
2, 24960, Note_on_c, 0, 55, 50
2, 25152, Note_off_c, 0, 55, 0
2, 25152, Note_off_c, 0, 59, 0
2, 25152, Note_off_c, 0, 76, 0
2, 25152, Note_on_c, 0, 55, 50
2, 25152, Note_on_c, 0, 52, 50
2, 25344, Note_off_c, 0, 55, 0
2, 25344, Note_off_c, 0, 52, 0
2, 25344, Note_on_c, 0, 76, 50
2, 25344, Note_on_c, 0, 54, 50
2, 25344, Note_on_c, 0, 57, 50
2, 25536, Note_off_c, 0, 57, 0
2, 25536, Note_off_c, 0, 54, 0
2, 25536, Note_on_c, 0, 59, 50
2, 25536, Note_on_c, 0, 55, 50
2, 25728, Note_off_c, 0, 55, 0
2, 25728, Note_off_c, 0, 59, 0
2, 25728, Note_off_c, 0, 76, 0
2, 25728, Note_on_c, 0, 57, 50
2, 25728, Note_on_c, 0, 60, 50
2, 25920, Note_off_c, 0, 60, 0
2, 25920, Note_off_c, 0, 57, 0
2, 25920, Note_on_c, 0, 57, 50
2, 25920, Note_on_c, 0, 54, 50
2, 25920, Note_on_c, 0, 76, 50
2, 26112, Note_off_c, 0, 76, 0
2, 26112, Note_off_c, 0, 54, 0
2, 26112, Note_off_c, 0, 57, 0
2, 26112, Note_on_c, 0, 76, 50
2, 26112, Note_on_c, 0, 55, 50
2, 26112, Note_on_c, 0, 59, 50
2, 26304, Note_off_c, 0, 55, 0
2, 26304, Note_off_c, 0, 59, 0
2, 26304, Note_on_c, 0, 60, 50
2, 26304, Note_on_c, 0, 57, 50
2, 26496, Note_off_c, 0, 57, 0
2, 26496, Note_off_c, 0, 76, 0
2, 26496, Note_off_c, 0, 60, 0
2, 26496, Note_on_c, 0, 59, 50
2, 26496, Note_on_c, 0, 62, 50
2, 26688, Note_off_c, 0, 62, 0
2, 26688, Note_off_c, 0, 59, 0
2, 26688, Note_on_c, 0, 74, 50
2, 26688, Note_on_c, 0, 55, 50
2, 26688, Note_on_c, 0, 59, 50
2, 26880, Note_off_c, 0, 55, 0
2, 26880, Note_off_c, 0, 59, 0
2, 26880, Note_on_c, 0, 60, 50
2, 26880, Note_on_c, 0, 57, 50
2, 27072, Note_off_c, 0, 74, 0
2, 27072, Note_off_c, 0, 57, 0
2, 27072, Note_off_c, 0, 60, 0
2, 27072, Note_on_c, 0, 55, 50
2, 27072, Note_on_c, 0, 59, 50
2, 27264, Note_off_c, 0, 59, 0
2, 27264, Note_off_c, 0, 55, 0
2, 27264, Note_on_c, 0, 76, 50
2, 27264, Note_on_c, 0, 57, 50
2, 27264, Note_on_c, 0, 54, 50
2, 27456, Note_off_c, 0, 54, 0
2, 27456, Note_off_c, 0, 57, 0
2, 27456, Note_off_c, 0, 76, 0
2, 27456, Note_on_c, 0, 50, 50
2, 27456, Note_on_c, 0, 54, 50
2, 27648, Note_off_c, 0, 54, 0
2, 27648, Note_off_c, 0, 50, 0
2, 27648, Note_on_c, 0, 72, 50
2, 27648, Note_on_c, 0, 55, 50
2, 27648, Note_on_c, 0, 52, 50
2, 27648, Note_on_c, 0, 64, 50
2, 27840, Note_off_c, 0, 52, 0
2, 27840, Note_off_c, 0, 55, 0
2, 27840, Note_on_c, 0, 54, 50
2, 27840, Note_on_c, 0, 57, 50
2, 28032, Note_off_c, 0, 57, 0
2, 28032, Note_off_c, 0, 64, 0
2, 28032, Note_off_c, 0, 54, 0
2, 28032, Note_off_c, 0, 72, 0
2, 28032, Note_on_c, 0, 55, 50
2, 28032, Note_on_c, 0, 59, 50
2, 28032, Note_on_c, 0, 76, 50
2, 28224, Note_off_c, 0, 76, 0
2, 28224, Note_off_c, 0, 55, 0
2, 28224, Note_off_c, 0, 59, 0
2, 28224, Note_on_c, 0, 52, 50
2, 28224, Note_on_c, 0, 55, 50
2, 28416, Note_off_c, 0, 55, 0
2, 28416, Note_off_c, 0, 52, 0
2, 28416, Note_on_c, 0, 57, 50
2, 28416, Note_on_c, 0, 76, 50
2, 28416, Note_on_c, 0, 54, 50
2, 28608, Note_off_c, 0, 54, 0
2, 28608, Note_off_c, 0, 57, 0
2, 28608, Note_on_c, 0, 55, 50
2, 28608, Note_on_c, 0, 59, 50
2, 28800, Note_off_c, 0, 59, 0
2, 28800, Note_off_c, 0, 55, 0
2, 28800, Note_off_c, 0, 76, 0
2, 28800, Note_on_c, 0, 60, 50
2, 28800, Note_on_c, 0, 57, 50
2, 28992, Note_off_c, 0, 57, 0
2, 28992, Note_off_c, 0, 60, 0
2, 28992, Note_on_c, 0, 57, 50
2, 28992, Note_on_c, 0, 54, 50
2, 28992, Note_on_c, 0, 83, 50
2, 29184, Note_off_c, 0, 83, 0
2, 29184, Note_off_c, 0, 54, 0
2, 29184, Note_off_c, 0, 57, 0
2, 29184, Note_on_c, 0, 59, 50
2, 29184, Note_on_c, 0, 81, 50
2, 29184, Note_on_c, 0, 55, 50
2, 29376, Note_off_c, 0, 59, 0
2, 29376, Note_off_c, 0, 55, 0
2, 29376, Note_on_c, 0, 57, 50
2, 29376, Note_on_c, 0, 60, 50
2, 29568, Note_off_c, 0, 81, 0
2, 29568, Note_off_c, 0, 60, 0
2, 29568, Note_off_c, 0, 57, 0
2, 29568, Note_on_c, 0, 59, 50
2, 29568, Note_on_c, 0, 62, 50
2, 29760, Note_off_c, 0, 62, 0
2, 29760, Note_off_c, 0, 59, 0
2, 29760, Note_on_c, 0, 79, 50
2, 29760, Note_on_c, 0, 59, 50
2, 29760, Note_on_c, 0, 55, 50
2, 29952, Note_off_c, 0, 55, 0
2, 29952, Note_off_c, 0, 59, 0
2, 29952, Note_on_c, 0, 57, 50
2, 29952, Note_on_c, 0, 60, 50
2, 30144, Note_off_c, 0, 79, 0
2, 30144, Note_off_c, 0, 60, 0
2, 30144, Note_off_c, 0, 57, 0
2, 30144, Note_on_c, 0, 55, 50
2, 30144, Note_on_c, 0, 59, 50
2, 30336, Note_off_c, 0, 55, 0
2, 30336, Note_off_c, 0, 59, 0
2, 30336, Note_on_c, 0, 57, 50
2, 30336, Note_on_c, 0, 54, 50
2, 30336, Note_on_c, 0, 78, 50
2, 30528, Note_off_c, 0, 57, 0
2, 30528, Note_off_c, 0, 78, 0
2, 30528, Note_off_c, 0, 54, 0
2, 30528, Note_on_c, 0, 74, 50
2, 30528, Note_on_c, 0, 54, 50
2, 30528, Note_on_c, 0, 50, 50
2, 30720, Note_off_c, 0, 50, 0
2, 30720, Note_off_c, 0, 54, 0
2, 30720, Note_off_c, 0, 74, 0
2, 31872, Note_on_c, 0, 47, 50
2, 31872, Note_on_c, 0, 52, 50
2, 31872, Note_on_c, 0, 40, 50
2, 32256, Note_off_c, 0, 40, 0
2, 32256, Note_off_c, 0, 47, 0
2, 32256, Note_off_c, 0, 52, 0
2, 32256, Note_on_c, 0, 40, 50
2, 32256, Note_on_c, 0, 47, 50
2, 32256, Note_on_c, 0, 52, 50
2, 32256, Note_on_c, 0, 64, 50
2, 32448, Note_off_c, 0, 64, 0
2, 32448, Note_on_c, 0, 66, 50
2, 32640, Note_off_c, 0, 66, 0
2, 32640, Note_on_c, 0, 67, 50
2, 32832, Note_off_c, 0, 67, 0
2, 32832, Note_on_c, 0, 64, 50
2, 33024, Note_off_c, 0, 64, 0
2, 33024, Note_on_c, 0, 66, 50
2, 33216, Note_off_c, 0, 66, 0
2, 33216, Note_on_c, 0, 67, 50
2, 33408, Note_off_c, 0, 67, 0
2, 33408, Note_on_c, 0, 69, 50
2, 33600, Note_off_c, 0, 69, 0
2, 33600, Note_on_c, 0, 66, 50
2, 33792, Note_off_c, 0, 66, 0
2, 33792, Note_on_c, 0, 67, 50
2, 33984, Note_off_c, 0, 67, 0
2, 33984, Note_on_c, 0, 69, 50
2, 34176, Note_off_c, 0, 69, 0
2, 34176, Note_on_c, 0, 71, 50
2, 34368, Note_off_c, 0, 71, 0
2, 34368, Note_on_c, 0, 67, 50
2, 34560, Note_off_c, 0, 67, 0
2, 34560, Note_on_c, 0, 69, 50
2, 34752, Note_off_c, 0, 69, 0
2, 34752, Note_on_c, 0, 67, 50
2, 34944, Note_off_c, 0, 67, 0
2, 34944, Note_on_c, 0, 66, 50
2, 35136, Note_off_c, 0, 66, 0
2, 35136, Note_on_c, 0, 62, 50
2, 35328, Note_off_c, 0, 62, 0
2, 35328, Note_off_c, 0, 40, 0
2, 35328, Note_off_c, 0, 47, 0
2, 35328, Note_off_c, 0, 52, 0
2, 35328, Note_on_c, 0, 40, 50
2, 35328, Note_on_c, 0, 48, 50
2, 35328, Note_on_c, 0, 52, 50
2, 35328, Note_on_c, 0, 64, 50
2, 35520, Note_off_c, 0, 64, 0
2, 35520, Note_on_c, 0, 66, 50
2, 35712, Note_off_c, 0, 66, 0
2, 35712, Note_on_c, 0, 67, 50
2, 35904, Note_off_c, 0, 67, 0
2, 35904, Note_on_c, 0, 64, 50
2, 36096, Note_off_c, 0, 64, 0
2, 36096, Note_on_c, 0, 66, 50
2, 36288, Note_off_c, 0, 66, 0
2, 36288, Note_on_c, 0, 67, 50
2, 36480, Note_off_c, 0, 67, 0
2, 36480, Note_on_c, 0, 69, 50
2, 36672, Note_off_c, 0, 69, 0
2, 36672, Note_on_c, 0, 66, 50
2, 36864, Note_off_c, 0, 66, 0
2, 36864, Note_on_c, 0, 67, 50
2, 37056, Note_off_c, 0, 67, 0
2, 37056, Note_on_c, 0, 69, 50
2, 37248, Note_off_c, 0, 69, 0
2, 37248, Note_on_c, 0, 71, 50
2, 37440, Note_off_c, 0, 71, 0
2, 37440, Note_on_c, 0, 67, 50
2, 37632, Note_off_c, 0, 67, 0
2, 37632, Note_on_c, 0, 69, 50
2, 37824, Note_off_c, 0, 69, 0
2, 37824, Note_on_c, 0, 67, 50
2, 38016, Note_off_c, 0, 67, 0
2, 38016, Note_on_c, 0, 66, 50
2, 38208, Note_off_c, 0, 66, 0
2, 38208, Note_on_c, 0, 62, 50
2, 38400, Note_off_c, 0, 52, 0
2, 38400, Note_off_c, 0, 62, 0
2, 38400, Note_off_c, 0, 40, 0
2, 38400, Note_off_c, 0, 48, 0
2, 38400, Note_on_c, 0, 47, 50
2, 38400, Note_on_c, 0, 52, 50
2, 38400, Note_on_c, 0, 40, 50
2, 38400, Note_on_c, 0, 64, 50
2, 38400, Note_on_c, 0, 67, 50
2, 38592, Note_off_c, 0, 67, 0
2, 38592, Note_off_c, 0, 64, 0
2, 38592, Note_on_c, 0, 66, 50
2, 38592, Note_on_c, 0, 69, 50
2, 38784, Note_off_c, 0, 66, 0
2, 38784, Note_off_c, 0, 69, 0
2, 38784, Note_on_c, 0, 67, 50
2, 38784, Note_on_c, 0, 71, 50
2, 38976, Note_off_c, 0, 71, 0
2, 38976, Note_off_c, 0, 67, 0
2, 38976, Note_on_c, 0, 64, 50
2, 38976, Note_on_c, 0, 67, 50
2, 39168, Note_off_c, 0, 64, 0
2, 39168, Note_off_c, 0, 67, 0
2, 39168, Note_on_c, 0, 66, 50
2, 39168, Note_on_c, 0, 69, 50
2, 39360, Note_off_c, 0, 69, 0
2, 39360, Note_off_c, 0, 66, 0
2, 39360, Note_on_c, 0, 67, 50
2, 39360, Note_on_c, 0, 71, 50
2, 39552, Note_off_c, 0, 71, 0
2, 39552, Note_off_c, 0, 67, 0
2, 39552, Note_on_c, 0, 69, 50
2, 39552, Note_on_c, 0, 72, 50
2, 39744, Note_off_c, 0, 72, 0
2, 39744, Note_off_c, 0, 69, 0
2, 39744, Note_on_c, 0, 69, 50
2, 39744, Note_on_c, 0, 66, 50
2, 39936, Note_off_c, 0, 69, 0
2, 39936, Note_off_c, 0, 66, 0
2, 39936, Note_on_c, 0, 67, 50
2, 39936, Note_on_c, 0, 71, 50
2, 40128, Note_off_c, 0, 71, 0
2, 40128, Note_off_c, 0, 67, 0
2, 40128, Note_on_c, 0, 72, 50
2, 40128, Note_on_c, 0, 69, 50
2, 40320, Note_off_c, 0, 72, 0
2, 40320, Note_off_c, 0, 69, 0
2, 40320, Note_on_c, 0, 74, 50
2, 40320, Note_on_c, 0, 71, 50
2, 40512, Note_off_c, 0, 74, 0
2, 40512, Note_off_c, 0, 71, 0
2, 40512, Note_on_c, 0, 67, 50
2, 40512, Note_on_c, 0, 71, 50
2, 40704, Note_off_c, 0, 71, 0
2, 40704, Note_off_c, 0, 67, 0
2, 40704, Note_on_c, 0, 69, 50
2, 40704, Note_on_c, 0, 72, 50
2, 40896, Note_off_c, 0, 72, 0
2, 40896, Note_off_c, 0, 69, 0
2, 40896, Note_on_c, 0, 67, 50
2, 40896, Note_on_c, 0, 71, 50
2, 41088, Note_off_c, 0, 71, 0
2, 41088, Note_off_c, 0, 67, 0
2, 41088, Note_on_c, 0, 69, 50
2, 41088, Note_on_c, 0, 66, 50
2, 41280, Note_off_c, 0, 66, 0
2, 41280, Note_off_c, 0, 69, 0
2, 41280, Note_on_c, 0, 66, 50
2, 41280, Note_on_c, 0, 62, 50
2, 41472, Note_off_c, 0, 52, 0
2, 41472, Note_off_c, 0, 47, 0
2, 41472, Note_off_c, 0, 62, 0
2, 41472, Note_off_c, 0, 66, 0
2, 41472, Note_off_c, 0, 40, 0
2, 41472, Note_on_c, 0, 64, 50
2, 41472, Note_on_c, 0, 40, 50
2, 41472, Note_on_c, 0, 67, 50
2, 41472, Note_on_c, 0, 52, 50
2, 41472, Note_on_c, 0, 48, 50
2, 41664, Note_off_c, 0, 64, 0
2, 41664, Note_off_c, 0, 67, 0
2, 41664, Note_on_c, 0, 66, 50
2, 41664, Note_on_c, 0, 69, 50
2, 41856, Note_off_c, 0, 69, 0
2, 41856, Note_off_c, 0, 66, 0
2, 41856, Note_on_c, 0, 71, 50
2, 41856, Note_on_c, 0, 67, 50
2, 42048, Note_off_c, 0, 71, 0
2, 42048, Note_off_c, 0, 67, 0
2, 42048, Note_on_c, 0, 64, 50
2, 42048, Note_on_c, 0, 67, 50
2, 42240, Note_off_c, 0, 67, 0
2, 42240, Note_off_c, 0, 64, 0
2, 42240, Note_on_c, 0, 69, 50
2, 42240, Note_on_c, 0, 66, 50
2, 42432, Note_off_c, 0, 66, 0
2, 42432, Note_off_c, 0, 69, 0
2, 42432, Note_on_c, 0, 71, 50
2, 42432, Note_on_c, 0, 67, 50
2, 42624, Note_off_c, 0, 71, 0
2, 42624, Note_off_c, 0, 67, 0
2, 42624, Note_on_c, 0, 69, 50
2, 42624, Note_on_c, 0, 72, 50
2, 42816, Note_off_c, 0, 72, 0
2, 42816, Note_off_c, 0, 69, 0
2, 42816, Note_on_c, 0, 66, 50
2, 42816, Note_on_c, 0, 69, 50
2, 43008, Note_off_c, 0, 69, 0
2, 43008, Note_off_c, 0, 66, 0
2, 43008, Note_on_c, 0, 71, 50
2, 43008, Note_on_c, 0, 67, 50
2, 43200, Note_off_c, 0, 71, 0
2, 43200, Note_off_c, 0, 67, 0
2, 43200, Note_on_c, 0, 72, 50
2, 43200, Note_on_c, 0, 69, 50
2, 43392, Note_off_c, 0, 69, 0
2, 43392, Note_off_c, 0, 72, 0
2, 43392, Note_on_c, 0, 71, 50
2, 43392, Note_on_c, 0, 74, 50
2, 43584, Note_off_c, 0, 74, 0
2, 43584, Note_off_c, 0, 71, 0
2, 43584, Note_on_c, 0, 67, 50
2, 43584, Note_on_c, 0, 71, 50
2, 43776, Note_off_c, 0, 67, 0
2, 43776, Note_off_c, 0, 71, 0
2, 43776, Note_on_c, 0, 69, 50
2, 43776, Note_on_c, 0, 72, 50
2, 43968, Note_off_c, 0, 72, 0
2, 43968, Note_off_c, 0, 69, 0
2, 43968, Note_on_c, 0, 71, 50
2, 43968, Note_on_c, 0, 67, 50
2, 44160, Note_off_c, 0, 67, 0
2, 44160, Note_off_c, 0, 71, 0
2, 44160, Note_on_c, 0, 69, 50
2, 44160, Note_on_c, 0, 66, 50
2, 44352, Note_off_c, 0, 69, 0
2, 44352, Note_off_c, 0, 66, 0
2, 44352, Note_on_c, 0, 66, 50
2, 44352, Note_on_c, 0, 62, 50
2, 44544, Note_off_c, 0, 48, 0
2, 44544, Note_off_c, 0, 66, 0
2, 44544, Note_off_c, 0, 62, 0
2, 44544, Note_off_c, 0, 52, 0
2, 44544, Note_off_c, 0, 40, 0
2, 44544, Note_on_c, 0, 47, 50
2, 44544, Note_on_c, 0, 76, 50
2, 44544, Note_on_c, 0, 64, 50
2, 44544, Note_on_c, 0, 67, 50
2, 44544, Note_on_c, 0, 52, 50
2, 44544, Note_on_c, 0, 40, 50
2, 44736, Note_off_c, 0, 67, 0
2, 44736, Note_off_c, 0, 64, 0
2, 44736, Note_off_c, 0, 76, 0
2, 44736, Note_on_c, 0, 69, 50
2, 44736, Note_on_c, 0, 66, 50
2, 44928, Note_off_c, 0, 66, 0
2, 44928, Note_off_c, 0, 69, 0
2, 44928, Note_on_c, 0, 76, 50
2, 44928, Note_on_c, 0, 67, 50
2, 44928, Note_on_c, 0, 71, 50
2, 45120, Note_off_c, 0, 76, 0
2, 45120, Note_off_c, 0, 71, 0
2, 45120, Note_off_c, 0, 67, 0
2, 45120, Note_on_c, 0, 64, 50
2, 45120, Note_on_c, 0, 67, 50
2, 45312, Note_off_c, 0, 64, 0
2, 45312, Note_off_c, 0, 67, 0
2, 45312, Note_on_c, 0, 69, 50
2, 45312, Note_on_c, 0, 66, 50
2, 45504, Note_off_c, 0, 69, 0
2, 45504, Note_off_c, 0, 66, 0
2, 45504, Note_on_c, 0, 71, 50
2, 45504, Note_on_c, 0, 76, 50
2, 45504, Note_on_c, 0, 67, 50
2, 45696, Note_off_c, 0, 71, 0
2, 45696, Note_off_c, 0, 67, 0
2, 45696, Note_off_c, 0, 76, 0
2, 45696, Note_on_c, 0, 69, 50
2, 45696, Note_on_c, 0, 72, 50
2, 45696, Note_on_c, 0, 76, 50
2, 45888, Note_off_c, 0, 72, 0
2, 45888, Note_off_c, 0, 69, 0
2, 45888, Note_off_c, 0, 76, 0
2, 45888, Note_on_c, 0, 66, 50
2, 45888, Note_on_c, 0, 69, 50
2, 46080, Note_off_c, 0, 69, 0
2, 46080, Note_off_c, 0, 66, 0
2, 46080, Note_on_c, 0, 67, 50
2, 46080, Note_on_c, 0, 71, 50
2, 46272, Note_off_c, 0, 71, 0
2, 46272, Note_off_c, 0, 67, 0
2, 46272, Note_on_c, 0, 69, 50
2, 46272, Note_on_c, 0, 72, 50
2, 46272, Note_on_c, 0, 74, 50
2, 46464, Note_off_c, 0, 74, 0
2, 46464, Note_off_c, 0, 72, 0
2, 46464, Note_off_c, 0, 69, 0
2, 46464, Note_on_c, 0, 74, 50
2, 46464, Note_on_c, 0, 71, 50
2, 46656, Note_off_c, 0, 74, 0
2, 46656, Note_off_c, 0, 71, 0
2, 46656, Note_on_c, 0, 67, 50
2, 46656, Note_on_c, 0, 71, 50
2, 46848, Note_off_c, 0, 71, 0
2, 46848, Note_off_c, 0, 67, 0
2, 46848, Note_on_c, 0, 76, 50
2, 46848, Note_on_c, 0, 72, 50
2, 46848, Note_on_c, 0, 69, 50
2, 47040, Note_off_c, 0, 69, 0
2, 47040, Note_off_c, 0, 76, 0
2, 47040, Note_off_c, 0, 72, 0
2, 47040, Note_on_c, 0, 67, 50
2, 47040, Note_on_c, 0, 71, 50
2, 47232, Note_off_c, 0, 71, 0
2, 47232, Note_off_c, 0, 67, 0
2, 47232, Note_on_c, 0, 66, 50
2, 47232, Note_on_c, 0, 69, 50
2, 47424, Note_off_c, 0, 69, 0
2, 47424, Note_off_c, 0, 66, 0
2, 47424, Note_on_c, 0, 66, 50
2, 47424, Note_on_c, 0, 62, 50
2, 47616, Note_off_c, 0, 66, 0
2, 47616, Note_off_c, 0, 40, 0
2, 47616, Note_off_c, 0, 62, 0
2, 47616, Note_off_c, 0, 52, 0
2, 47616, Note_off_c, 0, 47, 0
2, 47616, Note_on_c, 0, 76, 50
2, 47616, Note_on_c, 0, 40, 50
2, 47616, Note_on_c, 0, 48, 50
2, 47616, Note_on_c, 0, 67, 50
2, 47616, Note_on_c, 0, 64, 50
2, 47616, Note_on_c, 0, 52, 50
2, 47808, Note_off_c, 0, 76, 0
2, 47808, Note_off_c, 0, 67, 0
2, 47808, Note_off_c, 0, 64, 0
2, 47808, Note_on_c, 0, 66, 50
2, 47808, Note_on_c, 0, 69, 50
2, 48000, Note_off_c, 0, 69, 0
2, 48000, Note_off_c, 0, 66, 0
2, 48000, Note_on_c, 0, 76, 50
2, 48000, Note_on_c, 0, 67, 50
2, 48000, Note_on_c, 0, 71, 50
2, 48192, Note_off_c, 0, 71, 0
2, 48192, Note_off_c, 0, 67, 0
2, 48192, Note_off_c, 0, 76, 0
2, 48192, Note_on_c, 0, 64, 50
2, 48192, Note_on_c, 0, 67, 50
2, 48384, Note_off_c, 0, 67, 0
2, 48384, Note_off_c, 0, 64, 0
2, 48384, Note_on_c, 0, 69, 50
2, 48384, Note_on_c, 0, 66, 50
2, 48576, Note_off_c, 0, 69, 0
2, 48576, Note_off_c, 0, 66, 0
2, 48576, Note_on_c, 0, 83, 50
2, 48576, Note_on_c, 0, 67, 50
2, 48576, Note_on_c, 0, 71, 50
2, 48768, Note_off_c, 0, 71, 0
2, 48768, Note_off_c, 0, 67, 0
2, 48768, Note_off_c, 0, 83, 0
2, 48768, Note_on_c, 0, 72, 50
2, 48768, Note_on_c, 0, 81, 50
2, 48768, Note_on_c, 0, 69, 50
2, 48960, Note_off_c, 0, 81, 0
2, 48960, Note_off_c, 0, 69, 0
2, 48960, Note_off_c, 0, 72, 0
2, 48960, Note_on_c, 0, 66, 50
2, 48960, Note_on_c, 0, 69, 50
2, 49152, Note_off_c, 0, 69, 0
2, 49152, Note_off_c, 0, 66, 0
2, 49152, Note_on_c, 0, 67, 50
2, 49152, Note_on_c, 0, 71, 50
2, 49344, Note_off_c, 0, 71, 0
2, 49344, Note_off_c, 0, 67, 0
2, 49344, Note_on_c, 0, 69, 50
2, 49344, Note_on_c, 0, 72, 50
2, 49344, Note_on_c, 0, 79, 50
2, 49536, Note_off_c, 0, 79, 0
2, 49536, Note_off_c, 0, 72, 0
2, 49536, Note_off_c, 0, 69, 0
2, 49536, Note_on_c, 0, 71, 50
2, 49536, Note_on_c, 0, 74, 50
2, 49728, Note_off_c, 0, 71, 0
2, 49728, Note_off_c, 0, 74, 0
2, 49728, Note_on_c, 0, 67, 50
2, 49728, Note_on_c, 0, 71, 50
2, 49920, Note_off_c, 0, 71, 0
2, 49920, Note_off_c, 0, 67, 0
2, 49920, Note_on_c, 0, 72, 50
2, 49920, Note_on_c, 0, 78, 50
2, 49920, Note_on_c, 0, 69, 50
2, 50112, Note_off_c, 0, 78, 0
2, 50112, Note_off_c, 0, 69, 0
2, 50112, Note_off_c, 0, 72, 0
2, 50112, Note_on_c, 0, 74, 50
2, 50112, Note_on_c, 0, 67, 50
2, 50112, Note_on_c, 0, 71, 50
2, 50304, Note_off_c, 0, 71, 0
2, 50304, Note_off_c, 0, 67, 0
2, 50304, Note_off_c, 0, 74, 0
2, 50304, Note_on_c, 0, 69, 50
2, 50304, Note_on_c, 0, 66, 50
2, 50496, Note_off_c, 0, 66, 0
2, 50496, Note_off_c, 0, 69, 0
2, 50496, Note_on_c, 0, 66, 50
2, 50496, Note_on_c, 0, 62, 50
2, 50688, Note_off_c, 0, 48, 0
2, 50688, Note_off_c, 0, 52, 0
2, 50688, Note_off_c, 0, 66, 0
2, 50688, Note_off_c, 0, 62, 0
2, 50688, Note_off_c, 0, 40, 0
2, 50688, Note_on_c, 0, 76, 50
2, 50688, Note_on_c, 0, 64, 50
2, 50688, Note_on_c, 0, 67, 50
2, 50688, Note_on_c, 0, 52, 50
2, 50688, Note_on_c, 0, 40, 50
2, 50688, Note_on_c, 0, 47, 50
2, 50880, Note_off_c, 0, 76, 0
2, 50880, Note_off_c, 0, 67, 0
2, 50880, Note_off_c, 0, 64, 0
2, 50880, Note_on_c, 0, 69, 50
2, 50880, Note_on_c, 0, 66, 50
2, 51072, Note_off_c, 0, 69, 0
2, 51072, Note_off_c, 0, 66, 0
2, 51072, Note_on_c, 0, 76, 50
2, 51072, Note_on_c, 0, 67, 50
2, 51072, Note_on_c, 0, 71, 50
2, 51264, Note_off_c, 0, 71, 0
2, 51264, Note_off_c, 0, 67, 0
2, 51264, Note_off_c, 0, 76, 0
2, 51264, Note_on_c, 0, 64, 50
2, 51264, Note_on_c, 0, 67, 50
2, 51456, Note_off_c, 0, 67, 0
2, 51456, Note_off_c, 0, 64, 0
2, 51456, Note_on_c, 0, 69, 50
2, 51456, Note_on_c, 0, 66, 50
2, 51648, Note_off_c, 0, 66, 0
2, 51648, Note_off_c, 0, 69, 0
2, 51648, Note_on_c, 0, 76, 50
2, 51648, Note_on_c, 0, 71, 50
2, 51648, Note_on_c, 0, 67, 50
2, 51840, Note_off_c, 0, 67, 0
2, 51840, Note_off_c, 0, 71, 0
2, 51840, Note_off_c, 0, 76, 0
2, 51840, Note_on_c, 0, 76, 50
2, 51840, Note_on_c, 0, 69, 50
2, 51840, Note_on_c, 0, 72, 50
2, 52032, Note_off_c, 0, 76, 0
2, 52032, Note_off_c, 0, 69, 0
2, 52032, Note_off_c, 0, 72, 0
2, 52032, Note_on_c, 0, 66, 50
2, 52032, Note_on_c, 0, 69, 50
2, 52224, Note_off_c, 0, 66, 0
2, 52224, Note_off_c, 0, 69, 0
2, 52224, Note_on_c, 0, 71, 50
2, 52224, Note_on_c, 0, 67, 50
2, 52416, Note_off_c, 0, 71, 0
2, 52416, Note_off_c, 0, 67, 0
2, 52416, Note_on_c, 0, 69, 50
2, 52416, Note_on_c, 0, 74, 50
2, 52416, Note_on_c, 0, 72, 50
2, 52608, Note_off_c, 0, 72, 0
2, 52608, Note_off_c, 0, 69, 0
2, 52608, Note_off_c, 0, 74, 0
2, 52608, Note_on_c, 0, 71, 50
2, 52608, Note_on_c, 0, 74, 50
2, 52800, Note_off_c, 0, 74, 0
2, 52800, Note_off_c, 0, 71, 0
2, 52800, Note_on_c, 0, 67, 50
2, 52800, Note_on_c, 0, 71, 50
2, 52992, Note_off_c, 0, 67, 0
2, 52992, Note_off_c, 0, 71, 0
2, 52992, Note_on_c, 0, 76, 50
2, 52992, Note_on_c, 0, 69, 50
2, 52992, Note_on_c, 0, 72, 50
2, 53184, Note_off_c, 0, 72, 0
2, 53184, Note_off_c, 0, 69, 0
2, 53184, Note_off_c, 0, 76, 0
2, 53184, Note_on_c, 0, 67, 50
2, 53184, Note_on_c, 0, 71, 50
2, 53376, Note_off_c, 0, 71, 0
2, 53376, Note_off_c, 0, 67, 0
2, 53376, Note_on_c, 0, 66, 50
2, 53376, Note_on_c, 0, 69, 50
2, 53568, Note_off_c, 0, 69, 0
2, 53568, Note_off_c, 0, 66, 0
2, 53568, Note_on_c, 0, 66, 50
2, 53568, Note_on_c, 0, 62, 50
2, 53760, Note_off_c, 0, 66, 0
2, 53760, Note_off_c, 0, 52, 0
2, 53760, Note_off_c, 0, 40, 0
2, 53760, Note_off_c, 0, 47, 0
2, 53760, Note_off_c, 0, 62, 0
2, 53760, Note_on_c, 0, 52, 50
2, 53760, Note_on_c, 0, 48, 50
2, 53760, Note_on_c, 0, 67, 50
2, 53760, Note_on_c, 0, 76, 50
2, 53760, Note_on_c, 0, 64, 50
2, 53760, Note_on_c, 0, 40, 50
2, 53952, Note_off_c, 0, 67, 0
2, 53952, Note_off_c, 0, 64, 0
2, 53952, Note_off_c, 0, 76, 0
2, 53952, Note_on_c, 0, 66, 50
2, 53952, Note_on_c, 0, 69, 50
2, 54144, Note_off_c, 0, 66, 0
2, 54144, Note_off_c, 0, 69, 0
2, 54144, Note_on_c, 0, 67, 50
2, 54144, Note_on_c, 0, 76, 50
2, 54144, Note_on_c, 0, 71, 50
2, 54336, Note_off_c, 0, 76, 0
2, 54336, Note_off_c, 0, 67, 0
2, 54336, Note_off_c, 0, 71, 0
2, 54336, Note_on_c, 0, 64, 50
2, 54336, Note_on_c, 0, 67, 50
2, 54528, Note_off_c, 0, 67, 0
2, 54528, Note_off_c, 0, 64, 0
2, 54528, Note_on_c, 0, 66, 50
2, 54528, Note_on_c, 0, 69, 50
2, 54720, Note_off_c, 0, 69, 0
2, 54720, Note_off_c, 0, 66, 0
2, 54720, Note_on_c, 0, 67, 50
2, 54720, Note_on_c, 0, 71, 50
2, 54720, Note_on_c, 0, 83, 50
2, 54912, Note_off_c, 0, 67, 0
2, 54912, Note_off_c, 0, 83, 0
2, 54912, Note_off_c, 0, 71, 0
2, 54912, Note_on_c, 0, 81, 50
2, 54912, Note_on_c, 0, 72, 50
2, 54912, Note_on_c, 0, 69, 50
2, 55104, Note_off_c, 0, 69, 0
2, 55104, Note_off_c, 0, 72, 0
2, 55104, Note_off_c, 0, 81, 0
2, 55104, Note_on_c, 0, 69, 50
2, 55104, Note_on_c, 0, 66, 50
2, 55296, Note_off_c, 0, 66, 0
2, 55296, Note_off_c, 0, 69, 0
2, 55296, Note_on_c, 0, 67, 50
2, 55296, Note_on_c, 0, 71, 50
2, 55488, Note_off_c, 0, 67, 0
2, 55488, Note_off_c, 0, 71, 0
2, 55488, Note_on_c, 0, 72, 50
2, 55488, Note_on_c, 0, 79, 50
2, 55488, Note_on_c, 0, 69, 50
2, 55680, Note_off_c, 0, 72, 0
2, 55680, Note_off_c, 0, 79, 0
2, 55680, Note_off_c, 0, 69, 0
2, 55680, Note_on_c, 0, 71, 50
2, 55680, Note_on_c, 0, 74, 50
2, 55872, Note_off_c, 0, 74, 0
2, 55872, Note_off_c, 0, 71, 0
2, 55872, Note_on_c, 0, 71, 50
2, 55872, Note_on_c, 0, 67, 50
2, 56064, Note_off_c, 0, 71, 0
2, 56064, Note_off_c, 0, 67, 0
2, 56064, Note_on_c, 0, 69, 50
2, 56064, Note_on_c, 0, 72, 50
2, 56064, Note_on_c, 0, 78, 50
2, 56256, Note_off_c, 0, 69, 0
2, 56256, Note_off_c, 0, 72, 0
2, 56256, Note_off_c, 0, 78, 0
2, 56256, Note_on_c, 0, 74, 50
2, 56256, Note_on_c, 0, 67, 50
2, 56256, Note_on_c, 0, 71, 50
2, 56448, Note_off_c, 0, 71, 0
2, 56448, Note_off_c, 0, 67, 0
2, 56448, Note_off_c, 0, 74, 0
2, 56448, Note_on_c, 0, 66, 50
2, 56448, Note_on_c, 0, 69, 50
2, 56640, Note_off_c, 0, 69, 0
2, 56640, Note_off_c, 0, 66, 0
2, 56640, Note_on_c, 0, 66, 50
2, 56640, Note_on_c, 0, 62, 50
2, 56832, Note_off_c, 0, 66, 0
2, 56832, Note_off_c, 0, 52, 0
2, 56832, Note_off_c, 0, 62, 0
2, 56832, Note_off_c, 0, 48, 0
2, 56832, Note_off_c, 0, 40, 0
2, 56832, Note_on_c, 0, 28, 50
2, 56960, Note_on_c, 0, 35, 50
2, 57089, Note_on_c, 0, 40, 50
2, 57217, Note_on_c, 0, 47, 50
2, 57345, Note_on_c, 0, 52, 50
2, 57474, Note_on_c, 0, 59, 50
2, 57602, Note_on_c, 0, 64, 50
2, 57730, Note_on_c, 0, 71, 50
2, 57859, Note_on_c, 0, 76, 50
2, 57987, Note_on_c, 0, 83, 50
2, 58115, Note_on_c, 0, 88, 50
2, 58244, Note_on_c, 0, 95, 50
2, 58372, Note_off_c, 0, 40, 0
2, 58372, Note_off_c, 0, 95, 0
2, 58372, Note_off_c, 0, 28, 0
2, 58372, Note_on_c, 0, 40, 50
2, 58372, Note_on_c, 0, 35, 50
2, 58372, Note_on_c, 0, 95, 50
2, 58372, Note_on_c, 0, 28, 50
2, 58372, Note_off_c, 0, 35, 0
2, 58420, Note_on_c, 0, 94, 50
2, 58468, Note_on_c, 0, 93, 50
2, 58516, Note_on_c, 0, 92, 50
2, 58564, Note_on_c, 0, 91, 50
2, 58612, Note_on_c, 0, 90, 50
2, 58660, Note_on_c, 0, 89, 50
2, 58708, Note_on_c, 0, 88, 50
2, 58708, Note_off_c, 0, 88, 0
2, 58756, Note_off_c, 0, 40, 0
2, 58756, Note_off_c, 0, 28, 0
2, 58756, Note_off_c, 0, 35, 0
2, 58756, Note_on_c, 0, 40, 50
2, 58756, Note_on_c, 0, 87, 50
2, 58756, Note_on_c, 0, 28, 50
2, 58756, Note_on_c, 0, 35, 50
2, 58804, Note_on_c, 0, 86, 50
2, 58852, Note_on_c, 0, 85, 50
2, 58900, Note_on_c, 0, 84, 50
2, 58948, Note_off_c, 0, 83, 0
2, 58948, Note_on_c, 0, 83, 50
2, 58996, Note_on_c, 0, 82, 50
2, 59044, Note_on_c, 0, 81, 50
2, 59092, Note_on_c, 0, 80, 50
2, 59140, Note_off_c, 0, 76, 0
2, 59140, Note_off_c, 0, 59, 0
2, 59140, Note_off_c, 0, 47, 0
2, 59140, Note_off_c, 0, 35, 0
2, 59140, Note_off_c, 0, 28, 0
2, 59140, Note_off_c, 0, 64, 0
2, 59140, Note_off_c, 0, 40, 0
2, 59140, Note_on_c, 0, 40, 50
2, 59140, Note_on_c, 0, 76, 50
2, 59140, Note_off_c, 0, 71, 0
2, 59140, Note_off_c, 0, 52, 0
2, 59188, Note_off_c, 0, 87, 0
2, 59188, Note_off_c, 0, 92, 0
2, 59188, Note_off_c, 0, 95, 0
2, 59188, Note_off_c, 0, 80, 0
2, 59188, Note_off_c, 0, 94, 0
2, 59188, Note_off_c, 0, 81, 0
2, 59188, Note_off_c, 0, 93, 0
2, 59188, Note_off_c, 0, 82, 0
2, 59188, Note_off_c, 0, 83, 0
2, 59188, Note_off_c, 0, 91, 0
2, 59188, Note_off_c, 0, 84, 0
2, 59188, Note_off_c, 0, 90, 0
2, 59188, Note_off_c, 0, 85, 0
2, 59188, Note_off_c, 0, 89, 0
2, 59188, Note_off_c, 0, 86, 0
2, 59188, Note_off_c, 0, 88, 0
2, 59332, Note_off_c, 0, 40, 0
2, 59332, Note_on_c, 0, 47, 50
2, 59332, Note_on_c, 0, 52, 50
2, 59524, Note_off_c, 0, 52, 0
2, 59524, Note_off_c, 0, 47, 0
2, 59524, Note_on_c, 0, 40, 50
2, 59716, Note_off_c, 0, 40, 0
2, 59716, Note_on_c, 0, 47, 50
2, 59716, Note_on_c, 0, 52, 50
2, 59908, Note_off_c, 0, 52, 0
2, 59908, Note_off_c, 0, 47, 0
2, 59908, Note_on_c, 0, 40, 50
2, 60100, Note_off_c, 0, 40, 0
2, 60100, Note_on_c, 0, 47, 50
2, 60100, Note_on_c, 0, 52, 50
2, 60292, Note_off_c, 0, 47, 0
2, 60292, Note_off_c, 0, 52, 0
2, 60292, Note_on_c, 0, 40, 50
2, 60484, Note_off_c, 0, 40, 0
2, 60484, Note_on_c, 0, 47, 50
2, 60484, Note_on_c, 0, 52, 50
2, 60676, Note_off_c, 0, 52, 0
2, 60676, Note_off_c, 0, 47, 0
2, 60676, Note_on_c, 0, 40, 50
2, 60868, Note_off_c, 0, 40, 0
2, 60868, Note_on_c, 0, 47, 50
2, 60868, Note_on_c, 0, 52, 50
2, 61060, Note_off_c, 0, 52, 0
2, 61060, Note_off_c, 0, 47, 0
2, 61060, Note_off_c, 0, 76, 0
2, 61060, Note_on_c, 0, 40, 50
2, 61060, Note_on_c, 0, 76, 50
2, 61156, Note_off_c, 0, 76, 0
2, 61156, Note_on_c, 0, 78, 50
2, 61252, Note_off_c, 0, 40, 0
2, 61252, Note_on_c, 0, 47, 50
2, 61252, Note_on_c, 0, 52, 50
2, 61444, Note_off_c, 0, 78, 0
2, 61444, Note_off_c, 0, 52, 0
2, 61444, Note_off_c, 0, 47, 0
2, 61444, Note_on_c, 0, 79, 50
2, 61444, Note_on_c, 0, 38, 50
2, 61636, Note_off_c, 0, 38, 0
2, 61636, Note_off_c, 0, 79, 0
2, 61636, Note_on_c, 0, 50, 50
2, 61636, Note_on_c, 0, 45, 50
2, 61636, Note_on_c, 0, 78, 50
2, 61828, Note_off_c, 0, 78, 0
2, 61828, Note_off_c, 0, 50, 0
2, 61828, Note_off_c, 0, 45, 0
2, 61828, Note_on_c, 0, 38, 50
2, 61828, Note_on_c, 0, 76, 50
2, 62020, Note_off_c, 0, 76, 0
2, 62020, Note_off_c, 0, 38, 0
2, 62020, Note_on_c, 0, 50, 50
2, 62020, Note_on_c, 0, 45, 50
2, 62020, Note_on_c, 0, 74, 50
2, 62212, Note_off_c, 0, 74, 0
2, 62212, Note_off_c, 0, 45, 0
2, 62212, Note_off_c, 0, 50, 0
2, 62212, Note_on_c, 0, 76, 50
2, 62212, Note_on_c, 0, 36, 50
2, 62404, Note_off_c, 0, 36, 0
2, 62404, Note_on_c, 0, 43, 50
2, 62404, Note_on_c, 0, 48, 50
2, 62596, Note_off_c, 0, 48, 0
2, 62596, Note_off_c, 0, 43, 0
2, 62596, Note_on_c, 0, 36, 50
2, 62788, Note_off_c, 0, 36, 0
2, 62788, Note_on_c, 0, 48, 50
2, 62788, Note_on_c, 0, 43, 50
2, 62980, Note_off_c, 0, 43, 0
2, 62980, Note_off_c, 0, 76, 0
2, 62980, Note_off_c, 0, 48, 0
2, 62980, Note_on_c, 0, 83, 50
2, 62980, Note_on_c, 0, 36, 50
2, 63172, Note_off_c, 0, 36, 0
2, 63172, Note_on_c, 0, 43, 50
2, 63172, Note_on_c, 0, 48, 50
2, 63364, Note_off_c, 0, 48, 0
2, 63364, Note_off_c, 0, 43, 0
2, 63364, Note_on_c, 0, 36, 50
2, 63556, Note_off_c, 0, 36, 0
2, 63556, Note_on_c, 0, 43, 50
2, 63556, Note_on_c, 0, 48, 50
2, 63748, Note_off_c, 0, 83, 0
2, 63748, Note_off_c, 0, 48, 0
2, 63748, Note_off_c, 0, 43, 0
2, 63748, Note_on_c, 0, 78, 50
2, 63748, Note_on_c, 0, 38, 50
2, 63940, Note_off_c, 0, 38, 0
2, 63940, Note_on_c, 0, 50, 50
2, 63940, Note_on_c, 0, 45, 50
2, 64132, Note_off_c, 0, 50, 0
2, 64132, Note_off_c, 0, 45, 0
2, 64132, Note_on_c, 0, 38, 50
2, 64324, Note_off_c, 0, 38, 0
2, 64324, Note_on_c, 0, 50, 50
2, 64324, Note_on_c, 0, 45, 50
2, 64516, Note_off_c, 0, 50, 0
2, 64516, Note_off_c, 0, 45, 0
2, 64516, Note_on_c, 0, 38, 50
2, 64708, Note_off_c, 0, 38, 0
2, 64708, Note_on_c, 0, 50, 50
2, 64708, Note_on_c, 0, 45, 50
2, 64900, Note_off_c, 0, 45, 0
2, 64900, Note_off_c, 0, 50, 0
2, 64900, Note_on_c, 0, 38, 50
2, 65092, Note_off_c, 0, 78, 0
2, 65092, Note_off_c, 0, 38, 0
2, 65092, Note_on_c, 0, 45, 50
2, 65092, Note_on_c, 0, 74, 50
2, 65092, Note_on_c, 0, 50, 50
2, 65284, Note_off_c, 0, 45, 0
2, 65284, Note_off_c, 0, 50, 0
2, 65284, Note_off_c, 0, 74, 0
2, 65284, Note_on_c, 0, 35, 50
2, 65284, Note_on_c, 0, 76, 50
2, 65380, Note_off_c, 0, 76, 0
2, 65380, Note_on_c, 0, 74, 50
2, 65476, Note_off_c, 0, 35, 0
2, 65476, Note_off_c, 0, 74, 0
2, 65476, Note_on_c, 0, 76, 50
2, 65476, Note_on_c, 0, 47, 50
2, 65476, Note_on_c, 0, 43, 50
2, 65668, Note_off_c, 0, 76, 0
2, 65668, Note_off_c, 0, 43, 0
2, 65668, Note_off_c, 0, 47, 0
2, 65668, Note_on_c, 0, 35, 50
2, 65668, Note_on_c, 0, 83, 50
2, 65860, Note_off_c, 0, 83, 0
2, 65860, Note_off_c, 0, 35, 0
2, 65860, Note_on_c, 0, 43, 50
2, 65860, Note_on_c, 0, 76, 50
2, 65860, Note_on_c, 0, 47, 50
2, 65956, Note_off_c, 0, 76, 0
2, 65956, Note_on_c, 0, 74, 50
2, 66052, Note_off_c, 0, 74, 0
2, 66052, Note_off_c, 0, 43, 0
2, 66052, Note_off_c, 0, 47, 0
2, 66052, Note_on_c, 0, 35, 50
2, 66052, Note_on_c, 0, 76, 50
2, 66244, Note_off_c, 0, 76, 0
2, 66244, Note_off_c, 0, 35, 0
2, 66244, Note_on_c, 0, 43, 50
2, 66244, Note_on_c, 0, 47, 50
2, 66244, Note_on_c, 0, 86, 50
2, 66436, Note_off_c, 0, 86, 0
2, 66436, Note_off_c, 0, 47, 0
2, 66436, Note_off_c, 0, 43, 0
2, 66436, Note_on_c, 0, 35, 50
2, 66436, Note_on_c, 0, 83, 50
2, 66532, Note_off_c, 0, 83, 0
2, 66532, Note_on_c, 0, 81, 50
2, 66628, Note_off_c, 0, 35, 0
2, 66628, Note_off_c, 0, 81, 0
2, 66628, Note_on_c, 0, 79, 50
2, 66628, Note_on_c, 0, 43, 50
2, 66628, Note_on_c, 0, 47, 50
2, 66820, Note_off_c, 0, 47, 0
2, 66820, Note_off_c, 0, 43, 0
2, 66820, Note_off_c, 0, 79, 0
2, 66820, Note_on_c, 0, 83, 50
2, 66820, Note_on_c, 0, 35, 50
2, 67012, Note_off_c, 0, 35, 0
2, 67012, Note_on_c, 0, 47, 50
2, 67012, Note_on_c, 0, 43, 50
2, 67204, Note_off_c, 0, 47, 0
2, 67204, Note_off_c, 0, 43, 0
2, 67204, Note_on_c, 0, 35, 50
2, 67396, Note_off_c, 0, 35, 0
2, 67396, Note_on_c, 0, 47, 50
2, 67396, Note_on_c, 0, 43, 50
2, 67588, Note_off_c, 0, 43, 0
2, 67588, Note_off_c, 0, 47, 0
2, 67588, Note_on_c, 0, 35, 50
2, 67780, Note_off_c, 0, 35, 0
2, 67780, Note_on_c, 0, 43, 50
2, 67780, Note_on_c, 0, 47, 50
2, 67972, Note_off_c, 0, 47, 0
2, 67972, Note_off_c, 0, 43, 0
2, 67972, Note_on_c, 0, 35, 50
2, 68164, Note_off_c, 0, 35, 0
2, 68164, Note_on_c, 0, 47, 50
2, 68164, Note_on_c, 0, 43, 50
2, 68356, Note_off_c, 0, 43, 0
2, 68356, Note_off_c, 0, 47, 0
2, 68356, Note_off_c, 0, 83, 0
2, 68356, Note_on_c, 0, 36, 50
2, 68356, Note_on_c, 0, 76, 50
2, 68452, Note_off_c, 0, 76, 0
2, 68452, Note_on_c, 0, 74, 50
2, 68548, Note_off_c, 0, 74, 0
2, 68548, Note_off_c, 0, 36, 0
2, 68548, Note_on_c, 0, 48, 50
2, 68548, Note_on_c, 0, 76, 50
2, 68548, Note_on_c, 0, 43, 50
2, 68740, Note_off_c, 0, 48, 0
2, 68740, Note_off_c, 0, 43, 0
2, 68740, Note_off_c, 0, 76, 0
2, 68740, Note_on_c, 0, 36, 50
2, 68740, Note_on_c, 0, 83, 50
2, 68932, Note_off_c, 0, 83, 0
2, 68932, Note_off_c, 0, 36, 0
2, 68932, Note_on_c, 0, 48, 50
2, 68932, Note_on_c, 0, 43, 50
2, 68932, Note_on_c, 0, 76, 50
2, 69028, Note_off_c, 0, 76, 0
2, 69028, Note_on_c, 0, 74, 50
2, 69124, Note_off_c, 0, 74, 0
2, 69124, Note_off_c, 0, 48, 0
2, 69124, Note_off_c, 0, 43, 0
2, 69124, Note_on_c, 0, 36, 50
2, 69124, Note_on_c, 0, 76, 50
2, 69316, Note_off_c, 0, 76, 0
2, 69316, Note_off_c, 0, 36, 0
2, 69316, Note_on_c, 0, 86, 50
2, 69316, Note_on_c, 0, 43, 50
2, 69316, Note_on_c, 0, 48, 50
2, 69508, Note_off_c, 0, 48, 0
2, 69508, Note_off_c, 0, 43, 0
2, 69508, Note_off_c, 0, 86, 0
2, 69508, Note_on_c, 0, 36, 50
2, 69508, Note_on_c, 0, 83, 50
2, 69604, Note_off_c, 0, 83, 0
2, 69604, Note_on_c, 0, 81, 50
2, 69700, Note_off_c, 0, 36, 0
2, 69700, Note_off_c, 0, 81, 0
2, 69700, Note_on_c, 0, 48, 50
2, 69700, Note_on_c, 0, 43, 50
2, 69700, Note_on_c, 0, 79, 50
2, 69892, Note_off_c, 0, 43, 0
2, 69892, Note_off_c, 0, 79, 0
2, 69892, Note_off_c, 0, 48, 0
2, 69892, Note_on_c, 0, 36, 50
2, 69892, Note_on_c, 0, 76, 50
2, 70084, Note_off_c, 0, 36, 0
2, 70084, Note_on_c, 0, 43, 50
2, 70084, Note_on_c, 0, 48, 50
2, 70276, Note_off_c, 0, 48, 0
2, 70276, Note_off_c, 0, 43, 0
2, 70276, Note_on_c, 0, 36, 50
2, 70468, Note_off_c, 0, 36, 0
2, 70468, Note_on_c, 0, 43, 50
2, 70468, Note_on_c, 0, 48, 50
2, 70660, Note_off_c, 0, 48, 0
2, 70660, Note_off_c, 0, 43, 0
2, 70660, Note_on_c, 0, 36, 50
2, 70852, Note_off_c, 0, 36, 0
2, 70852, Note_on_c, 0, 43, 50
2, 70852, Note_on_c, 0, 48, 50
2, 71044, Note_off_c, 0, 48, 0
2, 71044, Note_off_c, 0, 43, 0
2, 71044, Note_on_c, 0, 36, 50
2, 71236, Note_off_c, 0, 36, 0
2, 71236, Note_on_c, 0, 48, 50
2, 71236, Note_on_c, 0, 43, 50
2, 71428, Note_off_c, 0, 76, 0
2, 71428, Note_off_c, 0, 43, 0
2, 71428, Note_off_c, 0, 48, 0
2, 71428, Note_on_c, 0, 40, 50
2, 71428, Note_on_c, 0, 76, 50
2, 71428, Note_on_c, 0, 71, 50
2, 71620, Note_off_c, 0, 40, 0
2, 71620, Note_on_c, 0, 52, 50
2, 71620, Note_on_c, 0, 47, 50
2, 71812, Note_off_c, 0, 47, 0
2, 71812, Note_off_c, 0, 52, 0
2, 71812, Note_on_c, 0, 40, 50
2, 72004, Note_off_c, 0, 40, 0
2, 72004, Note_on_c, 0, 52, 50
2, 72004, Note_on_c, 0, 47, 50
2, 72196, Note_off_c, 0, 52, 0
2, 72196, Note_off_c, 0, 47, 0
2, 72196, Note_on_c, 0, 40, 50
2, 72388, Note_off_c, 0, 40, 0
2, 72388, Note_on_c, 0, 52, 50
2, 72388, Note_on_c, 0, 47, 50
2, 72580, Note_off_c, 0, 47, 0
2, 72580, Note_off_c, 0, 52, 0
2, 72580, Note_on_c, 0, 40, 50
2, 72772, Note_off_c, 0, 40, 0
2, 72772, Note_on_c, 0, 47, 50
2, 72772, Note_on_c, 0, 52, 50
2, 72964, Note_off_c, 0, 52, 0
2, 72964, Note_off_c, 0, 47, 0
2, 72964, Note_on_c, 0, 40, 50
2, 73156, Note_off_c, 0, 40, 0
2, 73156, Note_on_c, 0, 47, 50
2, 73156, Note_on_c, 0, 52, 50
2, 73348, Note_off_c, 0, 52, 0
2, 73348, Note_off_c, 0, 76, 0
2, 73348, Note_off_c, 0, 47, 0
2, 73348, Note_off_c, 0, 71, 0
2, 73348, Note_on_c, 0, 40, 50
2, 73348, Note_on_c, 0, 76, 50
2, 73348, Note_on_c, 0, 71, 50
2, 73444, Note_off_c, 0, 71, 0
2, 73444, Note_off_c, 0, 76, 0
2, 73444, Note_on_c, 0, 74, 50
2, 73444, Note_on_c, 0, 78, 50
2, 73540, Note_off_c, 0, 40, 0
2, 73540, Note_on_c, 0, 47, 50
2, 73540, Note_on_c, 0, 52, 50
2, 73732, Note_off_c, 0, 78, 0
2, 73732, Note_off_c, 0, 47, 0
2, 73732, Note_off_c, 0, 52, 0
2, 73732, Note_off_c, 0, 74, 0
2, 73732, Note_on_c, 0, 38, 50
2, 73732, Note_on_c, 0, 79, 50
2, 73732, Note_on_c, 0, 76, 50
2, 73924, Note_off_c, 0, 76, 0
2, 73924, Note_off_c, 0, 79, 0
2, 73924, Note_off_c, 0, 38, 0
2, 73924, Note_on_c, 0, 45, 50
2, 73924, Note_on_c, 0, 50, 50
2, 73924, Note_on_c, 0, 78, 50
2, 73924, Note_on_c, 0, 74, 50
2, 74116, Note_off_c, 0, 50, 0
2, 74116, Note_off_c, 0, 78, 0
2, 74116, Note_off_c, 0, 74, 0
2, 74116, Note_off_c, 0, 45, 0
2, 74116, Note_on_c, 0, 71, 50
2, 74116, Note_on_c, 0, 38, 50
2, 74116, Note_on_c, 0, 76, 50
2, 74308, Note_off_c, 0, 76, 0
2, 74308, Note_off_c, 0, 38, 0
2, 74308, Note_off_c, 0, 71, 0
2, 74308, Note_on_c, 0, 45, 50
2, 74308, Note_on_c, 0, 50, 50
2, 74308, Note_on_c, 0, 69, 50
2, 74308, Note_on_c, 0, 74, 50
2, 74500, Note_off_c, 0, 74, 0
2, 74500, Note_off_c, 0, 69, 0
2, 74500, Note_off_c, 0, 45, 0
2, 74500, Note_off_c, 0, 50, 0
2, 74500, Note_on_c, 0, 71, 50
2, 74500, Note_on_c, 0, 76, 50
2, 74500, Note_on_c, 0, 36, 50
2, 74692, Note_off_c, 0, 36, 0
2, 74692, Note_on_c, 0, 43, 50
2, 74692, Note_on_c, 0, 48, 50
2, 74884, Note_off_c, 0, 43, 0
2, 74884, Note_off_c, 0, 48, 0
2, 74884, Note_on_c, 0, 36, 50
2, 75076, Note_off_c, 0, 36, 0
2, 75076, Note_on_c, 0, 43, 50
2, 75076, Note_on_c, 0, 48, 50
2, 75268, Note_off_c, 0, 71, 0
2, 75268, Note_off_c, 0, 48, 0
2, 75268, Note_off_c, 0, 43, 0
2, 75268, Note_off_c, 0, 76, 0
2, 75268, Note_on_c, 0, 83, 50
2, 75268, Note_on_c, 0, 76, 50
2, 75268, Note_on_c, 0, 36, 50
2, 75460, Note_off_c, 0, 36, 0
2, 75460, Note_on_c, 0, 43, 50
2, 75460, Note_on_c, 0, 48, 50
2, 75652, Note_off_c, 0, 43, 0
2, 75652, Note_off_c, 0, 48, 0
2, 75652, Note_on_c, 0, 36, 50
2, 75844, Note_off_c, 0, 36, 0
2, 75844, Note_on_c, 0, 43, 50
2, 75844, Note_on_c, 0, 48, 50
2, 76036, Note_off_c, 0, 83, 0
2, 76036, Note_off_c, 0, 48, 0
2, 76036, Note_off_c, 0, 43, 0
2, 76036, Note_off_c, 0, 76, 0
2, 76036, Note_on_c, 0, 74, 50
2, 76036, Note_on_c, 0, 38, 50
2, 76036, Note_on_c, 0, 78, 50
2, 76228, Note_off_c, 0, 38, 0
2, 76228, Note_on_c, 0, 45, 50
2, 76228, Note_on_c, 0, 50, 50
2, 76420, Note_off_c, 0, 50, 0
2, 76420, Note_off_c, 0, 45, 0
2, 76420, Note_on_c, 0, 38, 50
2, 76612, Note_off_c, 0, 38, 0
2, 76612, Note_on_c, 0, 50, 50
2, 76612, Note_on_c, 0, 45, 50
2, 76804, Note_off_c, 0, 45, 0
2, 76804, Note_off_c, 0, 50, 0
2, 76804, Note_on_c, 0, 38, 50
2, 76996, Note_off_c, 0, 38, 0
2, 76996, Note_on_c, 0, 50, 50
2, 76996, Note_on_c, 0, 45, 50
2, 77188, Note_off_c, 0, 45, 0
2, 77188, Note_off_c, 0, 50, 0
2, 77188, Note_on_c, 0, 38, 50
2, 77380, Note_off_c, 0, 78, 0
2, 77380, Note_off_c, 0, 38, 0
2, 77380, Note_off_c, 0, 74, 0
2, 77380, Note_on_c, 0, 50, 50
2, 77380, Note_on_c, 0, 74, 50
2, 77380, Note_on_c, 0, 45, 50
2, 77380, Note_on_c, 0, 69, 50
2, 77572, Note_off_c, 0, 74, 0
2, 77572, Note_off_c, 0, 50, 0
2, 77572, Note_off_c, 0, 45, 0
2, 77572, Note_off_c, 0, 69, 0
2, 77572, Note_on_c, 0, 76, 50
2, 77572, Note_on_c, 0, 71, 50
2, 77572, Note_on_c, 0, 35, 50
2, 77668, Note_off_c, 0, 71, 0
2, 77668, Note_off_c, 0, 76, 0
2, 77668, Note_on_c, 0, 69, 50
2, 77668, Note_on_c, 0, 74, 50
2, 77764, Note_off_c, 0, 35, 0
2, 77764, Note_off_c, 0, 74, 0
2, 77764, Note_off_c, 0, 69, 0
2, 77764, Note_on_c, 0, 76, 50
2, 77764, Note_on_c, 0, 43, 50
2, 77764, Note_on_c, 0, 47, 50
2, 77764, Note_on_c, 0, 71, 50
2, 77956, Note_off_c, 0, 76, 0
2, 77956, Note_off_c, 0, 71, 0
2, 77956, Note_off_c, 0, 47, 0
2, 77956, Note_off_c, 0, 43, 0
2, 77956, Note_on_c, 0, 35, 50
2, 77956, Note_on_c, 0, 76, 50
2, 77956, Note_on_c, 0, 83, 50
2, 78148, Note_off_c, 0, 83, 0
2, 78148, Note_off_c, 0, 76, 0
2, 78148, Note_off_c, 0, 35, 0
2, 78148, Note_on_c, 0, 43, 50
2, 78148, Note_on_c, 0, 47, 50
2, 78148, Note_on_c, 0, 76, 50
2, 78148, Note_on_c, 0, 71, 50
2, 78244, Note_off_c, 0, 71, 0
2, 78244, Note_off_c, 0, 76, 0
2, 78244, Note_on_c, 0, 74, 50
2, 78244, Note_on_c, 0, 69, 50
2, 78340, Note_off_c, 0, 43, 0
2, 78340, Note_off_c, 0, 47, 0
2, 78340, Note_off_c, 0, 69, 0
2, 78340, Note_off_c, 0, 74, 0
2, 78340, Note_on_c, 0, 71, 50
2, 78340, Note_on_c, 0, 76, 50
2, 78340, Note_on_c, 0, 35, 50
2, 78532, Note_off_c, 0, 71, 0
2, 78532, Note_off_c, 0, 35, 0
2, 78532, Note_off_c, 0, 76, 0
2, 78532, Note_on_c, 0, 43, 50
2, 78532, Note_on_c, 0, 47, 50
2, 78532, Note_on_c, 0, 83, 50
2, 78532, Note_on_c, 0, 86, 50
2, 78724, Note_off_c, 0, 86, 0
2, 78724, Note_off_c, 0, 83, 0
2, 78724, Note_off_c, 0, 47, 0
2, 78724, Note_off_c, 0, 43, 0
2, 78724, Note_on_c, 0, 35, 50
2, 78724, Note_on_c, 0, 83, 50
2, 78724, Note_on_c, 0, 79, 50
2, 78820, Note_off_c, 0, 79, 0
2, 78820, Note_off_c, 0, 83, 0
2, 78820, Note_on_c, 0, 81, 50
2, 78820, Note_on_c, 0, 78, 50
2, 78916, Note_off_c, 0, 35, 0
2, 78916, Note_off_c, 0, 78, 0
2, 78916, Note_off_c, 0, 81, 0
2, 78916, Note_on_c, 0, 43, 50
2, 78916, Note_on_c, 0, 47, 50
2, 78916, Note_on_c, 0, 76, 50
2, 78916, Note_on_c, 0, 79, 50
2, 79108, Note_off_c, 0, 47, 0
2, 79108, Note_off_c, 0, 43, 0
2, 79108, Note_off_c, 0, 76, 0
2, 79108, Note_off_c, 0, 79, 0
2, 79108, Note_on_c, 0, 78, 50
2, 79108, Note_on_c, 0, 83, 50
2, 79108, Note_on_c, 0, 35, 50
2, 79300, Note_off_c, 0, 35, 0
2, 79300, Note_on_c, 0, 47, 50
2, 79300, Note_on_c, 0, 43, 50
2, 79492, Note_off_c, 0, 47, 0
2, 79492, Note_off_c, 0, 43, 0
2, 79492, Note_on_c, 0, 35, 50
2, 79684, Note_off_c, 0, 35, 0
2, 79684, Note_on_c, 0, 47, 50
2, 79684, Note_on_c, 0, 43, 50
2, 79876, Note_off_c, 0, 43, 0
2, 79876, Note_off_c, 0, 47, 0
2, 79876, Note_on_c, 0, 35, 50
2, 80068, Note_off_c, 0, 35, 0
2, 80068, Note_on_c, 0, 43, 50
2, 80068, Note_on_c, 0, 47, 50
2, 80260, Note_off_c, 0, 47, 0
2, 80260, Note_off_c, 0, 43, 0
2, 80260, Note_on_c, 0, 35, 50
2, 80452, Note_off_c, 0, 35, 0
2, 80452, Note_on_c, 0, 47, 50
2, 80452, Note_on_c, 0, 43, 50
2, 80644, Note_off_c, 0, 43, 0
2, 80644, Note_off_c, 0, 47, 0
2, 80644, Note_off_c, 0, 78, 0
2, 80644, Note_off_c, 0, 83, 0
2, 80644, Note_on_c, 0, 76, 50
2, 80644, Note_on_c, 0, 71, 50
2, 80644, Note_on_c, 0, 36, 50
2, 80740, Note_off_c, 0, 71, 0
2, 80740, Note_off_c, 0, 76, 0
2, 80740, Note_on_c, 0, 69, 50
2, 80740, Note_on_c, 0, 74, 50
2, 80836, Note_off_c, 0, 36, 0
2, 80836, Note_off_c, 0, 74, 0
2, 80836, Note_off_c, 0, 69, 0
2, 80836, Note_on_c, 0, 76, 50
2, 80836, Note_on_c, 0, 48, 50
2, 80836, Note_on_c, 0, 43, 50
2, 80836, Note_on_c, 0, 71, 50
2, 81028, Note_off_c, 0, 76, 0
2, 81028, Note_off_c, 0, 71, 0
2, 81028, Note_off_c, 0, 43, 0
2, 81028, Note_off_c, 0, 48, 0
2, 81028, Note_on_c, 0, 76, 50
2, 81028, Note_on_c, 0, 36, 50
2, 81028, Note_on_c, 0, 83, 50
2, 81220, Note_off_c, 0, 36, 0
2, 81220, Note_off_c, 0, 76, 0
2, 81220, Note_off_c, 0, 83, 0
2, 81220, Note_on_c, 0, 71, 50
2, 81220, Note_on_c, 0, 48, 50
2, 81220, Note_on_c, 0, 76, 50
2, 81220, Note_on_c, 0, 43, 50
2, 81316, Note_off_c, 0, 76, 0
2, 81316, Note_off_c, 0, 71, 0
2, 81316, Note_on_c, 0, 69, 50
2, 81316, Note_on_c, 0, 74, 50
2, 81412, Note_off_c, 0, 43, 0
2, 81412, Note_off_c, 0, 74, 0
2, 81412, Note_off_c, 0, 69, 0
2, 81412, Note_off_c, 0, 48, 0
2, 81412, Note_on_c, 0, 71, 50
2, 81412, Note_on_c, 0, 76, 50
2, 81412, Note_on_c, 0, 36, 50
2, 81604, Note_off_c, 0, 36, 0
2, 81604, Note_off_c, 0, 76, 0
2, 81604, Note_off_c, 0, 71, 0
2, 81604, Note_on_c, 0, 43, 50
2, 81604, Note_on_c, 0, 83, 50
2, 81604, Note_on_c, 0, 86, 50
2, 81604, Note_on_c, 0, 48, 50
2, 81796, Note_off_c, 0, 43, 0
2, 81796, Note_off_c, 0, 48, 0
2, 81796, Note_off_c, 0, 86, 0
2, 81796, Note_off_c, 0, 83, 0
2, 81796, Note_on_c, 0, 83, 50
2, 81796, Note_on_c, 0, 79, 50
2, 81796, Note_on_c, 0, 36, 50
2, 81892, Note_off_c, 0, 83, 0
2, 81892, Note_off_c, 0, 79, 0
2, 81892, Note_on_c, 0, 78, 50
2, 81892, Note_on_c, 0, 81, 50
2, 81988, Note_off_c, 0, 36, 0
2, 81988, Note_off_c, 0, 81, 0
2, 81988, Note_off_c, 0, 78, 0
2, 81988, Note_on_c, 0, 43, 50
2, 81988, Note_on_c, 0, 76, 50
2, 81988, Note_on_c, 0, 79, 50
2, 81988, Note_on_c, 0, 48, 50
2, 82180, Note_off_c, 0, 48, 0
2, 82180, Note_off_c, 0, 76, 0
2, 82180, Note_off_c, 0, 43, 0
2, 82180, Note_off_c, 0, 79, 0
2, 82180, Note_on_c, 0, 71, 50
2, 82180, Note_on_c, 0, 76, 50
2, 82180, Note_on_c, 0, 36, 50
2, 82372, Note_off_c, 0, 36, 0
2, 82372, Note_on_c, 0, 48, 50
2, 82372, Note_on_c, 0, 43, 50
2, 82564, Note_off_c, 0, 43, 0
2, 82564, Note_off_c, 0, 48, 0
2, 82564, Note_on_c, 0, 36, 50
2, 82756, Note_off_c, 0, 36, 0
2, 82756, Note_on_c, 0, 48, 50
2, 82756, Note_on_c, 0, 43, 50
2, 82948, Note_off_c, 0, 43, 0
2, 82948, Note_off_c, 0, 48, 0
2, 82948, Note_on_c, 0, 36, 50
2, 83140, Note_off_c, 0, 36, 0
2, 83140, Note_on_c, 0, 48, 50
2, 83140, Note_on_c, 0, 43, 50
2, 83332, Note_off_c, 0, 43, 0
2, 83332, Note_off_c, 0, 76, 0
2, 83332, Note_off_c, 0, 48, 0
2, 83332, Note_on_c, 0, 74, 50
2, 83332, Note_on_c, 0, 36, 50
2, 83524, Note_off_c, 0, 36, 0
2, 83524, Note_on_c, 0, 48, 50
2, 83524, Note_on_c, 0, 43, 50
2, 83716, Note_off_c, 0, 43, 0
2, 83716, Note_off_c, 0, 71, 0
2, 83716, Note_off_c, 0, 48, 0
2, 83716, Note_off_c, 0, 74, 0
2, 83716, Note_on_c, 0, 40, 50
2, 83716, Note_on_c, 0, 48, 50
2, 83716, Note_on_c, 0, 52, 50
2, 83716, Note_on_c, 0, 72, 50
2, 83716, Note_on_c, 0, 60, 50
2, 84004, Note_off_c, 0, 72, 0
2, 84004, Note_off_c, 0, 60, 0
2, 84004, Note_on_c, 0, 64, 50
2, 84004, Note_on_c, 0, 76, 50
2, 84292, Note_off_c, 0, 76, 0
2, 84292, Note_off_c, 0, 64, 0
2, 84292, Note_on_c, 0, 79, 50
2, 84292, Note_on_c, 0, 67, 50
2, 84484, Note_off_c, 0, 79, 0
2, 84484, Note_off_c, 0, 67, 0
2, 84484, Note_on_c, 0, 66, 50
2, 84484, Note_on_c, 0, 78, 50
2, 84772, Note_off_c, 0, 78, 0
2, 84772, Note_off_c, 0, 66, 0
2, 84772, Note_on_c, 0, 64, 50
2, 84772, Note_on_c, 0, 76, 50
2, 85060, Note_off_c, 0, 76, 0
2, 85060, Note_off_c, 0, 64, 0
2, 85060, Note_on_c, 0, 62, 50
2, 85060, Note_on_c, 0, 74, 50
2, 85252, Note_off_c, 0, 74, 0
2, 85252, Note_off_c, 0, 40, 0
2, 85252, Note_off_c, 0, 52, 0
2, 85252, Note_off_c, 0, 48, 0
2, 85252, Note_off_c, 0, 62, 0
2, 85252, Note_on_c, 0, 47, 50
2, 85252, Note_on_c, 0, 64, 50
2, 85252, Note_on_c, 0, 40, 50
2, 85252, Note_on_c, 0, 76, 50
2, 85252, Note_on_c, 0, 52, 50
2, 86788, Note_off_c, 0, 47, 0
2, 86788, Note_off_c, 0, 40, 0
2, 86788, Note_off_c, 0, 52, 0
2, 86788, Note_off_c, 0, 76, 0
2, 86788, Note_off_c, 0, 64, 0
2, 86788, Note_on_c, 0, 43, 50
2, 86788, Note_on_c, 0, 72, 50
2, 86788, Note_on_c, 0, 40, 50
2, 86788, Note_on_c, 0, 60, 50
2, 86788, Note_on_c, 0, 52, 50
2, 87076, Note_off_c, 0, 72, 0
2, 87076, Note_off_c, 0, 60, 0
2, 87076, Note_on_c, 0, 64, 50
2, 87076, Note_on_c, 0, 76, 50
2, 87364, Note_off_c, 0, 76, 0
2, 87364, Note_off_c, 0, 64, 0
2, 87364, Note_on_c, 0, 79, 50
2, 87364, Note_on_c, 0, 67, 50
2, 87556, Note_off_c, 0, 67, 0
2, 87556, Note_off_c, 0, 79, 0
2, 87556, Note_on_c, 0, 66, 50
2, 87556, Note_on_c, 0, 78, 50
2, 87844, Note_off_c, 0, 78, 0
2, 87844, Note_off_c, 0, 66, 0
2, 87844, Note_on_c, 0, 67, 50
2, 87844, Note_on_c, 0, 79, 50
2, 88132, Note_off_c, 0, 79, 0
2, 88132, Note_off_c, 0, 67, 0
2, 88132, Note_on_c, 0, 69, 50
2, 88132, Note_on_c, 0, 81, 50
2, 88324, Note_off_c, 0, 52, 0
2, 88324, Note_off_c, 0, 40, 0
2, 88324, Note_off_c, 0, 43, 0
2, 88324, Note_off_c, 0, 81, 0
2, 88324, Note_off_c, 0, 69, 0
2, 88324, Note_on_c, 0, 64, 50
2, 88324, Note_on_c, 0, 76, 50
2, 88324, Note_on_c, 0, 52, 50
2, 88324, Note_on_c, 0, 47, 50
2, 88324, Note_on_c, 0, 40, 50
2, 89860, Note_off_c, 0, 76, 0
2, 89860, Note_off_c, 0, 40, 0
2, 89860, Note_off_c, 0, 52, 0
2, 89860, Note_off_c, 0, 47, 0
2, 89860, Note_off_c, 0, 64, 0
2, 89860, Note_on_c, 0, 48, 50
2, 89860, Note_on_c, 0, 60, 50
2, 89860, Note_on_c, 0, 52, 50
2, 89860, Note_on_c, 0, 40, 50
2, 89860, Note_on_c, 0, 72, 50
2, 90148, Note_off_c, 0, 72, 0
2, 90148, Note_off_c, 0, 60, 0
2, 90148, Note_on_c, 0, 64, 50
2, 90148, Note_on_c, 0, 76, 50
2, 90436, Note_off_c, 0, 76, 0
2, 90436, Note_off_c, 0, 64, 0
2, 90436, Note_on_c, 0, 67, 50
2, 90436, Note_on_c, 0, 79, 50
2, 90628, Note_off_c, 0, 67, 0
2, 90628, Note_off_c, 0, 79, 0
2, 90628, Note_on_c, 0, 78, 50
2, 90628, Note_on_c, 0, 66, 50
2, 90916, Note_off_c, 0, 66, 0
2, 90916, Note_off_c, 0, 78, 0
2, 90916, Note_on_c, 0, 76, 50
2, 90916, Note_on_c, 0, 64, 50
2, 91204, Note_off_c, 0, 64, 0
2, 91204, Note_off_c, 0, 76, 0
2, 91204, Note_on_c, 0, 74, 50
2, 91204, Note_on_c, 0, 62, 50
2, 91396, Note_off_c, 0, 74, 0
2, 91396, Note_off_c, 0, 48, 0
2, 91396, Note_off_c, 0, 62, 0
2, 91396, Note_off_c, 0, 52, 0
2, 91396, Note_off_c, 0, 40, 0
2, 91396, Note_on_c, 0, 40, 50
2, 91396, Note_on_c, 0, 47, 50
2, 91396, Note_on_c, 0, 52, 50
2, 91396, Note_on_c, 0, 76, 50
2, 91396, Note_on_c, 0, 64, 50
2, 92932, Note_off_c, 0, 40, 0
2, 92932, Note_off_c, 0, 76, 0
2, 92932, Note_off_c, 0, 52, 0
2, 92932, Note_off_c, 0, 47, 0
2, 92932, Note_off_c, 0, 64, 0
2, 92932, Note_on_c, 0, 52, 50
2, 92932, Note_on_c, 0, 40, 50
2, 92932, Note_on_c, 0, 72, 50
2, 92932, Note_on_c, 0, 43, 50
2, 92932, Note_on_c, 0, 60, 50
2, 93220, Note_off_c, 0, 60, 0
2, 93220, Note_off_c, 0, 72, 0
2, 93220, Note_on_c, 0, 64, 50
2, 93220, Note_on_c, 0, 76, 50
2, 93508, Note_off_c, 0, 64, 0
2, 93508, Note_off_c, 0, 76, 0
2, 93508, Note_on_c, 0, 67, 50
2, 93508, Note_on_c, 0, 79, 50
2, 93700, Note_off_c, 0, 40, 0
2, 93700, Note_off_c, 0, 43, 0
2, 93700, Note_off_c, 0, 79, 0
2, 93700, Note_off_c, 0, 67, 0
2, 93700, Note_off_c, 0, 52, 0
2, 93700, Note_on_c, 0, 43, 50
2, 93700, Note_on_c, 0, 78, 50
2, 93700, Note_on_c, 0, 66, 50
2, 93700, Note_on_c, 0, 52, 50
2, 93700, Note_on_c, 0, 40, 50
2, 93892, Note_off_c, 0, 40, 0
2, 93892, Note_off_c, 0, 52, 0
2, 93892, Note_off_c, 0, 43, 0
2, 93988, Note_off_c, 0, 78, 0
2, 93988, Note_off_c, 0, 66, 0
2, 93988, Note_on_c, 0, 79, 50
2, 93988, Note_on_c, 0, 67, 50
2, 93988, Note_on_c, 0, 40, 50
2, 93988, Note_on_c, 0, 43, 50
2, 93988, Note_on_c, 0, 52, 50
2, 94180, Note_off_c, 0, 52, 0
2, 94180, Note_off_c, 0, 40, 0
2, 94180, Note_off_c, 0, 43, 0
2, 94276, Note_off_c, 0, 67, 0
2, 94276, Note_off_c, 0, 79, 0
2, 94276, Note_on_c, 0, 40, 50
2, 94276, Note_on_c, 0, 52, 50
2, 94276, Note_on_c, 0, 69, 50
2, 94276, Note_on_c, 0, 81, 50
2, 94276, Note_on_c, 0, 43, 50
2, 94468, Note_off_c, 0, 43, 0
2, 94468, Note_off_c, 0, 81, 0
2, 94468, Note_off_c, 0, 40, 0
2, 94468, Note_off_c, 0, 69, 0
2, 94468, Note_off_c, 0, 52, 0
2, 94468, Note_on_c, 0, 55, 50
2, 94468, Note_on_c, 0, 47, 50
2, 94468, Note_on_c, 0, 43, 50
2, 94468, Note_on_c, 0, 71, 50
2, 94468, Note_on_c, 0, 83, 50
2, 94660, Note_off_c, 0, 55, 0
2, 94660, Note_off_c, 0, 43, 0
2, 94660, Note_off_c, 0, 47, 0
2, 94756, Note_on_c, 0, 55, 50
2, 94756, Note_on_c, 0, 43, 50
2, 94756, Note_on_c, 0, 47, 50
2, 94948, Note_off_c, 0, 55, 0
2, 94948, Note_off_c, 0, 47, 0
2, 94948, Note_off_c, 0, 43, 0
2, 95044, Note_on_c, 0, 47, 50
2, 95044, Note_on_c, 0, 55, 50
2, 95044, Note_on_c, 0, 43, 50
2, 95236, Note_off_c, 0, 43, 0
2, 95236, Note_off_c, 0, 55, 0
2, 95236, Note_off_c, 0, 47, 0
2, 95236, Note_on_c, 0, 47, 50
2, 95236, Note_on_c, 0, 55, 50
2, 95236, Note_on_c, 0, 43, 50
2, 95428, Note_off_c, 0, 43, 0
2, 95428, Note_off_c, 0, 55, 0
2, 95428, Note_off_c, 0, 47, 0
2, 95524, Note_on_c, 0, 47, 50
2, 95524, Note_on_c, 0, 43, 50
2, 95524, Note_on_c, 0, 55, 50
2, 95716, Note_off_c, 0, 55, 0
2, 95716, Note_off_c, 0, 43, 0
2, 95716, Note_off_c, 0, 47, 0
2, 95812, Note_off_c, 0, 83, 0
2, 95812, Note_off_c, 0, 71, 0
2, 95812, Note_on_c, 0, 43, 50
2, 95812, Note_on_c, 0, 81, 50
2, 95812, Note_on_c, 0, 47, 50
2, 95812, Note_on_c, 0, 55, 50
2, 95908, Note_off_c, 0, 81, 0
2, 95908, Note_on_c, 0, 79, 50
2, 96004, Note_off_c, 0, 43, 0
2, 96004, Note_off_c, 0, 55, 0
2, 96004, Note_off_c, 0, 47, 0
2, 96004, Note_off_c, 0, 79, 0
2, 96004, Note_on_c, 0, 40, 50
2, 96004, Note_on_c, 0, 81, 50
2, 96004, Note_on_c, 0, 69, 50
2, 96196, Note_off_c, 0, 40, 0
2, 96196, Note_on_c, 0, 45, 50
2, 96196, Note_on_c, 0, 52, 50
2, 96388, Note_off_c, 0, 52, 0
2, 96388, Note_off_c, 0, 45, 0
2, 96388, Note_on_c, 0, 40, 50
2, 96580, Note_off_c, 0, 40, 0
2, 96580, Note_on_c, 0, 45, 50
2, 96580, Note_on_c, 0, 52, 50
2, 96772, Note_off_c, 0, 81, 0
2, 96772, Note_off_c, 0, 52, 0
2, 96772, Note_off_c, 0, 45, 0
2, 96772, Note_off_c, 0, 69, 0
2, 96772, Note_on_c, 0, 66, 50
2, 96772, Note_on_c, 0, 40, 50
2, 96772, Note_on_c, 0, 78, 50
2, 96964, Note_off_c, 0, 78, 0
2, 96964, Note_off_c, 0, 66, 0
2, 96964, Note_off_c, 0, 40, 0
2, 96964, Note_on_c, 0, 79, 50
2, 96964, Note_on_c, 0, 67, 50
2, 96964, Note_on_c, 0, 52, 50
2, 96964, Note_on_c, 0, 45, 50
2, 97156, Note_off_c, 0, 45, 0
2, 97156, Note_off_c, 0, 52, 0
2, 97156, Note_off_c, 0, 67, 0
2, 97156, Note_off_c, 0, 79, 0
2, 97156, Note_on_c, 0, 69, 50
2, 97156, Note_on_c, 0, 40, 50
2, 97156, Note_on_c, 0, 81, 50
2, 97348, Note_off_c, 0, 81, 0
2, 97348, Note_off_c, 0, 69, 0
2, 97348, Note_off_c, 0, 40, 0
2, 97348, Note_on_c, 0, 66, 50
2, 97348, Note_on_c, 0, 52, 50
2, 97348, Note_on_c, 0, 78, 50
2, 97348, Note_on_c, 0, 45, 50
2, 97540, Note_off_c, 0, 45, 0
2, 97540, Note_off_c, 0, 78, 0
2, 97540, Note_off_c, 0, 52, 0
2, 97540, Note_off_c, 0, 66, 0
2, 97540, Note_on_c, 0, 79, 50
2, 97540, Note_on_c, 0, 38, 50
2, 97540, Note_on_c, 0, 67, 50
2, 97732, Note_off_c, 0, 38, 0
2, 97732, Note_on_c, 0, 43, 50
2, 97732, Note_on_c, 0, 50, 50
2, 97924, Note_off_c, 0, 50, 0
2, 97924, Note_off_c, 0, 43, 0
2, 97924, Note_on_c, 0, 38, 50
2, 98116, Note_off_c, 0, 38, 0
2, 98116, Note_on_c, 0, 43, 50
2, 98116, Note_on_c, 0, 50, 50
2, 98308, Note_off_c, 0, 43, 0
2, 98308, Note_off_c, 0, 67, 0
2, 98308, Note_off_c, 0, 50, 0
2, 98308, Note_off_c, 0, 79, 0
2, 98308, Note_on_c, 0, 38, 50
2, 98308, Note_on_c, 0, 76, 50
2, 98308, Note_on_c, 0, 64, 50
2, 98500, Note_off_c, 0, 38, 0
2, 98500, Note_on_c, 0, 50, 50
2, 98500, Note_on_c, 0, 43, 50
2, 98692, Note_off_c, 0, 43, 0
2, 98692, Note_off_c, 0, 76, 0
2, 98692, Note_off_c, 0, 50, 0
2, 98692, Note_off_c, 0, 64, 0
2, 98692, Note_on_c, 0, 38, 50
2, 98692, Note_on_c, 0, 79, 50
2, 98692, Note_on_c, 0, 67, 50
2, 98884, Note_off_c, 0, 38, 0
2, 98884, Note_on_c, 0, 43, 50
2, 98884, Note_on_c, 0, 50, 50
2, 99076, Note_off_c, 0, 67, 0
2, 99076, Note_off_c, 0, 50, 0
2, 99076, Note_off_c, 0, 43, 0
2, 99076, Note_off_c, 0, 79, 0
2, 99076, Note_on_c, 0, 66, 50
2, 99076, Note_on_c, 0, 38, 50
2, 99076, Note_on_c, 0, 78, 50
2, 99268, Note_off_c, 0, 38, 0
2, 99268, Note_on_c, 0, 42, 50
2, 99268, Note_on_c, 0, 50, 50
2, 99460, Note_off_c, 0, 78, 0
2, 99460, Note_off_c, 0, 50, 0
2, 99460, Note_off_c, 0, 66, 0
2, 99460, Note_off_c, 0, 42, 0
2, 99460, Note_on_c, 0, 67, 50
2, 99460, Note_on_c, 0, 79, 50
2, 99460, Note_on_c, 0, 38, 50
2, 99652, Note_off_c, 0, 38, 0
2, 99652, Note_off_c, 0, 79, 0
2, 99652, Note_off_c, 0, 67, 0
2, 99652, Note_on_c, 0, 81, 50
2, 99652, Note_on_c, 0, 42, 50
2, 99652, Note_on_c, 0, 69, 50
2, 99652, Note_on_c, 0, 50, 50
2, 99844, Note_off_c, 0, 42, 0
2, 99844, Note_off_c, 0, 50, 0
2, 99844, Note_on_c, 0, 38, 50
2, 100036, Note_off_c, 0, 81, 0
2, 100036, Note_off_c, 0, 69, 0
2, 100036, Note_off_c, 0, 38, 0
2, 100036, Note_on_c, 0, 42, 50
2, 100036, Note_on_c, 0, 50, 50
2, 100036, Note_on_c, 0, 67, 50
2, 100036, Note_on_c, 0, 79, 50
2, 100228, Note_off_c, 0, 79, 0
2, 100228, Note_off_c, 0, 67, 0
2, 100228, Note_off_c, 0, 50, 0
2, 100228, Note_off_c, 0, 42, 0
2, 100228, Note_on_c, 0, 78, 50
2, 100228, Note_on_c, 0, 66, 50
2, 100228, Note_on_c, 0, 38, 50
2, 100420, Note_off_c, 0, 38, 0
2, 100420, Note_on_c, 0, 42, 50
2, 100420, Note_on_c, 0, 50, 50
2, 100612, Note_off_c, 0, 78, 0
2, 100612, Note_off_c, 0, 50, 0
2, 100612, Note_off_c, 0, 66, 0
2, 100612, Note_off_c, 0, 42, 0
2, 100612, Note_on_c, 0, 38, 50
2, 100612, Note_on_c, 0, 67, 50
2, 100612, Note_on_c, 0, 79, 50
2, 100804, Note_off_c, 0, 38, 0
2, 100804, Note_on_c, 0, 43, 50
2, 100804, Note_on_c, 0, 50, 50
2, 100996, Note_off_c, 0, 43, 0
2, 100996, Note_off_c, 0, 50, 0
2, 100996, Note_on_c, 0, 38, 50
2, 101188, Note_off_c, 0, 38, 0
2, 101188, Note_on_c, 0, 50, 50
2, 101188, Note_on_c, 0, 43, 50
2, 101380, Note_off_c, 0, 67, 0
2, 101380, Note_off_c, 0, 43, 0
2, 101380, Note_off_c, 0, 50, 0
2, 101380, Note_off_c, 0, 79, 0
2, 101380, Note_on_c, 0, 76, 50
2, 101380, Note_on_c, 0, 64, 50
2, 101380, Note_on_c, 0, 38, 50
2, 101572, Note_off_c, 0, 38, 0
2, 101572, Note_on_c, 0, 50, 50
2, 101572, Note_on_c, 0, 43, 50
2, 101764, Note_off_c, 0, 76, 0
2, 101764, Note_off_c, 0, 50, 0
2, 101764, Note_off_c, 0, 43, 0
2, 101764, Note_off_c, 0, 64, 0
2, 101764, Note_on_c, 0, 67, 50
2, 101764, Note_on_c, 0, 79, 50
2, 101764, Note_on_c, 0, 38, 50
2, 101956, Note_off_c, 0, 38, 0
2, 101956, Note_on_c, 0, 50, 50
2, 101956, Note_on_c, 0, 43, 50
2, 102148, Note_off_c, 0, 43, 0
2, 102148, Note_off_c, 0, 50, 0
2, 102148, Note_off_c, 0, 67, 0
2, 102148, Note_off_c, 0, 79, 0
2, 102148, Note_on_c, 0, 69, 50
2, 102148, Note_on_c, 0, 81, 50
2, 102148, Note_on_c, 0, 40, 50
2, 102340, Note_off_c, 0, 40, 0
2, 102340, Note_on_c, 0, 52, 50
2, 102340, Note_on_c, 0, 45, 50
2, 102532, Note_off_c, 0, 45, 0
2, 102532, Note_off_c, 0, 52, 0
2, 102532, Note_on_c, 0, 40, 50
2, 102724, Note_off_c, 0, 40, 0
2, 102724, Note_on_c, 0, 45, 50
2, 102724, Note_on_c, 0, 52, 50
2, 102916, Note_off_c, 0, 69, 0
2, 102916, Note_off_c, 0, 45, 0
2, 102916, Note_off_c, 0, 52, 0
2, 102916, Note_off_c, 0, 81, 0
2, 102916, Note_on_c, 0, 40, 50
2, 102916, Note_on_c, 0, 78, 50
2, 102916, Note_on_c, 0, 66, 50
2, 103108, Note_off_c, 0, 66, 0
2, 103108, Note_off_c, 0, 78, 0
2, 103108, Note_off_c, 0, 40, 0
2, 103108, Note_on_c, 0, 67, 50
2, 103108, Note_on_c, 0, 79, 50
2, 103108, Note_on_c, 0, 52, 50
2, 103108, Note_on_c, 0, 45, 50
2, 103300, Note_off_c, 0, 45, 0
2, 103300, Note_off_c, 0, 52, 0
2, 103300, Note_off_c, 0, 67, 0
2, 103300, Note_off_c, 0, 79, 0
2, 103300, Note_on_c, 0, 69, 50
2, 103300, Note_on_c, 0, 81, 50
2, 103300, Note_on_c, 0, 40, 50
2, 103492, Note_off_c, 0, 40, 0
2, 103492, Note_off_c, 0, 81, 0
2, 103492, Note_off_c, 0, 69, 0
2, 103492, Note_on_c, 0, 78, 50
2, 103492, Note_on_c, 0, 45, 50
2, 103492, Note_on_c, 0, 52, 50
2, 103492, Note_on_c, 0, 66, 50
2, 103684, Note_off_c, 0, 78, 0
2, 103684, Note_off_c, 0, 66, 0
2, 103684, Note_off_c, 0, 52, 0
2, 103684, Note_off_c, 0, 45, 0
2, 103684, Note_on_c, 0, 38, 50
2, 103684, Note_on_c, 0, 67, 50
2, 103684, Note_on_c, 0, 79, 50
2, 103876, Note_off_c, 0, 38, 0
2, 103876, Note_on_c, 0, 43, 50
2, 103876, Note_on_c, 0, 50, 50
2, 104068, Note_off_c, 0, 50, 0
2, 104068, Note_off_c, 0, 43, 0
2, 104068, Note_on_c, 0, 38, 50
2, 104260, Note_off_c, 0, 38, 0
2, 104260, Note_on_c, 0, 50, 50
2, 104260, Note_on_c, 0, 43, 50
2, 104452, Note_off_c, 0, 50, 0
2, 104452, Note_off_c, 0, 79, 0
2, 104452, Note_off_c, 0, 43, 0
2, 104452, Note_off_c, 0, 67, 0
2, 104452, Note_on_c, 0, 76, 50
2, 104452, Note_on_c, 0, 38, 50
2, 104452, Note_on_c, 0, 64, 50
2, 104644, Note_off_c, 0, 38, 0
2, 104644, Note_on_c, 0, 50, 50
2, 104644, Note_on_c, 0, 43, 50
2, 104836, Note_off_c, 0, 64, 0
2, 104836, Note_off_c, 0, 76, 0
2, 104836, Note_off_c, 0, 43, 0
2, 104836, Note_off_c, 0, 50, 0
2, 104836, Note_on_c, 0, 67, 50
2, 104836, Note_on_c, 0, 79, 50
2, 104836, Note_on_c, 0, 38, 50
2, 105028, Note_off_c, 0, 38, 0
2, 105028, Note_on_c, 0, 43, 50
2, 105028, Note_on_c, 0, 50, 50
2, 105220, Note_off_c, 0, 67, 0
2, 105220, Note_off_c, 0, 50, 0
2, 105220, Note_off_c, 0, 43, 0
2, 105220, Note_off_c, 0, 79, 0
2, 105220, Note_on_c, 0, 81, 50
2, 105220, Note_on_c, 0, 69, 50
2, 105220, Note_on_c, 0, 40, 50
2, 105412, Note_off_c, 0, 40, 0
2, 105412, Note_on_c, 0, 45, 50
2, 105412, Note_on_c, 0, 52, 50
2, 105604, Note_off_c, 0, 52, 0
2, 105604, Note_off_c, 0, 45, 0
2, 105604, Note_on_c, 0, 40, 50
2, 105796, Note_off_c, 0, 40, 0
2, 105796, Note_on_c, 0, 52, 50
2, 105796, Note_on_c, 0, 45, 50
2, 105988, Note_off_c, 0, 45, 0
2, 105988, Note_off_c, 0, 52, 0
2, 105988, Note_on_c, 0, 40, 50
2, 106180, Note_off_c, 0, 40, 0
2, 106180, Note_on_c, 0, 52, 50
2, 106180, Note_on_c, 0, 45, 50
2, 106372, Note_off_c, 0, 81, 0
2, 106372, Note_off_c, 0, 69, 0
2, 106372, Note_off_c, 0, 52, 0
2, 106372, Note_off_c, 0, 45, 0
2, 106372, Note_on_c, 0, 83, 50
2, 106372, Note_on_c, 0, 40, 50
2, 106372, Note_on_c, 0, 71, 50
2, 106564, Note_off_c, 0, 40, 0
2, 106564, Note_on_c, 0, 45, 50
2, 106564, Note_on_c, 0, 52, 50
2, 106756, Note_off_c, 0, 52, 0
2, 106756, Note_off_c, 0, 71, 0
2, 106756, Note_off_c, 0, 45, 0
2, 106756, Note_off_c, 0, 83, 0
2, 106756, Note_on_c, 0, 42, 50
2, 106756, Note_on_c, 0, 72, 50
2, 106756, Note_on_c, 0, 84, 50
2, 106948, Note_off_c, 0, 42, 0
2, 106948, Note_on_c, 0, 45, 50
2, 106948, Note_on_c, 0, 54, 50
2, 107044, Note_off_c, 0, 72, 0
2, 107044, Note_off_c, 0, 84, 0
2, 107044, Note_on_c, 0, 81, 50
2, 107044, Note_on_c, 0, 69, 50
2, 107140, Note_off_c, 0, 45, 0
2, 107140, Note_off_c, 0, 54, 0
2, 107140, Note_on_c, 0, 42, 50
2, 107332, Note_off_c, 0, 69, 0
2, 107332, Note_off_c, 0, 81, 0
2, 107332, Note_off_c, 0, 42, 0
2, 107332, Note_on_c, 0, 54, 50
2, 107332, Note_on_c, 0, 45, 50
2, 107332, Note_on_c, 0, 84, 50
2, 107332, Note_on_c, 0, 72, 50
2, 107524, Note_off_c, 0, 45, 0
2, 107524, Note_off_c, 0, 84, 0
2, 107524, Note_off_c, 0, 72, 0
2, 107524, Note_off_c, 0, 54, 0
2, 107524, Note_on_c, 0, 74, 50
2, 107524, Note_on_c, 0, 86, 50
2, 107524, Note_on_c, 0, 42, 50
2, 107716, Note_off_c, 0, 42, 0
2, 107716, Note_on_c, 0, 50, 50
2, 107716, Note_on_c, 0, 54, 50
2, 107812, Note_off_c, 0, 86, 0
2, 107812, Note_off_c, 0, 74, 0
2, 107812, Note_on_c, 0, 71, 50
2, 107812, Note_on_c, 0, 83, 50
2, 107908, Note_off_c, 0, 54, 0
2, 107908, Note_off_c, 0, 50, 0
2, 107908, Note_on_c, 0, 42, 50
2, 108100, Note_off_c, 0, 83, 0
2, 108100, Note_off_c, 0, 71, 0
2, 108100, Note_off_c, 0, 42, 0
2, 108100, Note_on_c, 0, 50, 50
2, 108100, Note_on_c, 0, 66, 50
2, 108100, Note_on_c, 0, 78, 50
2, 108100, Note_on_c, 0, 54, 50
2, 108292, Note_off_c, 0, 66, 0
2, 108292, Note_off_c, 0, 50, 0
2, 108292, Note_off_c, 0, 78, 0
2, 108292, Note_off_c, 0, 54, 0
2, 108292, Note_on_c, 0, 43, 50
2, 108292, Note_on_c, 0, 79, 50
2, 108292, Note_on_c, 0, 67, 50
2, 108484, Note_off_c, 0, 67, 0
2, 108484, Note_off_c, 0, 79, 0
2, 108484, Note_off_c, 0, 43, 0
2, 108484, Note_on_c, 0, 50, 50
2, 108484, Note_on_c, 0, 74, 50
2, 108484, Note_on_c, 0, 62, 50
2, 108484, Note_on_c, 0, 55, 50
2, 108676, Note_off_c, 0, 50, 0
2, 108676, Note_off_c, 0, 55, 0
2, 108676, Note_on_c, 0, 43, 50
2, 108868, Note_off_c, 0, 43, 0
2, 108868, Note_off_c, 0, 74, 0
2, 108868, Note_off_c, 0, 62, 0
2, 108868, Note_on_c, 0, 50, 50
2, 108868, Note_on_c, 0, 55, 50
2, 108868, Note_on_c, 0, 67, 50
2, 108868, Note_on_c, 0, 79, 50
2, 109060, Note_off_c, 0, 50, 0
2, 109060, Note_off_c, 0, 55, 0
2, 109060, Note_on_c, 0, 43, 50
2, 109252, Note_off_c, 0, 43, 0
2, 109252, Note_off_c, 0, 67, 0
2, 109252, Note_off_c, 0, 79, 0
2, 109252, Note_on_c, 0, 69, 50
2, 109252, Note_on_c, 0, 55, 50
2, 109252, Note_on_c, 0, 50, 50
2, 109252, Note_on_c, 0, 81, 50
2, 109444, Note_off_c, 0, 81, 0
2, 109444, Note_off_c, 0, 50, 0
2, 109444, Note_off_c, 0, 55, 0
2, 109444, Note_off_c, 0, 69, 0
2, 109444, Note_on_c, 0, 70, 50
2, 109444, Note_on_c, 0, 43, 50
2, 109444, Note_on_c, 0, 82, 50
2, 109636, Note_off_c, 0, 82, 0
2, 109636, Note_off_c, 0, 70, 0
2, 109636, Note_off_c, 0, 43, 0
2, 109636, Note_on_c, 0, 55, 50
2, 109636, Note_on_c, 0, 72, 50
2, 109636, Note_on_c, 0, 84, 50
2, 109636, Note_on_c, 0, 50, 50
2, 109828, Note_off_c, 0, 50, 0
2, 109828, Note_off_c, 0, 55, 0
2, 109828, Note_off_c, 0, 72, 0
2, 109828, Note_off_c, 0, 84, 0
2, 109828, Note_on_c, 0, 41, 50
2, 109828, Note_on_c, 0, 81, 50
2, 109828, Note_on_c, 0, 69, 50
2, 110020, Note_off_c, 0, 41, 0
2, 110020, Note_on_c, 0, 48, 50
2, 110020, Note_on_c, 0, 53, 50
2, 110212, Note_off_c, 0, 48, 0
2, 110212, Note_off_c, 0, 53, 0
2, 110212, Note_on_c, 0, 41, 50
2, 110404, Note_off_c, 0, 41, 0
2, 110404, Note_on_c, 0, 48, 50
2, 110404, Note_on_c, 0, 53, 50
2, 110596, Note_off_c, 0, 81, 0
2, 110596, Note_off_c, 0, 69, 0
2, 110596, Note_off_c, 0, 53, 0
2, 110596, Note_off_c, 0, 48, 0
2, 110596, Note_on_c, 0, 79, 50
2, 110596, Note_on_c, 0, 67, 50
2, 110596, Note_on_c, 0, 41, 50
2, 110788, Note_off_c, 0, 41, 0
2, 110788, Note_on_c, 0, 53, 50
2, 110788, Note_on_c, 0, 48, 50
2, 110980, Note_off_c, 0, 79, 0
2, 110980, Note_off_c, 0, 48, 0
2, 110980, Note_off_c, 0, 53, 0
2, 110980, Note_off_c, 0, 67, 0
2, 110980, Note_on_c, 0, 41, 50
2, 110980, Note_on_c, 0, 77, 50
2, 110980, Note_on_c, 0, 65, 50
2, 111172, Note_off_c, 0, 41, 0
2, 111172, Note_on_c, 0, 53, 50
2, 111172, Note_on_c, 0, 48, 50
2, 111364, Note_off_c, 0, 48, 0
2, 111364, Note_off_c, 0, 65, 0
2, 111364, Note_off_c, 0, 53, 0
2, 111364, Note_off_c, 0, 77, 0
2, 111364, Note_on_c, 0, 39, 50
2, 111364, Note_on_c, 0, 75, 50
2, 111364, Note_on_c, 0, 63, 50
2, 111556, Note_off_c, 0, 39, 0
2, 111556, Note_on_c, 0, 46, 50
2, 111556, Note_on_c, 0, 51, 50
2, 111652, Note_off_c, 0, 63, 0
2, 111652, Note_off_c, 0, 75, 0
2, 111652, Note_on_c, 0, 77, 50
2, 111652, Note_on_c, 0, 65, 50
2, 111748, Note_off_c, 0, 51, 0
2, 111748, Note_off_c, 0, 46, 0
2, 111748, Note_on_c, 0, 39, 50
2, 111940, Note_off_c, 0, 65, 0
2, 111940, Note_off_c, 0, 77, 0
2, 111940, Note_off_c, 0, 39, 0
2, 111940, Note_on_c, 0, 46, 50
2, 111940, Note_on_c, 0, 79, 50
2, 111940, Note_on_c, 0, 67, 50
2, 111940, Note_on_c, 0, 51, 50
2, 112132, Note_off_c, 0, 46, 0
2, 112132, Note_off_c, 0, 51, 0
2, 112132, Note_off_c, 0, 67, 0
2, 112132, Note_off_c, 0, 79, 0
2, 112132, Note_on_c, 0, 77, 50
2, 112132, Note_on_c, 0, 65, 50
2, 112132, Note_on_c, 0, 39, 50
2, 112324, Note_off_c, 0, 39, 0
2, 112324, Note_on_c, 0, 51, 50
2, 112324, Note_on_c, 0, 46, 50
2, 112516, Note_off_c, 0, 51, 0
2, 112516, Note_off_c, 0, 77, 0
2, 112516, Note_off_c, 0, 65, 0
2, 112516, Note_off_c, 0, 46, 0
2, 112516, Note_on_c, 0, 63, 50
2, 112516, Note_on_c, 0, 39, 50
2, 112516, Note_on_c, 0, 75, 50
2, 112708, Note_off_c, 0, 39, 0
2, 112708, Note_on_c, 0, 46, 50
2, 112708, Note_on_c, 0, 51, 50
2, 112900, Note_off_c, 0, 75, 0
2, 112900, Note_off_c, 0, 51, 0
2, 112900, Note_off_c, 0, 46, 0
2, 112900, Note_off_c, 0, 63, 0
2, 112900, Note_on_c, 0, 74, 50
2, 112900, Note_on_c, 0, 38, 50
2, 112900, Note_on_c, 0, 62, 50
2, 113092, Note_off_c, 0, 38, 0
2, 113092, Note_on_c, 0, 46, 50
2, 113092, Note_on_c, 0, 50, 50
2, 113284, Note_off_c, 0, 50, 0
2, 113284, Note_off_c, 0, 46, 0
2, 113284, Note_on_c, 0, 38, 50
2, 113476, Note_off_c, 0, 38, 0
2, 113476, Note_on_c, 0, 46, 50
2, 113476, Note_on_c, 0, 50, 50
2, 113668, Note_off_c, 0, 46, 0
2, 113668, Note_off_c, 0, 74, 0
2, 113668, Note_off_c, 0, 50, 0
2, 113668, Note_off_c, 0, 62, 0
2, 113668, Note_on_c, 0, 58, 50
2, 113668, Note_on_c, 0, 38, 50
2, 113668, Note_on_c, 0, 70, 50
2, 113860, Note_off_c, 0, 38, 0
2, 113860, Note_on_c, 0, 46, 50
2, 113860, Note_on_c, 0, 50, 50
2, 114052, Note_off_c, 0, 46, 0
2, 114052, Note_off_c, 0, 50, 0
2, 114052, Note_on_c, 0, 38, 50
2, 114244, Note_off_c, 0, 38, 0
2, 114244, Note_on_c, 0, 50, 50
2, 114244, Note_on_c, 0, 46, 50
2, 114436, Note_off_c, 0, 70, 0
2, 114436, Note_off_c, 0, 58, 0
2, 114436, Note_off_c, 0, 46, 0
2, 114436, Note_off_c, 0, 50, 0
2, 114436, Note_on_c, 0, 60, 50
2, 114436, Note_on_c, 0, 36, 50
2, 114436, Note_on_c, 0, 72, 50
2, 114628, Note_off_c, 0, 36, 0
2, 114628, Note_on_c, 0, 48, 50
2, 114628, Note_on_c, 0, 43, 50
2, 114724, Note_off_c, 0, 60, 0
2, 114724, Note_off_c, 0, 72, 0
2, 114724, Note_on_c, 0, 62, 50
2, 114724, Note_on_c, 0, 74, 50
2, 114820, Note_off_c, 0, 43, 0
2, 114820, Note_off_c, 0, 48, 0
2, 114820, Note_on_c, 0, 36, 50
2, 115012, Note_off_c, 0, 74, 0
2, 115012, Note_off_c, 0, 62, 0
2, 115012, Note_off_c, 0, 36, 0
2, 115012, Note_on_c, 0, 75, 50
2, 115012, Note_on_c, 0, 63, 50
2, 115012, Note_on_c, 0, 43, 50
2, 115012, Note_on_c, 0, 48, 50
2, 115204, Note_off_c, 0, 63, 0
2, 115204, Note_off_c, 0, 75, 0
2, 115204, Note_off_c, 0, 43, 0
2, 115204, Note_off_c, 0, 48, 0
2, 115204, Note_on_c, 0, 67, 50
2, 115204, Note_on_c, 0, 55, 50
2, 115204, Note_on_c, 0, 36, 50
2, 115396, Note_off_c, 0, 36, 0
2, 115396, Note_on_c, 0, 43, 50
2, 115396, Note_on_c, 0, 48, 50
2, 115492, Note_off_c, 0, 55, 0
2, 115492, Note_off_c, 0, 67, 0
2, 115492, Note_on_c, 0, 65, 50
2, 115492, Note_on_c, 0, 77, 50
2, 115588, Note_off_c, 0, 48, 0
2, 115588, Note_off_c, 0, 43, 0
2, 115588, Note_on_c, 0, 36, 50
2, 115780, Note_off_c, 0, 65, 0
2, 115780, Note_off_c, 0, 77, 0
2, 115780, Note_off_c, 0, 36, 0
2, 115780, Note_on_c, 0, 63, 50
2, 115780, Note_on_c, 0, 75, 50
2, 115780, Note_on_c, 0, 43, 50
2, 115780, Note_on_c, 0, 48, 50
2, 115972, Note_off_c, 0, 48, 0
2, 115972, Note_off_c, 0, 43, 0
2, 115972, Note_off_c, 0, 75, 0
2, 115972, Note_off_c, 0, 63, 0
2, 115972, Note_on_c, 0, 74, 50
2, 115972, Note_on_c, 0, 62, 50
2, 115972, Note_on_c, 0, 34, 50
2, 116164, Note_off_c, 0, 34, 0
2, 116164, Note_on_c, 0, 46, 50
2, 116164, Note_on_c, 0, 41, 50
2, 116260, Note_off_c, 0, 74, 0
2, 116260, Note_off_c, 0, 62, 0
2, 116260, Note_on_c, 0, 60, 50
2, 116260, Note_on_c, 0, 72, 50
2, 116356, Note_off_c, 0, 41, 0
2, 116356, Note_off_c, 0, 46, 0
2, 116356, Note_on_c, 0, 34, 50
2, 116548, Note_off_c, 0, 72, 0
2, 116548, Note_off_c, 0, 60, 0
2, 116548, Note_off_c, 0, 34, 0
2, 116548, Note_on_c, 0, 46, 50
2, 116548, Note_on_c, 0, 41, 50
2, 116548, Note_on_c, 0, 74, 50
2, 116548, Note_on_c, 0, 62, 50
2, 116740, Note_off_c, 0, 46, 0
2, 116740, Note_off_c, 0, 74, 0
2, 116740, Note_off_c, 0, 62, 0
2, 116740, Note_off_c, 0, 41, 0
2, 116740, Note_on_c, 0, 55, 50
2, 116740, Note_on_c, 0, 34, 50
2, 116740, Note_on_c, 0, 67, 50
2, 116932, Note_off_c, 0, 34, 0
2, 116932, Note_on_c, 0, 41, 50
2, 116932, Note_on_c, 0, 46, 50
2, 117028, Note_off_c, 0, 55, 0
2, 117028, Note_off_c, 0, 67, 0
2, 117028, Note_on_c, 0, 63, 50
2, 117028, Note_on_c, 0, 75, 50
2, 117124, Note_off_c, 0, 46, 0
2, 117124, Note_off_c, 0, 41, 0
2, 117124, Note_on_c, 0, 34, 50
2, 117316, Note_off_c, 0, 75, 0
2, 117316, Note_off_c, 0, 63, 0
2, 117316, Note_off_c, 0, 34, 0
2, 117316, Note_on_c, 0, 41, 50
2, 117316, Note_on_c, 0, 46, 50
2, 117316, Note_on_c, 0, 62, 50
2, 117316, Note_on_c, 0, 74, 50
2, 117508, Note_off_c, 0, 41, 0
2, 117508, Note_off_c, 0, 74, 0
2, 117508, Note_off_c, 0, 62, 0
2, 117508, Note_off_c, 0, 46, 0
2, 117508, Note_on_c, 0, 72, 50
2, 117508, Note_on_c, 0, 60, 50
2, 117508, Note_on_c, 0, 67, 50
2, 117508, Note_on_c, 0, 36, 50
2, 117700, Note_off_c, 0, 36, 0
2, 117700, Note_on_c, 0, 43, 50
2, 117700, Note_on_c, 0, 48, 50
2, 117892, Note_off_c, 0, 48, 0
2, 117892, Note_off_c, 0, 43, 0
2, 117892, Note_on_c, 0, 36, 50
2, 118084, Note_off_c, 0, 36, 0
2, 118084, Note_on_c, 0, 48, 50
2, 118084, Note_on_c, 0, 43, 50
2, 118276, Note_off_c, 0, 60, 0
2, 118276, Note_off_c, 0, 72, 0
2, 118276, Note_off_c, 0, 67, 0
2, 118276, Note_off_c, 0, 43, 0
2, 118276, Note_off_c, 0, 48, 0
2, 118276, Note_on_c, 0, 36, 50
2, 118276, Note_on_c, 0, 62, 50
2, 118276, Note_on_c, 0, 70, 50
2, 118276, Note_on_c, 0, 74, 50
2, 118468, Note_off_c, 0, 36, 0
2, 118468, Note_on_c, 0, 48, 50
2, 118468, Note_on_c, 0, 43, 50
2, 118660, Note_off_c, 0, 62, 0
2, 118660, Note_off_c, 0, 74, 0
2, 118660, Note_off_c, 0, 70, 0
2, 118660, Note_off_c, 0, 43, 0
2, 118660, Note_off_c, 0, 48, 0
2, 118660, Note_on_c, 0, 72, 50
2, 118660, Note_on_c, 0, 36, 50
2, 118660, Note_on_c, 0, 81, 50
2, 118660, Note_on_c, 0, 69, 50
2, 118852, Note_off_c, 0, 36, 0
2, 118852, Note_on_c, 0, 48, 50
2, 118852, Note_on_c, 0, 43, 50
2, 119044, Note_off_c, 0, 72, 0
2, 119044, Note_off_c, 0, 69, 0
2, 119044, Note_off_c, 0, 81, 0
2, 119044, Note_off_c, 0, 43, 0
2, 119044, Note_off_c, 0, 48, 0
2, 119044, Note_on_c, 0, 67, 50
2, 119044, Note_on_c, 0, 38, 50
2, 119044, Note_on_c, 0, 79, 50
2, 119044, Note_on_c, 0, 74, 50
2, 119236, Note_off_c, 0, 38, 0
2, 119236, Note_on_c, 0, 45, 50
2, 119236, Note_on_c, 0, 50, 50
2, 119428, Note_off_c, 0, 50, 0
2, 119428, Note_off_c, 0, 45, 0
2, 119428, Note_on_c, 0, 38, 50
2, 119620, Note_off_c, 0, 67, 0
2, 119620, Note_off_c, 0, 79, 0
2, 119620, Note_off_c, 0, 74, 0
2, 119620, Note_off_c, 0, 38, 0
2, 119620, Note_on_c, 0, 81, 50
2, 119620, Note_on_c, 0, 50, 50
2, 119620, Note_on_c, 0, 45, 50
2, 119716, Note_off_c, 0, 81, 0
2, 119716, Note_on_c, 0, 79, 50
2, 119812, Note_off_c, 0, 45, 0
2, 119812, Note_off_c, 0, 50, 0
2, 119812, Note_off_c, 0, 79, 0
2, 119812, Note_on_c, 0, 41, 50
2, 119812, Note_on_c, 0, 78, 50
2, 119812, Note_on_c, 0, 74, 50
2, 119812, Note_on_c, 0, 66, 50
2, 120004, Note_off_c, 0, 41, 0
2, 120004, Note_on_c, 0, 48, 50
2, 120004, Note_on_c, 0, 53, 50
2, 120196, Note_off_c, 0, 53, 0
2, 120196, Note_off_c, 0, 48, 0
2, 120196, Note_on_c, 0, 41, 50
2, 120388, Note_off_c, 0, 41, 0
2, 120388, Note_on_c, 0, 53, 50
2, 120388, Note_on_c, 0, 48, 50
2, 120580, Note_off_c, 0, 66, 0
2, 120580, Note_off_c, 0, 48, 0
2, 120580, Note_off_c, 0, 74, 0
2, 120580, Note_off_c, 0, 53, 0
2, 120580, Note_off_c, 0, 78, 0
2, 120580, Note_on_c, 0, 67, 50
2, 120580, Note_on_c, 0, 43, 50
2, 120580, Note_on_c, 0, 79, 50
2, 120580, Note_on_c, 0, 74, 50
2, 120772, Note_off_c, 0, 67, 0
2, 120772, Note_off_c, 0, 74, 0
2, 120772, Note_off_c, 0, 79, 0
2, 120772, Note_off_c, 0, 43, 0
2, 120772, Note_on_c, 0, 67, 50
2, 120772, Note_on_c, 0, 62, 50
2, 120772, Note_on_c, 0, 55, 50
2, 120772, Note_on_c, 0, 50, 50
2, 120772, Note_on_c, 0, 74, 50
2, 120964, Note_off_c, 0, 55, 0
2, 120964, Note_off_c, 0, 50, 0
2, 120964, Note_on_c, 0, 43, 50
2, 121156, Note_off_c, 0, 62, 0
2, 121156, Note_off_c, 0, 74, 0
2, 121156, Note_off_c, 0, 67, 0
2, 121156, Note_off_c, 0, 43, 0
2, 121156, Note_on_c, 0, 67, 50
2, 121156, Note_on_c, 0, 74, 50
2, 121156, Note_on_c, 0, 55, 50
2, 121156, Note_on_c, 0, 79, 50
2, 121156, Note_on_c, 0, 50, 50
2, 121348, Note_off_c, 0, 55, 0
2, 121348, Note_off_c, 0, 50, 0
2, 121348, Note_on_c, 0, 43, 50
2, 121540, Note_off_c, 0, 74, 0
2, 121540, Note_off_c, 0, 67, 0
2, 121540, Note_off_c, 0, 79, 0
2, 121540, Note_off_c, 0, 43, 0
2, 121540, Note_on_c, 0, 69, 50
2, 121540, Note_on_c, 0, 50, 50
2, 121540, Note_on_c, 0, 55, 50
2, 121540, Note_on_c, 0, 81, 50
2, 121540, Note_on_c, 0, 77, 50
2, 121732, Note_off_c, 0, 81, 0
2, 121732, Note_off_c, 0, 50, 0
2, 121732, Note_off_c, 0, 69, 0
2, 121732, Note_off_c, 0, 55, 0
2, 121732, Note_off_c, 0, 77, 0
2, 121732, Note_on_c, 0, 79, 50
2, 121732, Note_on_c, 0, 43, 50
2, 121732, Note_on_c, 0, 70, 50
2, 121732, Note_on_c, 0, 82, 50
2, 121924, Note_off_c, 0, 82, 0
2, 121924, Note_off_c, 0, 70, 0
2, 121924, Note_off_c, 0, 79, 0
2, 121924, Note_off_c, 0, 43, 0
2, 121924, Note_on_c, 0, 81, 50
2, 121924, Note_on_c, 0, 72, 50
2, 121924, Note_on_c, 0, 84, 50
2, 121924, Note_on_c, 0, 55, 50
2, 121924, Note_on_c, 0, 50, 50
2, 122116, Note_off_c, 0, 50, 0
2, 122116, Note_off_c, 0, 55, 0
2, 122116, Note_off_c, 0, 84, 0
2, 122116, Note_off_c, 0, 72, 0
2, 122116, Note_off_c, 0, 81, 0
2, 122116, Note_on_c, 0, 69, 50
2, 122116, Note_on_c, 0, 81, 50
2, 122116, Note_on_c, 0, 77, 50
2, 122116, Note_on_c, 0, 41, 50
2, 122308, Note_off_c, 0, 41, 0
2, 122308, Note_on_c, 0, 53, 50
2, 122308, Note_on_c, 0, 48, 50
2, 122500, Note_off_c, 0, 53, 0
2, 122500, Note_off_c, 0, 48, 0
2, 122500, Note_on_c, 0, 41, 50
2, 122692, Note_off_c, 0, 41, 0
2, 122692, Note_on_c, 0, 48, 50
2, 122692, Note_on_c, 0, 53, 50
2, 122884, Note_off_c, 0, 81, 0
2, 122884, Note_off_c, 0, 69, 0
2, 122884, Note_off_c, 0, 77, 0
2, 122884, Note_off_c, 0, 53, 0
2, 122884, Note_off_c, 0, 48, 0
2, 122884, Note_on_c, 0, 67, 50
2, 122884, Note_on_c, 0, 41, 50
2, 122884, Note_on_c, 0, 79, 50
2, 122884, Note_on_c, 0, 75, 50
2, 123076, Note_off_c, 0, 41, 0
2, 123076, Note_on_c, 0, 48, 50
2, 123076, Note_on_c, 0, 53, 50
2, 123268, Note_off_c, 0, 67, 0
2, 123268, Note_off_c, 0, 75, 0
2, 123268, Note_off_c, 0, 79, 0
2, 123268, Note_off_c, 0, 53, 0
2, 123268, Note_off_c, 0, 48, 0
2, 123268, Note_on_c, 0, 65, 50
2, 123268, Note_on_c, 0, 41, 50
2, 123268, Note_on_c, 0, 74, 50
2, 123268, Note_on_c, 0, 77, 50
2, 123460, Note_off_c, 0, 41, 0
2, 123460, Note_on_c, 0, 53, 50
2, 123460, Note_on_c, 0, 48, 50
2, 123652, Note_off_c, 0, 74, 0
2, 123652, Note_off_c, 0, 48, 0
2, 123652, Note_off_c, 0, 65, 0
2, 123652, Note_off_c, 0, 53, 0
2, 123652, Note_off_c, 0, 77, 0
2, 123652, Note_on_c, 0, 39, 50
2, 123652, Note_on_c, 0, 63, 50
2, 123652, Note_on_c, 0, 75, 50
2, 123652, Note_on_c, 0, 70, 50
2, 123844, Note_off_c, 0, 39, 0
2, 123844, Note_on_c, 0, 51, 50
2, 123844, Note_on_c, 0, 46, 50
2, 123940, Note_off_c, 0, 70, 0
2, 123940, Note_off_c, 0, 63, 0
2, 123940, Note_off_c, 0, 75, 0
2, 123940, Note_on_c, 0, 65, 50
2, 123940, Note_on_c, 0, 77, 50
2, 123940, Note_on_c, 0, 74, 50
2, 124036, Note_off_c, 0, 46, 0
2, 124036, Note_off_c, 0, 51, 0
2, 124036, Note_on_c, 0, 39, 50
2, 124228, Note_off_c, 0, 74, 0
2, 124228, Note_off_c, 0, 77, 0
2, 124228, Note_off_c, 0, 65, 0
2, 124228, Note_off_c, 0, 39, 0
2, 124228, Note_on_c, 0, 46, 50
2, 124228, Note_on_c, 0, 75, 50
2, 124228, Note_on_c, 0, 51, 50
2, 124228, Note_on_c, 0, 67, 50
2, 124228, Note_on_c, 0, 79, 50
2, 124420, Note_off_c, 0, 46, 0
2, 124420, Note_off_c, 0, 51, 0
2, 124420, Note_off_c, 0, 79, 0
2, 124420, Note_off_c, 0, 67, 0
2, 124420, Note_off_c, 0, 75, 0
2, 124420, Note_on_c, 0, 77, 50
2, 124420, Note_on_c, 0, 65, 50
2, 124420, Note_on_c, 0, 74, 50
2, 124420, Note_on_c, 0, 39, 50
2, 124612, Note_off_c, 0, 39, 0
2, 124612, Note_on_c, 0, 46, 50
2, 124612, Note_on_c, 0, 51, 50
2, 124804, Note_off_c, 0, 65, 0
2, 124804, Note_off_c, 0, 77, 0
2, 124804, Note_off_c, 0, 74, 0
2, 124804, Note_off_c, 0, 51, 0
2, 124804, Note_off_c, 0, 46, 0
2, 124804, Note_on_c, 0, 75, 50
2, 124804, Note_on_c, 0, 39, 50
2, 124804, Note_on_c, 0, 70, 50
2, 124804, Note_on_c, 0, 63, 50
2, 124996, Note_off_c, 0, 39, 0
2, 124996, Note_on_c, 0, 46, 50
2, 124996, Note_on_c, 0, 51, 50
2, 125188, Note_off_c, 0, 75, 0
2, 125188, Note_off_c, 0, 63, 0
2, 125188, Note_off_c, 0, 46, 0
2, 125188, Note_off_c, 0, 51, 0
2, 125188, Note_off_c, 0, 70, 0
2, 125188, Note_on_c, 0, 38, 50
2, 125188, Note_on_c, 0, 74, 50
2, 125188, Note_on_c, 0, 70, 50
2, 125188, Note_on_c, 0, 62, 50
2, 125380, Note_off_c, 0, 38, 0
2, 125380, Note_on_c, 0, 46, 50
2, 125380, Note_on_c, 0, 50, 50
2, 125572, Note_off_c, 0, 50, 0
2, 125572, Note_off_c, 0, 46, 0
2, 125572, Note_on_c, 0, 38, 50
2, 125764, Note_off_c, 0, 38, 0
2, 125764, Note_on_c, 0, 50, 50
2, 125764, Note_on_c, 0, 46, 50
2, 125860, Note_off_c, 0, 74, 0
2, 125860, Note_off_c, 0, 62, 0
2, 125860, Note_off_c, 0, 70, 0
2, 125860, Note_on_c, 0, 72, 50
2, 125908, Note_on_c, 0, 71, 50
2, 125956, Note_off_c, 0, 50, 0
2, 125956, Note_off_c, 0, 46, 0
2, 125956, Note_off_c, 0, 72, 0
2, 125956, Note_on_c, 0, 62, 50
2, 125956, Note_on_c, 0, 70, 50
2, 125956, Note_on_c, 0, 58, 50
2, 125956, Note_on_c, 0, 38, 50
2, 126004, Note_off_c, 0, 71, 0
2, 126148, Note_off_c, 0, 38, 0
2, 126148, Note_on_c, 0, 50, 50
2, 126148, Note_on_c, 0, 46, 50
2, 126340, Note_off_c, 0, 46, 0
2, 126340, Note_off_c, 0, 50, 0
2, 126340, Note_on_c, 0, 38, 50
2, 126532, Note_off_c, 0, 38, 0
2, 126532, Note_on_c, 0, 46, 50
2, 126532, Note_on_c, 0, 50, 50
2, 126724, Note_off_c, 0, 58, 0
2, 126724, Note_off_c, 0, 70, 0
2, 126724, Note_off_c, 0, 62, 0
2, 126724, Note_off_c, 0, 50, 0
2, 126724, Note_off_c, 0, 46, 0
2, 126724, Note_on_c, 0, 69, 50
2, 126724, Note_on_c, 0, 36, 50
2, 126724, Note_on_c, 0, 72, 50
2, 126724, Note_on_c, 0, 60, 50
2, 126916, Note_off_c, 0, 36, 0
2, 126916, Note_on_c, 0, 43, 50
2, 126916, Note_on_c, 0, 48, 50
2, 127012, Note_off_c, 0, 69, 0
2, 127012, Note_off_c, 0, 60, 0
2, 127012, Note_off_c, 0, 72, 0
2, 127012, Note_on_c, 0, 62, 50
2, 127012, Note_on_c, 0, 70, 50
2, 127012, Note_on_c, 0, 74, 50
2, 127108, Note_off_c, 0, 48, 0
2, 127108, Note_off_c, 0, 43, 0
2, 127108, Note_on_c, 0, 36, 50
2, 127300, Note_off_c, 0, 62, 0
2, 127300, Note_off_c, 0, 36, 0
2, 127300, Note_off_c, 0, 74, 0
2, 127300, Note_off_c, 0, 70, 0
2, 127300, Note_on_c, 0, 75, 50
2, 127300, Note_on_c, 0, 43, 50
2, 127300, Note_on_c, 0, 63, 50
2, 127300, Note_on_c, 0, 72, 50
2, 127300, Note_on_c, 0, 48, 50
2, 127492, Note_off_c, 0, 75, 0
2, 127492, Note_off_c, 0, 48, 0
2, 127492, Note_off_c, 0, 72, 0
2, 127492, Note_off_c, 0, 63, 0
2, 127492, Note_off_c, 0, 43, 0
2, 127492, Note_on_c, 0, 36, 50
2, 127492, Note_on_c, 0, 55, 50
2, 127492, Note_on_c, 0, 63, 50
2, 127492, Note_on_c, 0, 67, 50
2, 127684, Note_off_c, 0, 36, 0
2, 127684, Note_off_c, 0, 67, 0
2, 127684, Note_off_c, 0, 55, 0
2, 127684, Note_off_c, 0, 63, 0
2, 127684, Note_on_c, 0, 48, 50
2, 127684, Note_on_c, 0, 43, 50
2, 127684, Note_on_c, 0, 72, 50
2, 127684, Note_on_c, 0, 60, 50
2, 127780, Note_off_c, 0, 60, 0
2, 127780, Note_off_c, 0, 72, 0
2, 127780, Note_on_c, 0, 62, 50
2, 127780, Note_on_c, 0, 74, 50
2, 127876, Note_off_c, 0, 48, 0
2, 127876, Note_off_c, 0, 43, 0
2, 127876, Note_off_c, 0, 62, 0
2, 127876, Note_off_c, 0, 74, 0
2, 127876, Note_on_c, 0, 36, 50
2, 127876, Note_on_c, 0, 74, 50
2, 127876, Note_on_c, 0, 65, 50
2, 127876, Note_on_c, 0, 77, 50
2, 128068, Note_off_c, 0, 77, 0
2, 128068, Note_off_c, 0, 65, 0
2, 128068, Note_off_c, 0, 74, 0
2, 128068, Note_off_c, 0, 36, 0
2, 128068, Note_on_c, 0, 75, 50
2, 128068, Note_on_c, 0, 48, 50
2, 128068, Note_on_c, 0, 43, 50
2, 128068, Note_on_c, 0, 63, 50
2, 128068, Note_on_c, 0, 72, 50
2, 128260, Note_off_c, 0, 48, 0
2, 128260, Note_off_c, 0, 72, 0
2, 128260, Note_off_c, 0, 63, 0
2, 128260, Note_off_c, 0, 75, 0
2, 128260, Note_off_c, 0, 43, 0
2, 128260, Note_on_c, 0, 62, 50
2, 128260, Note_on_c, 0, 34, 50
2, 128260, Note_on_c, 0, 70, 50
2, 128260, Note_on_c, 0, 74, 50
2, 128452, Note_off_c, 0, 34, 0
2, 128452, Note_on_c, 0, 41, 50
2, 128452, Note_on_c, 0, 46, 50
2, 128548, Note_off_c, 0, 74, 0
2, 128548, Note_off_c, 0, 62, 0
2, 128548, Note_off_c, 0, 70, 0
2, 128548, Note_on_c, 0, 69, 50
2, 128548, Note_on_c, 0, 60, 50
2, 128548, Note_on_c, 0, 72, 50
2, 128644, Note_off_c, 0, 46, 0
2, 128644, Note_off_c, 0, 41, 0
2, 128644, Note_on_c, 0, 34, 50
2, 128836, Note_off_c, 0, 69, 0
2, 128836, Note_off_c, 0, 72, 0
2, 128836, Note_off_c, 0, 60, 0
2, 128836, Note_off_c, 0, 34, 0
2, 128836, Note_on_c, 0, 41, 50
2, 128836, Note_on_c, 0, 74, 50
2, 128836, Note_on_c, 0, 46, 50
2, 128836, Note_on_c, 0, 62, 50
2, 128836, Note_on_c, 0, 70, 50
2, 129028, Note_off_c, 0, 41, 0
2, 129028, Note_off_c, 0, 70, 0
2, 129028, Note_off_c, 0, 62, 0
2, 129028, Note_off_c, 0, 46, 0
2, 129028, Note_off_c, 0, 74, 0
2, 129028, Note_on_c, 0, 74, 50
2, 129028, Note_on_c, 0, 79, 50
2, 129028, Note_on_c, 0, 34, 50
2, 129028, Note_on_c, 0, 67, 50
2, 129220, Note_off_c, 0, 34, 0
2, 129220, Note_on_c, 0, 46, 50
2, 129220, Note_on_c, 0, 41, 50
2, 129316, Note_off_c, 0, 74, 0
2, 129316, Note_off_c, 0, 67, 0
2, 129316, Note_off_c, 0, 79, 0
2, 129316, Note_on_c, 0, 62, 50
2, 129316, Note_on_c, 0, 70, 50
2, 129316, Note_on_c, 0, 74, 50
2, 129412, Note_off_c, 0, 46, 0
2, 129412, Note_off_c, 0, 41, 0
2, 129412, Note_on_c, 0, 34, 50
2, 129604, Note_off_c, 0, 74, 0
2, 129604, Note_off_c, 0, 70, 0
2, 129604, Note_off_c, 0, 62, 0
2, 129604, Note_off_c, 0, 34, 0
2, 129604, Note_on_c, 0, 46, 50
2, 129604, Note_on_c, 0, 41, 50
2, 129604, Note_on_c, 0, 60, 50
2, 129604, Note_on_c, 0, 72, 50
2, 129604, Note_on_c, 0, 69, 50
2, 129796, Note_off_c, 0, 41, 0
2, 129796, Note_off_c, 0, 46, 0
2, 129796, Note_off_c, 0, 72, 0
2, 129796, Note_off_c, 0, 60, 0
2, 129796, Note_off_c, 0, 69, 0
2, 129796, Note_on_c, 0, 33, 50
2, 129796, Note_on_c, 0, 72, 50
2, 129796, Note_on_c, 0, 60, 50
2, 129796, Note_on_c, 0, 69, 50
2, 129988, Note_off_c, 0, 33, 0
2, 129988, Note_on_c, 0, 45, 50
2, 129988, Note_on_c, 0, 40, 50
2, 130180, Note_off_c, 0, 45, 0
2, 130180, Note_off_c, 0, 40, 0
2, 130180, Note_on_c, 0, 33, 50
2, 130372, Note_off_c, 0, 33, 0
2, 130372, Note_on_c, 0, 45, 50
2, 130372, Note_on_c, 0, 40, 50
2, 130564, Note_off_c, 0, 72, 0
2, 130564, Note_off_c, 0, 40, 0
2, 130564, Note_off_c, 0, 69, 0
2, 130564, Note_off_c, 0, 45, 0
2, 130564, Note_off_c, 0, 60, 0
2, 130564, Note_on_c, 0, 33, 50
2, 130564, Note_on_c, 0, 57, 50
2, 130564, Note_on_c, 0, 65, 50
2, 130564, Note_on_c, 0, 69, 50
2, 130756, Note_off_c, 0, 33, 0
2, 130756, Note_on_c, 0, 40, 50
2, 130756, Note_on_c, 0, 45, 50
2, 130948, Note_off_c, 0, 40, 0
2, 130948, Note_off_c, 0, 45, 0
2, 130948, Note_off_c, 0, 57, 0
2, 130948, Note_off_c, 0, 65, 0
2, 130948, Note_off_c, 0, 69, 0
2, 130948, Note_on_c, 0, 33, 50
2, 130948, Note_on_c, 0, 69, 50
2, 130948, Note_on_c, 0, 60, 50
2, 130948, Note_on_c, 0, 72, 50
2, 131140, Note_off_c, 0, 33, 0
2, 131140, Note_on_c, 0, 40, 50
2, 131140, Note_on_c, 0, 45, 50
2, 131332, Note_off_c, 0, 72, 0
2, 131332, Note_off_c, 0, 60, 0
2, 131332, Note_off_c, 0, 69, 0
2, 131332, Note_off_c, 0, 45, 0
2, 131332, Note_off_c, 0, 40, 0
2, 131332, Note_on_c, 0, 70, 50
2, 131332, Note_on_c, 0, 34, 50
2, 131332, Note_on_c, 0, 62, 50
2, 131332, Note_on_c, 0, 58, 50
2, 131524, Note_off_c, 0, 34, 0
2, 131524, Note_on_c, 0, 46, 50
2, 131524, Note_on_c, 0, 41, 50
2, 131716, Note_off_c, 0, 41, 0
2, 131716, Note_off_c, 0, 46, 0
2, 131716, Note_on_c, 0, 34, 50
2, 131908, Note_off_c, 0, 34, 0
2, 131908, Note_on_c, 0, 46, 50
2, 131908, Note_on_c, 0, 41, 50
2, 132100, Note_off_c, 0, 46, 0
2, 132100, Note_off_c, 0, 70, 0
2, 132100, Note_off_c, 0, 41, 0
2, 132100, Note_off_c, 0, 62, 0
2, 132100, Note_off_c, 0, 58, 0
2, 132100, Note_on_c, 0, 62, 50
2, 132100, Note_on_c, 0, 33, 50
2, 132100, Note_on_c, 0, 57, 50
2, 132100, Note_on_c, 0, 69, 50
2, 132292, Note_off_c, 0, 33, 0
2, 132292, Note_on_c, 0, 40, 50
2, 132292, Note_on_c, 0, 45, 50
2, 132484, Note_off_c, 0, 40, 0
2, 132484, Note_off_c, 0, 45, 0
2, 132484, Note_on_c, 0, 33, 50
2, 132676, Note_off_c, 0, 33, 0
2, 132676, Note_on_c, 0, 45, 50
2, 132676, Note_on_c, 0, 40, 50
2, 132868, Note_off_c, 0, 62, 0
2, 132868, Note_off_c, 0, 69, 0
2, 132868, Note_off_c, 0, 57, 0
2, 132868, Note_off_c, 0, 40, 0
2, 132868, Note_off_c, 0, 45, 0
2, 132868, Note_on_c, 0, 58, 50
2, 132868, Note_on_c, 0, 70, 50
2, 132868, Note_on_c, 0, 62, 50
2, 132868, Note_on_c, 0, 38, 50
2, 133060, Note_off_c, 0, 38, 0
2, 133060, Note_on_c, 0, 43, 50
2, 133060, Note_on_c, 0, 50, 50
2, 133252, Note_off_c, 0, 50, 0
2, 133252, Note_off_c, 0, 43, 0
2, 133252, Note_on_c, 0, 38, 50
2, 133444, Note_off_c, 0, 38, 0
2, 133444, Note_on_c, 0, 50, 50
2, 133444, Note_on_c, 0, 43, 50
2, 133636, Note_off_c, 0, 43, 0
2, 133636, Note_off_c, 0, 50, 0
2, 133636, Note_on_c, 0, 38, 50
2, 133828, Note_off_c, 0, 38, 0
2, 133828, Note_on_c, 0, 50, 50
2, 133828, Note_on_c, 0, 43, 50
2, 134020, Note_off_c, 0, 43, 0
2, 134020, Note_off_c, 0, 50, 0
2, 134020, Note_on_c, 0, 38, 50
2, 134212, Note_off_c, 0, 38, 0
2, 134212, Note_on_c, 0, 43, 50
2, 134212, Note_on_c, 0, 50, 50
2, 134404, Note_off_c, 0, 43, 0
2, 134404, Note_off_c, 0, 50, 0
2, 134404, Note_on_c, 0, 38, 50
2, 134596, Note_off_c, 0, 38, 0
2, 134596, Note_on_c, 0, 43, 50
2, 134596, Note_on_c, 0, 50, 50
2, 134788, Note_off_c, 0, 43, 0
2, 134788, Note_off_c, 0, 50, 0
2, 134788, Note_on_c, 0, 38, 50
2, 134980, Note_off_c, 0, 38, 0
2, 134980, Note_on_c, 0, 50, 50
2, 134980, Note_on_c, 0, 43, 50
2, 135172, Note_off_c, 0, 50, 0
2, 135172, Note_off_c, 0, 43, 0
2, 135172, Note_on_c, 0, 38, 50
2, 135364, Note_off_c, 0, 38, 0
2, 135364, Note_on_c, 0, 50, 50
2, 135364, Note_on_c, 0, 43, 50
2, 135556, Note_off_c, 0, 50, 0
2, 135556, Note_off_c, 0, 43, 0
2, 135556, Note_on_c, 0, 38, 50
2, 135748, Note_off_c, 0, 38, 0
2, 135748, Note_on_c, 0, 50, 50
2, 135748, Note_on_c, 0, 43, 50
2, 135940, Note_off_c, 0, 50, 0
2, 135940, Note_off_c, 0, 62, 0
2, 135940, Note_off_c, 0, 43, 0
2, 135940, Note_off_c, 0, 70, 0
2, 135940, Note_off_c, 0, 58, 0
2, 135940, Note_on_c, 0, 40, 50
2, 135940, Note_on_c, 0, 64, 50
2, 136132, Note_off_c, 0, 40, 0
2, 136132, Note_off_c, 0, 64, 0
2, 136132, Note_on_c, 0, 66, 50
2, 136132, Note_on_c, 0, 47, 50
2, 136132, Note_on_c, 0, 52, 50
2, 136324, Note_off_c, 0, 66, 0
2, 136324, Note_off_c, 0, 52, 0
2, 136324, Note_off_c, 0, 47, 0
2, 136324, Note_on_c, 0, 67, 50
2, 136324, Note_on_c, 0, 40, 50
2, 136516, Note_off_c, 0, 40, 0
2, 136516, Note_off_c, 0, 67, 0
2, 136516, Note_on_c, 0, 52, 50
2, 136516, Note_on_c, 0, 64, 50
2, 136516, Note_on_c, 0, 47, 50
2, 136708, Note_off_c, 0, 47, 0
2, 136708, Note_off_c, 0, 52, 0
2, 136708, Note_off_c, 0, 64, 0
2, 136708, Note_on_c, 0, 66, 50
2, 136708, Note_on_c, 0, 40, 50
2, 136900, Note_off_c, 0, 66, 0
2, 136900, Note_off_c, 0, 40, 0
2, 136900, Note_on_c, 0, 67, 50
2, 136900, Note_on_c, 0, 47, 50
2, 136900, Note_on_c, 0, 52, 50
2, 137092, Note_off_c, 0, 52, 0
2, 137092, Note_off_c, 0, 47, 0
2, 137092, Note_off_c, 0, 67, 0
2, 137092, Note_on_c, 0, 69, 50
2, 137092, Note_on_c, 0, 40, 50
2, 137284, Note_off_c, 0, 40, 0
2, 137284, Note_off_c, 0, 69, 0
2, 137284, Note_on_c, 0, 47, 50
2, 137284, Note_on_c, 0, 66, 50
2, 137284, Note_on_c, 0, 52, 50
2, 137476, Note_off_c, 0, 52, 0
2, 137476, Note_off_c, 0, 66, 0
2, 137476, Note_off_c, 0, 47, 0
2, 137476, Note_on_c, 0, 67, 50
2, 137476, Note_on_c, 0, 40, 50
2, 137668, Note_off_c, 0, 40, 0
2, 137668, Note_off_c, 0, 67, 0
2, 137668, Note_on_c, 0, 52, 50
2, 137668, Note_on_c, 0, 69, 50
2, 137668, Note_on_c, 0, 47, 50
2, 137860, Note_off_c, 0, 47, 0
2, 137860, Note_off_c, 0, 69, 0
2, 137860, Note_off_c, 0, 52, 0
2, 137860, Note_on_c, 0, 71, 50
2, 137860, Note_on_c, 0, 40, 50
2, 138052, Note_off_c, 0, 40, 0
2, 138052, Note_off_c, 0, 71, 0
2, 138052, Note_on_c, 0, 47, 50
2, 138052, Note_on_c, 0, 67, 50
2, 138052, Note_on_c, 0, 52, 50
2, 138244, Note_off_c, 0, 52, 0
2, 138244, Note_off_c, 0, 67, 0
2, 138244, Note_off_c, 0, 47, 0
2, 138244, Note_on_c, 0, 40, 50
2, 138244, Note_on_c, 0, 69, 50
2, 138436, Note_off_c, 0, 40, 0
2, 138436, Note_off_c, 0, 69, 0
2, 138436, Note_on_c, 0, 67, 50
2, 138436, Note_on_c, 0, 52, 50
2, 138436, Note_on_c, 0, 47, 50
2, 138628, Note_off_c, 0, 47, 0
2, 138628, Note_off_c, 0, 52, 0
2, 138628, Note_off_c, 0, 67, 0
2, 138628, Note_on_c, 0, 66, 50
2, 138628, Note_on_c, 0, 40, 50
2, 138820, Note_off_c, 0, 66, 0
2, 138820, Note_off_c, 0, 40, 0
2, 138820, Note_on_c, 0, 52, 50
2, 138820, Note_on_c, 0, 62, 50
2, 138820, Note_on_c, 0, 47, 50
2, 139012, Note_off_c, 0, 47, 0
2, 139012, Note_off_c, 0, 62, 0
2, 139012, Note_off_c, 0, 52, 0
2, 139012, Note_on_c, 0, 40, 50
2, 139012, Note_on_c, 0, 64, 50
2, 139204, Note_off_c, 0, 64, 0
2, 139204, Note_off_c, 0, 40, 0
2, 139204, Note_on_c, 0, 48, 50
2, 139204, Note_on_c, 0, 52, 50
2, 139204, Note_on_c, 0, 66, 50
2, 139396, Note_off_c, 0, 66, 0
2, 139396, Note_off_c, 0, 52, 0
2, 139396, Note_off_c, 0, 48, 0
2, 139396, Note_on_c, 0, 40, 50
2, 139396, Note_on_c, 0, 67, 50
2, 139588, Note_off_c, 0, 67, 0
2, 139588, Note_off_c, 0, 40, 0
2, 139588, Note_on_c, 0, 48, 50
2, 139588, Note_on_c, 0, 64, 50
2, 139588, Note_on_c, 0, 52, 50
2, 139780, Note_off_c, 0, 64, 0
2, 139780, Note_off_c, 0, 48, 0
2, 139780, Note_off_c, 0, 52, 0
2, 139780, Note_on_c, 0, 66, 50
2, 139780, Note_on_c, 0, 40, 50
2, 139972, Note_off_c, 0, 40, 0
2, 139972, Note_off_c, 0, 66, 0
2, 139972, Note_on_c, 0, 67, 50
2, 139972, Note_on_c, 0, 52, 50
2, 139972, Note_on_c, 0, 48, 50
2, 140164, Note_off_c, 0, 48, 0
2, 140164, Note_off_c, 0, 52, 0
2, 140164, Note_off_c, 0, 67, 0
2, 140164, Note_on_c, 0, 69, 50
2, 140164, Note_on_c, 0, 40, 50
2, 140356, Note_off_c, 0, 69, 0
2, 140356, Note_off_c, 0, 40, 0
2, 140356, Note_on_c, 0, 52, 50
2, 140356, Note_on_c, 0, 48, 50
2, 140356, Note_on_c, 0, 66, 50
2, 140548, Note_off_c, 0, 66, 0
2, 140548, Note_off_c, 0, 48, 0
2, 140548, Note_off_c, 0, 52, 0
2, 140548, Note_on_c, 0, 40, 50
2, 140548, Note_on_c, 0, 67, 50
2, 140740, Note_off_c, 0, 67, 0
2, 140740, Note_off_c, 0, 40, 0
2, 140740, Note_on_c, 0, 52, 50
2, 140740, Note_on_c, 0, 48, 50
2, 140740, Note_on_c, 0, 69, 50
2, 140932, Note_off_c, 0, 48, 0
2, 140932, Note_off_c, 0, 52, 0
2, 140932, Note_off_c, 0, 69, 0
2, 140932, Note_on_c, 0, 40, 50
2, 140932, Note_on_c, 0, 71, 50
2, 141124, Note_off_c, 0, 40, 0
2, 141124, Note_off_c, 0, 71, 0
2, 141124, Note_on_c, 0, 67, 50
2, 141124, Note_on_c, 0, 52, 50
2, 141124, Note_on_c, 0, 48, 50
2, 141316, Note_off_c, 0, 52, 0
2, 141316, Note_off_c, 0, 48, 0
2, 141316, Note_off_c, 0, 67, 0
2, 141316, Note_on_c, 0, 40, 50
2, 141316, Note_on_c, 0, 69, 50
2, 141508, Note_off_c, 0, 40, 0
2, 141508, Note_off_c, 0, 69, 0
2, 141508, Note_on_c, 0, 48, 50
2, 141508, Note_on_c, 0, 52, 50
2, 141508, Note_on_c, 0, 67, 50
2, 141700, Note_off_c, 0, 67, 0
2, 141700, Note_off_c, 0, 52, 0
2, 141700, Note_off_c, 0, 48, 0
2, 141700, Note_on_c, 0, 40, 50
2, 141700, Note_on_c, 0, 66, 50
2, 141892, Note_off_c, 0, 40, 0
2, 141892, Note_off_c, 0, 66, 0
2, 141892, Note_on_c, 0, 52, 50
2, 141892, Note_on_c, 0, 62, 50
2, 141892, Note_on_c, 0, 48, 50
2, 142084, Note_off_c, 0, 52, 0
2, 142084, Note_off_c, 0, 48, 0
2, 142084, Note_off_c, 0, 62, 0
2, 142084, Note_on_c, 0, 64, 50
2, 142084, Note_on_c, 0, 67, 50
2, 142084, Note_on_c, 0, 40, 50
2, 142276, Note_off_c, 0, 40, 0
2, 142276, Note_off_c, 0, 64, 0
2, 142276, Note_off_c, 0, 67, 0
2, 142276, Note_on_c, 0, 47, 50
2, 142276, Note_on_c, 0, 69, 50
2, 142276, Note_on_c, 0, 52, 50
2, 142276, Note_on_c, 0, 66, 50
2, 142468, Note_off_c, 0, 66, 0
2, 142468, Note_off_c, 0, 52, 0
2, 142468, Note_off_c, 0, 69, 0
2, 142468, Note_off_c, 0, 47, 0
2, 142468, Note_on_c, 0, 40, 50
2, 142468, Note_on_c, 0, 67, 50
2, 142468, Note_on_c, 0, 71, 50
2, 142660, Note_off_c, 0, 67, 0
2, 142660, Note_off_c, 0, 40, 0
2, 142660, Note_off_c, 0, 71, 0
2, 142660, Note_on_c, 0, 47, 50
2, 142660, Note_on_c, 0, 52, 50
2, 142660, Note_on_c, 0, 67, 50
2, 142660, Note_on_c, 0, 64, 50
2, 142852, Note_off_c, 0, 64, 0
2, 142852, Note_off_c, 0, 67, 0
2, 142852, Note_off_c, 0, 52, 0
2, 142852, Note_off_c, 0, 47, 0
2, 142852, Note_on_c, 0, 66, 50
2, 142852, Note_on_c, 0, 40, 50
2, 142852, Note_on_c, 0, 69, 50
2, 143044, Note_off_c, 0, 66, 0
2, 143044, Note_off_c, 0, 40, 0
2, 143044, Note_off_c, 0, 69, 0
2, 143044, Note_on_c, 0, 47, 50
2, 143044, Note_on_c, 0, 52, 50
2, 143044, Note_on_c, 0, 67, 50
2, 143044, Note_on_c, 0, 71, 50
2, 143236, Note_off_c, 0, 71, 0
2, 143236, Note_off_c, 0, 67, 0
2, 143236, Note_off_c, 0, 52, 0
2, 143236, Note_off_c, 0, 47, 0
2, 143236, Note_on_c, 0, 69, 50
2, 143236, Note_on_c, 0, 72, 50
2, 143236, Note_on_c, 0, 40, 50
2, 143428, Note_off_c, 0, 69, 0
2, 143428, Note_off_c, 0, 40, 0
2, 143428, Note_off_c, 0, 72, 0
2, 143428, Note_on_c, 0, 66, 50
2, 143428, Note_on_c, 0, 47, 50
2, 143428, Note_on_c, 0, 69, 50
2, 143428, Note_on_c, 0, 52, 50
2, 143620, Note_off_c, 0, 52, 0
2, 143620, Note_off_c, 0, 69, 0
2, 143620, Note_off_c, 0, 47, 0
2, 143620, Note_off_c, 0, 66, 0
2, 143620, Note_on_c, 0, 67, 50
2, 143620, Note_on_c, 0, 71, 50
2, 143620, Note_on_c, 0, 40, 50
2, 143812, Note_off_c, 0, 40, 0
2, 143812, Note_off_c, 0, 71, 0
2, 143812, Note_off_c, 0, 67, 0
2, 143812, Note_on_c, 0, 52, 50
2, 143812, Note_on_c, 0, 47, 50
2, 143812, Note_on_c, 0, 69, 50
2, 143812, Note_on_c, 0, 72, 50
2, 144004, Note_off_c, 0, 72, 0
2, 144004, Note_off_c, 0, 69, 0
2, 144004, Note_off_c, 0, 47, 0
2, 144004, Note_off_c, 0, 52, 0
2, 144004, Note_on_c, 0, 71, 50
2, 144004, Note_on_c, 0, 74, 50
2, 144004, Note_on_c, 0, 40, 50
2, 144196, Note_off_c, 0, 71, 0
2, 144196, Note_off_c, 0, 40, 0
2, 144196, Note_off_c, 0, 74, 0
2, 144196, Note_on_c, 0, 52, 50
2, 144196, Note_on_c, 0, 47, 50
2, 144196, Note_on_c, 0, 71, 50
2, 144196, Note_on_c, 0, 67, 50
2, 144388, Note_off_c, 0, 67, 0
2, 144388, Note_off_c, 0, 71, 0
2, 144388, Note_off_c, 0, 47, 0
2, 144388, Note_off_c, 0, 52, 0
2, 144388, Note_on_c, 0, 72, 50
2, 144388, Note_on_c, 0, 69, 50
2, 144388, Note_on_c, 0, 40, 50
2, 144580, Note_off_c, 0, 40, 0
2, 144580, Note_off_c, 0, 72, 0
2, 144580, Note_off_c, 0, 69, 0
2, 144580, Note_on_c, 0, 71, 50
2, 144580, Note_on_c, 0, 47, 50
2, 144580, Note_on_c, 0, 52, 50
2, 144580, Note_on_c, 0, 67, 50
2, 144772, Note_off_c, 0, 67, 0
2, 144772, Note_off_c, 0, 52, 0
2, 144772, Note_off_c, 0, 47, 0
2, 144772, Note_off_c, 0, 71, 0
2, 144772, Note_on_c, 0, 69, 50
2, 144772, Note_on_c, 0, 66, 50
2, 144772, Note_on_c, 0, 40, 50
2, 144964, Note_off_c, 0, 40, 0
2, 144964, Note_off_c, 0, 66, 0
2, 144964, Note_off_c, 0, 69, 0
2, 144964, Note_on_c, 0, 62, 50
2, 144964, Note_on_c, 0, 47, 50
2, 144964, Note_on_c, 0, 52, 50
2, 144964, Note_on_c, 0, 66, 50
2, 145156, Note_off_c, 0, 66, 0
2, 145156, Note_off_c, 0, 52, 0
2, 145156, Note_off_c, 0, 47, 0
2, 145156, Note_off_c, 0, 62, 0
2, 145156, Note_on_c, 0, 67, 50
2, 145156, Note_on_c, 0, 64, 50
2, 145156, Note_on_c, 0, 40, 50
2, 145348, Note_off_c, 0, 67, 0
2, 145348, Note_off_c, 0, 64, 0
2, 145348, Note_off_c, 0, 40, 0
2, 145348, Note_on_c, 0, 52, 50
2, 145348, Note_on_c, 0, 48, 50
2, 145348, Note_on_c, 0, 66, 50
2, 145348, Note_on_c, 0, 69, 50
2, 145540, Note_off_c, 0, 69, 0
2, 145540, Note_off_c, 0, 66, 0
2, 145540, Note_off_c, 0, 48, 0
2, 145540, Note_off_c, 0, 52, 0
2, 145540, Note_on_c, 0, 67, 50
2, 145540, Note_on_c, 0, 71, 50
2, 145540, Note_on_c, 0, 40, 50
2, 145732, Note_off_c, 0, 71, 0
2, 145732, Note_off_c, 0, 67, 0
2, 145732, Note_off_c, 0, 40, 0
2, 145732, Note_on_c, 0, 52, 50
2, 145732, Note_on_c, 0, 67, 50
2, 145732, Note_on_c, 0, 64, 50
2, 145732, Note_on_c, 0, 48, 50
2, 145924, Note_off_c, 0, 52, 0
2, 145924, Note_off_c, 0, 48, 0
2, 145924, Note_off_c, 0, 64, 0
2, 145924, Note_off_c, 0, 67, 0
2, 145924, Note_on_c, 0, 66, 50
2, 145924, Note_on_c, 0, 69, 50
2, 145924, Note_on_c, 0, 40, 50
2, 146116, Note_off_c, 0, 69, 0
2, 146116, Note_off_c, 0, 40, 0
2, 146116, Note_off_c, 0, 66, 0
2, 146116, Note_on_c, 0, 71, 50
2, 146116, Note_on_c, 0, 67, 50
2, 146116, Note_on_c, 0, 48, 50
2, 146116, Note_on_c, 0, 52, 50
2, 146308, Note_off_c, 0, 52, 0
2, 146308, Note_off_c, 0, 48, 0
2, 146308, Note_off_c, 0, 67, 0
2, 146308, Note_off_c, 0, 71, 0
2, 146308, Note_on_c, 0, 69, 50
2, 146308, Note_on_c, 0, 40, 50
2, 146308, Note_on_c, 0, 72, 50
2, 146500, Note_off_c, 0, 72, 0
2, 146500, Note_off_c, 0, 40, 0
2, 146500, Note_off_c, 0, 69, 0
2, 146500, Note_on_c, 0, 69, 50
2, 146500, Note_on_c, 0, 48, 50
2, 146500, Note_on_c, 0, 66, 50
2, 146500, Note_on_c, 0, 52, 50
2, 146692, Note_off_c, 0, 69, 0
2, 146692, Note_off_c, 0, 52, 0
2, 146692, Note_off_c, 0, 66, 0
2, 146692, Note_off_c, 0, 48, 0
2, 146692, Note_on_c, 0, 71, 50
2, 146692, Note_on_c, 0, 67, 50
2, 146692, Note_on_c, 0, 40, 50
2, 146884, Note_off_c, 0, 40, 0
2, 146884, Note_off_c, 0, 67, 0
2, 146884, Note_off_c, 0, 71, 0
2, 146884, Note_on_c, 0, 52, 50
2, 146884, Note_on_c, 0, 72, 50
2, 146884, Note_on_c, 0, 48, 50
2, 146884, Note_on_c, 0, 69, 50
2, 147076, Note_off_c, 0, 48, 0
2, 147076, Note_off_c, 0, 52, 0
2, 147076, Note_off_c, 0, 69, 0
2, 147076, Note_off_c, 0, 72, 0
2, 147076, Note_on_c, 0, 74, 50
2, 147076, Note_on_c, 0, 40, 50
2, 147076, Note_on_c, 0, 71, 50
2, 147268, Note_off_c, 0, 71, 0
2, 147268, Note_off_c, 0, 40, 0
2, 147268, Note_off_c, 0, 74, 0
2, 147268, Note_on_c, 0, 52, 50
2, 147268, Note_on_c, 0, 71, 50
2, 147268, Note_on_c, 0, 67, 50
2, 147268, Note_on_c, 0, 48, 50
2, 147460, Note_off_c, 0, 48, 0
2, 147460, Note_off_c, 0, 71, 0
2, 147460, Note_off_c, 0, 52, 0
2, 147460, Note_off_c, 0, 67, 0
2, 147460, Note_on_c, 0, 40, 50
2, 147460, Note_on_c, 0, 72, 50
2, 147460, Note_on_c, 0, 69, 50
2, 147652, Note_off_c, 0, 69, 0
2, 147652, Note_off_c, 0, 72, 0
2, 147652, Note_off_c, 0, 40, 0
2, 147652, Note_on_c, 0, 67, 50
2, 147652, Note_on_c, 0, 71, 50
2, 147652, Note_on_c, 0, 48, 50
2, 147652, Note_on_c, 0, 52, 50
2, 147844, Note_off_c, 0, 67, 0
2, 147844, Note_off_c, 0, 52, 0
2, 147844, Note_off_c, 0, 48, 0
2, 147844, Note_off_c, 0, 71, 0
2, 147844, Note_on_c, 0, 66, 50
2, 147844, Note_on_c, 0, 69, 50
2, 147844, Note_on_c, 0, 40, 50
2, 148036, Note_off_c, 0, 40, 0
2, 148036, Note_off_c, 0, 66, 0
2, 148036, Note_off_c, 0, 69, 0
2, 148036, Note_on_c, 0, 66, 50
2, 148036, Note_on_c, 0, 62, 50
2, 148036, Note_on_c, 0, 48, 50
2, 148036, Note_on_c, 0, 52, 50
2, 148228, Note_off_c, 0, 52, 0
2, 148228, Note_off_c, 0, 48, 0
2, 148228, Note_off_c, 0, 62, 0
2, 148228, Note_off_c, 0, 66, 0
2, 148228, Note_on_c, 0, 76, 50
2, 148228, Note_on_c, 0, 40, 50
2, 148228, Note_on_c, 0, 67, 50
2, 148228, Note_on_c, 0, 64, 50
2, 148420, Note_off_c, 0, 67, 0
2, 148420, Note_off_c, 0, 64, 0
2, 148420, Note_off_c, 0, 76, 0
2, 148420, Note_off_c, 0, 40, 0
2, 148420, Note_on_c, 0, 47, 50
2, 148420, Note_on_c, 0, 69, 50
2, 148420, Note_on_c, 0, 66, 50
2, 148420, Note_on_c, 0, 52, 50
2, 148612, Note_off_c, 0, 52, 0
2, 148612, Note_off_c, 0, 66, 0
2, 148612, Note_off_c, 0, 47, 0
2, 148612, Note_off_c, 0, 69, 0
2, 148612, Note_on_c, 0, 76, 50
2, 148612, Note_on_c, 0, 71, 50
2, 148612, Note_on_c, 0, 67, 50
2, 148612, Note_on_c, 0, 40, 50
2, 148804, Note_off_c, 0, 40, 0
2, 148804, Note_off_c, 0, 67, 0
2, 148804, Note_off_c, 0, 76, 0
2, 148804, Note_off_c, 0, 71, 0
2, 148804, Note_on_c, 0, 47, 50
2, 148804, Note_on_c, 0, 64, 50
2, 148804, Note_on_c, 0, 52, 50
2, 148804, Note_on_c, 0, 67, 50
2, 148996, Note_off_c, 0, 64, 0
2, 148996, Note_off_c, 0, 67, 0
2, 148996, Note_off_c, 0, 52, 0
2, 148996, Note_off_c, 0, 47, 0
2, 148996, Note_on_c, 0, 69, 50
2, 148996, Note_on_c, 0, 66, 50
2, 148996, Note_on_c, 0, 40, 50
2, 149188, Note_off_c, 0, 40, 0
2, 149188, Note_off_c, 0, 69, 0
2, 149188, Note_off_c, 0, 66, 0
2, 149188, Note_on_c, 0, 76, 50
2, 149188, Note_on_c, 0, 71, 50
2, 149188, Note_on_c, 0, 52, 50
2, 149188, Note_on_c, 0, 67, 50
2, 149188, Note_on_c, 0, 47, 50
2, 149380, Note_off_c, 0, 47, 0
2, 149380, Note_off_c, 0, 71, 0
2, 149380, Note_off_c, 0, 76, 0
2, 149380, Note_off_c, 0, 52, 0
2, 149380, Note_off_c, 0, 67, 0
2, 149380, Note_on_c, 0, 72, 50
2, 149380, Note_on_c, 0, 69, 50
2, 149380, Note_on_c, 0, 76, 50
2, 149380, Note_on_c, 0, 40, 50
2, 149572, Note_off_c, 0, 40, 0
2, 149572, Note_off_c, 0, 76, 0
2, 149572, Note_off_c, 0, 69, 0
2, 149572, Note_off_c, 0, 72, 0
2, 149572, Note_on_c, 0, 52, 50
2, 149572, Note_on_c, 0, 47, 50
2, 149572, Note_on_c, 0, 69, 50
2, 149572, Note_on_c, 0, 66, 50
2, 149764, Note_off_c, 0, 69, 0
2, 149764, Note_off_c, 0, 47, 0
2, 149764, Note_off_c, 0, 66, 0
2, 149764, Note_off_c, 0, 52, 0
2, 149764, Note_on_c, 0, 67, 50
2, 149764, Note_on_c, 0, 71, 50
2, 149764, Note_on_c, 0, 40, 50
2, 149956, Note_off_c, 0, 40, 0
2, 149956, Note_off_c, 0, 71, 0
2, 149956, Note_off_c, 0, 67, 0
2, 149956, Note_on_c, 0, 74, 50
2, 149956, Note_on_c, 0, 72, 50
2, 149956, Note_on_c, 0, 69, 50
2, 149956, Note_on_c, 0, 52, 50
2, 149956, Note_on_c, 0, 47, 50
2, 150148, Note_off_c, 0, 74, 0
2, 150148, Note_off_c, 0, 47, 0
2, 150148, Note_off_c, 0, 52, 0
2, 150148, Note_off_c, 0, 69, 0
2, 150148, Note_off_c, 0, 72, 0
2, 150148, Note_on_c, 0, 71, 50
2, 150148, Note_on_c, 0, 40, 50
2, 150148, Note_on_c, 0, 74, 50
2, 150340, Note_off_c, 0, 40, 0
2, 150340, Note_off_c, 0, 71, 0
2, 150340, Note_off_c, 0, 74, 0
2, 150340, Note_on_c, 0, 67, 50
2, 150340, Note_on_c, 0, 47, 50
2, 150340, Note_on_c, 0, 52, 50
2, 150340, Note_on_c, 0, 71, 50
2, 150532, Note_off_c, 0, 71, 0
2, 150532, Note_off_c, 0, 52, 0
2, 150532, Note_off_c, 0, 47, 0
2, 150532, Note_off_c, 0, 67, 0
2, 150532, Note_on_c, 0, 76, 50
2, 150532, Note_on_c, 0, 69, 50
2, 150532, Note_on_c, 0, 40, 50
2, 150532, Note_on_c, 0, 72, 50
2, 150724, Note_off_c, 0, 69, 0
2, 150724, Note_off_c, 0, 76, 0
2, 150724, Note_off_c, 0, 40, 0
2, 150724, Note_off_c, 0, 72, 0
2, 150724, Note_on_c, 0, 67, 50
2, 150724, Note_on_c, 0, 52, 50
2, 150724, Note_on_c, 0, 47, 50
2, 150724, Note_on_c, 0, 71, 50
2, 150916, Note_off_c, 0, 71, 0
2, 150916, Note_off_c, 0, 47, 0
2, 150916, Note_off_c, 0, 52, 0
2, 150916, Note_off_c, 0, 67, 0
2, 150916, Note_on_c, 0, 66, 50
2, 150916, Note_on_c, 0, 40, 50
2, 150916, Note_on_c, 0, 69, 50
2, 151108, Note_off_c, 0, 66, 0
2, 151108, Note_off_c, 0, 40, 0
2, 151108, Note_off_c, 0, 69, 0
2, 151108, Note_on_c, 0, 52, 50
2, 151108, Note_on_c, 0, 66, 50
2, 151108, Note_on_c, 0, 62, 50
2, 151108, Note_on_c, 0, 47, 50
2, 151300, Note_off_c, 0, 52, 0
2, 151300, Note_off_c, 0, 47, 0
2, 151300, Note_off_c, 0, 62, 0
2, 151300, Note_off_c, 0, 66, 0
2, 151300, Note_on_c, 0, 40, 50
2, 151300, Note_on_c, 0, 67, 50
2, 151300, Note_on_c, 0, 64, 50
2, 151300, Note_on_c, 0, 76, 50
2, 151492, Note_off_c, 0, 76, 0
2, 151492, Note_off_c, 0, 64, 0
2, 151492, Note_off_c, 0, 67, 0
2, 151492, Note_off_c, 0, 40, 0
2, 151492, Note_on_c, 0, 48, 50
2, 151492, Note_on_c, 0, 52, 50
2, 151492, Note_on_c, 0, 69, 50
2, 151492, Note_on_c, 0, 66, 50
2, 151684, Note_off_c, 0, 52, 0
2, 151684, Note_off_c, 0, 48, 0
2, 151684, Note_off_c, 0, 69, 0
2, 151684, Note_off_c, 0, 66, 0
2, 151684, Note_on_c, 0, 40, 50
2, 151684, Note_on_c, 0, 71, 50
2, 151684, Note_on_c, 0, 67, 50
2, 151684, Note_on_c, 0, 76, 50
2, 151876, Note_off_c, 0, 40, 0
2, 151876, Note_off_c, 0, 76, 0
2, 151876, Note_off_c, 0, 67, 0
2, 151876, Note_off_c, 0, 71, 0
2, 151876, Note_on_c, 0, 64, 50
2, 151876, Note_on_c, 0, 52, 50
2, 151876, Note_on_c, 0, 48, 50
2, 151876, Note_on_c, 0, 67, 50
2, 152068, Note_off_c, 0, 48, 0
2, 152068, Note_off_c, 0, 67, 0
2, 152068, Note_off_c, 0, 52, 0
2, 152068, Note_off_c, 0, 64, 0
2, 152068, Note_on_c, 0, 40, 50
2, 152068, Note_on_c, 0, 69, 50
2, 152068, Note_on_c, 0, 66, 50
2, 152260, Note_off_c, 0, 66, 0
2, 152260, Note_off_c, 0, 69, 0
2, 152260, Note_off_c, 0, 40, 0
2, 152260, Note_on_c, 0, 67, 50
2, 152260, Note_on_c, 0, 48, 50
2, 152260, Note_on_c, 0, 52, 50
2, 152260, Note_on_c, 0, 83, 50
2, 152260, Note_on_c, 0, 71, 50
2, 152452, Note_off_c, 0, 67, 0
2, 152452, Note_off_c, 0, 71, 0
2, 152452, Note_off_c, 0, 48, 0
2, 152452, Note_off_c, 0, 52, 0
2, 152452, Note_off_c, 0, 83, 0
2, 152452, Note_on_c, 0, 81, 50
2, 152452, Note_on_c, 0, 69, 50
2, 152452, Note_on_c, 0, 40, 50
2, 152452, Note_on_c, 0, 72, 50
2, 152644, Note_off_c, 0, 81, 0
2, 152644, Note_off_c, 0, 72, 0
2, 152644, Note_off_c, 0, 69, 0
2, 152644, Note_off_c, 0, 40, 0
2, 152644, Note_on_c, 0, 52, 50
2, 152644, Note_on_c, 0, 48, 50
2, 152644, Note_on_c, 0, 66, 50
2, 152644, Note_on_c, 0, 69, 50
2, 152836, Note_off_c, 0, 48, 0
2, 152836, Note_off_c, 0, 52, 0
2, 152836, Note_off_c, 0, 66, 0
2, 152836, Note_off_c, 0, 69, 0
2, 152836, Note_on_c, 0, 40, 50
2, 152836, Note_on_c, 0, 67, 50
2, 152836, Note_on_c, 0, 71, 50
2, 153028, Note_off_c, 0, 71, 0
2, 153028, Note_off_c, 0, 67, 0
2, 153028, Note_off_c, 0, 40, 0
2, 153028, Note_on_c, 0, 48, 50
2, 153028, Note_on_c, 0, 72, 50
2, 153028, Note_on_c, 0, 79, 50
2, 153028, Note_on_c, 0, 69, 50
2, 153028, Note_on_c, 0, 52, 50
2, 153220, Note_off_c, 0, 48, 0
2, 153220, Note_off_c, 0, 79, 0
2, 153220, Note_off_c, 0, 52, 0
2, 153220, Note_off_c, 0, 69, 0
2, 153220, Note_off_c, 0, 72, 0
2, 153220, Note_on_c, 0, 71, 50
2, 153220, Note_on_c, 0, 40, 50
2, 153220, Note_on_c, 0, 74, 50
2, 153412, Note_off_c, 0, 74, 0
2, 153412, Note_off_c, 0, 71, 0
2, 153412, Note_off_c, 0, 40, 0
2, 153412, Note_on_c, 0, 48, 50
2, 153412, Note_on_c, 0, 67, 50
2, 153412, Note_on_c, 0, 71, 50
2, 153412, Note_on_c, 0, 52, 50
2, 153604, Note_off_c, 0, 52, 0
2, 153604, Note_off_c, 0, 71, 0
2, 153604, Note_off_c, 0, 67, 0
2, 153604, Note_off_c, 0, 48, 0
2, 153604, Note_on_c, 0, 40, 50
2, 153604, Note_on_c, 0, 69, 50
2, 153604, Note_on_c, 0, 72, 50
2, 153604, Note_on_c, 0, 78, 50
2, 153796, Note_off_c, 0, 72, 0
2, 153796, Note_off_c, 0, 78, 0
2, 153796, Note_off_c, 0, 40, 0
2, 153796, Note_off_c, 0, 69, 0
2, 153796, Note_on_c, 0, 67, 50
2, 153796, Note_on_c, 0, 71, 50
2, 153796, Note_on_c, 0, 74, 50
2, 153796, Note_on_c, 0, 52, 50
2, 153796, Note_on_c, 0, 48, 50
2, 153988, Note_off_c, 0, 48, 0
2, 153988, Note_off_c, 0, 52, 0
2, 153988, Note_off_c, 0, 74, 0
2, 153988, Note_off_c, 0, 71, 0
2, 153988, Note_off_c, 0, 67, 0
2, 153988, Note_on_c, 0, 69, 50
2, 153988, Note_on_c, 0, 40, 50
2, 153988, Note_on_c, 0, 66, 50
2, 154180, Note_off_c, 0, 66, 0
2, 154180, Note_off_c, 0, 69, 0
2, 154180, Note_off_c, 0, 40, 0
2, 154180, Note_on_c, 0, 48, 50
2, 154180, Note_on_c, 0, 52, 50
2, 154180, Note_on_c, 0, 62, 50
2, 154180, Note_on_c, 0, 66, 50
2, 154372, Note_off_c, 0, 66, 0
2, 154372, Note_off_c, 0, 62, 0
2, 154372, Note_off_c, 0, 52, 0
2, 154372, Note_off_c, 0, 48, 0
2, 154372, Note_on_c, 0, 67, 50
2, 154372, Note_on_c, 0, 76, 50
2, 154372, Note_on_c, 0, 40, 50
2, 154372, Note_on_c, 0, 64, 50
2, 154564, Note_off_c, 0, 64, 0
2, 154564, Note_off_c, 0, 40, 0
2, 154564, Note_off_c, 0, 67, 0
2, 154564, Note_off_c, 0, 76, 0
2, 154564, Note_on_c, 0, 69, 50
2, 154564, Note_on_c, 0, 52, 50
2, 154564, Note_on_c, 0, 47, 50
2, 154564, Note_on_c, 0, 66, 50
2, 154756, Note_off_c, 0, 66, 0
2, 154756, Note_off_c, 0, 47, 0
2, 154756, Note_off_c, 0, 52, 0
2, 154756, Note_off_c, 0, 69, 0
2, 154756, Note_on_c, 0, 67, 50
2, 154756, Note_on_c, 0, 71, 50
2, 154756, Note_on_c, 0, 40, 50
2, 154756, Note_on_c, 0, 76, 50
2, 154948, Note_off_c, 0, 76, 0
2, 154948, Note_off_c, 0, 40, 0
2, 154948, Note_off_c, 0, 67, 0
2, 154948, Note_off_c, 0, 71, 0
2, 154948, Note_on_c, 0, 47, 50
2, 154948, Note_on_c, 0, 67, 50
2, 154948, Note_on_c, 0, 52, 50
2, 154948, Note_on_c, 0, 64, 50
2, 155140, Note_off_c, 0, 52, 0
2, 155140, Note_off_c, 0, 64, 0
2, 155140, Note_off_c, 0, 47, 0
2, 155140, Note_off_c, 0, 67, 0
2, 155140, Note_on_c, 0, 40, 50
2, 155140, Note_on_c, 0, 69, 50
2, 155140, Note_on_c, 0, 66, 50
2, 155332, Note_off_c, 0, 66, 0
2, 155332, Note_off_c, 0, 69, 0
2, 155332, Note_off_c, 0, 40, 0
2, 155332, Note_on_c, 0, 47, 50
2, 155332, Note_on_c, 0, 71, 50
2, 155332, Note_on_c, 0, 67, 50
2, 155332, Note_on_c, 0, 76, 50
2, 155332, Note_on_c, 0, 52, 50
2, 155524, Note_off_c, 0, 47, 0
2, 155524, Note_off_c, 0, 67, 0
2, 155524, Note_off_c, 0, 52, 0
2, 155524, Note_off_c, 0, 71, 0
2, 155524, Note_off_c, 0, 76, 0
2, 155524, Note_on_c, 0, 76, 50
2, 155524, Note_on_c, 0, 40, 50
2, 155524, Note_on_c, 0, 69, 50
2, 155524, Note_on_c, 0, 72, 50
2, 155716, Note_off_c, 0, 40, 0
2, 155716, Note_off_c, 0, 76, 0
2, 155716, Note_off_c, 0, 69, 0
2, 155716, Note_off_c, 0, 72, 0
2, 155716, Note_on_c, 0, 47, 50
2, 155716, Note_on_c, 0, 52, 50
2, 155716, Note_on_c, 0, 69, 50
2, 155716, Note_on_c, 0, 66, 50
2, 155908, Note_off_c, 0, 66, 0
2, 155908, Note_off_c, 0, 69, 0
2, 155908, Note_off_c, 0, 52, 0
2, 155908, Note_off_c, 0, 47, 0
2, 155908, Note_on_c, 0, 71, 50
2, 155908, Note_on_c, 0, 40, 50
2, 155908, Note_on_c, 0, 67, 50
2, 156100, Note_off_c, 0, 67, 0
2, 156100, Note_off_c, 0, 40, 0
2, 156100, Note_off_c, 0, 71, 0
2, 156100, Note_on_c, 0, 69, 50
2, 156100, Note_on_c, 0, 72, 50
2, 156100, Note_on_c, 0, 52, 50
2, 156100, Note_on_c, 0, 74, 50
2, 156100, Note_on_c, 0, 47, 50
2, 156292, Note_off_c, 0, 74, 0
2, 156292, Note_off_c, 0, 72, 0
2, 156292, Note_off_c, 0, 69, 0
2, 156292, Note_off_c, 0, 47, 0
2, 156292, Note_off_c, 0, 52, 0
2, 156292, Note_on_c, 0, 71, 50
2, 156292, Note_on_c, 0, 74, 50
2, 156292, Note_on_c, 0, 40, 50
2, 156484, Note_off_c, 0, 40, 0
2, 156484, Note_off_c, 0, 74, 0
2, 156484, Note_off_c, 0, 71, 0
2, 156484, Note_on_c, 0, 71, 50
2, 156484, Note_on_c, 0, 52, 50
2, 156484, Note_on_c, 0, 47, 50
2, 156484, Note_on_c, 0, 67, 50
2, 156676, Note_off_c, 0, 67, 0
2, 156676, Note_off_c, 0, 52, 0
2, 156676, Note_off_c, 0, 71, 0
2, 156676, Note_off_c, 0, 47, 0
2, 156676, Note_on_c, 0, 72, 50
2, 156676, Note_on_c, 0, 76, 50
2, 156676, Note_on_c, 0, 40, 50
2, 156676, Note_on_c, 0, 69, 50
2, 156868, Note_off_c, 0, 69, 0
2, 156868, Note_off_c, 0, 40, 0
2, 156868, Note_off_c, 0, 76, 0
2, 156868, Note_off_c, 0, 72, 0
2, 156868, Note_on_c, 0, 67, 50
2, 156868, Note_on_c, 0, 47, 50
2, 156868, Note_on_c, 0, 71, 50
2, 156868, Note_on_c, 0, 52, 50
2, 157060, Note_off_c, 0, 67, 0
2, 157060, Note_off_c, 0, 71, 0
2, 157060, Note_off_c, 0, 52, 0
2, 157060, Note_off_c, 0, 47, 0
2, 157060, Note_on_c, 0, 69, 50
2, 157060, Note_on_c, 0, 40, 50
2, 157060, Note_on_c, 0, 66, 50
2, 157252, Note_off_c, 0, 66, 0
2, 157252, Note_off_c, 0, 69, 0
2, 157252, Note_off_c, 0, 40, 0
2, 157252, Note_on_c, 0, 66, 50
2, 157252, Note_on_c, 0, 52, 50
2, 157252, Note_on_c, 0, 47, 50
2, 157252, Note_on_c, 0, 62, 50
2, 157444, Note_off_c, 0, 62, 0
2, 157444, Note_off_c, 0, 47, 0
2, 157444, Note_off_c, 0, 52, 0
2, 157444, Note_off_c, 0, 66, 0
2, 157444, Note_on_c, 0, 76, 50
2, 157444, Note_on_c, 0, 40, 50
2, 157444, Note_on_c, 0, 64, 50
2, 157444, Note_on_c, 0, 67, 50
2, 157636, Note_off_c, 0, 76, 0
2, 157636, Note_off_c, 0, 64, 0
2, 157636, Note_off_c, 0, 67, 0
2, 157636, Note_off_c, 0, 40, 0
2, 157636, Note_on_c, 0, 48, 50
2, 157636, Note_on_c, 0, 66, 50
2, 157636, Note_on_c, 0, 69, 50
2, 157636, Note_on_c, 0, 52, 50
2, 157828, Note_off_c, 0, 52, 0
2, 157828, Note_off_c, 0, 69, 0
2, 157828, Note_off_c, 0, 66, 0
2, 157828, Note_off_c, 0, 48, 0
2, 157828, Note_on_c, 0, 71, 50
2, 157828, Note_on_c, 0, 67, 50
2, 157828, Note_on_c, 0, 76, 50
2, 157828, Note_on_c, 0, 40, 50
2, 158020, Note_off_c, 0, 67, 0
2, 158020, Note_off_c, 0, 76, 0
2, 158020, Note_off_c, 0, 40, 0
2, 158020, Note_off_c, 0, 71, 0
2, 158020, Note_on_c, 0, 64, 50
2, 158020, Note_on_c, 0, 48, 50
2, 158020, Note_on_c, 0, 52, 50
2, 158020, Note_on_c, 0, 67, 50
2, 158212, Note_off_c, 0, 67, 0
2, 158212, Note_off_c, 0, 48, 0
2, 158212, Note_off_c, 0, 64, 0
2, 158212, Note_off_c, 0, 52, 0
2, 158212, Note_on_c, 0, 66, 50
2, 158212, Note_on_c, 0, 40, 50
2, 158212, Note_on_c, 0, 69, 50
2, 158404, Note_off_c, 0, 69, 0
2, 158404, Note_off_c, 0, 40, 0
2, 158404, Note_off_c, 0, 66, 0
2, 158404, Note_on_c, 0, 83, 50
2, 158404, Note_on_c, 0, 52, 50
2, 158404, Note_on_c, 0, 71, 50
2, 158404, Note_on_c, 0, 48, 50
2, 158404, Note_on_c, 0, 67, 50
2, 158596, Note_off_c, 0, 83, 0
2, 158596, Note_off_c, 0, 67, 0
2, 158596, Note_off_c, 0, 48, 0
2, 158596, Note_off_c, 0, 71, 0
2, 158596, Note_off_c, 0, 52, 0
2, 158596, Note_on_c, 0, 81, 50
2, 158596, Note_on_c, 0, 40, 50
2, 158596, Note_on_c, 0, 72, 50
2, 158596, Note_on_c, 0, 69, 50
2, 158788, Note_off_c, 0, 69, 0
2, 158788, Note_off_c, 0, 72, 0
2, 158788, Note_off_c, 0, 81, 0
2, 158788, Note_off_c, 0, 40, 0
2, 158788, Note_on_c, 0, 52, 50
2, 158788, Note_on_c, 0, 69, 50
2, 158788, Note_on_c, 0, 66, 50
2, 158788, Note_on_c, 0, 48, 50
2, 158980, Note_off_c, 0, 66, 0
2, 158980, Note_off_c, 0, 69, 0
2, 158980, Note_off_c, 0, 52, 0
2, 158980, Note_off_c, 0, 48, 0
2, 158980, Note_on_c, 0, 40, 50
2, 158980, Note_on_c, 0, 71, 50
2, 158980, Note_on_c, 0, 67, 50
2, 159172, Note_off_c, 0, 67, 0
2, 159172, Note_off_c, 0, 71, 0
2, 159172, Note_off_c, 0, 40, 0
2, 159172, Note_on_c, 0, 52, 50
2, 159172, Note_on_c, 0, 79, 50
2, 159172, Note_on_c, 0, 72, 50
2, 159172, Note_on_c, 0, 48, 50
2, 159172, Note_on_c, 0, 69, 50
2, 159364, Note_off_c, 0, 79, 0
2, 159364, Note_off_c, 0, 69, 0
2, 159364, Note_off_c, 0, 52, 0
2, 159364, Note_off_c, 0, 72, 0
2, 159364, Note_off_c, 0, 48, 0
2, 159364, Note_on_c, 0, 71, 50
2, 159364, Note_on_c, 0, 74, 50
2, 159364, Note_on_c, 0, 40, 50
2, 159556, Note_off_c, 0, 71, 0
2, 159556, Note_off_c, 0, 74, 0
2, 159556, Note_off_c, 0, 40, 0
2, 159556, Note_on_c, 0, 52, 50
2, 159556, Note_on_c, 0, 48, 50
2, 159556, Note_on_c, 0, 67, 50
2, 159556, Note_on_c, 0, 71, 50
2, 159748, Note_off_c, 0, 67, 0
2, 159748, Note_off_c, 0, 48, 0
2, 159748, Note_off_c, 0, 52, 0
2, 159748, Note_off_c, 0, 71, 0
2, 159748, Note_on_c, 0, 72, 50
2, 159748, Note_on_c, 0, 78, 50
2, 159748, Note_on_c, 0, 40, 50
2, 159748, Note_on_c, 0, 69, 50
2, 159940, Note_off_c, 0, 69, 0
2, 159940, Note_off_c, 0, 40, 0
2, 159940, Note_off_c, 0, 78, 0
2, 159940, Note_off_c, 0, 72, 0
2, 159940, Note_on_c, 0, 67, 50
2, 159940, Note_on_c, 0, 48, 50
2, 159940, Note_on_c, 0, 71, 50
2, 159940, Note_on_c, 0, 74, 50
2, 159940, Note_on_c, 0, 52, 50
2, 160132, Note_off_c, 0, 48, 0
2, 160132, Note_off_c, 0, 52, 0
2, 160132, Note_off_c, 0, 71, 0
2, 160132, Note_off_c, 0, 74, 0
2, 160132, Note_off_c, 0, 67, 0
2, 160132, Note_on_c, 0, 66, 50
2, 160132, Note_on_c, 0, 69, 50
2, 160132, Note_on_c, 0, 40, 50
2, 160324, Note_off_c, 0, 40, 0
2, 160324, Note_off_c, 0, 69, 0
2, 160324, Note_off_c, 0, 66, 0
2, 160324, Note_on_c, 0, 62, 50
2, 160324, Note_on_c, 0, 66, 50
2, 160324, Note_on_c, 0, 52, 50
2, 160324, Note_on_c, 0, 48, 50
2, 160516, Note_off_c, 0, 48, 0
2, 160516, Note_off_c, 0, 52, 0
2, 160516, Note_off_c, 0, 66, 0
2, 160516, Note_off_c, 0, 62, 0
2, 160516, Note_on_c, 0, 28, 50
2, 160612, Note_off_c, 0, 28, 0
2, 160644, Note_on_c, 0, 35, 50
2, 160740, Note_off_c, 0, 35, 0
2, 160773, Note_on_c, 0, 40, 50
2, 160869, Note_off_c, 0, 40, 0
2, 160901, Note_on_c, 0, 47, 50
2, 160997, Note_off_c, 0, 47, 0
2, 161029, Note_on_c, 0, 52, 50
2, 161125, Note_off_c, 0, 52, 0
2, 161158, Note_on_c, 0, 59, 50
2, 161254, Note_off_c, 0, 59, 0
2, 161286, Note_on_c, 0, 64, 50
2, 161382, Note_off_c, 0, 64, 0
2, 161414, Note_on_c, 0, 71, 50
2, 161510, Note_off_c, 0, 71, 0
2, 161543, Note_on_c, 0, 76, 50
2, 161639, Note_off_c, 0, 76, 0
2, 161671, Note_on_c, 0, 83, 50
2, 161767, Note_off_c, 0, 83, 0
2, 161799, Note_on_c, 0, 88, 50
2, 161895, Note_off_c, 0, 88, 0
2, 161928, Note_on_c, 0, 95, 50
2, 162024, Note_off_c, 0, 95, 0
2, 162056, Note_on_c, 0, 28, 50
2, 162056, Note_on_c, 0, 95, 50
2, 162056, Note_on_c, 0, 35, 50
2, 162056, Note_on_c, 0, 40, 50
2, 162104, Note_on_c, 0, 94, 50
2, 162152, Note_off_c, 0, 95, 0
2, 162152, Note_on_c, 0, 93, 50
2, 162200, Note_off_c, 0, 94, 0
2, 162200, Note_on_c, 0, 92, 50
2, 162248, Note_off_c, 0, 93, 0
2, 162248, Note_on_c, 0, 91, 50
2, 162296, Note_off_c, 0, 92, 0
2, 162296, Note_on_c, 0, 90, 50
2, 162344, Note_off_c, 0, 91, 0
2, 162344, Note_on_c, 0, 89, 50
2, 162392, Note_off_c, 0, 90, 0
2, 162392, Note_on_c, 0, 88, 50
2, 162440, Note_off_c, 0, 28, 0
2, 162440, Note_off_c, 0, 35, 0
2, 162440, Note_off_c, 0, 89, 0
2, 162440, Note_off_c, 0, 40, 0
2, 162440, Note_on_c, 0, 87, 50
2, 162440, Note_on_c, 0, 40, 50
2, 162440, Note_on_c, 0, 35, 50
2, 162440, Note_on_c, 0, 28, 50
2, 162488, Note_off_c, 0, 88, 0
2, 162488, Note_on_c, 0, 86, 50
2, 162536, Note_off_c, 0, 87, 0
2, 162536, Note_on_c, 0, 85, 50
2, 162584, Note_off_c, 0, 86, 0
2, 162584, Note_on_c, 0, 84, 50
2, 162632, Note_off_c, 0, 85, 0
2, 162632, Note_on_c, 0, 83, 50
2, 162680, Note_off_c, 0, 84, 0
2, 162680, Note_on_c, 0, 82, 50
2, 162728, Note_off_c, 0, 83, 0
2, 162728, Note_on_c, 0, 81, 50
2, 162776, Note_off_c, 0, 82, 0
2, 162776, Note_on_c, 0, 80, 50
2, 162824, Note_off_c, 0, 28, 0
2, 162824, Note_off_c, 0, 40, 0
2, 162824, Note_off_c, 0, 35, 0
2, 162824, Note_off_c, 0, 81, 0
2, 162824, Note_on_c, 0, 76, 50
2, 162824, Note_on_c, 0, 40, 50
2, 162872, Note_off_c, 0, 80, 0
2, 163016, Note_off_c, 0, 40, 0
2, 163016, Note_on_c, 0, 47, 50
2, 163016, Note_on_c, 0, 52, 50
2, 163208, Note_off_c, 0, 52, 0
2, 163208, Note_off_c, 0, 47, 0
2, 163208, Note_on_c, 0, 40, 50
2, 163400, Note_off_c, 0, 40, 0
2, 163400, Note_on_c, 0, 47, 50
2, 163400, Note_on_c, 0, 52, 50
2, 163592, Note_off_c, 0, 52, 0
2, 163592, Note_off_c, 0, 47, 0
2, 163592, Note_on_c, 0, 40, 50
2, 163784, Note_off_c, 0, 40, 0
2, 163784, Note_on_c, 0, 47, 50
2, 163784, Note_on_c, 0, 52, 50
2, 163976, Note_off_c, 0, 52, 0
2, 163976, Note_off_c, 0, 47, 0
2, 163976, Note_on_c, 0, 40, 50
2, 164168, Note_off_c, 0, 40, 0
2, 164168, Note_on_c, 0, 52, 50
2, 164168, Note_on_c, 0, 47, 50
2, 164360, Note_off_c, 0, 47, 0
2, 164360, Note_off_c, 0, 52, 0
2, 164360, Note_on_c, 0, 40, 50
2, 164552, Note_off_c, 0, 40, 0
2, 164552, Note_on_c, 0, 47, 50
2, 164552, Note_on_c, 0, 52, 50
2, 164744, Note_off_c, 0, 76, 0
2, 164744, Note_off_c, 0, 52, 0
2, 164744, Note_off_c, 0, 47, 0
2, 164744, Note_on_c, 0, 76, 50
2, 164744, Note_on_c, 0, 40, 50
2, 164840, Note_off_c, 0, 76, 0
2, 164840, Note_on_c, 0, 78, 50
2, 164936, Note_off_c, 0, 40, 0
2, 164936, Note_on_c, 0, 52, 50
2, 164936, Note_on_c, 0, 47, 50
2, 165128, Note_off_c, 0, 47, 0
2, 165128, Note_off_c, 0, 78, 0
2, 165128, Note_off_c, 0, 52, 0
2, 165128, Note_on_c, 0, 38, 50
2, 165128, Note_on_c, 0, 79, 50
2, 165320, Note_off_c, 0, 79, 0
2, 165320, Note_off_c, 0, 38, 0
2, 165320, Note_on_c, 0, 45, 50
2, 165320, Note_on_c, 0, 78, 50
2, 165320, Note_on_c, 0, 50, 50
2, 165512, Note_off_c, 0, 78, 0
2, 165512, Note_off_c, 0, 45, 0
2, 165512, Note_off_c, 0, 50, 0
2, 165512, Note_on_c, 0, 76, 50
2, 165512, Note_on_c, 0, 38, 50
2, 165704, Note_off_c, 0, 76, 0
2, 165704, Note_off_c, 0, 38, 0
2, 165704, Note_on_c, 0, 74, 50
2, 165704, Note_on_c, 0, 50, 50
2, 165704, Note_on_c, 0, 45, 50
2, 165896, Note_off_c, 0, 45, 0
2, 165896, Note_off_c, 0, 50, 0
2, 165896, Note_off_c, 0, 74, 0
2, 165896, Note_on_c, 0, 76, 50
2, 165896, Note_on_c, 0, 36, 50
2, 166088, Note_off_c, 0, 36, 0
2, 166088, Note_on_c, 0, 48, 50
2, 166088, Note_on_c, 0, 43, 50
2, 166280, Note_off_c, 0, 43, 0
2, 166280, Note_off_c, 0, 48, 0
2, 166280, Note_on_c, 0, 36, 50
2, 166472, Note_off_c, 0, 36, 0
2, 166472, Note_on_c, 0, 48, 50
2, 166472, Note_on_c, 0, 43, 50
2, 166664, Note_off_c, 0, 76, 0
2, 166664, Note_off_c, 0, 43, 0
2, 166664, Note_off_c, 0, 48, 0
2, 166664, Note_on_c, 0, 83, 50
2, 166664, Note_on_c, 0, 36, 50
2, 166856, Note_off_c, 0, 36, 0
2, 166856, Note_on_c, 0, 43, 50
2, 166856, Note_on_c, 0, 48, 50
2, 167048, Note_off_c, 0, 48, 0
2, 167048, Note_off_c, 0, 43, 0
2, 167048, Note_on_c, 0, 36, 50
2, 167240, Note_off_c, 0, 36, 0
2, 167240, Note_on_c, 0, 43, 50
2, 167240, Note_on_c, 0, 48, 50
2, 167432, Note_off_c, 0, 48, 0
2, 167432, Note_off_c, 0, 83, 0
2, 167432, Note_off_c, 0, 43, 0
2, 167432, Note_on_c, 0, 38, 50
2, 167432, Note_on_c, 0, 78, 50
2, 167624, Note_off_c, 0, 38, 0
2, 167624, Note_on_c, 0, 45, 50
2, 167624, Note_on_c, 0, 50, 50
2, 167816, Note_off_c, 0, 50, 0
2, 167816, Note_off_c, 0, 45, 0
2, 167816, Note_on_c, 0, 38, 50
2, 168008, Note_off_c, 0, 38, 0
2, 168008, Note_on_c, 0, 45, 50
2, 168008, Note_on_c, 0, 50, 50
2, 168200, Note_off_c, 0, 50, 0
2, 168200, Note_off_c, 0, 45, 0
2, 168200, Note_on_c, 0, 38, 50
2, 168392, Note_off_c, 0, 38, 0
2, 168392, Note_on_c, 0, 45, 50
2, 168392, Note_on_c, 0, 50, 50
2, 168584, Note_off_c, 0, 50, 0
2, 168584, Note_off_c, 0, 45, 0
2, 168584, Note_on_c, 0, 38, 50
2, 168776, Note_off_c, 0, 78, 0
2, 168776, Note_off_c, 0, 38, 0
2, 168776, Note_on_c, 0, 45, 50
2, 168776, Note_on_c, 0, 74, 50
2, 168776, Note_on_c, 0, 50, 50
2, 168968, Note_off_c, 0, 50, 0
2, 168968, Note_off_c, 0, 74, 0
2, 168968, Note_off_c, 0, 45, 0
2, 168968, Note_on_c, 0, 76, 50
2, 168968, Note_on_c, 0, 35, 50
2, 169064, Note_off_c, 0, 76, 0
2, 169064, Note_on_c, 0, 74, 50
2, 169160, Note_off_c, 0, 35, 0
2, 169160, Note_off_c, 0, 74, 0
2, 169160, Note_on_c, 0, 76, 50
2, 169160, Note_on_c, 0, 43, 50
2, 169160, Note_on_c, 0, 47, 50
2, 169352, Note_off_c, 0, 47, 0
2, 169352, Note_off_c, 0, 43, 0
2, 169352, Note_off_c, 0, 76, 0
2, 169352, Note_on_c, 0, 35, 50
2, 169352, Note_on_c, 0, 83, 50
2, 169544, Note_off_c, 0, 35, 0
2, 169544, Note_off_c, 0, 83, 0
2, 169544, Note_on_c, 0, 43, 50
2, 169544, Note_on_c, 0, 47, 50
2, 169544, Note_on_c, 0, 76, 50
2, 169640, Note_off_c, 0, 76, 0
2, 169640, Note_on_c, 0, 74, 50
2, 169736, Note_off_c, 0, 47, 0
2, 169736, Note_off_c, 0, 43, 0
2, 169736, Note_off_c, 0, 74, 0
2, 169736, Note_on_c, 0, 35, 50
2, 169736, Note_on_c, 0, 76, 50
2, 169928, Note_off_c, 0, 76, 0
2, 169928, Note_off_c, 0, 35, 0
2, 169928, Note_on_c, 0, 86, 50
2, 169928, Note_on_c, 0, 47, 50
2, 169928, Note_on_c, 0, 43, 50
2, 170120, Note_off_c, 0, 86, 0
2, 170120, Note_off_c, 0, 43, 0
2, 170120, Note_off_c, 0, 47, 0
2, 170120, Note_on_c, 0, 83, 50
2, 170120, Note_on_c, 0, 35, 50
2, 170216, Note_off_c, 0, 83, 0
2, 170216, Note_on_c, 0, 81, 50
2, 170312, Note_off_c, 0, 35, 0
2, 170312, Note_off_c, 0, 81, 0
2, 170312, Note_on_c, 0, 47, 50
2, 170312, Note_on_c, 0, 43, 50
2, 170312, Note_on_c, 0, 79, 50
2, 170504, Note_off_c, 0, 47, 0
2, 170504, Note_off_c, 0, 79, 0
2, 170504, Note_off_c, 0, 43, 0
2, 170504, Note_on_c, 0, 83, 50
2, 170504, Note_on_c, 0, 35, 50
2, 170696, Note_off_c, 0, 35, 0
2, 170696, Note_on_c, 0, 43, 50
2, 170696, Note_on_c, 0, 47, 50
2, 170888, Note_off_c, 0, 47, 0
2, 170888, Note_off_c, 0, 43, 0
2, 170888, Note_on_c, 0, 35, 50
2, 171080, Note_off_c, 0, 35, 0
2, 171080, Note_on_c, 0, 43, 50
2, 171080, Note_on_c, 0, 47, 50
2, 171272, Note_off_c, 0, 47, 0
2, 171272, Note_off_c, 0, 43, 0
2, 171272, Note_on_c, 0, 35, 50
2, 171464, Note_off_c, 0, 35, 0
2, 171464, Note_on_c, 0, 47, 50
2, 171464, Note_on_c, 0, 43, 50
2, 171656, Note_off_c, 0, 43, 0
2, 171656, Note_off_c, 0, 47, 0
2, 171656, Note_on_c, 0, 35, 50
2, 171848, Note_off_c, 0, 35, 0
2, 171848, Note_on_c, 0, 43, 50
2, 171848, Note_on_c, 0, 47, 50
2, 172040, Note_off_c, 0, 47, 0
2, 172040, Note_off_c, 0, 43, 0
2, 172040, Note_off_c, 0, 83, 0
2, 172040, Note_on_c, 0, 76, 50
2, 172040, Note_on_c, 0, 36, 50
2, 172136, Note_off_c, 0, 76, 0
2, 172136, Note_on_c, 0, 74, 50
2, 172232, Note_off_c, 0, 36, 0
2, 172232, Note_off_c, 0, 74, 0
2, 172232, Note_on_c, 0, 43, 50
2, 172232, Note_on_c, 0, 48, 50
2, 172232, Note_on_c, 0, 76, 50
2, 172424, Note_off_c, 0, 76, 0
2, 172424, Note_off_c, 0, 43, 0
2, 172424, Note_off_c, 0, 48, 0
2, 172424, Note_on_c, 0, 36, 50
2, 172424, Note_on_c, 0, 83, 50
2, 172616, Note_off_c, 0, 83, 0
2, 172616, Note_off_c, 0, 36, 0
2, 172616, Note_on_c, 0, 48, 50
2, 172616, Note_on_c, 0, 76, 50
2, 172616, Note_on_c, 0, 43, 50
2, 172712, Note_off_c, 0, 76, 0
2, 172712, Note_on_c, 0, 74, 50
2, 172808, Note_off_c, 0, 74, 0
2, 172808, Note_off_c, 0, 48, 0
2, 172808, Note_off_c, 0, 43, 0
2, 172808, Note_on_c, 0, 36, 50
2, 172808, Note_on_c, 0, 76, 50
2, 173000, Note_off_c, 0, 76, 0
2, 173000, Note_off_c, 0, 36, 0
2, 173000, Note_on_c, 0, 48, 50
2, 173000, Note_on_c, 0, 43, 50
2, 173000, Note_on_c, 0, 86, 50
2, 173192, Note_off_c, 0, 86, 0
2, 173192, Note_off_c, 0, 43, 0
2, 173192, Note_off_c, 0, 48, 0
2, 173192, Note_on_c, 0, 83, 50
2, 173192, Note_on_c, 0, 36, 50
2, 173288, Note_off_c, 0, 83, 0
2, 173288, Note_on_c, 0, 81, 50
2, 173384, Note_off_c, 0, 36, 0
2, 173384, Note_off_c, 0, 81, 0
2, 173384, Note_on_c, 0, 79, 50
2, 173384, Note_on_c, 0, 43, 50
2, 173384, Note_on_c, 0, 48, 50
2, 173576, Note_off_c, 0, 48, 0
2, 173576, Note_off_c, 0, 43, 0
2, 173576, Note_off_c, 0, 79, 0
2, 173576, Note_on_c, 0, 36, 50
2, 173576, Note_on_c, 0, 76, 50
2, 173768, Note_off_c, 0, 36, 0
2, 173768, Note_on_c, 0, 48, 50
2, 173768, Note_on_c, 0, 43, 50
2, 173960, Note_off_c, 0, 48, 0
2, 173960, Note_off_c, 0, 43, 0
2, 173960, Note_on_c, 0, 36, 50
2, 174152, Note_off_c, 0, 36, 0
2, 174152, Note_on_c, 0, 48, 50
2, 174152, Note_on_c, 0, 43, 50
2, 174344, Note_off_c, 0, 43, 0
2, 174344, Note_off_c, 0, 48, 0
2, 174344, Note_on_c, 0, 36, 50
2, 174536, Note_off_c, 0, 36, 0
2, 174536, Note_on_c, 0, 43, 50
2, 174536, Note_on_c, 0, 48, 50
2, 174728, Note_off_c, 0, 43, 0
2, 174728, Note_off_c, 0, 48, 0
2, 174728, Note_on_c, 0, 36, 50
2, 174920, Note_off_c, 0, 36, 0
2, 174920, Note_on_c, 0, 43, 50
2, 174920, Note_on_c, 0, 48, 50
2, 175112, Note_off_c, 0, 48, 0
2, 175112, Note_off_c, 0, 43, 0
2, 175112, Note_off_c, 0, 76, 0
2, 175112, Note_on_c, 0, 71, 50
2, 175112, Note_on_c, 0, 76, 50
2, 175112, Note_on_c, 0, 40, 50
2, 175304, Note_off_c, 0, 40, 0
2, 175304, Note_on_c, 0, 47, 50
2, 175304, Note_on_c, 0, 52, 50
2, 175496, Note_off_c, 0, 52, 0
2, 175496, Note_off_c, 0, 47, 0
2, 175496, Note_on_c, 0, 40, 50
2, 175688, Note_off_c, 0, 40, 0
2, 175688, Note_on_c, 0, 47, 50
2, 175688, Note_on_c, 0, 52, 50
2, 175880, Note_off_c, 0, 47, 0
2, 175880, Note_off_c, 0, 52, 0
2, 175880, Note_on_c, 0, 40, 50
2, 176072, Note_off_c, 0, 40, 0
2, 176072, Note_on_c, 0, 47, 50
2, 176072, Note_on_c, 0, 52, 50
2, 176264, Note_off_c, 0, 47, 0
2, 176264, Note_off_c, 0, 52, 0
2, 176264, Note_on_c, 0, 40, 50
2, 176456, Note_off_c, 0, 40, 0
2, 176456, Note_on_c, 0, 52, 50
2, 176456, Note_on_c, 0, 47, 50
2, 176648, Note_off_c, 0, 52, 0
2, 176648, Note_off_c, 0, 47, 0
2, 176648, Note_on_c, 0, 40, 50
2, 176840, Note_off_c, 0, 40, 0
2, 176840, Note_on_c, 0, 47, 50
2, 176840, Note_on_c, 0, 52, 50
2, 177032, Note_off_c, 0, 52, 0
2, 177032, Note_off_c, 0, 47, 0
2, 177032, Note_off_c, 0, 71, 0
2, 177032, Note_off_c, 0, 76, 0
2, 177032, Note_on_c, 0, 76, 50
2, 177032, Note_on_c, 0, 40, 50
2, 177032, Note_on_c, 0, 71, 50
2, 177128, Note_off_c, 0, 71, 0
2, 177128, Note_off_c, 0, 76, 0
2, 177128, Note_on_c, 0, 78, 50
2, 177128, Note_on_c, 0, 74, 50
2, 177224, Note_off_c, 0, 40, 0
2, 177224, Note_on_c, 0, 47, 50
2, 177224, Note_on_c, 0, 52, 50
2, 177416, Note_off_c, 0, 52, 0
2, 177416, Note_off_c, 0, 78, 0
2, 177416, Note_off_c, 0, 47, 0
2, 177416, Note_off_c, 0, 74, 0
2, 177416, Note_on_c, 0, 38, 50
2, 177416, Note_on_c, 0, 76, 50
2, 177416, Note_on_c, 0, 79, 50
2, 177608, Note_off_c, 0, 79, 0
2, 177608, Note_off_c, 0, 76, 0
2, 177608, Note_off_c, 0, 38, 0
2, 177608, Note_on_c, 0, 78, 50
2, 177608, Note_on_c, 0, 74, 50
2, 177608, Note_on_c, 0, 50, 50
2, 177608, Note_on_c, 0, 45, 50
2, 177800, Note_off_c, 0, 78, 0
2, 177800, Note_off_c, 0, 45, 0
2, 177800, Note_off_c, 0, 50, 0
2, 177800, Note_off_c, 0, 74, 0
2, 177800, Note_on_c, 0, 76, 50
2, 177800, Note_on_c, 0, 71, 50
2, 177800, Note_on_c, 0, 38, 50
2, 177992, Note_off_c, 0, 38, 0
2, 177992, Note_off_c, 0, 76, 0
2, 177992, Note_off_c, 0, 71, 0
2, 177992, Note_on_c, 0, 74, 50
2, 177992, Note_on_c, 0, 45, 50
2, 177992, Note_on_c, 0, 50, 50
2, 177992, Note_on_c, 0, 69, 50
2, 178184, Note_off_c, 0, 74, 0
2, 178184, Note_off_c, 0, 69, 0
2, 178184, Note_off_c, 0, 50, 0
2, 178184, Note_off_c, 0, 45, 0
2, 178184, Note_on_c, 0, 76, 50
2, 178184, Note_on_c, 0, 71, 50
2, 178184, Note_on_c, 0, 36, 50
2, 178376, Note_off_c, 0, 36, 0
2, 178376, Note_on_c, 0, 43, 50
2, 178376, Note_on_c, 0, 48, 50
2, 178568, Note_off_c, 0, 48, 0
2, 178568, Note_off_c, 0, 43, 0
2, 178568, Note_on_c, 0, 36, 50
2, 178760, Note_off_c, 0, 36, 0
2, 178760, Note_on_c, 0, 48, 50
2, 178760, Note_on_c, 0, 43, 50
2, 178952, Note_off_c, 0, 43, 0
2, 178952, Note_off_c, 0, 71, 0
2, 178952, Note_off_c, 0, 48, 0
2, 178952, Note_off_c, 0, 76, 0
2, 178952, Note_on_c, 0, 83, 50
2, 178952, Note_on_c, 0, 76, 50
2, 178952, Note_on_c, 0, 36, 50
2, 179144, Note_off_c, 0, 36, 0
2, 179144, Note_on_c, 0, 43, 50
2, 179144, Note_on_c, 0, 48, 50
2, 179336, Note_off_c, 0, 48, 0
2, 179336, Note_off_c, 0, 43, 0
2, 179336, Note_on_c, 0, 36, 50
2, 179528, Note_off_c, 0, 36, 0
2, 179528, Note_on_c, 0, 43, 50
2, 179528, Note_on_c, 0, 48, 50
2, 179720, Note_off_c, 0, 43, 0
2, 179720, Note_off_c, 0, 48, 0
2, 179720, Note_off_c, 0, 83, 0
2, 179720, Note_off_c, 0, 76, 0
2, 179720, Note_on_c, 0, 78, 50
2, 179720, Note_on_c, 0, 38, 50
2, 179720, Note_on_c, 0, 74, 50
2, 179912, Note_off_c, 0, 38, 0
2, 179912, Note_on_c, 0, 45, 50
2, 179912, Note_on_c, 0, 50, 50
2, 180104, Note_off_c, 0, 45, 0
2, 180104, Note_off_c, 0, 50, 0
2, 180104, Note_on_c, 0, 38, 50
2, 180296, Note_off_c, 0, 38, 0
2, 180296, Note_on_c, 0, 45, 50
2, 180296, Note_on_c, 0, 50, 50
2, 180488, Note_off_c, 0, 50, 0
2, 180488, Note_off_c, 0, 45, 0
2, 180488, Note_on_c, 0, 38, 50
2, 180680, Note_off_c, 0, 38, 0
2, 180680, Note_on_c, 0, 45, 50
2, 180680, Note_on_c, 0, 50, 50
2, 180872, Note_off_c, 0, 50, 0
2, 180872, Note_off_c, 0, 45, 0
2, 180872, Note_on_c, 0, 38, 50
2, 181064, Note_off_c, 0, 74, 0
2, 181064, Note_off_c, 0, 78, 0
2, 181064, Note_off_c, 0, 38, 0
2, 181064, Note_on_c, 0, 50, 50
2, 181064, Note_on_c, 0, 45, 50
2, 181064, Note_on_c, 0, 69, 50
2, 181064, Note_on_c, 0, 74, 50
2, 181256, Note_off_c, 0, 74, 0
2, 181256, Note_off_c, 0, 69, 0
2, 181256, Note_off_c, 0, 45, 0
2, 181256, Note_off_c, 0, 50, 0
2, 181256, Note_on_c, 0, 71, 50
2, 181256, Note_on_c, 0, 76, 50
2, 181256, Note_on_c, 0, 35, 50
2, 181352, Note_off_c, 0, 71, 0
2, 181352, Note_off_c, 0, 76, 0
2, 181352, Note_on_c, 0, 74, 50
2, 181352, Note_on_c, 0, 69, 50
2, 181448, Note_off_c, 0, 74, 0
2, 181448, Note_off_c, 0, 69, 0
2, 181448, Note_off_c, 0, 35, 0
2, 181448, Note_on_c, 0, 47, 50
2, 181448, Note_on_c, 0, 71, 50
2, 181448, Note_on_c, 0, 76, 50
2, 181448, Note_on_c, 0, 43, 50
2, 181640, Note_off_c, 0, 43, 0
2, 181640, Note_off_c, 0, 76, 0
2, 181640, Note_off_c, 0, 47, 0
2, 181640, Note_off_c, 0, 71, 0
2, 181640, Note_on_c, 0, 76, 50
2, 181640, Note_on_c, 0, 35, 50
2, 181640, Note_on_c, 0, 83, 50
2, 181832, Note_off_c, 0, 83, 0
2, 181832, Note_off_c, 0, 35, 0
2, 181832, Note_off_c, 0, 76, 0
2, 181832, Note_on_c, 0, 71, 50
2, 181832, Note_on_c, 0, 76, 50
2, 181832, Note_on_c, 0, 43, 50
2, 181832, Note_on_c, 0, 47, 50
2, 181928, Note_off_c, 0, 71, 0
2, 181928, Note_off_c, 0, 76, 0
2, 181928, Note_on_c, 0, 74, 50
2, 181928, Note_on_c, 0, 69, 50
2, 182024, Note_off_c, 0, 47, 0
2, 182024, Note_off_c, 0, 43, 0
2, 182024, Note_off_c, 0, 69, 0
2, 182024, Note_off_c, 0, 74, 0
2, 182024, Note_on_c, 0, 71, 50
2, 182024, Note_on_c, 0, 76, 50
2, 182024, Note_on_c, 0, 35, 50
2, 182216, Note_off_c, 0, 71, 0
2, 182216, Note_off_c, 0, 35, 0
2, 182216, Note_off_c, 0, 76, 0
2, 182216, Note_on_c, 0, 43, 50
2, 182216, Note_on_c, 0, 83, 50
2, 182216, Note_on_c, 0, 47, 50
2, 182216, Note_on_c, 0, 86, 50
2, 182408, Note_off_c, 0, 86, 0
2, 182408, Note_off_c, 0, 47, 0
2, 182408, Note_off_c, 0, 83, 0
2, 182408, Note_off_c, 0, 43, 0
2, 182408, Note_on_c, 0, 79, 50
2, 182408, Note_on_c, 0, 35, 50
2, 182408, Note_on_c, 0, 83, 50
2, 182504, Note_off_c, 0, 83, 0
2, 182504, Note_off_c, 0, 79, 0
2, 182504, Note_on_c, 0, 81, 50
2, 182504, Note_on_c, 0, 78, 50
2, 182600, Note_off_c, 0, 35, 0
2, 182600, Note_off_c, 0, 78, 0
2, 182600, Note_off_c, 0, 81, 0
2, 182600, Note_on_c, 0, 76, 50
2, 182600, Note_on_c, 0, 43, 50
2, 182600, Note_on_c, 0, 79, 50
2, 182600, Note_on_c, 0, 47, 50
2, 182792, Note_off_c, 0, 43, 0
2, 182792, Note_off_c, 0, 47, 0
2, 182792, Note_off_c, 0, 79, 0
2, 182792, Note_off_c, 0, 76, 0
2, 182792, Note_on_c, 0, 78, 50
2, 182792, Note_on_c, 0, 35, 50
2, 182792, Note_on_c, 0, 83, 50
2, 182984, Note_off_c, 0, 35, 0
2, 182984, Note_on_c, 0, 47, 50
2, 182984, Note_on_c, 0, 43, 50
2, 183176, Note_off_c, 0, 47, 0
2, 183176, Note_off_c, 0, 43, 0
2, 183176, Note_on_c, 0, 35, 50
2, 183368, Note_off_c, 0, 35, 0
2, 183368, Note_on_c, 0, 43, 50
2, 183368, Note_on_c, 0, 47, 50
2, 183560, Note_off_c, 0, 47, 0
2, 183560, Note_off_c, 0, 43, 0
2, 183560, Note_on_c, 0, 35, 50
2, 183752, Note_off_c, 0, 35, 0
2, 183752, Note_on_c, 0, 43, 50
2, 183752, Note_on_c, 0, 47, 50
2, 183944, Note_off_c, 0, 47, 0
2, 183944, Note_off_c, 0, 43, 0
2, 183944, Note_on_c, 0, 35, 50
2, 184136, Note_off_c, 0, 35, 0
2, 184136, Note_on_c, 0, 47, 50
2, 184136, Note_on_c, 0, 43, 50
2, 184328, Note_off_c, 0, 43, 0
2, 184328, Note_off_c, 0, 78, 0
2, 184328, Note_off_c, 0, 47, 0
2, 184328, Note_off_c, 0, 83, 0
2, 184328, Note_on_c, 0, 76, 50
2, 184328, Note_on_c, 0, 71, 50
2, 184328, Note_on_c, 0, 36, 50
2, 184424, Note_off_c, 0, 71, 0
2, 184424, Note_off_c, 0, 76, 0
2, 184424, Note_on_c, 0, 69, 50
2, 184424, Note_on_c, 0, 74, 50
2, 184520, Note_off_c, 0, 74, 0
2, 184520, Note_off_c, 0, 69, 0
2, 184520, Note_off_c, 0, 36, 0
2, 184520, Note_on_c, 0, 48, 50
2, 184520, Note_on_c, 0, 43, 50
2, 184520, Note_on_c, 0, 76, 50
2, 184520, Note_on_c, 0, 71, 50
2, 184712, Note_off_c, 0, 71, 0
2, 184712, Note_off_c, 0, 76, 0
2, 184712, Note_off_c, 0, 43, 0
2, 184712, Note_off_c, 0, 48, 0
2, 184712, Note_on_c, 0, 36, 50
2, 184712, Note_on_c, 0, 76, 50
2, 184712, Note_on_c, 0, 83, 50
2, 184904, Note_off_c, 0, 83, 0
2, 184904, Note_off_c, 0, 36, 0
2, 184904, Note_off_c, 0, 76, 0
2, 184904, Note_on_c, 0, 48, 50
2, 184904, Note_on_c, 0, 43, 50
2, 184904, Note_on_c, 0, 76, 50
2, 184904, Note_on_c, 0, 71, 50
2, 185000, Note_off_c, 0, 71, 0
2, 185000, Note_off_c, 0, 76, 0
2, 185000, Note_on_c, 0, 74, 50
2, 185000, Note_on_c, 0, 69, 50
2, 185096, Note_off_c, 0, 69, 0
2, 185096, Note_off_c, 0, 74, 0
2, 185096, Note_off_c, 0, 48, 0
2, 185096, Note_off_c, 0, 43, 0
2, 185096, Note_on_c, 0, 76, 50
2, 185096, Note_on_c, 0, 36, 50
2, 185096, Note_on_c, 0, 71, 50
2, 185288, Note_off_c, 0, 71, 0
2, 185288, Note_off_c, 0, 76, 0
2, 185288, Note_off_c, 0, 36, 0
2, 185288, Note_on_c, 0, 86, 50
2, 185288, Note_on_c, 0, 83, 50
2, 185288, Note_on_c, 0, 43, 50
2, 185288, Note_on_c, 0, 48, 50
2, 185480, Note_off_c, 0, 43, 0
2, 185480, Note_off_c, 0, 86, 0
2, 185480, Note_off_c, 0, 48, 0
2, 185480, Note_off_c, 0, 83, 0
2, 185480, Note_on_c, 0, 83, 50
2, 185480, Note_on_c, 0, 36, 50
2, 185480, Note_on_c, 0, 79, 50
2, 185576, Note_off_c, 0, 79, 0
2, 185576, Note_off_c, 0, 83, 0
2, 185576, Note_on_c, 0, 78, 50
2, 185576, Note_on_c, 0, 81, 50
2, 185672, Note_off_c, 0, 81, 0
2, 185672, Note_off_c, 0, 78, 0
2, 185672, Note_off_c, 0, 36, 0
2, 185672, Note_on_c, 0, 48, 50
2, 185672, Note_on_c, 0, 79, 50
2, 185672, Note_on_c, 0, 76, 50
2, 185672, Note_on_c, 0, 43, 50
2, 185864, Note_off_c, 0, 43, 0
2, 185864, Note_off_c, 0, 76, 0
2, 185864, Note_off_c, 0, 79, 0
2, 185864, Note_off_c, 0, 48, 0
2, 185864, Note_on_c, 0, 76, 50
2, 185864, Note_on_c, 0, 36, 50
2, 185864, Note_on_c, 0, 71, 50
2, 186056, Note_off_c, 0, 36, 0
2, 186056, Note_on_c, 0, 48, 50
2, 186056, Note_on_c, 0, 43, 50
2, 186248, Note_off_c, 0, 48, 0
2, 186248, Note_off_c, 0, 43, 0
2, 186248, Note_on_c, 0, 36, 50
2, 186440, Note_off_c, 0, 36, 0
2, 186440, Note_on_c, 0, 43, 50
2, 186440, Note_on_c, 0, 48, 50
2, 186632, Note_off_c, 0, 43, 0
2, 186632, Note_off_c, 0, 48, 0
2, 186632, Note_on_c, 0, 36, 50
2, 186824, Note_off_c, 0, 36, 0
2, 186824, Note_on_c, 0, 43, 50
2, 186824, Note_on_c, 0, 48, 50
2, 187016, Note_off_c, 0, 43, 0
2, 187016, Note_off_c, 0, 48, 0
2, 187016, Note_off_c, 0, 76, 0
2, 187016, Note_on_c, 0, 36, 50
2, 187016, Note_on_c, 0, 74, 50
2, 187208, Note_off_c, 0, 36, 0
2, 187208, Note_on_c, 0, 48, 50
2, 187208, Note_on_c, 0, 43, 50
2, 187400, Note_off_c, 0, 74, 0
2, 187400, Note_off_c, 0, 43, 0
2, 187400, Note_off_c, 0, 48, 0
2, 187400, Note_off_c, 0, 71, 0
2, 187400, Note_on_c, 0, 40, 50
2, 187400, Note_on_c, 0, 48, 50
2, 187400, Note_on_c, 0, 52, 50
2, 187400, Note_on_c, 0, 60, 50
2, 187400, Note_on_c, 0, 72, 50
2, 187688, Note_off_c, 0, 60, 0
2, 187688, Note_off_c, 0, 72, 0
2, 187688, Note_on_c, 0, 64, 50
2, 187688, Note_on_c, 0, 76, 50
2, 187976, Note_off_c, 0, 64, 0
2, 187976, Note_off_c, 0, 76, 0
2, 187976, Note_on_c, 0, 67, 50
2, 187976, Note_on_c, 0, 79, 50
2, 188168, Note_off_c, 0, 67, 0
2, 188168, Note_off_c, 0, 79, 0
2, 188168, Note_on_c, 0, 66, 50
2, 188168, Note_on_c, 0, 78, 50
2, 188456, Note_off_c, 0, 78, 0
2, 188456, Note_off_c, 0, 66, 0
2, 188456, Note_on_c, 0, 76, 50
2, 188456, Note_on_c, 0, 64, 50
2, 188744, Note_off_c, 0, 64, 0
2, 188744, Note_off_c, 0, 76, 0
2, 188744, Note_on_c, 0, 62, 50
2, 188744, Note_on_c, 0, 74, 50
2, 188936, Note_off_c, 0, 52, 0
2, 188936, Note_off_c, 0, 74, 0
2, 188936, Note_off_c, 0, 48, 0
2, 188936, Note_off_c, 0, 62, 0
2, 188936, Note_off_c, 0, 40, 0
2, 188936, Note_on_c, 0, 52, 50
2, 188936, Note_on_c, 0, 76, 50
2, 188936, Note_on_c, 0, 64, 50
2, 188936, Note_on_c, 0, 47, 50
2, 188936, Note_on_c, 0, 40, 50
2, 190472, Note_off_c, 0, 52, 0
2, 190472, Note_off_c, 0, 40, 0
2, 190472, Note_off_c, 0, 47, 0
2, 190472, Note_off_c, 0, 76, 0
2, 190472, Note_off_c, 0, 64, 0
2, 190472, Note_on_c, 0, 52, 50
2, 190472, Note_on_c, 0, 60, 50
2, 190472, Note_on_c, 0, 40, 50
2, 190472, Note_on_c, 0, 43, 50
2, 190472, Note_on_c, 0, 72, 50
2, 190760, Note_off_c, 0, 72, 0
2, 190760, Note_off_c, 0, 60, 0
2, 190760, Note_on_c, 0, 64, 50
2, 190760, Note_on_c, 0, 76, 50
2, 191048, Note_off_c, 0, 64, 0
2, 191048, Note_off_c, 0, 76, 0
2, 191048, Note_on_c, 0, 67, 50
2, 191048, Note_on_c, 0, 79, 50
2, 191240, Note_off_c, 0, 67, 0
2, 191240, Note_off_c, 0, 79, 0
2, 191240, Note_on_c, 0, 78, 50
2, 191240, Note_on_c, 0, 66, 50
2, 191528, Note_off_c, 0, 66, 0
2, 191528, Note_off_c, 0, 78, 0
2, 191528, Note_on_c, 0, 79, 50
2, 191528, Note_on_c, 0, 67, 50
2, 191816, Note_off_c, 0, 67, 0
2, 191816, Note_off_c, 0, 79, 0
2, 191816, Note_on_c, 0, 81, 50
2, 191816, Note_on_c, 0, 69, 50
2, 192008, Note_off_c, 0, 43, 0
2, 192008, Note_off_c, 0, 40, 0
2, 192008, Note_off_c, 0, 69, 0
2, 192008, Note_off_c, 0, 81, 0
2, 192008, Note_off_c, 0, 52, 0
2, 192008, Note_on_c, 0, 64, 50
2, 192008, Note_on_c, 0, 76, 50
2, 192008, Note_on_c, 0, 47, 50
2, 192008, Note_on_c, 0, 52, 50
2, 192008, Note_on_c, 0, 40, 50
2, 193544, Note_off_c, 0, 52, 0
2, 193544, Note_off_c, 0, 76, 0
2, 193544, Note_off_c, 0, 47, 0
2, 193544, Note_off_c, 0, 40, 0
2, 193544, Note_off_c, 0, 64, 0
2, 193544, Note_on_c, 0, 52, 50
2, 193544, Note_on_c, 0, 60, 50
2, 193544, Note_on_c, 0, 40, 50
2, 193544, Note_on_c, 0, 48, 50
2, 193544, Note_on_c, 0, 72, 50
2, 193832, Note_off_c, 0, 60, 0
2, 193832, Note_off_c, 0, 72, 0
2, 193832, Note_on_c, 0, 76, 50
2, 193832, Note_on_c, 0, 64, 50
2, 194120, Note_off_c, 0, 64, 0
2, 194120, Note_off_c, 0, 76, 0
2, 194120, Note_on_c, 0, 79, 50
2, 194120, Note_on_c, 0, 67, 50
2, 194312, Note_off_c, 0, 67, 0
2, 194312, Note_off_c, 0, 79, 0
2, 194312, Note_on_c, 0, 66, 50
2, 194312, Note_on_c, 0, 78, 50
2, 194600, Note_off_c, 0, 66, 0
2, 194600, Note_off_c, 0, 78, 0
2, 194600, Note_on_c, 0, 76, 50
2, 194600, Note_on_c, 0, 64, 50
2, 194888, Note_off_c, 0, 64, 0
2, 194888, Note_off_c, 0, 76, 0
2, 194888, Note_on_c, 0, 74, 50
2, 194888, Note_on_c, 0, 62, 50
2, 195080, Note_off_c, 0, 52, 0
2, 195080, Note_off_c, 0, 40, 0
2, 195080, Note_off_c, 0, 48, 0
2, 195080, Note_off_c, 0, 62, 0
2, 195080, Note_off_c, 0, 74, 0
2, 195080, Note_on_c, 0, 47, 50
2, 195080, Note_on_c, 0, 40, 50
2, 195080, Note_on_c, 0, 64, 50
2, 195080, Note_on_c, 0, 52, 50
2, 195080, Note_on_c, 0, 76, 50
2, 196616, Note_off_c, 0, 47, 0
2, 196616, Note_off_c, 0, 40, 0
2, 196616, Note_off_c, 0, 76, 0
2, 196616, Note_off_c, 0, 64, 0
2, 196616, Note_off_c, 0, 52, 0
2, 196616, Note_on_c, 0, 52, 50
2, 196616, Note_on_c, 0, 43, 50
2, 196616, Note_on_c, 0, 60, 50
2, 196616, Note_on_c, 0, 40, 50
2, 196616, Note_on_c, 0, 72, 50
2, 196904, Note_off_c, 0, 60, 0
2, 196904, Note_off_c, 0, 72, 0
2, 196904, Note_on_c, 0, 64, 50
2, 196904, Note_on_c, 0, 76, 50
2, 197192, Note_off_c, 0, 76, 0
2, 197192, Note_off_c, 0, 64, 0
2, 197192, Note_on_c, 0, 67, 50
2, 197192, Note_on_c, 0, 79, 50
2, 197384, Note_off_c, 0, 52, 0
2, 197384, Note_off_c, 0, 40, 0
2, 197384, Note_off_c, 0, 79, 0
2, 197384, Note_off_c, 0, 43, 0
2, 197384, Note_off_c, 0, 67, 0
2, 197384, Note_on_c, 0, 40, 50
2, 197384, Note_on_c, 0, 52, 50
2, 197384, Note_on_c, 0, 78, 50
2, 197384, Note_on_c, 0, 66, 50
2, 197384, Note_on_c, 0, 43, 50
2, 197576, Note_off_c, 0, 40, 0
2, 197576, Note_off_c, 0, 43, 0
2, 197576, Note_off_c, 0, 52, 0
2, 197672, Note_off_c, 0, 66, 0
2, 197672, Note_off_c, 0, 78, 0
2, 197672, Note_on_c, 0, 67, 50
2, 197672, Note_on_c, 0, 79, 50
2, 197672, Note_on_c, 0, 52, 50
2, 197672, Note_on_c, 0, 43, 50
2, 197672, Note_on_c, 0, 40, 50
2, 197864, Note_off_c, 0, 40, 0
2, 197864, Note_off_c, 0, 43, 0
2, 197864, Note_off_c, 0, 52, 0
2, 197960, Note_off_c, 0, 79, 0
2, 197960, Note_off_c, 0, 67, 0
2, 197960, Note_on_c, 0, 69, 50
2, 197960, Note_on_c, 0, 52, 50
2, 197960, Note_on_c, 0, 40, 50
2, 197960, Note_on_c, 0, 43, 50
2, 197960, Note_on_c, 0, 81, 50
2, 198152, Note_off_c, 0, 52, 0
2, 198152, Note_off_c, 0, 69, 0
2, 198152, Note_off_c, 0, 81, 0
2, 198152, Note_off_c, 0, 40, 0
2, 198152, Note_off_c, 0, 43, 0
2, 198152, Note_on_c, 0, 83, 50
2, 198152, Note_on_c, 0, 47, 50
2, 198152, Note_on_c, 0, 55, 50
2, 198152, Note_on_c, 0, 43, 50
2, 198152, Note_on_c, 0, 71, 50
2, 198344, Note_off_c, 0, 55, 0
2, 198344, Note_off_c, 0, 47, 0
2, 198344, Note_off_c, 0, 43, 0
2, 198440, Note_on_c, 0, 47, 50
2, 198440, Note_on_c, 0, 55, 50
2, 198440, Note_on_c, 0, 43, 50
2, 198632, Note_off_c, 0, 43, 0
2, 198632, Note_off_c, 0, 47, 0
2, 198632, Note_off_c, 0, 55, 0
2, 198728, Note_on_c, 0, 43, 50
2, 198728, Note_on_c, 0, 55, 50
2, 198728, Note_on_c, 0, 47, 50
2, 198920, Note_off_c, 0, 47, 0
2, 198920, Note_off_c, 0, 55, 0
2, 198920, Note_off_c, 0, 43, 0
2, 198920, Note_on_c, 0, 47, 50
2, 198920, Note_on_c, 0, 55, 50
2, 198920, Note_on_c, 0, 43, 50
2, 199112, Note_off_c, 0, 43, 0
2, 199112, Note_off_c, 0, 55, 0
2, 199112, Note_off_c, 0, 47, 0
2, 199208, Note_on_c, 0, 43, 50
2, 199208, Note_on_c, 0, 47, 50
2, 199208, Note_on_c, 0, 55, 50
2, 199400, Note_off_c, 0, 47, 0
2, 199400, Note_off_c, 0, 43, 0
2, 199400, Note_off_c, 0, 55, 0
2, 199496, Note_off_c, 0, 83, 0
2, 199496, Note_off_c, 0, 71, 0
2, 199496, Note_on_c, 0, 43, 50
2, 199496, Note_on_c, 0, 55, 50
2, 199496, Note_on_c, 0, 81, 50
2, 199496, Note_on_c, 0, 47, 50
2, 199592, Note_off_c, 0, 81, 0
2, 199592, Note_on_c, 0, 79, 50
2, 199688, Note_off_c, 0, 47, 0
2, 199688, Note_off_c, 0, 43, 0
2, 199688, Note_off_c, 0, 79, 0
2, 199688, Note_off_c, 0, 55, 0
2, 199688, Note_on_c, 0, 69, 50
2, 199688, Note_on_c, 0, 40, 50
2, 199688, Note_on_c, 0, 81, 50
2, 199880, Note_off_c, 0, 40, 0
2, 199880, Note_on_c, 0, 45, 50
2, 199880, Note_on_c, 0, 52, 50
2, 200072, Note_off_c, 0, 45, 0
2, 200072, Note_off_c, 0, 52, 0
2, 200072, Note_on_c, 0, 40, 50
2, 200264, Note_off_c, 0, 40, 0
2, 200264, Note_on_c, 0, 45, 50
2, 200264, Note_on_c, 0, 52, 50
2, 200456, Note_off_c, 0, 81, 0
2, 200456, Note_off_c, 0, 52, 0
2, 200456, Note_off_c, 0, 45, 0
2, 200456, Note_off_c, 0, 69, 0
2, 200456, Note_on_c, 0, 66, 50
2, 200456, Note_on_c, 0, 78, 50
2, 200456, Note_on_c, 0, 40, 50
2, 200648, Note_off_c, 0, 78, 0
2, 200648, Note_off_c, 0, 66, 0
2, 200648, Note_off_c, 0, 40, 0
2, 200648, Note_on_c, 0, 79, 50
2, 200648, Note_on_c, 0, 67, 50
2, 200648, Note_on_c, 0, 45, 50
2, 200648, Note_on_c, 0, 52, 50
2, 200840, Note_off_c, 0, 52, 0
2, 200840, Note_off_c, 0, 45, 0
2, 200840, Note_off_c, 0, 67, 0
2, 200840, Note_off_c, 0, 79, 0
2, 200840, Note_on_c, 0, 81, 50
2, 200840, Note_on_c, 0, 69, 50
2, 200840, Note_on_c, 0, 40, 50
2, 201032, Note_off_c, 0, 81, 0
2, 201032, Note_off_c, 0, 69, 0
2, 201032, Note_off_c, 0, 40, 0
2, 201032, Note_on_c, 0, 78, 50
2, 201032, Note_on_c, 0, 52, 50
2, 201032, Note_on_c, 0, 45, 50
2, 201032, Note_on_c, 0, 66, 50
2, 201224, Note_off_c, 0, 66, 0
2, 201224, Note_off_c, 0, 45, 0
2, 201224, Note_off_c, 0, 52, 0
2, 201224, Note_off_c, 0, 78, 0
2, 201224, Note_on_c, 0, 79, 50
2, 201224, Note_on_c, 0, 67, 50
2, 201224, Note_on_c, 0, 38, 50
2, 201416, Note_off_c, 0, 38, 0
2, 201416, Note_on_c, 0, 43, 50
2, 201416, Note_on_c, 0, 50, 50
2, 201608, Note_off_c, 0, 50, 0
2, 201608, Note_off_c, 0, 43, 0
2, 201608, Note_on_c, 0, 38, 50
2, 201800, Note_off_c, 0, 38, 0
2, 201800, Note_on_c, 0, 43, 50
2, 201800, Note_on_c, 0, 50, 50
2, 201992, Note_off_c, 0, 79, 0
2, 201992, Note_off_c, 0, 67, 0
2, 201992, Note_off_c, 0, 50, 0
2, 201992, Note_off_c, 0, 43, 0
2, 201992, Note_on_c, 0, 64, 50
2, 201992, Note_on_c, 0, 38, 50
2, 201992, Note_on_c, 0, 76, 50
2, 202184, Note_off_c, 0, 38, 0
2, 202184, Note_on_c, 0, 50, 50
2, 202184, Note_on_c, 0, 43, 50
2, 202376, Note_off_c, 0, 64, 0
2, 202376, Note_off_c, 0, 76, 0
2, 202376, Note_off_c, 0, 43, 0
2, 202376, Note_off_c, 0, 50, 0
2, 202376, Note_on_c, 0, 79, 50
2, 202376, Note_on_c, 0, 67, 50
2, 202376, Note_on_c, 0, 38, 50
2, 202568, Note_off_c, 0, 38, 0
2, 202568, Note_on_c, 0, 50, 50
2, 202568, Note_on_c, 0, 43, 50
2, 202760, Note_off_c, 0, 67, 0
2, 202760, Note_off_c, 0, 43, 0
2, 202760, Note_off_c, 0, 79, 0
2, 202760, Note_off_c, 0, 50, 0
2, 202760, Note_on_c, 0, 78, 50
2, 202760, Note_on_c, 0, 66, 50
2, 202760, Note_on_c, 0, 38, 50
2, 202952, Note_off_c, 0, 38, 0
2, 202952, Note_on_c, 0, 42, 50
2, 202952, Note_on_c, 0, 50, 50
2, 203144, Note_off_c, 0, 66, 0
2, 203144, Note_off_c, 0, 78, 0
2, 203144, Note_off_c, 0, 50, 0
2, 203144, Note_off_c, 0, 42, 0
2, 203144, Note_on_c, 0, 38, 50
2, 203144, Note_on_c, 0, 67, 50
2, 203144, Note_on_c, 0, 79, 50
2, 203336, Note_off_c, 0, 38, 0
2, 203336, Note_off_c, 0, 79, 0
2, 203336, Note_off_c, 0, 67, 0
2, 203336, Note_on_c, 0, 69, 50
2, 203336, Note_on_c, 0, 81, 50
2, 203336, Note_on_c, 0, 42, 50
2, 203336, Note_on_c, 0, 50, 50
2, 203528, Note_off_c, 0, 50, 0
2, 203528, Note_off_c, 0, 42, 0
2, 203528, Note_on_c, 0, 38, 50
2, 203720, Note_off_c, 0, 81, 0
2, 203720, Note_off_c, 0, 69, 0
2, 203720, Note_off_c, 0, 38, 0
2, 203720, Note_on_c, 0, 50, 50
2, 203720, Note_on_c, 0, 42, 50
2, 203720, Note_on_c, 0, 67, 50
2, 203720, Note_on_c, 0, 79, 50
2, 203912, Note_off_c, 0, 50, 0
2, 203912, Note_off_c, 0, 67, 0
2, 203912, Note_off_c, 0, 79, 0
2, 203912, Note_off_c, 0, 42, 0
2, 203912, Note_on_c, 0, 66, 50
2, 203912, Note_on_c, 0, 78, 50
2, 203912, Note_on_c, 0, 38, 50
2, 204104, Note_off_c, 0, 38, 0
2, 204104, Note_on_c, 0, 50, 50
2, 204104, Note_on_c, 0, 42, 50
2, 204296, Note_off_c, 0, 66, 0
2, 204296, Note_off_c, 0, 42, 0
2, 204296, Note_off_c, 0, 78, 0
2, 204296, Note_off_c, 0, 50, 0
2, 204296, Note_on_c, 0, 79, 50
2, 204296, Note_on_c, 0, 67, 50
2, 204296, Note_on_c, 0, 38, 50
2, 204488, Note_off_c, 0, 38, 0
2, 204488, Note_on_c, 0, 43, 50
2, 204488, Note_on_c, 0, 50, 50
2, 204680, Note_off_c, 0, 50, 0
2, 204680, Note_off_c, 0, 43, 0
2, 204680, Note_on_c, 0, 38, 50
2, 204872, Note_off_c, 0, 38, 0
2, 204872, Note_on_c, 0, 43, 50
2, 204872, Note_on_c, 0, 50, 50
2, 205064, Note_off_c, 0, 50, 0
2, 205064, Note_off_c, 0, 67, 0
2, 205064, Note_off_c, 0, 43, 0
2, 205064, Note_off_c, 0, 79, 0
2, 205064, Note_on_c, 0, 38, 50
2, 205064, Note_on_c, 0, 64, 50
2, 205064, Note_on_c, 0, 76, 50
2, 205256, Note_off_c, 0, 38, 0
2, 205256, Note_on_c, 0, 50, 50
2, 205256, Note_on_c, 0, 43, 50
2, 205448, Note_off_c, 0, 50, 0
2, 205448, Note_off_c, 0, 43, 0
2, 205448, Note_off_c, 0, 64, 0
2, 205448, Note_off_c, 0, 76, 0
2, 205448, Note_on_c, 0, 38, 50
2, 205448, Note_on_c, 0, 79, 50
2, 205448, Note_on_c, 0, 67, 50
2, 205640, Note_off_c, 0, 38, 0
2, 205640, Note_on_c, 0, 50, 50
2, 205640, Note_on_c, 0, 43, 50
2, 205832, Note_off_c, 0, 67, 0
2, 205832, Note_off_c, 0, 79, 0
2, 205832, Note_off_c, 0, 43, 0
2, 205832, Note_off_c, 0, 50, 0
2, 205832, Note_on_c, 0, 69, 50
2, 205832, Note_on_c, 0, 40, 50
2, 205832, Note_on_c, 0, 81, 50
2, 206024, Note_off_c, 0, 40, 0
2, 206024, Note_on_c, 0, 52, 50
2, 206024, Note_on_c, 0, 45, 50
2, 206216, Note_off_c, 0, 45, 0
2, 206216, Note_off_c, 0, 52, 0
2, 206216, Note_on_c, 0, 40, 50
2, 206408, Note_off_c, 0, 40, 0
2, 206408, Note_on_c, 0, 45, 50
2, 206408, Note_on_c, 0, 52, 50
2, 206600, Note_off_c, 0, 52, 0
2, 206600, Note_off_c, 0, 69, 0
2, 206600, Note_off_c, 0, 45, 0
2, 206600, Note_off_c, 0, 81, 0
2, 206600, Note_on_c, 0, 66, 50
2, 206600, Note_on_c, 0, 78, 50
2, 206600, Note_on_c, 0, 40, 50
2, 206792, Note_off_c, 0, 40, 0
2, 206792, Note_off_c, 0, 78, 0
2, 206792, Note_off_c, 0, 66, 0
2, 206792, Note_on_c, 0, 79, 50
2, 206792, Note_on_c, 0, 67, 50
2, 206792, Note_on_c, 0, 45, 50
2, 206792, Note_on_c, 0, 52, 50
2, 206984, Note_off_c, 0, 67, 0
2, 206984, Note_off_c, 0, 79, 0
2, 206984, Note_off_c, 0, 45, 0
2, 206984, Note_off_c, 0, 52, 0
2, 206984, Note_on_c, 0, 40, 50
2, 206984, Note_on_c, 0, 69, 50
2, 206984, Note_on_c, 0, 81, 50
2, 207176, Note_off_c, 0, 81, 0
2, 207176, Note_off_c, 0, 69, 0
2, 207176, Note_off_c, 0, 40, 0
2, 207176, Note_on_c, 0, 45, 50
2, 207176, Note_on_c, 0, 78, 50
2, 207176, Note_on_c, 0, 52, 50
2, 207176, Note_on_c, 0, 66, 50
2, 207368, Note_off_c, 0, 45, 0
2, 207368, Note_off_c, 0, 66, 0
2, 207368, Note_off_c, 0, 52, 0
2, 207368, Note_off_c, 0, 78, 0
2, 207368, Note_on_c, 0, 79, 50
2, 207368, Note_on_c, 0, 38, 50
2, 207368, Note_on_c, 0, 67, 50
2, 207560, Note_off_c, 0, 38, 0
2, 207560, Note_on_c, 0, 43, 50
2, 207560, Note_on_c, 0, 50, 50
2, 207752, Note_off_c, 0, 50, 0
2, 207752, Note_off_c, 0, 43, 0
2, 207752, Note_on_c, 0, 38, 50
2, 207944, Note_off_c, 0, 38, 0
2, 207944, Note_on_c, 0, 43, 50
2, 207944, Note_on_c, 0, 50, 50
2, 208136, Note_off_c, 0, 67, 0
2, 208136, Note_off_c, 0, 79, 0
2, 208136, Note_off_c, 0, 50, 0
2, 208136, Note_off_c, 0, 43, 0
2, 208136, Note_on_c, 0, 38, 50
2, 208136, Note_on_c, 0, 64, 50
2, 208136, Note_on_c, 0, 76, 50
2, 208328, Note_off_c, 0, 38, 0
2, 208328, Note_on_c, 0, 43, 50
2, 208328, Note_on_c, 0, 50, 50
2, 208520, Note_off_c, 0, 64, 0
2, 208520, Note_off_c, 0, 76, 0
2, 208520, Note_off_c, 0, 50, 0
2, 208520, Note_off_c, 0, 43, 0
2, 208520, Note_on_c, 0, 38, 50
2, 208520, Note_on_c, 0, 79, 50
2, 208520, Note_on_c, 0, 67, 50
2, 208712, Note_off_c, 0, 38, 0
2, 208712, Note_on_c, 0, 50, 50
2, 208712, Note_on_c, 0, 43, 50
2, 208904, Note_off_c, 0, 50, 0
2, 208904, Note_off_c, 0, 43, 0
2, 208904, Note_off_c, 0, 79, 0
2, 208904, Note_off_c, 0, 67, 0
2, 208904, Note_on_c, 0, 40, 50
2, 208904, Note_on_c, 0, 69, 50
2, 208904, Note_on_c, 0, 81, 50
2, 209096, Note_off_c, 0, 40, 0
2, 209096, Note_on_c, 0, 52, 50
2, 209096, Note_on_c, 0, 45, 50
2, 209288, Note_off_c, 0, 52, 0
2, 209288, Note_off_c, 0, 45, 0
2, 209288, Note_on_c, 0, 40, 50
2, 209480, Note_off_c, 0, 40, 0
2, 209480, Note_on_c, 0, 45, 50
2, 209480, Note_on_c, 0, 52, 50
2, 209672, Note_off_c, 0, 45, 0
2, 209672, Note_off_c, 0, 52, 0
2, 209672, Note_on_c, 0, 40, 50
2, 209864, Note_off_c, 0, 40, 0
2, 209864, Note_on_c, 0, 45, 50
2, 209864, Note_on_c, 0, 52, 50
2, 210056, Note_off_c, 0, 69, 0
2, 210056, Note_off_c, 0, 81, 0
2, 210056, Note_off_c, 0, 52, 0
2, 210056, Note_off_c, 0, 45, 0
2, 210056, Note_on_c, 0, 71, 50
2, 210056, Note_on_c, 0, 83, 50
2, 210056, Note_on_c, 0, 40, 50
2, 210248, Note_off_c, 0, 40, 0
2, 210248, Note_on_c, 0, 52, 50
2, 210248, Note_on_c, 0, 45, 50
2, 210440, Note_off_c, 0, 83, 0
2, 210440, Note_off_c, 0, 45, 0
2, 210440, Note_off_c, 0, 52, 0
2, 210440, Note_off_c, 0, 71, 0
2, 210440, Note_on_c, 0, 84, 50
2, 210440, Note_on_c, 0, 42, 50
2, 210440, Note_on_c, 0, 72, 50
2, 210632, Note_off_c, 0, 42, 0
2, 210632, Note_on_c, 0, 45, 50
2, 210632, Note_on_c, 0, 54, 50
2, 210728, Note_off_c, 0, 72, 0
2, 210728, Note_off_c, 0, 84, 0
2, 210728, Note_on_c, 0, 81, 50
2, 210728, Note_on_c, 0, 69, 50
2, 210824, Note_off_c, 0, 54, 0
2, 210824, Note_off_c, 0, 45, 0
2, 210824, Note_on_c, 0, 42, 50
2, 211016, Note_off_c, 0, 69, 0
2, 211016, Note_off_c, 0, 81, 0
2, 211016, Note_off_c, 0, 42, 0
2, 211016, Note_on_c, 0, 45, 50
2, 211016, Note_on_c, 0, 84, 50
2, 211016, Note_on_c, 0, 54, 50
2, 211016, Note_on_c, 0, 72, 50
2, 211208, Note_off_c, 0, 54, 0
2, 211208, Note_off_c, 0, 72, 0
2, 211208, Note_off_c, 0, 45, 0
2, 211208, Note_off_c, 0, 84, 0
2, 211208, Note_on_c, 0, 74, 50
2, 211208, Note_on_c, 0, 86, 50
2, 211208, Note_on_c, 0, 42, 50
2, 211400, Note_off_c, 0, 42, 0
2, 211400, Note_on_c, 0, 54, 50
2, 211400, Note_on_c, 0, 50, 50
2, 211496, Note_off_c, 0, 86, 0
2, 211496, Note_off_c, 0, 74, 0
2, 211496, Note_on_c, 0, 71, 50
2, 211496, Note_on_c, 0, 83, 50
2, 211592, Note_off_c, 0, 54, 0
2, 211592, Note_off_c, 0, 50, 0
2, 211592, Note_on_c, 0, 42, 50
2, 211784, Note_off_c, 0, 83, 0
2, 211784, Note_off_c, 0, 71, 0
2, 211784, Note_off_c, 0, 42, 0
2, 211784, Note_on_c, 0, 50, 50
2, 211784, Note_on_c, 0, 54, 50
2, 211784, Note_on_c, 0, 66, 50
2, 211784, Note_on_c, 0, 78, 50
2, 211976, Note_off_c, 0, 54, 0
2, 211976, Note_off_c, 0, 50, 0
2, 211976, Note_off_c, 0, 66, 0
2, 211976, Note_off_c, 0, 78, 0
2, 211976, Note_on_c, 0, 67, 50
2, 211976, Note_on_c, 0, 79, 50
2, 211976, Note_on_c, 0, 43, 50
2, 212168, Note_off_c, 0, 43, 0
2, 212168, Note_off_c, 0, 79, 0
2, 212168, Note_off_c, 0, 67, 0
2, 212168, Note_on_c, 0, 50, 50
2, 212168, Note_on_c, 0, 74, 50
2, 212168, Note_on_c, 0, 55, 50
2, 212168, Note_on_c, 0, 62, 50
2, 212360, Note_off_c, 0, 50, 0
2, 212360, Note_off_c, 0, 55, 0
2, 212360, Note_on_c, 0, 43, 50
2, 212552, Note_off_c, 0, 62, 0
2, 212552, Note_off_c, 0, 74, 0
2, 212552, Note_off_c, 0, 43, 0
2, 212552, Note_on_c, 0, 55, 50
2, 212552, Note_on_c, 0, 79, 50
2, 212552, Note_on_c, 0, 50, 50
2, 212552, Note_on_c, 0, 67, 50
2, 212744, Note_off_c, 0, 55, 0
2, 212744, Note_off_c, 0, 50, 0
2, 212744, Note_on_c, 0, 43, 50
2, 212936, Note_off_c, 0, 67, 0
2, 212936, Note_off_c, 0, 43, 0
2, 212936, Note_off_c, 0, 79, 0
2, 212936, Note_on_c, 0, 69, 50
2, 212936, Note_on_c, 0, 81, 50
2, 212936, Note_on_c, 0, 50, 50
2, 212936, Note_on_c, 0, 55, 50
2, 213128, Note_off_c, 0, 81, 0
2, 213128, Note_off_c, 0, 55, 0
2, 213128, Note_off_c, 0, 50, 0
2, 213128, Note_off_c, 0, 69, 0
2, 213128, Note_on_c, 0, 43, 50
2, 213128, Note_on_c, 0, 70, 50
2, 213128, Note_on_c, 0, 82, 50
2, 213320, Note_off_c, 0, 82, 0
2, 213320, Note_off_c, 0, 70, 0
2, 213320, Note_off_c, 0, 43, 0
2, 213320, Note_on_c, 0, 84, 50
2, 213320, Note_on_c, 0, 50, 50
2, 213320, Note_on_c, 0, 72, 50
2, 213320, Note_on_c, 0, 55, 50
2, 213512, Note_off_c, 0, 84, 0
2, 213512, Note_off_c, 0, 55, 0
2, 213512, Note_off_c, 0, 72, 0
2, 213512, Note_off_c, 0, 50, 0
2, 213512, Note_on_c, 0, 69, 50
2, 213512, Note_on_c, 0, 81, 50
2, 213512, Note_on_c, 0, 41, 50
2, 213704, Note_off_c, 0, 41, 0
2, 213704, Note_on_c, 0, 48, 50
2, 213704, Note_on_c, 0, 53, 50
2, 213896, Note_off_c, 0, 48, 0
2, 213896, Note_off_c, 0, 53, 0
2, 213896, Note_on_c, 0, 41, 50
2, 214088, Note_off_c, 0, 41, 0
2, 214088, Note_on_c, 0, 48, 50
2, 214088, Note_on_c, 0, 53, 50
2, 214280, Note_off_c, 0, 69, 0
2, 214280, Note_off_c, 0, 81, 0
2, 214280, Note_off_c, 0, 53, 0
2, 214280, Note_off_c, 0, 48, 0
2, 214280, Note_on_c, 0, 67, 50
2, 214280, Note_on_c, 0, 41, 50
2, 214280, Note_on_c, 0, 79, 50
2, 214472, Note_off_c, 0, 41, 0
2, 214472, Note_on_c, 0, 53, 50
2, 214472, Note_on_c, 0, 48, 50
2, 214664, Note_off_c, 0, 79, 0
2, 214664, Note_off_c, 0, 67, 0
2, 214664, Note_off_c, 0, 48, 0
2, 214664, Note_off_c, 0, 53, 0
2, 214664, Note_on_c, 0, 77, 50
2, 214664, Note_on_c, 0, 41, 50
2, 214664, Note_on_c, 0, 65, 50
2, 214856, Note_off_c, 0, 41, 0
2, 214856, Note_on_c, 0, 53, 50
2, 214856, Note_on_c, 0, 48, 50
2, 215048, Note_off_c, 0, 77, 0
2, 215048, Note_off_c, 0, 65, 0
2, 215048, Note_off_c, 0, 48, 0
2, 215048, Note_off_c, 0, 53, 0
2, 215048, Note_on_c, 0, 39, 50
2, 215048, Note_on_c, 0, 63, 50
2, 215048, Note_on_c, 0, 75, 50
2, 215240, Note_off_c, 0, 39, 0
2, 215240, Note_on_c, 0, 51, 50
2, 215240, Note_on_c, 0, 46, 50
2, 215336, Note_off_c, 0, 75, 0
2, 215336, Note_off_c, 0, 63, 0
2, 215336, Note_on_c, 0, 77, 50
2, 215336, Note_on_c, 0, 65, 50
2, 215432, Note_off_c, 0, 51, 0
2, 215432, Note_off_c, 0, 46, 0
2, 215432, Note_on_c, 0, 39, 50
2, 215624, Note_off_c, 0, 65, 0
2, 215624, Note_off_c, 0, 77, 0
2, 215624, Note_off_c, 0, 39, 0
2, 215624, Note_on_c, 0, 46, 50
2, 215624, Note_on_c, 0, 67, 50
2, 215624, Note_on_c, 0, 51, 50
2, 215624, Note_on_c, 0, 79, 50
2, 215816, Note_off_c, 0, 79, 0
2, 215816, Note_off_c, 0, 51, 0
2, 215816, Note_off_c, 0, 46, 0
2, 215816, Note_off_c, 0, 67, 0
2, 215816, Note_on_c, 0, 65, 50
2, 215816, Note_on_c, 0, 77, 50
2, 215816, Note_on_c, 0, 39, 50
2, 216008, Note_off_c, 0, 39, 0
2, 216008, Note_on_c, 0, 46, 50
2, 216008, Note_on_c, 0, 51, 50
2, 216200, Note_off_c, 0, 46, 0
2, 216200, Note_off_c, 0, 51, 0
2, 216200, Note_off_c, 0, 65, 0
2, 216200, Note_off_c, 0, 77, 0
2, 216200, Note_on_c, 0, 75, 50
2, 216200, Note_on_c, 0, 63, 50
2, 216200, Note_on_c, 0, 39, 50
2, 216392, Note_off_c, 0, 39, 0
2, 216392, Note_on_c, 0, 46, 50
2, 216392, Note_on_c, 0, 51, 50
2, 216584, Note_off_c, 0, 63, 0
2, 216584, Note_off_c, 0, 75, 0
2, 216584, Note_off_c, 0, 51, 0
2, 216584, Note_off_c, 0, 46, 0
2, 216584, Note_on_c, 0, 62, 50
2, 216584, Note_on_c, 0, 38, 50
2, 216584, Note_on_c, 0, 74, 50
2, 216776, Note_off_c, 0, 38, 0
2, 216776, Note_on_c, 0, 46, 50
2, 216776, Note_on_c, 0, 50, 50
2, 216968, Note_off_c, 0, 50, 0
2, 216968, Note_off_c, 0, 46, 0
2, 216968, Note_on_c, 0, 38, 50
2, 217160, Note_off_c, 0, 38, 0
2, 217160, Note_on_c, 0, 50, 50
2, 217160, Note_on_c, 0, 46, 50
2, 217352, Note_off_c, 0, 62, 0
2, 217352, Note_off_c, 0, 46, 0
2, 217352, Note_off_c, 0, 50, 0
2, 217352, Note_off_c, 0, 74, 0
2, 217352, Note_on_c, 0, 70, 50
2, 217352, Note_on_c, 0, 38, 50
2, 217352, Note_on_c, 0, 58, 50
2, 217544, Note_off_c, 0, 38, 0
2, 217544, Note_on_c, 0, 46, 50
2, 217544, Note_on_c, 0, 50, 50
2, 217736, Note_off_c, 0, 46, 0
2, 217736, Note_off_c, 0, 50, 0
2, 217736, Note_on_c, 0, 38, 50
2, 217928, Note_off_c, 0, 38, 0
2, 217928, Note_on_c, 0, 50, 50
2, 217928, Note_on_c, 0, 46, 50
2, 218120, Note_off_c, 0, 70, 0
2, 218120, Note_off_c, 0, 46, 0
2, 218120, Note_off_c, 0, 50, 0
2, 218120, Note_off_c, 0, 58, 0
2, 218120, Note_on_c, 0, 36, 50
2, 218120, Note_on_c, 0, 60, 50
2, 218120, Note_on_c, 0, 72, 50
2, 218312, Note_off_c, 0, 36, 0
2, 218312, Note_on_c, 0, 43, 50
2, 218312, Note_on_c, 0, 48, 50
2, 218408, Note_off_c, 0, 72, 0
2, 218408, Note_off_c, 0, 60, 0
2, 218408, Note_on_c, 0, 74, 50
2, 218408, Note_on_c, 0, 62, 50
2, 218504, Note_off_c, 0, 48, 0
2, 218504, Note_off_c, 0, 43, 0
2, 218504, Note_on_c, 0, 36, 50
2, 218696, Note_off_c, 0, 62, 0
2, 218696, Note_off_c, 0, 74, 0
2, 218696, Note_off_c, 0, 36, 0
2, 218696, Note_on_c, 0, 75, 50
2, 218696, Note_on_c, 0, 43, 50
2, 218696, Note_on_c, 0, 48, 50
2, 218696, Note_on_c, 0, 63, 50
2, 218888, Note_off_c, 0, 43, 0
2, 218888, Note_off_c, 0, 75, 0
2, 218888, Note_off_c, 0, 48, 0
2, 218888, Note_off_c, 0, 63, 0
2, 218888, Note_on_c, 0, 67, 50
2, 218888, Note_on_c, 0, 55, 50
2, 218888, Note_on_c, 0, 36, 50
2, 219080, Note_off_c, 0, 36, 0
2, 219080, Note_on_c, 0, 43, 50
2, 219080, Note_on_c, 0, 48, 50
2, 219176, Note_off_c, 0, 55, 0
2, 219176, Note_off_c, 0, 67, 0
2, 219176, Note_on_c, 0, 77, 50
2, 219176, Note_on_c, 0, 65, 50
2, 219272, Note_off_c, 0, 43, 0
2, 219272, Note_off_c, 0, 48, 0
2, 219272, Note_on_c, 0, 36, 50
2, 219464, Note_off_c, 0, 65, 0
2, 219464, Note_off_c, 0, 77, 0
2, 219464, Note_off_c, 0, 36, 0
2, 219464, Note_on_c, 0, 43, 50
2, 219464, Note_on_c, 0, 48, 50
2, 219464, Note_on_c, 0, 63, 50
2, 219464, Note_on_c, 0, 75, 50
2, 219656, Note_off_c, 0, 43, 0
2, 219656, Note_off_c, 0, 75, 0
2, 219656, Note_off_c, 0, 63, 0
2, 219656, Note_off_c, 0, 48, 0
2, 219656, Note_on_c, 0, 74, 50
2, 219656, Note_on_c, 0, 62, 50
2, 219656, Note_on_c, 0, 34, 50
2, 219848, Note_off_c, 0, 34, 0
2, 219848, Note_on_c, 0, 46, 50
2, 219848, Note_on_c, 0, 41, 50
2, 219944, Note_off_c, 0, 74, 0
2, 219944, Note_off_c, 0, 62, 0
2, 219944, Note_on_c, 0, 60, 50
2, 219944, Note_on_c, 0, 72, 50
2, 220040, Note_off_c, 0, 41, 0
2, 220040, Note_off_c, 0, 46, 0
2, 220040, Note_on_c, 0, 34, 50
2, 220232, Note_off_c, 0, 34, 0
2, 220232, Note_off_c, 0, 72, 0
2, 220232, Note_off_c, 0, 60, 0
2, 220232, Note_on_c, 0, 62, 50
2, 220232, Note_on_c, 0, 41, 50
2, 220232, Note_on_c, 0, 46, 50
2, 220232, Note_on_c, 0, 74, 50
2, 220424, Note_off_c, 0, 74, 0
2, 220424, Note_off_c, 0, 46, 0
2, 220424, Note_off_c, 0, 41, 0
2, 220424, Note_off_c, 0, 62, 0
2, 220424, Note_on_c, 0, 67, 50
2, 220424, Note_on_c, 0, 55, 50
2, 220424, Note_on_c, 0, 34, 50
2, 220616, Note_off_c, 0, 34, 0
2, 220616, Note_on_c, 0, 46, 50
2, 220616, Note_on_c, 0, 41, 50
2, 220712, Note_off_c, 0, 67, 0
2, 220712, Note_off_c, 0, 55, 0
2, 220712, Note_on_c, 0, 75, 50
2, 220712, Note_on_c, 0, 63, 50
2, 220808, Note_off_c, 0, 46, 0
2, 220808, Note_off_c, 0, 41, 0
2, 220808, Note_on_c, 0, 34, 50
2, 221000, Note_off_c, 0, 75, 0
2, 221000, Note_off_c, 0, 34, 0
2, 221000, Note_off_c, 0, 63, 0
2, 221000, Note_on_c, 0, 46, 50
2, 221000, Note_on_c, 0, 74, 50
2, 221000, Note_on_c, 0, 62, 50
2, 221000, Note_on_c, 0, 41, 50
2, 221192, Note_off_c, 0, 62, 0
2, 221192, Note_off_c, 0, 74, 0
2, 221192, Note_off_c, 0, 46, 0
2, 221192, Note_off_c, 0, 41, 0
2, 221192, Note_on_c, 0, 36, 50
2, 221192, Note_on_c, 0, 72, 50
2, 221192, Note_on_c, 0, 67, 50
2, 221192, Note_on_c, 0, 60, 50
2, 221384, Note_off_c, 0, 36, 0
2, 221384, Note_on_c, 0, 48, 50
2, 221384, Note_on_c, 0, 43, 50
2, 221576, Note_off_c, 0, 43, 0
2, 221576, Note_off_c, 0, 48, 0
2, 221576, Note_on_c, 0, 36, 50
2, 221768, Note_off_c, 0, 36, 0
2, 221768, Note_on_c, 0, 48, 50
2, 221768, Note_on_c, 0, 43, 50
2, 221960, Note_off_c, 0, 72, 0
2, 221960, Note_off_c, 0, 60, 0
2, 221960, Note_off_c, 0, 67, 0
2, 221960, Note_off_c, 0, 43, 0
2, 221960, Note_off_c, 0, 48, 0
2, 221960, Note_on_c, 0, 36, 50
2, 221960, Note_on_c, 0, 74, 50
2, 221960, Note_on_c, 0, 70, 50
2, 221960, Note_on_c, 0, 62, 50
2, 222152, Note_off_c, 0, 36, 0
2, 222152, Note_on_c, 0, 48, 50
2, 222152, Note_on_c, 0, 43, 50
2, 222344, Note_off_c, 0, 62, 0
2, 222344, Note_off_c, 0, 70, 0
2, 222344, Note_off_c, 0, 74, 0
2, 222344, Note_off_c, 0, 43, 0
2, 222344, Note_off_c, 0, 48, 0
2, 222344, Note_on_c, 0, 69, 50
2, 222344, Note_on_c, 0, 72, 50
2, 222344, Note_on_c, 0, 81, 50
2, 222344, Note_on_c, 0, 36, 50
2, 222536, Note_off_c, 0, 36, 0
2, 222536, Note_on_c, 0, 48, 50
2, 222536, Note_on_c, 0, 43, 50
2, 222728, Note_off_c, 0, 81, 0
2, 222728, Note_off_c, 0, 69, 0
2, 222728, Note_off_c, 0, 43, 0
2, 222728, Note_off_c, 0, 48, 0
2, 222728, Note_off_c, 0, 72, 0
2, 222728, Note_on_c, 0, 79, 50
2, 222728, Note_on_c, 0, 74, 50
2, 222728, Note_on_c, 0, 38, 50
2, 222728, Note_on_c, 0, 67, 50
2, 222920, Note_off_c, 0, 38, 0
2, 222920, Note_on_c, 0, 50, 50
2, 222920, Note_on_c, 0, 45, 50
2, 223112, Note_off_c, 0, 50, 0
2, 223112, Note_off_c, 0, 45, 0
2, 223112, Note_on_c, 0, 38, 50
2, 223304, Note_off_c, 0, 79, 0
2, 223304, Note_off_c, 0, 38, 0
2, 223304, Note_off_c, 0, 74, 0
2, 223304, Note_off_c, 0, 67, 0
2, 223304, Note_on_c, 0, 81, 50
2, 223304, Note_on_c, 0, 45, 50
2, 223304, Note_on_c, 0, 50, 50
2, 223400, Note_off_c, 0, 81, 0
2, 223400, Note_on_c, 0, 79, 50
2, 223496, Note_off_c, 0, 79, 0
2, 223496, Note_off_c, 0, 45, 0
2, 223496, Note_off_c, 0, 50, 0
2, 223496, Note_on_c, 0, 66, 50
2, 223496, Note_on_c, 0, 78, 50
2, 223496, Note_on_c, 0, 74, 50
2, 223496, Note_on_c, 0, 41, 50
2, 223688, Note_off_c, 0, 41, 0
2, 223688, Note_on_c, 0, 48, 50
2, 223688, Note_on_c, 0, 53, 50
2, 223880, Note_off_c, 0, 48, 0
2, 223880, Note_off_c, 0, 53, 0
2, 223880, Note_on_c, 0, 41, 50
2, 224072, Note_off_c, 0, 41, 0
2, 224072, Note_on_c, 0, 48, 50
2, 224072, Note_on_c, 0, 53, 50
2, 224264, Note_off_c, 0, 78, 0
2, 224264, Note_off_c, 0, 74, 0
2, 224264, Note_off_c, 0, 66, 0
2, 224264, Note_off_c, 0, 53, 0
2, 224264, Note_off_c, 0, 48, 0
2, 224264, Note_on_c, 0, 74, 50
2, 224264, Note_on_c, 0, 67, 50
2, 224264, Note_on_c, 0, 43, 50
2, 224264, Note_on_c, 0, 79, 50
2, 224456, Note_off_c, 0, 74, 0
2, 224456, Note_off_c, 0, 79, 0
2, 224456, Note_off_c, 0, 67, 0
2, 224456, Note_off_c, 0, 43, 0
2, 224456, Note_on_c, 0, 50, 50
2, 224456, Note_on_c, 0, 67, 50
2, 224456, Note_on_c, 0, 62, 50
2, 224456, Note_on_c, 0, 74, 50
2, 224456, Note_on_c, 0, 55, 50
2, 224648, Note_off_c, 0, 55, 0
2, 224648, Note_off_c, 0, 50, 0
2, 224648, Note_on_c, 0, 43, 50
2, 224840, Note_off_c, 0, 67, 0
2, 224840, Note_off_c, 0, 62, 0
2, 224840, Note_off_c, 0, 74, 0
2, 224840, Note_off_c, 0, 43, 0
2, 224840, Note_on_c, 0, 67, 50
2, 224840, Note_on_c, 0, 50, 50
2, 224840, Note_on_c, 0, 79, 50
2, 224840, Note_on_c, 0, 74, 50
2, 224840, Note_on_c, 0, 55, 50
2, 225032, Note_off_c, 0, 55, 0
2, 225032, Note_off_c, 0, 50, 0
2, 225032, Note_on_c, 0, 43, 50
2, 225224, Note_off_c, 0, 67, 0
2, 225224, Note_off_c, 0, 74, 0
2, 225224, Note_off_c, 0, 43, 0
2, 225224, Note_off_c, 0, 79, 0
2, 225224, Note_on_c, 0, 77, 50
2, 225224, Note_on_c, 0, 81, 50
2, 225224, Note_on_c, 0, 55, 50
2, 225224, Note_on_c, 0, 50, 50
2, 225224, Note_on_c, 0, 69, 50
2, 225416, Note_off_c, 0, 69, 0
2, 225416, Note_off_c, 0, 81, 0
2, 225416, Note_off_c, 0, 77, 0
2, 225416, Note_off_c, 0, 55, 0
2, 225416, Note_off_c, 0, 50, 0
2, 225416, Note_on_c, 0, 79, 50
2, 225416, Note_on_c, 0, 70, 50
2, 225416, Note_on_c, 0, 43, 50
2, 225416, Note_on_c, 0, 82, 50
2, 225608, Note_off_c, 0, 70, 0
2, 225608, Note_off_c, 0, 79, 0
2, 225608, Note_off_c, 0, 43, 0
2, 225608, Note_off_c, 0, 82, 0
2, 225608, Note_on_c, 0, 50, 50
2, 225608, Note_on_c, 0, 81, 50
2, 225608, Note_on_c, 0, 84, 50
2, 225608, Note_on_c, 0, 72, 50
2, 225608, Note_on_c, 0, 55, 50
2, 225800, Note_off_c, 0, 50, 0
2, 225800, Note_off_c, 0, 81, 0
2, 225800, Note_off_c, 0, 72, 0
2, 225800, Note_off_c, 0, 55, 0
2, 225800, Note_off_c, 0, 84, 0
2, 225800, Note_on_c, 0, 69, 50
2, 225800, Note_on_c, 0, 41, 50
2, 225800, Note_on_c, 0, 81, 50
2, 225800, Note_on_c, 0, 77, 50
2, 225992, Note_off_c, 0, 41, 0
2, 225992, Note_on_c, 0, 53, 50
2, 225992, Note_on_c, 0, 48, 50
2, 226184, Note_off_c, 0, 48, 0
2, 226184, Note_off_c, 0, 53, 0
2, 226184, Note_on_c, 0, 41, 50
2, 226376, Note_off_c, 0, 41, 0
2, 226376, Note_on_c, 0, 48, 50
2, 226376, Note_on_c, 0, 53, 50
2, 226568, Note_off_c, 0, 69, 0
2, 226568, Note_off_c, 0, 77, 0
2, 226568, Note_off_c, 0, 81, 0
2, 226568, Note_off_c, 0, 53, 0
2, 226568, Note_off_c, 0, 48, 0
2, 226568, Note_on_c, 0, 67, 50
2, 226568, Note_on_c, 0, 41, 50
2, 226568, Note_on_c, 0, 79, 50
2, 226568, Note_on_c, 0, 75, 50
2, 226760, Note_off_c, 0, 41, 0
2, 226760, Note_on_c, 0, 53, 50
2, 226760, Note_on_c, 0, 48, 50
2, 226952, Note_off_c, 0, 79, 0
2, 226952, Note_off_c, 0, 75, 0
2, 226952, Note_off_c, 0, 48, 0
2, 226952, Note_off_c, 0, 53, 0
2, 226952, Note_off_c, 0, 67, 0
2, 226952, Note_on_c, 0, 41, 50
2, 226952, Note_on_c, 0, 74, 50
2, 226952, Note_on_c, 0, 65, 50
2, 226952, Note_on_c, 0, 77, 50
2, 227144, Note_off_c, 0, 41, 0
2, 227144, Note_on_c, 0, 53, 50
2, 227144, Note_on_c, 0, 48, 50
2, 227336, Note_off_c, 0, 74, 0
2, 227336, Note_off_c, 0, 65, 0
2, 227336, Note_off_c, 0, 77, 0
2, 227336, Note_off_c, 0, 48, 0
2, 227336, Note_off_c, 0, 53, 0
2, 227336, Note_on_c, 0, 75, 50
2, 227336, Note_on_c, 0, 63, 50
2, 227336, Note_on_c, 0, 70, 50
2, 227336, Note_on_c, 0, 39, 50
2, 227528, Note_off_c, 0, 39, 0
2, 227528, Note_on_c, 0, 46, 50
2, 227528, Note_on_c, 0, 51, 50
2, 227624, Note_off_c, 0, 75, 0
2, 227624, Note_off_c, 0, 63, 0
2, 227624, Note_off_c, 0, 70, 0
2, 227624, Note_on_c, 0, 65, 50
2, 227624, Note_on_c, 0, 74, 50
2, 227624, Note_on_c, 0, 77, 50
2, 227720, Note_off_c, 0, 46, 0
2, 227720, Note_off_c, 0, 51, 0
2, 227720, Note_on_c, 0, 39, 50
2, 227912, Note_off_c, 0, 77, 0
2, 227912, Note_off_c, 0, 74, 0
2, 227912, Note_off_c, 0, 65, 0
2, 227912, Note_off_c, 0, 39, 0
2, 227912, Note_on_c, 0, 51, 50
2, 227912, Note_on_c, 0, 46, 50
2, 227912, Note_on_c, 0, 79, 50
2, 227912, Note_on_c, 0, 75, 50
2, 227912, Note_on_c, 0, 67, 50
2, 228104, Note_off_c, 0, 51, 0
2, 228104, Note_off_c, 0, 67, 0
2, 228104, Note_off_c, 0, 75, 0
2, 228104, Note_off_c, 0, 79, 0
2, 228104, Note_off_c, 0, 46, 0
2, 228104, Note_on_c, 0, 74, 50
2, 228104, Note_on_c, 0, 39, 50
2, 228104, Note_on_c, 0, 77, 50
2, 228104, Note_on_c, 0, 65, 50
2, 228296, Note_off_c, 0, 39, 0
2, 228296, Note_on_c, 0, 46, 50
2, 228296, Note_on_c, 0, 51, 50
2, 228488, Note_off_c, 0, 74, 0
2, 228488, Note_off_c, 0, 65, 0
2, 228488, Note_off_c, 0, 77, 0
2, 228488, Note_off_c, 0, 51, 0
2, 228488, Note_off_c, 0, 46, 0
2, 228488, Note_on_c, 0, 63, 50
2, 228488, Note_on_c, 0, 75, 50
2, 228488, Note_on_c, 0, 70, 50
2, 228488, Note_on_c, 0, 39, 50
2, 228680, Note_off_c, 0, 39, 0
2, 228680, Note_on_c, 0, 51, 50
2, 228680, Note_on_c, 0, 46, 50
2, 228872, Note_off_c, 0, 63, 0
2, 228872, Note_off_c, 0, 75, 0
2, 228872, Note_off_c, 0, 70, 0
2, 228872, Note_off_c, 0, 46, 0
2, 228872, Note_off_c, 0, 51, 0
2, 228872, Note_on_c, 0, 74, 50
2, 228872, Note_on_c, 0, 38, 50
2, 228872, Note_on_c, 0, 70, 50
2, 228872, Note_on_c, 0, 62, 50
2, 229064, Note_off_c, 0, 38, 0
2, 229064, Note_on_c, 0, 50, 50
2, 229064, Note_on_c, 0, 46, 50
2, 229256, Note_off_c, 0, 46, 0
2, 229256, Note_off_c, 0, 50, 0
2, 229256, Note_on_c, 0, 38, 50
2, 229448, Note_off_c, 0, 38, 0
2, 229448, Note_on_c, 0, 46, 50
2, 229448, Note_on_c, 0, 50, 50
2, 229544, Note_off_c, 0, 74, 0
2, 229544, Note_off_c, 0, 62, 0
2, 229544, Note_off_c, 0, 70, 0
2, 229544, Note_on_c, 0, 72, 50
2, 229592, Note_on_c, 0, 71, 50
2, 229640, Note_off_c, 0, 50, 0
2, 229640, Note_off_c, 0, 72, 0
2, 229640, Note_off_c, 0, 46, 0
2, 229640, Note_on_c, 0, 38, 50
2, 229640, Note_on_c, 0, 70, 50
2, 229640, Note_on_c, 0, 62, 50
2, 229640, Note_on_c, 0, 58, 50
2, 229688, Note_off_c, 0, 71, 0
2, 229832, Note_off_c, 0, 38, 0
2, 229832, Note_on_c, 0, 50, 50
2, 229832, Note_on_c, 0, 46, 50
2, 230024, Note_off_c, 0, 46, 0
2, 230024, Note_off_c, 0, 50, 0
2, 230024, Note_on_c, 0, 38, 50
2, 230216, Note_off_c, 0, 38, 0
2, 230216, Note_on_c, 0, 46, 50
2, 230216, Note_on_c, 0, 50, 50
2, 230408, Note_off_c, 0, 62, 0
2, 230408, Note_off_c, 0, 58, 0
2, 230408, Note_off_c, 0, 50, 0
2, 230408, Note_off_c, 0, 46, 0
2, 230408, Note_off_c, 0, 70, 0
2, 230408, Note_on_c, 0, 72, 50
2, 230408, Note_on_c, 0, 36, 50
2, 230408, Note_on_c, 0, 69, 50
2, 230408, Note_on_c, 0, 60, 50
2, 230600, Note_off_c, 0, 36, 0
2, 230600, Note_on_c, 0, 48, 50
2, 230600, Note_on_c, 0, 43, 50
2, 230696, Note_off_c, 0, 69, 0
2, 230696, Note_off_c, 0, 60, 0
2, 230696, Note_off_c, 0, 72, 0
2, 230696, Note_on_c, 0, 70, 50
2, 230696, Note_on_c, 0, 74, 50
2, 230696, Note_on_c, 0, 62, 50
2, 230792, Note_off_c, 0, 43, 0
2, 230792, Note_off_c, 0, 48, 0
2, 230792, Note_on_c, 0, 36, 50
2, 230984, Note_off_c, 0, 70, 0
2, 230984, Note_off_c, 0, 62, 0
2, 230984, Note_off_c, 0, 74, 0
2, 230984, Note_off_c, 0, 36, 0
2, 230984, Note_on_c, 0, 63, 50
2, 230984, Note_on_c, 0, 75, 50
2, 230984, Note_on_c, 0, 43, 50
2, 230984, Note_on_c, 0, 48, 50
2, 230984, Note_on_c, 0, 72, 50
2, 231176, Note_off_c, 0, 63, 0
2, 231176, Note_off_c, 0, 48, 0
2, 231176, Note_off_c, 0, 75, 0
2, 231176, Note_off_c, 0, 43, 0
2, 231176, Note_off_c, 0, 72, 0
2, 231176, Note_on_c, 0, 63, 50
2, 231176, Note_on_c, 0, 55, 50
2, 231176, Note_on_c, 0, 67, 50
2, 231176, Note_on_c, 0, 36, 50
2, 231368, Note_off_c, 0, 63, 0
2, 231368, Note_off_c, 0, 36, 0
2, 231368, Note_off_c, 0, 55, 0
2, 231368, Note_off_c, 0, 67, 0
2, 231368, Note_on_c, 0, 60, 50
2, 231368, Note_on_c, 0, 72, 50
2, 231368, Note_on_c, 0, 48, 50
2, 231368, Note_on_c, 0, 43, 50
2, 231464, Note_off_c, 0, 72, 0
2, 231464, Note_off_c, 0, 60, 0
2, 231464, Note_on_c, 0, 74, 50
2, 231464, Note_on_c, 0, 62, 50
2, 231560, Note_off_c, 0, 43, 0
2, 231560, Note_off_c, 0, 62, 0
2, 231560, Note_off_c, 0, 48, 0
2, 231560, Note_off_c, 0, 74, 0
2, 231560, Note_on_c, 0, 36, 50
2, 231560, Note_on_c, 0, 77, 50
2, 231560, Note_on_c, 0, 74, 50
2, 231560, Note_on_c, 0, 65, 50
2, 231752, Note_off_c, 0, 36, 0
2, 231752, Note_off_c, 0, 74, 0
2, 231752, Note_off_c, 0, 65, 0
2, 231752, Note_off_c, 0, 77, 0
2, 231752, Note_on_c, 0, 48, 50
2, 231752, Note_on_c, 0, 72, 50
2, 231752, Note_on_c, 0, 75, 50
2, 231752, Note_on_c, 0, 43, 50
2, 231752, Note_on_c, 0, 63, 50
2, 231944, Note_off_c, 0, 72, 0
2, 231944, Note_off_c, 0, 43, 0
2, 231944, Note_off_c, 0, 48, 0
2, 231944, Note_off_c, 0, 75, 0
2, 231944, Note_off_c, 0, 63, 0
2, 231944, Note_on_c, 0, 74, 50
2, 231944, Note_on_c, 0, 34, 50
2, 231944, Note_on_c, 0, 70, 50
2, 231944, Note_on_c, 0, 62, 50
2, 232136, Note_off_c, 0, 34, 0
2, 232136, Note_on_c, 0, 41, 50
2, 232136, Note_on_c, 0, 46, 50
2, 232232, Note_off_c, 0, 74, 0
2, 232232, Note_off_c, 0, 62, 0
2, 232232, Note_off_c, 0, 70, 0
2, 232232, Note_on_c, 0, 60, 50
2, 232232, Note_on_c, 0, 69, 50
2, 232232, Note_on_c, 0, 72, 50
2, 232328, Note_off_c, 0, 46, 0
2, 232328, Note_off_c, 0, 41, 0
2, 232328, Note_on_c, 0, 34, 50
2, 232520, Note_off_c, 0, 72, 0
2, 232520, Note_off_c, 0, 69, 0
2, 232520, Note_off_c, 0, 34, 0
2, 232520, Note_off_c, 0, 60, 0
2, 232520, Note_on_c, 0, 74, 50
2, 232520, Note_on_c, 0, 62, 50
2, 232520, Note_on_c, 0, 41, 50
2, 232520, Note_on_c, 0, 46, 50
2, 232520, Note_on_c, 0, 70, 50
2, 232712, Note_off_c, 0, 62, 0
2, 232712, Note_off_c, 0, 70, 0
2, 232712, Note_off_c, 0, 41, 0
2, 232712, Note_off_c, 0, 46, 0
2, 232712, Note_off_c, 0, 74, 0
2, 232712, Note_on_c, 0, 79, 50
2, 232712, Note_on_c, 0, 34, 50
2, 232712, Note_on_c, 0, 74, 50
2, 232712, Note_on_c, 0, 67, 50
2, 232904, Note_off_c, 0, 34, 0
2, 232904, Note_on_c, 0, 46, 50
2, 232904, Note_on_c, 0, 41, 50
2, 233000, Note_off_c, 0, 67, 0
2, 233000, Note_off_c, 0, 74, 0
2, 233000, Note_off_c, 0, 79, 0
2, 233000, Note_on_c, 0, 62, 50
2, 233000, Note_on_c, 0, 70, 50
2, 233000, Note_on_c, 0, 74, 50
2, 233096, Note_off_c, 0, 41, 0
2, 233096, Note_off_c, 0, 46, 0
2, 233096, Note_on_c, 0, 34, 50
2, 233288, Note_off_c, 0, 62, 0
2, 233288, Note_off_c, 0, 74, 0
2, 233288, Note_off_c, 0, 70, 0
2, 233288, Note_off_c, 0, 34, 0
2, 233288, Note_on_c, 0, 60, 50
2, 233288, Note_on_c, 0, 72, 50
2, 233288, Note_on_c, 0, 46, 50
2, 233288, Note_on_c, 0, 41, 50
2, 233288, Note_on_c, 0, 69, 50
2, 233480, Note_off_c, 0, 72, 0
2, 233480, Note_off_c, 0, 69, 0
2, 233480, Note_off_c, 0, 60, 0
2, 233480, Note_off_c, 0, 41, 0
2, 233480, Note_off_c, 0, 46, 0
2, 233480, Note_on_c, 0, 60, 50
2, 233480, Note_on_c, 0, 69, 50
2, 233480, Note_on_c, 0, 33, 50
2, 233480, Note_on_c, 0, 72, 50
2, 233672, Note_off_c, 0, 33, 0
2, 233672, Note_on_c, 0, 40, 50
2, 233672, Note_on_c, 0, 45, 50
2, 233864, Note_off_c, 0, 45, 0
2, 233864, Note_off_c, 0, 40, 0
2, 233864, Note_on_c, 0, 33, 50
2, 234056, Note_off_c, 0, 33, 0
2, 234056, Note_on_c, 0, 40, 50
2, 234056, Note_on_c, 0, 45, 50
2, 234248, Note_off_c, 0, 45, 0
2, 234248, Note_off_c, 0, 72, 0
2, 234248, Note_off_c, 0, 40, 0
2, 234248, Note_off_c, 0, 60, 0
2, 234248, Note_off_c, 0, 69, 0
2, 234248, Note_on_c, 0, 65, 50
2, 234248, Note_on_c, 0, 57, 50
2, 234248, Note_on_c, 0, 69, 50
2, 234248, Note_on_c, 0, 33, 50
2, 234440, Note_off_c, 0, 33, 0
2, 234440, Note_on_c, 0, 40, 50
2, 234440, Note_on_c, 0, 45, 50
2, 234632, Note_off_c, 0, 65, 0
2, 234632, Note_off_c, 0, 57, 0
2, 234632, Note_off_c, 0, 40, 0
2, 234632, Note_off_c, 0, 45, 0
2, 234632, Note_off_c, 0, 69, 0
2, 234632, Note_on_c, 0, 60, 50
2, 234632, Note_on_c, 0, 72, 50
2, 234632, Note_on_c, 0, 33, 50
2, 234632, Note_on_c, 0, 69, 50
2, 234824, Note_off_c, 0, 33, 0
2, 234824, Note_on_c, 0, 45, 50
2, 234824, Note_on_c, 0, 40, 50
2, 235016, Note_off_c, 0, 60, 0
2, 235016, Note_off_c, 0, 40, 0
2, 235016, Note_off_c, 0, 69, 0
2, 235016, Note_off_c, 0, 45, 0
2, 235016, Note_off_c, 0, 72, 0
2, 235016, Note_on_c, 0, 64, 50
2, 235016, Note_on_c, 0, 76, 50
2, 235016, Note_on_c, 0, 35, 50
2, 235016, Note_on_c, 0, 71, 50
2, 235208, Note_off_c, 0, 35, 0
2, 235208, Note_on_c, 0, 47, 50
2, 235208, Note_on_c, 0, 42, 50
2, 235400, Note_off_c, 0, 47, 0
2, 235400, Note_off_c, 0, 42, 0
2, 235400, Note_on_c, 0, 35, 50
2, 235592, Note_off_c, 0, 76, 0
2, 235592, Note_off_c, 0, 71, 0
2, 235592, Note_off_c, 0, 64, 0
2, 235592, Note_off_c, 0, 35, 0
2, 235592, Note_on_c, 0, 47, 50
2, 235592, Note_on_c, 0, 78, 50
2, 235592, Note_on_c, 0, 42, 50
2, 235688, Note_off_c, 0, 78, 0
2, 235688, Note_on_c, 0, 76, 50
2, 235784, Note_off_c, 0, 42, 0
2, 235784, Note_off_c, 0, 76, 0
2, 235784, Note_off_c, 0, 47, 0
2, 235784, Note_on_c, 0, 71, 50
2, 235784, Note_on_c, 0, 38, 50
2, 235784, Note_on_c, 0, 63, 50
2, 235784, Note_on_c, 0, 75, 50
2, 235976, Note_off_c, 0, 38, 0
2, 235976, Note_on_c, 0, 50, 50
2, 235976, Note_on_c, 0, 45, 50
2, 236168, Note_off_c, 0, 45, 0
2, 236168, Note_off_c, 0, 50, 0
2, 236168, Note_on_c, 0, 38, 50
2, 236360, Note_off_c, 0, 38, 0
2, 236360, Note_on_c, 0, 50, 50
2, 236360, Note_on_c, 0, 45, 50
2, 236552, Note_off_c, 0, 63, 0
2, 236552, Note_off_c, 0, 50, 0
2, 236552, Note_off_c, 0, 71, 0
2, 236552, Note_off_c, 0, 45, 0
2, 236552, Note_off_c, 0, 75, 0
2, 236552, Note_on_c, 0, 71, 50
2, 236552, Note_on_c, 0, 64, 50
2, 236552, Note_on_c, 0, 76, 50
2, 236552, Note_on_c, 0, 40, 50
2, 236744, Note_off_c, 0, 64, 0
2, 236744, Note_off_c, 0, 76, 0
2, 236744, Note_off_c, 0, 71, 0
2, 236744, Note_off_c, 0, 40, 0
2, 236744, Note_on_c, 0, 52, 50
2, 236744, Note_on_c, 0, 59, 50
2, 236744, Note_on_c, 0, 47, 50
2, 236744, Note_on_c, 0, 64, 50
2, 236744, Note_on_c, 0, 71, 50
2, 236936, Note_off_c, 0, 52, 0
2, 236936, Note_off_c, 0, 47, 0
2, 236936, Note_on_c, 0, 40, 50
2, 237128, Note_off_c, 0, 59, 0
2, 237128, Note_off_c, 0, 71, 0
2, 237128, Note_off_c, 0, 64, 0
2, 237128, Note_off_c, 0, 40, 0
2, 237128, Note_on_c, 0, 76, 50
2, 237128, Note_on_c, 0, 64, 50
2, 237128, Note_on_c, 0, 71, 50
2, 237128, Note_on_c, 0, 52, 50
2, 237128, Note_on_c, 0, 47, 50
2, 237320, Note_off_c, 0, 47, 0
2, 237320, Note_off_c, 0, 52, 0
2, 237320, Note_on_c, 0, 40, 50
2, 237512, Note_off_c, 0, 76, 0
2, 237512, Note_off_c, 0, 64, 0
2, 237512, Note_off_c, 0, 71, 0
2, 237512, Note_off_c, 0, 40, 0
2, 237512, Note_on_c, 0, 47, 50
2, 237512, Note_on_c, 0, 52, 50
2, 237512, Note_on_c, 0, 74, 50
2, 237512, Note_on_c, 0, 66, 50
2, 237512, Note_on_c, 0, 78, 50
2, 237704, Note_off_c, 0, 78, 0
2, 237704, Note_off_c, 0, 66, 0
2, 237704, Note_off_c, 0, 74, 0
2, 237704, Note_off_c, 0, 52, 0
2, 237704, Note_off_c, 0, 47, 0
2, 237704, Note_on_c, 0, 67, 50
2, 237704, Note_on_c, 0, 79, 50
2, 237704, Note_on_c, 0, 40, 50
2, 237704, Note_on_c, 0, 76, 50
2, 237896, Note_off_c, 0, 67, 0
2, 237896, Note_off_c, 0, 76, 0
2, 237896, Note_off_c, 0, 40, 0
2, 237896, Note_off_c, 0, 79, 0
2, 237896, Note_on_c, 0, 69, 50
2, 237896, Note_on_c, 0, 52, 50
2, 237896, Note_on_c, 0, 47, 50
2, 237896, Note_on_c, 0, 78, 50
2, 237896, Note_on_c, 0, 81, 50
2, 238088, Note_off_c, 0, 69, 0
2, 238088, Note_off_c, 0, 47, 0
2, 238088, Note_off_c, 0, 78, 0
2, 238088, Note_off_c, 0, 52, 0
2, 238088, Note_off_c, 0, 81, 0
2, 238088, Note_on_c, 0, 38, 50
2, 238088, Note_on_c, 0, 78, 50
2, 238088, Note_on_c, 0, 66, 50
2, 238088, Note_on_c, 0, 74, 50
2, 238280, Note_off_c, 0, 74, 0
2, 238280, Note_off_c, 0, 66, 0
2, 238280, Note_off_c, 0, 78, 0
2, 238280, Note_off_c, 0, 38, 0
2, 238280, Note_on_c, 0, 50, 50
2, 238280, Note_on_c, 0, 45, 50
2, 238280, Note_on_c, 0, 67, 50
2, 238280, Note_on_c, 0, 79, 50
2, 238472, Note_off_c, 0, 50, 0
2, 238472, Note_off_c, 0, 79, 0
2, 238472, Note_off_c, 0, 67, 0
2, 238472, Note_off_c, 0, 45, 0
2, 238472, Note_on_c, 0, 76, 50
2, 238472, Note_on_c, 0, 38, 50
2, 238472, Note_on_c, 0, 64, 50
2, 238664, Note_off_c, 0, 38, 0
2, 238664, Note_off_c, 0, 76, 0
2, 238664, Note_off_c, 0, 64, 0
2, 238664, Note_on_c, 0, 78, 50
2, 238664, Note_on_c, 0, 66, 50
2, 238664, Note_on_c, 0, 45, 50
2, 238664, Note_on_c, 0, 50, 50
2, 238856, Note_off_c, 0, 45, 0
2, 238856, Note_off_c, 0, 78, 0
2, 238856, Note_off_c, 0, 66, 0
2, 238856, Note_off_c, 0, 50, 0
2, 238856, Note_on_c, 0, 62, 50
2, 238856, Note_on_c, 0, 38, 50
2, 238856, Note_on_c, 0, 74, 50
2, 239048, Note_off_c, 0, 38, 0
2, 239048, Note_off_c, 0, 62, 0
2, 239048, Note_off_c, 0, 74, 0
2, 239048, Note_on_c, 0, 76, 50
2, 239048, Note_on_c, 0, 45, 50
2, 239048, Note_on_c, 0, 50, 50
2, 239048, Note_on_c, 0, 64, 50
2, 239240, Note_off_c, 0, 64, 0
2, 239240, Note_off_c, 0, 50, 0
2, 239240, Note_off_c, 0, 45, 0
2, 239240, Note_off_c, 0, 76, 0
2, 239240, Note_on_c, 0, 38, 50
2, 239240, Note_on_c, 0, 71, 50
2, 239240, Note_on_c, 0, 59, 50
2, 239432, Note_off_c, 0, 59, 0
2, 239432, Note_off_c, 0, 38, 0
2, 239432, Note_off_c, 0, 71, 0
2, 239432, Note_on_c, 0, 50, 50
2, 239432, Note_on_c, 0, 62, 50
2, 239432, Note_on_c, 0, 74, 50
2, 239432, Note_on_c, 0, 45, 50
2, 239624, Note_off_c, 0, 50, 0
2, 239624, Note_off_c, 0, 45, 0
2, 239624, Note_off_c, 0, 74, 0
2, 239624, Note_off_c, 0, 62, 0
2, 239624, Note_on_c, 0, 67, 50
2, 239624, Note_on_c, 0, 36, 50
2, 239624, Note_on_c, 0, 60, 50
2, 239624, Note_on_c, 0, 72, 50
2, 239816, Note_off_c, 0, 36, 0
2, 239816, Note_on_c, 0, 48, 50
2, 239816, Note_on_c, 0, 43, 50
2, 239912, Note_off_c, 0, 67, 0
2, 239912, Note_off_c, 0, 60, 0
2, 239912, Note_off_c, 0, 72, 0
2, 239912, Note_on_c, 0, 74, 50
2, 239912, Note_on_c, 0, 62, 50
2, 239912, Note_on_c, 0, 71, 50
2, 240008, Note_off_c, 0, 43, 0
2, 240008, Note_off_c, 0, 48, 0
2, 240008, Note_on_c, 0, 36, 50
2, 240200, Note_off_c, 0, 36, 0
2, 240200, Note_off_c, 0, 74, 0
2, 240200, Note_off_c, 0, 62, 0
2, 240200, Note_off_c, 0, 71, 0
2, 240200, Note_on_c, 0, 72, 50
2, 240200, Note_on_c, 0, 48, 50
2, 240200, Note_on_c, 0, 43, 50
2, 240200, Note_on_c, 0, 76, 50
2, 240200, Note_on_c, 0, 64, 50
2, 240392, Note_off_c, 0, 64, 0
2, 240392, Note_off_c, 0, 76, 0
2, 240392, Note_off_c, 0, 72, 0
2, 240392, Note_off_c, 0, 43, 0
2, 240392, Note_off_c, 0, 48, 0
2, 240392, Note_on_c, 0, 74, 50
2, 240392, Note_on_c, 0, 62, 50
2, 240392, Note_on_c, 0, 71, 50
2, 240392, Note_on_c, 0, 36, 50
2, 240584, Note_off_c, 0, 36, 0
2, 240584, Note_on_c, 0, 43, 50
2, 240584, Note_on_c, 0, 48, 50
2, 240776, Note_off_c, 0, 62, 0
2, 240776, Note_off_c, 0, 71, 0
2, 240776, Note_off_c, 0, 48, 0
2, 240776, Note_off_c, 0, 43, 0
2, 240776, Note_off_c, 0, 74, 0
2, 240776, Note_on_c, 0, 67, 50
2, 240776, Note_on_c, 0, 36, 50
2, 240776, Note_on_c, 0, 60, 50
2, 240776, Note_on_c, 0, 72, 50
2, 240968, Note_off_c, 0, 36, 0
2, 240968, Note_on_c, 0, 43, 50
2, 240968, Note_on_c, 0, 48, 50
2, 241160, Note_off_c, 0, 60, 0
2, 241160, Note_off_c, 0, 72, 0
2, 241160, Note_off_c, 0, 48, 0
2, 241160, Note_off_c, 0, 43, 0
2, 241160, Note_off_c, 0, 67, 0
2, 241160, Note_on_c, 0, 67, 50
2, 241160, Note_on_c, 0, 71, 50
2, 241160, Note_on_c, 0, 35, 50
2, 241160, Note_on_c, 0, 59, 50
2, 241352, Note_off_c, 0, 35, 0
2, 241352, Note_on_c, 0, 47, 50
2, 241352, Note_on_c, 0, 43, 50
2, 241544, Note_off_c, 0, 47, 0
2, 241544, Note_off_c, 0, 43, 0
2, 241544, Note_on_c, 0, 35, 50
2, 241736, Note_off_c, 0, 35, 0
2, 241736, Note_off_c, 0, 59, 0
2, 241736, Note_off_c, 0, 71, 0
2, 241736, Note_off_c, 0, 67, 0
2, 241736, Note_on_c, 0, 70, 50
2, 241736, Note_on_c, 0, 47, 50
2, 241736, Note_on_c, 0, 43, 50
2, 241832, Note_off_c, 0, 70, 0
2, 241832, Note_on_c, 0, 68, 50
2, 241928, Note_off_c, 0, 68, 0
2, 241928, Note_off_c, 0, 47, 0
2, 241928, Note_off_c, 0, 43, 0
2, 241928, Note_on_c, 0, 35, 50
2, 241928, Note_on_c, 0, 59, 50
2, 241928, Note_on_c, 0, 55, 50
2, 241928, Note_on_c, 0, 67, 50
2, 242120, Note_off_c, 0, 35, 0
2, 242120, Note_on_c, 0, 47, 50
2, 242120, Note_on_c, 0, 43, 50
2, 242312, Note_off_c, 0, 47, 0
2, 242312, Note_off_c, 0, 43, 0
2, 242312, Note_on_c, 0, 35, 50
2, 242504, Note_off_c, 0, 35, 0
2, 242504, Note_on_c, 0, 43, 50
2, 242504, Note_on_c, 0, 47, 50
2, 242696, Note_off_c, 0, 59, 0
2, 242696, Note_off_c, 0, 55, 0
2, 242696, Note_off_c, 0, 47, 0
2, 242696, Note_off_c, 0, 43, 0
2, 242696, Note_off_c, 0, 67, 0
2, 242696, Note_on_c, 0, 66, 50
2, 242696, Note_on_c, 0, 57, 50
2, 242696, Note_on_c, 0, 69, 50
2, 242696, Note_on_c, 0, 33, 50
2, 242888, Note_off_c, 0, 33, 0
2, 242888, Note_on_c, 0, 45, 50
2, 242888, Note_on_c, 0, 40, 50
2, 242984, Note_off_c, 0, 57, 0
2, 242984, Note_off_c, 0, 66, 0
2, 242984, Note_off_c, 0, 69, 0
2, 242984, Note_on_c, 0, 59, 50
2, 242984, Note_on_c, 0, 71, 50
2, 242984, Note_on_c, 0, 67, 50
2, 243080, Note_off_c, 0, 45, 0
2, 243080, Note_off_c, 0, 40, 0
2, 243080, Note_on_c, 0, 33, 50
2, 243272, Note_off_c, 0, 33, 0
2, 243272, Note_off_c, 0, 67, 0
2, 243272, Note_off_c, 0, 59, 0
2, 243272, Note_off_c, 0, 71, 0
2, 243272, Note_on_c, 0, 40, 50
2, 243272, Note_on_c, 0, 45, 50
2, 243272, Note_on_c, 0, 72, 50
2, 243272, Note_on_c, 0, 60, 50
2, 243272, Note_on_c, 0, 69, 50
2, 243464, Note_off_c, 0, 69, 0
2, 243464, Note_off_c, 0, 60, 0
2, 243464, Note_off_c, 0, 72, 0
2, 243464, Note_off_c, 0, 45, 0
2, 243464, Note_off_c, 0, 40, 0
2, 243464, Note_on_c, 0, 60, 50
2, 243464, Note_on_c, 0, 33, 50
2, 243464, Note_on_c, 0, 52, 50
2, 243464, Note_on_c, 0, 64, 50
2, 243656, Note_off_c, 0, 60, 0
2, 243656, Note_off_c, 0, 52, 0
2, 243656, Note_off_c, 0, 64, 0
2, 243656, Note_off_c, 0, 33, 0
2, 243656, Note_on_c, 0, 45, 50
2, 243656, Note_on_c, 0, 60, 50
2, 243656, Note_on_c, 0, 72, 50
2, 243656, Note_on_c, 0, 40, 50
2, 243656, Note_on_c, 0, 69, 50
2, 243848, Note_off_c, 0, 60, 0
2, 243848, Note_off_c, 0, 69, 0
2, 243848, Note_off_c, 0, 40, 0
2, 243848, Note_off_c, 0, 45, 0
2, 243848, Note_off_c, 0, 72, 0
2, 243848, Note_on_c, 0, 74, 50
2, 243848, Note_on_c, 0, 62, 50
2, 243848, Note_on_c, 0, 71, 50
2, 243848, Note_on_c, 0, 33, 50
2, 244040, Note_off_c, 0, 33, 0
2, 244040, Note_off_c, 0, 62, 0
2, 244040, Note_off_c, 0, 74, 0
2, 244040, Note_off_c, 0, 71, 0
2, 244040, Note_on_c, 0, 69, 50
2, 244040, Note_on_c, 0, 45, 50
2, 244040, Note_on_c, 0, 72, 50
2, 244040, Note_on_c, 0, 40, 50
2, 244040, Note_on_c, 0, 60, 50
2, 244232, Note_off_c, 0, 69, 0
2, 244232, Note_off_c, 0, 60, 0
2, 244232, Note_off_c, 0, 40, 0
2, 244232, Note_off_c, 0, 45, 0
2, 244232, Note_off_c, 0, 72, 0
2, 244232, Note_on_c, 0, 71, 50
2, 244232, Note_on_c, 0, 67, 50
2, 244232, Note_on_c, 0, 31, 50
2, 244232, Note_on_c, 0, 59, 50
2, 244424, Note_off_c, 0, 31, 0
2, 244424, Note_on_c, 0, 38, 50
2, 244424, Note_on_c, 0, 43, 50
2, 244520, Note_off_c, 0, 71, 0
2, 244520, Note_off_c, 0, 67, 0
2, 244520, Note_off_c, 0, 59, 0
2, 244520, Note_on_c, 0, 66, 50
2, 244520, Note_on_c, 0, 57, 50
2, 244520, Note_on_c, 0, 69, 50
2, 244616, Note_off_c, 0, 38, 0
2, 244616, Note_off_c, 0, 43, 0
2, 244616, Note_on_c, 0, 31, 50
2, 244808, Note_off_c, 0, 31, 0
2, 244808, Note_off_c, 0, 66, 0
2, 244808, Note_off_c, 0, 69, 0
2, 244808, Note_off_c, 0, 57, 0
2, 244808, Note_on_c, 0, 59, 50
2, 244808, Note_on_c, 0, 67, 50
2, 244808, Note_on_c, 0, 38, 50
2, 244808, Note_on_c, 0, 43, 50
2, 244808, Note_on_c, 0, 71, 50
2, 245000, Note_off_c, 0, 71, 0
2, 245000, Note_off_c, 0, 67, 0
2, 245000, Note_off_c, 0, 59, 0
2, 245000, Note_off_c, 0, 38, 0
2, 245000, Note_off_c, 0, 43, 0
2, 245000, Note_on_c, 0, 64, 50
2, 245000, Note_on_c, 0, 31, 50
2, 245000, Note_on_c, 0, 76, 50
2, 245000, Note_on_c, 0, 71, 50
2, 245192, Note_off_c, 0, 31, 0
2, 245192, Note_on_c, 0, 38, 50
2, 245192, Note_on_c, 0, 43, 50
2, 245288, Note_off_c, 0, 71, 0
2, 245288, Note_off_c, 0, 64, 0
2, 245288, Note_off_c, 0, 76, 0
2, 245288, Note_on_c, 0, 67, 50
2, 245288, Note_on_c, 0, 71, 50
2, 245288, Note_on_c, 0, 59, 50
2, 245384, Note_off_c, 0, 38, 0
2, 245384, Note_off_c, 0, 43, 0
2, 245384, Note_on_c, 0, 31, 50
2, 245576, Note_off_c, 0, 31, 0
2, 245576, Note_off_c, 0, 59, 0
2, 245576, Note_off_c, 0, 67, 0
2, 245576, Note_off_c, 0, 71, 0
2, 245576, Note_on_c, 0, 43, 50
2, 245576, Note_on_c, 0, 66, 50
2, 245576, Note_on_c, 0, 69, 50
2, 245576, Note_on_c, 0, 57, 50
2, 245576, Note_on_c, 0, 38, 50
2, 245768, Note_off_c, 0, 66, 0
2, 245768, Note_off_c, 0, 38, 0
2, 245768, Note_off_c, 0, 43, 0
2, 245768, Note_off_c, 0, 69, 0
2, 245768, Note_off_c, 0, 57, 0
2, 245768, Note_on_c, 0, 33, 50
2, 245768, Note_on_c, 0, 64, 50
2, 245768, Note_on_c, 0, 69, 50
2, 245768, Note_on_c, 0, 57, 50
2, 245960, Note_off_c, 0, 33, 0
2, 245960, Note_on_c, 0, 40, 50
2, 245960, Note_on_c, 0, 45, 50
2, 246152, Note_off_c, 0, 45, 0
2, 246152, Note_off_c, 0, 40, 0
2, 246152, Note_on_c, 0, 33, 50
2, 246344, Note_off_c, 0, 33, 0
2, 246344, Note_on_c, 0, 45, 50
2, 246344, Note_on_c, 0, 40, 50
2, 246536, Note_off_c, 0, 64, 0
2, 246536, Note_off_c, 0, 57, 0
2, 246536, Note_off_c, 0, 40, 0
2, 246536, Note_off_c, 0, 45, 0
2, 246536, Note_off_c, 0, 69, 0
2, 246536, Note_on_c, 0, 59, 50
2, 246536, Note_on_c, 0, 33, 50
2, 246536, Note_on_c, 0, 71, 50
2, 246536, Note_on_c, 0, 67, 50
2, 246728, Note_off_c, 0, 33, 0
2, 246728, Note_on_c, 0, 45, 50
2, 246728, Note_on_c, 0, 40, 50
2, 246920, Note_off_c, 0, 59, 0
2, 246920, Note_off_c, 0, 45, 0
2, 246920, Note_off_c, 0, 40, 0
2, 246920, Note_off_c, 0, 71, 0
2, 246920, Note_off_c, 0, 67, 0
2, 246920, Note_on_c, 0, 33, 50
2, 246920, Note_on_c, 0, 69, 50
2, 246920, Note_on_c, 0, 78, 50
2, 246920, Note_on_c, 0, 66, 50
2, 247112, Note_off_c, 0, 33, 0
2, 247112, Note_on_c, 0, 40, 50
2, 247112, Note_on_c, 0, 45, 50
2, 247304, Note_off_c, 0, 40, 0
2, 247304, Note_off_c, 0, 69, 0
2, 247304, Note_off_c, 0, 45, 0
2, 247304, Note_off_c, 0, 78, 0
2, 247304, Note_off_c, 0, 66, 0
2, 247304, Note_on_c, 0, 71, 50
2, 247304, Note_on_c, 0, 76, 50
2, 247304, Note_on_c, 0, 64, 50
2, 247304, Note_on_c, 0, 35, 50
2, 247496, Note_off_c, 0, 35, 0
2, 247496, Note_on_c, 0, 47, 50
2, 247496, Note_on_c, 0, 42, 50
2, 247688, Note_off_c, 0, 42, 0
2, 247688, Note_off_c, 0, 47, 0
2, 247688, Note_on_c, 0, 35, 50
2, 247880, Note_off_c, 0, 35, 0
2, 247880, Note_on_c, 0, 47, 50
2, 247880, Note_on_c, 0, 42, 50
2, 248072, Note_off_c, 0, 42, 0
2, 248072, Note_off_c, 0, 76, 0
2, 248072, Note_off_c, 0, 47, 0
2, 248072, Note_off_c, 0, 64, 0
2, 248072, Note_on_c, 0, 63, 50
2, 248072, Note_on_c, 0, 38, 50
2, 248072, Note_on_c, 0, 75, 50
2, 248264, Note_off_c, 0, 38, 0
2, 248264, Note_on_c, 0, 45, 50
2, 248264, Note_on_c, 0, 50, 50
2, 248456, Note_off_c, 0, 50, 0
2, 248456, Note_off_c, 0, 45, 0
2, 248456, Note_on_c, 0, 38, 50
2, 248648, Note_off_c, 0, 38, 0
2, 248648, Note_on_c, 0, 50, 50
2, 248648, Note_on_c, 0, 45, 50
2, 248840, Note_off_c, 0, 50, 0
2, 248840, Note_off_c, 0, 63, 0
2, 248840, Note_off_c, 0, 71, 0
2, 248840, Note_off_c, 0, 75, 0
2, 248840, Note_off_c, 0, 45, 0
2, 248840, Note_on_c, 0, 76, 50
2, 248840, Note_on_c, 0, 40, 50
2, 248840, Note_on_c, 0, 71, 50
2, 248840, Note_on_c, 0, 64, 50
2, 249032, Note_off_c, 0, 64, 0
2, 249032, Note_off_c, 0, 71, 0
2, 249032, Note_off_c, 0, 40, 0
2, 249032, Note_off_c, 0, 76, 0
2, 249032, Note_on_c, 0, 64, 50
2, 249032, Note_on_c, 0, 71, 50
2, 249032, Note_on_c, 0, 59, 50
2, 249032, Note_on_c, 0, 52, 50
2, 249032, Note_on_c, 0, 47, 50
2, 249224, Note_off_c, 0, 47, 0
2, 249224, Note_off_c, 0, 52, 0
2, 249224, Note_on_c, 0, 40, 50
2, 249416, Note_off_c, 0, 71, 0
2, 249416, Note_off_c, 0, 64, 0
2, 249416, Note_off_c, 0, 59, 0
2, 249416, Note_off_c, 0, 40, 0
2, 249416, Note_on_c, 0, 47, 50
2, 249416, Note_on_c, 0, 64, 50
2, 249416, Note_on_c, 0, 71, 50
2, 249416, Note_on_c, 0, 76, 50
2, 249416, Note_on_c, 0, 52, 50
2, 249608, Note_off_c, 0, 52, 0
2, 249608, Note_off_c, 0, 47, 0
2, 249608, Note_on_c, 0, 40, 50
2, 249800, Note_off_c, 0, 64, 0
2, 249800, Note_off_c, 0, 76, 0
2, 249800, Note_off_c, 0, 71, 0
2, 249800, Note_off_c, 0, 40, 0
2, 249800, Note_on_c, 0, 74, 50
2, 249800, Note_on_c, 0, 78, 50
2, 249800, Note_on_c, 0, 52, 50
2, 249800, Note_on_c, 0, 66, 50
2, 249800, Note_on_c, 0, 47, 50
2, 249992, Note_off_c, 0, 74, 0
2, 249992, Note_off_c, 0, 78, 0
2, 249992, Note_off_c, 0, 47, 0
2, 249992, Note_off_c, 0, 52, 0
2, 249992, Note_off_c, 0, 66, 0
2, 249992, Note_on_c, 0, 40, 50
2, 249992, Note_on_c, 0, 67, 50
2, 249992, Note_on_c, 0, 79, 50
2, 249992, Note_on_c, 0, 76, 50
2, 250184, Note_off_c, 0, 40, 0
2, 250184, Note_off_c, 0, 79, 0
2, 250184, Note_off_c, 0, 67, 0
2, 250184, Note_off_c, 0, 76, 0
2, 250184, Note_on_c, 0, 69, 50
2, 250184, Note_on_c, 0, 52, 50
2, 250184, Note_on_c, 0, 78, 50
2, 250184, Note_on_c, 0, 47, 50
2, 250184, Note_on_c, 0, 81, 50
2, 250376, Note_off_c, 0, 81, 0
2, 250376, Note_off_c, 0, 52, 0
2, 250376, Note_off_c, 0, 69, 0
2, 250376, Note_off_c, 0, 78, 0
2, 250376, Note_off_c, 0, 47, 0
2, 250376, Note_on_c, 0, 86, 50
2, 250376, Note_on_c, 0, 74, 50
2, 250376, Note_on_c, 0, 78, 50
2, 250376, Note_on_c, 0, 38, 50
2, 250568, Note_off_c, 0, 38, 0
2, 250568, Note_on_c, 0, 45, 50
2, 250568, Note_on_c, 0, 50, 50
2, 250760, Note_off_c, 0, 50, 0
2, 250760, Note_off_c, 0, 45, 0
2, 250760, Note_on_c, 0, 38, 50
2, 250952, Note_off_c, 0, 38, 0
2, 250952, Note_on_c, 0, 45, 50
2, 250952, Note_on_c, 0, 50, 50
2, 251144, Note_off_c, 0, 86, 0
2, 251144, Note_off_c, 0, 78, 0
2, 251144, Note_off_c, 0, 50, 0
2, 251144, Note_off_c, 0, 45, 0
2, 251144, Note_off_c, 0, 74, 0
2, 251144, Note_on_c, 0, 84, 50
2, 251144, Note_on_c, 0, 72, 50
2, 251144, Note_on_c, 0, 76, 50
2, 251144, Note_on_c, 0, 38, 50
2, 251336, Note_off_c, 0, 38, 0
2, 251336, Note_on_c, 0, 50, 50
2, 251336, Note_on_c, 0, 45, 50
2, 251528, Note_off_c, 0, 72, 0
2, 251528, Note_off_c, 0, 50, 0
2, 251528, Note_off_c, 0, 45, 0
2, 251528, Note_off_c, 0, 76, 0
2, 251528, Note_off_c, 0, 84, 0
2, 251528, Note_on_c, 0, 38, 50
2, 251528, Note_on_c, 0, 83, 50
2, 251528, Note_on_c, 0, 71, 50
2, 251528, Note_on_c, 0, 74, 50
2, 251720, Note_off_c, 0, 38, 0
2, 251720, Note_on_c, 0, 45, 50
2, 251720, Note_on_c, 0, 50, 50
2, 251912, Note_off_c, 0, 45, 0
2, 251912, Note_off_c, 0, 50, 0
2, 251912, Note_off_c, 0, 74, 0
2, 251912, Note_off_c, 0, 71, 0
2, 251912, Note_off_c, 0, 83, 0
2, 251912, Note_on_c, 0, 72, 50
2, 251912, Note_on_c, 0, 36, 50
2, 251912, Note_on_c, 0, 79, 50
2, 251912, Note_on_c, 0, 67, 50
2, 252104, Note_off_c, 0, 36, 0
2, 252104, Note_on_c, 0, 43, 50
2, 252104, Note_on_c, 0, 48, 50
2, 252200, Note_off_c, 0, 72, 0
2, 252200, Note_off_c, 0, 67, 0
2, 252200, Note_off_c, 0, 79, 0
2, 252200, Note_on_c, 0, 81, 50
2, 252200, Note_on_c, 0, 69, 50
2, 252200, Note_on_c, 0, 74, 50
2, 252296, Note_off_c, 0, 43, 0
2, 252296, Note_off_c, 0, 48, 0
2, 252296, Note_on_c, 0, 36, 50
2, 252488, Note_off_c, 0, 74, 0
2, 252488, Note_off_c, 0, 69, 0
2, 252488, Note_off_c, 0, 81, 0
2, 252488, Note_off_c, 0, 36, 0
2, 252488, Note_on_c, 0, 76, 50
2, 252488, Note_on_c, 0, 83, 50
2, 252488, Note_on_c, 0, 43, 50
2, 252488, Note_on_c, 0, 71, 50
2, 252488, Note_on_c, 0, 48, 50
2, 252680, Note_off_c, 0, 83, 0
2, 252680, Note_off_c, 0, 76, 0
2, 252680, Note_off_c, 0, 71, 0
2, 252680, Note_off_c, 0, 43, 0
2, 252680, Note_off_c, 0, 48, 0
2, 252680, Note_on_c, 0, 69, 50
2, 252680, Note_on_c, 0, 81, 50
2, 252680, Note_on_c, 0, 36, 50
2, 252680, Note_on_c, 0, 74, 50
2, 252872, Note_off_c, 0, 36, 0
2, 252872, Note_on_c, 0, 48, 50
2, 252872, Note_on_c, 0, 43, 50
2, 253064, Note_off_c, 0, 81, 0
2, 253064, Note_off_c, 0, 69, 0
2, 253064, Note_off_c, 0, 43, 0
2, 253064, Note_off_c, 0, 48, 0
2, 253064, Note_off_c, 0, 74, 0
2, 253064, Note_on_c, 0, 79, 50
2, 253064, Note_on_c, 0, 36, 50
2, 253064, Note_on_c, 0, 72, 50
2, 253064, Note_on_c, 0, 67, 50
2, 253256, Note_off_c, 0, 36, 0
2, 253256, Note_on_c, 0, 43, 50
2, 253256, Note_on_c, 0, 48, 50
2, 253448, Note_off_c, 0, 48, 0
2, 253448, Note_off_c, 0, 67, 0
2, 253448, Note_off_c, 0, 72, 0
2, 253448, Note_off_c, 0, 79, 0
2, 253448, Note_off_c, 0, 43, 0
2, 253448, Note_on_c, 0, 67, 50
2, 253448, Note_on_c, 0, 71, 50
2, 253448, Note_on_c, 0, 35, 50
2, 253448, Note_on_c, 0, 79, 50
2, 253640, Note_off_c, 0, 35, 0
2, 253640, Note_on_c, 0, 43, 50
2, 253640, Note_on_c, 0, 47, 50
2, 253832, Note_off_c, 0, 43, 0
2, 253832, Note_off_c, 0, 47, 0
2, 253832, Note_on_c, 0, 35, 50
2, 254024, Note_off_c, 0, 35, 0
2, 254024, Note_on_c, 0, 47, 50
2, 254024, Note_on_c, 0, 43, 50
2, 254120, Note_off_c, 0, 67, 0
2, 254120, Note_off_c, 0, 79, 0
2, 254120, Note_off_c, 0, 71, 0
2, 254120, Note_on_c, 0, 69, 50
2, 254168, Note_on_c, 0, 68, 50
2, 254216, Note_off_c, 0, 47, 0
2, 254216, Note_off_c, 0, 69, 0
2, 254216, Note_off_c, 0, 43, 0
2, 254216, Note_on_c, 0, 35, 50
2, 254216, Note_on_c, 0, 74, 50
2, 254216, Note_on_c, 0, 71, 50
2, 254216, Note_on_c, 0, 67, 50
2, 254264, Note_off_c, 0, 68, 0
2, 254408, Note_off_c, 0, 35, 0
2, 254408, Note_on_c, 0, 47, 50
2, 254408, Note_on_c, 0, 43, 50
2, 254600, Note_off_c, 0, 43, 0
2, 254600, Note_off_c, 0, 47, 0
2, 254600, Note_on_c, 0, 35, 50
2, 254792, Note_off_c, 0, 35, 0
2, 254792, Note_on_c, 0, 47, 50
2, 254792, Note_on_c, 0, 43, 50
2, 254984, Note_off_c, 0, 47, 0
2, 254984, Note_off_c, 0, 71, 0
2, 254984, Note_off_c, 0, 43, 0
2, 254984, Note_off_c, 0, 74, 0
2, 254984, Note_off_c, 0, 67, 0
2, 254984, Note_on_c, 0, 69, 50
2, 254984, Note_on_c, 0, 66, 50
2, 254984, Note_on_c, 0, 57, 50
2, 254984, Note_on_c, 0, 33, 50
2, 255176, Note_off_c, 0, 33, 0
2, 255176, Note_on_c, 0, 45, 50
2, 255176, Note_on_c, 0, 40, 50
2, 255272, Note_off_c, 0, 57, 0
2, 255272, Note_off_c, 0, 66, 0
2, 255272, Note_off_c, 0, 69, 0
2, 255272, Note_on_c, 0, 71, 50
2, 255272, Note_on_c, 0, 59, 50
2, 255272, Note_on_c, 0, 67, 50
2, 255368, Note_off_c, 0, 45, 0
2, 255368, Note_off_c, 0, 40, 0
2, 255368, Note_on_c, 0, 33, 50
2, 255560, Note_off_c, 0, 67, 0
2, 255560, Note_off_c, 0, 33, 0
2, 255560, Note_off_c, 0, 71, 0
2, 255560, Note_off_c, 0, 59, 0
2, 255560, Note_on_c, 0, 45, 50
2, 255560, Note_on_c, 0, 72, 50
2, 255560, Note_on_c, 0, 40, 50
2, 255560, Note_on_c, 0, 60, 50
2, 255560, Note_on_c, 0, 69, 50
2, 255752, Note_off_c, 0, 45, 0
2, 255752, Note_off_c, 0, 69, 0
2, 255752, Note_off_c, 0, 60, 0
2, 255752, Note_off_c, 0, 40, 0
2, 255752, Note_off_c, 0, 72, 0
2, 255752, Note_on_c, 0, 33, 50
2, 255752, Note_on_c, 0, 64, 50
2, 255752, Note_on_c, 0, 52, 50
2, 255752, Note_on_c, 0, 60, 50
2, 255944, Note_off_c, 0, 60, 0
2, 255944, Note_off_c, 0, 52, 0
2, 255944, Note_off_c, 0, 64, 0
2, 255944, Note_off_c, 0, 33, 0
2, 255944, Note_on_c, 0, 69, 50
2, 255944, Note_on_c, 0, 40, 50
2, 255944, Note_on_c, 0, 45, 50
2, 255944, Note_on_c, 0, 57, 50
2, 256040, Note_off_c, 0, 69, 0
2, 256040, Note_off_c, 0, 57, 0
2, 256040, Note_on_c, 0, 71, 50
2, 256040, Note_on_c, 0, 59, 50
2, 256136, Note_off_c, 0, 59, 0
2, 256136, Note_off_c, 0, 45, 0
2, 256136, Note_off_c, 0, 71, 0
2, 256136, Note_off_c, 0, 40, 0
2, 256136, Note_on_c, 0, 71, 50
2, 256136, Note_on_c, 0, 33, 50
2, 256136, Note_on_c, 0, 62, 50
2, 256136, Note_on_c, 0, 74, 50
2, 256328, Note_off_c, 0, 74, 0
2, 256328, Note_off_c, 0, 33, 0
2, 256328, Note_off_c, 0, 71, 0
2, 256328, Note_off_c, 0, 62, 0
2, 256328, Note_on_c, 0, 45, 50
2, 256328, Note_on_c, 0, 72, 50
2, 256328, Note_on_c, 0, 69, 50
2, 256328, Note_on_c, 0, 60, 50
2, 256328, Note_on_c, 0, 40, 50
2, 256520, Note_off_c, 0, 72, 0
2, 256520, Note_off_c, 0, 45, 0
2, 256520, Note_off_c, 0, 40, 0
2, 256520, Note_off_c, 0, 69, 0
2, 256520, Note_off_c, 0, 60, 0
2, 256520, Note_on_c, 0, 31, 50
2, 256520, Note_on_c, 0, 67, 50
2, 256520, Note_on_c, 0, 71, 50
2, 256520, Note_on_c, 0, 59, 50
2, 256712, Note_off_c, 0, 31, 0
2, 256712, Note_on_c, 0, 38, 50
2, 256712, Note_on_c, 0, 43, 50
2, 256808, Note_off_c, 0, 67, 0
2, 256808, Note_off_c, 0, 71, 0
2, 256808, Note_off_c, 0, 59, 0
2, 256808, Note_on_c, 0, 66, 50
2, 256808, Note_on_c, 0, 57, 50
2, 256808, Note_on_c, 0, 69, 50
2, 256904, Note_off_c, 0, 43, 0
2, 256904, Note_off_c, 0, 38, 0
2, 256904, Note_on_c, 0, 31, 50
2, 257096, Note_off_c, 0, 69, 0
2, 257096, Note_off_c, 0, 57, 0
2, 257096, Note_off_c, 0, 66, 0
2, 257096, Note_off_c, 0, 31, 0
2, 257096, Note_on_c, 0, 38, 50
2, 257096, Note_on_c, 0, 67, 50
2, 257096, Note_on_c, 0, 43, 50
2, 257096, Note_on_c, 0, 59, 50
2, 257096, Note_on_c, 0, 71, 50
2, 257288, Note_off_c, 0, 67, 0
2, 257288, Note_off_c, 0, 71, 0
2, 257288, Note_off_c, 0, 43, 0
2, 257288, Note_off_c, 0, 59, 0
2, 257288, Note_off_c, 0, 38, 0
2, 257288, Note_on_c, 0, 76, 50
2, 257288, Note_on_c, 0, 31, 50
2, 257288, Note_on_c, 0, 64, 50
2, 257288, Note_on_c, 0, 71, 50
2, 257480, Note_off_c, 0, 31, 0
2, 257480, Note_on_c, 0, 43, 50
2, 257480, Note_on_c, 0, 38, 50
2, 257576, Note_off_c, 0, 76, 0
2, 257576, Note_off_c, 0, 64, 0
2, 257576, Note_off_c, 0, 71, 0
2, 257576, Note_on_c, 0, 71, 50
2, 257576, Note_on_c, 0, 59, 50
2, 257576, Note_on_c, 0, 67, 50
2, 257672, Note_off_c, 0, 38, 0
2, 257672, Note_off_c, 0, 43, 0
2, 257672, Note_on_c, 0, 31, 50
2, 257864, Note_off_c, 0, 67, 0
2, 257864, Note_off_c, 0, 59, 0
2, 257864, Note_off_c, 0, 71, 0
2, 257864, Note_off_c, 0, 31, 0
2, 257864, Note_on_c, 0, 57, 50
2, 257864, Note_on_c, 0, 38, 50
2, 257864, Note_on_c, 0, 69, 50
2, 257864, Note_on_c, 0, 66, 50
2, 257864, Note_on_c, 0, 43, 50
2, 258056, Note_off_c, 0, 66, 0
2, 258056, Note_off_c, 0, 38, 0
2, 258056, Note_off_c, 0, 69, 0
2, 258056, Note_off_c, 0, 43, 0
2, 258056, Note_off_c, 0, 57, 0
2, 258056, Note_on_c, 0, 57, 50
2, 258056, Note_on_c, 0, 66, 50
2, 258056, Note_on_c, 0, 69, 50
2, 258056, Note_on_c, 0, 30, 50
2, 258248, Note_off_c, 0, 30, 0
2, 258248, Note_on_c, 0, 37, 50
2, 258248, Note_on_c, 0, 42, 50
2, 258440, Note_off_c, 0, 42, 0
2, 258440, Note_off_c, 0, 37, 0
2, 258440, Note_on_c, 0, 30, 50
2, 258632, Note_off_c, 0, 30, 0
2, 258632, Note_on_c, 0, 37, 50
2, 258632, Note_on_c, 0, 42, 50
2, 258824, Note_off_c, 0, 57, 0
2, 258824, Note_off_c, 0, 69, 0
2, 258824, Note_off_c, 0, 42, 0
2, 258824, Note_off_c, 0, 37, 0
2, 258824, Note_off_c, 0, 66, 0
2, 258824, Note_on_c, 0, 62, 50
2, 258824, Note_on_c, 0, 54, 50
2, 258824, Note_on_c, 0, 30, 50
2, 258824, Note_on_c, 0, 66, 50
2, 259016, Note_off_c, 0, 30, 0
2, 259016, Note_on_c, 0, 42, 50
2, 259016, Note_on_c, 0, 37, 50
2, 259208, Note_off_c, 0, 54, 0
2, 259208, Note_off_c, 0, 66, 0
2, 259208, Note_off_c, 0, 62, 0
2, 259208, Note_off_c, 0, 37, 0
2, 259208, Note_off_c, 0, 42, 0
2, 259208, Note_on_c, 0, 66, 50
2, 259208, Note_on_c, 0, 69, 50
2, 259208, Note_on_c, 0, 57, 50
2, 259208, Note_on_c, 0, 30, 50
2, 259400, Note_off_c, 0, 30, 0
2, 259400, Note_on_c, 0, 37, 50
2, 259400, Note_on_c, 0, 42, 50
2, 259592, Note_off_c, 0, 66, 0
2, 259592, Note_off_c, 0, 57, 0
2, 259592, Note_off_c, 0, 37, 0
2, 259592, Note_off_c, 0, 42, 0
2, 259592, Note_off_c, 0, 69, 0
2, 259592, Note_on_c, 0, 67, 50
2, 259592, Note_on_c, 0, 31, 50
2, 259592, Note_on_c, 0, 55, 50
2, 259592, Note_on_c, 0, 59, 50
2, 259784, Note_off_c, 0, 31, 0
2, 259784, Note_on_c, 0, 38, 50
2, 259784, Note_on_c, 0, 43, 50
2, 259976, Note_off_c, 0, 43, 0
2, 259976, Note_off_c, 0, 38, 0
2, 259976, Note_on_c, 0, 31, 50
2, 260168, Note_off_c, 0, 31, 0
2, 260168, Note_on_c, 0, 43, 50
2, 260168, Note_on_c, 0, 38, 50
2, 260360, Note_off_c, 0, 43, 0
2, 260360, Note_off_c, 0, 67, 0
2, 260360, Note_off_c, 0, 38, 0
2, 260360, Note_off_c, 0, 55, 0
2, 260360, Note_off_c, 0, 59, 0
2, 260360, Note_on_c, 0, 69, 50
2, 260360, Note_on_c, 0, 57, 50
2, 260360, Note_on_c, 0, 62, 50
2, 260360, Note_on_c, 0, 33, 50
2, 260552, Note_off_c, 0, 33, 0
2, 260552, Note_on_c, 0, 38, 50
2, 260552, Note_on_c, 0, 45, 50
2, 260744, Note_off_c, 0, 45, 0
2, 260744, Note_off_c, 0, 38, 0
2, 260744, Note_on_c, 0, 33, 50
2, 260936, Note_off_c, 0, 33, 0
2, 260936, Note_on_c, 0, 38, 50
2, 260936, Note_on_c, 0, 45, 50
2, 261128, Note_off_c, 0, 45, 0
2, 261128, Note_off_c, 0, 69, 0
2, 261128, Note_off_c, 0, 57, 0
2, 261128, Note_off_c, 0, 62, 0
2, 261128, Note_off_c, 0, 38, 0
2, 261128, Note_on_c, 0, 35, 50
2, 261128, Note_on_c, 0, 71, 50
2, 261128, Note_on_c, 0, 64, 50
2, 261128, Note_on_c, 0, 59, 50
2, 261320, Note_off_c, 0, 35, 0
2, 261320, Note_on_c, 0, 47, 50
2, 261320, Note_on_c, 0, 40, 50
2, 261512, Note_off_c, 0, 40, 0
2, 261512, Note_off_c, 0, 47, 0
2, 261512, Note_on_c, 0, 35, 50
2, 261704, Note_off_c, 0, 35, 0
2, 261704, Note_on_c, 0, 40, 50
2, 261704, Note_on_c, 0, 47, 50
2, 261896, Note_off_c, 0, 47, 0
2, 261896, Note_off_c, 0, 40, 0
2, 261896, Note_on_c, 0, 35, 50
2, 262088, Note_off_c, 0, 35, 0
2, 262088, Note_on_c, 0, 40, 50
2, 262088, Note_on_c, 0, 47, 50
2, 262280, Note_off_c, 0, 47, 0
2, 262280, Note_off_c, 0, 40, 0
2, 262280, Note_on_c, 0, 35, 50
2, 262472, Note_off_c, 0, 35, 0
2, 262472, Note_on_c, 0, 47, 50
2, 262472, Note_on_c, 0, 40, 50
2, 262664, Note_off_c, 0, 40, 0
2, 262664, Note_off_c, 0, 47, 0
2, 262664, Note_on_c, 0, 35, 50
2, 262856, Note_off_c, 0, 35, 0
2, 262856, Note_on_c, 0, 40, 50
2, 262856, Note_on_c, 0, 47, 50
2, 263048, Note_off_c, 0, 40, 0
2, 263048, Note_off_c, 0, 47, 0
2, 263048, Note_on_c, 0, 35, 50
2, 263240, Note_off_c, 0, 35, 0
2, 263240, Note_on_c, 0, 47, 50
2, 263240, Note_on_c, 0, 40, 50
2, 263432, Note_off_c, 0, 40, 0
2, 263432, Note_off_c, 0, 47, 0
2, 263432, Note_on_c, 0, 35, 50
2, 263624, Note_off_c, 0, 35, 0
2, 263624, Note_on_c, 0, 40, 50
2, 263624, Note_on_c, 0, 47, 50
2, 263816, Note_off_c, 0, 47, 0
2, 263816, Note_off_c, 0, 40, 0
2, 263816, Note_on_c, 0, 35, 50
2, 264008, Note_off_c, 0, 35, 0
2, 264008, Note_on_c, 0, 47, 50
2, 264008, Note_on_c, 0, 40, 50
2, 264200, Note_off_c, 0, 47, 0
2, 264200, Note_off_c, 0, 71, 0
2, 264200, Note_off_c, 0, 40, 0
2, 264200, Note_off_c, 0, 64, 0
2, 264200, Note_off_c, 0, 59, 0
2, 264200, Note_on_c, 0, 40, 50
2, 264200, Note_on_c, 0, 35, 50
2, 264200, Note_on_c, 0, 47, 50
2, 264200, Note_on_c, 0, 83, 50
2, 264200, Note_on_c, 0, 71, 50
2, 264200, Note_on_c, 0, 76, 50
2, 264584, Note_off_c, 0, 35, 0
2, 264584, Note_off_c, 0, 40, 0
2, 264584, Note_off_c, 0, 47, 0
2, 264584, Note_on_c, 0, 47, 50
2, 264584, Note_on_c, 0, 35, 50
2, 264584, Note_on_c, 0, 40, 50
2, 273416, Note_off_c, 0, 83, 0
2, 273416, Note_off_c, 0, 76, 0
2, 273416, Note_off_c, 0, 71, 0
2, 273416, Note_off_c, 0, 40, 0
2, 273416, Note_off_c, 0, 35, 0
2, 273416, Note_off_c, 0, 47, 0
2, 273416, End_track
0, 0, End_of_file
