0, 0, Header, 1, 3, 480
1, 0, Start_track
1, 0, Title_t, "\220ç\226{\215÷"
1, 0, Time_signature, 4, 2, 24, 8
1, 0, Tempo, 389610
1, 295680, End_track
2, 0, Start_track
2, 0, Title_t, "Piano"
2, 0, Instrument_name_t, "Kontakt 4 2"
2, 0, Key_signature, -1, "major"
2, 0, Program_c, 0, 0
2, 0, Control_c, 0, 10, 64
2, 0, Control_c, 0, 7, 127
2, 1680, Note_on_c, 0, 60, 80
2, 1734, Note_off_c, 0, 60, 64
2, 1740, Note_on_c, 0, 62, 80
2, 1794, Note_off_c, 0, 62, 64
2, 1800, Note_on_c, 0, 64, 80
2, 1854, Note_off_c, 0, 64, 64
2, 1860, Note_on_c, 0, 65, 80
2, 1914, Note_off_c, 0, 65, 64
2, 1920, Note_on_c, 0, 53, 80
2, 1920, Note_on_c, 0, 57, 80
2, 1920, Note_on_c, 0, 62, 80
2, 2244, Note_off_c, 0, 53, 64
2, 2244, Note_off_c, 0, 57, 64
2, 2244, Note_off_c, 0, 62, 64
2, 2280, Note_on_c, 0, 53, 80
2, 2280, Note_on_c, 0, 57, 80
2, 2280, Note_on_c, 0, 62, 80
2, 2604, Note_off_c, 0, 53, 64
2, 2604, Note_off_c, 0, 57, 64
2, 2604, Note_off_c, 0, 62, 64
2, 2640, Note_on_c, 0, 53, 80
2, 2640, Note_on_c, 0, 57, 80
2, 2640, Note_on_c, 0, 60, 80
2, 2856, Note_off_c, 0, 53, 64
2, 2856, Note_off_c, 0, 57, 64
2, 2856, Note_off_c, 0, 60, 64
2, 2880, Note_on_c, 0, 53, 80
2, 2880, Note_on_c, 0, 57, 80
2, 2880, Note_on_c, 0, 62, 80
2, 3204, Note_off_c, 0, 53, 64
2, 3204, Note_off_c, 0, 57, 64
2, 3204, Note_off_c, 0, 62, 64
2, 3240, Note_on_c, 0, 53, 80
2, 3240, Note_on_c, 0, 57, 80
2, 3240, Note_on_c, 0, 62, 80
2, 3564, Note_off_c, 0, 53, 64
2, 3564, Note_off_c, 0, 57, 64
2, 3564, Note_off_c, 0, 62, 64
2, 3600, Note_on_c, 0, 53, 80
2, 3600, Note_on_c, 0, 57, 80
2, 3600, Note_on_c, 0, 60, 80
2, 3816, Note_off_c, 0, 53, 64
2, 3816, Note_off_c, 0, 57, 64
2, 3816, Note_off_c, 0, 60, 64
2, 3840, Note_on_c, 0, 53, 80
2, 3840, Note_on_c, 0, 57, 80
2, 3840, Note_on_c, 0, 62, 80
2, 3840, Note_on_c, 0, 65, 80
2, 4164, Note_off_c, 0, 53, 64
2, 4164, Note_off_c, 0, 57, 64
2, 4164, Note_off_c, 0, 62, 64
2, 4164, Note_off_c, 0, 65, 64
2, 4200, Note_on_c, 0, 53, 80
2, 4200, Note_on_c, 0, 57, 80
2, 4200, Note_on_c, 0, 62, 80
2, 4200, Note_on_c, 0, 65, 80
2, 4524, Note_off_c, 0, 53, 64
2, 4524, Note_off_c, 0, 57, 64
2, 4524, Note_off_c, 0, 62, 64
2, 4524, Note_off_c, 0, 65, 64
2, 4560, Note_on_c, 0, 53, 80
2, 4560, Note_on_c, 0, 57, 80
2, 4560, Note_on_c, 0, 60, 80
2, 4560, Note_on_c, 0, 65, 80
2, 4776, Note_off_c, 0, 53, 64
2, 4776, Note_off_c, 0, 57, 64
2, 4776, Note_off_c, 0, 60, 64
2, 4776, Note_off_c, 0, 65, 64
2, 4800, Note_on_c, 0, 53, 80
2, 4800, Note_on_c, 0, 57, 80
2, 4800, Note_on_c, 0, 62, 80
2, 5232, Note_off_c, 0, 53, 64
2, 5232, Note_off_c, 0, 57, 64
2, 5232, Note_off_c, 0, 62, 64
2, 5280, Note_on_c, 0, 57, 80
2, 5280, Note_on_c, 0, 62, 80
2, 5280, Note_on_c, 0, 65, 80
2, 5280, Note_on_c, 0, 67, 80
2, 5712, Note_off_c, 0, 57, 64
2, 5712, Note_off_c, 0, 62, 64
2, 5712, Note_off_c, 0, 65, 64
2, 5712, Note_off_c, 0, 67, 64
2, 5760, Note_on_c, 0, 57, 80
2, 5760, Note_on_c, 0, 62, 80
2, 5760, Note_on_c, 0, 65, 80
2, 5760, Note_on_c, 0, 69, 80
2, 6084, Note_off_c, 0, 57, 64
2, 6084, Note_off_c, 0, 62, 64
2, 6084, Note_off_c, 0, 65, 64
2, 6084, Note_off_c, 0, 69, 64
2, 6120, Note_on_c, 0, 57, 80
2, 6120, Note_on_c, 0, 62, 80
2, 6120, Note_on_c, 0, 65, 80
2, 6120, Note_on_c, 0, 69, 80
2, 6444, Note_off_c, 0, 57, 64
2, 6444, Note_off_c, 0, 62, 64
2, 6444, Note_off_c, 0, 65, 64
2, 6444, Note_off_c, 0, 69, 64
2, 6480, Note_on_c, 0, 57, 80
2, 6480, Note_on_c, 0, 60, 80
2, 6480, Note_on_c, 0, 65, 80
2, 6480, Note_on_c, 0, 69, 80
2, 6696, Note_off_c, 0, 57, 64
2, 6696, Note_off_c, 0, 60, 64
2, 6696, Note_off_c, 0, 65, 64
2, 6696, Note_off_c, 0, 69, 64
2, 6720, Note_on_c, 0, 57, 80
2, 6720, Note_on_c, 0, 62, 80
2, 6720, Note_on_c, 0, 65, 80
2, 6720, Note_on_c, 0, 69, 80
2, 7044, Note_off_c, 0, 57, 64
2, 7044, Note_off_c, 0, 62, 64
2, 7044, Note_off_c, 0, 65, 64
2, 7044, Note_off_c, 0, 69, 64
2, 7080, Note_on_c, 0, 57, 80
2, 7080, Note_on_c, 0, 62, 80
2, 7080, Note_on_c, 0, 65, 80
2, 7080, Note_on_c, 0, 69, 80
2, 7404, Note_off_c, 0, 57, 64
2, 7404, Note_off_c, 0, 62, 64
2, 7404, Note_off_c, 0, 65, 64
2, 7404, Note_off_c, 0, 69, 64
2, 7440, Note_on_c, 0, 57, 80
2, 7440, Note_on_c, 0, 60, 80
2, 7440, Note_on_c, 0, 64, 80
2, 7440, Note_on_c, 0, 67, 80
2, 7656, Note_off_c, 0, 57, 64
2, 7656, Note_off_c, 0, 60, 64
2, 7656, Note_off_c, 0, 64, 64
2, 7656, Note_off_c, 0, 67, 64
2, 7680, Note_on_c, 0, 53, 80
2, 7680, Note_on_c, 0, 57, 80
2, 7680, Note_on_c, 0, 62, 80
2, 8112, Note_off_c, 0, 53, 64
2, 8112, Note_off_c, 0, 57, 64
2, 8112, Note_off_c, 0, 62, 64
2, 8160, Note_on_c, 0, 58, 80
2, 8160, Note_on_c, 0, 62, 80
2, 8160, Note_on_c, 0, 65, 80
2, 8592, Note_off_c, 0, 58, 64
2, 8592, Note_off_c, 0, 62, 64
2, 8592, Note_off_c, 0, 65, 64
2, 8640, Note_on_c, 0, 60, 80
2, 8640, Note_on_c, 0, 64, 80
2, 8640, Note_on_c, 0, 67, 80
2, 9072, Note_off_c, 0, 60, 64
2, 9072, Note_off_c, 0, 64, 64
2, 9072, Note_off_c, 0, 67, 64
2, 9120, Note_on_c, 0, 60, 80
2, 9120, Note_on_c, 0, 64, 80
2, 9120, Note_on_c, 0, 69, 80
2, 9552, Note_off_c, 0, 60, 64
2, 9552, Note_off_c, 0, 64, 64
2, 9552, Note_off_c, 0, 69, 64
2, 9600, Note_on_c, 0, 67, 80
2, 9816, Note_off_c, 0, 67, 64
2, 9840, Note_on_c, 0, 69, 80
2, 10056, Note_off_c, 0, 69, 64
2, 10080, Note_on_c, 0, 62, 80
2, 10188, Note_off_c, 0, 62, 64
2, 10200, Note_on_c, 0, 60, 80
2, 10308, Note_off_c, 0, 60, 64
2, 10320, Note_on_c, 0, 62, 80
2, 10428, Note_off_c, 0, 62, 64
2, 10440, Note_on_c, 0, 60, 80
2, 10548, Note_off_c, 0, 60, 64
2, 10560, Note_on_c, 0, 67, 80
2, 10776, Note_off_c, 0, 67, 64
2, 10800, Note_on_c, 0, 69, 80
2, 11016, Note_off_c, 0, 69, 64
2, 11040, Note_on_c, 0, 62, 80
2, 11148, Note_off_c, 0, 62, 64
2, 11160, Note_on_c, 0, 60, 80
2, 11268, Note_off_c, 0, 60, 64
2, 11280, Note_on_c, 0, 62, 80
2, 11388, Note_off_c, 0, 62, 64
2, 11400, Note_on_c, 0, 60, 80
2, 11508, Note_off_c, 0, 60, 64
2, 11520, Note_on_c, 0, 67, 80
2, 11736, Note_off_c, 0, 67, 64
2, 11760, Note_on_c, 0, 69, 80
2, 11976, Note_off_c, 0, 69, 64
2, 12000, Note_on_c, 0, 62, 80
2, 12108, Note_off_c, 0, 62, 64
2, 12120, Note_on_c, 0, 60, 80
2, 12228, Note_off_c, 0, 60, 64
2, 12240, Note_on_c, 0, 62, 80
2, 12348, Note_off_c, 0, 62, 64
2, 12360, Note_on_c, 0, 60, 80
2, 12468, Note_off_c, 0, 60, 64
2, 12495, Note_on_c, 0, 64, 80
2, 12510, Note_on_c, 0, 65, 80
2, 12711, Note_off_c, 0, 64, 64
2, 12720, Note_on_c, 0, 64, 80
2, 12726, Note_off_c, 0, 65, 64
2, 12828, Note_off_c, 0, 64, 64
2, 12840, Note_on_c, 0, 65, 80
2, 12894, Note_off_c, 0, 65, 64
2, 12900, Note_on_c, 0, 64, 80
2, 12954, Note_off_c, 0, 64, 64
2, 12960, Note_on_c, 0, 62, 80
2, 13176, Note_off_c, 0, 62, 64
2, 13200, Note_on_c, 0, 60, 80
2, 13416, Note_off_c, 0, 60, 64
2, 13440, Note_on_c, 0, 67, 80
2, 13656, Note_off_c, 0, 67, 64
2, 13680, Note_on_c, 0, 69, 80
2, 13896, Note_off_c, 0, 69, 64
2, 13920, Note_on_c, 0, 62, 80
2, 14028, Note_off_c, 0, 62, 64
2, 14040, Note_on_c, 0, 60, 80
2, 14148, Note_off_c, 0, 60, 64
2, 14160, Note_on_c, 0, 62, 80
2, 14268, Note_off_c, 0, 62, 64
2, 14280, Note_on_c, 0, 60, 80
2, 14388, Note_off_c, 0, 60, 64
2, 14400, Note_on_c, 0, 67, 80
2, 14616, Note_off_c, 0, 67, 64
2, 14640, Note_on_c, 0, 69, 80
2, 14856, Note_off_c, 0, 69, 64
2, 14880, Note_on_c, 0, 62, 80
2, 14988, Note_off_c, 0, 62, 64
2, 15000, Note_on_c, 0, 60, 80
2, 15108, Note_off_c, 0, 60, 64
2, 15120, Note_on_c, 0, 62, 80
2, 15228, Note_off_c, 0, 62, 64
2, 15240, Note_on_c, 0, 60, 80
2, 15348, Note_off_c, 0, 60, 64
2, 15360, Note_on_c, 0, 67, 80
2, 15576, Note_off_c, 0, 67, 64
2, 15600, Note_on_c, 0, 69, 80
2, 15816, Note_off_c, 0, 69, 64
2, 15840, Note_on_c, 0, 72, 80
2, 16056, Note_off_c, 0, 72, 64
2, 16080, Note_on_c, 0, 77, 80
2, 16296, Note_off_c, 0, 77, 64
2, 16320, Note_on_c, 0, 76, 80
2, 16428, Note_off_c, 0, 76, 64
2, 16440, Note_on_c, 0, 77, 80
2, 16548, Note_off_c, 0, 77, 64
2, 16560, Note_on_c, 0, 76, 80
2, 16668, Note_off_c, 0, 76, 64
2, 16680, Note_on_c, 0, 74, 80
2, 16788, Note_off_c, 0, 74, 64
2, 16800, Note_on_c, 0, 72, 80
2, 17016, Note_off_c, 0, 72, 64
2, 17040, Note_on_c, 0, 69, 80
2, 17256, Note_off_c, 0, 69, 64
2, 17280, Note_on_c, 0, 67, 80
2, 17496, Note_off_c, 0, 67, 64
2, 17520, Note_on_c, 0, 69, 80
2, 17736, Note_off_c, 0, 69, 64
2, 17760, Note_on_c, 0, 62, 80
2, 17868, Note_off_c, 0, 62, 64
2, 17880, Note_on_c, 0, 60, 80
2, 17988, Note_off_c, 0, 60, 64
2, 18000, Note_on_c, 0, 62, 80
2, 18108, Note_off_c, 0, 62, 64
2, 18120, Note_on_c, 0, 60, 80
2, 18228, Note_off_c, 0, 60, 64
2, 18240, Note_on_c, 0, 67, 80
2, 18456, Note_off_c, 0, 67, 64
2, 18480, Note_on_c, 0, 69, 80
2, 18696, Note_off_c, 0, 69, 64
2, 18720, Note_on_c, 0, 62, 80
2, 18828, Note_off_c, 0, 62, 64
2, 18840, Note_on_c, 0, 60, 80
2, 18948, Note_off_c, 0, 60, 64
2, 18960, Note_on_c, 0, 62, 80
2, 19068, Note_off_c, 0, 62, 64
2, 19080, Note_on_c, 0, 60, 80
2, 19188, Note_off_c, 0, 60, 64
2, 19200, Note_on_c, 0, 67, 80
2, 19416, Note_off_c, 0, 67, 64
2, 19440, Note_on_c, 0, 69, 80
2, 19656, Note_off_c, 0, 69, 64
2, 19680, Note_on_c, 0, 62, 80
2, 19788, Note_off_c, 0, 62, 64
2, 19800, Note_on_c, 0, 60, 80
2, 19908, Note_off_c, 0, 60, 64
2, 19920, Note_on_c, 0, 62, 80
2, 20028, Note_off_c, 0, 62, 64
2, 20040, Note_on_c, 0, 60, 80
2, 20148, Note_off_c, 0, 60, 64
2, 20175, Note_on_c, 0, 64, 80
2, 20190, Note_on_c, 0, 65, 80
2, 20391, Note_off_c, 0, 64, 64
2, 20400, Note_on_c, 0, 64, 80
2, 20406, Note_off_c, 0, 65, 64
2, 20508, Note_off_c, 0, 64, 64
2, 20520, Note_on_c, 0, 65, 80
2, 20574, Note_off_c, 0, 65, 64
2, 20580, Note_on_c, 0, 64, 80
2, 20634, Note_off_c, 0, 64, 64
2, 20640, Note_on_c, 0, 62, 80
2, 20856, Note_off_c, 0, 62, 64
2, 20880, Note_on_c, 0, 60, 80
2, 21096, Note_off_c, 0, 60, 64
2, 21120, Note_on_c, 0, 62, 80
2, 21336, Note_off_c, 0, 62, 64
2, 21360, Note_on_c, 0, 60, 80
2, 21468, Note_off_c, 0, 60, 64
2, 21480, Note_on_c, 0, 62, 80
2, 21588, Note_off_c, 0, 62, 64
2, 21600, Note_on_c, 0, 65, 80
2, 21816, Note_off_c, 0, 65, 64
2, 21840, Note_on_c, 0, 62, 80
2, 21948, Note_off_c, 0, 62, 64
2, 21960, Note_on_c, 0, 67, 80
2, 22068, Note_off_c, 0, 67, 64
2, 22080, Note_on_c, 0, 69, 80
2, 22296, Note_off_c, 0, 69, 64
2, 22320, Note_on_c, 0, 67, 80
2, 22428, Note_off_c, 0, 67, 64
2, 22440, Note_on_c, 0, 69, 80
2, 22548, Note_off_c, 0, 69, 64
2, 22560, Note_on_c, 0, 72, 80
2, 22668, Note_off_c, 0, 72, 64
2, 22680, Note_on_c, 0, 77, 80
2, 22788, Note_off_c, 0, 77, 64
2, 22800, Note_on_c, 0, 69, 80
2, 22908, Note_off_c, 0, 69, 64
2, 22920, Note_on_c, 0, 72, 80
2, 23028, Note_off_c, 0, 72, 64
2, 23040, Note_on_c, 0, 77, 80
2, 23040, Note_on_c, 0, 69, 80
2, 23256, Note_off_c, 0, 77, 64
2, 23256, Note_off_c, 0, 69, 64
2, 23280, Note_on_c, 0, 76, 80
2, 23334, Note_off_c, 0, 76, 64
2, 23340, Note_on_c, 0, 77, 80
2, 23394, Note_off_c, 0, 77, 64
2, 23400, Note_on_c, 0, 76, 80
2, 23508, Note_off_c, 0, 76, 64
2, 23520, Note_on_c, 0, 74, 80
2, 23736, Note_off_c, 0, 74, 64
2, 23760, Note_on_c, 0, 72, 80
2, 23760, Note_on_c, 0, 69, 80
2, 23976, Note_off_c, 0, 72, 64
2, 23976, Note_off_c, 0, 69, 64
2, 24000, Note_on_c, 0, 74, 80
2, 24000, Note_on_c, 0, 69, 80
2, 24216, Note_off_c, 0, 74, 64
2, 24216, Note_off_c, 0, 69, 64
2, 24240, Note_on_c, 0, 72, 80
2, 24456, Note_off_c, 0, 72, 64
2, 24480, Note_on_c, 0, 74, 80
2, 24480, Note_on_c, 0, 69, 80
2, 24696, Note_off_c, 0, 74, 64
2, 24696, Note_off_c, 0, 69, 64
2, 24720, Note_on_c, 0, 77, 80
2, 24720, Note_on_c, 0, 72, 80
2, 24936, Note_off_c, 0, 77, 64
2, 24936, Note_off_c, 0, 72, 64
2, 24960, Note_on_c, 0, 79, 80
2, 24960, Note_on_c, 0, 74, 80
2, 24960, Note_on_c, 0, 67, 80
2, 25176, Note_off_c, 0, 79, 64
2, 25176, Note_off_c, 0, 74, 64
2, 25176, Note_off_c, 0, 67, 64
2, 25200, Note_on_c, 0, 81, 80
2, 25200, Note_on_c, 0, 69, 80
2, 25416, Note_off_c, 0, 81, 64
2, 25416, Note_off_c, 0, 69, 64
2, 25440, Note_on_c, 0, 74, 80
2, 25440, Note_on_c, 0, 62, 80
2, 25548, Note_off_c, 0, 74, 64
2, 25548, Note_off_c, 0, 62, 64
2, 25560, Note_on_c, 0, 72, 80
2, 25668, Note_off_c, 0, 72, 64
2, 25680, Note_on_c, 0, 74, 80
2, 25788, Note_off_c, 0, 74, 64
2, 25800, Note_on_c, 0, 72, 80
2, 25908, Note_off_c, 0, 72, 64
2, 25920, Note_on_c, 0, 79, 80
2, 25920, Note_on_c, 0, 67, 80
2, 26136, Note_off_c, 0, 79, 64
2, 26136, Note_off_c, 0, 67, 64
2, 26160, Note_on_c, 0, 81, 80
2, 26160, Note_on_c, 0, 69, 80
2, 26376, Note_off_c, 0, 81, 64
2, 26376, Note_off_c, 0, 69, 64
2, 26400, Note_on_c, 0, 74, 80
2, 26400, Note_on_c, 0, 62, 80
2, 26508, Note_off_c, 0, 74, 64
2, 26508, Note_off_c, 0, 62, 64
2, 26520, Note_on_c, 0, 72, 80
2, 26628, Note_off_c, 0, 72, 64
2, 26640, Note_on_c, 0, 74, 80
2, 26748, Note_off_c, 0, 74, 64
2, 26760, Note_on_c, 0, 72, 80
2, 26868, Note_off_c, 0, 72, 64
2, 26880, Note_on_c, 0, 79, 80
2, 26880, Note_on_c, 0, 74, 80
2, 26880, Note_on_c, 0, 67, 80
2, 27096, Note_off_c, 0, 79, 64
2, 27096, Note_off_c, 0, 74, 64
2, 27096, Note_off_c, 0, 67, 64
2, 27120, Note_on_c, 0, 81, 80
2, 27120, Note_on_c, 0, 69, 80
2, 27336, Note_off_c, 0, 81, 64
2, 27336, Note_off_c, 0, 69, 64
2, 27360, Note_on_c, 0, 74, 80
2, 27360, Note_on_c, 0, 62, 80
2, 27468, Note_off_c, 0, 74, 64
2, 27468, Note_off_c, 0, 62, 64
2, 27480, Note_on_c, 0, 72, 80
2, 27588, Note_off_c, 0, 72, 64
2, 27600, Note_on_c, 0, 74, 80
2, 27708, Note_off_c, 0, 74, 64
2, 27720, Note_on_c, 0, 72, 80
2, 27810, Note_on_c, 0, 69, 80
2, 27828, Note_off_c, 0, 72, 64
2, 27832, Note_on_c, 0, 74, 80
2, 27855, Note_on_c, 0, 76, 80
2, 27877, Note_on_c, 0, 77, 80
2, 28026, Note_off_c, 0, 69, 64
2, 28048, Note_off_c, 0, 74, 64
2, 28071, Note_off_c, 0, 76, 64
2, 28080, Note_on_c, 0, 76, 80
2, 28080, Note_on_c, 0, 64, 80
2, 28093, Note_off_c, 0, 77, 64
2, 28188, Note_off_c, 0, 76, 64
2, 28188, Note_off_c, 0, 64, 64
2, 28200, Note_on_c, 0, 77, 80
2, 28254, Note_off_c, 0, 77, 64
2, 28260, Note_on_c, 0, 76, 80
2, 28314, Note_off_c, 0, 76, 64
2, 28320, Note_on_c, 0, 62, 80
2, 28320, Note_on_c, 0, 69, 80
2, 28320, Note_on_c, 0, 74, 80
2, 28536, Note_off_c, 0, 62, 64
2, 28536, Note_off_c, 0, 69, 64
2, 28536, Note_off_c, 0, 74, 64
2, 28560, Note_on_c, 0, 60, 80
2, 28560, Note_on_c, 0, 72, 80
2, 28776, Note_off_c, 0, 60, 64
2, 28776, Note_off_c, 0, 72, 64
2, 28800, Note_on_c, 0, 79, 80
2, 28800, Note_on_c, 0, 74, 80
2, 28800, Note_on_c, 0, 67, 80
2, 29016, Note_off_c, 0, 79, 64
2, 29016, Note_off_c, 0, 74, 64
2, 29016, Note_off_c, 0, 67, 64
2, 29040, Note_on_c, 0, 81, 80
2, 29040, Note_on_c, 0, 69, 80
2, 29256, Note_off_c, 0, 81, 64
2, 29256, Note_off_c, 0, 69, 64
2, 29280, Note_on_c, 0, 74, 80
2, 29280, Note_on_c, 0, 62, 80
2, 29388, Note_off_c, 0, 74, 64
2, 29388, Note_off_c, 0, 62, 64
2, 29400, Note_on_c, 0, 72, 80
2, 29508, Note_off_c, 0, 72, 64
2, 29520, Note_on_c, 0, 74, 80
2, 29628, Note_off_c, 0, 74, 64
2, 29640, Note_on_c, 0, 72, 80
2, 29748, Note_off_c, 0, 72, 64
2, 29760, Note_on_c, 0, 79, 80
2, 29760, Note_on_c, 0, 67, 80
2, 29976, Note_off_c, 0, 79, 64
2, 29976, Note_off_c, 0, 67, 64
2, 30000, Note_on_c, 0, 81, 80
2, 30000, Note_on_c, 0, 69, 80
2, 30216, Note_off_c, 0, 81, 64
2, 30216, Note_off_c, 0, 69, 64
2, 30240, Note_on_c, 0, 74, 80
2, 30240, Note_on_c, 0, 62, 80
2, 30348, Note_off_c, 0, 74, 64
2, 30348, Note_off_c, 0, 62, 64
2, 30360, Note_on_c, 0, 72, 80
2, 30468, Note_off_c, 0, 72, 64
2, 30480, Note_on_c, 0, 74, 80
2, 30588, Note_off_c, 0, 74, 64
2, 30600, Note_on_c, 0, 72, 80
2, 30665, Note_on_c, 0, 77, 80
2, 30708, Note_off_c, 0, 72, 64
2, 30719, Note_off_c, 0, 77, 64
2, 30720, Note_on_c, 0, 79, 80
2, 30720, Note_on_c, 0, 67, 80
2, 30936, Note_off_c, 0, 79, 64
2, 30936, Note_off_c, 0, 67, 64
2, 30960, Note_on_c, 0, 81, 80
2, 30960, Note_on_c, 0, 69, 80
2, 31176, Note_off_c, 0, 81, 64
2, 31176, Note_off_c, 0, 69, 64
2, 31200, Note_on_c, 0, 84, 80
2, 31200, Note_on_c, 0, 72, 80
2, 31416, Note_off_c, 0, 84, 64
2, 31416, Note_off_c, 0, 72, 64
2, 31440, Note_on_c, 0, 89, 80
2, 31440, Note_on_c, 0, 77, 80
2, 31656, Note_off_c, 0, 89, 64
2, 31656, Note_off_c, 0, 77, 64
2, 31680, Note_on_c, 0, 88, 80
2, 31680, Note_on_c, 0, 84, 80
2, 31680, Note_on_c, 0, 76, 80
2, 31788, Note_off_c, 0, 88, 64
2, 31788, Note_off_c, 0, 84, 64
2, 31788, Note_off_c, 0, 76, 64
2, 31800, Note_on_c, 0, 89, 80
2, 31800, Note_on_c, 0, 77, 80
2, 31908, Note_off_c, 0, 89, 64
2, 31908, Note_off_c, 0, 77, 64
2, 31920, Note_on_c, 0, 88, 80
2, 31920, Note_on_c, 0, 76, 80
2, 32028, Note_off_c, 0, 88, 64
2, 32028, Note_off_c, 0, 76, 64
2, 32040, Note_on_c, 0, 86, 80
2, 32040, Note_on_c, 0, 74, 80
2, 32148, Note_off_c, 0, 86, 64
2, 32148, Note_off_c, 0, 74, 64
2, 32160, Note_on_c, 0, 84, 80
2, 32160, Note_on_c, 0, 81, 80
2, 32160, Note_on_c, 0, 72, 80
2, 32376, Note_off_c, 0, 84, 64
2, 32376, Note_off_c, 0, 81, 64
2, 32376, Note_off_c, 0, 72, 64
2, 32400, Note_on_c, 0, 81, 80
2, 32400, Note_on_c, 0, 69, 80
2, 32616, Note_off_c, 0, 81, 64
2, 32616, Note_off_c, 0, 69, 64
2, 32640, Note_on_c, 0, 79, 80
2, 32640, Note_on_c, 0, 74, 80
2, 32640, Note_on_c, 0, 67, 80
2, 32856, Note_off_c, 0, 79, 64
2, 32856, Note_off_c, 0, 74, 64
2, 32856, Note_off_c, 0, 67, 64
2, 32880, Note_on_c, 0, 81, 80
2, 32880, Note_on_c, 0, 69, 80
2, 33096, Note_off_c, 0, 81, 64
2, 33096, Note_off_c, 0, 69, 64
2, 33120, Note_on_c, 0, 74, 80
2, 33120, Note_on_c, 0, 62, 80
2, 33228, Note_off_c, 0, 74, 64
2, 33228, Note_off_c, 0, 62, 64
2, 33240, Note_on_c, 0, 72, 80
2, 33348, Note_off_c, 0, 72, 64
2, 33360, Note_on_c, 0, 74, 80
2, 33468, Note_off_c, 0, 74, 64
2, 33480, Note_on_c, 0, 72, 80
2, 33588, Note_off_c, 0, 72, 64
2, 33600, Note_on_c, 0, 79, 80
2, 33600, Note_on_c, 0, 67, 80
2, 33816, Note_off_c, 0, 79, 64
2, 33816, Note_off_c, 0, 67, 64
2, 33840, Note_on_c, 0, 81, 80
2, 33840, Note_on_c, 0, 69, 80
2, 34056, Note_off_c, 0, 81, 64
2, 34056, Note_off_c, 0, 69, 64
2, 34080, Note_on_c, 0, 74, 80
2, 34080, Note_on_c, 0, 62, 80
2, 34188, Note_off_c, 0, 74, 64
2, 34188, Note_off_c, 0, 62, 64
2, 34200, Note_on_c, 0, 72, 80
2, 34308, Note_off_c, 0, 72, 64
2, 34320, Note_on_c, 0, 74, 80
2, 34428, Note_off_c, 0, 74, 64
2, 34440, Note_on_c, 0, 72, 80
2, 34548, Note_off_c, 0, 72, 64
2, 34560, Note_on_c, 0, 79, 80
2, 34560, Note_on_c, 0, 74, 80
2, 34560, Note_on_c, 0, 67, 80
2, 34776, Note_off_c, 0, 79, 64
2, 34776, Note_off_c, 0, 74, 64
2, 34776, Note_off_c, 0, 67, 64
2, 34800, Note_on_c, 0, 81, 80
2, 34800, Note_on_c, 0, 69, 80
2, 35016, Note_off_c, 0, 81, 64
2, 35016, Note_off_c, 0, 69, 64
2, 35040, Note_on_c, 0, 74, 80
2, 35040, Note_on_c, 0, 62, 80
2, 35148, Note_off_c, 0, 74, 64
2, 35148, Note_off_c, 0, 62, 64
2, 35160, Note_on_c, 0, 72, 80
2, 35268, Note_off_c, 0, 72, 64
2, 35280, Note_on_c, 0, 74, 80
2, 35388, Note_off_c, 0, 74, 64
2, 35400, Note_on_c, 0, 72, 80
2, 35490, Note_on_c, 0, 69, 80
2, 35508, Note_off_c, 0, 72, 64
2, 35512, Note_on_c, 0, 74, 80
2, 35535, Note_on_c, 0, 76, 80
2, 35557, Note_on_c, 0, 77, 80
2, 35706, Note_off_c, 0, 69, 64
2, 35728, Note_off_c, 0, 74, 64
2, 35751, Note_off_c, 0, 76, 64
2, 35760, Note_on_c, 0, 76, 80
2, 35760, Note_on_c, 0, 64, 80
2, 35773, Note_off_c, 0, 77, 64
2, 35868, Note_off_c, 0, 76, 64
2, 35868, Note_off_c, 0, 64, 64
2, 35880, Note_on_c, 0, 77, 80
2, 35934, Note_off_c, 0, 77, 64
2, 35940, Note_on_c, 0, 76, 80
2, 35994, Note_off_c, 0, 76, 64
2, 36000, Note_on_c, 0, 62, 80
2, 36000, Note_on_c, 0, 69, 80
2, 36000, Note_on_c, 0, 74, 80
2, 36216, Note_off_c, 0, 62, 64
2, 36216, Note_off_c, 0, 69, 64
2, 36216, Note_off_c, 0, 74, 64
2, 36240, Note_on_c, 0, 60, 80
2, 36240, Note_on_c, 0, 72, 80
2, 36456, Note_off_c, 0, 60, 64
2, 36456, Note_off_c, 0, 72, 64
2, 36480, Note_on_c, 0, 79, 80
2, 36480, Note_on_c, 0, 74, 80
2, 36480, Note_on_c, 0, 67, 80
2, 36588, Note_off_c, 0, 79, 64
2, 36588, Note_off_c, 0, 74, 64
2, 36588, Note_off_c, 0, 67, 64
2, 36600, Note_on_c, 0, 77, 80
2, 36600, Note_on_c, 0, 65, 80
2, 36708, Note_off_c, 0, 77, 64
2, 36708, Note_off_c, 0, 65, 64
2, 36720, Note_on_c, 0, 81, 80
2, 36720, Note_on_c, 0, 69, 80
2, 36828, Note_off_c, 0, 81, 64
2, 36828, Note_off_c, 0, 69, 64
2, 36840, Note_on_c, 0, 84, 80
2, 36840, Note_on_c, 0, 72, 80
2, 36948, Note_off_c, 0, 84, 64
2, 36948, Note_off_c, 0, 72, 64
2, 36960, Note_on_c, 0, 86, 80
2, 36960, Note_on_c, 0, 74, 80
2, 37068, Note_off_c, 0, 86, 64
2, 37068, Note_off_c, 0, 74, 64
2, 37080, Note_on_c, 0, 84, 80
2, 37080, Note_on_c, 0, 72, 80
2, 37188, Note_off_c, 0, 84, 64
2, 37188, Note_off_c, 0, 72, 64
2, 37200, Note_on_c, 0, 81, 80
2, 37200, Note_on_c, 0, 69, 80
2, 37308, Note_off_c, 0, 81, 64
2, 37308, Note_off_c, 0, 69, 64
2, 37320, Note_on_c, 0, 79, 80
2, 37320, Note_on_c, 0, 67, 80
2, 37428, Note_off_c, 0, 79, 64
2, 37428, Note_off_c, 0, 67, 64
2, 37440, Note_on_c, 0, 74, 80
2, 37440, Note_on_c, 0, 62, 80
2, 37656, Note_off_c, 0, 74, 64
2, 37656, Note_off_c, 0, 62, 64
2, 37680, Note_on_c, 0, 77, 80
2, 37680, Note_on_c, 0, 72, 80
2, 37680, Note_on_c, 0, 65, 80
2, 37896, Note_off_c, 0, 77, 64
2, 37896, Note_off_c, 0, 72, 64
2, 37896, Note_off_c, 0, 65, 64
2, 37920, Note_on_c, 0, 79, 80
2, 37920, Note_on_c, 0, 67, 80
2, 38136, Note_off_c, 0, 79, 64
2, 38136, Note_off_c, 0, 67, 64
2, 38160, Note_on_c, 0, 81, 80
2, 38160, Note_on_c, 0, 74, 80
2, 38160, Note_on_c, 0, 69, 80
2, 38376, Note_off_c, 0, 81, 64
2, 38376, Note_off_c, 0, 74, 64
2, 38376, Note_off_c, 0, 69, 64
2, 38400, Note_on_c, 0, 65, 80
2, 38400, Note_on_c, 0, 69, 80
2, 38400, Note_on_c, 0, 74, 80
2, 38508, Note_off_c, 0, 65, 64
2, 38508, Note_off_c, 0, 69, 64
2, 38508, Note_off_c, 0, 74, 64
2, 38520, Note_on_c, 0, 62, 68
2, 38628, Note_off_c, 0, 62, 64
2, 38640, Note_on_c, 0, 62, 68
2, 38748, Note_off_c, 0, 62, 64
2, 38760, Note_on_c, 0, 65, 80
2, 38760, Note_on_c, 0, 69, 80
2, 38760, Note_on_c, 0, 74, 80
2, 38868, Note_off_c, 0, 65, 64
2, 38868, Note_off_c, 0, 69, 64
2, 38868, Note_off_c, 0, 74, 64
2, 38880, Note_on_c, 0, 62, 68
2, 38988, Note_off_c, 0, 62, 64
2, 39000, Note_on_c, 0, 62, 68
2, 39108, Note_off_c, 0, 62, 64
2, 39120, Note_on_c, 0, 65, 80
2, 39120, Note_on_c, 0, 69, 80
2, 39120, Note_on_c, 0, 72, 80
2, 39228, Note_off_c, 0, 65, 64
2, 39228, Note_off_c, 0, 69, 64
2, 39228, Note_off_c, 0, 72, 64
2, 39240, Note_on_c, 0, 62, 68
2, 39348, Note_off_c, 0, 62, 64
2, 39360, Note_on_c, 0, 62, 80
2, 39360, Note_on_c, 0, 65, 80
2, 39360, Note_on_c, 0, 69, 80
2, 39360, Note_on_c, 0, 74, 80
2, 40224, Note_off_c, 0, 62, 64
2, 40224, Note_off_c, 0, 65, 64
2, 40224, Note_off_c, 0, 69, 64
2, 40224, Note_off_c, 0, 74, 64
2, 40320, Note_on_c, 0, 53, 80
2, 40320, Note_on_c, 0, 57, 80
2, 40320, Note_on_c, 0, 62, 80
2, 40752, Note_off_c, 0, 53, 64
2, 40752, Note_off_c, 0, 57, 64
2, 40752, Note_off_c, 0, 62, 64
2, 40800, Note_on_c, 0, 53, 80
2, 40800, Note_on_c, 0, 57, 80
2, 40800, Note_on_c, 0, 62, 80
2, 41124, Note_off_c, 0, 53, 64
2, 41124, Note_off_c, 0, 57, 64
2, 41124, Note_off_c, 0, 62, 64
2, 41160, Note_on_c, 0, 53, 80
2, 41160, Note_on_c, 0, 57, 80
2, 41160, Note_on_c, 0, 60, 80
2, 41268, Note_off_c, 0, 53, 64
2, 41268, Note_off_c, 0, 57, 64
2, 41268, Note_off_c, 0, 60, 64
2, 41280, Note_on_c, 0, 62, 80
2, 41400, Note_off_c, 0, 62, 64
2, 41400, Note_on_c, 0, 53, 80
2, 41400, Note_on_c, 0, 57, 80
2, 41508, Note_off_c, 0, 53, 64
2, 41508, Note_off_c, 0, 57, 64
2, 41520, Note_on_c, 0, 62, 80
2, 41520, Note_on_c, 0, 65, 80
2, 41736, Note_off_c, 0, 62, 64
2, 41736, Note_off_c, 0, 65, 64
2, 41760, Note_on_c, 0, 62, 80
2, 41760, Note_on_c, 0, 65, 80
2, 41976, Note_off_c, 0, 62, 64
2, 41976, Note_off_c, 0, 65, 64
2, 42000, Note_on_c, 0, 64, 80
2, 42000, Note_on_c, 0, 67, 80
2, 42216, Note_off_c, 0, 64, 64
2, 42216, Note_off_c, 0, 67, 64
2, 42240, Note_on_c, 0, 53, 80
2, 42240, Note_on_c, 0, 58, 80
2, 42240, Note_on_c, 0, 62, 80
2, 42672, Note_off_c, 0, 53, 64
2, 42672, Note_off_c, 0, 58, 64
2, 42672, Note_off_c, 0, 62, 64
2, 42720, Note_on_c, 0, 53, 80
2, 42720, Note_on_c, 0, 58, 80
2, 42720, Note_on_c, 0, 62, 80
2, 43044, Note_off_c, 0, 53, 64
2, 43044, Note_off_c, 0, 58, 64
2, 43044, Note_off_c, 0, 62, 64
2, 43080, Note_on_c, 0, 60, 80
2, 43188, Note_off_c, 0, 60, 64
2, 43200, Note_on_c, 0, 52, 80
2, 43200, Note_on_c, 0, 55, 80
2, 43200, Note_on_c, 0, 62, 80
2, 43416, Note_off_c, 0, 52, 64
2, 43416, Note_off_c, 0, 55, 64
2, 43416, Note_off_c, 0, 62, 64
2, 43440, Note_on_c, 0, 52, 80
2, 43440, Note_on_c, 0, 55, 80
2, 43440, Note_on_c, 0, 60, 80
2, 43656, Note_off_c, 0, 52, 64
2, 43656, Note_off_c, 0, 55, 64
2, 43656, Note_off_c, 0, 60, 64
2, 43680, Note_on_c, 0, 52, 80
2, 43680, Note_on_c, 0, 57, 80
2, 43896, Note_off_c, 0, 52, 64
2, 43896, Note_off_c, 0, 57, 64
2, 43920, Note_on_c, 0, 60, 80
2, 44136, Note_off_c, 0, 60, 64
2, 44160, Note_on_c, 0, 53, 80
2, 44160, Note_on_c, 0, 57, 80
2, 44160, Note_on_c, 0, 62, 80
2, 44592, Note_off_c, 0, 53, 64
2, 44592, Note_off_c, 0, 57, 64
2, 44592, Note_off_c, 0, 62, 64
2, 44640, Note_on_c, 0, 53, 80
2, 44640, Note_on_c, 0, 57, 80
2, 44640, Note_on_c, 0, 62, 80
2, 44964, Note_off_c, 0, 53, 64
2, 44964, Note_off_c, 0, 57, 64
2, 44964, Note_off_c, 0, 62, 64
2, 45000, Note_on_c, 0, 53, 80
2, 45000, Note_on_c, 0, 57, 80
2, 45000, Note_on_c, 0, 60, 80
2, 45108, Note_off_c, 0, 53, 64
2, 45108, Note_off_c, 0, 57, 64
2, 45108, Note_off_c, 0, 60, 64
2, 45120, Note_on_c, 0, 62, 80
2, 45240, Note_off_c, 0, 62, 64
2, 45240, Note_on_c, 0, 53, 80
2, 45240, Note_on_c, 0, 57, 80
2, 45348, Note_off_c, 0, 53, 64
2, 45348, Note_off_c, 0, 57, 64
2, 45360, Note_on_c, 0, 62, 80
2, 45360, Note_on_c, 0, 65, 80
2, 45576, Note_off_c, 0, 62, 64
2, 45576, Note_off_c, 0, 65, 64
2, 45600, Note_on_c, 0, 64, 80
2, 45600, Note_on_c, 0, 67, 80
2, 45816, Note_off_c, 0, 64, 64
2, 45816, Note_off_c, 0, 67, 64
2, 45840, Note_on_c, 0, 65, 80
2, 45840, Note_on_c, 0, 69, 80
2, 46056, Note_off_c, 0, 65, 64
2, 46056, Note_off_c, 0, 69, 64
2, 46080, Note_on_c, 0, 58, 80
2, 46080, Note_on_c, 0, 62, 80
2, 46080, Note_on_c, 0, 69, 80
2, 46512, Note_off_c, 0, 58, 64
2, 46512, Note_off_c, 0, 62, 64
2, 46512, Note_off_c, 0, 69, 64
2, 46560, Note_on_c, 0, 58, 80
2, 46560, Note_on_c, 0, 62, 80
2, 46560, Note_on_c, 0, 67, 80
2, 46776, Note_off_c, 0, 58, 64
2, 46776, Note_off_c, 0, 62, 64
2, 46776, Note_off_c, 0, 67, 64
2, 46800, Note_on_c, 0, 69, 80
2, 46908, Note_off_c, 0, 69, 64
2, 46920, Note_on_c, 0, 67, 80
2, 47028, Note_off_c, 0, 67, 64
2, 47040, Note_on_c, 0, 55, 80
2, 47040, Note_on_c, 0, 60, 80
2, 47040, Note_on_c, 0, 65, 80
2, 47472, Note_off_c, 0, 55, 64
2, 47472, Note_off_c, 0, 60, 64
2, 47472, Note_off_c, 0, 65, 64
2, 47520, Note_on_c, 0, 55, 80
2, 47520, Note_on_c, 0, 60, 80
2, 47520, Note_on_c, 0, 62, 80
2, 47952, Note_off_c, 0, 55, 64
2, 47952, Note_off_c, 0, 60, 64
2, 47952, Note_off_c, 0, 62, 64
2, 48000, Note_on_c, 0, 53, 80
2, 48000, Note_on_c, 0, 57, 80
2, 48000, Note_on_c, 0, 62, 80
2, 48360, Note_off_c, 0, 53, 64
2, 48360, Note_off_c, 0, 57, 64
2, 48360, Note_off_c, 0, 62, 64
2, 48360, Note_on_c, 0, 62, 80
2, 48468, Note_off_c, 0, 62, 64
2, 48480, Note_on_c, 0, 53, 80
2, 48480, Note_on_c, 0, 57, 80
2, 48480, Note_on_c, 0, 62, 80
2, 48804, Note_off_c, 0, 53, 64
2, 48804, Note_off_c, 0, 57, 64
2, 48804, Note_off_c, 0, 62, 64
2, 48840, Note_on_c, 0, 53, 80
2, 48840, Note_on_c, 0, 57, 80
2, 48840, Note_on_c, 0, 60, 80
2, 48948, Note_off_c, 0, 53, 64
2, 48948, Note_off_c, 0, 57, 64
2, 48948, Note_off_c, 0, 60, 64
2, 48960, Note_on_c, 0, 60, 80
2, 49080, Note_off_c, 0, 60, 64
2, 49080, Note_on_c, 0, 53, 80
2, 49080, Note_on_c, 0, 57, 80
2, 49188, Note_off_c, 0, 53, 64
2, 49188, Note_off_c, 0, 57, 64
2, 49200, Note_on_c, 0, 62, 80
2, 49416, Note_off_c, 0, 62, 64
2, 49440, Note_on_c, 0, 62, 80
2, 49440, Note_on_c, 0, 65, 80
2, 49656, Note_off_c, 0, 62, 64
2, 49656, Note_off_c, 0, 65, 64
2, 49680, Note_on_c, 0, 64, 80
2, 49680, Note_on_c, 0, 67, 80
2, 49896, Note_off_c, 0, 64, 64
2, 49896, Note_off_c, 0, 67, 64
2, 49920, Note_on_c, 0, 53, 80
2, 49920, Note_on_c, 0, 58, 80
2, 49920, Note_on_c, 0, 62, 80
2, 50244, Note_off_c, 0, 53, 64
2, 50244, Note_off_c, 0, 58, 64
2, 50244, Note_off_c, 0, 62, 64
2, 50280, Note_on_c, 0, 62, 80
2, 50388, Note_off_c, 0, 62, 64
2, 50400, Note_on_c, 0, 53, 80
2, 50400, Note_on_c, 0, 58, 80
2, 50400, Note_on_c, 0, 62, 80
2, 50616, Note_off_c, 0, 53, 64
2, 50616, Note_off_c, 0, 58, 64
2, 50616, Note_off_c, 0, 62, 64
2, 50640, Note_on_c, 0, 60, 80
2, 50856, Note_off_c, 0, 60, 64
2, 50880, Note_on_c, 0, 53, 80
2, 50880, Note_on_c, 0, 55, 80
2, 50880, Note_on_c, 0, 62, 80
2, 51096, Note_off_c, 0, 53, 64
2, 51096, Note_off_c, 0, 55, 64
2, 51096, Note_off_c, 0, 62, 64
2, 51120, Note_on_c, 0, 60, 80
2, 51336, Note_off_c, 0, 60, 64
2, 51360, Note_on_c, 0, 52, 80
2, 51360, Note_on_c, 0, 55, 80
2, 51360, Note_on_c, 0, 60, 80
2, 51576, Note_off_c, 0, 52, 64
2, 51576, Note_off_c, 0, 55, 64
2, 51576, Note_off_c, 0, 60, 64
2, 51600, Note_on_c, 0, 57, 80
2, 51816, Note_off_c, 0, 57, 64
2, 51840, Note_on_c, 0, 53, 80
2, 51840, Note_on_c, 0, 57, 80
2, 51840, Note_on_c, 0, 62, 80
2, 52200, Note_off_c, 0, 53, 64
2, 52200, Note_off_c, 0, 57, 64
2, 52200, Note_off_c, 0, 62, 64
2, 52200, Note_on_c, 0, 62, 80
2, 52308, Note_off_c, 0, 62, 64
2, 52320, Note_on_c, 0, 53, 80
2, 52320, Note_on_c, 0, 57, 80
2, 52320, Note_on_c, 0, 62, 80
2, 52536, Note_off_c, 0, 53, 64
2, 52536, Note_off_c, 0, 57, 64
2, 52536, Note_off_c, 0, 62, 64
2, 52560, Note_on_c, 0, 53, 80
2, 52560, Note_on_c, 0, 57, 80
2, 52560, Note_on_c, 0, 60, 80
2, 52776, Note_off_c, 0, 53, 64
2, 52776, Note_off_c, 0, 57, 64
2, 52776, Note_off_c, 0, 60, 64
2, 52800, Note_on_c, 0, 60, 80
2, 52920, Note_off_c, 0, 60, 64
2, 52920, Note_on_c, 0, 53, 80
2, 52920, Note_on_c, 0, 57, 80
2, 53028, Note_off_c, 0, 53, 64
2, 53028, Note_off_c, 0, 57, 64
2, 53040, Note_on_c, 0, 62, 80
2, 53256, Note_off_c, 0, 62, 64
2, 53280, Note_on_c, 0, 62, 80
2, 53280, Note_on_c, 0, 65, 80
2, 53496, Note_off_c, 0, 62, 64
2, 53496, Note_off_c, 0, 65, 64
2, 53520, Note_on_c, 0, 64, 80
2, 53520, Note_on_c, 0, 67, 80
2, 53736, Note_off_c, 0, 64, 64
2, 53736, Note_off_c, 0, 67, 64
2, 53760, Note_on_c, 0, 58, 80
2, 53760, Note_on_c, 0, 62, 80
2, 53760, Note_on_c, 0, 69, 80
2, 54192, Note_off_c, 0, 58, 64
2, 54192, Note_off_c, 0, 62, 64
2, 54192, Note_off_c, 0, 69, 64
2, 54240, Note_on_c, 0, 58, 80
2, 54240, Note_on_c, 0, 62, 80
2, 54240, Note_on_c, 0, 67, 80
2, 54456, Note_off_c, 0, 58, 64
2, 54456, Note_off_c, 0, 62, 64
2, 54456, Note_off_c, 0, 67, 64
2, 54480, Note_on_c, 0, 69, 80
2, 54588, Note_off_c, 0, 69, 64
2, 54600, Note_on_c, 0, 67, 80
2, 54708, Note_off_c, 0, 67, 64
2, 54720, Note_on_c, 0, 55, 80
2, 54720, Note_on_c, 0, 60, 80
2, 54720, Note_on_c, 0, 65, 80
2, 55152, Note_off_c, 0, 55, 64
2, 55152, Note_off_c, 0, 60, 64
2, 55152, Note_off_c, 0, 65, 64
2, 55200, Note_on_c, 0, 55, 80
2, 55200, Note_on_c, 0, 60, 80
2, 55200, Note_on_c, 0, 62, 80
2, 55632, Note_off_c, 0, 55, 64
2, 55632, Note_off_c, 0, 60, 64
2, 55632, Note_off_c, 0, 62, 64
2, 55680, Note_on_c, 0, 58, 80
2, 55680, Note_on_c, 0, 65, 80
2, 56112, Note_off_c, 0, 58, 64
2, 56112, Note_off_c, 0, 65, 64
2, 56160, Note_on_c, 0, 53, 80
2, 56160, Note_on_c, 0, 58, 80
2, 56160, Note_on_c, 0, 64, 80
2, 56592, Note_off_c, 0, 53, 64
2, 56592, Note_off_c, 0, 58, 64
2, 56592, Note_off_c, 0, 64, 64
2, 56640, Note_on_c, 0, 53, 80
2, 56640, Note_on_c, 0, 58, 80
2, 56640, Note_on_c, 0, 62, 80
2, 57072, Note_off_c, 0, 53, 64
2, 57072, Note_off_c, 0, 58, 64
2, 57072, Note_off_c, 0, 62, 64
2, 57120, Note_on_c, 0, 53, 80
2, 57120, Note_on_c, 0, 58, 80
2, 57120, Note_on_c, 0, 60, 80
2, 57552, Note_off_c, 0, 53, 64
2, 57552, Note_off_c, 0, 58, 64
2, 57552, Note_off_c, 0, 60, 64
2, 57600, Note_on_c, 0, 53, 80
2, 57600, Note_on_c, 0, 57, 80
2, 57600, Note_on_c, 0, 60, 80
2, 57816, Note_off_c, 0, 53, 64
2, 57816, Note_off_c, 0, 57, 64
2, 57816, Note_off_c, 0, 60, 64
2, 57840, Note_on_c, 0, 53, 80
2, 57840, Note_on_c, 0, 57, 80
2, 57840, Note_on_c, 0, 60, 80
2, 57948, Note_off_c, 0, 53, 64
2, 57948, Note_off_c, 0, 57, 64
2, 57948, Note_off_c, 0, 60, 64
2, 57960, Note_on_c, 0, 62, 80
2, 58068, Note_off_c, 0, 62, 64
2, 58080, Note_on_c, 0, 53, 80
2, 58080, Note_on_c, 0, 57, 80
2, 58296, Note_off_c, 0, 53, 64
2, 58296, Note_off_c, 0, 57, 64
2, 58320, Note_on_c, 0, 55, 80
2, 58536, Note_off_c, 0, 55, 64
2, 58560, Note_on_c, 0, 53, 80
2, 58560, Note_on_c, 0, 57, 80
2, 58992, Note_off_c, 0, 53, 64
2, 58992, Note_off_c, 0, 57, 64
2, 59040, Note_on_c, 0, 48, 80
2, 59040, Note_on_c, 0, 53, 80
2, 59472, Note_off_c, 0, 48, 64
2, 59472, Note_off_c, 0, 53, 64
2, 59520, Note_on_c, 0, 53, 80
2, 59520, Note_on_c, 0, 57, 80
2, 59736, Note_off_c, 0, 53, 64
2, 59736, Note_off_c, 0, 57, 64
2, 59760, Note_on_c, 0, 60, 80
2, 59976, Note_off_c, 0, 60, 64
2, 60000, Note_on_c, 0, 53, 80
2, 60000, Note_on_c, 0, 58, 80
2, 60000, Note_on_c, 0, 62, 80
2, 60432, Note_off_c, 0, 53, 64
2, 60432, Note_off_c, 0, 58, 64
2, 60432, Note_off_c, 0, 62, 64
2, 60480, Note_on_c, 0, 58, 80
2, 60480, Note_on_c, 0, 60, 80
2, 60480, Note_on_c, 0, 67, 80
2, 60912, Note_off_c, 0, 58, 64
2, 60912, Note_off_c, 0, 60, 64
2, 60912, Note_off_c, 0, 67, 64
2, 60960, Note_on_c, 0, 55, 80
2, 60960, Note_on_c, 0, 60, 80
2, 60960, Note_on_c, 0, 64, 80
2, 61392, Note_off_c, 0, 55, 64
2, 61392, Note_off_c, 0, 60, 64
2, 61392, Note_off_c, 0, 64, 64
2, 61440, Note_on_c, 0, 57, 80
2, 61440, Note_on_c, 0, 62, 80
2, 61440, Note_on_c, 0, 65, 80
2, 61656, Note_off_c, 0, 57, 64
2, 61656, Note_off_c, 0, 62, 64
2, 61656, Note_off_c, 0, 65, 64
2, 61680, Note_on_c, 0, 53, 80
2, 61896, Note_off_c, 0, 53, 64
2, 61920, Note_on_c, 0, 57, 80
2, 61920, Note_on_c, 0, 62, 80
2, 61920, Note_on_c, 0, 64, 80
2, 62028, Note_off_c, 0, 57, 64
2, 62028, Note_off_c, 0, 62, 64
2, 62028, Note_off_c, 0, 64, 64
2, 62040, Note_on_c, 0, 53, 80
2, 62148, Note_off_c, 0, 53, 64
2, 62160, Note_on_c, 0, 57, 80
2, 62160, Note_on_c, 0, 60, 80
2, 62268, Note_off_c, 0, 57, 64
2, 62268, Note_off_c, 0, 60, 64
2, 62280, Note_on_c, 0, 53, 80
2, 62388, Note_off_c, 0, 53, 64
2, 62400, Note_on_c, 0, 55, 80
2, 62400, Note_on_c, 0, 57, 80
2, 62400, Note_on_c, 0, 62, 80
2, 62616, Note_off_c, 0, 55, 64
2, 62616, Note_off_c, 0, 57, 64
2, 62616, Note_off_c, 0, 62, 64
2, 62640, Note_on_c, 0, 53, 80
2, 62856, Note_off_c, 0, 53, 64
2, 62880, Note_on_c, 0, 57, 80
2, 63096, Note_off_c, 0, 57, 64
2, 63120, Note_on_c, 0, 53, 80
2, 63336, Note_off_c, 0, 53, 64
2, 63360, Note_on_c, 0, 58, 80
2, 63360, Note_on_c, 0, 65, 80
2, 63792, Note_off_c, 0, 58, 64
2, 63792, Note_off_c, 0, 65, 64
2, 63840, Note_on_c, 0, 53, 80
2, 63840, Note_on_c, 0, 58, 80
2, 63840, Note_on_c, 0, 64, 80
2, 64272, Note_off_c, 0, 53, 64
2, 64272, Note_off_c, 0, 58, 64
2, 64272, Note_off_c, 0, 64, 64
2, 64320, Note_on_c, 0, 53, 80
2, 64320, Note_on_c, 0, 58, 80
2, 64320, Note_on_c, 0, 62, 80
2, 64752, Note_off_c, 0, 53, 64
2, 64752, Note_off_c, 0, 58, 64
2, 64752, Note_off_c, 0, 62, 64
2, 64800, Note_on_c, 0, 53, 80
2, 64800, Note_on_c, 0, 58, 80
2, 64800, Note_on_c, 0, 60, 80
2, 65232, Note_off_c, 0, 53, 64
2, 65232, Note_off_c, 0, 58, 64
2, 65232, Note_off_c, 0, 60, 64
2, 65280, Note_on_c, 0, 53, 80
2, 65280, Note_on_c, 0, 57, 80
2, 65280, Note_on_c, 0, 60, 80
2, 65496, Note_off_c, 0, 53, 64
2, 65496, Note_off_c, 0, 57, 64
2, 65496, Note_off_c, 0, 60, 64
2, 65520, Note_on_c, 0, 53, 80
2, 65520, Note_on_c, 0, 57, 80
2, 65520, Note_on_c, 0, 60, 80
2, 65628, Note_off_c, 0, 53, 64
2, 65628, Note_off_c, 0, 57, 64
2, 65628, Note_off_c, 0, 60, 64
2, 65640, Note_on_c, 0, 62, 80
2, 65748, Note_off_c, 0, 62, 64
2, 65760, Note_on_c, 0, 53, 80
2, 65760, Note_on_c, 0, 57, 80
2, 65976, Note_off_c, 0, 53, 64
2, 65976, Note_off_c, 0, 57, 64
2, 66000, Note_on_c, 0, 55, 80
2, 66216, Note_off_c, 0, 55, 64
2, 66240, Note_on_c, 0, 53, 80
2, 66240, Note_on_c, 0, 57, 80
2, 66672, Note_off_c, 0, 53, 64
2, 66672, Note_off_c, 0, 57, 64
2, 66720, Note_on_c, 0, 48, 80
2, 66720, Note_on_c, 0, 57, 80
2, 66936, Note_off_c, 0, 48, 64
2, 66936, Note_off_c, 0, 57, 64
2, 66960, Note_on_c, 0, 60, 80
2, 67176, Note_off_c, 0, 60, 64
2, 67185, Note_on_c, 0, 53, 80
2, 67200, Note_on_c, 0, 55, 80
2, 67215, Note_on_c, 0, 58, 80
2, 67230, Note_on_c, 0, 62, 80
2, 67401, Note_off_c, 0, 53, 64
2, 67416, Note_off_c, 0, 55, 64
2, 67431, Note_off_c, 0, 58, 64
2, 67440, Note_on_c, 0, 55, 80
2, 67440, Note_on_c, 0, 58, 80
2, 67440, Note_on_c, 0, 62, 80
2, 67446, Note_off_c, 0, 62, 64
2, 67872, Note_off_c, 0, 55, 64
2, 67872, Note_off_c, 0, 58, 64
2, 67872, Note_off_c, 0, 62, 64
2, 67920, Note_on_c, 0, 55, 80
2, 67920, Note_on_c, 0, 58, 80
2, 67920, Note_on_c, 0, 62, 80
2, 68136, Note_off_c, 0, 55, 64
2, 68136, Note_off_c, 0, 58, 64
2, 68136, Note_off_c, 0, 62, 64
2, 68160, Note_on_c, 0, 57, 80
2, 68160, Note_on_c, 0, 65, 80
2, 68592, Note_off_c, 0, 57, 64
2, 68592, Note_off_c, 0, 65, 64
2, 68640, Note_on_c, 0, 58, 80
2, 68640, Note_on_c, 0, 62, 80
2, 68640, Note_on_c, 0, 67, 80
2, 69072, Note_off_c, 0, 58, 64
2, 69072, Note_off_c, 0, 62, 64
2, 69072, Note_off_c, 0, 67, 64
2, 69120, Note_on_c, 0, 55, 80
2, 69120, Note_on_c, 0, 57, 80
2, 69120, Note_on_c, 0, 61, 80
2, 69120, Note_on_c, 0, 64, 80
2, 69552, Note_off_c, 0, 55, 64
2, 69552, Note_off_c, 0, 57, 64
2, 69552, Note_off_c, 0, 61, 64
2, 69552, Note_off_c, 0, 64, 64
2, 69600, Note_on_c, 0, 52, 80
2, 69600, Note_on_c, 0, 55, 80
2, 69816, Note_off_c, 0, 52, 64
2, 69816, Note_off_c, 0, 55, 64
2, 69840, Note_on_c, 0, 49, 80
2, 69840, Note_on_c, 0, 52, 80
2, 69840, Note_on_c, 0, 55, 80
2, 69840, Note_on_c, 0, 57, 80
2, 70056, Note_off_c, 0, 49, 64
2, 70056, Note_off_c, 0, 52, 64
2, 70056, Note_off_c, 0, 55, 64
2, 70056, Note_off_c, 0, 57, 64
2, 70560, Note_on_c, 0, 62, 80
2, 70776, Note_off_c, 0, 62, 64
2, 70800, Note_on_c, 0, 65, 80
2, 71016, Note_off_c, 0, 65, 64
2, 71040, Note_on_c, 0, 57, 80
2, 71040, Note_on_c, 0, 62, 80
2, 71040, Note_on_c, 0, 67, 80
2, 71364, Note_off_c, 0, 57, 64
2, 71364, Note_off_c, 0, 62, 64
2, 71364, Note_off_c, 0, 67, 64
2, 71400, Note_on_c, 0, 62, 80
2, 71400, Note_on_c, 0, 67, 80
2, 71724, Note_off_c, 0, 62, 64
2, 71724, Note_off_c, 0, 67, 64
2, 71760, Note_on_c, 0, 62, 80
2, 71760, Note_on_c, 0, 65, 80
2, 71760, Note_on_c, 0, 69, 80
2, 71976, Note_off_c, 0, 62, 64
2, 71976, Note_off_c, 0, 65, 64
2, 71976, Note_off_c, 0, 69, 64
2, 72000, Note_on_c, 0, 62, 80
2, 72000, Note_on_c, 0, 65, 80
2, 72000, Note_on_c, 0, 69, 80
2, 72648, Note_off_c, 0, 62, 64
2, 72648, Note_off_c, 0, 65, 64
2, 72648, Note_off_c, 0, 69, 64
2, 72720, Note_on_c, 0, 69, 80
2, 72936, Note_off_c, 0, 69, 64
2, 72960, Note_on_c, 0, 64, 80
2, 72960, Note_on_c, 0, 67, 80
2, 72960, Note_on_c, 0, 72, 80
2, 73176, Note_off_c, 0, 64, 64
2, 73176, Note_off_c, 0, 67, 64
2, 73176, Note_off_c, 0, 72, 64
2, 73200, Note_on_c, 0, 74, 80
2, 73416, Note_off_c, 0, 74, 64
2, 73440, Note_on_c, 0, 58, 80
2, 73440, Note_on_c, 0, 64, 80
2, 73440, Note_on_c, 0, 67, 80
2, 73656, Note_off_c, 0, 58, 64
2, 73656, Note_off_c, 0, 64, 64
2, 73656, Note_off_c, 0, 67, 64
2, 73680, Note_on_c, 0, 65, 80
2, 73896, Note_off_c, 0, 65, 64
2, 73920, Note_on_c, 0, 60, 80
2, 73920, Note_on_c, 0, 65, 80
2, 73920, Note_on_c, 0, 69, 80
2, 74352, Note_off_c, 0, 60, 64
2, 74352, Note_off_c, 0, 65, 64
2, 74352, Note_off_c, 0, 69, 64
2, 74400, Note_on_c, 0, 62, 80
2, 74616, Note_off_c, 0, 62, 64
2, 74640, Note_on_c, 0, 65, 80
2, 74856, Note_off_c, 0, 65, 64
2, 74880, Note_on_c, 0, 57, 80
2, 74880, Note_on_c, 0, 62, 80
2, 74880, Note_on_c, 0, 67, 80
2, 75204, Note_off_c, 0, 57, 64
2, 75204, Note_off_c, 0, 62, 64
2, 75204, Note_off_c, 0, 67, 64
2, 75240, Note_on_c, 0, 62, 80
2, 75240, Note_on_c, 0, 67, 80
2, 75564, Note_off_c, 0, 62, 64
2, 75564, Note_off_c, 0, 67, 64
2, 75600, Note_on_c, 0, 62, 80
2, 75600, Note_on_c, 0, 65, 80
2, 75600, Note_on_c, 0, 69, 80
2, 75816, Note_off_c, 0, 62, 64
2, 75816, Note_off_c, 0, 65, 64
2, 75816, Note_off_c, 0, 69, 64
2, 75840, Note_on_c, 0, 62, 80
2, 75840, Note_on_c, 0, 65, 80
2, 75840, Note_on_c, 0, 69, 80
2, 76488, Note_off_c, 0, 62, 64
2, 76488, Note_off_c, 0, 65, 64
2, 76488, Note_off_c, 0, 69, 64
2, 76560, Note_on_c, 0, 69, 80
2, 76776, Note_off_c, 0, 69, 64
2, 76800, Note_on_c, 0, 64, 80
2, 76800, Note_on_c, 0, 67, 80
2, 76800, Note_on_c, 0, 70, 80
2, 77016, Note_off_c, 0, 64, 64
2, 77016, Note_off_c, 0, 67, 64
2, 77016, Note_off_c, 0, 70, 64
2, 77040, Note_on_c, 0, 69, 80
2, 77256, Note_off_c, 0, 69, 64
2, 77280, Note_on_c, 0, 58, 80
2, 77280, Note_on_c, 0, 64, 80
2, 77280, Note_on_c, 0, 67, 80
2, 77496, Note_off_c, 0, 58, 64
2, 77496, Note_off_c, 0, 64, 64
2, 77496, Note_off_c, 0, 67, 64
2, 77520, Note_on_c, 0, 65, 80
2, 77736, Note_off_c, 0, 65, 64
2, 77760, Note_on_c, 0, 57, 80
2, 77760, Note_on_c, 0, 60, 80
2, 77760, Note_on_c, 0, 65, 80
2, 78192, Note_off_c, 0, 57, 64
2, 78192, Note_off_c, 0, 60, 64
2, 78192, Note_off_c, 0, 65, 64
2, 78240, Note_on_c, 0, 57, 80
2, 78240, Note_on_c, 0, 62, 80
2, 78456, Note_off_c, 0, 57, 64
2, 78456, Note_off_c, 0, 62, 64
2, 78480, Note_on_c, 0, 65, 80
2, 78696, Note_off_c, 0, 65, 64
2, 78720, Note_on_c, 0, 57, 80
2, 78720, Note_on_c, 0, 62, 80
2, 78720, Note_on_c, 0, 67, 80
2, 79044, Note_off_c, 0, 57, 64
2, 79044, Note_off_c, 0, 62, 64
2, 79044, Note_off_c, 0, 67, 64
2, 79080, Note_on_c, 0, 62, 80
2, 79080, Note_on_c, 0, 67, 80
2, 79404, Note_off_c, 0, 62, 64
2, 79404, Note_off_c, 0, 67, 64
2, 79440, Note_on_c, 0, 62, 80
2, 79440, Note_on_c, 0, 65, 80
2, 79440, Note_on_c, 0, 69, 80
2, 79656, Note_off_c, 0, 62, 64
2, 79656, Note_off_c, 0, 65, 64
2, 79656, Note_off_c, 0, 69, 64
2, 79680, Note_on_c, 0, 62, 80
2, 79680, Note_on_c, 0, 65, 80
2, 79680, Note_on_c, 0, 69, 80
2, 80328, Note_off_c, 0, 62, 64
2, 80328, Note_off_c, 0, 65, 64
2, 80328, Note_off_c, 0, 69, 64
2, 80400, Note_on_c, 0, 69, 80
2, 80616, Note_off_c, 0, 69, 64
2, 80640, Note_on_c, 0, 64, 80
2, 80640, Note_on_c, 0, 67, 80
2, 80640, Note_on_c, 0, 72, 80
2, 80856, Note_off_c, 0, 64, 64
2, 80856, Note_off_c, 0, 67, 64
2, 80856, Note_off_c, 0, 72, 64
2, 80880, Note_on_c, 0, 74, 80
2, 81096, Note_off_c, 0, 74, 64
2, 81120, Note_on_c, 0, 58, 80
2, 81120, Note_on_c, 0, 64, 80
2, 81120, Note_on_c, 0, 67, 80
2, 81336, Note_off_c, 0, 58, 64
2, 81336, Note_off_c, 0, 64, 64
2, 81336, Note_off_c, 0, 67, 64
2, 81360, Note_on_c, 0, 65, 80
2, 81576, Note_off_c, 0, 65, 64
2, 81600, Note_on_c, 0, 60, 80
2, 81600, Note_on_c, 0, 65, 80
2, 81600, Note_on_c, 0, 69, 80
2, 82032, Note_off_c, 0, 60, 64
2, 82032, Note_off_c, 0, 65, 64
2, 82032, Note_off_c, 0, 69, 64
2, 82080, Note_on_c, 0, 62, 80
2, 82296, Note_off_c, 0, 62, 64
2, 82320, Note_on_c, 0, 65, 80
2, 82536, Note_off_c, 0, 65, 64
2, 82560, Note_on_c, 0, 62, 80
2, 82560, Note_on_c, 0, 65, 80
2, 82560, Note_on_c, 0, 70, 80
2, 82992, Note_off_c, 0, 62, 64
2, 82992, Note_off_c, 0, 65, 64
2, 82992, Note_off_c, 0, 70, 64
2, 83040, Note_on_c, 0, 62, 80
2, 83040, Note_on_c, 0, 65, 80
2, 83040, Note_on_c, 0, 69, 80
2, 83472, Note_off_c, 0, 62, 64
2, 83472, Note_off_c, 0, 65, 64
2, 83472, Note_off_c, 0, 69, 64
2, 83520, Note_on_c, 0, 60, 80
2, 83520, Note_on_c, 0, 64, 80
2, 83520, Note_on_c, 0, 67, 80
2, 83952, Note_off_c, 0, 60, 64
2, 83952, Note_off_c, 0, 64, 64
2, 83952, Note_off_c, 0, 67, 64
2, 84000, Note_on_c, 0, 60, 80
2, 84000, Note_on_c, 0, 64, 80
2, 84000, Note_on_c, 0, 65, 80
2, 84432, Note_off_c, 0, 60, 64
2, 84432, Note_off_c, 0, 64, 64
2, 84432, Note_off_c, 0, 65, 64
2, 84480, Note_on_c, 0, 58, 80
2, 84480, Note_on_c, 0, 62, 80
2, 84480, Note_on_c, 0, 67, 80
2, 84696, Note_off_c, 0, 58, 64
2, 84696, Note_off_c, 0, 62, 64
2, 84696, Note_off_c, 0, 67, 64
2, 84720, Note_on_c, 0, 69, 80
2, 84936, Note_off_c, 0, 69, 64
2, 84960, Note_on_c, 0, 58, 80
2, 84960, Note_on_c, 0, 64, 80
2, 85176, Note_off_c, 0, 58, 64
2, 85176, Note_off_c, 0, 64, 64
2, 85200, Note_on_c, 0, 60, 80
2, 85416, Note_off_c, 0, 60, 64
2, 85440, Note_on_c, 0, 53, 80
2, 85440, Note_on_c, 0, 57, 80
2, 85440, Note_on_c, 0, 62, 80
2, 85872, Note_off_c, 0, 53, 64
2, 85872, Note_off_c, 0, 57, 64
2, 85872, Note_off_c, 0, 62, 64
2, 85920, Note_on_c, 0, 53, 80
2, 85920, Note_on_c, 0, 57, 80
2, 85920, Note_on_c, 0, 62, 80
2, 86136, Note_off_c, 0, 53, 64
2, 86136, Note_off_c, 0, 57, 64
2, 86136, Note_off_c, 0, 62, 64
2, 86160, Note_on_c, 0, 65, 80
2, 86376, Note_off_c, 0, 65, 64
2, 86400, Note_on_c, 0, 57, 80
2, 86400, Note_on_c, 0, 62, 80
2, 86400, Note_on_c, 0, 67, 80
2, 86724, Note_off_c, 0, 57, 64
2, 86724, Note_off_c, 0, 62, 64
2, 86724, Note_off_c, 0, 67, 64
2, 86760, Note_on_c, 0, 62, 80
2, 86760, Note_on_c, 0, 67, 80
2, 87084, Note_off_c, 0, 62, 64
2, 87084, Note_off_c, 0, 67, 64
2, 87120, Note_on_c, 0, 62, 80
2, 87120, Note_on_c, 0, 65, 80
2, 87120, Note_on_c, 0, 69, 80
2, 87336, Note_off_c, 0, 62, 64
2, 87336, Note_off_c, 0, 65, 64
2, 87336, Note_off_c, 0, 69, 64
2, 87360, Note_on_c, 0, 62, 80
2, 87360, Note_on_c, 0, 65, 80
2, 87360, Note_on_c, 0, 69, 80
2, 88008, Note_off_c, 0, 62, 64
2, 88008, Note_off_c, 0, 65, 64
2, 88008, Note_off_c, 0, 69, 64
2, 88080, Note_on_c, 0, 69, 80
2, 88296, Note_off_c, 0, 69, 64
2, 88320, Note_on_c, 0, 64, 80
2, 88320, Note_on_c, 0, 67, 80
2, 88320, Note_on_c, 0, 72, 80
2, 88536, Note_off_c, 0, 64, 64
2, 88536, Note_off_c, 0, 67, 64
2, 88536, Note_off_c, 0, 72, 64
2, 88560, Note_on_c, 0, 74, 80
2, 88776, Note_off_c, 0, 74, 64
2, 88800, Note_on_c, 0, 58, 80
2, 88800, Note_on_c, 0, 64, 80
2, 88800, Note_on_c, 0, 67, 80
2, 89016, Note_off_c, 0, 58, 64
2, 89016, Note_off_c, 0, 64, 64
2, 89016, Note_off_c, 0, 67, 64
2, 89040, Note_on_c, 0, 65, 80
2, 89256, Note_off_c, 0, 65, 64
2, 89280, Note_on_c, 0, 60, 80
2, 89280, Note_on_c, 0, 65, 80
2, 89280, Note_on_c, 0, 69, 80
2, 89712, Note_off_c, 0, 60, 64
2, 89712, Note_off_c, 0, 65, 64
2, 89712, Note_off_c, 0, 69, 64
2, 89760, Note_on_c, 0, 62, 80
2, 89976, Note_off_c, 0, 62, 64
2, 90000, Note_on_c, 0, 65, 80
2, 90216, Note_off_c, 0, 65, 64
2, 90240, Note_on_c, 0, 57, 80
2, 90240, Note_on_c, 0, 62, 80
2, 90240, Note_on_c, 0, 67, 80
2, 90564, Note_off_c, 0, 57, 64
2, 90564, Note_off_c, 0, 62, 64
2, 90564, Note_off_c, 0, 67, 64
2, 90600, Note_on_c, 0, 62, 80
2, 90600, Note_on_c, 0, 67, 80
2, 90924, Note_off_c, 0, 62, 64
2, 90924, Note_off_c, 0, 67, 64
2, 90960, Note_on_c, 0, 62, 80
2, 90960, Note_on_c, 0, 65, 80
2, 90960, Note_on_c, 0, 69, 80
2, 91176, Note_off_c, 0, 62, 64
2, 91176, Note_off_c, 0, 65, 64
2, 91176, Note_off_c, 0, 69, 64
2, 91200, Note_on_c, 0, 62, 80
2, 91200, Note_on_c, 0, 65, 80
2, 91200, Note_on_c, 0, 69, 80
2, 91848, Note_off_c, 0, 62, 64
2, 91848, Note_off_c, 0, 65, 64
2, 91848, Note_off_c, 0, 69, 64
2, 91920, Note_on_c, 0, 69, 80
2, 92136, Note_off_c, 0, 69, 64
2, 92160, Note_on_c, 0, 64, 80
2, 92160, Note_on_c, 0, 67, 80
2, 92160, Note_on_c, 0, 70, 80
2, 92376, Note_off_c, 0, 64, 64
2, 92376, Note_off_c, 0, 67, 64
2, 92376, Note_off_c, 0, 70, 64
2, 92400, Note_on_c, 0, 69, 80
2, 92616, Note_off_c, 0, 69, 64
2, 92640, Note_on_c, 0, 58, 80
2, 92640, Note_on_c, 0, 64, 80
2, 92640, Note_on_c, 0, 67, 80
2, 92856, Note_off_c, 0, 58, 64
2, 92856, Note_off_c, 0, 64, 64
2, 92856, Note_off_c, 0, 67, 64
2, 92880, Note_on_c, 0, 65, 80
2, 93096, Note_off_c, 0, 65, 64
2, 93120, Note_on_c, 0, 57, 80
2, 93120, Note_on_c, 0, 60, 80
2, 93120, Note_on_c, 0, 65, 80
2, 93552, Note_off_c, 0, 57, 64
2, 93552, Note_off_c, 0, 60, 64
2, 93552, Note_off_c, 0, 65, 64
2, 93600, Note_on_c, 0, 57, 80
2, 93600, Note_on_c, 0, 62, 80
2, 93816, Note_off_c, 0, 57, 64
2, 93816, Note_off_c, 0, 62, 64
2, 93840, Note_on_c, 0, 65, 80
2, 94056, Note_off_c, 0, 65, 64
2, 94080, Note_on_c, 0, 57, 80
2, 94080, Note_on_c, 0, 62, 80
2, 94080, Note_on_c, 0, 67, 80
2, 94404, Note_off_c, 0, 57, 64
2, 94404, Note_off_c, 0, 62, 64
2, 94404, Note_off_c, 0, 67, 64
2, 94440, Note_on_c, 0, 62, 80
2, 94440, Note_on_c, 0, 67, 80
2, 94764, Note_off_c, 0, 62, 64
2, 94764, Note_off_c, 0, 67, 64
2, 94800, Note_on_c, 0, 62, 80
2, 94800, Note_on_c, 0, 65, 80
2, 94800, Note_on_c, 0, 69, 80
2, 95016, Note_off_c, 0, 62, 64
2, 95016, Note_off_c, 0, 65, 64
2, 95016, Note_off_c, 0, 69, 64
2, 95040, Note_on_c, 0, 62, 80
2, 95040, Note_on_c, 0, 65, 80
2, 95040, Note_on_c, 0, 69, 80
2, 95688, Note_off_c, 0, 62, 64
2, 95688, Note_off_c, 0, 65, 64
2, 95688, Note_off_c, 0, 69, 64
2, 95760, Note_on_c, 0, 69, 80
2, 95976, Note_off_c, 0, 69, 64
2, 96000, Note_on_c, 0, 64, 80
2, 96000, Note_on_c, 0, 67, 80
2, 96000, Note_on_c, 0, 72, 80
2, 96216, Note_off_c, 0, 64, 64
2, 96216, Note_off_c, 0, 67, 64
2, 96216, Note_off_c, 0, 72, 64
2, 96240, Note_on_c, 0, 74, 80
2, 96456, Note_off_c, 0, 74, 64
2, 96480, Note_on_c, 0, 58, 80
2, 96480, Note_on_c, 0, 64, 80
2, 96480, Note_on_c, 0, 67, 80
2, 96696, Note_off_c, 0, 58, 64
2, 96696, Note_off_c, 0, 64, 64
2, 96696, Note_off_c, 0, 67, 64
2, 96720, Note_on_c, 0, 65, 80
2, 96936, Note_off_c, 0, 65, 64
2, 96960, Note_on_c, 0, 60, 80
2, 96960, Note_on_c, 0, 65, 80
2, 96960, Note_on_c, 0, 69, 80
2, 97392, Note_off_c, 0, 60, 64
2, 97392, Note_off_c, 0, 65, 64
2, 97392, Note_off_c, 0, 69, 64
2, 97440, Note_on_c, 0, 62, 80
2, 97656, Note_off_c, 0, 62, 64
2, 97680, Note_on_c, 0, 65, 80
2, 97896, Note_off_c, 0, 65, 64
2, 97920, Note_on_c, 0, 62, 80
2, 97920, Note_on_c, 0, 65, 80
2, 97920, Note_on_c, 0, 70, 80
2, 98352, Note_off_c, 0, 62, 64
2, 98352, Note_off_c, 0, 65, 64
2, 98352, Note_off_c, 0, 70, 64
2, 98400, Note_on_c, 0, 62, 80
2, 98400, Note_on_c, 0, 65, 80
2, 98400, Note_on_c, 0, 69, 80
2, 98832, Note_off_c, 0, 62, 64
2, 98832, Note_off_c, 0, 65, 64
2, 98832, Note_off_c, 0, 69, 64
2, 98880, Note_on_c, 0, 60, 80
2, 98880, Note_on_c, 0, 64, 80
2, 98880, Note_on_c, 0, 67, 80
2, 99312, Note_off_c, 0, 60, 64
2, 99312, Note_off_c, 0, 64, 64
2, 99312, Note_off_c, 0, 67, 64
2, 99360, Note_on_c, 0, 60, 80
2, 99360, Note_on_c, 0, 64, 80
2, 99360, Note_on_c, 0, 65, 80
2, 99792, Note_off_c, 0, 60, 64
2, 99792, Note_off_c, 0, 64, 64
2, 99792, Note_off_c, 0, 65, 64
2, 99840, Note_on_c, 0, 58, 80
2, 99840, Note_on_c, 0, 62, 80
2, 99840, Note_on_c, 0, 67, 80
2, 100056, Note_off_c, 0, 58, 64
2, 100056, Note_off_c, 0, 62, 64
2, 100056, Note_off_c, 0, 67, 64
2, 100080, Note_on_c, 0, 65, 80
2, 100296, Note_off_c, 0, 65, 64
2, 100320, Note_on_c, 0, 60, 80
2, 100320, Note_on_c, 0, 64, 80
2, 100320, Note_on_c, 0, 69, 80
2, 100536, Note_off_c, 0, 60, 64
2, 100536, Note_off_c, 0, 64, 64
2, 100536, Note_off_c, 0, 69, 64
2, 100560, Note_on_c, 0, 72, 80
2, 100776, Note_off_c, 0, 72, 64
2, 100800, Note_on_c, 0, 65, 80
2, 100800, Note_on_c, 0, 69, 80
2, 100800, Note_on_c, 0, 74, 80
2, 101232, Note_off_c, 0, 65, 64
2, 101232, Note_off_c, 0, 69, 64
2, 101232, Note_off_c, 0, 74, 64
2, 101280, Note_on_c, 0, 53, 80
2, 101280, Note_on_c, 0, 57, 80
2, 101712, Note_off_c, 0, 53, 64
2, 101712, Note_off_c, 0, 57, 64
2, 101760, Note_on_c, 0, 79, 80
2, 101760, Note_on_c, 0, 74, 80
2, 101760, Note_on_c, 0, 67, 80
2, 101976, Note_off_c, 0, 79, 64
2, 101976, Note_off_c, 0, 74, 64
2, 101976, Note_off_c, 0, 67, 64
2, 102000, Note_on_c, 0, 81, 80
2, 102000, Note_on_c, 0, 69, 80
2, 102216, Note_off_c, 0, 81, 64
2, 102216, Note_off_c, 0, 69, 64
2, 102240, Note_on_c, 0, 74, 80
2, 102240, Note_on_c, 0, 62, 80
2, 102348, Note_off_c, 0, 74, 64
2, 102348, Note_off_c, 0, 62, 64
2, 102360, Note_on_c, 0, 72, 80
2, 102468, Note_off_c, 0, 72, 64
2, 102480, Note_on_c, 0, 74, 80
2, 102588, Note_off_c, 0, 74, 64
2, 102600, Note_on_c, 0, 72, 80
2, 102708, Note_off_c, 0, 72, 64
2, 102720, Note_on_c, 0, 79, 80
2, 102720, Note_on_c, 0, 67, 80
2, 102936, Note_off_c, 0, 79, 64
2, 102936, Note_off_c, 0, 67, 64
2, 102960, Note_on_c, 0, 81, 80
2, 102960, Note_on_c, 0, 69, 80
2, 103176, Note_off_c, 0, 81, 64
2, 103176, Note_off_c, 0, 69, 64
2, 103200, Note_on_c, 0, 74, 80
2, 103200, Note_on_c, 0, 62, 80
2, 103308, Note_off_c, 0, 74, 64
2, 103308, Note_off_c, 0, 62, 64
2, 103320, Note_on_c, 0, 72, 80
2, 103428, Note_off_c, 0, 72, 64
2, 103440, Note_on_c, 0, 74, 80
2, 103548, Note_off_c, 0, 74, 64
2, 103560, Note_on_c, 0, 72, 80
2, 103668, Note_off_c, 0, 72, 64
2, 103680, Note_on_c, 0, 79, 80
2, 103680, Note_on_c, 0, 74, 80
2, 103680, Note_on_c, 0, 67, 80
2, 103896, Note_off_c, 0, 79, 64
2, 103896, Note_off_c, 0, 74, 64
2, 103896, Note_off_c, 0, 67, 64
2, 103920, Note_on_c, 0, 81, 80
2, 103920, Note_on_c, 0, 69, 80
2, 104136, Note_off_c, 0, 81, 64
2, 104136, Note_off_c, 0, 69, 64
2, 104160, Note_on_c, 0, 74, 80
2, 104160, Note_on_c, 0, 62, 80
2, 104268, Note_off_c, 0, 74, 64
2, 104268, Note_off_c, 0, 62, 64
2, 104280, Note_on_c, 0, 72, 80
2, 104388, Note_off_c, 0, 72, 64
2, 104400, Note_on_c, 0, 74, 80
2, 104508, Note_off_c, 0, 74, 64
2, 104520, Note_on_c, 0, 72, 80
2, 104610, Note_on_c, 0, 69, 80
2, 104628, Note_off_c, 0, 72, 64
2, 104632, Note_on_c, 0, 74, 80
2, 104655, Note_on_c, 0, 76, 80
2, 104677, Note_on_c, 0, 77, 80
2, 104826, Note_off_c, 0, 69, 64
2, 104848, Note_off_c, 0, 74, 64
2, 104871, Note_off_c, 0, 76, 64
2, 104880, Note_on_c, 0, 76, 80
2, 104880, Note_on_c, 0, 64, 80
2, 104893, Note_off_c, 0, 77, 64
2, 104988, Note_off_c, 0, 76, 64
2, 104988, Note_off_c, 0, 64, 64
2, 105000, Note_on_c, 0, 77, 80
2, 105054, Note_off_c, 0, 77, 64
2, 105060, Note_on_c, 0, 76, 80
2, 105114, Note_off_c, 0, 76, 64
2, 105120, Note_on_c, 0, 62, 80
2, 105120, Note_on_c, 0, 69, 80
2, 105120, Note_on_c, 0, 74, 80
2, 105336, Note_off_c, 0, 62, 64
2, 105336, Note_off_c, 0, 69, 64
2, 105336, Note_off_c, 0, 74, 64
2, 105360, Note_on_c, 0, 60, 80
2, 105360, Note_on_c, 0, 72, 80
2, 105576, Note_off_c, 0, 60, 64
2, 105576, Note_off_c, 0, 72, 64
2, 105600, Note_on_c, 0, 79, 80
2, 105600, Note_on_c, 0, 74, 80
2, 105600, Note_on_c, 0, 67, 80
2, 105816, Note_off_c, 0, 79, 64
2, 105816, Note_off_c, 0, 74, 64
2, 105816, Note_off_c, 0, 67, 64
2, 105840, Note_on_c, 0, 81, 80
2, 105840, Note_on_c, 0, 69, 80
2, 106056, Note_off_c, 0, 81, 64
2, 106056, Note_off_c, 0, 69, 64
2, 106080, Note_on_c, 0, 74, 80
2, 106080, Note_on_c, 0, 62, 80
2, 106188, Note_off_c, 0, 74, 64
2, 106188, Note_off_c, 0, 62, 64
2, 106200, Note_on_c, 0, 72, 80
2, 106308, Note_off_c, 0, 72, 64
2, 106320, Note_on_c, 0, 74, 80
2, 106428, Note_off_c, 0, 74, 64
2, 106440, Note_on_c, 0, 72, 80
2, 106548, Note_off_c, 0, 72, 64
2, 106560, Note_on_c, 0, 79, 80
2, 106560, Note_on_c, 0, 67, 80
2, 106776, Note_off_c, 0, 79, 64
2, 106776, Note_off_c, 0, 67, 64
2, 106800, Note_on_c, 0, 81, 80
2, 106800, Note_on_c, 0, 69, 80
2, 107016, Note_off_c, 0, 81, 64
2, 107016, Note_off_c, 0, 69, 64
2, 107040, Note_on_c, 0, 74, 80
2, 107040, Note_on_c, 0, 62, 80
2, 107148, Note_off_c, 0, 74, 64
2, 107148, Note_off_c, 0, 62, 64
2, 107160, Note_on_c, 0, 72, 80
2, 107268, Note_off_c, 0, 72, 64
2, 107280, Note_on_c, 0, 74, 80
2, 107388, Note_off_c, 0, 74, 64
2, 107400, Note_on_c, 0, 72, 80
2, 107465, Note_on_c, 0, 77, 80
2, 107508, Note_off_c, 0, 72, 64
2, 107519, Note_off_c, 0, 77, 64
2, 107520, Note_on_c, 0, 79, 80
2, 107520, Note_on_c, 0, 67, 80
2, 107736, Note_off_c, 0, 79, 64
2, 107736, Note_off_c, 0, 67, 64
2, 107760, Note_on_c, 0, 81, 80
2, 107760, Note_on_c, 0, 69, 80
2, 107976, Note_off_c, 0, 81, 64
2, 107976, Note_off_c, 0, 69, 64
2, 108000, Note_on_c, 0, 84, 80
2, 108000, Note_on_c, 0, 72, 80
2, 108216, Note_off_c, 0, 84, 64
2, 108216, Note_off_c, 0, 72, 64
2, 108240, Note_on_c, 0, 89, 80
2, 108240, Note_on_c, 0, 77, 80
2, 108456, Note_off_c, 0, 89, 64
2, 108456, Note_off_c, 0, 77, 64
2, 108480, Note_on_c, 0, 88, 80
2, 108480, Note_on_c, 0, 84, 80
2, 108480, Note_on_c, 0, 76, 80
2, 108588, Note_off_c, 0, 88, 64
2, 108588, Note_off_c, 0, 84, 64
2, 108588, Note_off_c, 0, 76, 64
2, 108600, Note_on_c, 0, 89, 80
2, 108600, Note_on_c, 0, 77, 80
2, 108708, Note_off_c, 0, 89, 64
2, 108708, Note_off_c, 0, 77, 64
2, 108720, Note_on_c, 0, 88, 80
2, 108720, Note_on_c, 0, 76, 80
2, 108828, Note_off_c, 0, 88, 64
2, 108828, Note_off_c, 0, 76, 64
2, 108840, Note_on_c, 0, 86, 80
2, 108840, Note_on_c, 0, 74, 80
2, 108948, Note_off_c, 0, 86, 64
2, 108948, Note_off_c, 0, 74, 64
2, 108960, Note_on_c, 0, 84, 80
2, 108960, Note_on_c, 0, 81, 80
2, 108960, Note_on_c, 0, 72, 80
2, 109176, Note_off_c, 0, 84, 64
2, 109176, Note_off_c, 0, 81, 64
2, 109176, Note_off_c, 0, 72, 64
2, 109200, Note_on_c, 0, 81, 80
2, 109200, Note_on_c, 0, 69, 80
2, 109416, Note_off_c, 0, 81, 64
2, 109416, Note_off_c, 0, 69, 64
2, 109440, Note_on_c, 0, 79, 80
2, 109440, Note_on_c, 0, 74, 80
2, 109440, Note_on_c, 0, 67, 80
2, 109656, Note_off_c, 0, 79, 64
2, 109656, Note_off_c, 0, 74, 64
2, 109656, Note_off_c, 0, 67, 64
2, 109680, Note_on_c, 0, 81, 80
2, 109680, Note_on_c, 0, 69, 80
2, 109896, Note_off_c, 0, 81, 64
2, 109896, Note_off_c, 0, 69, 64
2, 109920, Note_on_c, 0, 74, 80
2, 109920, Note_on_c, 0, 62, 80
2, 110028, Note_off_c, 0, 74, 64
2, 110028, Note_off_c, 0, 62, 64
2, 110040, Note_on_c, 0, 72, 80
2, 110148, Note_off_c, 0, 72, 64
2, 110160, Note_on_c, 0, 74, 80
2, 110268, Note_off_c, 0, 74, 64
2, 110280, Note_on_c, 0, 72, 80
2, 110388, Note_off_c, 0, 72, 64
2, 110400, Note_on_c, 0, 79, 80
2, 110400, Note_on_c, 0, 67, 80
2, 110616, Note_off_c, 0, 79, 64
2, 110616, Note_off_c, 0, 67, 64
2, 110640, Note_on_c, 0, 81, 80
2, 110640, Note_on_c, 0, 69, 80
2, 110856, Note_off_c, 0, 81, 64
2, 110856, Note_off_c, 0, 69, 64
2, 110880, Note_on_c, 0, 74, 80
2, 110880, Note_on_c, 0, 62, 80
2, 110988, Note_off_c, 0, 74, 64
2, 110988, Note_off_c, 0, 62, 64
2, 111000, Note_on_c, 0, 72, 80
2, 111108, Note_off_c, 0, 72, 64
2, 111120, Note_on_c, 0, 74, 80
2, 111228, Note_off_c, 0, 74, 64
2, 111240, Note_on_c, 0, 72, 80
2, 111348, Note_off_c, 0, 72, 64
2, 111360, Note_on_c, 0, 79, 80
2, 111360, Note_on_c, 0, 74, 80
2, 111360, Note_on_c, 0, 67, 80
2, 111576, Note_off_c, 0, 79, 64
2, 111576, Note_off_c, 0, 74, 64
2, 111576, Note_off_c, 0, 67, 64
2, 111600, Note_on_c, 0, 81, 80
2, 111600, Note_on_c, 0, 69, 80
2, 111816, Note_off_c, 0, 81, 64
2, 111816, Note_off_c, 0, 69, 64
2, 111840, Note_on_c, 0, 74, 80
2, 111840, Note_on_c, 0, 62, 80
2, 111948, Note_off_c, 0, 74, 64
2, 111948, Note_off_c, 0, 62, 64
2, 111960, Note_on_c, 0, 72, 80
2, 112068, Note_off_c, 0, 72, 64
2, 112080, Note_on_c, 0, 74, 80
2, 112188, Note_off_c, 0, 74, 64
2, 112200, Note_on_c, 0, 72, 80
2, 112290, Note_on_c, 0, 69, 80
2, 112308, Note_off_c, 0, 72, 64
2, 112312, Note_on_c, 0, 74, 80
2, 112335, Note_on_c, 0, 76, 80
2, 112357, Note_on_c, 0, 77, 80
2, 112506, Note_off_c, 0, 69, 64
2, 112528, Note_off_c, 0, 74, 64
2, 112551, Note_off_c, 0, 76, 64
2, 112560, Note_on_c, 0, 76, 80
2, 112560, Note_on_c, 0, 64, 80
2, 112573, Note_off_c, 0, 77, 64
2, 112668, Note_off_c, 0, 76, 64
2, 112668, Note_off_c, 0, 64, 64
2, 112680, Note_on_c, 0, 77, 80
2, 112734, Note_off_c, 0, 77, 64
2, 112740, Note_on_c, 0, 76, 80
2, 112794, Note_off_c, 0, 76, 64
2, 112800, Note_on_c, 0, 62, 80
2, 112800, Note_on_c, 0, 69, 80
2, 112800, Note_on_c, 0, 74, 80
2, 113016, Note_off_c, 0, 62, 64
2, 113016, Note_off_c, 0, 69, 64
2, 113016, Note_off_c, 0, 74, 64
2, 113040, Note_on_c, 0, 60, 80
2, 113040, Note_on_c, 0, 72, 80
2, 113256, Note_off_c, 0, 60, 64
2, 113256, Note_off_c, 0, 72, 64
2, 113280, Note_on_c, 0, 79, 80
2, 113280, Note_on_c, 0, 74, 80
2, 113280, Note_on_c, 0, 67, 80
2, 113388, Note_off_c, 0, 79, 64
2, 113388, Note_off_c, 0, 74, 64
2, 113388, Note_off_c, 0, 67, 64
2, 113400, Note_on_c, 0, 77, 80
2, 113400, Note_on_c, 0, 65, 80
2, 113508, Note_off_c, 0, 77, 64
2, 113508, Note_off_c, 0, 65, 64
2, 113520, Note_on_c, 0, 81, 80
2, 113520, Note_on_c, 0, 69, 80
2, 113628, Note_off_c, 0, 81, 64
2, 113628, Note_off_c, 0, 69, 64
2, 113640, Note_on_c, 0, 84, 80
2, 113640, Note_on_c, 0, 72, 80
2, 113748, Note_off_c, 0, 84, 64
2, 113748, Note_off_c, 0, 72, 64
2, 113760, Note_on_c, 0, 86, 80
2, 113760, Note_on_c, 0, 74, 80
2, 113868, Note_off_c, 0, 86, 64
2, 113868, Note_off_c, 0, 74, 64
2, 113880, Note_on_c, 0, 84, 80
2, 113880, Note_on_c, 0, 72, 80
2, 113988, Note_off_c, 0, 84, 64
2, 113988, Note_off_c, 0, 72, 64
2, 114000, Note_on_c, 0, 81, 80
2, 114000, Note_on_c, 0, 69, 80
2, 114108, Note_off_c, 0, 81, 64
2, 114108, Note_off_c, 0, 69, 64
2, 114120, Note_on_c, 0, 79, 80
2, 114120, Note_on_c, 0, 67, 80
2, 114228, Note_off_c, 0, 79, 64
2, 114228, Note_off_c, 0, 67, 64
2, 114240, Note_on_c, 0, 74, 80
2, 114240, Note_on_c, 0, 62, 80
2, 114456, Note_off_c, 0, 74, 64
2, 114456, Note_off_c, 0, 62, 64
2, 114480, Note_on_c, 0, 77, 80
2, 114480, Note_on_c, 0, 72, 80
2, 114480, Note_on_c, 0, 65, 80
2, 114696, Note_off_c, 0, 77, 64
2, 114696, Note_off_c, 0, 72, 64
2, 114696, Note_off_c, 0, 65, 64
2, 114720, Note_on_c, 0, 79, 80
2, 114720, Note_on_c, 0, 67, 80
2, 114936, Note_off_c, 0, 79, 64
2, 114936, Note_off_c, 0, 67, 64
2, 114960, Note_on_c, 0, 81, 80
2, 114960, Note_on_c, 0, 74, 80
2, 114960, Note_on_c, 0, 69, 80
2, 115176, Note_off_c, 0, 81, 64
2, 115176, Note_off_c, 0, 74, 64
2, 115176, Note_off_c, 0, 69, 64
2, 115200, Note_on_c, 0, 65, 80
2, 115200, Note_on_c, 0, 69, 80
2, 115200, Note_on_c, 0, 74, 80
2, 115308, Note_off_c, 0, 65, 64
2, 115308, Note_off_c, 0, 69, 64
2, 115308, Note_off_c, 0, 74, 64
2, 115320, Note_on_c, 0, 62, 68
2, 115428, Note_off_c, 0, 62, 64
2, 115440, Note_on_c, 0, 62, 68
2, 115548, Note_off_c, 0, 62, 64
2, 115560, Note_on_c, 0, 65, 80
2, 115560, Note_on_c, 0, 69, 80
2, 115560, Note_on_c, 0, 74, 80
2, 115668, Note_off_c, 0, 65, 64
2, 115668, Note_off_c, 0, 69, 64
2, 115668, Note_off_c, 0, 74, 64
2, 115680, Note_on_c, 0, 62, 68
2, 115788, Note_off_c, 0, 62, 64
2, 115800, Note_on_c, 0, 62, 68
2, 115908, Note_off_c, 0, 62, 64
2, 115920, Note_on_c, 0, 65, 80
2, 115920, Note_on_c, 0, 69, 80
2, 115920, Note_on_c, 0, 72, 80
2, 116028, Note_off_c, 0, 65, 64
2, 116028, Note_off_c, 0, 69, 64
2, 116028, Note_off_c, 0, 72, 64
2, 116040, Note_on_c, 0, 62, 68
2, 116148, Note_off_c, 0, 62, 64
2, 116160, Note_on_c, 0, 62, 80
2, 116160, Note_on_c, 0, 65, 80
2, 116160, Note_on_c, 0, 69, 80
2, 116160, Note_on_c, 0, 74, 80
2, 117024, Note_off_c, 0, 62, 64
2, 117024, Note_off_c, 0, 65, 64
2, 117024, Note_off_c, 0, 69, 64
2, 117024, Note_off_c, 0, 74, 64
2, 117120, Note_on_c, 0, 53, 80
2, 117120, Note_on_c, 0, 57, 80
2, 117120, Note_on_c, 0, 62, 80
2, 117552, Note_off_c, 0, 53, 64
2, 117552, Note_off_c, 0, 57, 64
2, 117552, Note_off_c, 0, 62, 64
2, 117600, Note_on_c, 0, 53, 80
2, 117600, Note_on_c, 0, 57, 80
2, 117600, Note_on_c, 0, 62, 80
2, 117924, Note_off_c, 0, 53, 64
2, 117924, Note_off_c, 0, 57, 64
2, 117924, Note_off_c, 0, 62, 64
2, 117960, Note_on_c, 0, 53, 80
2, 117960, Note_on_c, 0, 57, 80
2, 117960, Note_on_c, 0, 60, 80
2, 118068, Note_off_c, 0, 53, 64
2, 118068, Note_off_c, 0, 57, 64
2, 118068, Note_off_c, 0, 60, 64
2, 118080, Note_on_c, 0, 62, 80
2, 118200, Note_off_c, 0, 62, 64
2, 118200, Note_on_c, 0, 53, 80
2, 118200, Note_on_c, 0, 57, 80
2, 118308, Note_off_c, 0, 53, 64
2, 118308, Note_off_c, 0, 57, 64
2, 118320, Note_on_c, 0, 62, 80
2, 118320, Note_on_c, 0, 65, 80
2, 118536, Note_off_c, 0, 62, 64
2, 118536, Note_off_c, 0, 65, 64
2, 118560, Note_on_c, 0, 62, 80
2, 118560, Note_on_c, 0, 65, 80
2, 118776, Note_off_c, 0, 62, 64
2, 118776, Note_off_c, 0, 65, 64
2, 118800, Note_on_c, 0, 64, 80
2, 118800, Note_on_c, 0, 67, 80
2, 119016, Note_off_c, 0, 64, 64
2, 119016, Note_off_c, 0, 67, 64
2, 119040, Note_on_c, 0, 53, 80
2, 119040, Note_on_c, 0, 58, 80
2, 119040, Note_on_c, 0, 62, 80
2, 119472, Note_off_c, 0, 53, 64
2, 119472, Note_off_c, 0, 58, 64
2, 119472, Note_off_c, 0, 62, 64
2, 119520, Note_on_c, 0, 53, 80
2, 119520, Note_on_c, 0, 58, 80
2, 119520, Note_on_c, 0, 62, 80
2, 119844, Note_off_c, 0, 53, 64
2, 119844, Note_off_c, 0, 58, 64
2, 119844, Note_off_c, 0, 62, 64
2, 119880, Note_on_c, 0, 60, 80
2, 119988, Note_off_c, 0, 60, 64
2, 120000, Note_on_c, 0, 52, 80
2, 120000, Note_on_c, 0, 55, 80
2, 120000, Note_on_c, 0, 62, 80
2, 120216, Note_off_c, 0, 52, 64
2, 120216, Note_off_c, 0, 55, 64
2, 120216, Note_off_c, 0, 62, 64
2, 120240, Note_on_c, 0, 52, 80
2, 120240, Note_on_c, 0, 55, 80
2, 120240, Note_on_c, 0, 60, 80
2, 120456, Note_off_c, 0, 52, 64
2, 120456, Note_off_c, 0, 55, 64
2, 120456, Note_off_c, 0, 60, 64
2, 120480, Note_on_c, 0, 52, 80
2, 120480, Note_on_c, 0, 57, 80
2, 120696, Note_off_c, 0, 52, 64
2, 120696, Note_off_c, 0, 57, 64
2, 120720, Note_on_c, 0, 60, 80
2, 120936, Note_off_c, 0, 60, 64
2, 120960, Note_on_c, 0, 53, 80
2, 120960, Note_on_c, 0, 57, 80
2, 120960, Note_on_c, 0, 62, 80
2, 121392, Note_off_c, 0, 53, 64
2, 121392, Note_off_c, 0, 57, 64
2, 121392, Note_off_c, 0, 62, 64
2, 121440, Note_on_c, 0, 53, 80
2, 121440, Note_on_c, 0, 57, 80
2, 121440, Note_on_c, 0, 62, 80
2, 121764, Note_off_c, 0, 53, 64
2, 121764, Note_off_c, 0, 57, 64
2, 121764, Note_off_c, 0, 62, 64
2, 121800, Note_on_c, 0, 53, 80
2, 121800, Note_on_c, 0, 57, 80
2, 121800, Note_on_c, 0, 60, 80
2, 121908, Note_off_c, 0, 53, 64
2, 121908, Note_off_c, 0, 57, 64
2, 121908, Note_off_c, 0, 60, 64
2, 121920, Note_on_c, 0, 62, 80
2, 122040, Note_off_c, 0, 62, 64
2, 122040, Note_on_c, 0, 53, 80
2, 122040, Note_on_c, 0, 57, 80
2, 122148, Note_off_c, 0, 53, 64
2, 122148, Note_off_c, 0, 57, 64
2, 122160, Note_on_c, 0, 62, 80
2, 122160, Note_on_c, 0, 65, 80
2, 122376, Note_off_c, 0, 62, 64
2, 122376, Note_off_c, 0, 65, 64
2, 122400, Note_on_c, 0, 64, 80
2, 122400, Note_on_c, 0, 67, 80
2, 122616, Note_off_c, 0, 64, 64
2, 122616, Note_off_c, 0, 67, 64
2, 122640, Note_on_c, 0, 65, 80
2, 122640, Note_on_c, 0, 69, 80
2, 122856, Note_off_c, 0, 65, 64
2, 122856, Note_off_c, 0, 69, 64
2, 122880, Note_on_c, 0, 58, 80
2, 122880, Note_on_c, 0, 62, 80
2, 122880, Note_on_c, 0, 69, 80
2, 123312, Note_off_c, 0, 58, 64
2, 123312, Note_off_c, 0, 62, 64
2, 123312, Note_off_c, 0, 69, 64
2, 123360, Note_on_c, 0, 58, 80
2, 123360, Note_on_c, 0, 62, 80
2, 123360, Note_on_c, 0, 67, 80
2, 123576, Note_off_c, 0, 58, 64
2, 123576, Note_off_c, 0, 62, 64
2, 123576, Note_off_c, 0, 67, 64
2, 123600, Note_on_c, 0, 69, 80
2, 123708, Note_off_c, 0, 69, 64
2, 123720, Note_on_c, 0, 67, 80
2, 123828, Note_off_c, 0, 67, 64
2, 123840, Note_on_c, 0, 55, 80
2, 123840, Note_on_c, 0, 60, 80
2, 123840, Note_on_c, 0, 65, 80
2, 124272, Note_off_c, 0, 55, 64
2, 124272, Note_off_c, 0, 60, 64
2, 124272, Note_off_c, 0, 65, 64
2, 124320, Note_on_c, 0, 55, 80
2, 124320, Note_on_c, 0, 60, 80
2, 124320, Note_on_c, 0, 62, 80
2, 124752, Note_off_c, 0, 55, 64
2, 124752, Note_off_c, 0, 60, 64
2, 124752, Note_off_c, 0, 62, 64
2, 124800, Note_on_c, 0, 53, 80
2, 124800, Note_on_c, 0, 57, 80
2, 124800, Note_on_c, 0, 62, 80
2, 125160, Note_off_c, 0, 53, 64
2, 125160, Note_off_c, 0, 57, 64
2, 125160, Note_off_c, 0, 62, 64
2, 125160, Note_on_c, 0, 62, 80
2, 125268, Note_off_c, 0, 62, 64
2, 125280, Note_on_c, 0, 53, 80
2, 125280, Note_on_c, 0, 57, 80
2, 125280, Note_on_c, 0, 62, 80
2, 125604, Note_off_c, 0, 53, 64
2, 125604, Note_off_c, 0, 57, 64
2, 125604, Note_off_c, 0, 62, 64
2, 125640, Note_on_c, 0, 53, 80
2, 125640, Note_on_c, 0, 57, 80
2, 125640, Note_on_c, 0, 60, 80
2, 125748, Note_off_c, 0, 53, 64
2, 125748, Note_off_c, 0, 57, 64
2, 125748, Note_off_c, 0, 60, 64
2, 125760, Note_on_c, 0, 60, 80
2, 125880, Note_off_c, 0, 60, 64
2, 125880, Note_on_c, 0, 53, 80
2, 125880, Note_on_c, 0, 57, 80
2, 125988, Note_off_c, 0, 53, 64
2, 125988, Note_off_c, 0, 57, 64
2, 126000, Note_on_c, 0, 62, 80
2, 126216, Note_off_c, 0, 62, 64
2, 126240, Note_on_c, 0, 62, 80
2, 126240, Note_on_c, 0, 65, 80
2, 126456, Note_off_c, 0, 62, 64
2, 126456, Note_off_c, 0, 65, 64
2, 126480, Note_on_c, 0, 64, 80
2, 126480, Note_on_c, 0, 67, 80
2, 126696, Note_off_c, 0, 64, 64
2, 126696, Note_off_c, 0, 67, 64
2, 126720, Note_on_c, 0, 53, 80
2, 126720, Note_on_c, 0, 58, 80
2, 126720, Note_on_c, 0, 62, 80
2, 127044, Note_off_c, 0, 53, 64
2, 127044, Note_off_c, 0, 58, 64
2, 127044, Note_off_c, 0, 62, 64
2, 127080, Note_on_c, 0, 62, 80
2, 127188, Note_off_c, 0, 62, 64
2, 127200, Note_on_c, 0, 53, 80
2, 127200, Note_on_c, 0, 58, 80
2, 127200, Note_on_c, 0, 62, 80
2, 127416, Note_off_c, 0, 53, 64
2, 127416, Note_off_c, 0, 58, 64
2, 127416, Note_off_c, 0, 62, 64
2, 127440, Note_on_c, 0, 60, 80
2, 127656, Note_off_c, 0, 60, 64
2, 127680, Note_on_c, 0, 53, 80
2, 127680, Note_on_c, 0, 55, 80
2, 127680, Note_on_c, 0, 62, 80
2, 127896, Note_off_c, 0, 53, 64
2, 127896, Note_off_c, 0, 55, 64
2, 127896, Note_off_c, 0, 62, 64
2, 127920, Note_on_c, 0, 60, 80
2, 128136, Note_off_c, 0, 60, 64
2, 128160, Note_on_c, 0, 52, 80
2, 128160, Note_on_c, 0, 55, 80
2, 128160, Note_on_c, 0, 60, 80
2, 128376, Note_off_c, 0, 52, 64
2, 128376, Note_off_c, 0, 55, 64
2, 128376, Note_off_c, 0, 60, 64
2, 128400, Note_on_c, 0, 57, 80
2, 128616, Note_off_c, 0, 57, 64
2, 128640, Note_on_c, 0, 53, 80
2, 128640, Note_on_c, 0, 57, 80
2, 128640, Note_on_c, 0, 62, 80
2, 129000, Note_off_c, 0, 53, 64
2, 129000, Note_off_c, 0, 57, 64
2, 129000, Note_off_c, 0, 62, 64
2, 129000, Note_on_c, 0, 62, 80
2, 129108, Note_off_c, 0, 62, 64
2, 129120, Note_on_c, 0, 53, 80
2, 129120, Note_on_c, 0, 57, 80
2, 129120, Note_on_c, 0, 62, 80
2, 129336, Note_off_c, 0, 53, 64
2, 129336, Note_off_c, 0, 57, 64
2, 129336, Note_off_c, 0, 62, 64
2, 129360, Note_on_c, 0, 53, 80
2, 129360, Note_on_c, 0, 57, 80
2, 129360, Note_on_c, 0, 60, 80
2, 129576, Note_off_c, 0, 53, 64
2, 129576, Note_off_c, 0, 57, 64
2, 129576, Note_off_c, 0, 60, 64
2, 129600, Note_on_c, 0, 60, 80
2, 129720, Note_off_c, 0, 60, 64
2, 129720, Note_on_c, 0, 53, 80
2, 129720, Note_on_c, 0, 57, 80
2, 129828, Note_off_c, 0, 53, 64
2, 129828, Note_off_c, 0, 57, 64
2, 129840, Note_on_c, 0, 62, 80
2, 130056, Note_off_c, 0, 62, 64
2, 130080, Note_on_c, 0, 62, 80
2, 130080, Note_on_c, 0, 65, 80
2, 130296, Note_off_c, 0, 62, 64
2, 130296, Note_off_c, 0, 65, 64
2, 130320, Note_on_c, 0, 64, 80
2, 130320, Note_on_c, 0, 67, 80
2, 130536, Note_off_c, 0, 64, 64
2, 130536, Note_off_c, 0, 67, 64
2, 130560, Note_on_c, 0, 58, 80
2, 130560, Note_on_c, 0, 62, 80
2, 130560, Note_on_c, 0, 69, 80
2, 130992, Note_off_c, 0, 58, 64
2, 130992, Note_off_c, 0, 62, 64
2, 130992, Note_off_c, 0, 69, 64
2, 131040, Note_on_c, 0, 58, 80
2, 131040, Note_on_c, 0, 62, 80
2, 131040, Note_on_c, 0, 67, 80
2, 131256, Note_off_c, 0, 58, 64
2, 131256, Note_off_c, 0, 62, 64
2, 131256, Note_off_c, 0, 67, 64
2, 131280, Note_on_c, 0, 69, 80
2, 131388, Note_off_c, 0, 69, 64
2, 131400, Note_on_c, 0, 67, 80
2, 131508, Note_off_c, 0, 67, 64
2, 131520, Note_on_c, 0, 55, 80
2, 131520, Note_on_c, 0, 60, 80
2, 131520, Note_on_c, 0, 65, 80
2, 131952, Note_off_c, 0, 55, 64
2, 131952, Note_off_c, 0, 60, 64
2, 131952, Note_off_c, 0, 65, 64
2, 132000, Note_on_c, 0, 55, 80
2, 132000, Note_on_c, 0, 60, 80
2, 132000, Note_on_c, 0, 62, 80
2, 132432, Note_off_c, 0, 55, 64
2, 132432, Note_off_c, 0, 60, 64
2, 132432, Note_off_c, 0, 62, 64
2, 132480, Note_on_c, 0, 58, 80
2, 132480, Note_on_c, 0, 65, 80
2, 132912, Note_off_c, 0, 58, 64
2, 132912, Note_off_c, 0, 65, 64
2, 132960, Note_on_c, 0, 53, 80
2, 132960, Note_on_c, 0, 58, 80
2, 132960, Note_on_c, 0, 64, 80
2, 133392, Note_off_c, 0, 53, 64
2, 133392, Note_off_c, 0, 58, 64
2, 133392, Note_off_c, 0, 64, 64
2, 133440, Note_on_c, 0, 53, 80
2, 133440, Note_on_c, 0, 58, 80
2, 133440, Note_on_c, 0, 62, 80
2, 133872, Note_off_c, 0, 53, 64
2, 133872, Note_off_c, 0, 58, 64
2, 133872, Note_off_c, 0, 62, 64
2, 133920, Note_on_c, 0, 53, 80
2, 133920, Note_on_c, 0, 58, 80
2, 133920, Note_on_c, 0, 60, 80
2, 134352, Note_off_c, 0, 53, 64
2, 134352, Note_off_c, 0, 58, 64
2, 134352, Note_off_c, 0, 60, 64
2, 134400, Note_on_c, 0, 53, 80
2, 134400, Note_on_c, 0, 57, 80
2, 134400, Note_on_c, 0, 60, 80
2, 134616, Note_off_c, 0, 53, 64
2, 134616, Note_off_c, 0, 57, 64
2, 134616, Note_off_c, 0, 60, 64
2, 134640, Note_on_c, 0, 53, 80
2, 134640, Note_on_c, 0, 57, 80
2, 134640, Note_on_c, 0, 60, 80
2, 134748, Note_off_c, 0, 53, 64
2, 134748, Note_off_c, 0, 57, 64
2, 134748, Note_off_c, 0, 60, 64
2, 134760, Note_on_c, 0, 62, 80
2, 134868, Note_off_c, 0, 62, 64
2, 134880, Note_on_c, 0, 53, 80
2, 134880, Note_on_c, 0, 57, 80
2, 135096, Note_off_c, 0, 53, 64
2, 135096, Note_off_c, 0, 57, 64
2, 135120, Note_on_c, 0, 55, 80
2, 135336, Note_off_c, 0, 55, 64
2, 135360, Note_on_c, 0, 53, 80
2, 135360, Note_on_c, 0, 57, 80
2, 135792, Note_off_c, 0, 53, 64
2, 135792, Note_off_c, 0, 57, 64
2, 135840, Note_on_c, 0, 48, 80
2, 135840, Note_on_c, 0, 53, 80
2, 136272, Note_off_c, 0, 48, 64
2, 136272, Note_off_c, 0, 53, 64
2, 136320, Note_on_c, 0, 53, 80
2, 136320, Note_on_c, 0, 57, 80
2, 136536, Note_off_c, 0, 53, 64
2, 136536, Note_off_c, 0, 57, 64
2, 136560, Note_on_c, 0, 60, 80
2, 136776, Note_off_c, 0, 60, 64
2, 136800, Note_on_c, 0, 53, 80
2, 136800, Note_on_c, 0, 58, 80
2, 136800, Note_on_c, 0, 62, 80
2, 137232, Note_off_c, 0, 53, 64
2, 137232, Note_off_c, 0, 58, 64
2, 137232, Note_off_c, 0, 62, 64
2, 137280, Note_on_c, 0, 58, 80
2, 137280, Note_on_c, 0, 60, 80
2, 137280, Note_on_c, 0, 67, 80
2, 137712, Note_off_c, 0, 58, 64
2, 137712, Note_off_c, 0, 60, 64
2, 137712, Note_off_c, 0, 67, 64
2, 137760, Note_on_c, 0, 55, 80
2, 137760, Note_on_c, 0, 60, 80
2, 137760, Note_on_c, 0, 64, 80
2, 138192, Note_off_c, 0, 55, 64
2, 138192, Note_off_c, 0, 60, 64
2, 138192, Note_off_c, 0, 64, 64
2, 138240, Note_on_c, 0, 57, 80
2, 138240, Note_on_c, 0, 62, 80
2, 138240, Note_on_c, 0, 65, 80
2, 138456, Note_off_c, 0, 57, 64
2, 138456, Note_off_c, 0, 62, 64
2, 138456, Note_off_c, 0, 65, 64
2, 138480, Note_on_c, 0, 53, 80
2, 138696, Note_off_c, 0, 53, 64
2, 138720, Note_on_c, 0, 57, 80
2, 138720, Note_on_c, 0, 62, 80
2, 138720, Note_on_c, 0, 64, 80
2, 138828, Note_off_c, 0, 57, 64
2, 138828, Note_off_c, 0, 62, 64
2, 138828, Note_off_c, 0, 64, 64
2, 138840, Note_on_c, 0, 53, 80
2, 138948, Note_off_c, 0, 53, 64
2, 138960, Note_on_c, 0, 57, 80
2, 138960, Note_on_c, 0, 60, 80
2, 139068, Note_off_c, 0, 57, 64
2, 139068, Note_off_c, 0, 60, 64
2, 139080, Note_on_c, 0, 53, 80
2, 139188, Note_off_c, 0, 53, 64
2, 139200, Note_on_c, 0, 55, 80
2, 139200, Note_on_c, 0, 57, 80
2, 139200, Note_on_c, 0, 62, 80
2, 139416, Note_off_c, 0, 55, 64
2, 139416, Note_off_c, 0, 57, 64
2, 139416, Note_off_c, 0, 62, 64
2, 139440, Note_on_c, 0, 53, 80
2, 139656, Note_off_c, 0, 53, 64
2, 139680, Note_on_c, 0, 57, 80
2, 139896, Note_off_c, 0, 57, 64
2, 139920, Note_on_c, 0, 53, 80
2, 140136, Note_off_c, 0, 53, 64
2, 140160, Note_on_c, 0, 58, 80
2, 140160, Note_on_c, 0, 65, 80
2, 140592, Note_off_c, 0, 58, 64
2, 140592, Note_off_c, 0, 65, 64
2, 140640, Note_on_c, 0, 53, 80
2, 140640, Note_on_c, 0, 58, 80
2, 140640, Note_on_c, 0, 64, 80
2, 141072, Note_off_c, 0, 53, 64
2, 141072, Note_off_c, 0, 58, 64
2, 141072, Note_off_c, 0, 64, 64
2, 141120, Note_on_c, 0, 53, 80
2, 141120, Note_on_c, 0, 58, 80
2, 141120, Note_on_c, 0, 62, 80
2, 141552, Note_off_c, 0, 53, 64
2, 141552, Note_off_c, 0, 58, 64
2, 141552, Note_off_c, 0, 62, 64
2, 141600, Note_on_c, 0, 53, 80
2, 141600, Note_on_c, 0, 58, 80
2, 141600, Note_on_c, 0, 60, 80
2, 142032, Note_off_c, 0, 53, 64
2, 142032, Note_off_c, 0, 58, 64
2, 142032, Note_off_c, 0, 60, 64
2, 142080, Note_on_c, 0, 53, 80
2, 142080, Note_on_c, 0, 57, 80
2, 142080, Note_on_c, 0, 60, 80
2, 142296, Note_off_c, 0, 53, 64
2, 142296, Note_off_c, 0, 57, 64
2, 142296, Note_off_c, 0, 60, 64
2, 142320, Note_on_c, 0, 53, 80
2, 142320, Note_on_c, 0, 57, 80
2, 142320, Note_on_c, 0, 60, 80
2, 142428, Note_off_c, 0, 53, 64
2, 142428, Note_off_c, 0, 57, 64
2, 142428, Note_off_c, 0, 60, 64
2, 142440, Note_on_c, 0, 62, 80
2, 142548, Note_off_c, 0, 62, 64
2, 142560, Note_on_c, 0, 53, 80
2, 142560, Note_on_c, 0, 57, 80
2, 142776, Note_off_c, 0, 53, 64
2, 142776, Note_off_c, 0, 57, 64
2, 142800, Note_on_c, 0, 55, 80
2, 143016, Note_off_c, 0, 55, 64
2, 143040, Note_on_c, 0, 53, 80
2, 143040, Note_on_c, 0, 57, 80
2, 143472, Note_off_c, 0, 53, 64
2, 143472, Note_off_c, 0, 57, 64
2, 143520, Note_on_c, 0, 48, 80
2, 143520, Note_on_c, 0, 57, 80
2, 143736, Note_off_c, 0, 48, 64
2, 143736, Note_off_c, 0, 57, 64
2, 143760, Note_on_c, 0, 60, 80
2, 143976, Note_off_c, 0, 60, 64
2, 143985, Note_on_c, 0, 53, 80
2, 144000, Note_on_c, 0, 55, 80
2, 144015, Note_on_c, 0, 58, 80
2, 144030, Note_on_c, 0, 62, 80
2, 144201, Note_off_c, 0, 53, 64
2, 144216, Note_off_c, 0, 55, 64
2, 144231, Note_off_c, 0, 58, 64
2, 144240, Note_on_c, 0, 55, 80
2, 144240, Note_on_c, 0, 58, 80
2, 144240, Note_on_c, 0, 62, 80
2, 144246, Note_off_c, 0, 62, 64
2, 144672, Note_off_c, 0, 55, 64
2, 144672, Note_off_c, 0, 58, 64
2, 144672, Note_off_c, 0, 62, 64
2, 144720, Note_on_c, 0, 55, 80
2, 144720, Note_on_c, 0, 58, 80
2, 144720, Note_on_c, 0, 62, 80
2, 144936, Note_off_c, 0, 55, 64
2, 144936, Note_off_c, 0, 58, 64
2, 144936, Note_off_c, 0, 62, 64
2, 144960, Note_on_c, 0, 57, 80
2, 144960, Note_on_c, 0, 65, 80
2, 145392, Note_off_c, 0, 57, 64
2, 145392, Note_off_c, 0, 65, 64
2, 145440, Note_on_c, 0, 58, 80
2, 145440, Note_on_c, 0, 62, 80
2, 145440, Note_on_c, 0, 67, 80
2, 145872, Note_off_c, 0, 58, 64
2, 145872, Note_off_c, 0, 62, 64
2, 145872, Note_off_c, 0, 67, 64
2, 145920, Note_on_c, 0, 55, 80
2, 145920, Note_on_c, 0, 57, 80
2, 145920, Note_on_c, 0, 61, 80
2, 145920, Note_on_c, 0, 64, 80
2, 146352, Note_off_c, 0, 55, 64
2, 146352, Note_off_c, 0, 57, 64
2, 146352, Note_off_c, 0, 61, 64
2, 146352, Note_off_c, 0, 64, 64
2, 146400, Note_on_c, 0, 52, 80
2, 146400, Note_on_c, 0, 55, 80
2, 146616, Note_off_c, 0, 52, 64
2, 146616, Note_off_c, 0, 55, 64
2, 146640, Note_on_c, 0, 49, 80
2, 146640, Note_on_c, 0, 52, 80
2, 146640, Note_on_c, 0, 55, 80
2, 146640, Note_on_c, 0, 57, 80
2, 146856, Note_off_c, 0, 49, 64
2, 146856, Note_off_c, 0, 52, 64
2, 146856, Note_off_c, 0, 55, 64
2, 146856, Note_off_c, 0, 57, 64
2, 147360, Note_on_c, 0, 62, 80
2, 147576, Note_off_c, 0, 62, 64
2, 147600, Note_on_c, 0, 65, 80
2, 147816, Note_off_c, 0, 65, 64
2, 147840, Note_on_c, 0, 57, 80
2, 147840, Note_on_c, 0, 62, 80
2, 147840, Note_on_c, 0, 67, 80
2, 148164, Note_off_c, 0, 57, 64
2, 148164, Note_off_c, 0, 62, 64
2, 148164, Note_off_c, 0, 67, 64
2, 148200, Note_on_c, 0, 62, 80
2, 148200, Note_on_c, 0, 67, 80
2, 148524, Note_off_c, 0, 62, 64
2, 148524, Note_off_c, 0, 67, 64
2, 148560, Note_on_c, 0, 62, 80
2, 148560, Note_on_c, 0, 65, 80
2, 148560, Note_on_c, 0, 69, 80
2, 148776, Note_off_c, 0, 62, 64
2, 148776, Note_off_c, 0, 65, 64
2, 148776, Note_off_c, 0, 69, 64
2, 148800, Note_on_c, 0, 62, 80
2, 148800, Note_on_c, 0, 65, 80
2, 148800, Note_on_c, 0, 69, 80
2, 149448, Note_off_c, 0, 62, 64
2, 149448, Note_off_c, 0, 65, 64
2, 149448, Note_off_c, 0, 69, 64
2, 149520, Note_on_c, 0, 69, 80
2, 149736, Note_off_c, 0, 69, 64
2, 149760, Note_on_c, 0, 64, 80
2, 149760, Note_on_c, 0, 67, 80
2, 149760, Note_on_c, 0, 72, 80
2, 149976, Note_off_c, 0, 64, 64
2, 149976, Note_off_c, 0, 67, 64
2, 149976, Note_off_c, 0, 72, 64
2, 150000, Note_on_c, 0, 74, 80
2, 150216, Note_off_c, 0, 74, 64
2, 150240, Note_on_c, 0, 58, 80
2, 150240, Note_on_c, 0, 64, 80
2, 150240, Note_on_c, 0, 67, 80
2, 150456, Note_off_c, 0, 58, 64
2, 150456, Note_off_c, 0, 64, 64
2, 150456, Note_off_c, 0, 67, 64
2, 150480, Note_on_c, 0, 65, 80
2, 150696, Note_off_c, 0, 65, 64
2, 150720, Note_on_c, 0, 60, 80
2, 150720, Note_on_c, 0, 65, 80
2, 150720, Note_on_c, 0, 69, 80
2, 151152, Note_off_c, 0, 60, 64
2, 151152, Note_off_c, 0, 65, 64
2, 151152, Note_off_c, 0, 69, 64
2, 151200, Note_on_c, 0, 62, 80
2, 151416, Note_off_c, 0, 62, 64
2, 151440, Note_on_c, 0, 65, 80
2, 151656, Note_off_c, 0, 65, 64
2, 151680, Note_on_c, 0, 57, 80
2, 151680, Note_on_c, 0, 62, 80
2, 151680, Note_on_c, 0, 67, 80
2, 152004, Note_off_c, 0, 57, 64
2, 152004, Note_off_c, 0, 62, 64
2, 152004, Note_off_c, 0, 67, 64
2, 152040, Note_on_c, 0, 62, 80
2, 152040, Note_on_c, 0, 67, 80
2, 152364, Note_off_c, 0, 62, 64
2, 152364, Note_off_c, 0, 67, 64
2, 152400, Note_on_c, 0, 62, 80
2, 152400, Note_on_c, 0, 65, 80
2, 152400, Note_on_c, 0, 69, 80
2, 152616, Note_off_c, 0, 62, 64
2, 152616, Note_off_c, 0, 65, 64
2, 152616, Note_off_c, 0, 69, 64
2, 152640, Note_on_c, 0, 62, 80
2, 152640, Note_on_c, 0, 65, 80
2, 152640, Note_on_c, 0, 69, 80
2, 153288, Note_off_c, 0, 62, 64
2, 153288, Note_off_c, 0, 65, 64
2, 153288, Note_off_c, 0, 69, 64
2, 153360, Note_on_c, 0, 69, 80
2, 153576, Note_off_c, 0, 69, 64
2, 153600, Note_on_c, 0, 64, 80
2, 153600, Note_on_c, 0, 67, 80
2, 153600, Note_on_c, 0, 70, 80
2, 153816, Note_off_c, 0, 64, 64
2, 153816, Note_off_c, 0, 67, 64
2, 153816, Note_off_c, 0, 70, 64
2, 153840, Note_on_c, 0, 69, 80
2, 154056, Note_off_c, 0, 69, 64
2, 154080, Note_on_c, 0, 58, 80
2, 154080, Note_on_c, 0, 64, 80
2, 154080, Note_on_c, 0, 67, 80
2, 154296, Note_off_c, 0, 58, 64
2, 154296, Note_off_c, 0, 64, 64
2, 154296, Note_off_c, 0, 67, 64
2, 154320, Note_on_c, 0, 65, 80
2, 154536, Note_off_c, 0, 65, 64
2, 154560, Note_on_c, 0, 57, 80
2, 154560, Note_on_c, 0, 60, 80
2, 154560, Note_on_c, 0, 65, 80
2, 154992, Note_off_c, 0, 57, 64
2, 154992, Note_off_c, 0, 60, 64
2, 154992, Note_off_c, 0, 65, 64
2, 155040, Note_on_c, 0, 57, 80
2, 155040, Note_on_c, 0, 62, 80
2, 155256, Note_off_c, 0, 57, 64
2, 155256, Note_off_c, 0, 62, 64
2, 155280, Note_on_c, 0, 65, 80
2, 155496, Note_off_c, 0, 65, 64
2, 155520, Note_on_c, 0, 57, 80
2, 155520, Note_on_c, 0, 62, 80
2, 155520, Note_on_c, 0, 67, 80
2, 155844, Note_off_c, 0, 57, 64
2, 155844, Note_off_c, 0, 62, 64
2, 155844, Note_off_c, 0, 67, 64
2, 155880, Note_on_c, 0, 62, 80
2, 155880, Note_on_c, 0, 67, 80
2, 156204, Note_off_c, 0, 62, 64
2, 156204, Note_off_c, 0, 67, 64
2, 156240, Note_on_c, 0, 62, 80
2, 156240, Note_on_c, 0, 65, 80
2, 156240, Note_on_c, 0, 69, 80
2, 156456, Note_off_c, 0, 62, 64
2, 156456, Note_off_c, 0, 65, 64
2, 156456, Note_off_c, 0, 69, 64
2, 156480, Note_on_c, 0, 62, 80
2, 156480, Note_on_c, 0, 65, 80
2, 156480, Note_on_c, 0, 69, 80
2, 157128, Note_off_c, 0, 62, 64
2, 157128, Note_off_c, 0, 65, 64
2, 157128, Note_off_c, 0, 69, 64
2, 157200, Note_on_c, 0, 69, 80
2, 157416, Note_off_c, 0, 69, 64
2, 157440, Note_on_c, 0, 64, 80
2, 157440, Note_on_c, 0, 67, 80
2, 157440, Note_on_c, 0, 72, 80
2, 157656, Note_off_c, 0, 64, 64
2, 157656, Note_off_c, 0, 67, 64
2, 157656, Note_off_c, 0, 72, 64
2, 157680, Note_on_c, 0, 74, 80
2, 157896, Note_off_c, 0, 74, 64
2, 157920, Note_on_c, 0, 58, 80
2, 157920, Note_on_c, 0, 64, 80
2, 157920, Note_on_c, 0, 67, 80
2, 158136, Note_off_c, 0, 58, 64
2, 158136, Note_off_c, 0, 64, 64
2, 158136, Note_off_c, 0, 67, 64
2, 158160, Note_on_c, 0, 65, 80
2, 158376, Note_off_c, 0, 65, 64
2, 158400, Note_on_c, 0, 60, 80
2, 158400, Note_on_c, 0, 65, 80
2, 158400, Note_on_c, 0, 69, 80
2, 158832, Note_off_c, 0, 60, 64
2, 158832, Note_off_c, 0, 65, 64
2, 158832, Note_off_c, 0, 69, 64
2, 158880, Note_on_c, 0, 62, 80
2, 159096, Note_off_c, 0, 62, 64
2, 159120, Note_on_c, 0, 65, 80
2, 159336, Note_off_c, 0, 65, 64
2, 159360, Note_on_c, 0, 62, 80
2, 159360, Note_on_c, 0, 65, 80
2, 159360, Note_on_c, 0, 70, 80
2, 159792, Note_off_c, 0, 62, 64
2, 159792, Note_off_c, 0, 65, 64
2, 159792, Note_off_c, 0, 70, 64
2, 159840, Note_on_c, 0, 62, 80
2, 159840, Note_on_c, 0, 65, 80
2, 159840, Note_on_c, 0, 69, 80
2, 160272, Note_off_c, 0, 62, 64
2, 160272, Note_off_c, 0, 65, 64
2, 160272, Note_off_c, 0, 69, 64
2, 160320, Note_on_c, 0, 60, 80
2, 160320, Note_on_c, 0, 64, 80
2, 160320, Note_on_c, 0, 67, 80
2, 160752, Note_off_c, 0, 60, 64
2, 160752, Note_off_c, 0, 64, 64
2, 160752, Note_off_c, 0, 67, 64
2, 160800, Note_on_c, 0, 60, 80
2, 160800, Note_on_c, 0, 64, 80
2, 160800, Note_on_c, 0, 65, 80
2, 161232, Note_off_c, 0, 60, 64
2, 161232, Note_off_c, 0, 64, 64
2, 161232, Note_off_c, 0, 65, 64
2, 161280, Note_on_c, 0, 58, 80
2, 161280, Note_on_c, 0, 62, 80
2, 161280, Note_on_c, 0, 67, 80
2, 161496, Note_off_c, 0, 58, 64
2, 161496, Note_off_c, 0, 62, 64
2, 161496, Note_off_c, 0, 67, 64
2, 161520, Note_on_c, 0, 69, 80
2, 161736, Note_off_c, 0, 69, 64
2, 161760, Note_on_c, 0, 58, 80
2, 161760, Note_on_c, 0, 64, 80
2, 161976, Note_off_c, 0, 58, 64
2, 161976, Note_off_c, 0, 64, 64
2, 162000, Note_on_c, 0, 60, 80
2, 162216, Note_off_c, 0, 60, 64
2, 162240, Note_on_c, 0, 53, 80
2, 162240, Note_on_c, 0, 57, 80
2, 162240, Note_on_c, 0, 62, 80
2, 162672, Note_off_c, 0, 53, 64
2, 162672, Note_off_c, 0, 57, 64
2, 162672, Note_off_c, 0, 62, 64
2, 162720, Note_on_c, 0, 53, 80
2, 162720, Note_on_c, 0, 57, 80
2, 162720, Note_on_c, 0, 62, 80
2, 162936, Note_off_c, 0, 53, 64
2, 162936, Note_off_c, 0, 57, 64
2, 162936, Note_off_c, 0, 62, 64
2, 162960, Note_on_c, 0, 65, 80
2, 163176, Note_off_c, 0, 65, 64
2, 163200, Note_on_c, 0, 57, 80
2, 163200, Note_on_c, 0, 62, 80
2, 163200, Note_on_c, 0, 67, 80
2, 163524, Note_off_c, 0, 57, 64
2, 163524, Note_off_c, 0, 62, 64
2, 163524, Note_off_c, 0, 67, 64
2, 163560, Note_on_c, 0, 62, 80
2, 163560, Note_on_c, 0, 67, 80
2, 163884, Note_off_c, 0, 62, 64
2, 163884, Note_off_c, 0, 67, 64
2, 163920, Note_on_c, 0, 62, 80
2, 163920, Note_on_c, 0, 65, 80
2, 163920, Note_on_c, 0, 69, 80
2, 164136, Note_off_c, 0, 62, 64
2, 164136, Note_off_c, 0, 65, 64
2, 164136, Note_off_c, 0, 69, 64
2, 164160, Note_on_c, 0, 62, 80
2, 164160, Note_on_c, 0, 65, 80
2, 164160, Note_on_c, 0, 69, 80
2, 164808, Note_off_c, 0, 62, 64
2, 164808, Note_off_c, 0, 65, 64
2, 164808, Note_off_c, 0, 69, 64
2, 164880, Note_on_c, 0, 69, 80
2, 165096, Note_off_c, 0, 69, 64
2, 165120, Note_on_c, 0, 64, 80
2, 165120, Note_on_c, 0, 67, 80
2, 165120, Note_on_c, 0, 72, 80
2, 165336, Note_off_c, 0, 64, 64
2, 165336, Note_off_c, 0, 67, 64
2, 165336, Note_off_c, 0, 72, 64
2, 165360, Note_on_c, 0, 74, 80
2, 165576, Note_off_c, 0, 74, 64
2, 165600, Note_on_c, 0, 58, 80
2, 165600, Note_on_c, 0, 64, 80
2, 165600, Note_on_c, 0, 67, 80
2, 165816, Note_off_c, 0, 58, 64
2, 165816, Note_off_c, 0, 64, 64
2, 165816, Note_off_c, 0, 67, 64
2, 165840, Note_on_c, 0, 65, 80
2, 166056, Note_off_c, 0, 65, 64
2, 166080, Note_on_c, 0, 60, 80
2, 166080, Note_on_c, 0, 65, 80
2, 166080, Note_on_c, 0, 69, 80
2, 166512, Note_off_c, 0, 60, 64
2, 166512, Note_off_c, 0, 65, 64
2, 166512, Note_off_c, 0, 69, 64
2, 166560, Note_on_c, 0, 62, 80
2, 166776, Note_off_c, 0, 62, 64
2, 166800, Note_on_c, 0, 65, 80
2, 167016, Note_off_c, 0, 65, 64
2, 167040, Note_on_c, 0, 57, 80
2, 167040, Note_on_c, 0, 62, 80
2, 167040, Note_on_c, 0, 67, 80
2, 167364, Note_off_c, 0, 57, 64
2, 167364, Note_off_c, 0, 62, 64
2, 167364, Note_off_c, 0, 67, 64
2, 167400, Note_on_c, 0, 62, 80
2, 167400, Note_on_c, 0, 67, 80
2, 167724, Note_off_c, 0, 62, 64
2, 167724, Note_off_c, 0, 67, 64
2, 167760, Note_on_c, 0, 62, 80
2, 167760, Note_on_c, 0, 65, 80
2, 167760, Note_on_c, 0, 69, 80
2, 167976, Note_off_c, 0, 62, 64
2, 167976, Note_off_c, 0, 65, 64
2, 167976, Note_off_c, 0, 69, 64
2, 168000, Note_on_c, 0, 62, 80
2, 168000, Note_on_c, 0, 65, 80
2, 168000, Note_on_c, 0, 69, 80
2, 168648, Note_off_c, 0, 62, 64
2, 168648, Note_off_c, 0, 65, 64
2, 168648, Note_off_c, 0, 69, 64
2, 168720, Note_on_c, 0, 69, 80
2, 168936, Note_off_c, 0, 69, 64
2, 168960, Note_on_c, 0, 64, 80
2, 168960, Note_on_c, 0, 67, 80
2, 168960, Note_on_c, 0, 70, 80
2, 169176, Note_off_c, 0, 64, 64
2, 169176, Note_off_c, 0, 67, 64
2, 169176, Note_off_c, 0, 70, 64
2, 169200, Note_on_c, 0, 69, 80
2, 169416, Note_off_c, 0, 69, 64
2, 169440, Note_on_c, 0, 58, 80
2, 169440, Note_on_c, 0, 64, 80
2, 169440, Note_on_c, 0, 67, 80
2, 169656, Note_off_c, 0, 58, 64
2, 169656, Note_off_c, 0, 64, 64
2, 169656, Note_off_c, 0, 67, 64
2, 169680, Note_on_c, 0, 65, 80
2, 169896, Note_off_c, 0, 65, 64
2, 169920, Note_on_c, 0, 57, 80
2, 169920, Note_on_c, 0, 60, 80
2, 169920, Note_on_c, 0, 65, 80
2, 170352, Note_off_c, 0, 57, 64
2, 170352, Note_off_c, 0, 60, 64
2, 170352, Note_off_c, 0, 65, 64
2, 170400, Note_on_c, 0, 57, 80
2, 170400, Note_on_c, 0, 62, 80
2, 170616, Note_off_c, 0, 57, 64
2, 170616, Note_off_c, 0, 62, 64
2, 170640, Note_on_c, 0, 65, 80
2, 170856, Note_off_c, 0, 65, 64
2, 170880, Note_on_c, 0, 57, 80
2, 170880, Note_on_c, 0, 62, 80
2, 170880, Note_on_c, 0, 67, 80
2, 171204, Note_off_c, 0, 57, 64
2, 171204, Note_off_c, 0, 62, 64
2, 171204, Note_off_c, 0, 67, 64
2, 171240, Note_on_c, 0, 62, 80
2, 171240, Note_on_c, 0, 67, 80
2, 171564, Note_off_c, 0, 62, 64
2, 171564, Note_off_c, 0, 67, 64
2, 171600, Note_on_c, 0, 62, 80
2, 171600, Note_on_c, 0, 65, 80
2, 171600, Note_on_c, 0, 69, 80
2, 171816, Note_off_c, 0, 62, 64
2, 171816, Note_off_c, 0, 65, 64
2, 171816, Note_off_c, 0, 69, 64
2, 171840, Note_on_c, 0, 62, 80
2, 171840, Note_on_c, 0, 65, 80
2, 171840, Note_on_c, 0, 69, 80
2, 172488, Note_off_c, 0, 62, 64
2, 172488, Note_off_c, 0, 65, 64
2, 172488, Note_off_c, 0, 69, 64
2, 172560, Note_on_c, 0, 69, 80
2, 172776, Note_off_c, 0, 69, 64
2, 172800, Note_on_c, 0, 64, 80
2, 172800, Note_on_c, 0, 67, 80
2, 172800, Note_on_c, 0, 72, 80
2, 173016, Note_off_c, 0, 64, 64
2, 173016, Note_off_c, 0, 67, 64
2, 173016, Note_off_c, 0, 72, 64
2, 173040, Note_on_c, 0, 74, 80
2, 173256, Note_off_c, 0, 74, 64
2, 173280, Note_on_c, 0, 58, 80
2, 173280, Note_on_c, 0, 64, 80
2, 173280, Note_on_c, 0, 67, 80
2, 173496, Note_off_c, 0, 58, 64
2, 173496, Note_off_c, 0, 64, 64
2, 173496, Note_off_c, 0, 67, 64
2, 173520, Note_on_c, 0, 65, 80
2, 173736, Note_off_c, 0, 65, 64
2, 173760, Note_on_c, 0, 60, 80
2, 173760, Note_on_c, 0, 65, 80
2, 173760, Note_on_c, 0, 69, 80
2, 174192, Note_off_c, 0, 60, 64
2, 174192, Note_off_c, 0, 65, 64
2, 174192, Note_off_c, 0, 69, 64
2, 174240, Note_on_c, 0, 62, 80
2, 174456, Note_off_c, 0, 62, 64
2, 174480, Note_on_c, 0, 65, 80
2, 174696, Note_off_c, 0, 65, 64
2, 174720, Note_on_c, 0, 62, 80
2, 174720, Note_on_c, 0, 65, 80
2, 174720, Note_on_c, 0, 70, 80
2, 175152, Note_off_c, 0, 62, 64
2, 175152, Note_off_c, 0, 65, 64
2, 175152, Note_off_c, 0, 70, 64
2, 175200, Note_on_c, 0, 62, 80
2, 175200, Note_on_c, 0, 65, 80
2, 175200, Note_on_c, 0, 69, 80
2, 175632, Note_off_c, 0, 62, 64
2, 175632, Note_off_c, 0, 65, 64
2, 175632, Note_off_c, 0, 69, 64
2, 175680, Note_on_c, 0, 60, 80
2, 175680, Note_on_c, 0, 64, 80
2, 175680, Note_on_c, 0, 67, 80
2, 176112, Note_off_c, 0, 60, 64
2, 176112, Note_off_c, 0, 64, 64
2, 176112, Note_off_c, 0, 67, 64
2, 176160, Note_on_c, 0, 60, 80
2, 176160, Note_on_c, 0, 64, 80
2, 176160, Note_on_c, 0, 65, 80
2, 176592, Note_off_c, 0, 60, 64
2, 176592, Note_off_c, 0, 64, 64
2, 176592, Note_off_c, 0, 65, 64
2, 176640, Note_on_c, 0, 58, 80
2, 176640, Note_on_c, 0, 62, 80
2, 176640, Note_on_c, 0, 67, 80
2, 176856, Note_off_c, 0, 58, 64
2, 176856, Note_off_c, 0, 62, 64
2, 176856, Note_off_c, 0, 67, 64
2, 176880, Note_on_c, 0, 65, 80
2, 177096, Note_off_c, 0, 65, 64
2, 177120, Note_on_c, 0, 60, 80
2, 177120, Note_on_c, 0, 64, 80
2, 177120, Note_on_c, 0, 69, 80
2, 177336, Note_off_c, 0, 60, 64
2, 177336, Note_off_c, 0, 64, 64
2, 177336, Note_off_c, 0, 69, 64
2, 177360, Note_on_c, 0, 72, 80
2, 177576, Note_off_c, 0, 72, 64
2, 177600, Note_on_c, 0, 65, 80
2, 177600, Note_on_c, 0, 69, 80
2, 177600, Note_on_c, 0, 74, 80
2, 178032, Note_off_c, 0, 65, 64
2, 178032, Note_off_c, 0, 69, 64
2, 178032, Note_off_c, 0, 74, 64
2, 178080, Note_on_c, 0, 53, 80
2, 178080, Note_on_c, 0, 57, 80
2, 178512, Note_off_c, 0, 53, 64
2, 178512, Note_off_c, 0, 57, 64
2, 178515, Note_on_c, 0, 85, 80
2, 178560, Note_on_c, 0, 86, 80
2, 178560, Note_on_c, 0, 81, 80
2, 178569, Note_off_c, 0, 85, 64
2, 178776, Note_off_c, 0, 86, 64
2, 178776, Note_off_c, 0, 81, 64
2, 178800, Note_on_c, 0, 86, 80
2, 178800, Note_on_c, 0, 81, 80
2, 179016, Note_off_c, 0, 86, 64
2, 179016, Note_off_c, 0, 81, 64
2, 179040, Note_on_c, 0, 86, 80
2, 179040, Note_on_c, 0, 81, 80
2, 179256, Note_off_c, 0, 86, 64
2, 179256, Note_off_c, 0, 81, 64
2, 179280, Note_on_c, 0, 86, 80
2, 179280, Note_on_c, 0, 81, 80
2, 179496, Note_off_c, 0, 86, 64
2, 179496, Note_off_c, 0, 81, 64
2, 179520, Note_on_c, 0, 86, 80
2, 179520, Note_on_c, 0, 81, 80
2, 179736, Note_off_c, 0, 86, 64
2, 179736, Note_off_c, 0, 81, 64
2, 179760, Note_on_c, 0, 86, 80
2, 179760, Note_on_c, 0, 81, 80
2, 179976, Note_off_c, 0, 86, 64
2, 179976, Note_off_c, 0, 81, 64
2, 180000, Note_on_c, 0, 86, 80
2, 180000, Note_on_c, 0, 81, 80
2, 180108, Note_off_c, 0, 86, 64
2, 180108, Note_off_c, 0, 81, 64
2, 180120, Note_on_c, 0, 84, 80
2, 180228, Note_off_c, 0, 84, 64
2, 180240, Note_on_c, 0, 81, 80
2, 180435, Note_on_c, 0, 77, 80
2, 180456, Note_off_c, 0, 81, 64
2, 180480, Note_on_c, 0, 79, 80
2, 180480, Note_on_c, 0, 74, 80
2, 180489, Note_off_c, 0, 77, 64
2, 180696, Note_off_c, 0, 79, 64
2, 180696, Note_off_c, 0, 74, 64
2, 180720, Note_on_c, 0, 79, 80
2, 180720, Note_on_c, 0, 74, 80
2, 180936, Note_off_c, 0, 79, 64
2, 180936, Note_off_c, 0, 74, 64
2, 180960, Note_on_c, 0, 79, 80
2, 180960, Note_on_c, 0, 74, 80
2, 181176, Note_off_c, 0, 79, 64
2, 181176, Note_off_c, 0, 74, 64
2, 181200, Note_on_c, 0, 79, 80
2, 181200, Note_on_c, 0, 74, 80
2, 181416, Note_off_c, 0, 79, 64
2, 181416, Note_off_c, 0, 74, 64
2, 181440, Note_on_c, 0, 79, 80
2, 181440, Note_on_c, 0, 74, 80
2, 181656, Note_off_c, 0, 79, 64
2, 181656, Note_off_c, 0, 74, 64
2, 181680, Note_on_c, 0, 79, 80
2, 181680, Note_on_c, 0, 74, 80
2, 181896, Note_off_c, 0, 79, 64
2, 181896, Note_off_c, 0, 74, 64
2, 181920, Note_on_c, 0, 79, 80
2, 181920, Note_on_c, 0, 74, 80
2, 182028, Note_off_c, 0, 79, 64
2, 182028, Note_off_c, 0, 74, 64
2, 182040, Note_on_c, 0, 77, 80
2, 182148, Note_off_c, 0, 77, 64
2, 182160, Note_on_c, 0, 74, 80
2, 182376, Note_off_c, 0, 74, 64
2, 182400, Note_on_c, 0, 74, 80
2, 182400, Note_on_c, 0, 69, 80
2, 182616, Note_off_c, 0, 74, 64
2, 182616, Note_off_c, 0, 69, 64
2, 182640, Note_on_c, 0, 74, 80
2, 182640, Note_on_c, 0, 69, 80
2, 182856, Note_off_c, 0, 74, 64
2, 182856, Note_off_c, 0, 69, 64
2, 182880, Note_on_c, 0, 74, 80
2, 182880, Note_on_c, 0, 73, 80
2, 182880, Note_on_c, 0, 69, 80
2, 183096, Note_off_c, 0, 74, 64
2, 183096, Note_off_c, 0, 73, 64
2, 183096, Note_off_c, 0, 69, 64
2, 183120, Note_on_c, 0, 74, 80
2, 183120, Note_on_c, 0, 69, 80
2, 183336, Note_off_c, 0, 74, 64
2, 183336, Note_off_c, 0, 69, 64
2, 183360, Note_on_c, 0, 74, 80
2, 183360, Note_on_c, 0, 69, 80
2, 183576, Note_off_c, 0, 74, 64
2, 183576, Note_off_c, 0, 69, 64
2, 183600, Note_on_c, 0, 74, 80
2, 183600, Note_on_c, 0, 69, 80
2, 183816, Note_off_c, 0, 74, 64
2, 183816, Note_off_c, 0, 69, 64
2, 183840, Note_on_c, 0, 74, 80
2, 183840, Note_on_c, 0, 69, 80
2, 183948, Note_off_c, 0, 74, 64
2, 183948, Note_off_c, 0, 69, 64
2, 183960, Note_on_c, 0, 72, 80
2, 184068, Note_off_c, 0, 72, 64
2, 184080, Note_on_c, 0, 69, 80
2, 184296, Note_off_c, 0, 69, 64
2, 184320, Note_on_c, 0, 67, 80
2, 184536, Note_off_c, 0, 67, 64
2, 184560, Note_on_c, 0, 69, 80
2, 184668, Note_off_c, 0, 69, 64
2, 184680, Note_on_c, 0, 67, 80
2, 184788, Note_off_c, 0, 67, 64
2, 184800, Note_on_c, 0, 69, 80
2, 184908, Note_off_c, 0, 69, 64
2, 184920, Note_on_c, 0, 72, 80
2, 185028, Note_off_c, 0, 72, 64
2, 185040, Note_on_c, 0, 73, 80
2, 185148, Note_off_c, 0, 73, 64
2, 185160, Note_on_c, 0, 74, 80
2, 185268, Note_off_c, 0, 74, 64
2, 185280, Note_on_c, 0, 76, 80
2, 185388, Note_off_c, 0, 76, 64
2, 185400, Note_on_c, 0, 79, 80
2, 185454, Note_off_c, 0, 79, 64
2, 185460, Note_on_c, 0, 81, 80
2, 185514, Note_off_c, 0, 81, 64
2, 185520, Note_on_c, 0, 86, 80
2, 185628, Note_off_c, 0, 86, 64
2, 185640, Note_on_c, 0, 89, 80
2, 185748, Note_off_c, 0, 89, 64
2, 185760, Note_on_c, 0, 88, 80
2, 185760, Note_on_c, 0, 76, 80
2, 185976, Note_off_c, 0, 88, 64
2, 185976, Note_off_c, 0, 76, 64
2, 186000, Note_on_c, 0, 86, 80
2, 186000, Note_on_c, 0, 74, 80
2, 186108, Note_off_c, 0, 86, 64
2, 186108, Note_off_c, 0, 74, 64
2, 186120, Note_on_c, 0, 88, 80
2, 186120, Note_on_c, 0, 76, 80
2, 186228, Note_off_c, 0, 88, 64
2, 186228, Note_off_c, 0, 76, 64
2, 186240, Note_on_c, 0, 81, 80
2, 186348, Note_off_c, 0, 81, 64
2, 186360, Note_on_c, 0, 77, 80
2, 186468, Note_off_c, 0, 77, 64
2, 186480, Note_on_c, 0, 74, 80
2, 186588, Note_off_c, 0, 74, 64
2, 186600, Note_on_c, 0, 81, 80
2, 186828, Note_off_c, 0, 81, 64
2, 186840, Note_on_c, 0, 81, 80
2, 186948, Note_off_c, 0, 81, 64
2, 186960, Note_on_c, 0, 77, 80
2, 187068, Note_off_c, 0, 77, 64
2, 187080, Note_on_c, 0, 74, 80
2, 187188, Note_off_c, 0, 74, 64
2, 187200, Note_on_c, 0, 81, 80
2, 187308, Note_off_c, 0, 81, 64
2, 187320, Note_on_c, 0, 77, 80
2, 187428, Note_off_c, 0, 77, 64
2, 187440, Note_on_c, 0, 74, 80
2, 187548, Note_off_c, 0, 74, 64
2, 187560, Note_on_c, 0, 81, 80
2, 187788, Note_off_c, 0, 81, 64
2, 187800, Note_on_c, 0, 81, 80
2, 187908, Note_off_c, 0, 81, 64
2, 187920, Note_on_c, 0, 77, 80
2, 188028, Note_off_c, 0, 77, 64
2, 188040, Note_on_c, 0, 74, 80
2, 188148, Note_off_c, 0, 74, 64
2, 188160, Note_on_c, 0, 82, 80
2, 188268, Note_off_c, 0, 82, 64
2, 188280, Note_on_c, 0, 79, 80
2, 188388, Note_off_c, 0, 79, 64
2, 188400, Note_on_c, 0, 75, 80
2, 188508, Note_off_c, 0, 75, 64
2, 188520, Note_on_c, 0, 82, 80
2, 188748, Note_off_c, 0, 82, 64
2, 188760, Note_on_c, 0, 82, 80
2, 188868, Note_off_c, 0, 82, 64
2, 188880, Note_on_c, 0, 79, 80
2, 188988, Note_off_c, 0, 79, 64
2, 189000, Note_on_c, 0, 75, 80
2, 189108, Note_off_c, 0, 75, 64
2, 189120, Note_on_c, 0, 82, 80
2, 189228, Note_off_c, 0, 82, 64
2, 189240, Note_on_c, 0, 79, 80
2, 189348, Note_off_c, 0, 79, 64
2, 189360, Note_on_c, 0, 75, 80
2, 189468, Note_off_c, 0, 75, 64
2, 189480, Note_on_c, 0, 82, 80
2, 189708, Note_off_c, 0, 82, 64
2, 189720, Note_on_c, 0, 82, 80
2, 189828, Note_off_c, 0, 82, 64
2, 189840, Note_on_c, 0, 79, 80
2, 189948, Note_off_c, 0, 79, 64
2, 189960, Note_on_c, 0, 75, 80
2, 190068, Note_off_c, 0, 75, 64
2, 190080, Note_on_c, 0, 82, 80
2, 190188, Note_off_c, 0, 82, 64
2, 190200, Note_on_c, 0, 77, 80
2, 190308, Note_off_c, 0, 77, 64
2, 190320, Note_on_c, 0, 74, 80
2, 190428, Note_off_c, 0, 74, 64
2, 190440, Note_on_c, 0, 82, 80
2, 190668, Note_off_c, 0, 82, 64
2, 190680, Note_on_c, 0, 82, 80
2, 190788, Note_off_c, 0, 82, 64
2, 190800, Note_on_c, 0, 77, 80
2, 190908, Note_off_c, 0, 77, 64
2, 190920, Note_on_c, 0, 74, 80
2, 191028, Note_off_c, 0, 74, 64
2, 191040, Note_on_c, 0, 82, 80
2, 191148, Note_off_c, 0, 82, 64
2, 191160, Note_on_c, 0, 77, 80
2, 191268, Note_off_c, 0, 77, 64
2, 191280, Note_on_c, 0, 74, 80
2, 191388, Note_off_c, 0, 74, 64
2, 191400, Note_on_c, 0, 82, 80
2, 191628, Note_off_c, 0, 82, 64
2, 191640, Note_on_c, 0, 82, 80
2, 191748, Note_off_c, 0, 82, 64
2, 191760, Note_on_c, 0, 77, 80
2, 191868, Note_off_c, 0, 77, 64
2, 191880, Note_on_c, 0, 74, 80
2, 191988, Note_off_c, 0, 74, 64
2, 192000, Note_on_c, 0, 79, 80
2, 192108, Note_off_c, 0, 79, 64
2, 192120, Note_on_c, 0, 76, 80
2, 192228, Note_off_c, 0, 76, 64
2, 192240, Note_on_c, 0, 72, 80
2, 192348, Note_off_c, 0, 72, 64
2, 192360, Note_on_c, 0, 79, 80
2, 192588, Note_off_c, 0, 79, 64
2, 192600, Note_on_c, 0, 79, 80
2, 192708, Note_off_c, 0, 79, 64
2, 192720, Note_on_c, 0, 76, 80
2, 192828, Note_off_c, 0, 76, 64
2, 192840, Note_on_c, 0, 72, 80
2, 192948, Note_off_c, 0, 72, 64
2, 192960, Note_on_c, 0, 81, 80
2, 193068, Note_off_c, 0, 81, 64
2, 193080, Note_on_c, 0, 76, 80
2, 193188, Note_off_c, 0, 76, 64
2, 193200, Note_on_c, 0, 73, 80
2, 193308, Note_off_c, 0, 73, 64
2, 193320, Note_on_c, 0, 81, 80
2, 193548, Note_off_c, 0, 81, 64
2, 193560, Note_on_c, 0, 81, 80
2, 193668, Note_off_c, 0, 81, 64
2, 193680, Note_on_c, 0, 76, 80
2, 193788, Note_off_c, 0, 76, 64
2, 193800, Note_on_c, 0, 73, 80
2, 193908, Note_off_c, 0, 73, 64
2, 193920, Note_on_c, 0, 81, 80
2, 194028, Note_off_c, 0, 81, 64
2, 194040, Note_on_c, 0, 77, 80
2, 194148, Note_off_c, 0, 77, 64
2, 194160, Note_on_c, 0, 74, 80
2, 194268, Note_off_c, 0, 74, 64
2, 194280, Note_on_c, 0, 81, 80
2, 194388, Note_off_c, 0, 81, 64
2, 194400, Note_on_c, 0, 86, 80
2, 194508, Note_off_c, 0, 86, 64
2, 194520, Note_on_c, 0, 81, 80
2, 194628, Note_off_c, 0, 81, 64
2, 194640, Note_on_c, 0, 77, 80
2, 194748, Note_off_c, 0, 77, 64
2, 194760, Note_on_c, 0, 74, 80
2, 194868, Note_off_c, 0, 74, 64
2, 194880, Note_on_c, 0, 79, 80
2, 194988, Note_off_c, 0, 79, 64
2, 195000, Note_on_c, 0, 77, 80
2, 195108, Note_off_c, 0, 77, 64
2, 195120, Note_on_c, 0, 74, 80
2, 195228, Note_off_c, 0, 74, 64
2, 195240, Note_on_c, 0, 81, 80
2, 195348, Note_off_c, 0, 81, 64
2, 195360, Note_on_c, 0, 89, 80
2, 195440, Note_off_c, 0, 89, 64
2, 195440, Note_on_c, 0, 88, 80
2, 195520, Note_off_c, 0, 88, 64
2, 195520, Note_on_c, 0, 86, 80
2, 195600, Note_off_c, 0, 86, 64
2, 195600, Note_on_c, 0, 81, 80
2, 195708, Note_off_c, 0, 81, 64
2, 195720, Note_on_c, 0, 77, 80
2, 195828, Note_off_c, 0, 77, 64
2, 195840, Note_on_c, 0, 82, 80
2, 195948, Note_off_c, 0, 82, 64
2, 195960, Note_on_c, 0, 79, 80
2, 196068, Note_off_c, 0, 79, 64
2, 196080, Note_on_c, 0, 75, 80
2, 196188, Note_off_c, 0, 75, 64
2, 196200, Note_on_c, 0, 82, 80
2, 196254, Note_off_c, 0, 82, 64
2, 196260, Note_on_c, 0, 86, 80
2, 196314, Note_off_c, 0, 86, 64
2, 196320, Note_on_c, 0, 87, 80
2, 196428, Note_off_c, 0, 87, 64
2, 196440, Note_on_c, 0, 82, 80
2, 196548, Note_off_c, 0, 82, 64
2, 196560, Note_on_c, 0, 79, 80
2, 196668, Note_off_c, 0, 79, 64
2, 196680, Note_on_c, 0, 75, 80
2, 196788, Note_off_c, 0, 75, 64
2, 196800, Note_on_c, 0, 82, 80
2, 196908, Note_off_c, 0, 82, 64
2, 196920, Note_on_c, 0, 79, 80
2, 197028, Note_off_c, 0, 79, 64
2, 197040, Note_on_c, 0, 75, 80
2, 197148, Note_off_c, 0, 75, 64
2, 197160, Note_on_c, 0, 82, 80
2, 197268, Note_off_c, 0, 82, 64
2, 197280, Note_on_c, 0, 91, 80
2, 197360, Note_off_c, 0, 91, 64
2, 197360, Note_on_c, 0, 89, 80
2, 197440, Note_off_c, 0, 89, 64
2, 197440, Note_on_c, 0, 87, 80
2, 197520, Note_off_c, 0, 87, 64
2, 197520, Note_on_c, 0, 82, 80
2, 197628, Note_off_c, 0, 82, 64
2, 197640, Note_on_c, 0, 79, 80
2, 197748, Note_off_c, 0, 79, 64
2, 197760, Note_on_c, 0, 86, 80
2, 197868, Note_off_c, 0, 86, 64
2, 197880, Note_on_c, 0, 82, 80
2, 197988, Note_off_c, 0, 82, 64
2, 198000, Note_on_c, 0, 77, 80
2, 198108, Note_off_c, 0, 77, 64
2, 198120, Note_on_c, 0, 82, 80
2, 198174, Note_off_c, 0, 82, 64
2, 198180, Note_on_c, 0, 88, 80
2, 198234, Note_off_c, 0, 88, 64
2, 198240, Note_on_c, 0, 89, 80
2, 198348, Note_off_c, 0, 89, 64
2, 198360, Note_on_c, 0, 82, 80
2, 198468, Note_off_c, 0, 82, 64
2, 198480, Note_on_c, 0, 86, 80
2, 198588, Note_off_c, 0, 86, 64
2, 198600, Note_on_c, 0, 89, 80
2, 198708, Note_off_c, 0, 89, 64
2, 198720, Note_on_c, 0, 94, 80
2, 198828, Note_off_c, 0, 94, 64
2, 198840, Note_on_c, 0, 89, 80
2, 198948, Note_off_c, 0, 89, 64
2, 198960, Note_on_c, 0, 86, 80
2, 199068, Note_off_c, 0, 86, 64
2, 199080, Note_on_c, 0, 82, 80
2, 199188, Note_off_c, 0, 82, 64
2, 199200, Note_on_c, 0, 82, 80
2, 199308, Note_off_c, 0, 82, 64
2, 199320, Note_on_c, 0, 79, 80
2, 199428, Note_off_c, 0, 79, 64
2, 199440, Note_on_c, 0, 77, 80
2, 199548, Note_off_c, 0, 77, 64
2, 199560, Note_on_c, 0, 74, 80
2, 199668, Note_off_c, 0, 74, 64
2, 199680, Note_on_c, 0, 60, 80
2, 199896, Note_off_c, 0, 60, 64
2, 199920, Note_on_c, 0, 64, 80
2, 200028, Note_off_c, 0, 64, 64
2, 200040, Note_on_c, 0, 72, 80
2, 200148, Note_off_c, 0, 72, 64
2, 200160, Note_on_c, 0, 70, 80
2, 200376, Note_off_c, 0, 70, 64
2, 200400, Note_on_c, 0, 72, 80
2, 200508, Note_off_c, 0, 72, 64
2, 200520, Note_on_c, 0, 74, 80
2, 200628, Note_off_c, 0, 74, 64
2, 200640, Note_on_c, 0, 64, 80
2, 200748, Note_off_c, 0, 64, 64
2, 200760, Note_on_c, 0, 67, 80
2, 200868, Note_off_c, 0, 67, 64
2, 200880, Note_on_c, 0, 69, 80
2, 200988, Note_off_c, 0, 69, 64
2, 201000, Note_on_c, 0, 74, 80
2, 201108, Note_off_c, 0, 74, 64
2, 201120, Note_on_c, 0, 81, 80
2, 201188, Note_off_c, 0, 81, 64
2, 201188, Note_on_c, 0, 82, 80
2, 201256, Note_off_c, 0, 82, 64
2, 201257, Note_on_c, 0, 84, 80
2, 201325, Note_off_c, 0, 84, 64
2, 201325, Note_on_c, 0, 86, 80
2, 201393, Note_off_c, 0, 86, 64
2, 201394, Note_on_c, 0, 88, 80
2, 201462, Note_off_c, 0, 88, 64
2, 201462, Note_on_c, 0, 89, 80
2, 201530, Note_off_c, 0, 89, 64
2, 201531, Note_on_c, 0, 91, 80
2, 201599, Note_off_c, 0, 91, 64
2, 201600, Note_on_c, 0, 93, 80
2, 201696, Note_off_c, 0, 93, 64
2, 201696, Note_on_c, 0, 91, 80
2, 201792, Note_off_c, 0, 91, 64
2, 201792, Note_on_c, 0, 93, 80
2, 201888, Note_off_c, 0, 93, 64
2, 201888, Note_on_c, 0, 89, 80
2, 201984, Note_off_c, 0, 89, 64
2, 201984, Note_on_c, 0, 93, 80
2, 202080, Note_off_c, 0, 93, 64
2, 202080, Note_on_c, 0, 91, 80
2, 202176, Note_off_c, 0, 91, 64
2, 202176, Note_on_c, 0, 93, 80
2, 202272, Note_off_c, 0, 93, 64
2, 202272, Note_on_c, 0, 89, 80
2, 202368, Note_off_c, 0, 89, 64
2, 202368, Note_on_c, 0, 88, 80
2, 202464, Note_off_c, 0, 88, 64
2, 202464, Note_on_c, 0, 86, 80
2, 202560, Note_off_c, 0, 86, 64
2, 202560, Note_on_c, 0, 91, 80
2, 202656, Note_off_c, 0, 91, 64
2, 202656, Note_on_c, 0, 89, 80
2, 202752, Note_off_c, 0, 89, 64
2, 202752, Note_on_c, 0, 91, 80
2, 202848, Note_off_c, 0, 91, 64
2, 202848, Note_on_c, 0, 88, 80
2, 202944, Note_off_c, 0, 88, 64
2, 202944, Note_on_c, 0, 86, 80
2, 203040, Note_off_c, 0, 86, 64
2, 203040, Note_on_c, 0, 86, 80
2, 203120, Note_off_c, 0, 86, 64
2, 203120, Note_on_c, 0, 84, 80
2, 203200, Note_off_c, 0, 84, 64
2, 203200, Note_on_c, 0, 86, 80
2, 203280, Note_off_c, 0, 86, 64
2, 203280, Note_on_c, 0, 81, 80
2, 203360, Note_off_c, 0, 81, 64
2, 203360, Note_on_c, 0, 79, 80
2, 203440, Note_off_c, 0, 79, 64
2, 203440, Note_on_c, 0, 81, 80
2, 203520, Note_off_c, 0, 81, 64
2, 203520, Note_on_c, 0, 77, 80
2, 203616, Note_off_c, 0, 77, 64
2, 203616, Note_on_c, 0, 81, 80
2, 203712, Note_off_c, 0, 81, 64
2, 203712, Note_on_c, 0, 79, 80
2, 203808, Note_off_c, 0, 79, 64
2, 203808, Note_on_c, 0, 77, 80
2, 203904, Note_off_c, 0, 77, 64
2, 203904, Note_on_c, 0, 79, 80
2, 204000, Note_off_c, 0, 79, 64
2, 204000, Note_on_c, 0, 77, 80
2, 204080, Note_off_c, 0, 77, 64
2, 204080, Note_on_c, 0, 79, 80
2, 204160, Note_off_c, 0, 79, 64
2, 204160, Note_on_c, 0, 77, 80
2, 204240, Note_off_c, 0, 77, 64
2, 204240, Note_on_c, 0, 79, 80
2, 204320, Note_off_c, 0, 79, 64
2, 204320, Note_on_c, 0, 81, 80
2, 204400, Note_off_c, 0, 81, 64
2, 204400, Note_on_c, 0, 79, 80
2, 204480, Note_off_c, 0, 79, 64
2, 204480, Note_on_c, 0, 74, 80
2, 205200, Note_off_c, 0, 74, 64
2, 205200, Note_on_c, 0, 58, 80
2, 205280, Note_off_c, 0, 58, 64
2, 205280, Note_on_c, 0, 60, 80
2, 205360, Note_off_c, 0, 60, 64
2, 205360, Note_on_c, 0, 61, 80
2, 205440, Note_off_c, 0, 61, 64
2, 205440, Note_on_c, 0, 62, 80
2, 205548, Note_off_c, 0, 62, 64
2, 205560, Note_on_c, 0, 64, 80
2, 205668, Note_off_c, 0, 64, 64
2, 205680, Note_on_c, 0, 65, 80
2, 205788, Note_off_c, 0, 65, 64
2, 205800, Note_on_c, 0, 62, 80
2, 205860, Note_off_c, 0, 62, 64
2, 205860, Note_on_c, 0, 64, 80
2, 205908, Note_off_c, 0, 64, 64
2, 205920, Note_on_c, 0, 65, 80
2, 206028, Note_off_c, 0, 65, 64
2, 206040, Note_on_c, 0, 62, 80
2, 206148, Note_off_c, 0, 62, 64
2, 206160, Note_on_c, 0, 69, 80
2, 206268, Note_off_c, 0, 69, 64
2, 206280, Note_on_c, 0, 62, 80
2, 206388, Note_off_c, 0, 62, 64
2, 206400, Note_on_c, 0, 67, 80
2, 206508, Note_off_c, 0, 67, 64
2, 206520, Note_on_c, 0, 69, 80
2, 206628, Note_off_c, 0, 69, 64
2, 206640, Note_on_c, 0, 67, 80
2, 206748, Note_off_c, 0, 67, 64
2, 206760, Note_on_c, 0, 74, 80
2, 206814, Note_off_c, 0, 74, 64
2, 206820, Note_on_c, 0, 76, 80
2, 206874, Note_off_c, 0, 76, 64
2, 206880, Note_on_c, 0, 77, 80
2, 206988, Note_off_c, 0, 77, 64
2, 207000, Note_on_c, 0, 76, 80
2, 207108, Note_off_c, 0, 76, 64
2, 207120, Note_on_c, 0, 74, 80
2, 207228, Note_off_c, 0, 74, 64
2, 207240, Note_on_c, 0, 77, 80
2, 207305, Note_on_c, 0, 80, 80
2, 207348, Note_off_c, 0, 77, 64
2, 207359, Note_off_c, 0, 80, 64
2, 207360, Note_on_c, 0, 81, 80
2, 207360, Note_on_c, 0, 74, 80
2, 207552, Note_off_c, 0, 81, 64
2, 207552, Note_off_c, 0, 74, 64
2, 207552, Note_on_c, 0, 81, 80
2, 207552, Note_on_c, 0, 74, 80
2, 207744, Note_off_c, 0, 81, 64
2, 207744, Note_off_c, 0, 74, 64
2, 207744, Note_on_c, 0, 84, 80
2, 207744, Note_on_c, 0, 81, 80
2, 207744, Note_on_c, 0, 80, 80
2, 207744, Note_on_c, 0, 74, 80
2, 207936, Note_off_c, 0, 84, 64
2, 207936, Note_off_c, 0, 80, 64
2, 207936, Note_off_c, 0, 74, 64
2, 207936, Note_on_c, 0, 81, 80
2, 207936, Note_on_c, 0, 80, 80
2, 207936, Note_on_c, 0, 74, 80
2, 207960, Note_off_c, 0, 81, 64
2, 208128, Note_off_c, 0, 81, 64
2, 208128, Note_off_c, 0, 74, 64
2, 208128, Note_on_c, 0, 84, 80
2, 208128, Note_on_c, 0, 81, 80
2, 208128, Note_on_c, 0, 80, 80
2, 208128, Note_on_c, 0, 74, 80
2, 208152, Note_off_c, 0, 80, 64
2, 209040, Note_off_c, 0, 84, 64
2, 209040, Note_off_c, 0, 81, 64
2, 209040, Note_off_c, 0, 80, 64
2, 209040, Note_off_c, 0, 74, 64
2, 209040, Note_on_c, 0, 53, 80
2, 209040, Note_on_c, 0, 57, 80
2, 209040, Note_on_c, 0, 62, 80
2, 209256, Note_off_c, 0, 53, 64
2, 209256, Note_off_c, 0, 57, 64
2, 209256, Note_off_c, 0, 62, 64
2, 209280, Note_on_c, 0, 62, 80
2, 209388, Note_off_c, 0, 62, 64
2, 209400, Note_on_c, 0, 62, 80
2, 209508, Note_off_c, 0, 62, 64
2, 209520, Note_on_c, 0, 60, 80
2, 209628, Note_off_c, 0, 60, 64
2, 209640, Note_on_c, 0, 60, 80
2, 209748, Note_off_c, 0, 60, 64
2, 209760, Note_on_c, 0, 67, 80
2, 209868, Note_off_c, 0, 67, 64
2, 209880, Note_on_c, 0, 67, 80
2, 209988, Note_off_c, 0, 67, 64
2, 210000, Note_on_c, 0, 65, 80
2, 210108, Note_off_c, 0, 65, 64
2, 210120, Note_on_c, 0, 65, 80
2, 210228, Note_off_c, 0, 65, 64
2, 210240, Note_on_c, 0, 69, 80
2, 210348, Note_off_c, 0, 69, 64
2, 210360, Note_on_c, 0, 69, 80
2, 210468, Note_off_c, 0, 69, 64
2, 210480, Note_on_c, 0, 67, 80
2, 210588, Note_off_c, 0, 67, 64
2, 210600, Note_on_c, 0, 67, 80
2, 210708, Note_off_c, 0, 67, 64
2, 210720, Note_on_c, 0, 74, 80
2, 210828, Note_off_c, 0, 74, 64
2, 210840, Note_on_c, 0, 74, 80
2, 210948, Note_off_c, 0, 74, 64
2, 210960, Note_on_c, 0, 72, 80
2, 211068, Note_off_c, 0, 72, 64
2, 211080, Note_on_c, 0, 72, 80
2, 211188, Note_off_c, 0, 72, 64
2, 211200, Note_on_c, 0, 79, 80
2, 211308, Note_off_c, 0, 79, 64
2, 211320, Note_on_c, 0, 79, 80
2, 211428, Note_off_c, 0, 79, 64
2, 211440, Note_on_c, 0, 77, 80
2, 211548, Note_off_c, 0, 77, 64
2, 211560, Note_on_c, 0, 77, 80
2, 211668, Note_off_c, 0, 77, 64
2, 211680, Note_on_c, 0, 86, 80
2, 211680, Note_on_c, 0, 81, 80
2, 211680, Note_on_c, 0, 74, 80
2, 211840, Note_off_c, 0, 86, 64
2, 211840, Note_on_c, 0, 85, 80
2, 211840, Note_on_c, 0, 81, 80
2, 211840, Note_on_c, 0, 73, 80
2, 211896, Note_off_c, 0, 81, 64
2, 211896, Note_off_c, 0, 74, 64
2, 212000, Note_off_c, 0, 85, 64
2, 212000, Note_on_c, 0, 84, 80
2, 212000, Note_on_c, 0, 81, 80
2, 212000, Note_on_c, 0, 72, 80
2, 212056, Note_off_c, 0, 81, 64
2, 212056, Note_off_c, 0, 73, 64
2, 212160, Note_off_c, 0, 84, 64
2, 212160, Note_on_c, 0, 72, 80
2, 212200, Note_on_c, 0, 76, 80
2, 212216, Note_off_c, 0, 81, 64
2, 212216, Note_off_c, 0, 72, 64
2, 212240, Note_on_c, 0, 77, 80
2, 212280, Note_on_c, 0, 81, 80
2, 212320, Note_on_c, 0, 84, 80
2, 213024, Note_off_c, 0, 72, 64
2, 213064, Note_off_c, 0, 76, 64
2, 213104, Note_off_c, 0, 77, 64
2, 213120, Note_on_c, 0, 77, 80
2, 213120, Note_on_c, 0, 70, 80
2, 213144, Note_off_c, 0, 81, 64
2, 213184, Note_off_c, 0, 84, 64
2, 213336, Note_off_c, 0, 77, 64
2, 213336, Note_off_c, 0, 70, 64
2, 213360, Note_on_c, 0, 74, 80
2, 213468, Note_off_c, 0, 74, 64
2, 213480, Note_on_c, 0, 70, 80
2, 213588, Note_off_c, 0, 70, 64
2, 213600, Note_on_c, 0, 65, 80
2, 213708, Note_off_c, 0, 65, 64
2, 213720, Note_on_c, 0, 70, 80
2, 213828, Note_off_c, 0, 70, 64
2, 213840, Note_on_c, 0, 74, 80
2, 213948, Note_off_c, 0, 74, 64
2, 213960, Note_on_c, 0, 77, 80
2, 214068, Note_off_c, 0, 77, 64
2, 214080, Note_on_c, 0, 79, 80
2, 214188, Note_off_c, 0, 79, 64
2, 214200, Note_on_c, 0, 76, 80
2, 214308, Note_off_c, 0, 76, 64
2, 214320, Note_on_c, 0, 72, 80
2, 214428, Note_off_c, 0, 72, 64
2, 214440, Note_on_c, 0, 67, 80
2, 214548, Note_off_c, 0, 67, 64
2, 214560, Note_on_c, 0, 67, 80
2, 214668, Note_off_c, 0, 67, 64
2, 214680, Note_on_c, 0, 72, 80
2, 214788, Note_off_c, 0, 72, 64
2, 214800, Note_on_c, 0, 76, 80
2, 214908, Note_off_c, 0, 76, 64
2, 214920, Note_on_c, 0, 79, 80
2, 215028, Note_off_c, 0, 79, 64
2, 215040, Note_on_c, 0, 81, 80
2, 215040, Note_on_c, 0, 77, 80
2, 215040, Note_on_c, 0, 74, 80
2, 215040, Note_on_c, 0, 69, 80
2, 215364, Note_off_c, 0, 81, 64
2, 215364, Note_off_c, 0, 77, 64
2, 215364, Note_off_c, 0, 74, 64
2, 215364, Note_off_c, 0, 69, 64
2, 215400, Note_on_c, 0, 80, 80
2, 215400, Note_on_c, 0, 74, 80
2, 215400, Note_on_c, 0, 69, 80
2, 215724, Note_off_c, 0, 80, 64
2, 215724, Note_off_c, 0, 74, 64
2, 215724, Note_off_c, 0, 69, 64
2, 215760, Note_on_c, 0, 81, 80
2, 215760, Note_on_c, 0, 74, 80
2, 215760, Note_on_c, 0, 69, 80
2, 215868, Note_off_c, 0, 81, 64
2, 215868, Note_off_c, 0, 74, 64
2, 215868, Note_off_c, 0, 69, 64
2, 215880, Note_on_c, 0, 80, 80
2, 215880, Note_on_c, 0, 74, 80
2, 215880, Note_on_c, 0, 69, 80
2, 215988, Note_off_c, 0, 80, 64
2, 215988, Note_off_c, 0, 74, 64
2, 215988, Note_off_c, 0, 69, 64
2, 216000, Note_on_c, 0, 81, 80
2, 216000, Note_on_c, 0, 77, 80
2, 216000, Note_on_c, 0, 74, 80
2, 216000, Note_on_c, 0, 69, 80
2, 216864, Note_off_c, 0, 81, 64
2, 216864, Note_off_c, 0, 77, 64
2, 216864, Note_off_c, 0, 74, 64
2, 216864, Note_off_c, 0, 69, 64
2, 216960, Note_on_c, 0, 58, 80
2, 216960, Note_on_c, 0, 65, 80
2, 217392, Note_off_c, 0, 58, 64
2, 217392, Note_off_c, 0, 65, 64
2, 217440, Note_on_c, 0, 53, 80
2, 217440, Note_on_c, 0, 58, 80
2, 217440, Note_on_c, 0, 64, 80
2, 217872, Note_off_c, 0, 53, 64
2, 217872, Note_off_c, 0, 58, 64
2, 217872, Note_off_c, 0, 64, 64
2, 217920, Note_on_c, 0, 53, 80
2, 217920, Note_on_c, 0, 58, 80
2, 217920, Note_on_c, 0, 62, 80
2, 218352, Note_off_c, 0, 53, 64
2, 218352, Note_off_c, 0, 58, 64
2, 218352, Note_off_c, 0, 62, 64
2, 218400, Note_on_c, 0, 53, 80
2, 218400, Note_on_c, 0, 58, 80
2, 218400, Note_on_c, 0, 60, 80
2, 218832, Note_off_c, 0, 53, 64
2, 218832, Note_off_c, 0, 58, 64
2, 218832, Note_off_c, 0, 60, 64
2, 218880, Note_on_c, 0, 53, 80
2, 218880, Note_on_c, 0, 57, 80
2, 218880, Note_on_c, 0, 60, 80
2, 219096, Note_off_c, 0, 53, 64
2, 219096, Note_off_c, 0, 57, 64
2, 219096, Note_off_c, 0, 60, 64
2, 219120, Note_on_c, 0, 53, 80
2, 219120, Note_on_c, 0, 57, 80
2, 219120, Note_on_c, 0, 60, 80
2, 219228, Note_off_c, 0, 53, 64
2, 219228, Note_off_c, 0, 57, 64
2, 219228, Note_off_c, 0, 60, 64
2, 219240, Note_on_c, 0, 62, 80
2, 219348, Note_off_c, 0, 62, 64
2, 219360, Note_on_c, 0, 53, 80
2, 219360, Note_on_c, 0, 57, 80
2, 219576, Note_off_c, 0, 53, 64
2, 219576, Note_off_c, 0, 57, 64
2, 219600, Note_on_c, 0, 55, 80
2, 219816, Note_off_c, 0, 55, 64
2, 219840, Note_on_c, 0, 53, 80
2, 219840, Note_on_c, 0, 57, 80
2, 220272, Note_off_c, 0, 53, 64
2, 220272, Note_off_c, 0, 57, 64
2, 220320, Note_on_c, 0, 48, 80
2, 220320, Note_on_c, 0, 53, 80
2, 220752, Note_off_c, 0, 48, 64
2, 220752, Note_off_c, 0, 53, 64
2, 220800, Note_on_c, 0, 53, 80
2, 220800, Note_on_c, 0, 57, 80
2, 221016, Note_off_c, 0, 53, 64
2, 221016, Note_off_c, 0, 57, 64
2, 221040, Note_on_c, 0, 60, 80
2, 221256, Note_off_c, 0, 60, 64
2, 221280, Note_on_c, 0, 53, 80
2, 221280, Note_on_c, 0, 58, 80
2, 221280, Note_on_c, 0, 62, 80
2, 221712, Note_off_c, 0, 53, 64
2, 221712, Note_off_c, 0, 58, 64
2, 221712, Note_off_c, 0, 62, 64
2, 221760, Note_on_c, 0, 58, 80
2, 221760, Note_on_c, 0, 60, 80
2, 221760, Note_on_c, 0, 67, 80
2, 222192, Note_off_c, 0, 58, 64
2, 222192, Note_off_c, 0, 60, 64
2, 222192, Note_off_c, 0, 67, 64
2, 222240, Note_on_c, 0, 55, 80
2, 222240, Note_on_c, 0, 60, 80
2, 222240, Note_on_c, 0, 64, 80
2, 222672, Note_off_c, 0, 55, 64
2, 222672, Note_off_c, 0, 60, 64
2, 222672, Note_off_c, 0, 64, 64
2, 222720, Note_on_c, 0, 57, 80
2, 222720, Note_on_c, 0, 62, 80
2, 222720, Note_on_c, 0, 65, 80
2, 222936, Note_off_c, 0, 57, 64
2, 222936, Note_off_c, 0, 62, 64
2, 222936, Note_off_c, 0, 65, 64
2, 222960, Note_on_c, 0, 53, 80
2, 223176, Note_off_c, 0, 53, 64
2, 223200, Note_on_c, 0, 57, 80
2, 223200, Note_on_c, 0, 62, 80
2, 223200, Note_on_c, 0, 64, 80
2, 223308, Note_off_c, 0, 57, 64
2, 223308, Note_off_c, 0, 62, 64
2, 223308, Note_off_c, 0, 64, 64
2, 223320, Note_on_c, 0, 53, 80
2, 223428, Note_off_c, 0, 53, 64
2, 223440, Note_on_c, 0, 57, 80
2, 223440, Note_on_c, 0, 60, 80
2, 223548, Note_off_c, 0, 57, 64
2, 223548, Note_off_c, 0, 60, 64
2, 223560, Note_on_c, 0, 53, 80
2, 223668, Note_off_c, 0, 53, 64
2, 223680, Note_on_c, 0, 55, 80
2, 223680, Note_on_c, 0, 57, 80
2, 223680, Note_on_c, 0, 62, 80
2, 223896, Note_off_c, 0, 55, 64
2, 223896, Note_off_c, 0, 57, 64
2, 223896, Note_off_c, 0, 62, 64
2, 223920, Note_on_c, 0, 53, 80
2, 224136, Note_off_c, 0, 53, 64
2, 224160, Note_on_c, 0, 57, 80
2, 224376, Note_off_c, 0, 57, 64
2, 224400, Note_on_c, 0, 53, 80
2, 224616, Note_off_c, 0, 53, 64
2, 224640, Note_on_c, 0, 58, 80
2, 224640, Note_on_c, 0, 65, 80
2, 225072, Note_off_c, 0, 58, 64
2, 225072, Note_off_c, 0, 65, 64
2, 225120, Note_on_c, 0, 53, 80
2, 225120, Note_on_c, 0, 58, 80
2, 225120, Note_on_c, 0, 64, 80
2, 225552, Note_off_c, 0, 53, 64
2, 225552, Note_off_c, 0, 58, 64
2, 225552, Note_off_c, 0, 64, 64
2, 225600, Note_on_c, 0, 53, 80
2, 225600, Note_on_c, 0, 58, 80
2, 225600, Note_on_c, 0, 62, 80
2, 226032, Note_off_c, 0, 53, 64
2, 226032, Note_off_c, 0, 58, 64
2, 226032, Note_off_c, 0, 62, 64
2, 226080, Note_on_c, 0, 53, 80
2, 226080, Note_on_c, 0, 58, 80
2, 226080, Note_on_c, 0, 60, 80
2, 226512, Note_off_c, 0, 53, 64
2, 226512, Note_off_c, 0, 58, 64
2, 226512, Note_off_c, 0, 60, 64
2, 226560, Note_on_c, 0, 53, 80
2, 226560, Note_on_c, 0, 57, 80
2, 226560, Note_on_c, 0, 60, 80
2, 226776, Note_off_c, 0, 53, 64
2, 226776, Note_off_c, 0, 57, 64
2, 226776, Note_off_c, 0, 60, 64
2, 226800, Note_on_c, 0, 53, 80
2, 226800, Note_on_c, 0, 57, 80
2, 226800, Note_on_c, 0, 60, 80
2, 226908, Note_off_c, 0, 53, 64
2, 226908, Note_off_c, 0, 57, 64
2, 226908, Note_off_c, 0, 60, 64
2, 226920, Note_on_c, 0, 62, 80
2, 227028, Note_off_c, 0, 62, 64
2, 227040, Note_on_c, 0, 53, 80
2, 227040, Note_on_c, 0, 57, 80
2, 227256, Note_off_c, 0, 53, 64
2, 227256, Note_off_c, 0, 57, 64
2, 227280, Note_on_c, 0, 55, 80
2, 227496, Note_off_c, 0, 55, 64
2, 227520, Note_on_c, 0, 53, 80
2, 227520, Note_on_c, 0, 57, 80
2, 227952, Note_off_c, 0, 53, 64
2, 227952, Note_off_c, 0, 57, 64
2, 228000, Note_on_c, 0, 48, 80
2, 228000, Note_on_c, 0, 57, 80
2, 228216, Note_off_c, 0, 48, 64
2, 228216, Note_off_c, 0, 57, 64
2, 228240, Note_on_c, 0, 60, 80
2, 228456, Note_off_c, 0, 60, 64
2, 228465, Note_on_c, 0, 53, 80
2, 228480, Note_on_c, 0, 55, 80
2, 228495, Note_on_c, 0, 58, 80
2, 228510, Note_on_c, 0, 62, 80
2, 228681, Note_off_c, 0, 53, 64
2, 228696, Note_off_c, 0, 55, 64
2, 228711, Note_off_c, 0, 58, 64
2, 228720, Note_on_c, 0, 55, 80
2, 228720, Note_on_c, 0, 58, 80
2, 228720, Note_on_c, 0, 62, 80
2, 228726, Note_off_c, 0, 62, 64
2, 229152, Note_off_c, 0, 55, 64
2, 229152, Note_off_c, 0, 58, 64
2, 229152, Note_off_c, 0, 62, 64
2, 229200, Note_on_c, 0, 55, 80
2, 229200, Note_on_c, 0, 58, 80
2, 229200, Note_on_c, 0, 62, 80
2, 229416, Note_off_c, 0, 55, 64
2, 229416, Note_off_c, 0, 58, 64
2, 229416, Note_off_c, 0, 62, 64
2, 229440, Note_on_c, 0, 57, 80
2, 229440, Note_on_c, 0, 65, 80
2, 229872, Note_off_c, 0, 57, 64
2, 229872, Note_off_c, 0, 65, 64
2, 229920, Note_on_c, 0, 58, 80
2, 229920, Note_on_c, 0, 62, 80
2, 229920, Note_on_c, 0, 67, 80
2, 230352, Note_off_c, 0, 58, 64
2, 230352, Note_off_c, 0, 62, 64
2, 230352, Note_off_c, 0, 67, 64
2, 230400, Note_on_c, 0, 55, 80
2, 230400, Note_on_c, 0, 57, 80
2, 230400, Note_on_c, 0, 61, 80
2, 230400, Note_on_c, 0, 64, 80
2, 230832, Note_off_c, 0, 55, 64
2, 230832, Note_off_c, 0, 57, 64
2, 230832, Note_off_c, 0, 61, 64
2, 230832, Note_off_c, 0, 64, 64
2, 230880, Note_on_c, 0, 52, 80
2, 230880, Note_on_c, 0, 55, 80
2, 231096, Note_off_c, 0, 52, 64
2, 231096, Note_off_c, 0, 55, 64
2, 231120, Note_on_c, 0, 49, 80
2, 231120, Note_on_c, 0, 52, 80
2, 231120, Note_on_c, 0, 55, 80
2, 231120, Note_on_c, 0, 57, 80
2, 231336, Note_off_c, 0, 49, 64
2, 231336, Note_off_c, 0, 52, 64
2, 231336, Note_off_c, 0, 55, 64
2, 231336, Note_off_c, 0, 57, 64
2, 231840, Note_on_c, 0, 62, 80
2, 232056, Note_off_c, 0, 62, 64
2, 232080, Note_on_c, 0, 65, 80
2, 232296, Note_off_c, 0, 65, 64
2, 232320, Note_on_c, 0, 67, 80
2, 232680, Note_off_c, 0, 67, 64
2, 232680, Note_on_c, 0, 67, 80
2, 233040, Note_off_c, 0, 67, 64
2, 233040, Note_on_c, 0, 69, 80
2, 233256, Note_off_c, 0, 69, 64
2, 233280, Note_on_c, 0, 69, 80
2, 234000, Note_off_c, 0, 69, 64
2, 234000, Note_on_c, 0, 69, 80
2, 234216, Note_off_c, 0, 69, 64
2, 234240, Note_on_c, 0, 72, 80
2, 234456, Note_off_c, 0, 72, 64
2, 234480, Note_on_c, 0, 74, 80
2, 234696, Note_off_c, 0, 74, 64
2, 234720, Note_on_c, 0, 67, 80
2, 234936, Note_off_c, 0, 67, 64
2, 234960, Note_on_c, 0, 65, 80
2, 235176, Note_off_c, 0, 65, 64
2, 235200, Note_on_c, 0, 69, 80
2, 235632, Note_off_c, 0, 69, 64
2, 235680, Note_on_c, 0, 62, 80
2, 235896, Note_off_c, 0, 62, 64
2, 235920, Note_on_c, 0, 65, 80
2, 236136, Note_off_c, 0, 65, 64
2, 236160, Note_on_c, 0, 67, 80
2, 236520, Note_off_c, 0, 67, 64
2, 236520, Note_on_c, 0, 67, 80
2, 236880, Note_off_c, 0, 67, 64
2, 236880, Note_on_c, 0, 69, 80
2, 237096, Note_off_c, 0, 69, 64
2, 237120, Note_on_c, 0, 69, 80
2, 237840, Note_off_c, 0, 69, 64
2, 237840, Note_on_c, 0, 69, 80
2, 238056, Note_off_c, 0, 69, 64
2, 238080, Note_on_c, 0, 70, 80
2, 238296, Note_off_c, 0, 70, 64
2, 238320, Note_on_c, 0, 69, 80
2, 238536, Note_off_c, 0, 69, 64
2, 238560, Note_on_c, 0, 67, 80
2, 238776, Note_off_c, 0, 67, 64
2, 238800, Note_on_c, 0, 65, 80
2, 239016, Note_off_c, 0, 65, 64
2, 239040, Note_on_c, 0, 65, 80
2, 239472, Note_off_c, 0, 65, 64
2, 239520, Note_on_c, 0, 62, 80
2, 239736, Note_off_c, 0, 62, 64
2, 239760, Note_on_c, 0, 65, 80
2, 239976, Note_off_c, 0, 65, 64
2, 240000, Note_on_c, 0, 67, 80
2, 240360, Note_off_c, 0, 67, 64
2, 240360, Note_on_c, 0, 67, 80
2, 240720, Note_off_c, 0, 67, 64
2, 240720, Note_on_c, 0, 69, 80
2, 240936, Note_off_c, 0, 69, 64
2, 240960, Note_on_c, 0, 69, 80
2, 241680, Note_off_c, 0, 69, 64
2, 241680, Note_on_c, 0, 69, 80
2, 241896, Note_off_c, 0, 69, 64
2, 241920, Note_on_c, 0, 72, 80
2, 242136, Note_off_c, 0, 72, 64
2, 242160, Note_on_c, 0, 74, 80
2, 242376, Note_off_c, 0, 74, 64
2, 242400, Note_on_c, 0, 67, 80
2, 242616, Note_off_c, 0, 67, 64
2, 242640, Note_on_c, 0, 65, 80
2, 242856, Note_off_c, 0, 65, 64
2, 242880, Note_on_c, 0, 69, 80
2, 243312, Note_off_c, 0, 69, 64
2, 243360, Note_on_c, 0, 62, 80
2, 243576, Note_off_c, 0, 62, 64
2, 243600, Note_on_c, 0, 65, 80
2, 243816, Note_off_c, 0, 65, 64
2, 243840, Note_on_c, 0, 70, 80
2, 244272, Note_off_c, 0, 70, 64
2, 244320, Note_on_c, 0, 69, 80
2, 244752, Note_off_c, 0, 69, 64
2, 244800, Note_on_c, 0, 67, 80
2, 245232, Note_off_c, 0, 67, 64
2, 245280, Note_on_c, 0, 65, 80
2, 245712, Note_off_c, 0, 65, 64
2, 245760, Note_on_c, 0, 67, 80
2, 245976, Note_off_c, 0, 67, 64
2, 246000, Note_on_c, 0, 69, 80
2, 246216, Note_off_c, 0, 69, 64
2, 246240, Note_on_c, 0, 67, 80
2, 246456, Note_off_c, 0, 67, 64
2, 246480, Note_on_c, 0, 69, 80
2, 246696, Note_off_c, 0, 69, 64
2, 246720, Note_on_c, 0, 69, 80
2, 247152, Note_off_c, 0, 69, 64
2, 247200, Note_on_c, 0, 55, 80
2, 247200, Note_on_c, 0, 64, 80
2, 247416, Note_off_c, 0, 55, 64
2, 247416, Note_off_c, 0, 64, 64
2, 247440, Note_on_c, 0, 67, 80
2, 247656, Note_off_c, 0, 67, 64
2, 247680, Key_signature, 1, "major"
2, 247680, Note_on_c, 0, 59, 80
2, 247680, Note_on_c, 0, 64, 80
2, 247680, Note_on_c, 0, 69, 80
2, 248004, Note_off_c, 0, 59, 64
2, 248004, Note_off_c, 0, 64, 64
2, 248004, Note_off_c, 0, 69, 64
2, 248040, Note_on_c, 0, 64, 80
2, 248040, Note_on_c, 0, 69, 80
2, 248364, Note_off_c, 0, 64, 64
2, 248364, Note_off_c, 0, 69, 64
2, 248400, Note_on_c, 0, 64, 80
2, 248400, Note_on_c, 0, 67, 80
2, 248400, Note_on_c, 0, 71, 80
2, 248616, Note_off_c, 0, 64, 64
2, 248616, Note_off_c, 0, 67, 64
2, 248616, Note_off_c, 0, 71, 64
2, 248640, Note_on_c, 0, 64, 80
2, 248640, Note_on_c, 0, 67, 80
2, 248640, Note_on_c, 0, 71, 80
2, 249288, Note_off_c, 0, 64, 64
2, 249288, Note_off_c, 0, 67, 64
2, 249288, Note_off_c, 0, 71, 64
2, 249360, Note_on_c, 0, 71, 80
2, 249576, Note_off_c, 0, 71, 64
2, 249600, Note_on_c, 0, 66, 80
2, 249600, Note_on_c, 0, 69, 80
2, 249600, Note_on_c, 0, 74, 80
2, 249816, Note_off_c, 0, 66, 64
2, 249816, Note_off_c, 0, 69, 64
2, 249816, Note_off_c, 0, 74, 64
2, 249840, Note_on_c, 0, 76, 80
2, 250056, Note_off_c, 0, 76, 64
2, 250080, Note_on_c, 0, 60, 80
2, 250080, Note_on_c, 0, 66, 80
2, 250080, Note_on_c, 0, 69, 80
2, 250296, Note_off_c, 0, 60, 64
2, 250296, Note_off_c, 0, 66, 64
2, 250296, Note_off_c, 0, 69, 64
2, 250320, Note_on_c, 0, 67, 80
2, 250536, Note_off_c, 0, 67, 64
2, 250560, Note_on_c, 0, 62, 80
2, 250560, Note_on_c, 0, 67, 80
2, 250560, Note_on_c, 0, 71, 80
2, 250992, Note_off_c, 0, 62, 64
2, 250992, Note_off_c, 0, 67, 64
2, 250992, Note_off_c, 0, 71, 64
2, 251040, Note_on_c, 0, 64, 80
2, 251256, Note_off_c, 0, 64, 64
2, 251280, Note_on_c, 0, 67, 80
2, 251496, Note_off_c, 0, 67, 64
2, 251520, Note_on_c, 0, 59, 80
2, 251520, Note_on_c, 0, 64, 80
2, 251520, Note_on_c, 0, 69, 80
2, 251844, Note_off_c, 0, 59, 64
2, 251844, Note_off_c, 0, 64, 64
2, 251844, Note_off_c, 0, 69, 64
2, 251880, Note_on_c, 0, 64, 80
2, 251880, Note_on_c, 0, 69, 80
2, 252204, Note_off_c, 0, 64, 64
2, 252204, Note_off_c, 0, 69, 64
2, 252240, Note_on_c, 0, 64, 80
2, 252240, Note_on_c, 0, 67, 80
2, 252240, Note_on_c, 0, 71, 80
2, 252456, Note_off_c, 0, 64, 64
2, 252456, Note_off_c, 0, 67, 64
2, 252456, Note_off_c, 0, 71, 64
2, 252480, Note_on_c, 0, 64, 80
2, 252480, Note_on_c, 0, 67, 80
2, 252480, Note_on_c, 0, 71, 80
2, 253128, Note_off_c, 0, 64, 64
2, 253128, Note_off_c, 0, 67, 64
2, 253128, Note_off_c, 0, 71, 64
2, 253200, Note_on_c, 0, 71, 80
2, 253416, Note_off_c, 0, 71, 64
2, 253440, Note_on_c, 0, 66, 80
2, 253440, Note_on_c, 0, 69, 80
2, 253440, Note_on_c, 0, 72, 80
2, 253656, Note_off_c, 0, 66, 64
2, 253656, Note_off_c, 0, 69, 64
2, 253656, Note_off_c, 0, 72, 64
2, 253680, Note_on_c, 0, 71, 80
2, 253896, Note_off_c, 0, 71, 64
2, 253920, Note_on_c, 0, 60, 80
2, 253920, Note_on_c, 0, 66, 80
2, 253920, Note_on_c, 0, 69, 80
2, 254136, Note_off_c, 0, 60, 64
2, 254136, Note_off_c, 0, 66, 64
2, 254136, Note_off_c, 0, 69, 64
2, 254160, Note_on_c, 0, 67, 80
2, 254376, Note_off_c, 0, 67, 64
2, 254400, Note_on_c, 0, 59, 80
2, 254400, Note_on_c, 0, 62, 80
2, 254400, Note_on_c, 0, 67, 80
2, 254832, Note_off_c, 0, 59, 64
2, 254832, Note_off_c, 0, 62, 64
2, 254832, Note_off_c, 0, 67, 64
2, 254880, Note_on_c, 0, 59, 80
2, 254880, Note_on_c, 0, 64, 80
2, 255096, Note_off_c, 0, 59, 64
2, 255096, Note_off_c, 0, 64, 64
2, 255120, Note_on_c, 0, 67, 80
2, 255336, Note_off_c, 0, 67, 64
2, 255360, Note_on_c, 0, 59, 80
2, 255360, Note_on_c, 0, 64, 80
2, 255360, Note_on_c, 0, 69, 80
2, 255684, Note_off_c, 0, 59, 64
2, 255684, Note_off_c, 0, 64, 64
2, 255684, Note_off_c, 0, 69, 64
2, 255720, Note_on_c, 0, 64, 80
2, 255720, Note_on_c, 0, 69, 80
2, 256044, Note_off_c, 0, 64, 64
2, 256044, Note_off_c, 0, 69, 64
2, 256080, Note_on_c, 0, 64, 80
2, 256080, Note_on_c, 0, 67, 80
2, 256080, Note_on_c, 0, 71, 80
2, 256296, Note_off_c, 0, 64, 64
2, 256296, Note_off_c, 0, 67, 64
2, 256296, Note_off_c, 0, 71, 64
2, 256320, Note_on_c, 0, 64, 80
2, 256320, Note_on_c, 0, 67, 80
2, 256320, Note_on_c, 0, 71, 80
2, 256968, Note_off_c, 0, 64, 64
2, 256968, Note_off_c, 0, 67, 64
2, 256968, Note_off_c, 0, 71, 64
2, 257040, Note_on_c, 0, 71, 80
2, 257256, Note_off_c, 0, 71, 64
2, 257280, Note_on_c, 0, 66, 80
2, 257280, Note_on_c, 0, 69, 80
2, 257280, Note_on_c, 0, 74, 80
2, 257496, Note_off_c, 0, 66, 64
2, 257496, Note_off_c, 0, 69, 64
2, 257496, Note_off_c, 0, 74, 64
2, 257520, Note_on_c, 0, 76, 80
2, 257736, Note_off_c, 0, 76, 64
2, 257760, Note_on_c, 0, 60, 80
2, 257760, Note_on_c, 0, 66, 80
2, 257760, Note_on_c, 0, 69, 80
2, 257976, Note_off_c, 0, 60, 64
2, 257976, Note_off_c, 0, 66, 64
2, 257976, Note_off_c, 0, 69, 64
2, 258000, Note_on_c, 0, 67, 80
2, 258216, Note_off_c, 0, 67, 64
2, 258240, Note_on_c, 0, 62, 80
2, 258240, Note_on_c, 0, 67, 80
2, 258240, Note_on_c, 0, 71, 80
2, 258672, Note_off_c, 0, 62, 64
2, 258672, Note_off_c, 0, 67, 64
2, 258672, Note_off_c, 0, 71, 64
2, 258720, Note_on_c, 0, 64, 80
2, 258936, Note_off_c, 0, 64, 64
2, 258960, Note_on_c, 0, 67, 80
2, 259176, Note_off_c, 0, 67, 64
2, 259200, Note_on_c, 0, 64, 80
2, 259200, Note_on_c, 0, 67, 80
2, 259200, Note_on_c, 0, 72, 80
2, 259632, Note_off_c, 0, 64, 64
2, 259632, Note_off_c, 0, 67, 64
2, 259632, Note_off_c, 0, 72, 64
2, 259680, Note_on_c, 0, 64, 80
2, 259680, Note_on_c, 0, 67, 80
2, 259680, Note_on_c, 0, 71, 80
2, 260112, Note_off_c, 0, 64, 64
2, 260112, Note_off_c, 0, 67, 64
2, 260112, Note_off_c, 0, 71, 64
2, 260160, Note_on_c, 0, 62, 80
2, 260160, Note_on_c, 0, 66, 80
2, 260160, Note_on_c, 0, 69, 80
2, 260592, Note_off_c, 0, 62, 64
2, 260592, Note_off_c, 0, 66, 64
2, 260592, Note_off_c, 0, 69, 64
2, 260640, Note_on_c, 0, 62, 80
2, 260640, Note_on_c, 0, 66, 80
2, 260640, Note_on_c, 0, 67, 80
2, 261072, Note_off_c, 0, 62, 64
2, 261072, Note_off_c, 0, 66, 64
2, 261072, Note_off_c, 0, 67, 64
2, 261120, Note_on_c, 0, 60, 80
2, 261120, Note_on_c, 0, 64, 80
2, 261120, Note_on_c, 0, 69, 80
2, 261336, Note_off_c, 0, 60, 64
2, 261336, Note_off_c, 0, 64, 64
2, 261336, Note_off_c, 0, 69, 64
2, 261360, Note_on_c, 0, 67, 80
2, 261576, Note_off_c, 0, 67, 64
2, 261600, Note_on_c, 0, 62, 80
2, 261600, Note_on_c, 0, 66, 80
2, 261600, Note_on_c, 0, 71, 80
2, 261816, Note_off_c, 0, 62, 64
2, 261816, Note_off_c, 0, 66, 64
2, 261816, Note_off_c, 0, 71, 64
2, 261840, Note_on_c, 0, 74, 80
2, 262056, Note_off_c, 0, 74, 64
2, 262080, Note_on_c, 0, 76, 80
2, 262080, Note_on_c, 0, 71, 80
2, 262080, Note_on_c, 0, 67, 80
2, 262512, Note_off_c, 0, 76, 64
2, 262512, Note_off_c, 0, 71, 64
2, 262512, Note_off_c, 0, 67, 64
2, 262560, Note_on_c, 0, 55, 80
2, 262560, Note_on_c, 0, 59, 80
2, 262992, Note_off_c, 0, 55, 64
2, 262992, Note_off_c, 0, 59, 64
2, 263040, Note_on_c, 0, 69, 80
2, 263256, Note_off_c, 0, 69, 64
2, 263280, Note_on_c, 0, 71, 80
2, 263496, Note_off_c, 0, 71, 64
2, 263520, Note_on_c, 0, 64, 80
2, 263628, Note_off_c, 0, 64, 64
2, 263640, Note_on_c, 0, 62, 80
2, 263748, Note_off_c, 0, 62, 64
2, 263760, Note_on_c, 0, 64, 80
2, 263868, Note_off_c, 0, 64, 64
2, 263880, Note_on_c, 0, 62, 80
2, 263988, Note_off_c, 0, 62, 64
2, 264000, Note_on_c, 0, 69, 80
2, 264216, Note_off_c, 0, 69, 64
2, 264240, Note_on_c, 0, 71, 80
2, 264456, Note_off_c, 0, 71, 64
2, 264480, Note_on_c, 0, 64, 80
2, 264588, Note_off_c, 0, 64, 64
2, 264600, Note_on_c, 0, 62, 80
2, 264708, Note_off_c, 0, 62, 64
2, 264720, Note_on_c, 0, 64, 80
2, 264828, Note_off_c, 0, 64, 64
2, 264840, Note_on_c, 0, 62, 80
2, 264948, Note_off_c, 0, 62, 64
2, 264960, Note_on_c, 0, 69, 80
2, 265176, Note_off_c, 0, 69, 64
2, 265200, Note_on_c, 0, 71, 80
2, 265416, Note_off_c, 0, 71, 64
2, 265440, Note_on_c, 0, 64, 80
2, 265548, Note_off_c, 0, 64, 64
2, 265560, Note_on_c, 0, 62, 80
2, 265668, Note_off_c, 0, 62, 64
2, 265680, Note_on_c, 0, 64, 80
2, 265788, Note_off_c, 0, 64, 64
2, 265800, Note_on_c, 0, 62, 80
2, 265908, Note_off_c, 0, 62, 64
2, 265935, Note_on_c, 0, 66, 80
2, 265950, Note_on_c, 0, 67, 80
2, 266151, Note_off_c, 0, 66, 64
2, 266160, Note_on_c, 0, 66, 80
2, 266166, Note_off_c, 0, 67, 64
2, 266268, Note_off_c, 0, 66, 64
2, 266280, Note_on_c, 0, 67, 80
2, 266334, Note_off_c, 0, 67, 64
2, 266340, Note_on_c, 0, 66, 80
2, 266394, Note_off_c, 0, 66, 64
2, 266400, Note_on_c, 0, 64, 80
2, 266616, Note_off_c, 0, 64, 64
2, 266640, Note_on_c, 0, 62, 80
2, 266856, Note_off_c, 0, 62, 64
2, 266880, Note_on_c, 0, 69, 80
2, 267096, Note_off_c, 0, 69, 64
2, 267120, Note_on_c, 0, 71, 80
2, 267336, Note_off_c, 0, 71, 64
2, 267360, Note_on_c, 0, 64, 80
2, 267468, Note_off_c, 0, 64, 64
2, 267480, Note_on_c, 0, 62, 80
2, 267588, Note_off_c, 0, 62, 64
2, 267600, Note_on_c, 0, 64, 80
2, 267708, Note_off_c, 0, 64, 64
2, 267720, Note_on_c, 0, 62, 80
2, 267828, Note_off_c, 0, 62, 64
2, 267840, Note_on_c, 0, 69, 80
2, 268056, Note_off_c, 0, 69, 64
2, 268080, Note_on_c, 0, 71, 80
2, 268296, Note_off_c, 0, 71, 64
2, 268320, Note_on_c, 0, 64, 80
2, 268428, Note_off_c, 0, 64, 64
2, 268440, Note_on_c, 0, 62, 80
2, 268548, Note_off_c, 0, 62, 64
2, 268560, Note_on_c, 0, 64, 80
2, 268668, Note_off_c, 0, 64, 64
2, 268680, Note_on_c, 0, 62, 80
2, 268788, Note_off_c, 0, 62, 64
2, 268800, Note_on_c, 0, 69, 80
2, 269016, Note_off_c, 0, 69, 64
2, 269040, Note_on_c, 0, 71, 80
2, 269256, Note_off_c, 0, 71, 64
2, 269280, Note_on_c, 0, 74, 80
2, 269496, Note_off_c, 0, 74, 64
2, 269520, Note_on_c, 0, 79, 80
2, 269736, Note_off_c, 0, 79, 64
2, 269760, Note_on_c, 0, 78, 80
2, 269868, Note_off_c, 0, 78, 64
2, 269880, Note_on_c, 0, 79, 80
2, 269988, Note_off_c, 0, 79, 64
2, 270000, Note_on_c, 0, 78, 80
2, 270108, Note_off_c, 0, 78, 64
2, 270120, Note_on_c, 0, 76, 80
2, 270228, Note_off_c, 0, 76, 64
2, 270240, Note_on_c, 0, 74, 80
2, 270456, Note_off_c, 0, 74, 64
2, 270480, Note_on_c, 0, 71, 80
2, 270696, Note_off_c, 0, 71, 64
2, 270720, Note_on_c, 0, 69, 80
2, 270936, Note_off_c, 0, 69, 64
2, 270960, Note_on_c, 0, 71, 80
2, 271176, Note_off_c, 0, 71, 64
2, 271200, Note_on_c, 0, 64, 80
2, 271308, Note_off_c, 0, 64, 64
2, 271320, Note_on_c, 0, 62, 80
2, 271428, Note_off_c, 0, 62, 64
2, 271440, Note_on_c, 0, 64, 80
2, 271548, Note_off_c, 0, 64, 64
2, 271560, Note_on_c, 0, 62, 80
2, 271668, Note_off_c, 0, 62, 64
2, 271680, Note_on_c, 0, 69, 80
2, 271896, Note_off_c, 0, 69, 64
2, 271920, Note_on_c, 0, 71, 80
2, 272136, Note_off_c, 0, 71, 64
2, 272160, Note_on_c, 0, 64, 80
2, 272268, Note_off_c, 0, 64, 64
2, 272280, Note_on_c, 0, 62, 80
2, 272388, Note_off_c, 0, 62, 64
2, 272400, Note_on_c, 0, 64, 80
2, 272508, Note_off_c, 0, 64, 64
2, 272520, Note_on_c, 0, 62, 80
2, 272628, Note_off_c, 0, 62, 64
2, 272640, Note_on_c, 0, 69, 80
2, 272856, Note_off_c, 0, 69, 64
2, 272880, Note_on_c, 0, 71, 80
2, 273096, Note_off_c, 0, 71, 64
2, 273120, Note_on_c, 0, 64, 80
2, 273228, Note_off_c, 0, 64, 64
2, 273240, Note_on_c, 0, 62, 80
2, 273348, Note_off_c, 0, 62, 64
2, 273360, Note_on_c, 0, 64, 80
2, 273468, Note_off_c, 0, 64, 64
2, 273480, Note_on_c, 0, 62, 80
2, 273588, Note_off_c, 0, 62, 64
2, 273615, Note_on_c, 0, 66, 80
2, 273630, Note_on_c, 0, 67, 80
2, 273831, Note_off_c, 0, 66, 64
2, 273840, Note_on_c, 0, 66, 80
2, 273846, Note_off_c, 0, 67, 64
2, 273948, Note_off_c, 0, 66, 64
2, 273960, Note_on_c, 0, 67, 80
2, 274014, Note_off_c, 0, 67, 64
2, 274020, Note_on_c, 0, 66, 80
2, 274074, Note_off_c, 0, 66, 64
2, 274080, Note_on_c, 0, 64, 80
2, 274296, Note_off_c, 0, 64, 64
2, 274320, Note_on_c, 0, 62, 80
2, 274536, Note_off_c, 0, 62, 64
2, 274560, Note_on_c, 0, 64, 80
2, 274776, Note_off_c, 0, 64, 64
2, 274800, Note_on_c, 0, 62, 80
2, 274908, Note_off_c, 0, 62, 64
2, 274920, Note_on_c, 0, 64, 80
2, 275028, Note_off_c, 0, 64, 64
2, 275040, Note_on_c, 0, 67, 80
2, 275256, Note_off_c, 0, 67, 64
2, 275280, Note_on_c, 0, 64, 80
2, 275388, Note_off_c, 0, 64, 64
2, 275400, Note_on_c, 0, 69, 80
2, 275508, Note_off_c, 0, 69, 64
2, 275520, Note_on_c, 0, 71, 80
2, 275736, Note_off_c, 0, 71, 64
2, 275760, Note_on_c, 0, 69, 80
2, 275868, Note_off_c, 0, 69, 64
2, 275880, Note_on_c, 0, 71, 80
2, 275988, Note_off_c, 0, 71, 64
2, 276000, Note_on_c, 0, 74, 80
2, 276108, Note_off_c, 0, 74, 64
2, 276120, Note_on_c, 0, 79, 80
2, 276228, Note_off_c, 0, 79, 64
2, 276240, Note_on_c, 0, 71, 80
2, 276348, Note_off_c, 0, 71, 64
2, 276360, Note_on_c, 0, 74, 80
2, 276468, Note_off_c, 0, 74, 64
2, 276480, Note_on_c, 0, 79, 80
2, 276480, Note_on_c, 0, 71, 80
2, 276696, Note_off_c, 0, 79, 64
2, 276696, Note_off_c, 0, 71, 64
2, 276720, Note_on_c, 0, 78, 80
2, 276774, Note_off_c, 0, 78, 64
2, 276780, Note_on_c, 0, 79, 80
2, 276834, Note_off_c, 0, 79, 64
2, 276840, Note_on_c, 0, 78, 80
2, 276948, Note_off_c, 0, 78, 64
2, 276960, Note_on_c, 0, 76, 80
2, 277176, Note_off_c, 0, 76, 64
2, 277200, Note_on_c, 0, 74, 80
2, 277200, Note_on_c, 0, 71, 80
2, 277416, Note_off_c, 0, 74, 64
2, 277416, Note_off_c, 0, 71, 64
2, 277440, Note_on_c, 0, 76, 80
2, 277440, Note_on_c, 0, 71, 80
2, 277656, Note_off_c, 0, 76, 64
2, 277656, Note_off_c, 0, 71, 64
2, 277680, Note_on_c, 0, 74, 80
2, 277896, Note_off_c, 0, 74, 64
2, 277920, Note_on_c, 0, 76, 80
2, 277920, Note_on_c, 0, 71, 80
2, 278136, Note_off_c, 0, 76, 64
2, 278136, Note_off_c, 0, 71, 64
2, 278160, Note_on_c, 0, 79, 80
2, 278160, Note_on_c, 0, 74, 80
2, 278376, Note_off_c, 0, 79, 64
2, 278376, Note_off_c, 0, 74, 64
2, 278400, Note_on_c, 0, 81, 80
2, 278400, Note_on_c, 0, 76, 80
2, 278400, Note_on_c, 0, 69, 80
2, 278616, Note_off_c, 0, 81, 64
2, 278616, Note_off_c, 0, 76, 64
2, 278616, Note_off_c, 0, 69, 64
2, 278640, Note_on_c, 0, 83, 80
2, 278640, Note_on_c, 0, 71, 80
2, 278856, Note_off_c, 0, 83, 64
2, 278856, Note_off_c, 0, 71, 64
2, 278880, Note_on_c, 0, 76, 80
2, 278880, Note_on_c, 0, 64, 80
2, 278988, Note_off_c, 0, 76, 64
2, 278988, Note_off_c, 0, 64, 64
2, 279000, Note_on_c, 0, 74, 80
2, 279108, Note_off_c, 0, 74, 64
2, 279120, Note_on_c, 0, 76, 80
2, 279228, Note_off_c, 0, 76, 64
2, 279240, Note_on_c, 0, 74, 80
2, 279348, Note_off_c, 0, 74, 64
2, 279360, Note_on_c, 0, 81, 80
2, 279360, Note_on_c, 0, 69, 80
2, 279576, Note_off_c, 0, 81, 64
2, 279576, Note_off_c, 0, 69, 64
2, 279600, Note_on_c, 0, 83, 80
2, 279600, Note_on_c, 0, 71, 80
2, 279816, Note_off_c, 0, 83, 64
2, 279816, Note_off_c, 0, 71, 64
2, 279840, Note_on_c, 0, 76, 80
2, 279840, Note_on_c, 0, 64, 80
2, 279948, Note_off_c, 0, 76, 64
2, 279948, Note_off_c, 0, 64, 64
2, 279960, Note_on_c, 0, 74, 80
2, 280068, Note_off_c, 0, 74, 64
2, 280080, Note_on_c, 0, 76, 80
2, 280188, Note_off_c, 0, 76, 64
2, 280200, Note_on_c, 0, 74, 80
2, 280308, Note_off_c, 0, 74, 64
2, 280320, Note_on_c, 0, 81, 80
2, 280320, Note_on_c, 0, 76, 80
2, 280320, Note_on_c, 0, 69, 80
2, 280536, Note_off_c, 0, 81, 64
2, 280536, Note_off_c, 0, 76, 64
2, 280536, Note_off_c, 0, 69, 64
2, 280560, Note_on_c, 0, 83, 80
2, 280560, Note_on_c, 0, 71, 80
2, 280776, Note_off_c, 0, 83, 64
2, 280776, Note_off_c, 0, 71, 64
2, 280800, Note_on_c, 0, 76, 80
2, 280800, Note_on_c, 0, 64, 80
2, 280908, Note_off_c, 0, 76, 64
2, 280908, Note_off_c, 0, 64, 64
2, 280920, Note_on_c, 0, 74, 80
2, 281028, Note_off_c, 0, 74, 64
2, 281040, Note_on_c, 0, 76, 80
2, 281148, Note_off_c, 0, 76, 64
2, 281160, Note_on_c, 0, 74, 80
2, 281250, Note_on_c, 0, 71, 80
2, 281268, Note_off_c, 0, 74, 64
2, 281272, Note_on_c, 0, 76, 80
2, 281295, Note_on_c, 0, 78, 80
2, 281317, Note_on_c, 0, 79, 80
2, 281466, Note_off_c, 0, 71, 64
2, 281488, Note_off_c, 0, 76, 64
2, 281511, Note_off_c, 0, 78, 64
2, 281520, Note_on_c, 0, 78, 80
2, 281520, Note_on_c, 0, 66, 80
2, 281533, Note_off_c, 0, 79, 64
2, 281628, Note_off_c, 0, 78, 64
2, 281628, Note_off_c, 0, 66, 64
2, 281640, Note_on_c, 0, 79, 80
2, 281694, Note_off_c, 0, 79, 64
2, 281700, Note_on_c, 0, 78, 80
2, 281754, Note_off_c, 0, 78, 64
2, 281760, Note_on_c, 0, 64, 80
2, 281760, Note_on_c, 0, 71, 80
2, 281760, Note_on_c, 0, 76, 80
2, 281976, Note_off_c, 0, 64, 64
2, 281976, Note_off_c, 0, 71, 64
2, 281976, Note_off_c, 0, 76, 64
2, 282000, Note_on_c, 0, 62, 80
2, 282000, Note_on_c, 0, 74, 80
2, 282216, Note_off_c, 0, 62, 64
2, 282216, Note_off_c, 0, 74, 64
2, 282240, Note_on_c, 0, 81, 80
2, 282240, Note_on_c, 0, 76, 80
2, 282240, Note_on_c, 0, 69, 80
2, 282456, Note_off_c, 0, 81, 64
2, 282456, Note_off_c, 0, 76, 64
2, 282456, Note_off_c, 0, 69, 64
2, 282480, Note_on_c, 0, 83, 80
2, 282480, Note_on_c, 0, 71, 80
2, 282696, Note_off_c, 0, 83, 64
2, 282696, Note_off_c, 0, 71, 64
2, 282720, Note_on_c, 0, 76, 80
2, 282720, Note_on_c, 0, 64, 80
2, 282828, Note_off_c, 0, 76, 64
2, 282828, Note_off_c, 0, 64, 64
2, 282840, Note_on_c, 0, 74, 80
2, 282948, Note_off_c, 0, 74, 64
2, 282960, Note_on_c, 0, 76, 80
2, 283068, Note_off_c, 0, 76, 64
2, 283080, Note_on_c, 0, 74, 80
2, 283188, Note_off_c, 0, 74, 64
2, 283200, Note_on_c, 0, 81, 80
2, 283200, Note_on_c, 0, 69, 80
2, 283416, Note_off_c, 0, 81, 64
2, 283416, Note_off_c, 0, 69, 64
2, 283440, Note_on_c, 0, 83, 80
2, 283440, Note_on_c, 0, 71, 80
2, 283656, Note_off_c, 0, 83, 64
2, 283656, Note_off_c, 0, 71, 64
2, 283680, Note_on_c, 0, 76, 80
2, 283680, Note_on_c, 0, 64, 80
2, 283788, Note_off_c, 0, 76, 64
2, 283788, Note_off_c, 0, 64, 64
2, 283800, Note_on_c, 0, 74, 80
2, 283908, Note_off_c, 0, 74, 64
2, 283920, Note_on_c, 0, 76, 80
2, 284028, Note_off_c, 0, 76, 64
2, 284040, Note_on_c, 0, 74, 80
2, 284105, Note_on_c, 0, 79, 80
2, 284148, Note_off_c, 0, 74, 64
2, 284159, Note_off_c, 0, 79, 64
2, 284160, Note_on_c, 0, 81, 80
2, 284160, Note_on_c, 0, 69, 80
2, 284376, Note_off_c, 0, 81, 64
2, 284376, Note_off_c, 0, 69, 64
2, 284400, Note_on_c, 0, 83, 80
2, 284400, Note_on_c, 0, 71, 80
2, 284616, Note_off_c, 0, 83, 64
2, 284616, Note_off_c, 0, 71, 64
2, 284640, Note_on_c, 0, 86, 80
2, 284640, Note_on_c, 0, 74, 80
2, 284856, Note_off_c, 0, 86, 64
2, 284856, Note_off_c, 0, 74, 64
2, 284880, Note_on_c, 0, 91, 80
2, 284880, Note_on_c, 0, 79, 80
2, 285096, Note_off_c, 0, 91, 64
2, 285096, Note_off_c, 0, 79, 64
2, 285120, Note_on_c, 0, 90, 80
2, 285120, Note_on_c, 0, 86, 80
2, 285120, Note_on_c, 0, 78, 80
2, 285228, Note_off_c, 0, 90, 64
2, 285228, Note_off_c, 0, 86, 64
2, 285228, Note_off_c, 0, 78, 64
2, 285240, Note_on_c, 0, 91, 80
2, 285240, Note_on_c, 0, 79, 80
2, 285348, Note_off_c, 0, 91, 64
2, 285348, Note_off_c, 0, 79, 64
2, 285360, Note_on_c, 0, 90, 80
2, 285360, Note_on_c, 0, 78, 80
2, 285468, Note_off_c, 0, 90, 64
2, 285468, Note_off_c, 0, 78, 64
2, 285480, Note_on_c, 0, 88, 80
2, 285480, Note_on_c, 0, 76, 80
2, 285588, Note_off_c, 0, 88, 64
2, 285588, Note_off_c, 0, 76, 64
2, 285600, Note_on_c, 0, 86, 80
2, 285600, Note_on_c, 0, 83, 80
2, 285600, Note_on_c, 0, 74, 80
2, 285816, Note_off_c, 0, 86, 64
2, 285816, Note_off_c, 0, 83, 64
2, 285816, Note_off_c, 0, 74, 64
2, 285840, Note_on_c, 0, 83, 80
2, 285840, Note_on_c, 0, 71, 80
2, 286056, Note_off_c, 0, 83, 64
2, 286056, Note_off_c, 0, 71, 64
2, 286080, Note_on_c, 0, 81, 80
2, 286080, Note_on_c, 0, 76, 80
2, 286080, Note_on_c, 0, 69, 80
2, 286296, Note_off_c, 0, 81, 64
2, 286296, Note_off_c, 0, 76, 64
2, 286296, Note_off_c, 0, 69, 64
2, 286320, Note_on_c, 0, 83, 80
2, 286320, Note_on_c, 0, 71, 80
2, 286536, Note_off_c, 0, 83, 64
2, 286536, Note_off_c, 0, 71, 64
2, 286560, Note_on_c, 0, 76, 80
2, 286560, Note_on_c, 0, 64, 80
2, 286668, Note_off_c, 0, 76, 64
2, 286668, Note_off_c, 0, 64, 64
2, 286680, Note_on_c, 0, 74, 80
2, 286788, Note_off_c, 0, 74, 64
2, 286800, Note_on_c, 0, 76, 80
2, 286908, Note_off_c, 0, 76, 64
2, 286920, Note_on_c, 0, 74, 80
2, 287028, Note_off_c, 0, 74, 64
2, 287040, Note_on_c, 0, 81, 80
2, 287040, Note_on_c, 0, 69, 80
2, 287256, Note_off_c, 0, 81, 64
2, 287256, Note_off_c, 0, 69, 64
2, 287280, Note_on_c, 0, 83, 80
2, 287280, Note_on_c, 0, 71, 80
2, 287496, Note_off_c, 0, 83, 64
2, 287496, Note_off_c, 0, 71, 64
2, 287520, Note_on_c, 0, 76, 80
2, 287520, Note_on_c, 0, 64, 80
2, 287628, Note_off_c, 0, 76, 64
2, 287628, Note_off_c, 0, 64, 64
2, 287640, Note_on_c, 0, 74, 80
2, 287748, Note_off_c, 0, 74, 64
2, 287760, Note_on_c, 0, 76, 80
2, 287868, Note_off_c, 0, 76, 64
2, 287880, Note_on_c, 0, 74, 80
2, 287988, Note_off_c, 0, 74, 64
2, 288000, Note_on_c, 0, 81, 80
2, 288000, Note_on_c, 0, 76, 80
2, 288000, Note_on_c, 0, 69, 80
2, 288216, Note_off_c, 0, 81, 64
2, 288216, Note_off_c, 0, 76, 64
2, 288216, Note_off_c, 0, 69, 64
2, 288240, Note_on_c, 0, 83, 80
2, 288240, Note_on_c, 0, 71, 80
2, 288456, Note_off_c, 0, 83, 64
2, 288456, Note_off_c, 0, 71, 64
2, 288480, Note_on_c, 0, 76, 80
2, 288480, Note_on_c, 0, 64, 80
2, 288588, Note_off_c, 0, 76, 64
2, 288588, Note_off_c, 0, 64, 64
2, 288600, Note_on_c, 0, 74, 80
2, 288708, Note_off_c, 0, 74, 64
2, 288720, Note_on_c, 0, 76, 80
2, 288828, Note_off_c, 0, 76, 64
2, 288840, Note_on_c, 0, 74, 80
2, 288930, Note_on_c, 0, 71, 80
2, 288948, Note_off_c, 0, 74, 64
2, 288952, Note_on_c, 0, 76, 80
2, 288975, Note_on_c, 0, 78, 80
2, 288997, Note_on_c, 0, 79, 80
2, 289146, Note_off_c, 0, 71, 64
2, 289168, Note_off_c, 0, 76, 64
2, 289191, Note_off_c, 0, 78, 64
2, 289200, Note_on_c, 0, 78, 80
2, 289200, Note_on_c, 0, 66, 80
2, 289213, Note_off_c, 0, 79, 64
2, 289308, Note_off_c, 0, 78, 64
2, 289308, Note_off_c, 0, 66, 64
2, 289320, Note_on_c, 0, 79, 80
2, 289374, Note_off_c, 0, 79, 64
2, 289380, Note_on_c, 0, 78, 80
2, 289434, Note_off_c, 0, 78, 64
2, 289440, Note_on_c, 0, 64, 80
2, 289440, Note_on_c, 0, 71, 80
2, 289440, Note_on_c, 0, 76, 80
2, 289656, Note_off_c, 0, 64, 64
2, 289656, Note_off_c, 0, 71, 64
2, 289656, Note_off_c, 0, 76, 64
2, 289680, Note_on_c, 0, 62, 80
2, 289680, Note_on_c, 0, 74, 80
2, 289896, Note_off_c, 0, 62, 64
2, 289896, Note_off_c, 0, 74, 64
2, 289920, Note_on_c, 0, 81, 80
2, 289920, Note_on_c, 0, 76, 80
2, 289920, Note_on_c, 0, 69, 80
2, 290028, Note_off_c, 0, 81, 64
2, 290028, Note_off_c, 0, 76, 64
2, 290028, Note_off_c, 0, 69, 64
2, 290040, Note_on_c, 0, 79, 80
2, 290040, Note_on_c, 0, 67, 80
2, 290148, Note_off_c, 0, 79, 64
2, 290148, Note_off_c, 0, 67, 64
2, 290160, Note_on_c, 0, 83, 80
2, 290160, Note_on_c, 0, 71, 80
2, 290268, Note_off_c, 0, 83, 64
2, 290268, Note_off_c, 0, 71, 64
2, 290280, Note_on_c, 0, 86, 80
2, 290280, Note_on_c, 0, 74, 80
2, 290388, Note_off_c, 0, 86, 64
2, 290388, Note_off_c, 0, 74, 64
2, 290400, Note_on_c, 0, 88, 80
2, 290400, Note_on_c, 0, 76, 80
2, 290508, Note_off_c, 0, 88, 64
2, 290508, Note_off_c, 0, 76, 64
2, 290520, Note_on_c, 0, 86, 80
2, 290520, Note_on_c, 0, 74, 80
2, 290628, Note_off_c, 0, 86, 64
2, 290628, Note_off_c, 0, 74, 64
2, 290640, Note_on_c, 0, 83, 80
2, 290640, Note_on_c, 0, 71, 80
2, 290748, Note_off_c, 0, 83, 64
2, 290748, Note_off_c, 0, 71, 64
2, 290760, Note_on_c, 0, 81, 80
2, 290760, Note_on_c, 0, 69, 80
2, 290868, Note_off_c, 0, 81, 64
2, 290868, Note_off_c, 0, 69, 64
2, 290880, Note_on_c, 0, 76, 80
2, 290880, Note_on_c, 0, 64, 80
2, 291096, Note_off_c, 0, 76, 64
2, 291096, Note_off_c, 0, 64, 64
2, 291120, Note_on_c, 0, 79, 80
2, 291120, Note_on_c, 0, 74, 80
2, 291120, Note_on_c, 0, 67, 80
2, 291336, Note_off_c, 0, 79, 64
2, 291336, Note_off_c, 0, 74, 64
2, 291336, Note_off_c, 0, 67, 64
2, 291360, Note_on_c, 0, 81, 80
2, 291360, Note_on_c, 0, 69, 80
2, 291576, Note_off_c, 0, 81, 64
2, 291576, Note_off_c, 0, 69, 64
2, 291600, Note_on_c, 0, 83, 80
2, 291600, Note_on_c, 0, 76, 80
2, 291600, Note_on_c, 0, 71, 80
2, 291816, Note_off_c, 0, 83, 64
2, 291816, Note_off_c, 0, 76, 64
2, 291816, Note_off_c, 0, 71, 64
2, 291840, Note_on_c, 0, 67, 80
2, 291840, Note_on_c, 0, 71, 80
2, 291840, Note_on_c, 0, 76, 80
2, 291948, Note_off_c, 0, 67, 64
2, 291948, Note_off_c, 0, 71, 64
2, 291948, Note_off_c, 0, 76, 64
2, 291960, Note_on_c, 0, 64, 68
2, 292068, Note_off_c, 0, 64, 64
2, 292080, Note_on_c, 0, 64, 68
2, 292188, Note_off_c, 0, 64, 64
2, 292200, Note_on_c, 0, 67, 80
2, 292200, Note_on_c, 0, 71, 80
2, 292200, Note_on_c, 0, 76, 80
2, 292308, Note_off_c, 0, 67, 64
2, 292308, Note_off_c, 0, 71, 64
2, 292308, Note_off_c, 0, 76, 64
2, 292320, Note_on_c, 0, 64, 68
2, 292428, Note_off_c, 0, 64, 64
2, 292440, Note_on_c, 0, 64, 68
2, 292548, Note_off_c, 0, 64, 64
2, 292560, Note_on_c, 0, 67, 80
2, 292560, Note_on_c, 0, 71, 80
2, 292560, Note_on_c, 0, 74, 80
2, 292668, Note_off_c, 0, 67, 64
2, 292668, Note_off_c, 0, 71, 64
2, 292668, Note_off_c, 0, 74, 64
2, 292680, Note_on_c, 0, 64, 68
2, 292788, Note_off_c, 0, 64, 64
2, 292800, Note_on_c, 0, 64, 80
2, 292800, Note_on_c, 0, 67, 80
2, 292800, Note_on_c, 0, 71, 80
2, 292800, Note_on_c, 0, 76, 80
2, 293520, Note_off_c, 0, 64, 64
2, 293520, Note_off_c, 0, 67, 64
2, 293520, Note_off_c, 0, 71, 64
2, 293520, Note_off_c, 0, 76, 64
2, 293520, Note_on_c, 0, 62, 80
2, 293520, Note_on_c, 0, 74, 80
2, 293628, Note_off_c, 0, 62, 64
2, 293628, Note_off_c, 0, 74, 64
2, 293640, Note_on_c, 0, 63, 80
2, 293640, Note_on_c, 0, 75, 80
2, 293748, Note_off_c, 0, 63, 64
2, 293748, Note_off_c, 0, 75, 64
2, 293760, Note_on_c, 0, 67, 80
2, 293760, Note_on_c, 0, 71, 80
2, 293760, Note_on_c, 0, 76, 80
2, 293868, Note_off_c, 0, 67, 64
2, 293868, Note_off_c, 0, 71, 64
2, 293868, Note_off_c, 0, 76, 64
2, 293880, Note_on_c, 0, 64, 68
2, 293988, Note_off_c, 0, 64, 64
2, 294000, Note_on_c, 0, 64, 68
2, 294108, Note_off_c, 0, 64, 64
2, 294120, Note_on_c, 0, 67, 80
2, 294120, Note_on_c, 0, 71, 80
2, 294120, Note_on_c, 0, 76, 80
2, 294228, Note_off_c, 0, 67, 64
2, 294228, Note_off_c, 0, 71, 64
2, 294228, Note_off_c, 0, 76, 64
2, 294240, Note_on_c, 0, 64, 68
2, 294348, Note_off_c, 0, 64, 64
2, 294360, Note_on_c, 0, 64, 68
2, 294468, Note_off_c, 0, 64, 64
2, 294480, Note_on_c, 0, 67, 80
2, 294480, Note_on_c, 0, 71, 80
2, 294480, Note_on_c, 0, 74, 80
2, 294588, Note_off_c, 0, 67, 64
2, 294588, Note_off_c, 0, 71, 64
2, 294588, Note_off_c, 0, 74, 64
2, 294600, Note_on_c, 0, 75, 68
2, 294708, Note_off_c, 0, 75, 64
2, 294720, Note_on_c, 0, 64, 80
2, 294720, Note_on_c, 0, 67, 80
2, 294720, Note_on_c, 0, 71, 80
2, 294720, Note_on_c, 0, 76, 80
2, 295584, Note_off_c, 0, 64, 64
2, 295584, Note_off_c, 0, 67, 64
2, 295584, Note_off_c, 0, 71, 64
2, 295584, Note_off_c, 0, 76, 64
2, 297599, End_track
3, 0, Start_track
3, 0, Title_t, "Track 2"
3, 0, Instrument_name_t, "Kontakt 4 2"
3, 0, Key_signature, -1, "major"
3, 0, Program_c, 0, 0
3, 0, Control_c, 0, 10, 64
3, 0, Control_c, 0, 7, 127
3, 0, Control_c, 0, 64, 118
3, 1920, Note_on_c, 0, 38, 80
3, 1920, Note_on_c, 0, 50, 80
3, 2244, Note_off_c, 0, 38, 64
3, 2244, Note_off_c, 0, 50, 64
3, 2280, Note_on_c, 0, 38, 80
3, 2280, Note_on_c, 0, 50, 80
3, 2604, Note_off_c, 0, 38, 64
3, 2604, Note_off_c, 0, 50, 64
3, 2640, Note_on_c, 0, 38, 80
3, 2748, Note_off_c, 0, 38, 64
3, 2760, Note_on_c, 0, 50, 80
3, 2868, Note_off_c, 0, 50, 64
3, 2880, Note_on_c, 0, 38, 80
3, 2964, Note_off_c, 0, 38, 64
3, 3000, Note_on_c, 0, 50, 80
3, 3240, Note_off_c, 0, 50, 64
3, 3240, Note_on_c, 0, 38, 80
3, 3324, Note_off_c, 0, 38, 64
3, 3360, Note_on_c, 0, 50, 80
3, 3600, Note_off_c, 0, 50, 64
3, 3600, Note_on_c, 0, 38, 80
3, 3600, Note_on_c, 0, 50, 80
3, 3816, Note_off_c, 0, 38, 64
3, 3816, Note_off_c, 0, 50, 64
3, 3840, Note_on_c, 0, 38, 80
3, 3840, Note_on_c, 0, 50, 80
3, 4164, Note_off_c, 0, 38, 64
3, 4164, Note_off_c, 0, 50, 64
3, 4200, Note_on_c, 0, 38, 80
3, 4200, Note_on_c, 0, 50, 80
3, 4524, Note_off_c, 0, 38, 64
3, 4524, Note_off_c, 0, 50, 64
3, 4560, Note_on_c, 0, 38, 80
3, 4668, Note_off_c, 0, 38, 64
3, 4680, Note_on_c, 0, 50, 80
3, 4788, Note_off_c, 0, 50, 64
3, 4800, Note_on_c, 0, 38, 80
3, 4800, Note_on_c, 0, 50, 80
3, 5232, Note_off_c, 0, 38, 64
3, 5232, Note_off_c, 0, 50, 64
3, 5280, Note_on_c, 0, 38, 80
3, 5280, Note_on_c, 0, 50, 80
3, 5712, Note_off_c, 0, 38, 64
3, 5712, Note_off_c, 0, 50, 64
3, 5730, Control_c, 0, 64, 0
3, 5760, Control_c, 0, 64, 115
3, 5760, Note_on_c, 0, 38, 80
3, 5760, Note_on_c, 0, 50, 80
3, 6084, Note_off_c, 0, 38, 64
3, 6084, Note_off_c, 0, 50, 64
3, 6120, Note_on_c, 0, 38, 80
3, 6120, Note_on_c, 0, 50, 80
3, 6444, Note_off_c, 0, 38, 64
3, 6444, Note_off_c, 0, 50, 64
3, 6480, Note_on_c, 0, 38, 80
3, 6588, Note_off_c, 0, 38, 64
3, 6600, Note_on_c, 0, 50, 80
3, 6708, Note_off_c, 0, 50, 64
3, 6720, Note_on_c, 0, 38, 80
3, 6804, Note_off_c, 0, 38, 64
3, 6840, Note_on_c, 0, 50, 80
3, 7080, Note_off_c, 0, 50, 64
3, 7080, Note_on_c, 0, 38, 80
3, 7164, Note_off_c, 0, 38, 64
3, 7200, Note_on_c, 0, 50, 80
3, 7440, Note_off_c, 0, 50, 64
3, 7440, Note_on_c, 0, 38, 80
3, 7440, Note_on_c, 0, 50, 80
3, 7650, Control_c, 0, 64, 0
3, 7656, Note_off_c, 0, 38, 64
3, 7656, Note_off_c, 0, 50, 64
3, 7680, Control_c, 0, 64, 112
3, 7680, Note_on_c, 0, 38, 80
3, 7680, Note_on_c, 0, 50, 80
3, 8112, Note_off_c, 0, 38, 64
3, 8112, Note_off_c, 0, 50, 64
3, 8130, Control_c, 0, 64, 0
3, 8160, Control_c, 0, 64, 111
3, 8160, Note_on_c, 0, 53, 80
3, 8160, Note_on_c, 0, 46, 80
3, 8592, Note_off_c, 0, 53, 64
3, 8592, Note_off_c, 0, 46, 64
3, 8610, Control_c, 0, 64, 0
3, 8640, Control_c, 0, 64, 115
3, 8640, Note_on_c, 0, 55, 80
3, 8640, Note_on_c, 0, 46, 80
3, 9072, Note_off_c, 0, 55, 64
3, 9072, Note_off_c, 0, 46, 64
3, 9120, Note_on_c, 0, 45, 80
3, 9120, Note_on_c, 0, 52, 80
3, 9228, Note_off_c, 0, 45, 64
3, 9228, Note_off_c, 0, 52, 64
3, 9240, Note_on_c, 0, 40, 80
3, 9348, Note_off_c, 0, 40, 64
3, 9360, Note_on_c, 0, 36, 80
3, 9468, Note_off_c, 0, 36, 64
3, 9480, Note_on_c, 0, 33, 80
3, 9570, Control_c, 0, 64, 0
3, 9588, Note_off_c, 0, 33, 64
3, 9600, Control_c, 0, 64, 114
3, 9600, Note_on_c, 0, 34, 80
3, 9600, Note_on_c, 0, 46, 80
3, 9816, Note_off_c, 0, 34, 64
3, 9816, Note_off_c, 0, 46, 64
3, 9840, Note_on_c, 0, 50, 80
3, 9840, Note_on_c, 0, 53, 80
3, 10056, Note_off_c, 0, 50, 64
3, 10056, Note_off_c, 0, 53, 64
3, 10080, Note_on_c, 0, 46, 80
3, 10296, Note_off_c, 0, 46, 64
3, 10320, Note_on_c, 0, 50, 80
3, 10320, Note_on_c, 0, 53, 80
3, 10530, Control_c, 0, 64, 0
3, 10536, Note_off_c, 0, 50, 64
3, 10536, Note_off_c, 0, 53, 64
3, 10560, Control_c, 0, 64, 115
3, 10560, Note_on_c, 0, 36, 80
3, 10560, Note_on_c, 0, 48, 80
3, 10776, Note_off_c, 0, 36, 64
3, 10776, Note_off_c, 0, 48, 64
3, 10800, Note_on_c, 0, 52, 80
3, 10800, Note_on_c, 0, 55, 80
3, 11016, Note_off_c, 0, 52, 64
3, 11016, Note_off_c, 0, 55, 64
3, 11040, Note_on_c, 0, 48, 80
3, 11256, Note_off_c, 0, 48, 64
3, 11280, Note_on_c, 0, 52, 80
3, 11280, Note_on_c, 0, 55, 80
3, 11490, Control_c, 0, 64, 0
3, 11496, Note_off_c, 0, 52, 64
3, 11496, Note_off_c, 0, 55, 64
3, 11520, Control_c, 0, 64, 112
3, 11520, Note_on_c, 0, 38, 80
3, 11520, Note_on_c, 0, 50, 80
3, 11736, Note_off_c, 0, 38, 64
3, 11736, Note_off_c, 0, 50, 64
3, 11760, Note_on_c, 0, 53, 80
3, 11760, Note_on_c, 0, 57, 80
3, 11976, Note_off_c, 0, 53, 64
3, 11976, Note_off_c, 0, 57, 64
3, 12000, Note_on_c, 0, 41, 80
3, 12216, Note_off_c, 0, 41, 64
3, 12240, Note_on_c, 0, 53, 80
3, 12240, Note_on_c, 0, 57, 80
3, 12456, Note_off_c, 0, 53, 64
3, 12456, Note_off_c, 0, 57, 64
3, 12480, Note_on_c, 0, 45, 80
3, 12480, Note_on_c, 0, 53, 80
3, 12696, Note_off_c, 0, 45, 64
3, 12696, Note_off_c, 0, 53, 64
3, 12720, Note_on_c, 0, 50, 80
3, 12720, Note_on_c, 0, 57, 80
3, 12936, Note_off_c, 0, 50, 64
3, 12936, Note_off_c, 0, 57, 64
3, 12960, Note_on_c, 0, 41, 80
3, 12960, Note_on_c, 0, 53, 80
3, 13176, Note_off_c, 0, 41, 64
3, 13176, Note_off_c, 0, 53, 64
3, 13200, Note_on_c, 0, 45, 80
3, 13200, Note_on_c, 0, 50, 80
3, 13410, Control_c, 0, 64, 0
3, 13416, Note_off_c, 0, 45, 64
3, 13416, Note_off_c, 0, 50, 64
3, 13440, Control_c, 0, 64, 109
3, 13440, Note_on_c, 0, 34, 80
3, 13440, Note_on_c, 0, 46, 80
3, 13656, Note_off_c, 0, 34, 64
3, 13656, Note_off_c, 0, 46, 64
3, 13680, Note_on_c, 0, 50, 80
3, 13680, Note_on_c, 0, 53, 80
3, 13896, Note_off_c, 0, 50, 64
3, 13896, Note_off_c, 0, 53, 64
3, 13920, Note_on_c, 0, 46, 80
3, 14136, Note_off_c, 0, 46, 64
3, 14160, Note_on_c, 0, 50, 80
3, 14160, Note_on_c, 0, 53, 80
3, 14370, Control_c, 0, 64, 0
3, 14376, Note_off_c, 0, 50, 64
3, 14376, Note_off_c, 0, 53, 64
3, 14400, Control_c, 0, 64, 111
3, 14400, Note_on_c, 0, 36, 80
3, 14400, Note_on_c, 0, 48, 80
3, 14616, Note_off_c, 0, 36, 64
3, 14616, Note_off_c, 0, 48, 64
3, 14640, Note_on_c, 0, 52, 80
3, 14640, Note_on_c, 0, 55, 80
3, 14856, Note_off_c, 0, 52, 64
3, 14856, Note_off_c, 0, 55, 64
3, 14880, Note_on_c, 0, 48, 80
3, 15096, Note_off_c, 0, 48, 64
3, 15120, Note_on_c, 0, 52, 80
3, 15120, Note_on_c, 0, 55, 80
3, 15330, Control_c, 0, 64, 0
3, 15336, Note_off_c, 0, 52, 64
3, 15336, Note_off_c, 0, 55, 64
3, 15360, Control_c, 0, 64, 114
3, 15360, Note_on_c, 0, 38, 80
3, 15576, Note_off_c, 0, 38, 64
3, 15600, Note_on_c, 0, 57, 80
3, 15600, Note_on_c, 0, 50, 80
3, 15816, Note_off_c, 0, 57, 64
3, 15816, Note_off_c, 0, 50, 64
3, 15840, Note_on_c, 0, 41, 80
3, 16056, Note_off_c, 0, 41, 64
3, 16080, Note_on_c, 0, 62, 80
3, 16080, Note_on_c, 0, 53, 80
3, 16296, Note_off_c, 0, 62, 64
3, 16296, Note_off_c, 0, 53, 64
3, 16320, Note_on_c, 0, 57, 80
3, 16320, Note_on_c, 0, 45, 80
3, 16536, Note_off_c, 0, 57, 64
3, 16536, Note_off_c, 0, 45, 64
3, 16560, Note_on_c, 0, 60, 80
3, 16560, Note_on_c, 0, 53, 80
3, 16776, Note_off_c, 0, 60, 64
3, 16776, Note_off_c, 0, 53, 64
3, 16800, Note_on_c, 0, 62, 80
3, 16800, Note_on_c, 0, 57, 80
3, 16800, Note_on_c, 0, 50, 80
3, 17016, Note_off_c, 0, 62, 64
3, 17016, Note_off_c, 0, 57, 64
3, 17016, Note_off_c, 0, 50, 64
3, 17040, Note_on_c, 0, 50, 80
3, 17148, Note_off_c, 0, 50, 64
3, 17160, Note_on_c, 0, 38, 80
3, 17250, Control_c, 0, 64, 0
3, 17268, Note_off_c, 0, 38, 64
3, 17280, Control_c, 0, 64, 112
3, 17280, Note_on_c, 0, 34, 80
3, 17280, Note_on_c, 0, 46, 80
3, 17496, Note_off_c, 0, 34, 64
3, 17496, Note_off_c, 0, 46, 64
3, 17520, Note_on_c, 0, 50, 80
3, 17520, Note_on_c, 0, 53, 80
3, 17736, Note_off_c, 0, 50, 64
3, 17736, Note_off_c, 0, 53, 64
3, 17760, Note_on_c, 0, 46, 80
3, 17976, Note_off_c, 0, 46, 64
3, 18000, Note_on_c, 0, 50, 80
3, 18000, Note_on_c, 0, 53, 80
3, 18210, Control_c, 0, 64, 0
3, 18216, Note_off_c, 0, 50, 64
3, 18216, Note_off_c, 0, 53, 64
3, 18240, Control_c, 0, 64, 112
3, 18240, Note_on_c, 0, 36, 80
3, 18240, Note_on_c, 0, 48, 80
3, 18456, Note_off_c, 0, 36, 64
3, 18456, Note_off_c, 0, 48, 64
3, 18480, Note_on_c, 0, 52, 80
3, 18480, Note_on_c, 0, 55, 80
3, 18696, Note_off_c, 0, 52, 64
3, 18696, Note_off_c, 0, 55, 64
3, 18720, Note_on_c, 0, 48, 80
3, 18936, Note_off_c, 0, 48, 64
3, 18960, Note_on_c, 0, 52, 80
3, 18960, Note_on_c, 0, 55, 80
3, 19170, Control_c, 0, 64, 0
3, 19176, Note_off_c, 0, 52, 64
3, 19176, Note_off_c, 0, 55, 64
3, 19200, Control_c, 0, 64, 112
3, 19200, Note_on_c, 0, 38, 80
3, 19200, Note_on_c, 0, 50, 80
3, 19416, Note_off_c, 0, 38, 64
3, 19416, Note_off_c, 0, 50, 64
3, 19440, Note_on_c, 0, 53, 80
3, 19440, Note_on_c, 0, 57, 80
3, 19656, Note_off_c, 0, 53, 64
3, 19656, Note_off_c, 0, 57, 64
3, 19680, Note_on_c, 0, 41, 80
3, 19896, Note_off_c, 0, 41, 64
3, 19920, Note_on_c, 0, 53, 80
3, 19920, Note_on_c, 0, 57, 80
3, 20136, Note_off_c, 0, 53, 64
3, 20136, Note_off_c, 0, 57, 64
3, 20160, Note_on_c, 0, 45, 80
3, 20160, Note_on_c, 0, 53, 80
3, 20376, Note_off_c, 0, 45, 64
3, 20376, Note_off_c, 0, 53, 64
3, 20400, Note_on_c, 0, 50, 80
3, 20400, Note_on_c, 0, 57, 80
3, 20616, Note_off_c, 0, 50, 64
3, 20616, Note_off_c, 0, 57, 64
3, 20640, Note_on_c, 0, 41, 80
3, 20640, Note_on_c, 0, 53, 80
3, 20856, Note_off_c, 0, 41, 64
3, 20856, Note_off_c, 0, 53, 64
3, 20880, Note_on_c, 0, 45, 80
3, 20880, Note_on_c, 0, 50, 80
3, 21090, Control_c, 0, 64, 0
3, 21096, Note_off_c, 0, 45, 64
3, 21096, Note_off_c, 0, 50, 64
3, 21120, Control_c, 0, 64, 119
3, 21120, Note_on_c, 0, 34, 80
3, 21120, Note_on_c, 0, 46, 80
3, 21336, Note_off_c, 0, 34, 64
3, 21336, Note_off_c, 0, 46, 64
3, 21360, Note_on_c, 0, 50, 80
3, 21360, Note_on_c, 0, 53, 80
3, 21576, Note_off_c, 0, 50, 64
3, 21576, Note_off_c, 0, 53, 64
3, 21600, Note_on_c, 0, 46, 80
3, 21816, Note_off_c, 0, 46, 64
3, 21840, Note_on_c, 0, 50, 80
3, 21840, Note_on_c, 0, 53, 80
3, 22050, Control_c, 0, 64, 0
3, 22056, Note_off_c, 0, 50, 64
3, 22056, Note_off_c, 0, 53, 64
3, 22080, Control_c, 0, 64, 117
3, 22080, Note_on_c, 0, 36, 80
3, 22080, Note_on_c, 0, 48, 80
3, 22296, Note_off_c, 0, 36, 64
3, 22296, Note_off_c, 0, 48, 64
3, 22320, Note_on_c, 0, 52, 80
3, 22320, Note_on_c, 0, 55, 80
3, 22536, Note_off_c, 0, 52, 64
3, 22536, Note_off_c, 0, 55, 64
3, 22560, Note_on_c, 0, 48, 80
3, 22776, Note_off_c, 0, 48, 64
3, 22800, Note_on_c, 0, 52, 80
3, 22800, Note_on_c, 0, 55, 80
3, 23010, Control_c, 0, 64, 0
3, 23016, Note_off_c, 0, 52, 64
3, 23016, Note_off_c, 0, 55, 64
3, 23040, Control_c, 0, 64, 117
3, 23040, Note_on_c, 0, 38, 80
3, 23040, Note_on_c, 0, 45, 80
3, 23040, Note_on_c, 0, 50, 80
3, 23400, Note_off_c, 0, 38, 64
3, 23400, Note_off_c, 0, 45, 64
3, 23400, Note_off_c, 0, 50, 64
3, 23400, Note_on_c, 0, 38, 80
3, 23400, Note_on_c, 0, 45, 80
3, 23400, Note_on_c, 0, 50, 80
3, 23760, Note_off_c, 0, 38, 64
3, 23760, Note_off_c, 0, 45, 64
3, 23760, Note_off_c, 0, 50, 64
3, 23760, Note_on_c, 0, 41, 80
3, 23760, Note_on_c, 0, 48, 80
3, 23760, Note_on_c, 0, 53, 80
3, 23970, Control_c, 0, 64, 0
3, 23976, Note_off_c, 0, 41, 64
3, 23976, Note_off_c, 0, 48, 64
3, 23976, Note_off_c, 0, 53, 64
3, 24000, Control_c, 0, 64, 119
3, 24000, Note_on_c, 0, 38, 80
3, 24000, Note_on_c, 0, 45, 80
3, 24000, Note_on_c, 0, 50, 80
3, 24432, Note_off_c, 0, 38, 64
3, 24432, Note_off_c, 0, 45, 64
3, 24432, Note_off_c, 0, 50, 64
3, 24480, Note_on_c, 0, 50, 80
3, 24588, Note_off_c, 0, 50, 64
3, 24600, Note_on_c, 0, 45, 80
3, 24708, Note_off_c, 0, 45, 64
3, 24720, Note_on_c, 0, 41, 80
3, 24828, Note_off_c, 0, 41, 64
3, 24840, Note_on_c, 0, 38, 80
3, 24930, Control_c, 0, 64, 0
3, 24948, Note_off_c, 0, 38, 64
3, 24960, Control_c, 0, 64, 119
3, 24960, Note_on_c, 0, 34, 80
3, 24960, Note_on_c, 0, 46, 80
3, 25176, Note_off_c, 0, 34, 64
3, 25176, Note_off_c, 0, 46, 64
3, 25200, Note_on_c, 0, 53, 80
3, 25200, Note_on_c, 0, 58, 80
3, 25200, Note_on_c, 0, 62, 80
3, 25416, Note_off_c, 0, 53, 64
3, 25416, Note_off_c, 0, 58, 64
3, 25416, Note_off_c, 0, 62, 64
3, 25440, Note_on_c, 0, 46, 80
3, 25656, Note_off_c, 0, 46, 64
3, 25680, Note_on_c, 0, 53, 80
3, 25680, Note_on_c, 0, 58, 80
3, 25680, Note_on_c, 0, 62, 80
3, 25890, Control_c, 0, 64, 0
3, 25896, Note_off_c, 0, 53, 64
3, 25896, Note_off_c, 0, 58, 64
3, 25896, Note_off_c, 0, 62, 64
3, 25920, Control_c, 0, 64, 119
3, 25920, Note_on_c, 0, 48, 80
3, 25920, Note_on_c, 0, 36, 80
3, 26136, Note_off_c, 0, 48, 64
3, 26136, Note_off_c, 0, 36, 64
3, 26160, Note_on_c, 0, 64, 80
3, 26160, Note_on_c, 0, 60, 80
3, 26160, Note_on_c, 0, 55, 80
3, 26376, Note_off_c, 0, 64, 64
3, 26376, Note_off_c, 0, 60, 64
3, 26376, Note_off_c, 0, 55, 64
3, 26400, Note_on_c, 0, 48, 80
3, 26616, Note_off_c, 0, 48, 64
3, 26640, Note_on_c, 0, 64, 80
3, 26640, Note_on_c, 0, 60, 80
3, 26640, Note_on_c, 0, 55, 80
3, 26850, Control_c, 0, 64, 0
3, 26856, Note_off_c, 0, 64, 64
3, 26856, Note_off_c, 0, 60, 64
3, 26856, Note_off_c, 0, 55, 64
3, 26880, Control_c, 0, 64, 118
3, 26880, Note_on_c, 0, 50, 80
3, 26880, Note_on_c, 0, 38, 80
3, 27096, Note_off_c, 0, 50, 64
3, 27096, Note_off_c, 0, 38, 64
3, 27120, Note_on_c, 0, 62, 80
3, 27120, Note_on_c, 0, 57, 80
3, 27120, Note_on_c, 0, 53, 80
3, 27336, Note_off_c, 0, 62, 64
3, 27336, Note_off_c, 0, 57, 64
3, 27336, Note_off_c, 0, 53, 64
3, 27360, Note_on_c, 0, 41, 80
3, 27576, Note_off_c, 0, 41, 64
3, 27600, Note_on_c, 0, 62, 80
3, 27600, Note_on_c, 0, 57, 80
3, 27600, Note_on_c, 0, 53, 80
3, 27816, Note_off_c, 0, 62, 64
3, 27816, Note_off_c, 0, 57, 64
3, 27816, Note_off_c, 0, 53, 64
3, 27840, Note_on_c, 0, 53, 80
3, 27840, Note_on_c, 0, 45, 80
3, 28056, Note_off_c, 0, 53, 64
3, 28056, Note_off_c, 0, 45, 64
3, 28080, Note_on_c, 0, 57, 80
3, 28080, Note_on_c, 0, 50, 80
3, 28296, Note_off_c, 0, 57, 64
3, 28296, Note_off_c, 0, 50, 64
3, 28320, Note_on_c, 0, 38, 80
3, 28428, Note_off_c, 0, 38, 64
3, 28440, Note_on_c, 0, 45, 80
3, 28548, Note_off_c, 0, 45, 64
3, 28560, Note_on_c, 0, 50, 80
3, 28668, Note_off_c, 0, 50, 64
3, 28680, Note_on_c, 0, 45, 80
3, 28770, Control_c, 0, 64, 0
3, 28788, Note_off_c, 0, 45, 64
3, 28800, Control_c, 0, 64, 119
3, 28800, Note_on_c, 0, 34, 80
3, 28800, Note_on_c, 0, 46, 80
3, 29016, Note_off_c, 0, 34, 64
3, 29016, Note_off_c, 0, 46, 64
3, 29040, Note_on_c, 0, 53, 80
3, 29040, Note_on_c, 0, 58, 80
3, 29040, Note_on_c, 0, 62, 80
3, 29256, Note_off_c, 0, 53, 64
3, 29256, Note_off_c, 0, 58, 64
3, 29256, Note_off_c, 0, 62, 64
3, 29280, Note_on_c, 0, 46, 80
3, 29496, Note_off_c, 0, 46, 64
3, 29520, Note_on_c, 0, 53, 80
3, 29520, Note_on_c, 0, 58, 80
3, 29520, Note_on_c, 0, 62, 80
3, 29730, Control_c, 0, 64, 0
3, 29736, Note_off_c, 0, 53, 64
3, 29736, Note_off_c, 0, 58, 64
3, 29736, Note_off_c, 0, 62, 64
3, 29760, Control_c, 0, 64, 118
3, 29760, Note_on_c, 0, 48, 80
3, 29760, Note_on_c, 0, 36, 80
3, 29976, Note_off_c, 0, 48, 64
3, 29976, Note_off_c, 0, 36, 64
3, 30000, Note_on_c, 0, 64, 80
3, 30000, Note_on_c, 0, 60, 80
3, 30000, Note_on_c, 0, 55, 80
3, 30216, Note_off_c, 0, 64, 64
3, 30216, Note_off_c, 0, 60, 64
3, 30216, Note_off_c, 0, 55, 64
3, 30240, Note_on_c, 0, 48, 80
3, 30456, Note_off_c, 0, 48, 64
3, 30480, Note_on_c, 0, 64, 80
3, 30480, Note_on_c, 0, 60, 80
3, 30480, Note_on_c, 0, 55, 80
3, 30690, Control_c, 0, 64, 0
3, 30696, Note_off_c, 0, 64, 64
3, 30696, Note_off_c, 0, 60, 64
3, 30696, Note_off_c, 0, 55, 64
3, 30720, Control_c, 0, 64, 118
3, 30720, Note_on_c, 0, 50, 80
3, 30720, Note_on_c, 0, 38, 80
3, 30936, Note_off_c, 0, 50, 64
3, 30936, Note_off_c, 0, 38, 64
3, 30960, Note_on_c, 0, 62, 80
3, 30960, Note_on_c, 0, 57, 80
3, 30960, Note_on_c, 0, 53, 80
3, 31176, Note_off_c, 0, 62, 64
3, 31176, Note_off_c, 0, 57, 64
3, 31176, Note_off_c, 0, 53, 64
3, 31200, Note_on_c, 0, 41, 80
3, 31416, Note_off_c, 0, 41, 64
3, 31440, Note_on_c, 0, 65, 80
3, 31440, Note_on_c, 0, 62, 80
3, 31440, Note_on_c, 0, 57, 80
3, 31656, Note_off_c, 0, 65, 64
3, 31656, Note_off_c, 0, 62, 64
3, 31656, Note_off_c, 0, 57, 64
3, 31680, Note_on_c, 0, 57, 80
3, 31680, Note_on_c, 0, 45, 80
3, 31896, Note_off_c, 0, 57, 64
3, 31896, Note_off_c, 0, 45, 64
3, 31920, Note_on_c, 0, 62, 80
3, 31920, Note_on_c, 0, 53, 80
3, 32136, Note_off_c, 0, 62, 64
3, 32136, Note_off_c, 0, 53, 64
3, 32160, Note_on_c, 0, 57, 80
3, 32268, Note_off_c, 0, 57, 64
3, 32280, Note_on_c, 0, 50, 80
3, 32388, Note_off_c, 0, 50, 64
3, 32400, Note_on_c, 0, 45, 80
3, 32508, Note_off_c, 0, 45, 64
3, 32520, Note_on_c, 0, 38, 80
3, 32610, Control_c, 0, 64, 0
3, 32628, Note_off_c, 0, 38, 64
3, 32640, Control_c, 0, 64, 120
3, 32640, Note_on_c, 0, 34, 80
3, 32640, Note_on_c, 0, 46, 80
3, 32856, Note_off_c, 0, 34, 64
3, 32856, Note_off_c, 0, 46, 64
3, 32880, Note_on_c, 0, 53, 80
3, 32880, Note_on_c, 0, 58, 80
3, 32880, Note_on_c, 0, 62, 80
3, 33096, Note_off_c, 0, 53, 64
3, 33096, Note_off_c, 0, 58, 64
3, 33096, Note_off_c, 0, 62, 64
3, 33120, Note_on_c, 0, 46, 80
3, 33336, Note_off_c, 0, 46, 64
3, 33360, Note_on_c, 0, 53, 80
3, 33360, Note_on_c, 0, 58, 80
3, 33360, Note_on_c, 0, 62, 80
3, 33570, Control_c, 0, 64, 0
3, 33576, Note_off_c, 0, 53, 64
3, 33576, Note_off_c, 0, 58, 64
3, 33576, Note_off_c, 0, 62, 64
3, 33600, Control_c, 0, 64, 117
3, 33600, Note_on_c, 0, 48, 80
3, 33600, Note_on_c, 0, 36, 80
3, 33816, Note_off_c, 0, 48, 64
3, 33816, Note_off_c, 0, 36, 64
3, 33840, Note_on_c, 0, 64, 80
3, 33840, Note_on_c, 0, 60, 80
3, 33840, Note_on_c, 0, 55, 80
3, 34056, Note_off_c, 0, 64, 64
3, 34056, Note_off_c, 0, 60, 64
3, 34056, Note_off_c, 0, 55, 64
3, 34080, Note_on_c, 0, 48, 80
3, 34296, Note_off_c, 0, 48, 64
3, 34320, Note_on_c, 0, 64, 80
3, 34320, Note_on_c, 0, 60, 80
3, 34320, Note_on_c, 0, 55, 80
3, 34530, Control_c, 0, 64, 0
3, 34536, Note_off_c, 0, 64, 64
3, 34536, Note_off_c, 0, 60, 64
3, 34536, Note_off_c, 0, 55, 64
3, 34560, Control_c, 0, 64, 117
3, 34560, Note_on_c, 0, 50, 80
3, 34560, Note_on_c, 0, 38, 80
3, 34776, Note_off_c, 0, 50, 64
3, 34776, Note_off_c, 0, 38, 64
3, 34800, Note_on_c, 0, 62, 80
3, 34800, Note_on_c, 0, 57, 80
3, 34800, Note_on_c, 0, 53, 80
3, 35016, Note_off_c, 0, 62, 64
3, 35016, Note_off_c, 0, 57, 64
3, 35016, Note_off_c, 0, 53, 64
3, 35040, Note_on_c, 0, 41, 80
3, 35256, Note_off_c, 0, 41, 64
3, 35280, Note_on_c, 0, 62, 80
3, 35280, Note_on_c, 0, 57, 80
3, 35280, Note_on_c, 0, 53, 80
3, 35496, Note_off_c, 0, 62, 64
3, 35496, Note_off_c, 0, 57, 64
3, 35496, Note_off_c, 0, 53, 64
3, 35520, Note_on_c, 0, 53, 80
3, 35520, Note_on_c, 0, 45, 80
3, 35736, Note_off_c, 0, 53, 64
3, 35736, Note_off_c, 0, 45, 64
3, 35760, Note_on_c, 0, 57, 80
3, 35760, Note_on_c, 0, 50, 80
3, 35976, Note_off_c, 0, 57, 64
3, 35976, Note_off_c, 0, 50, 64
3, 36000, Note_on_c, 0, 38, 80
3, 36108, Note_off_c, 0, 38, 64
3, 36120, Note_on_c, 0, 45, 80
3, 36228, Note_off_c, 0, 45, 64
3, 36240, Note_on_c, 0, 50, 80
3, 36348, Note_off_c, 0, 50, 64
3, 36360, Note_on_c, 0, 45, 80
3, 36450, Control_c, 0, 64, 0
3, 36468, Note_off_c, 0, 45, 64
3, 36480, Control_c, 0, 64, 119
3, 36480, Note_on_c, 0, 34, 80
3, 36480, Note_on_c, 0, 46, 80
3, 36696, Note_off_c, 0, 34, 64
3, 36696, Note_off_c, 0, 46, 64
3, 36720, Note_on_c, 0, 53, 80
3, 36720, Note_on_c, 0, 58, 80
3, 36720, Note_on_c, 0, 62, 80
3, 36936, Note_off_c, 0, 53, 64
3, 36936, Note_off_c, 0, 58, 64
3, 36936, Note_off_c, 0, 62, 64
3, 36960, Note_on_c, 0, 46, 80
3, 37176, Note_off_c, 0, 46, 64
3, 37200, Note_on_c, 0, 53, 80
3, 37200, Note_on_c, 0, 58, 80
3, 37200, Note_on_c, 0, 62, 80
3, 37410, Control_c, 0, 64, 0
3, 37416, Note_off_c, 0, 53, 64
3, 37416, Note_off_c, 0, 58, 64
3, 37416, Note_off_c, 0, 62, 64
3, 37440, Control_c, 0, 64, 119
3, 37440, Note_on_c, 0, 48, 80
3, 37440, Note_on_c, 0, 36, 80
3, 37656, Note_off_c, 0, 48, 64
3, 37656, Note_off_c, 0, 36, 64
3, 37680, Note_on_c, 0, 64, 80
3, 37680, Note_on_c, 0, 60, 80
3, 37680, Note_on_c, 0, 55, 80
3, 37896, Note_off_c, 0, 64, 64
3, 37896, Note_off_c, 0, 60, 64
3, 37896, Note_off_c, 0, 55, 64
3, 37920, Note_on_c, 0, 36, 80
3, 38028, Note_off_c, 0, 36, 64
3, 38040, Note_on_c, 0, 43, 80
3, 38148, Note_off_c, 0, 43, 64
3, 38160, Note_on_c, 0, 48, 80
3, 38268, Note_off_c, 0, 48, 64
3, 38280, Note_on_c, 0, 52, 80
3, 38370, Control_c, 0, 64, 0
3, 38388, Note_off_c, 0, 52, 64
3, 38400, Control_c, 0, 64, 118
3, 38400, Note_on_c, 0, 38, 80
3, 38400, Note_on_c, 0, 45, 80
3, 38400, Note_on_c, 0, 50, 80
3, 38760, Note_off_c, 0, 38, 64
3, 38760, Note_off_c, 0, 45, 64
3, 38760, Note_off_c, 0, 50, 64
3, 38760, Note_on_c, 0, 38, 80
3, 38760, Note_on_c, 0, 45, 80
3, 38760, Note_on_c, 0, 50, 80
3, 39120, Note_off_c, 0, 38, 64
3, 39120, Note_off_c, 0, 45, 64
3, 39120, Note_off_c, 0, 50, 64
3, 39120, Note_on_c, 0, 41, 80
3, 39120, Note_on_c, 0, 50, 80
3, 39336, Note_off_c, 0, 41, 64
3, 39336, Note_off_c, 0, 50, 64
3, 39360, Control_c, 0, 64, 0
3, 39360, Note_on_c, 0, 38, 80
3, 39360, Note_on_c, 0, 45, 80
3, 39360, Note_on_c, 0, 50, 80
3, 39390, Control_c, 0, 64, 117
3, 39792, Note_off_c, 0, 38, 64
3, 39792, Note_off_c, 0, 45, 64
3, 39792, Note_off_c, 0, 50, 64
3, 39840, Note_on_c, 0, 26, 80
3, 39840, Note_on_c, 0, 38, 80
3, 40272, Note_off_c, 0, 26, 64
3, 40272, Note_off_c, 0, 38, 64
3, 40290, Control_c, 0, 64, 0
3, 40320, Control_c, 0, 64, 114
3, 40320, Note_on_c, 0, 38, 80
3, 40320, Note_on_c, 0, 50, 80
3, 40752, Note_off_c, 0, 38, 64
3, 40752, Note_off_c, 0, 50, 64
3, 40800, Note_on_c, 0, 38, 80
3, 40800, Note_on_c, 0, 50, 80
3, 41160, Note_off_c, 0, 38, 64
3, 41160, Note_off_c, 0, 50, 64
3, 41160, Note_on_c, 0, 50, 80
3, 41268, Note_off_c, 0, 50, 64
3, 41280, Note_on_c, 0, 38, 80
3, 41280, Note_on_c, 0, 50, 80
3, 41496, Note_off_c, 0, 38, 64
3, 41496, Note_off_c, 0, 50, 64
3, 41520, Note_on_c, 0, 38, 80
3, 41520, Note_on_c, 0, 50, 80
3, 41736, Note_off_c, 0, 38, 64
3, 41736, Note_off_c, 0, 50, 64
3, 41760, Note_on_c, 0, 45, 80
3, 41760, Note_on_c, 0, 50, 80
3, 41976, Note_off_c, 0, 45, 64
3, 41976, Note_off_c, 0, 50, 64
3, 42000, Note_on_c, 0, 48, 80
3, 42000, Note_on_c, 0, 53, 80
3, 42210, Control_c, 0, 64, 0
3, 42216, Note_off_c, 0, 48, 64
3, 42216, Note_off_c, 0, 53, 64
3, 42240, Control_c, 0, 64, 117
3, 42240, Note_on_c, 0, 34, 80
3, 42240, Note_on_c, 0, 46, 80
3, 42564, Note_off_c, 0, 34, 64
3, 42564, Note_off_c, 0, 46, 64
3, 42600, Note_on_c, 0, 34, 80
3, 42600, Note_on_c, 0, 46, 80
3, 42708, Note_off_c, 0, 34, 64
3, 42708, Note_off_c, 0, 46, 64
3, 42720, Note_on_c, 0, 34, 80
3, 42720, Note_on_c, 0, 46, 80
3, 43152, Note_off_c, 0, 34, 64
3, 43152, Note_off_c, 0, 46, 64
3, 43170, Control_c, 0, 64, 0
3, 43200, Control_c, 0, 64, 115
3, 43200, Note_on_c, 0, 36, 80
3, 43200, Note_on_c, 0, 48, 80
3, 43524, Note_off_c, 0, 36, 64
3, 43524, Note_off_c, 0, 48, 64
3, 43560, Note_on_c, 0, 36, 80
3, 43560, Note_on_c, 0, 48, 80
3, 43668, Note_off_c, 0, 36, 64
3, 43668, Note_off_c, 0, 48, 64
3, 43680, Note_on_c, 0, 36, 80
3, 43680, Note_on_c, 0, 48, 80
3, 44112, Note_off_c, 0, 36, 64
3, 44112, Note_off_c, 0, 48, 64
3, 44130, Control_c, 0, 64, 0
3, 44160, Control_c, 0, 64, 115
3, 44160, Note_on_c, 0, 38, 80
3, 44160, Note_on_c, 0, 50, 80
3, 44592, Note_off_c, 0, 38, 64
3, 44592, Note_off_c, 0, 50, 64
3, 44640, Note_on_c, 0, 38, 80
3, 44640, Note_on_c, 0, 50, 80
3, 45000, Note_off_c, 0, 38, 64
3, 45000, Note_off_c, 0, 50, 64
3, 45000, Note_on_c, 0, 50, 80
3, 45108, Note_off_c, 0, 50, 64
3, 45120, Note_on_c, 0, 38, 80
3, 45120, Note_on_c, 0, 50, 80
3, 45336, Note_off_c, 0, 38, 64
3, 45336, Note_off_c, 0, 50, 64
3, 45360, Note_on_c, 0, 38, 80
3, 45360, Note_on_c, 0, 50, 80
3, 45576, Note_off_c, 0, 38, 64
3, 45576, Note_off_c, 0, 50, 64
3, 45600, Note_on_c, 0, 48, 80
3, 45600, Note_on_c, 0, 53, 80
3, 45816, Note_off_c, 0, 48, 64
3, 45816, Note_off_c, 0, 53, 64
3, 45840, Note_on_c, 0, 50, 80
3, 45840, Note_on_c, 0, 57, 80
3, 46050, Control_c, 0, 64, 0
3, 46056, Note_off_c, 0, 50, 64
3, 46056, Note_off_c, 0, 57, 64
3, 46080, Control_c, 0, 64, 116
3, 46080, Note_on_c, 0, 34, 80
3, 46080, Note_on_c, 0, 46, 80
3, 46440, Note_off_c, 0, 34, 64
3, 46440, Note_off_c, 0, 46, 64
3, 46440, Note_on_c, 0, 46, 80
3, 46548, Note_off_c, 0, 46, 64
3, 46560, Note_on_c, 0, 34, 80
3, 46560, Note_on_c, 0, 46, 80
3, 46992, Note_off_c, 0, 34, 64
3, 46992, Note_off_c, 0, 46, 64
3, 47010, Control_c, 0, 64, 0
3, 47040, Control_c, 0, 64, 116
3, 47040, Note_on_c, 0, 36, 80
3, 47040, Note_on_c, 0, 48, 80
3, 47400, Note_off_c, 0, 36, 64
3, 47400, Note_off_c, 0, 48, 64
3, 47400, Note_on_c, 0, 48, 80
3, 47508, Note_off_c, 0, 48, 64
3, 47520, Note_on_c, 0, 36, 80
3, 47520, Note_on_c, 0, 48, 80
3, 47952, Note_off_c, 0, 36, 64
3, 47952, Note_off_c, 0, 48, 64
3, 47970, Control_c, 0, 64, 0
3, 48000, Control_c, 0, 64, 117
3, 48000, Note_on_c, 0, 38, 80
3, 48000, Note_on_c, 0, 50, 80
3, 48240, Note_off_c, 0, 38, 64
3, 48240, Note_off_c, 0, 50, 64
3, 48240, Note_on_c, 0, 38, 80
3, 48240, Note_on_c, 0, 50, 80
3, 48432, Note_off_c, 0, 38, 64
3, 48432, Note_off_c, 0, 50, 64
3, 48480, Note_on_c, 0, 38, 80
3, 48480, Note_on_c, 0, 50, 80
3, 48840, Note_off_c, 0, 38, 64
3, 48840, Note_off_c, 0, 50, 64
3, 48840, Note_on_c, 0, 50, 80
3, 48948, Note_off_c, 0, 50, 64
3, 48960, Note_on_c, 0, 38, 80
3, 48960, Note_on_c, 0, 50, 80
3, 49176, Note_off_c, 0, 38, 64
3, 49176, Note_off_c, 0, 50, 64
3, 49200, Note_on_c, 0, 38, 80
3, 49200, Note_on_c, 0, 50, 80
3, 49416, Note_off_c, 0, 38, 64
3, 49416, Note_off_c, 0, 50, 64
3, 49440, Note_on_c, 0, 45, 80
3, 49440, Note_on_c, 0, 50, 80
3, 49656, Note_off_c, 0, 45, 64
3, 49656, Note_off_c, 0, 50, 64
3, 49680, Note_on_c, 0, 48, 80
3, 49680, Note_on_c, 0, 53, 80
3, 49890, Control_c, 0, 64, 0
3, 49896, Note_off_c, 0, 48, 64
3, 49896, Note_off_c, 0, 53, 64
3, 49920, Control_c, 0, 64, 112
3, 49920, Note_on_c, 0, 34, 80
3, 49920, Note_on_c, 0, 46, 80
3, 50244, Note_off_c, 0, 34, 64
3, 50244, Note_off_c, 0, 46, 64
3, 50280, Note_on_c, 0, 34, 80
3, 50280, Note_on_c, 0, 46, 80
3, 50388, Note_off_c, 0, 34, 64
3, 50388, Note_off_c, 0, 46, 64
3, 50400, Note_on_c, 0, 34, 80
3, 50400, Note_on_c, 0, 46, 80
3, 50832, Note_off_c, 0, 34, 64
3, 50832, Note_off_c, 0, 46, 64
3, 50850, Control_c, 0, 64, 0
3, 50880, Control_c, 0, 64, 113
3, 50880, Note_on_c, 0, 36, 80
3, 50880, Note_on_c, 0, 48, 80
3, 51204, Note_off_c, 0, 36, 64
3, 51204, Note_off_c, 0, 48, 64
3, 51240, Note_on_c, 0, 36, 80
3, 51240, Note_on_c, 0, 48, 80
3, 51348, Note_off_c, 0, 36, 64
3, 51348, Note_off_c, 0, 48, 64
3, 51360, Note_on_c, 0, 36, 80
3, 51360, Note_on_c, 0, 48, 80
3, 51792, Note_off_c, 0, 36, 64
3, 51792, Note_off_c, 0, 48, 64
3, 51810, Control_c, 0, 64, 0
3, 51840, Control_c, 0, 64, 113
3, 51840, Note_on_c, 0, 38, 80
3, 51840, Note_on_c, 0, 50, 80
3, 52080, Note_off_c, 0, 38, 64
3, 52080, Note_off_c, 0, 50, 64
3, 52080, Note_on_c, 0, 38, 80
3, 52080, Note_on_c, 0, 50, 80
3, 52272, Note_off_c, 0, 38, 64
3, 52272, Note_off_c, 0, 50, 64
3, 52320, Note_on_c, 0, 38, 80
3, 52320, Note_on_c, 0, 50, 80
3, 52680, Note_off_c, 0, 38, 64
3, 52680, Note_off_c, 0, 50, 64
3, 52680, Note_on_c, 0, 50, 80
3, 52788, Note_off_c, 0, 50, 64
3, 52800, Note_on_c, 0, 38, 80
3, 52800, Note_on_c, 0, 50, 80
3, 53016, Note_off_c, 0, 38, 64
3, 53016, Note_off_c, 0, 50, 64
3, 53040, Note_on_c, 0, 38, 80
3, 53040, Note_on_c, 0, 50, 80
3, 53256, Note_off_c, 0, 38, 64
3, 53256, Note_off_c, 0, 50, 64
3, 53280, Note_on_c, 0, 45, 80
3, 53280, Note_on_c, 0, 50, 80
3, 53496, Note_off_c, 0, 45, 64
3, 53496, Note_off_c, 0, 50, 64
3, 53520, Note_on_c, 0, 48, 80
3, 53520, Note_on_c, 0, 53, 80
3, 53730, Control_c, 0, 64, 0
3, 53736, Note_off_c, 0, 48, 64
3, 53736, Note_off_c, 0, 53, 64
3, 53760, Control_c, 0, 64, 113
3, 53760, Note_on_c, 0, 34, 80
3, 53760, Note_on_c, 0, 46, 80
3, 53976, Note_off_c, 0, 34, 64
3, 53976, Note_off_c, 0, 46, 64
3, 54000, Note_on_c, 0, 34, 80
3, 54000, Note_on_c, 0, 46, 80
3, 54216, Note_off_c, 0, 34, 64
3, 54216, Note_off_c, 0, 46, 64
3, 54240, Note_on_c, 0, 34, 80
3, 54240, Note_on_c, 0, 46, 80
3, 54600, Note_off_c, 0, 34, 64
3, 54600, Note_off_c, 0, 46, 64
3, 54600, Note_on_c, 0, 46, 80
3, 54690, Control_c, 0, 64, 0
3, 54708, Note_off_c, 0, 46, 64
3, 54720, Control_c, 0, 64, 116
3, 54720, Note_on_c, 0, 36, 80
3, 54720, Note_on_c, 0, 48, 80
3, 54936, Note_off_c, 0, 36, 64
3, 54936, Note_off_c, 0, 48, 64
3, 54960, Note_on_c, 0, 36, 80
3, 55068, Note_off_c, 0, 36, 64
3, 55080, Note_on_c, 0, 48, 80
3, 55188, Note_off_c, 0, 48, 64
3, 55200, Note_on_c, 0, 36, 80
3, 55308, Note_off_c, 0, 36, 64
3, 55320, Note_on_c, 0, 48, 80
3, 55428, Note_off_c, 0, 48, 64
3, 55440, Note_on_c, 0, 36, 80
3, 55548, Note_off_c, 0, 36, 64
3, 55560, Note_on_c, 0, 48, 80
3, 55650, Control_c, 0, 64, 0
3, 55668, Note_off_c, 0, 48, 64
3, 55680, Control_c, 0, 64, 119
3, 55680, Note_on_c, 0, 34, 80
3, 55896, Note_off_c, 0, 34, 64
3, 55920, Note_on_c, 0, 46, 80
3, 56136, Note_off_c, 0, 46, 64
3, 56160, Note_on_c, 0, 34, 80
3, 56484, Note_off_c, 0, 34, 64
3, 56520, Note_on_c, 0, 46, 80
3, 56628, Note_off_c, 0, 46, 64
3, 56640, Note_on_c, 0, 34, 80
3, 56856, Note_off_c, 0, 34, 64
3, 56880, Note_on_c, 0, 46, 80
3, 57096, Note_off_c, 0, 46, 64
3, 57120, Note_on_c, 0, 34, 80
3, 57444, Note_off_c, 0, 34, 64
3, 57480, Note_on_c, 0, 46, 80
3, 57570, Control_c, 0, 64, 0
3, 57588, Note_off_c, 0, 46, 64
3, 57600, Control_c, 0, 64, 119
3, 57600, Note_on_c, 0, 29, 80
3, 57816, Note_off_c, 0, 29, 64
3, 57840, Note_on_c, 0, 41, 80
3, 58056, Note_off_c, 0, 41, 64
3, 58080, Note_on_c, 0, 29, 80
3, 58404, Note_off_c, 0, 29, 64
3, 58440, Note_on_c, 0, 41, 80
3, 58548, Note_off_c, 0, 41, 64
3, 58560, Note_on_c, 0, 41, 80
3, 58776, Note_off_c, 0, 41, 64
3, 58800, Note_on_c, 0, 41, 80
3, 59016, Note_off_c, 0, 41, 64
3, 59040, Note_on_c, 0, 41, 80
3, 59256, Note_off_c, 0, 41, 64
3, 59280, Note_on_c, 0, 41, 80
3, 59490, Control_c, 0, 64, 0
3, 59496, Note_off_c, 0, 41, 64
3, 59520, Control_c, 0, 64, 119
3, 59520, Note_on_c, 0, 34, 80
3, 59736, Note_off_c, 0, 34, 64
3, 59760, Note_on_c, 0, 46, 80
3, 59976, Note_off_c, 0, 46, 64
3, 60000, Note_on_c, 0, 34, 80
3, 60324, Note_off_c, 0, 34, 64
3, 60360, Note_on_c, 0, 46, 80
3, 60450, Control_c, 0, 64, 0
3, 60468, Note_off_c, 0, 46, 64
3, 60480, Control_c, 0, 64, 120
3, 60480, Note_on_c, 0, 36, 80
3, 60696, Note_off_c, 0, 36, 64
3, 60720, Note_on_c, 0, 48, 80
3, 60936, Note_off_c, 0, 48, 64
3, 60960, Note_on_c, 0, 36, 80
3, 61176, Note_off_c, 0, 36, 64
3, 61200, Note_on_c, 0, 36, 80
3, 61308, Note_off_c, 0, 36, 64
3, 61320, Note_on_c, 0, 48, 80
3, 61410, Control_c, 0, 64, 0
3, 61428, Note_off_c, 0, 48, 64
3, 61440, Control_c, 0, 64, 116
3, 61440, Note_on_c, 0, 38, 80
3, 61656, Note_off_c, 0, 38, 64
3, 61680, Note_on_c, 0, 50, 80
3, 61896, Note_off_c, 0, 50, 64
3, 61920, Note_on_c, 0, 38, 80
3, 62028, Note_off_c, 0, 38, 64
3, 62040, Note_on_c, 0, 50, 80
3, 62148, Note_off_c, 0, 50, 64
3, 62160, Note_on_c, 0, 38, 80
3, 62268, Note_off_c, 0, 38, 64
3, 62280, Note_on_c, 0, 50, 80
3, 62388, Note_off_c, 0, 50, 64
3, 62400, Note_on_c, 0, 38, 80
3, 62616, Note_off_c, 0, 38, 64
3, 62640, Note_on_c, 0, 50, 80
3, 62856, Note_off_c, 0, 50, 64
3, 62880, Note_on_c, 0, 38, 80
3, 63096, Note_off_c, 0, 38, 64
3, 63120, Note_on_c, 0, 50, 80
3, 63330, Control_c, 0, 64, 0
3, 63336, Note_off_c, 0, 50, 64
3, 63360, Control_c, 0, 64, 117
3, 63360, Note_on_c, 0, 34, 80
3, 63576, Note_off_c, 0, 34, 64
3, 63600, Note_on_c, 0, 46, 80
3, 63816, Note_off_c, 0, 46, 64
3, 63840, Note_on_c, 0, 34, 80
3, 64164, Note_off_c, 0, 34, 64
3, 64200, Note_on_c, 0, 46, 80
3, 64308, Note_off_c, 0, 46, 64
3, 64320, Note_on_c, 0, 34, 80
3, 64536, Note_off_c, 0, 34, 64
3, 64560, Note_on_c, 0, 46, 80
3, 64776, Note_off_c, 0, 46, 64
3, 64800, Note_on_c, 0, 34, 80
3, 65124, Note_off_c, 0, 34, 64
3, 65160, Note_on_c, 0, 46, 80
3, 65250, Control_c, 0, 64, 0
3, 65268, Note_off_c, 0, 46, 64
3, 65280, Control_c, 0, 64, 119
3, 65280, Note_on_c, 0, 29, 80
3, 65496, Note_off_c, 0, 29, 64
3, 65520, Note_on_c, 0, 41, 80
3, 65736, Note_off_c, 0, 41, 64
3, 65760, Note_on_c, 0, 29, 80
3, 66084, Note_off_c, 0, 29, 64
3, 66120, Note_on_c, 0, 41, 80
3, 66228, Note_off_c, 0, 41, 64
3, 66240, Note_on_c, 0, 41, 80
3, 66456, Note_off_c, 0, 41, 64
3, 66480, Note_on_c, 0, 41, 80
3, 66696, Note_off_c, 0, 41, 64
3, 66720, Note_on_c, 0, 41, 80
3, 66936, Note_off_c, 0, 41, 64
3, 66960, Note_on_c, 0, 41, 80
3, 67170, Control_c, 0, 64, 0
3, 67176, Note_off_c, 0, 41, 64
3, 67200, Control_c, 0, 64, 120
3, 67200, Note_on_c, 0, 31, 80
3, 67200, Note_on_c, 0, 43, 80
3, 67416, Note_off_c, 0, 31, 64
3, 67416, Note_off_c, 0, 43, 64
3, 67440, Note_on_c, 0, 43, 80
3, 67872, Note_off_c, 0, 43, 64
3, 67920, Note_on_c, 0, 43, 80
3, 68136, Note_off_c, 0, 43, 64
3, 68160, Note_on_c, 0, 43, 80
3, 68160, Note_on_c, 0, 50, 80
3, 68592, Note_off_c, 0, 43, 64
3, 68592, Note_off_c, 0, 50, 64
3, 68640, Note_on_c, 0, 43, 80
3, 68640, Note_on_c, 0, 50, 80
3, 69072, Note_off_c, 0, 43, 64
3, 69072, Note_off_c, 0, 50, 64
3, 69090, Control_c, 0, 64, 0
3, 69120, Control_c, 0, 64, 120
3, 69120, Note_on_c, 0, 33, 80
3, 69120, Note_on_c, 0, 45, 80
3, 69336, Note_off_c, 0, 33, 64
3, 69336, Note_off_c, 0, 45, 64
3, 69360, Note_on_c, 0, 45, 80
3, 69576, Note_off_c, 0, 45, 64
3, 69600, Note_on_c, 0, 33, 80
3, 69600, Note_on_c, 0, 45, 80
3, 69816, Note_off_c, 0, 33, 64
3, 69816, Note_off_c, 0, 45, 64
3, 69840, Note_on_c, 0, 33, 80
3, 69840, Note_on_c, 0, 45, 80
3, 70056, Note_off_c, 0, 33, 64
3, 70056, Note_off_c, 0, 45, 64
3, 71010, Control_c, 0, 64, 0
3, 71040, Control_c, 0, 64, 114
3, 71040, Note_on_c, 0, 38, 80
3, 71040, Note_on_c, 0, 50, 80
3, 71256, Note_off_c, 0, 38, 64
3, 71256, Note_off_c, 0, 50, 64
3, 71280, Note_on_c, 0, 50, 80
3, 71388, Note_off_c, 0, 50, 64
3, 71400, Note_on_c, 0, 53, 80
3, 71508, Note_off_c, 0, 53, 64
3, 71520, Note_on_c, 0, 57, 80
3, 71520, Note_on_c, 0, 50, 80
3, 71736, Note_off_c, 0, 57, 64
3, 71736, Note_off_c, 0, 50, 64
3, 71760, Note_on_c, 0, 50, 80
3, 71970, Control_c, 0, 64, 0
3, 71976, Note_off_c, 0, 50, 64
3, 72000, Control_c, 0, 64, 116
3, 72000, Note_on_c, 0, 34, 80
3, 72000, Note_on_c, 0, 46, 80
3, 72216, Note_off_c, 0, 34, 64
3, 72216, Note_off_c, 0, 46, 64
3, 72240, Note_on_c, 0, 50, 80
3, 72348, Note_off_c, 0, 50, 64
3, 72360, Note_on_c, 0, 53, 80
3, 72468, Note_off_c, 0, 53, 64
3, 72480, Note_on_c, 0, 58, 80
3, 72480, Note_on_c, 0, 50, 80
3, 72696, Note_off_c, 0, 58, 64
3, 72696, Note_off_c, 0, 50, 64
3, 72720, Note_on_c, 0, 46, 80
3, 72930, Control_c, 0, 64, 0
3, 72936, Note_off_c, 0, 46, 64
3, 72960, Control_c, 0, 64, 114
3, 72960, Note_on_c, 0, 36, 80
3, 72960, Note_on_c, 0, 48, 80
3, 73176, Note_off_c, 0, 36, 64
3, 73176, Note_off_c, 0, 48, 64
3, 73200, Note_on_c, 0, 48, 80
3, 73308, Note_off_c, 0, 48, 64
3, 73320, Note_on_c, 0, 52, 80
3, 73428, Note_off_c, 0, 52, 64
3, 73440, Note_on_c, 0, 55, 80
3, 73440, Note_on_c, 0, 48, 80
3, 73656, Note_off_c, 0, 55, 64
3, 73656, Note_off_c, 0, 48, 64
3, 73680, Note_on_c, 0, 48, 80
3, 73890, Control_c, 0, 64, 0
3, 73896, Note_off_c, 0, 48, 64
3, 73920, Control_c, 0, 64, 116
3, 73920, Note_on_c, 0, 41, 80
3, 73920, Note_on_c, 0, 53, 80
3, 74136, Note_off_c, 0, 41, 64
3, 74136, Note_off_c, 0, 53, 64
3, 74160, Note_on_c, 0, 48, 80
3, 74268, Note_off_c, 0, 48, 64
3, 74280, Note_on_c, 0, 48, 80
3, 74388, Note_off_c, 0, 48, 64
3, 74400, Note_on_c, 0, 57, 80
3, 74400, Note_on_c, 0, 53, 80
3, 74616, Note_off_c, 0, 57, 64
3, 74616, Note_off_c, 0, 53, 64
3, 74640, Note_on_c, 0, 48, 80
3, 74850, Control_c, 0, 64, 0
3, 74856, Note_off_c, 0, 48, 64
3, 74880, Control_c, 0, 64, 117
3, 74880, Note_on_c, 0, 38, 80
3, 74880, Note_on_c, 0, 50, 80
3, 75096, Note_off_c, 0, 38, 64
3, 75096, Note_off_c, 0, 50, 64
3, 75120, Note_on_c, 0, 50, 80
3, 75228, Note_off_c, 0, 50, 64
3, 75240, Note_on_c, 0, 53, 80
3, 75348, Note_off_c, 0, 53, 64
3, 75360, Note_on_c, 0, 57, 80
3, 75360, Note_on_c, 0, 50, 80
3, 75576, Note_off_c, 0, 57, 64
3, 75576, Note_off_c, 0, 50, 64
3, 75600, Note_on_c, 0, 50, 80
3, 75810, Control_c, 0, 64, 0
3, 75816, Note_off_c, 0, 50, 64
3, 75840, Control_c, 0, 64, 115
3, 75840, Note_on_c, 0, 34, 80
3, 75840, Note_on_c, 0, 46, 80
3, 76056, Note_off_c, 0, 34, 64
3, 76056, Note_off_c, 0, 46, 64
3, 76080, Note_on_c, 0, 50, 80
3, 76188, Note_off_c, 0, 50, 64
3, 76200, Note_on_c, 0, 53, 80
3, 76308, Note_off_c, 0, 53, 64
3, 76320, Note_on_c, 0, 58, 80
3, 76320, Note_on_c, 0, 50, 80
3, 76536, Note_off_c, 0, 58, 64
3, 76536, Note_off_c, 0, 50, 64
3, 76560, Note_on_c, 0, 46, 80
3, 76770, Control_c, 0, 64, 0
3, 76776, Note_off_c, 0, 46, 64
3, 76800, Control_c, 0, 64, 117
3, 76800, Note_on_c, 0, 36, 80
3, 76800, Note_on_c, 0, 48, 80
3, 77016, Note_off_c, 0, 36, 64
3, 77016, Note_off_c, 0, 48, 64
3, 77040, Note_on_c, 0, 48, 80
3, 77148, Note_off_c, 0, 48, 64
3, 77160, Note_on_c, 0, 52, 80
3, 77268, Note_off_c, 0, 52, 64
3, 77280, Note_on_c, 0, 55, 80
3, 77280, Note_on_c, 0, 48, 80
3, 77496, Note_off_c, 0, 55, 64
3, 77496, Note_off_c, 0, 48, 64
3, 77520, Note_on_c, 0, 48, 80
3, 77730, Control_c, 0, 64, 0
3, 77736, Note_off_c, 0, 48, 64
3, 77760, Control_c, 0, 64, 117
3, 77760, Note_on_c, 0, 41, 80
3, 77760, Note_on_c, 0, 53, 80
3, 77976, Note_off_c, 0, 41, 64
3, 77976, Note_off_c, 0, 53, 64
3, 78000, Note_on_c, 0, 48, 80
3, 78108, Note_off_c, 0, 48, 64
3, 78120, Note_on_c, 0, 48, 80
3, 78228, Note_off_c, 0, 48, 64
3, 78240, Note_on_c, 0, 41, 80
3, 78240, Note_on_c, 0, 53, 80
3, 78456, Note_off_c, 0, 41, 64
3, 78456, Note_off_c, 0, 53, 64
3, 78480, Note_on_c, 0, 48, 80
3, 78690, Control_c, 0, 64, 0
3, 78696, Note_off_c, 0, 48, 64
3, 78720, Control_c, 0, 64, 116
3, 78720, Note_on_c, 0, 38, 80
3, 78720, Note_on_c, 0, 50, 80
3, 78936, Note_off_c, 0, 38, 64
3, 78936, Note_off_c, 0, 50, 64
3, 78960, Note_on_c, 0, 50, 80
3, 79068, Note_off_c, 0, 50, 64
3, 79080, Note_on_c, 0, 53, 80
3, 79188, Note_off_c, 0, 53, 64
3, 79200, Note_on_c, 0, 57, 80
3, 79200, Note_on_c, 0, 50, 80
3, 79416, Note_off_c, 0, 57, 64
3, 79416, Note_off_c, 0, 50, 64
3, 79440, Note_on_c, 0, 50, 80
3, 79650, Control_c, 0, 64, 0
3, 79656, Note_off_c, 0, 50, 64
3, 79680, Control_c, 0, 64, 117
3, 79680, Note_on_c, 0, 34, 80
3, 79680, Note_on_c, 0, 46, 80
3, 79896, Note_off_c, 0, 34, 64
3, 79896, Note_off_c, 0, 46, 64
3, 79920, Note_on_c, 0, 50, 80
3, 80028, Note_off_c, 0, 50, 64
3, 80040, Note_on_c, 0, 53, 80
3, 80148, Note_off_c, 0, 53, 64
3, 80160, Note_on_c, 0, 58, 80
3, 80160, Note_on_c, 0, 50, 80
3, 80376, Note_off_c, 0, 58, 64
3, 80376, Note_off_c, 0, 50, 64
3, 80400, Note_on_c, 0, 46, 80
3, 80610, Control_c, 0, 64, 0
3, 80616, Note_off_c, 0, 46, 64
3, 80640, Control_c, 0, 64, 119
3, 80640, Note_on_c, 0, 36, 80
3, 80640, Note_on_c, 0, 48, 80
3, 80856, Note_off_c, 0, 36, 64
3, 80856, Note_off_c, 0, 48, 64
3, 80880, Note_on_c, 0, 48, 80
3, 80988, Note_off_c, 0, 48, 64
3, 81000, Note_on_c, 0, 52, 80
3, 81108, Note_off_c, 0, 52, 64
3, 81120, Note_on_c, 0, 55, 80
3, 81120, Note_on_c, 0, 48, 80
3, 81336, Note_off_c, 0, 55, 64
3, 81336, Note_off_c, 0, 48, 64
3, 81360, Note_on_c, 0, 48, 80
3, 81570, Control_c, 0, 64, 0
3, 81576, Note_off_c, 0, 48, 64
3, 81600, Control_c, 0, 64, 120
3, 81600, Note_on_c, 0, 41, 80
3, 81600, Note_on_c, 0, 53, 80
3, 81816, Note_off_c, 0, 41, 64
3, 81816, Note_off_c, 0, 53, 64
3, 81840, Note_on_c, 0, 48, 80
3, 81948, Note_off_c, 0, 48, 64
3, 81960, Note_on_c, 0, 48, 80
3, 82068, Note_off_c, 0, 48, 64
3, 82080, Note_on_c, 0, 57, 80
3, 82080, Note_on_c, 0, 53, 80
3, 82296, Note_off_c, 0, 57, 64
3, 82296, Note_off_c, 0, 53, 64
3, 82320, Note_on_c, 0, 48, 80
3, 82530, Control_c, 0, 64, 0
3, 82536, Note_off_c, 0, 48, 64
3, 82560, Control_c, 0, 64, 115
3, 82560, Note_on_c, 0, 34, 80
3, 82560, Note_on_c, 0, 46, 80
3, 82776, Note_off_c, 0, 34, 64
3, 82776, Note_off_c, 0, 46, 64
3, 82800, Note_on_c, 0, 50, 80
3, 82908, Note_off_c, 0, 50, 64
3, 82920, Note_on_c, 0, 53, 80
3, 83028, Note_off_c, 0, 53, 64
3, 83040, Note_on_c, 0, 58, 80
3, 83040, Note_on_c, 0, 46, 80
3, 83256, Note_off_c, 0, 58, 64
3, 83256, Note_off_c, 0, 46, 64
3, 83280, Note_on_c, 0, 50, 80
3, 83388, Note_off_c, 0, 50, 64
3, 83400, Note_on_c, 0, 53, 80
3, 83490, Control_c, 0, 64, 0
3, 83508, Note_off_c, 0, 53, 64
3, 83520, Control_c, 0, 64, 117
3, 83520, Note_on_c, 0, 33, 80
3, 83520, Note_on_c, 0, 45, 80
3, 83736, Note_off_c, 0, 33, 64
3, 83736, Note_off_c, 0, 45, 64
3, 83760, Note_on_c, 0, 48, 80
3, 83868, Note_off_c, 0, 48, 64
3, 83880, Note_on_c, 0, 52, 80
3, 83988, Note_off_c, 0, 52, 64
3, 84000, Note_on_c, 0, 57, 80
3, 84000, Note_on_c, 0, 45, 80
3, 84216, Note_off_c, 0, 57, 64
3, 84216, Note_off_c, 0, 45, 64
3, 84240, Note_on_c, 0, 48, 80
3, 84348, Note_off_c, 0, 48, 64
3, 84360, Note_on_c, 0, 52, 80
3, 84450, Control_c, 0, 64, 0
3, 84468, Note_off_c, 0, 52, 64
3, 84480, Control_c, 0, 64, 118
3, 84480, Note_on_c, 0, 34, 80
3, 84480, Note_on_c, 0, 46, 80
3, 84720, Note_off_c, 0, 34, 64
3, 84720, Note_off_c, 0, 46, 64
3, 84720, Note_on_c, 0, 46, 80
3, 84912, Note_off_c, 0, 46, 64
3, 84960, Note_on_c, 0, 36, 80
3, 84960, Note_on_c, 0, 48, 80
3, 85200, Note_off_c, 0, 36, 64
3, 85200, Note_off_c, 0, 48, 64
3, 85200, Note_on_c, 0, 48, 80
3, 85392, Note_off_c, 0, 48, 64
3, 85410, Control_c, 0, 64, 0
3, 85440, Control_c, 0, 64, 116
3, 85440, Note_on_c, 0, 38, 80
3, 85440, Note_on_c, 0, 50, 80
3, 85656, Note_off_c, 0, 38, 64
3, 85656, Note_off_c, 0, 50, 64
3, 85680, Note_on_c, 0, 45, 80
3, 85788, Note_off_c, 0, 45, 64
3, 85800, Note_on_c, 0, 50, 80
3, 85908, Note_off_c, 0, 50, 64
3, 85920, Note_on_c, 0, 38, 80
3, 86136, Note_off_c, 0, 38, 64
3, 86160, Note_on_c, 0, 50, 80
3, 86370, Control_c, 0, 64, 0
3, 86376, Note_off_c, 0, 50, 64
3, 86400, Control_c, 0, 64, 114
3, 86400, Note_on_c, 0, 38, 80
3, 86400, Note_on_c, 0, 50, 80
3, 86616, Note_off_c, 0, 38, 64
3, 86616, Note_off_c, 0, 50, 64
3, 86640, Note_on_c, 0, 50, 80
3, 86748, Note_off_c, 0, 50, 64
3, 86760, Note_on_c, 0, 53, 80
3, 86868, Note_off_c, 0, 53, 64
3, 86880, Note_on_c, 0, 57, 80
3, 86880, Note_on_c, 0, 50, 80
3, 87096, Note_off_c, 0, 57, 64
3, 87096, Note_off_c, 0, 50, 64
3, 87120, Note_on_c, 0, 50, 80
3, 87330, Control_c, 0, 64, 0
3, 87336, Note_off_c, 0, 50, 64
3, 87360, Control_c, 0, 64, 116
3, 87360, Note_on_c, 0, 34, 80
3, 87360, Note_on_c, 0, 46, 80
3, 87576, Note_off_c, 0, 34, 64
3, 87576, Note_off_c, 0, 46, 64
3, 87600, Note_on_c, 0, 50, 80
3, 87708, Note_off_c, 0, 50, 64
3, 87720, Note_on_c, 0, 53, 80
3, 87828, Note_off_c, 0, 53, 64
3, 87840, Note_on_c, 0, 58, 80
3, 87840, Note_on_c, 0, 50, 80
3, 88056, Note_off_c, 0, 58, 64
3, 88056, Note_off_c, 0, 50, 64
3, 88080, Note_on_c, 0, 46, 80
3, 88290, Control_c, 0, 64, 0
3, 88296, Note_off_c, 0, 46, 64
3, 88320, Control_c, 0, 64, 114
3, 88320, Note_on_c, 0, 36, 80
3, 88320, Note_on_c, 0, 48, 80
3, 88536, Note_off_c, 0, 36, 64
3, 88536, Note_off_c, 0, 48, 64
3, 88560, Note_on_c, 0, 48, 80
3, 88668, Note_off_c, 0, 48, 64
3, 88680, Note_on_c, 0, 52, 80
3, 88788, Note_off_c, 0, 52, 64
3, 88800, Note_on_c, 0, 55, 80
3, 88800, Note_on_c, 0, 48, 80
3, 89016, Note_off_c, 0, 55, 64
3, 89016, Note_off_c, 0, 48, 64
3, 89040, Note_on_c, 0, 48, 80
3, 89250, Control_c, 0, 64, 0
3, 89256, Note_off_c, 0, 48, 64
3, 89280, Control_c, 0, 64, 116
3, 89280, Note_on_c, 0, 41, 80
3, 89280, Note_on_c, 0, 53, 80
3, 89496, Note_off_c, 0, 41, 64
3, 89496, Note_off_c, 0, 53, 64
3, 89520, Note_on_c, 0, 48, 80
3, 89628, Note_off_c, 0, 48, 64
3, 89640, Note_on_c, 0, 48, 80
3, 89748, Note_off_c, 0, 48, 64
3, 89760, Note_on_c, 0, 57, 80
3, 89760, Note_on_c, 0, 53, 80
3, 89976, Note_off_c, 0, 57, 64
3, 89976, Note_off_c, 0, 53, 64
3, 90000, Note_on_c, 0, 48, 80
3, 90210, Control_c, 0, 64, 0
3, 90216, Note_off_c, 0, 48, 64
3, 90240, Control_c, 0, 64, 117
3, 90240, Note_on_c, 0, 38, 80
3, 90240, Note_on_c, 0, 50, 80
3, 90456, Note_off_c, 0, 38, 64
3, 90456, Note_off_c, 0, 50, 64
3, 90480, Note_on_c, 0, 50, 80
3, 90588, Note_off_c, 0, 50, 64
3, 90600, Note_on_c, 0, 53, 80
3, 90708, Note_off_c, 0, 53, 64
3, 90720, Note_on_c, 0, 57, 80
3, 90720, Note_on_c, 0, 50, 80
3, 90936, Note_off_c, 0, 57, 64
3, 90936, Note_off_c, 0, 50, 64
3, 90960, Note_on_c, 0, 50, 80
3, 91170, Control_c, 0, 64, 0
3, 91176, Note_off_c, 0, 50, 64
3, 91200, Control_c, 0, 64, 115
3, 91200, Note_on_c, 0, 34, 80
3, 91200, Note_on_c, 0, 46, 80
3, 91416, Note_off_c, 0, 34, 64
3, 91416, Note_off_c, 0, 46, 64
3, 91440, Note_on_c, 0, 50, 80
3, 91548, Note_off_c, 0, 50, 64
3, 91560, Note_on_c, 0, 53, 80
3, 91668, Note_off_c, 0, 53, 64
3, 91680, Note_on_c, 0, 58, 80
3, 91680, Note_on_c, 0, 50, 80
3, 91896, Note_off_c, 0, 58, 64
3, 91896, Note_off_c, 0, 50, 64
3, 91920, Note_on_c, 0, 46, 80
3, 92130, Control_c, 0, 64, 0
3, 92136, Note_off_c, 0, 46, 64
3, 92160, Control_c, 0, 64, 117
3, 92160, Note_on_c, 0, 36, 80
3, 92160, Note_on_c, 0, 48, 80
3, 92376, Note_off_c, 0, 36, 64
3, 92376, Note_off_c, 0, 48, 64
3, 92400, Note_on_c, 0, 48, 80
3, 92508, Note_off_c, 0, 48, 64
3, 92520, Note_on_c, 0, 52, 80
3, 92628, Note_off_c, 0, 52, 64
3, 92640, Note_on_c, 0, 55, 80
3, 92640, Note_on_c, 0, 48, 80
3, 92856, Note_off_c, 0, 55, 64
3, 92856, Note_off_c, 0, 48, 64
3, 92880, Note_on_c, 0, 48, 80
3, 93090, Control_c, 0, 64, 0
3, 93096, Note_off_c, 0, 48, 64
3, 93120, Control_c, 0, 64, 117
3, 93120, Note_on_c, 0, 41, 80
3, 93120, Note_on_c, 0, 53, 80
3, 93336, Note_off_c, 0, 41, 64
3, 93336, Note_off_c, 0, 53, 64
3, 93360, Note_on_c, 0, 48, 80
3, 93468, Note_off_c, 0, 48, 64
3, 93480, Note_on_c, 0, 48, 80
3, 93588, Note_off_c, 0, 48, 64
3, 93600, Note_on_c, 0, 41, 80
3, 93600, Note_on_c, 0, 53, 80
3, 93816, Note_off_c, 0, 41, 64
3, 93816, Note_off_c, 0, 53, 64
3, 93840, Note_on_c, 0, 48, 80
3, 94050, Control_c, 0, 64, 0
3, 94056, Note_off_c, 0, 48, 64
3, 94080, Control_c, 0, 64, 116
3, 94080, Note_on_c, 0, 38, 80
3, 94080, Note_on_c, 0, 50, 80
3, 94296, Note_off_c, 0, 38, 64
3, 94296, Note_off_c, 0, 50, 64
3, 94320, Note_on_c, 0, 50, 80
3, 94428, Note_off_c, 0, 50, 64
3, 94440, Note_on_c, 0, 53, 80
3, 94548, Note_off_c, 0, 53, 64
3, 94560, Note_on_c, 0, 57, 80
3, 94560, Note_on_c, 0, 50, 80
3, 94776, Note_off_c, 0, 57, 64
3, 94776, Note_off_c, 0, 50, 64
3, 94800, Note_on_c, 0, 50, 80
3, 95010, Control_c, 0, 64, 0
3, 95016, Note_off_c, 0, 50, 64
3, 95040, Control_c, 0, 64, 117
3, 95040, Note_on_c, 0, 34, 80
3, 95040, Note_on_c, 0, 46, 80
3, 95256, Note_off_c, 0, 34, 64
3, 95256, Note_off_c, 0, 46, 64
3, 95280, Note_on_c, 0, 50, 80
3, 95388, Note_off_c, 0, 50, 64
3, 95400, Note_on_c, 0, 53, 80
3, 95508, Note_off_c, 0, 53, 64
3, 95520, Note_on_c, 0, 58, 80
3, 95520, Note_on_c, 0, 50, 80
3, 95736, Note_off_c, 0, 58, 64
3, 95736, Note_off_c, 0, 50, 64
3, 95760, Note_on_c, 0, 46, 80
3, 95970, Control_c, 0, 64, 0
3, 95976, Note_off_c, 0, 46, 64
3, 96000, Control_c, 0, 64, 119
3, 96000, Note_on_c, 0, 36, 80
3, 96000, Note_on_c, 0, 48, 80
3, 96216, Note_off_c, 0, 36, 64
3, 96216, Note_off_c, 0, 48, 64
3, 96240, Note_on_c, 0, 48, 80
3, 96348, Note_off_c, 0, 48, 64
3, 96360, Note_on_c, 0, 52, 80
3, 96468, Note_off_c, 0, 52, 64
3, 96480, Note_on_c, 0, 55, 80
3, 96480, Note_on_c, 0, 48, 80
3, 96696, Note_off_c, 0, 55, 64
3, 96696, Note_off_c, 0, 48, 64
3, 96720, Note_on_c, 0, 48, 80
3, 96930, Control_c, 0, 64, 0
3, 96936, Note_off_c, 0, 48, 64
3, 96960, Control_c, 0, 64, 120
3, 96960, Note_on_c, 0, 41, 80
3, 96960, Note_on_c, 0, 53, 80
3, 97176, Note_off_c, 0, 41, 64
3, 97176, Note_off_c, 0, 53, 64
3, 97200, Note_on_c, 0, 48, 80
3, 97308, Note_off_c, 0, 48, 64
3, 97320, Note_on_c, 0, 48, 80
3, 97428, Note_off_c, 0, 48, 64
3, 97440, Note_on_c, 0, 57, 80
3, 97440, Note_on_c, 0, 53, 80
3, 97656, Note_off_c, 0, 57, 64
3, 97656, Note_off_c, 0, 53, 64
3, 97680, Note_on_c, 0, 48, 80
3, 97890, Control_c, 0, 64, 0
3, 97896, Note_off_c, 0, 48, 64
3, 97920, Control_c, 0, 64, 115
3, 97920, Note_on_c, 0, 34, 80
3, 97920, Note_on_c, 0, 46, 80
3, 98136, Note_off_c, 0, 34, 64
3, 98136, Note_off_c, 0, 46, 64
3, 98160, Note_on_c, 0, 50, 80
3, 98268, Note_off_c, 0, 50, 64
3, 98280, Note_on_c, 0, 53, 80
3, 98388, Note_off_c, 0, 53, 64
3, 98400, Note_on_c, 0, 58, 80
3, 98400, Note_on_c, 0, 46, 80
3, 98616, Note_off_c, 0, 58, 64
3, 98616, Note_off_c, 0, 46, 64
3, 98640, Note_on_c, 0, 50, 80
3, 98748, Note_off_c, 0, 50, 64
3, 98760, Note_on_c, 0, 53, 80
3, 98850, Control_c, 0, 64, 0
3, 98868, Note_off_c, 0, 53, 64
3, 98880, Control_c, 0, 64, 117
3, 98880, Note_on_c, 0, 33, 80
3, 98880, Note_on_c, 0, 45, 80
3, 99096, Note_off_c, 0, 33, 64
3, 99096, Note_off_c, 0, 45, 64
3, 99120, Note_on_c, 0, 48, 80
3, 99228, Note_off_c, 0, 48, 64
3, 99240, Note_on_c, 0, 52, 80
3, 99348, Note_off_c, 0, 52, 64
3, 99360, Note_on_c, 0, 57, 80
3, 99360, Note_on_c, 0, 45, 80
3, 99576, Note_off_c, 0, 57, 64
3, 99576, Note_off_c, 0, 45, 64
3, 99600, Note_on_c, 0, 48, 80
3, 99708, Note_off_c, 0, 48, 64
3, 99720, Note_on_c, 0, 52, 80
3, 99810, Control_c, 0, 64, 0
3, 99828, Note_off_c, 0, 52, 64
3, 99840, Control_c, 0, 64, 118
3, 99840, Note_on_c, 0, 34, 80
3, 99840, Note_on_c, 0, 46, 80
3, 100080, Note_off_c, 0, 34, 64
3, 100080, Note_off_c, 0, 46, 64
3, 100080, Note_on_c, 0, 46, 80
3, 100272, Note_off_c, 0, 46, 64
3, 100320, Note_on_c, 0, 36, 80
3, 100320, Note_on_c, 0, 48, 80
3, 100560, Note_off_c, 0, 36, 64
3, 100560, Note_off_c, 0, 48, 64
3, 100560, Note_on_c, 0, 48, 80
3, 100752, Note_off_c, 0, 48, 64
3, 100770, Control_c, 0, 64, 0
3, 100800, Control_c, 0, 64, 116
3, 100800, Note_on_c, 0, 38, 80
3, 100800, Note_on_c, 0, 50, 80
3, 101016, Note_off_c, 0, 38, 64
3, 101016, Note_off_c, 0, 50, 64
3, 101040, Note_on_c, 0, 45, 80
3, 101148, Note_off_c, 0, 45, 64
3, 101160, Note_on_c, 0, 45, 80
3, 101268, Note_off_c, 0, 45, 64
3, 101280, Note_on_c, 0, 38, 80
3, 101280, Note_on_c, 0, 50, 80
3, 101496, Note_off_c, 0, 38, 64
3, 101496, Note_off_c, 0, 50, 64
3, 101520, Note_on_c, 0, 38, 80
3, 101520, Note_on_c, 0, 50, 80
3, 101730, Control_c, 0, 64, 0
3, 101736, Note_off_c, 0, 38, 64
3, 101736, Note_off_c, 0, 50, 64
3, 101760, Control_c, 0, 64, 119
3, 101760, Note_on_c, 0, 34, 80
3, 101760, Note_on_c, 0, 46, 80
3, 101976, Note_off_c, 0, 34, 64
3, 101976, Note_off_c, 0, 46, 64
3, 102000, Note_on_c, 0, 53, 80
3, 102000, Note_on_c, 0, 58, 80
3, 102000, Note_on_c, 0, 62, 80
3, 102216, Note_off_c, 0, 53, 64
3, 102216, Note_off_c, 0, 58, 64
3, 102216, Note_off_c, 0, 62, 64
3, 102240, Note_on_c, 0, 46, 80
3, 102456, Note_off_c, 0, 46, 64
3, 102480, Note_on_c, 0, 53, 80
3, 102480, Note_on_c, 0, 58, 80
3, 102480, Note_on_c, 0, 62, 80
3, 102690, Control_c, 0, 64, 0
3, 102696, Note_off_c, 0, 53, 64
3, 102696, Note_off_c, 0, 58, 64
3, 102696, Note_off_c, 0, 62, 64
3, 102720, Control_c, 0, 64, 119
3, 102720, Note_on_c, 0, 48, 80
3, 102720, Note_on_c, 0, 36, 80
3, 102936, Note_off_c, 0, 48, 64
3, 102936, Note_off_c, 0, 36, 64
3, 102960, Note_on_c, 0, 64, 80
3, 102960, Note_on_c, 0, 60, 80
3, 102960, Note_on_c, 0, 55, 80
3, 103176, Note_off_c, 0, 64, 64
3, 103176, Note_off_c, 0, 60, 64
3, 103176, Note_off_c, 0, 55, 64
3, 103200, Note_on_c, 0, 48, 80
3, 103416, Note_off_c, 0, 48, 64
3, 103440, Note_on_c, 0, 64, 80
3, 103440, Note_on_c, 0, 60, 80
3, 103440, Note_on_c, 0, 55, 80
3, 103650, Control_c, 0, 64, 0
3, 103656, Note_off_c, 0, 64, 64
3, 103656, Note_off_c, 0, 60, 64
3, 103656, Note_off_c, 0, 55, 64
3, 103680, Control_c, 0, 64, 118
3, 103680, Note_on_c, 0, 50, 80
3, 103680, Note_on_c, 0, 38, 80
3, 103896, Note_off_c, 0, 50, 64
3, 103896, Note_off_c, 0, 38, 64
3, 103920, Note_on_c, 0, 62, 80
3, 103920, Note_on_c, 0, 57, 80
3, 103920, Note_on_c, 0, 53, 80
3, 104136, Note_off_c, 0, 62, 64
3, 104136, Note_off_c, 0, 57, 64
3, 104136, Note_off_c, 0, 53, 64
3, 104160, Note_on_c, 0, 41, 80
3, 104376, Note_off_c, 0, 41, 64
3, 104400, Note_on_c, 0, 62, 80
3, 104400, Note_on_c, 0, 57, 80
3, 104400, Note_on_c, 0, 53, 80
3, 104616, Note_off_c, 0, 62, 64
3, 104616, Note_off_c, 0, 57, 64
3, 104616, Note_off_c, 0, 53, 64
3, 104640, Note_on_c, 0, 53, 80
3, 104640, Note_on_c, 0, 45, 80
3, 104856, Note_off_c, 0, 53, 64
3, 104856, Note_off_c, 0, 45, 64
3, 104880, Note_on_c, 0, 57, 80
3, 104880, Note_on_c, 0, 50, 80
3, 105096, Note_off_c, 0, 57, 64
3, 105096, Note_off_c, 0, 50, 64
3, 105120, Note_on_c, 0, 38, 80
3, 105228, Note_off_c, 0, 38, 64
3, 105240, Note_on_c, 0, 45, 80
3, 105348, Note_off_c, 0, 45, 64
3, 105360, Note_on_c, 0, 50, 80
3, 105468, Note_off_c, 0, 50, 64
3, 105480, Note_on_c, 0, 45, 80
3, 105570, Control_c, 0, 64, 0
3, 105588, Note_off_c, 0, 45, 64
3, 105600, Control_c, 0, 64, 119
3, 105600, Note_on_c, 0, 34, 80
3, 105600, Note_on_c, 0, 46, 80
3, 105816, Note_off_c, 0, 34, 64
3, 105816, Note_off_c, 0, 46, 64
3, 105840, Note_on_c, 0, 53, 80
3, 105840, Note_on_c, 0, 58, 80
3, 105840, Note_on_c, 0, 62, 80
3, 106056, Note_off_c, 0, 53, 64
3, 106056, Note_off_c, 0, 58, 64
3, 106056, Note_off_c, 0, 62, 64
3, 106080, Note_on_c, 0, 46, 80
3, 106296, Note_off_c, 0, 46, 64
3, 106320, Note_on_c, 0, 53, 80
3, 106320, Note_on_c, 0, 58, 80
3, 106320, Note_on_c, 0, 62, 80
3, 106530, Control_c, 0, 64, 0
3, 106536, Note_off_c, 0, 53, 64
3, 106536, Note_off_c, 0, 58, 64
3, 106536, Note_off_c, 0, 62, 64
3, 106560, Control_c, 0, 64, 118
3, 106560, Note_on_c, 0, 48, 80
3, 106560, Note_on_c, 0, 36, 80
3, 106776, Note_off_c, 0, 48, 64
3, 106776, Note_off_c, 0, 36, 64
3, 106800, Note_on_c, 0, 64, 80
3, 106800, Note_on_c, 0, 60, 80
3, 106800, Note_on_c, 0, 55, 80
3, 107016, Note_off_c, 0, 64, 64
3, 107016, Note_off_c, 0, 60, 64
3, 107016, Note_off_c, 0, 55, 64
3, 107040, Note_on_c, 0, 48, 80
3, 107256, Note_off_c, 0, 48, 64
3, 107280, Note_on_c, 0, 64, 80
3, 107280, Note_on_c, 0, 60, 80
3, 107280, Note_on_c, 0, 55, 80
3, 107490, Control_c, 0, 64, 0
3, 107496, Note_off_c, 0, 64, 64
3, 107496, Note_off_c, 0, 60, 64
3, 107496, Note_off_c, 0, 55, 64
3, 107520, Control_c, 0, 64, 118
3, 107520, Note_on_c, 0, 50, 80
3, 107520, Note_on_c, 0, 38, 80
3, 107736, Note_off_c, 0, 50, 64
3, 107736, Note_off_c, 0, 38, 64
3, 107760, Note_on_c, 0, 62, 80
3, 107760, Note_on_c, 0, 57, 80
3, 107760, Note_on_c, 0, 53, 80
3, 107976, Note_off_c, 0, 62, 64
3, 107976, Note_off_c, 0, 57, 64
3, 107976, Note_off_c, 0, 53, 64
3, 108000, Note_on_c, 0, 41, 80
3, 108216, Note_off_c, 0, 41, 64
3, 108240, Note_on_c, 0, 65, 80
3, 108240, Note_on_c, 0, 62, 80
3, 108240, Note_on_c, 0, 57, 80
3, 108456, Note_off_c, 0, 65, 64
3, 108456, Note_off_c, 0, 62, 64
3, 108456, Note_off_c, 0, 57, 64
3, 108480, Note_on_c, 0, 57, 80
3, 108480, Note_on_c, 0, 45, 80
3, 108696, Note_off_c, 0, 57, 64
3, 108696, Note_off_c, 0, 45, 64
3, 108720, Note_on_c, 0, 62, 80
3, 108720, Note_on_c, 0, 53, 80
3, 108936, Note_off_c, 0, 62, 64
3, 108936, Note_off_c, 0, 53, 64
3, 108960, Note_on_c, 0, 57, 80
3, 109068, Note_off_c, 0, 57, 64
3, 109080, Note_on_c, 0, 50, 80
3, 109188, Note_off_c, 0, 50, 64
3, 109200, Note_on_c, 0, 45, 80
3, 109308, Note_off_c, 0, 45, 64
3, 109320, Note_on_c, 0, 38, 80
3, 109410, Control_c, 0, 64, 0
3, 109428, Note_off_c, 0, 38, 64
3, 109440, Control_c, 0, 64, 120
3, 109440, Note_on_c, 0, 34, 80
3, 109440, Note_on_c, 0, 46, 80
3, 109656, Note_off_c, 0, 34, 64
3, 109656, Note_off_c, 0, 46, 64
3, 109680, Note_on_c, 0, 53, 80
3, 109680, Note_on_c, 0, 58, 80
3, 109680, Note_on_c, 0, 62, 80
3, 109896, Note_off_c, 0, 53, 64
3, 109896, Note_off_c, 0, 58, 64
3, 109896, Note_off_c, 0, 62, 64
3, 109920, Note_on_c, 0, 46, 80
3, 110136, Note_off_c, 0, 46, 64
3, 110160, Note_on_c, 0, 53, 80
3, 110160, Note_on_c, 0, 58, 80
3, 110160, Note_on_c, 0, 62, 80
3, 110370, Control_c, 0, 64, 0
3, 110376, Note_off_c, 0, 53, 64
3, 110376, Note_off_c, 0, 58, 64
3, 110376, Note_off_c, 0, 62, 64
3, 110400, Control_c, 0, 64, 117
3, 110400, Note_on_c, 0, 48, 80
3, 110400, Note_on_c, 0, 36, 80
3, 110616, Note_off_c, 0, 48, 64
3, 110616, Note_off_c, 0, 36, 64
3, 110640, Note_on_c, 0, 64, 80
3, 110640, Note_on_c, 0, 60, 80
3, 110640, Note_on_c, 0, 55, 80
3, 110856, Note_off_c, 0, 64, 64
3, 110856, Note_off_c, 0, 60, 64
3, 110856, Note_off_c, 0, 55, 64
3, 110880, Note_on_c, 0, 48, 80
3, 111096, Note_off_c, 0, 48, 64
3, 111120, Note_on_c, 0, 64, 80
3, 111120, Note_on_c, 0, 60, 80
3, 111120, Note_on_c, 0, 55, 80
3, 111330, Control_c, 0, 64, 0
3, 111336, Note_off_c, 0, 64, 64
3, 111336, Note_off_c, 0, 60, 64
3, 111336, Note_off_c, 0, 55, 64
3, 111360, Control_c, 0, 64, 117
3, 111360, Note_on_c, 0, 50, 80
3, 111360, Note_on_c, 0, 38, 80
3, 111576, Note_off_c, 0, 50, 64
3, 111576, Note_off_c, 0, 38, 64
3, 111600, Note_on_c, 0, 62, 80
3, 111600, Note_on_c, 0, 57, 80
3, 111600, Note_on_c, 0, 53, 80
3, 111816, Note_off_c, 0, 62, 64
3, 111816, Note_off_c, 0, 57, 64
3, 111816, Note_off_c, 0, 53, 64
3, 111840, Note_on_c, 0, 41, 80
3, 112056, Note_off_c, 0, 41, 64
3, 112080, Note_on_c, 0, 62, 80
3, 112080, Note_on_c, 0, 57, 80
3, 112080, Note_on_c, 0, 53, 80
3, 112296, Note_off_c, 0, 62, 64
3, 112296, Note_off_c, 0, 57, 64
3, 112296, Note_off_c, 0, 53, 64
3, 112320, Note_on_c, 0, 53, 80
3, 112320, Note_on_c, 0, 45, 80
3, 112536, Note_off_c, 0, 53, 64
3, 112536, Note_off_c, 0, 45, 64
3, 112560, Note_on_c, 0, 57, 80
3, 112560, Note_on_c, 0, 50, 80
3, 112776, Note_off_c, 0, 57, 64
3, 112776, Note_off_c, 0, 50, 64
3, 112800, Note_on_c, 0, 38, 80
3, 112908, Note_off_c, 0, 38, 64
3, 112920, Note_on_c, 0, 45, 80
3, 113028, Note_off_c, 0, 45, 64
3, 113040, Note_on_c, 0, 50, 80
3, 113148, Note_off_c, 0, 50, 64
3, 113160, Note_on_c, 0, 45, 80
3, 113250, Control_c, 0, 64, 0
3, 113268, Note_off_c, 0, 45, 64
3, 113280, Control_c, 0, 64, 119
3, 113280, Note_on_c, 0, 34, 80
3, 113280, Note_on_c, 0, 46, 80
3, 113496, Note_off_c, 0, 34, 64
3, 113496, Note_off_c, 0, 46, 64
3, 113520, Note_on_c, 0, 53, 80
3, 113520, Note_on_c, 0, 58, 80
3, 113520, Note_on_c, 0, 62, 80
3, 113736, Note_off_c, 0, 53, 64
3, 113736, Note_off_c, 0, 58, 64
3, 113736, Note_off_c, 0, 62, 64
3, 113760, Note_on_c, 0, 46, 80
3, 113976, Note_off_c, 0, 46, 64
3, 114000, Note_on_c, 0, 53, 80
3, 114000, Note_on_c, 0, 58, 80
3, 114000, Note_on_c, 0, 62, 80
3, 114210, Control_c, 0, 64, 0
3, 114216, Note_off_c, 0, 53, 64
3, 114216, Note_off_c, 0, 58, 64
3, 114216, Note_off_c, 0, 62, 64
3, 114240, Control_c, 0, 64, 119
3, 114240, Note_on_c, 0, 48, 80
3, 114240, Note_on_c, 0, 36, 80
3, 114456, Note_off_c, 0, 48, 64
3, 114456, Note_off_c, 0, 36, 64
3, 114480, Note_on_c, 0, 64, 80
3, 114480, Note_on_c, 0, 60, 80
3, 114480, Note_on_c, 0, 55, 80
3, 114696, Note_off_c, 0, 64, 64
3, 114696, Note_off_c, 0, 60, 64
3, 114696, Note_off_c, 0, 55, 64
3, 114720, Note_on_c, 0, 36, 80
3, 114828, Note_off_c, 0, 36, 64
3, 114840, Note_on_c, 0, 43, 80
3, 114948, Note_off_c, 0, 43, 64
3, 114960, Note_on_c, 0, 48, 80
3, 115068, Note_off_c, 0, 48, 64
3, 115080, Note_on_c, 0, 52, 80
3, 115170, Control_c, 0, 64, 0
3, 115188, Note_off_c, 0, 52, 64
3, 115200, Control_c, 0, 64, 118
3, 115200, Note_on_c, 0, 38, 80
3, 115200, Note_on_c, 0, 45, 80
3, 115200, Note_on_c, 0, 50, 80
3, 115560, Note_off_c, 0, 38, 64
3, 115560, Note_off_c, 0, 45, 64
3, 115560, Note_off_c, 0, 50, 64
3, 115560, Note_on_c, 0, 38, 80
3, 115560, Note_on_c, 0, 45, 80
3, 115560, Note_on_c, 0, 50, 80
3, 115920, Note_off_c, 0, 38, 64
3, 115920, Note_off_c, 0, 45, 64
3, 115920, Note_off_c, 0, 50, 64
3, 115920, Note_on_c, 0, 41, 80
3, 115920, Note_on_c, 0, 50, 80
3, 116136, Note_off_c, 0, 41, 64
3, 116136, Note_off_c, 0, 50, 64
3, 116160, Control_c, 0, 64, 0
3, 116160, Note_on_c, 0, 38, 80
3, 116160, Note_on_c, 0, 45, 80
3, 116160, Note_on_c, 0, 50, 80
3, 116190, Control_c, 0, 64, 117
3, 116592, Note_off_c, 0, 38, 64
3, 116592, Note_off_c, 0, 45, 64
3, 116592, Note_off_c, 0, 50, 64
3, 116640, Note_on_c, 0, 26, 80
3, 116640, Note_on_c, 0, 38, 80
3, 117072, Note_off_c, 0, 26, 64
3, 117072, Note_off_c, 0, 38, 64
3, 117090, Control_c, 0, 64, 0
3, 117120, Control_c, 0, 64, 114
3, 117120, Note_on_c, 0, 38, 80
3, 117120, Note_on_c, 0, 50, 80
3, 117552, Note_off_c, 0, 38, 64
3, 117552, Note_off_c, 0, 50, 64
3, 117600, Note_on_c, 0, 38, 80
3, 117600, Note_on_c, 0, 50, 80
3, 117960, Note_off_c, 0, 38, 64
3, 117960, Note_off_c, 0, 50, 64
3, 117960, Note_on_c, 0, 50, 80
3, 118068, Note_off_c, 0, 50, 64
3, 118080, Note_on_c, 0, 38, 80
3, 118080, Note_on_c, 0, 50, 80
3, 118296, Note_off_c, 0, 38, 64
3, 118296, Note_off_c, 0, 50, 64
3, 118320, Note_on_c, 0, 38, 80
3, 118320, Note_on_c, 0, 50, 80
3, 118536, Note_off_c, 0, 38, 64
3, 118536, Note_off_c, 0, 50, 64
3, 118560, Note_on_c, 0, 45, 80
3, 118560, Note_on_c, 0, 50, 80
3, 118776, Note_off_c, 0, 45, 64
3, 118776, Note_off_c, 0, 50, 64
3, 118800, Note_on_c, 0, 48, 80
3, 118800, Note_on_c, 0, 53, 80
3, 119010, Control_c, 0, 64, 0
3, 119016, Note_off_c, 0, 48, 64
3, 119016, Note_off_c, 0, 53, 64
3, 119040, Control_c, 0, 64, 117
3, 119040, Note_on_c, 0, 34, 80
3, 119040, Note_on_c, 0, 46, 80
3, 119364, Note_off_c, 0, 34, 64
3, 119364, Note_off_c, 0, 46, 64
3, 119400, Note_on_c, 0, 34, 80
3, 119400, Note_on_c, 0, 46, 80
3, 119508, Note_off_c, 0, 34, 64
3, 119508, Note_off_c, 0, 46, 64
3, 119520, Note_on_c, 0, 34, 80
3, 119520, Note_on_c, 0, 46, 80
3, 119952, Note_off_c, 0, 34, 64
3, 119952, Note_off_c, 0, 46, 64
3, 119970, Control_c, 0, 64, 0
3, 120000, Control_c, 0, 64, 115
3, 120000, Note_on_c, 0, 36, 80
3, 120000, Note_on_c, 0, 48, 80
3, 120324, Note_off_c, 0, 36, 64
3, 120324, Note_off_c, 0, 48, 64
3, 120360, Note_on_c, 0, 36, 80
3, 120360, Note_on_c, 0, 48, 80
3, 120468, Note_off_c, 0, 36, 64
3, 120468, Note_off_c, 0, 48, 64
3, 120480, Note_on_c, 0, 36, 80
3, 120480, Note_on_c, 0, 48, 80
3, 120912, Note_off_c, 0, 36, 64
3, 120912, Note_off_c, 0, 48, 64
3, 120930, Control_c, 0, 64, 0
3, 120960, Control_c, 0, 64, 115
3, 120960, Note_on_c, 0, 38, 80
3, 120960, Note_on_c, 0, 50, 80
3, 121392, Note_off_c, 0, 38, 64
3, 121392, Note_off_c, 0, 50, 64
3, 121440, Note_on_c, 0, 38, 80
3, 121440, Note_on_c, 0, 50, 80
3, 121800, Note_off_c, 0, 38, 64
3, 121800, Note_off_c, 0, 50, 64
3, 121800, Note_on_c, 0, 50, 80
3, 121908, Note_off_c, 0, 50, 64
3, 121920, Note_on_c, 0, 38, 80
3, 121920, Note_on_c, 0, 50, 80
3, 122136, Note_off_c, 0, 38, 64
3, 122136, Note_off_c, 0, 50, 64
3, 122160, Note_on_c, 0, 38, 80
3, 122160, Note_on_c, 0, 50, 80
3, 122376, Note_off_c, 0, 38, 64
3, 122376, Note_off_c, 0, 50, 64
3, 122400, Note_on_c, 0, 48, 80
3, 122400, Note_on_c, 0, 53, 80
3, 122616, Note_off_c, 0, 48, 64
3, 122616, Note_off_c, 0, 53, 64
3, 122640, Note_on_c, 0, 50, 80
3, 122640, Note_on_c, 0, 57, 80
3, 122850, Control_c, 0, 64, 0
3, 122856, Note_off_c, 0, 50, 64
3, 122856, Note_off_c, 0, 57, 64
3, 122880, Control_c, 0, 64, 116
3, 122880, Note_on_c, 0, 34, 80
3, 122880, Note_on_c, 0, 46, 80
3, 123240, Note_off_c, 0, 34, 64
3, 123240, Note_off_c, 0, 46, 64
3, 123240, Note_on_c, 0, 46, 80
3, 123348, Note_off_c, 0, 46, 64
3, 123360, Note_on_c, 0, 34, 80
3, 123360, Note_on_c, 0, 46, 80
3, 123792, Note_off_c, 0, 34, 64
3, 123792, Note_off_c, 0, 46, 64
3, 123810, Control_c, 0, 64, 0
3, 123840, Control_c, 0, 64, 116
3, 123840, Note_on_c, 0, 36, 80
3, 123840, Note_on_c, 0, 48, 80
3, 124200, Note_off_c, 0, 36, 64
3, 124200, Note_off_c, 0, 48, 64
3, 124200, Note_on_c, 0, 48, 80
3, 124308, Note_off_c, 0, 48, 64
3, 124320, Note_on_c, 0, 36, 80
3, 124320, Note_on_c, 0, 48, 80
3, 124752, Note_off_c, 0, 36, 64
3, 124752, Note_off_c, 0, 48, 64
3, 124770, Control_c, 0, 64, 0
3, 124800, Control_c, 0, 64, 117
3, 124800, Note_on_c, 0, 38, 80
3, 124800, Note_on_c, 0, 50, 80
3, 125040, Note_off_c, 0, 38, 64
3, 125040, Note_off_c, 0, 50, 64
3, 125040, Note_on_c, 0, 38, 80
3, 125040, Note_on_c, 0, 50, 80
3, 125232, Note_off_c, 0, 38, 64
3, 125232, Note_off_c, 0, 50, 64
3, 125280, Note_on_c, 0, 38, 80
3, 125280, Note_on_c, 0, 50, 80
3, 125640, Note_off_c, 0, 38, 64
3, 125640, Note_off_c, 0, 50, 64
3, 125640, Note_on_c, 0, 50, 80
3, 125748, Note_off_c, 0, 50, 64
3, 125760, Note_on_c, 0, 38, 80
3, 125760, Note_on_c, 0, 50, 80
3, 125976, Note_off_c, 0, 38, 64
3, 125976, Note_off_c, 0, 50, 64
3, 126000, Note_on_c, 0, 38, 80
3, 126000, Note_on_c, 0, 50, 80
3, 126216, Note_off_c, 0, 38, 64
3, 126216, Note_off_c, 0, 50, 64
3, 126240, Note_on_c, 0, 45, 80
3, 126240, Note_on_c, 0, 50, 80
3, 126456, Note_off_c, 0, 45, 64
3, 126456, Note_off_c, 0, 50, 64
3, 126480, Note_on_c, 0, 48, 80
3, 126480, Note_on_c, 0, 53, 80
3, 126690, Control_c, 0, 64, 0
3, 126696, Note_off_c, 0, 48, 64
3, 126696, Note_off_c, 0, 53, 64
3, 126720, Control_c, 0, 64, 112
3, 126720, Note_on_c, 0, 34, 80
3, 126720, Note_on_c, 0, 46, 80
3, 127044, Note_off_c, 0, 34, 64
3, 127044, Note_off_c, 0, 46, 64
3, 127080, Note_on_c, 0, 34, 80
3, 127080, Note_on_c, 0, 46, 80
3, 127188, Note_off_c, 0, 34, 64
3, 127188, Note_off_c, 0, 46, 64
3, 127200, Note_on_c, 0, 34, 80
3, 127200, Note_on_c, 0, 46, 80
3, 127632, Note_off_c, 0, 34, 64
3, 127632, Note_off_c, 0, 46, 64
3, 127650, Control_c, 0, 64, 0
3, 127680, Control_c, 0, 64, 113
3, 127680, Note_on_c, 0, 36, 80
3, 127680, Note_on_c, 0, 48, 80
3, 128004, Note_off_c, 0, 36, 64
3, 128004, Note_off_c, 0, 48, 64
3, 128040, Note_on_c, 0, 36, 80
3, 128040, Note_on_c, 0, 48, 80
3, 128148, Note_off_c, 0, 36, 64
3, 128148, Note_off_c, 0, 48, 64
3, 128160, Note_on_c, 0, 36, 80
3, 128160, Note_on_c, 0, 48, 80
3, 128592, Note_off_c, 0, 36, 64
3, 128592, Note_off_c, 0, 48, 64
3, 128610, Control_c, 0, 64, 0
3, 128640, Control_c, 0, 64, 113
3, 128640, Note_on_c, 0, 38, 80
3, 128640, Note_on_c, 0, 50, 80
3, 128880, Note_off_c, 0, 38, 64
3, 128880, Note_off_c, 0, 50, 64
3, 128880, Note_on_c, 0, 38, 80
3, 128880, Note_on_c, 0, 50, 80
3, 129072, Note_off_c, 0, 38, 64
3, 129072, Note_off_c, 0, 50, 64
3, 129120, Note_on_c, 0, 38, 80
3, 129120, Note_on_c, 0, 50, 80
3, 129480, Note_off_c, 0, 38, 64
3, 129480, Note_off_c, 0, 50, 64
3, 129480, Note_on_c, 0, 50, 80
3, 129588, Note_off_c, 0, 50, 64
3, 129600, Note_on_c, 0, 38, 80
3, 129600, Note_on_c, 0, 50, 80
3, 129816, Note_off_c, 0, 38, 64
3, 129816, Note_off_c, 0, 50, 64
3, 129840, Note_on_c, 0, 38, 80
3, 129840, Note_on_c, 0, 50, 80
3, 130056, Note_off_c, 0, 38, 64
3, 130056, Note_off_c, 0, 50, 64
3, 130080, Note_on_c, 0, 45, 80
3, 130080, Note_on_c, 0, 50, 80
3, 130296, Note_off_c, 0, 45, 64
3, 130296, Note_off_c, 0, 50, 64
3, 130320, Note_on_c, 0, 48, 80
3, 130320, Note_on_c, 0, 53, 80
3, 130530, Control_c, 0, 64, 0
3, 130536, Note_off_c, 0, 48, 64
3, 130536, Note_off_c, 0, 53, 64
3, 130560, Control_c, 0, 64, 113
3, 130560, Note_on_c, 0, 34, 80
3, 130560, Note_on_c, 0, 46, 80
3, 130776, Note_off_c, 0, 34, 64
3, 130776, Note_off_c, 0, 46, 64
3, 130800, Note_on_c, 0, 34, 80
3, 130800, Note_on_c, 0, 46, 80
3, 131016, Note_off_c, 0, 34, 64
3, 131016, Note_off_c, 0, 46, 64
3, 131040, Note_on_c, 0, 34, 80
3, 131040, Note_on_c, 0, 46, 80
3, 131400, Note_off_c, 0, 34, 64
3, 131400, Note_off_c, 0, 46, 64
3, 131400, Note_on_c, 0, 46, 80
3, 131490, Control_c, 0, 64, 0
3, 131508, Note_off_c, 0, 46, 64
3, 131520, Control_c, 0, 64, 116
3, 131520, Note_on_c, 0, 36, 80
3, 131520, Note_on_c, 0, 48, 80
3, 131736, Note_off_c, 0, 36, 64
3, 131736, Note_off_c, 0, 48, 64
3, 131760, Note_on_c, 0, 36, 80
3, 131868, Note_off_c, 0, 36, 64
3, 131880, Note_on_c, 0, 48, 80
3, 131988, Note_off_c, 0, 48, 64
3, 132000, Note_on_c, 0, 36, 80
3, 132108, Note_off_c, 0, 36, 64
3, 132120, Note_on_c, 0, 48, 80
3, 132228, Note_off_c, 0, 48, 64
3, 132240, Note_on_c, 0, 36, 80
3, 132348, Note_off_c, 0, 36, 64
3, 132360, Note_on_c, 0, 48, 80
3, 132450, Control_c, 0, 64, 0
3, 132468, Note_off_c, 0, 48, 64
3, 132480, Control_c, 0, 64, 119
3, 132480, Note_on_c, 0, 34, 80
3, 132696, Note_off_c, 0, 34, 64
3, 132720, Note_on_c, 0, 46, 80
3, 132936, Note_off_c, 0, 46, 64
3, 132960, Note_on_c, 0, 34, 80
3, 133284, Note_off_c, 0, 34, 64
3, 133320, Note_on_c, 0, 46, 80
3, 133428, Note_off_c, 0, 46, 64
3, 133440, Note_on_c, 0, 34, 80
3, 133656, Note_off_c, 0, 34, 64
3, 133680, Note_on_c, 0, 46, 80
3, 133896, Note_off_c, 0, 46, 64
3, 133920, Note_on_c, 0, 34, 80
3, 134244, Note_off_c, 0, 34, 64
3, 134280, Note_on_c, 0, 46, 80
3, 134370, Control_c, 0, 64, 0
3, 134388, Note_off_c, 0, 46, 64
3, 134400, Control_c, 0, 64, 119
3, 134400, Note_on_c, 0, 29, 80
3, 134616, Note_off_c, 0, 29, 64
3, 134640, Note_on_c, 0, 41, 80
3, 134856, Note_off_c, 0, 41, 64
3, 134880, Note_on_c, 0, 29, 80
3, 135204, Note_off_c, 0, 29, 64
3, 135240, Note_on_c, 0, 41, 80
3, 135348, Note_off_c, 0, 41, 64
3, 135360, Note_on_c, 0, 41, 80
3, 135576, Note_off_c, 0, 41, 64
3, 135600, Note_on_c, 0, 41, 80
3, 135816, Note_off_c, 0, 41, 64
3, 135840, Note_on_c, 0, 41, 80
3, 136056, Note_off_c, 0, 41, 64
3, 136080, Note_on_c, 0, 41, 80
3, 136290, Control_c, 0, 64, 0
3, 136296, Note_off_c, 0, 41, 64
3, 136320, Control_c, 0, 64, 119
3, 136320, Note_on_c, 0, 34, 80
3, 136536, Note_off_c, 0, 34, 64
3, 136560, Note_on_c, 0, 46, 80
3, 136776, Note_off_c, 0, 46, 64
3, 136800, Note_on_c, 0, 34, 80
3, 137124, Note_off_c, 0, 34, 64
3, 137160, Note_on_c, 0, 46, 80
3, 137250, Control_c, 0, 64, 0
3, 137268, Note_off_c, 0, 46, 64
3, 137280, Control_c, 0, 64, 120
3, 137280, Note_on_c, 0, 36, 80
3, 137496, Note_off_c, 0, 36, 64
3, 137520, Note_on_c, 0, 48, 80
3, 137736, Note_off_c, 0, 48, 64
3, 137760, Note_on_c, 0, 36, 80
3, 137976, Note_off_c, 0, 36, 64
3, 138000, Note_on_c, 0, 36, 80
3, 138108, Note_off_c, 0, 36, 64
3, 138120, Note_on_c, 0, 48, 80
3, 138210, Control_c, 0, 64, 0
3, 138228, Note_off_c, 0, 48, 64
3, 138240, Control_c, 0, 64, 116
3, 138240, Note_on_c, 0, 38, 80
3, 138456, Note_off_c, 0, 38, 64
3, 138480, Note_on_c, 0, 50, 80
3, 138696, Note_off_c, 0, 50, 64
3, 138720, Note_on_c, 0, 38, 80
3, 138828, Note_off_c, 0, 38, 64
3, 138840, Note_on_c, 0, 50, 80
3, 138948, Note_off_c, 0, 50, 64
3, 138960, Note_on_c, 0, 38, 80
3, 139068, Note_off_c, 0, 38, 64
3, 139080, Note_on_c, 0, 50, 80
3, 139188, Note_off_c, 0, 50, 64
3, 139200, Note_on_c, 0, 38, 80
3, 139416, Note_off_c, 0, 38, 64
3, 139440, Note_on_c, 0, 50, 80
3, 139656, Note_off_c, 0, 50, 64
3, 139680, Note_on_c, 0, 38, 80
3, 139896, Note_off_c, 0, 38, 64
3, 139920, Note_on_c, 0, 50, 80
3, 140130, Control_c, 0, 64, 0
3, 140136, Note_off_c, 0, 50, 64
3, 140160, Control_c, 0, 64, 117
3, 140160, Note_on_c, 0, 34, 80
3, 140376, Note_off_c, 0, 34, 64
3, 140400, Note_on_c, 0, 46, 80
3, 140616, Note_off_c, 0, 46, 64
3, 140640, Note_on_c, 0, 34, 80
3, 140964, Note_off_c, 0, 34, 64
3, 141000, Note_on_c, 0, 46, 80
3, 141108, Note_off_c, 0, 46, 64
3, 141120, Note_on_c, 0, 34, 80
3, 141336, Note_off_c, 0, 34, 64
3, 141360, Note_on_c, 0, 46, 80
3, 141576, Note_off_c, 0, 46, 64
3, 141600, Note_on_c, 0, 34, 80
3, 141924, Note_off_c, 0, 34, 64
3, 141960, Note_on_c, 0, 46, 80
3, 142050, Control_c, 0, 64, 0
3, 142068, Note_off_c, 0, 46, 64
3, 142080, Control_c, 0, 64, 119
3, 142080, Note_on_c, 0, 29, 80
3, 142296, Note_off_c, 0, 29, 64
3, 142320, Note_on_c, 0, 41, 80
3, 142536, Note_off_c, 0, 41, 64
3, 142560, Note_on_c, 0, 29, 80
3, 142884, Note_off_c, 0, 29, 64
3, 142920, Note_on_c, 0, 41, 80
3, 143028, Note_off_c, 0, 41, 64
3, 143040, Note_on_c, 0, 41, 80
3, 143256, Note_off_c, 0, 41, 64
3, 143280, Note_on_c, 0, 41, 80
3, 143496, Note_off_c, 0, 41, 64
3, 143520, Note_on_c, 0, 41, 80
3, 143736, Note_off_c, 0, 41, 64
3, 143760, Note_on_c, 0, 41, 80
3, 143970, Control_c, 0, 64, 0
3, 143976, Note_off_c, 0, 41, 64
3, 144000, Control_c, 0, 64, 120
3, 144000, Note_on_c, 0, 31, 80
3, 144000, Note_on_c, 0, 43, 80
3, 144216, Note_off_c, 0, 31, 64
3, 144216, Note_off_c, 0, 43, 64
3, 144240, Note_on_c, 0, 43, 80
3, 144672, Note_off_c, 0, 43, 64
3, 144720, Note_on_c, 0, 43, 80
3, 144936, Note_off_c, 0, 43, 64
3, 144960, Note_on_c, 0, 43, 80
3, 144960, Note_on_c, 0, 50, 80
3, 145392, Note_off_c, 0, 43, 64
3, 145392, Note_off_c, 0, 50, 64
3, 145440, Note_on_c, 0, 43, 80
3, 145440, Note_on_c, 0, 50, 80
3, 145872, Note_off_c, 0, 43, 64
3, 145872, Note_off_c, 0, 50, 64
3, 145890, Control_c, 0, 64, 0
3, 145920, Control_c, 0, 64, 120
3, 145920, Note_on_c, 0, 33, 80
3, 145920, Note_on_c, 0, 45, 80
3, 146136, Note_off_c, 0, 33, 64
3, 146136, Note_off_c, 0, 45, 64
3, 146160, Note_on_c, 0, 45, 80
3, 146376, Note_off_c, 0, 45, 64
3, 146400, Note_on_c, 0, 33, 80
3, 146400, Note_on_c, 0, 45, 80
3, 146616, Note_off_c, 0, 33, 64
3, 146616, Note_off_c, 0, 45, 64
3, 146640, Note_on_c, 0, 33, 80
3, 146640, Note_on_c, 0, 45, 80
3, 146856, Note_off_c, 0, 33, 64
3, 146856, Note_off_c, 0, 45, 64
3, 147810, Control_c, 0, 64, 0
3, 147840, Control_c, 0, 64, 114
3, 147840, Note_on_c, 0, 38, 80
3, 147840, Note_on_c, 0, 50, 80
3, 148056, Note_off_c, 0, 38, 64
3, 148056, Note_off_c, 0, 50, 64
3, 148080, Note_on_c, 0, 50, 80
3, 148188, Note_off_c, 0, 50, 64
3, 148200, Note_on_c, 0, 53, 80
3, 148308, Note_off_c, 0, 53, 64
3, 148320, Note_on_c, 0, 57, 80
3, 148320, Note_on_c, 0, 50, 80
3, 148536, Note_off_c, 0, 57, 64
3, 148536, Note_off_c, 0, 50, 64
3, 148560, Note_on_c, 0, 50, 80
3, 148770, Control_c, 0, 64, 0
3, 148776, Note_off_c, 0, 50, 64
3, 148800, Control_c, 0, 64, 116
3, 148800, Note_on_c, 0, 34, 80
3, 148800, Note_on_c, 0, 46, 80
3, 149016, Note_off_c, 0, 34, 64
3, 149016, Note_off_c, 0, 46, 64
3, 149040, Note_on_c, 0, 50, 80
3, 149148, Note_off_c, 0, 50, 64
3, 149160, Note_on_c, 0, 53, 80
3, 149268, Note_off_c, 0, 53, 64
3, 149280, Note_on_c, 0, 58, 80
3, 149280, Note_on_c, 0, 50, 80
3, 149496, Note_off_c, 0, 58, 64
3, 149496, Note_off_c, 0, 50, 64
3, 149520, Note_on_c, 0, 46, 80
3, 149730, Control_c, 0, 64, 0
3, 149736, Note_off_c, 0, 46, 64
3, 149760, Control_c, 0, 64, 114
3, 149760, Note_on_c, 0, 36, 80
3, 149760, Note_on_c, 0, 48, 80
3, 149976, Note_off_c, 0, 36, 64
3, 149976, Note_off_c, 0, 48, 64
3, 150000, Note_on_c, 0, 48, 80
3, 150108, Note_off_c, 0, 48, 64
3, 150120, Note_on_c, 0, 52, 80
3, 150228, Note_off_c, 0, 52, 64
3, 150240, Note_on_c, 0, 55, 80
3, 150240, Note_on_c, 0, 48, 80
3, 150456, Note_off_c, 0, 55, 64
3, 150456, Note_off_c, 0, 48, 64
3, 150480, Note_on_c, 0, 48, 80
3, 150690, Control_c, 0, 64, 0
3, 150696, Note_off_c, 0, 48, 64
3, 150720, Control_c, 0, 64, 116
3, 150720, Note_on_c, 0, 41, 80
3, 150720, Note_on_c, 0, 53, 80
3, 150936, Note_off_c, 0, 41, 64
3, 150936, Note_off_c, 0, 53, 64
3, 150960, Note_on_c, 0, 48, 80
3, 151068, Note_off_c, 0, 48, 64
3, 151080, Note_on_c, 0, 48, 80
3, 151188, Note_off_c, 0, 48, 64
3, 151200, Note_on_c, 0, 57, 80
3, 151200, Note_on_c, 0, 53, 80
3, 151416, Note_off_c, 0, 57, 64
3, 151416, Note_off_c, 0, 53, 64
3, 151440, Note_on_c, 0, 48, 80
3, 151650, Control_c, 0, 64, 0
3, 151656, Note_off_c, 0, 48, 64
3, 151680, Control_c, 0, 64, 117
3, 151680, Note_on_c, 0, 38, 80
3, 151680, Note_on_c, 0, 50, 80
3, 151896, Note_off_c, 0, 38, 64
3, 151896, Note_off_c, 0, 50, 64
3, 151920, Note_on_c, 0, 50, 80
3, 152028, Note_off_c, 0, 50, 64
3, 152040, Note_on_c, 0, 53, 80
3, 152148, Note_off_c, 0, 53, 64
3, 152160, Note_on_c, 0, 57, 80
3, 152160, Note_on_c, 0, 50, 80
3, 152376, Note_off_c, 0, 57, 64
3, 152376, Note_off_c, 0, 50, 64
3, 152400, Note_on_c, 0, 50, 80
3, 152610, Control_c, 0, 64, 0
3, 152616, Note_off_c, 0, 50, 64
3, 152640, Control_c, 0, 64, 115
3, 152640, Note_on_c, 0, 34, 80
3, 152640, Note_on_c, 0, 46, 80
3, 152856, Note_off_c, 0, 34, 64
3, 152856, Note_off_c, 0, 46, 64
3, 152880, Note_on_c, 0, 50, 80
3, 152988, Note_off_c, 0, 50, 64
3, 153000, Note_on_c, 0, 53, 80
3, 153108, Note_off_c, 0, 53, 64
3, 153120, Note_on_c, 0, 58, 80
3, 153120, Note_on_c, 0, 50, 80
3, 153336, Note_off_c, 0, 58, 64
3, 153336, Note_off_c, 0, 50, 64
3, 153360, Note_on_c, 0, 46, 80
3, 153570, Control_c, 0, 64, 0
3, 153576, Note_off_c, 0, 46, 64
3, 153600, Control_c, 0, 64, 117
3, 153600, Note_on_c, 0, 36, 80
3, 153600, Note_on_c, 0, 48, 80
3, 153816, Note_off_c, 0, 36, 64
3, 153816, Note_off_c, 0, 48, 64
3, 153840, Note_on_c, 0, 48, 80
3, 153948, Note_off_c, 0, 48, 64
3, 153960, Note_on_c, 0, 52, 80
3, 154068, Note_off_c, 0, 52, 64
3, 154080, Note_on_c, 0, 55, 80
3, 154080, Note_on_c, 0, 48, 80
3, 154296, Note_off_c, 0, 55, 64
3, 154296, Note_off_c, 0, 48, 64
3, 154320, Note_on_c, 0, 48, 80
3, 154530, Control_c, 0, 64, 0
3, 154536, Note_off_c, 0, 48, 64
3, 154560, Control_c, 0, 64, 117
3, 154560, Note_on_c, 0, 41, 80
3, 154560, Note_on_c, 0, 53, 80
3, 154776, Note_off_c, 0, 41, 64
3, 154776, Note_off_c, 0, 53, 64
3, 154800, Note_on_c, 0, 48, 80
3, 154908, Note_off_c, 0, 48, 64
3, 154920, Note_on_c, 0, 48, 80
3, 155028, Note_off_c, 0, 48, 64
3, 155040, Note_on_c, 0, 41, 80
3, 155040, Note_on_c, 0, 53, 80
3, 155256, Note_off_c, 0, 41, 64
3, 155256, Note_off_c, 0, 53, 64
3, 155280, Note_on_c, 0, 48, 80
3, 155490, Control_c, 0, 64, 0
3, 155496, Note_off_c, 0, 48, 64
3, 155520, Control_c, 0, 64, 116
3, 155520, Note_on_c, 0, 38, 80
3, 155520, Note_on_c, 0, 50, 80
3, 155736, Note_off_c, 0, 38, 64
3, 155736, Note_off_c, 0, 50, 64
3, 155760, Note_on_c, 0, 50, 80
3, 155868, Note_off_c, 0, 50, 64
3, 155880, Note_on_c, 0, 53, 80
3, 155988, Note_off_c, 0, 53, 64
3, 156000, Note_on_c, 0, 57, 80
3, 156000, Note_on_c, 0, 50, 80
3, 156216, Note_off_c, 0, 57, 64
3, 156216, Note_off_c, 0, 50, 64
3, 156240, Note_on_c, 0, 50, 80
3, 156450, Control_c, 0, 64, 0
3, 156456, Note_off_c, 0, 50, 64
3, 156480, Control_c, 0, 64, 117
3, 156480, Note_on_c, 0, 34, 80
3, 156480, Note_on_c, 0, 46, 80
3, 156696, Note_off_c, 0, 34, 64
3, 156696, Note_off_c, 0, 46, 64
3, 156720, Note_on_c, 0, 50, 80
3, 156828, Note_off_c, 0, 50, 64
3, 156840, Note_on_c, 0, 53, 80
3, 156948, Note_off_c, 0, 53, 64
3, 156960, Note_on_c, 0, 58, 80
3, 156960, Note_on_c, 0, 50, 80
3, 157176, Note_off_c, 0, 58, 64
3, 157176, Note_off_c, 0, 50, 64
3, 157200, Note_on_c, 0, 46, 80
3, 157410, Control_c, 0, 64, 0
3, 157416, Note_off_c, 0, 46, 64
3, 157440, Control_c, 0, 64, 119
3, 157440, Note_on_c, 0, 36, 80
3, 157440, Note_on_c, 0, 48, 80
3, 157656, Note_off_c, 0, 36, 64
3, 157656, Note_off_c, 0, 48, 64
3, 157680, Note_on_c, 0, 48, 80
3, 157788, Note_off_c, 0, 48, 64
3, 157800, Note_on_c, 0, 52, 80
3, 157908, Note_off_c, 0, 52, 64
3, 157920, Note_on_c, 0, 55, 80
3, 157920, Note_on_c, 0, 48, 80
3, 158136, Note_off_c, 0, 55, 64
3, 158136, Note_off_c, 0, 48, 64
3, 158160, Note_on_c, 0, 48, 80
3, 158370, Control_c, 0, 64, 0
3, 158376, Note_off_c, 0, 48, 64
3, 158400, Control_c, 0, 64, 120
3, 158400, Note_on_c, 0, 41, 80
3, 158400, Note_on_c, 0, 53, 80
3, 158616, Note_off_c, 0, 41, 64
3, 158616, Note_off_c, 0, 53, 64
3, 158640, Note_on_c, 0, 48, 80
3, 158748, Note_off_c, 0, 48, 64
3, 158760, Note_on_c, 0, 48, 80
3, 158868, Note_off_c, 0, 48, 64
3, 158880, Note_on_c, 0, 57, 80
3, 158880, Note_on_c, 0, 53, 80
3, 159096, Note_off_c, 0, 57, 64
3, 159096, Note_off_c, 0, 53, 64
3, 159120, Note_on_c, 0, 48, 80
3, 159330, Control_c, 0, 64, 0
3, 159336, Note_off_c, 0, 48, 64
3, 159360, Control_c, 0, 64, 115
3, 159360, Note_on_c, 0, 34, 80
3, 159360, Note_on_c, 0, 46, 80
3, 159576, Note_off_c, 0, 34, 64
3, 159576, Note_off_c, 0, 46, 64
3, 159600, Note_on_c, 0, 50, 80
3, 159708, Note_off_c, 0, 50, 64
3, 159720, Note_on_c, 0, 53, 80
3, 159828, Note_off_c, 0, 53, 64
3, 159840, Note_on_c, 0, 58, 80
3, 159840, Note_on_c, 0, 46, 80
3, 160056, Note_off_c, 0, 58, 64
3, 160056, Note_off_c, 0, 46, 64
3, 160080, Note_on_c, 0, 50, 80
3, 160188, Note_off_c, 0, 50, 64
3, 160200, Note_on_c, 0, 53, 80
3, 160290, Control_c, 0, 64, 0
3, 160308, Note_off_c, 0, 53, 64
3, 160320, Control_c, 0, 64, 117
3, 160320, Note_on_c, 0, 33, 80
3, 160320, Note_on_c, 0, 45, 80
3, 160536, Note_off_c, 0, 33, 64
3, 160536, Note_off_c, 0, 45, 64
3, 160560, Note_on_c, 0, 48, 80
3, 160668, Note_off_c, 0, 48, 64
3, 160680, Note_on_c, 0, 52, 80
3, 160788, Note_off_c, 0, 52, 64
3, 160800, Note_on_c, 0, 57, 80
3, 160800, Note_on_c, 0, 45, 80
3, 161016, Note_off_c, 0, 57, 64
3, 161016, Note_off_c, 0, 45, 64
3, 161040, Note_on_c, 0, 48, 80
3, 161148, Note_off_c, 0, 48, 64
3, 161160, Note_on_c, 0, 52, 80
3, 161250, Control_c, 0, 64, 0
3, 161268, Note_off_c, 0, 52, 64
3, 161280, Control_c, 0, 64, 118
3, 161280, Note_on_c, 0, 34, 80
3, 161280, Note_on_c, 0, 46, 80
3, 161520, Note_off_c, 0, 34, 64
3, 161520, Note_off_c, 0, 46, 64
3, 161520, Note_on_c, 0, 46, 80
3, 161712, Note_off_c, 0, 46, 64
3, 161760, Note_on_c, 0, 36, 80
3, 161760, Note_on_c, 0, 48, 80
3, 162000, Note_off_c, 0, 36, 64
3, 162000, Note_off_c, 0, 48, 64
3, 162000, Note_on_c, 0, 48, 80
3, 162192, Note_off_c, 0, 48, 64
3, 162210, Control_c, 0, 64, 0
3, 162240, Control_c, 0, 64, 116
3, 162240, Note_on_c, 0, 38, 80
3, 162240, Note_on_c, 0, 50, 80
3, 162456, Note_off_c, 0, 38, 64
3, 162456, Note_off_c, 0, 50, 64
3, 162480, Note_on_c, 0, 45, 80
3, 162588, Note_off_c, 0, 45, 64
3, 162600, Note_on_c, 0, 50, 80
3, 162708, Note_off_c, 0, 50, 64
3, 162720, Note_on_c, 0, 38, 80
3, 162936, Note_off_c, 0, 38, 64
3, 162960, Note_on_c, 0, 50, 80
3, 163170, Control_c, 0, 64, 0
3, 163176, Note_off_c, 0, 50, 64
3, 163200, Control_c, 0, 64, 114
3, 163200, Note_on_c, 0, 38, 80
3, 163200, Note_on_c, 0, 50, 80
3, 163416, Note_off_c, 0, 38, 64
3, 163416, Note_off_c, 0, 50, 64
3, 163440, Note_on_c, 0, 50, 80
3, 163548, Note_off_c, 0, 50, 64
3, 163560, Note_on_c, 0, 53, 80
3, 163668, Note_off_c, 0, 53, 64
3, 163680, Note_on_c, 0, 57, 80
3, 163680, Note_on_c, 0, 50, 80
3, 163896, Note_off_c, 0, 57, 64
3, 163896, Note_off_c, 0, 50, 64
3, 163920, Note_on_c, 0, 50, 80
3, 164130, Control_c, 0, 64, 0
3, 164136, Note_off_c, 0, 50, 64
3, 164160, Control_c, 0, 64, 116
3, 164160, Note_on_c, 0, 34, 80
3, 164160, Note_on_c, 0, 46, 80
3, 164376, Note_off_c, 0, 34, 64
3, 164376, Note_off_c, 0, 46, 64
3, 164400, Note_on_c, 0, 50, 80
3, 164508, Note_off_c, 0, 50, 64
3, 164520, Note_on_c, 0, 53, 80
3, 164628, Note_off_c, 0, 53, 64
3, 164640, Note_on_c, 0, 58, 80
3, 164640, Note_on_c, 0, 50, 80
3, 164856, Note_off_c, 0, 58, 64
3, 164856, Note_off_c, 0, 50, 64
3, 164880, Note_on_c, 0, 46, 80
3, 165090, Control_c, 0, 64, 0
3, 165096, Note_off_c, 0, 46, 64
3, 165120, Control_c, 0, 64, 114
3, 165120, Note_on_c, 0, 36, 80
3, 165120, Note_on_c, 0, 48, 80
3, 165336, Note_off_c, 0, 36, 64
3, 165336, Note_off_c, 0, 48, 64
3, 165360, Note_on_c, 0, 48, 80
3, 165468, Note_off_c, 0, 48, 64
3, 165480, Note_on_c, 0, 52, 80
3, 165588, Note_off_c, 0, 52, 64
3, 165600, Note_on_c, 0, 55, 80
3, 165600, Note_on_c, 0, 48, 80
3, 165816, Note_off_c, 0, 55, 64
3, 165816, Note_off_c, 0, 48, 64
3, 165840, Note_on_c, 0, 48, 80
3, 166050, Control_c, 0, 64, 0
3, 166056, Note_off_c, 0, 48, 64
3, 166080, Control_c, 0, 64, 116
3, 166080, Note_on_c, 0, 41, 80
3, 166080, Note_on_c, 0, 53, 80
3, 166296, Note_off_c, 0, 41, 64
3, 166296, Note_off_c, 0, 53, 64
3, 166320, Note_on_c, 0, 48, 80
3, 166428, Note_off_c, 0, 48, 64
3, 166440, Note_on_c, 0, 48, 80
3, 166548, Note_off_c, 0, 48, 64
3, 166560, Note_on_c, 0, 57, 80
3, 166560, Note_on_c, 0, 53, 80
3, 166776, Note_off_c, 0, 57, 64
3, 166776, Note_off_c, 0, 53, 64
3, 166800, Note_on_c, 0, 48, 80
3, 167010, Control_c, 0, 64, 0
3, 167016, Note_off_c, 0, 48, 64
3, 167040, Control_c, 0, 64, 117
3, 167040, Note_on_c, 0, 38, 80
3, 167040, Note_on_c, 0, 50, 80
3, 167256, Note_off_c, 0, 38, 64
3, 167256, Note_off_c, 0, 50, 64
3, 167280, Note_on_c, 0, 50, 80
3, 167388, Note_off_c, 0, 50, 64
3, 167400, Note_on_c, 0, 53, 80
3, 167508, Note_off_c, 0, 53, 64
3, 167520, Note_on_c, 0, 57, 80
3, 167520, Note_on_c, 0, 50, 80
3, 167736, Note_off_c, 0, 57, 64
3, 167736, Note_off_c, 0, 50, 64
3, 167760, Note_on_c, 0, 50, 80
3, 167970, Control_c, 0, 64, 0
3, 167976, Note_off_c, 0, 50, 64
3, 168000, Control_c, 0, 64, 115
3, 168000, Note_on_c, 0, 34, 80
3, 168000, Note_on_c, 0, 46, 80
3, 168216, Note_off_c, 0, 34, 64
3, 168216, Note_off_c, 0, 46, 64
3, 168240, Note_on_c, 0, 50, 80
3, 168348, Note_off_c, 0, 50, 64
3, 168360, Note_on_c, 0, 53, 80
3, 168468, Note_off_c, 0, 53, 64
3, 168480, Note_on_c, 0, 58, 80
3, 168480, Note_on_c, 0, 50, 80
3, 168696, Note_off_c, 0, 58, 64
3, 168696, Note_off_c, 0, 50, 64
3, 168720, Note_on_c, 0, 46, 80
3, 168930, Control_c, 0, 64, 0
3, 168936, Note_off_c, 0, 46, 64
3, 168960, Control_c, 0, 64, 117
3, 168960, Note_on_c, 0, 36, 80
3, 168960, Note_on_c, 0, 48, 80
3, 169176, Note_off_c, 0, 36, 64
3, 169176, Note_off_c, 0, 48, 64
3, 169200, Note_on_c, 0, 48, 80
3, 169308, Note_off_c, 0, 48, 64
3, 169320, Note_on_c, 0, 52, 80
3, 169428, Note_off_c, 0, 52, 64
3, 169440, Note_on_c, 0, 55, 80
3, 169440, Note_on_c, 0, 48, 80
3, 169656, Note_off_c, 0, 55, 64
3, 169656, Note_off_c, 0, 48, 64
3, 169680, Note_on_c, 0, 48, 80
3, 169890, Control_c, 0, 64, 0
3, 169896, Note_off_c, 0, 48, 64
3, 169920, Control_c, 0, 64, 117
3, 169920, Note_on_c, 0, 41, 80
3, 169920, Note_on_c, 0, 53, 80
3, 170136, Note_off_c, 0, 41, 64
3, 170136, Note_off_c, 0, 53, 64
3, 170160, Note_on_c, 0, 48, 80
3, 170268, Note_off_c, 0, 48, 64
3, 170280, Note_on_c, 0, 48, 80
3, 170388, Note_off_c, 0, 48, 64
3, 170400, Note_on_c, 0, 41, 80
3, 170400, Note_on_c, 0, 53, 80
3, 170616, Note_off_c, 0, 41, 64
3, 170616, Note_off_c, 0, 53, 64
3, 170640, Note_on_c, 0, 48, 80
3, 170850, Control_c, 0, 64, 0
3, 170856, Note_off_c, 0, 48, 64
3, 170880, Control_c, 0, 64, 116
3, 170880, Note_on_c, 0, 38, 80
3, 170880, Note_on_c, 0, 50, 80
3, 171096, Note_off_c, 0, 38, 64
3, 171096, Note_off_c, 0, 50, 64
3, 171120, Note_on_c, 0, 50, 80
3, 171228, Note_off_c, 0, 50, 64
3, 171240, Note_on_c, 0, 53, 80
3, 171348, Note_off_c, 0, 53, 64
3, 171360, Note_on_c, 0, 57, 80
3, 171360, Note_on_c, 0, 50, 80
3, 171576, Note_off_c, 0, 57, 64
3, 171576, Note_off_c, 0, 50, 64
3, 171600, Note_on_c, 0, 50, 80
3, 171810, Control_c, 0, 64, 0
3, 171816, Note_off_c, 0, 50, 64
3, 171840, Control_c, 0, 64, 117
3, 171840, Note_on_c, 0, 34, 80
3, 171840, Note_on_c, 0, 46, 80
3, 172056, Note_off_c, 0, 34, 64
3, 172056, Note_off_c, 0, 46, 64
3, 172080, Note_on_c, 0, 50, 80
3, 172188, Note_off_c, 0, 50, 64
3, 172200, Note_on_c, 0, 53, 80
3, 172308, Note_off_c, 0, 53, 64
3, 172320, Note_on_c, 0, 58, 80
3, 172320, Note_on_c, 0, 50, 80
3, 172536, Note_off_c, 0, 58, 64
3, 172536, Note_off_c, 0, 50, 64
3, 172560, Note_on_c, 0, 46, 80
3, 172770, Control_c, 0, 64, 0
3, 172776, Note_off_c, 0, 46, 64
3, 172800, Control_c, 0, 64, 119
3, 172800, Note_on_c, 0, 36, 80
3, 172800, Note_on_c, 0, 48, 80
3, 173016, Note_off_c, 0, 36, 64
3, 173016, Note_off_c, 0, 48, 64
3, 173040, Note_on_c, 0, 48, 80
3, 173148, Note_off_c, 0, 48, 64
3, 173160, Note_on_c, 0, 52, 80
3, 173268, Note_off_c, 0, 52, 64
3, 173280, Note_on_c, 0, 55, 80
3, 173280, Note_on_c, 0, 48, 80
3, 173496, Note_off_c, 0, 55, 64
3, 173496, Note_off_c, 0, 48, 64
3, 173520, Note_on_c, 0, 48, 80
3, 173730, Control_c, 0, 64, 0
3, 173736, Note_off_c, 0, 48, 64
3, 173760, Control_c, 0, 64, 120
3, 173760, Note_on_c, 0, 41, 80
3, 173760, Note_on_c, 0, 53, 80
3, 173976, Note_off_c, 0, 41, 64
3, 173976, Note_off_c, 0, 53, 64
3, 174000, Note_on_c, 0, 48, 80
3, 174108, Note_off_c, 0, 48, 64
3, 174120, Note_on_c, 0, 48, 80
3, 174228, Note_off_c, 0, 48, 64
3, 174240, Note_on_c, 0, 57, 80
3, 174240, Note_on_c, 0, 53, 80
3, 174456, Note_off_c, 0, 57, 64
3, 174456, Note_off_c, 0, 53, 64
3, 174480, Note_on_c, 0, 48, 80
3, 174690, Control_c, 0, 64, 0
3, 174696, Note_off_c, 0, 48, 64
3, 174720, Control_c, 0, 64, 115
3, 174720, Note_on_c, 0, 34, 80
3, 174720, Note_on_c, 0, 46, 80
3, 174936, Note_off_c, 0, 34, 64
3, 174936, Note_off_c, 0, 46, 64
3, 174960, Note_on_c, 0, 50, 80
3, 175068, Note_off_c, 0, 50, 64
3, 175080, Note_on_c, 0, 53, 80
3, 175188, Note_off_c, 0, 53, 64
3, 175200, Note_on_c, 0, 58, 80
3, 175200, Note_on_c, 0, 46, 80
3, 175416, Note_off_c, 0, 58, 64
3, 175416, Note_off_c, 0, 46, 64
3, 175440, Note_on_c, 0, 50, 80
3, 175548, Note_off_c, 0, 50, 64
3, 175560, Note_on_c, 0, 53, 80
3, 175650, Control_c, 0, 64, 0
3, 175668, Note_off_c, 0, 53, 64
3, 175680, Control_c, 0, 64, 117
3, 175680, Note_on_c, 0, 33, 80
3, 175680, Note_on_c, 0, 45, 80
3, 175896, Note_off_c, 0, 33, 64
3, 175896, Note_off_c, 0, 45, 64
3, 175920, Note_on_c, 0, 48, 80
3, 176028, Note_off_c, 0, 48, 64
3, 176040, Note_on_c, 0, 52, 80
3, 176148, Note_off_c, 0, 52, 64
3, 176160, Note_on_c, 0, 57, 80
3, 176160, Note_on_c, 0, 45, 80
3, 176376, Note_off_c, 0, 57, 64
3, 176376, Note_off_c, 0, 45, 64
3, 176400, Note_on_c, 0, 48, 80
3, 176508, Note_off_c, 0, 48, 64
3, 176520, Note_on_c, 0, 52, 80
3, 176610, Control_c, 0, 64, 0
3, 176628, Note_off_c, 0, 52, 64
3, 176640, Control_c, 0, 64, 118
3, 176640, Note_on_c, 0, 34, 80
3, 176640, Note_on_c, 0, 46, 80
3, 176880, Note_off_c, 0, 34, 64
3, 176880, Note_off_c, 0, 46, 64
3, 176880, Note_on_c, 0, 46, 80
3, 177072, Note_off_c, 0, 46, 64
3, 177120, Note_on_c, 0, 36, 80
3, 177120, Note_on_c, 0, 48, 80
3, 177360, Note_off_c, 0, 36, 64
3, 177360, Note_off_c, 0, 48, 64
3, 177360, Note_on_c, 0, 48, 80
3, 177552, Note_off_c, 0, 48, 64
3, 177570, Control_c, 0, 64, 0
3, 177600, Control_c, 0, 64, 116
3, 177600, Note_on_c, 0, 38, 80
3, 177600, Note_on_c, 0, 50, 80
3, 177816, Note_off_c, 0, 38, 64
3, 177816, Note_off_c, 0, 50, 64
3, 177840, Note_on_c, 0, 45, 80
3, 177948, Note_off_c, 0, 45, 64
3, 177960, Note_on_c, 0, 45, 80
3, 178068, Note_off_c, 0, 45, 64
3, 178080, Note_on_c, 0, 38, 80
3, 178080, Note_on_c, 0, 50, 80
3, 178296, Note_off_c, 0, 38, 64
3, 178296, Note_off_c, 0, 50, 64
3, 178320, Note_on_c, 0, 38, 80
3, 178320, Note_on_c, 0, 50, 80
3, 178530, Control_c, 0, 64, 0
3, 178536, Note_off_c, 0, 38, 64
3, 178536, Note_off_c, 0, 50, 64
3, 178560, Control_c, 0, 64, 119
3, 178560, Note_on_c, 0, 50, 80
3, 178582, Note_on_c, 0, 57, 80
3, 178605, Note_on_c, 0, 62, 80
3, 178627, Note_on_c, 0, 65, 80
3, 179424, Note_off_c, 0, 50, 64
3, 179446, Note_off_c, 0, 57, 64
3, 179469, Note_off_c, 0, 62, 64
3, 179490, Control_c, 0, 64, 0
3, 179491, Note_off_c, 0, 65, 64
3, 179520, Control_c, 0, 64, 121
3, 179520, Note_on_c, 0, 46, 80
3, 179540, Note_on_c, 0, 53, 80
3, 179560, Note_on_c, 0, 58, 80
3, 179580, Note_on_c, 0, 62, 80
3, 180384, Note_off_c, 0, 46, 64
3, 180404, Note_off_c, 0, 53, 64
3, 180424, Note_off_c, 0, 58, 64
3, 180444, Note_off_c, 0, 62, 64
3, 180450, Control_c, 0, 64, 0
3, 180480, Control_c, 0, 64, 123
3, 180480, Note_on_c, 0, 48, 80
3, 180500, Note_on_c, 0, 55, 80
3, 180520, Note_on_c, 0, 60, 80
3, 180540, Note_on_c, 0, 62, 80
3, 181344, Note_off_c, 0, 48, 64
3, 181364, Note_off_c, 0, 55, 64
3, 181384, Note_off_c, 0, 60, 64
3, 181404, Note_off_c, 0, 62, 64
3, 181410, Control_c, 0, 64, 0
3, 181440, Control_c, 0, 64, 122
3, 181440, Note_on_c, 0, 50, 80
3, 181460, Note_on_c, 0, 57, 80
3, 181480, Note_on_c, 0, 62, 80
3, 182304, Note_off_c, 0, 50, 64
3, 182324, Note_off_c, 0, 57, 64
3, 182344, Note_off_c, 0, 62, 64
3, 182370, Control_c, 0, 64, 0
3, 182400, Control_c, 0, 64, 122
3, 182400, Note_on_c, 0, 50, 80
3, 182422, Note_on_c, 0, 53, 80
3, 182445, Note_on_c, 0, 57, 80
3, 182467, Note_on_c, 0, 62, 80
3, 183264, Note_off_c, 0, 50, 64
3, 183286, Note_off_c, 0, 53, 64
3, 183309, Note_off_c, 0, 57, 64
3, 183330, Control_c, 0, 64, 0
3, 183331, Note_off_c, 0, 62, 64
3, 183360, Control_c, 0, 64, 121
3, 183360, Note_on_c, 0, 46, 80
3, 183380, Note_on_c, 0, 50, 80
3, 183400, Note_on_c, 0, 53, 80
3, 183420, Note_on_c, 0, 58, 80
3, 184224, Note_off_c, 0, 46, 64
3, 184244, Note_off_c, 0, 50, 64
3, 184264, Note_off_c, 0, 53, 64
3, 184284, Note_off_c, 0, 58, 64
3, 184290, Control_c, 0, 64, 0
3, 184320, Control_c, 0, 64, 123
3, 184320, Note_on_c, 0, 36, 80
3, 184320, Note_on_c, 0, 48, 80
3, 184536, Note_off_c, 0, 36, 64
3, 184536, Note_off_c, 0, 48, 64
3, 184560, Note_on_c, 0, 48, 80
3, 184776, Note_off_c, 0, 48, 64
3, 184800, Note_on_c, 0, 52, 80
3, 184800, Note_on_c, 0, 55, 80
3, 184800, Note_on_c, 0, 60, 80
3, 185016, Note_off_c, 0, 52, 64
3, 185016, Note_off_c, 0, 55, 64
3, 185016, Note_off_c, 0, 60, 64
3, 185040, Note_on_c, 0, 48, 80
3, 185250, Control_c, 0, 64, 0
3, 185256, Note_off_c, 0, 48, 64
3, 185280, Control_c, 0, 64, 120
3, 185280, Note_on_c, 0, 37, 80
3, 185280, Note_on_c, 0, 49, 80
3, 185460, Note_off_c, 0, 37, 64
3, 185460, Note_off_c, 0, 49, 64
3, 185460, Note_on_c, 0, 49, 80
3, 185514, Note_off_c, 0, 49, 64
3, 185520, Note_on_c, 0, 52, 80
3, 185520, Note_on_c, 0, 55, 80
3, 185520, Note_on_c, 0, 61, 80
3, 185736, Note_off_c, 0, 52, 64
3, 185736, Note_off_c, 0, 55, 64
3, 185736, Note_off_c, 0, 61, 64
3, 185760, Note_on_c, 0, 49, 80
3, 185868, Note_off_c, 0, 49, 64
3, 185880, Note_on_c, 0, 61, 80
3, 185880, Note_on_c, 0, 58, 80
3, 185880, Note_on_c, 0, 55, 80
3, 185988, Note_off_c, 0, 61, 64
3, 185988, Note_off_c, 0, 58, 64
3, 185988, Note_off_c, 0, 55, 64
3, 186000, Note_on_c, 0, 49, 80
3, 186210, Control_c, 0, 64, 0
3, 186216, Note_off_c, 0, 49, 64
3, 186240, Control_c, 0, 64, 121
3, 186240, Note_on_c, 0, 50, 80
3, 186240, Note_on_c, 0, 38, 80
3, 186456, Note_off_c, 0, 50, 64
3, 186456, Note_off_c, 0, 38, 64
3, 186480, Note_on_c, 0, 62, 80
3, 186480, Note_on_c, 0, 57, 80
3, 186480, Note_on_c, 0, 53, 80
3, 186696, Note_off_c, 0, 62, 64
3, 186696, Note_off_c, 0, 57, 64
3, 186696, Note_off_c, 0, 53, 64
3, 186720, Note_on_c, 0, 50, 80
3, 186936, Note_off_c, 0, 50, 64
3, 186960, Note_on_c, 0, 62, 80
3, 186960, Note_on_c, 0, 57, 80
3, 186960, Note_on_c, 0, 53, 80
3, 187176, Note_off_c, 0, 62, 64
3, 187176, Note_off_c, 0, 57, 64
3, 187176, Note_off_c, 0, 53, 64
3, 187200, Note_on_c, 0, 45, 80
3, 187416, Note_off_c, 0, 45, 64
3, 187440, Note_on_c, 0, 62, 80
3, 187440, Note_on_c, 0, 57, 80
3, 187440, Note_on_c, 0, 53, 80
3, 187656, Note_off_c, 0, 62, 64
3, 187656, Note_off_c, 0, 57, 64
3, 187656, Note_off_c, 0, 53, 64
3, 187680, Note_on_c, 0, 50, 80
3, 187896, Note_off_c, 0, 50, 64
3, 187920, Note_on_c, 0, 62, 80
3, 187920, Note_on_c, 0, 57, 80
3, 187920, Note_on_c, 0, 53, 80
3, 188130, Control_c, 0, 64, 0
3, 188136, Note_off_c, 0, 62, 64
3, 188136, Note_off_c, 0, 57, 64
3, 188136, Note_off_c, 0, 53, 64
3, 188160, Control_c, 0, 64, 121
3, 188160, Note_on_c, 0, 51, 80
3, 188160, Note_on_c, 0, 39, 80
3, 188376, Note_off_c, 0, 51, 64
3, 188376, Note_off_c, 0, 39, 64
3, 188400, Note_on_c, 0, 63, 80
3, 188400, Note_on_c, 0, 58, 80
3, 188400, Note_on_c, 0, 55, 80
3, 188616, Note_off_c, 0, 63, 64
3, 188616, Note_off_c, 0, 58, 64
3, 188616, Note_off_c, 0, 55, 64
3, 188640, Note_on_c, 0, 51, 80
3, 188856, Note_off_c, 0, 51, 64
3, 188880, Note_on_c, 0, 63, 80
3, 188880, Note_on_c, 0, 58, 80
3, 188880, Note_on_c, 0, 55, 80
3, 189096, Note_off_c, 0, 63, 64
3, 189096, Note_off_c, 0, 58, 64
3, 189096, Note_off_c, 0, 55, 64
3, 189120, Note_on_c, 0, 46, 80
3, 189336, Note_off_c, 0, 46, 64
3, 189360, Note_on_c, 0, 63, 80
3, 189360, Note_on_c, 0, 58, 80
3, 189360, Note_on_c, 0, 55, 80
3, 189576, Note_off_c, 0, 63, 64
3, 189576, Note_off_c, 0, 58, 64
3, 189576, Note_off_c, 0, 55, 64
3, 189600, Note_on_c, 0, 51, 80
3, 189816, Note_off_c, 0, 51, 64
3, 189840, Note_on_c, 0, 63, 80
3, 189840, Note_on_c, 0, 58, 80
3, 189840, Note_on_c, 0, 55, 80
3, 190050, Control_c, 0, 64, 0
3, 190056, Note_off_c, 0, 63, 64
3, 190056, Note_off_c, 0, 58, 64
3, 190056, Note_off_c, 0, 55, 64
3, 190080, Control_c, 0, 64, 122
3, 190080, Note_on_c, 0, 34, 80
3, 190080, Note_on_c, 0, 46, 80
3, 190296, Note_off_c, 0, 34, 64
3, 190296, Note_off_c, 0, 46, 64
3, 190320, Note_on_c, 0, 53, 80
3, 190320, Note_on_c, 0, 58, 80
3, 190320, Note_on_c, 0, 62, 80
3, 190536, Note_off_c, 0, 53, 64
3, 190536, Note_off_c, 0, 58, 64
3, 190536, Note_off_c, 0, 62, 64
3, 190560, Note_on_c, 0, 46, 80
3, 190776, Note_off_c, 0, 46, 64
3, 190800, Note_on_c, 0, 53, 80
3, 190800, Note_on_c, 0, 58, 80
3, 190800, Note_on_c, 0, 62, 80
3, 191016, Note_off_c, 0, 53, 64
3, 191016, Note_off_c, 0, 58, 64
3, 191016, Note_off_c, 0, 62, 64
3, 191040, Note_on_c, 0, 46, 80
3, 191256, Note_off_c, 0, 46, 64
3, 191280, Note_on_c, 0, 62, 80
3, 191280, Note_on_c, 0, 58, 80
3, 191280, Note_on_c, 0, 53, 80
3, 191496, Note_off_c, 0, 62, 64
3, 191496, Note_off_c, 0, 58, 64
3, 191496, Note_off_c, 0, 53, 64
3, 191520, Note_on_c, 0, 46, 80
3, 191736, Note_off_c, 0, 46, 64
3, 191760, Note_on_c, 0, 62, 80
3, 191760, Note_on_c, 0, 58, 80
3, 191760, Note_on_c, 0, 53, 80
3, 191970, Control_c, 0, 64, 0
3, 191976, Note_off_c, 0, 62, 64
3, 191976, Note_off_c, 0, 58, 64
3, 191976, Note_off_c, 0, 53, 64
3, 192000, Control_c, 0, 64, 121
3, 192000, Note_on_c, 0, 36, 80
3, 192000, Note_on_c, 0, 48, 80
3, 192216, Note_off_c, 0, 36, 64
3, 192216, Note_off_c, 0, 48, 64
3, 192240, Note_on_c, 0, 52, 80
3, 192240, Note_on_c, 0, 55, 80
3, 192240, Note_on_c, 0, 60, 80
3, 192456, Note_off_c, 0, 52, 64
3, 192456, Note_off_c, 0, 55, 64
3, 192456, Note_off_c, 0, 60, 64
3, 192480, Note_on_c, 0, 48, 80
3, 192696, Note_off_c, 0, 48, 64
3, 192720, Note_on_c, 0, 52, 80
3, 192720, Note_on_c, 0, 55, 80
3, 192720, Note_on_c, 0, 60, 80
3, 192930, Control_c, 0, 64, 0
3, 192936, Note_off_c, 0, 52, 64
3, 192936, Note_off_c, 0, 55, 64
3, 192936, Note_off_c, 0, 60, 64
3, 192960, Control_c, 0, 64, 124
3, 192960, Note_on_c, 0, 45, 80
3, 192960, Note_on_c, 0, 33, 80
3, 193176, Note_off_c, 0, 45, 64
3, 193176, Note_off_c, 0, 33, 64
3, 193200, Note_on_c, 0, 64, 80
3, 193200, Note_on_c, 0, 61, 80
3, 193200, Note_on_c, 0, 57, 80
3, 193416, Note_off_c, 0, 64, 64
3, 193416, Note_off_c, 0, 61, 64
3, 193416, Note_off_c, 0, 57, 64
3, 193440, Note_on_c, 0, 52, 80
3, 193656, Note_off_c, 0, 52, 64
3, 193680, Note_on_c, 0, 64, 80
3, 193680, Note_on_c, 0, 61, 80
3, 193680, Note_on_c, 0, 57, 80
3, 193890, Control_c, 0, 64, 0
3, 193896, Note_off_c, 0, 64, 64
3, 193896, Note_off_c, 0, 61, 64
3, 193896, Note_off_c, 0, 57, 64
3, 193920, Control_c, 0, 64, 123
3, 193920, Note_on_c, 0, 50, 80
3, 193920, Note_on_c, 0, 38, 80
3, 194136, Note_off_c, 0, 50, 64
3, 194136, Note_off_c, 0, 38, 64
3, 194160, Note_on_c, 0, 62, 80
3, 194160, Note_on_c, 0, 57, 80
3, 194160, Note_on_c, 0, 53, 80
3, 194376, Note_off_c, 0, 62, 64
3, 194376, Note_off_c, 0, 57, 64
3, 194376, Note_off_c, 0, 53, 64
3, 194400, Note_on_c, 0, 50, 80
3, 194616, Note_off_c, 0, 50, 64
3, 194640, Note_on_c, 0, 62, 80
3, 194640, Note_on_c, 0, 57, 80
3, 194640, Note_on_c, 0, 53, 80
3, 194856, Note_off_c, 0, 62, 64
3, 194856, Note_off_c, 0, 57, 64
3, 194856, Note_off_c, 0, 53, 64
3, 194880, Note_on_c, 0, 45, 80
3, 195096, Note_off_c, 0, 45, 64
3, 195120, Note_on_c, 0, 62, 80
3, 195120, Note_on_c, 0, 57, 80
3, 195120, Note_on_c, 0, 53, 80
3, 195336, Note_off_c, 0, 62, 64
3, 195336, Note_off_c, 0, 57, 64
3, 195336, Note_off_c, 0, 53, 64
3, 195360, Note_on_c, 0, 41, 80
3, 195576, Note_off_c, 0, 41, 64
3, 195600, Note_on_c, 0, 62, 80
3, 195600, Note_on_c, 0, 57, 80
3, 195600, Note_on_c, 0, 53, 80
3, 195810, Control_c, 0, 64, 0
3, 195816, Note_off_c, 0, 62, 64
3, 195816, Note_off_c, 0, 57, 64
3, 195816, Note_off_c, 0, 53, 64
3, 195840, Control_c, 0, 64, 125
3, 195840, Note_on_c, 0, 51, 80
3, 195840, Note_on_c, 0, 39, 80
3, 196056, Note_off_c, 0, 51, 64
3, 196056, Note_off_c, 0, 39, 64
3, 196080, Note_on_c, 0, 63, 80
3, 196080, Note_on_c, 0, 58, 80
3, 196080, Note_on_c, 0, 55, 80
3, 196296, Note_off_c, 0, 63, 64
3, 196296, Note_off_c, 0, 58, 64
3, 196296, Note_off_c, 0, 55, 64
3, 196320, Note_on_c, 0, 51, 80
3, 196536, Note_off_c, 0, 51, 64
3, 196560, Note_on_c, 0, 63, 80
3, 196560, Note_on_c, 0, 58, 80
3, 196560, Note_on_c, 0, 55, 80
3, 196776, Note_off_c, 0, 63, 64
3, 196776, Note_off_c, 0, 58, 64
3, 196776, Note_off_c, 0, 55, 64
3, 196800, Note_on_c, 0, 46, 80
3, 197016, Note_off_c, 0, 46, 64
3, 197040, Note_on_c, 0, 63, 80
3, 197040, Note_on_c, 0, 58, 80
3, 197040, Note_on_c, 0, 55, 80
3, 197256, Note_off_c, 0, 63, 64
3, 197256, Note_off_c, 0, 58, 64
3, 197256, Note_off_c, 0, 55, 64
3, 197280, Note_on_c, 0, 43, 80
3, 197496, Note_off_c, 0, 43, 64
3, 197520, Note_on_c, 0, 63, 80
3, 197520, Note_on_c, 0, 58, 80
3, 197520, Note_on_c, 0, 55, 80
3, 197730, Control_c, 0, 64, 0
3, 197736, Note_off_c, 0, 63, 64
3, 197736, Note_off_c, 0, 58, 64
3, 197736, Note_off_c, 0, 55, 64
3, 197760, Control_c, 0, 64, 122
3, 197760, Note_on_c, 0, 34, 80
3, 197760, Note_on_c, 0, 46, 80
3, 197976, Note_off_c, 0, 34, 64
3, 197976, Note_off_c, 0, 46, 64
3, 198000, Note_on_c, 0, 53, 80
3, 198000, Note_on_c, 0, 58, 80
3, 198000, Note_on_c, 0, 62, 80
3, 198216, Note_off_c, 0, 53, 64
3, 198216, Note_off_c, 0, 58, 64
3, 198216, Note_off_c, 0, 62, 64
3, 198240, Note_on_c, 0, 46, 80
3, 198456, Note_off_c, 0, 46, 64
3, 198480, Note_on_c, 0, 53, 80
3, 198480, Note_on_c, 0, 58, 80
3, 198480, Note_on_c, 0, 62, 80
3, 198696, Note_off_c, 0, 53, 64
3, 198696, Note_off_c, 0, 58, 64
3, 198696, Note_off_c, 0, 62, 64
3, 198720, Note_on_c, 0, 46, 80
3, 198936, Note_off_c, 0, 46, 64
3, 198960, Note_on_c, 0, 62, 80
3, 198960, Note_on_c, 0, 58, 80
3, 198960, Note_on_c, 0, 53, 80
3, 199176, Note_off_c, 0, 62, 64
3, 199176, Note_off_c, 0, 58, 64
3, 199176, Note_off_c, 0, 53, 64
3, 199200, Note_on_c, 0, 46, 80
3, 199416, Note_off_c, 0, 46, 64
3, 199440, Note_on_c, 0, 62, 80
3, 199440, Note_on_c, 0, 58, 80
3, 199440, Note_on_c, 0, 53, 80
3, 199650, Control_c, 0, 64, 0
3, 199656, Note_off_c, 0, 62, 64
3, 199656, Note_off_c, 0, 58, 64
3, 199656, Note_off_c, 0, 53, 64
3, 199680, Control_c, 0, 64, 121
3, 199680, Note_on_c, 0, 36, 80
3, 199680, Note_on_c, 0, 48, 80
3, 199896, Note_off_c, 0, 36, 64
3, 199896, Note_off_c, 0, 48, 64
3, 199920, Note_on_c, 0, 52, 80
3, 199920, Note_on_c, 0, 55, 80
3, 199920, Note_on_c, 0, 60, 80
3, 200136, Note_off_c, 0, 52, 64
3, 200136, Note_off_c, 0, 55, 64
3, 200136, Note_off_c, 0, 60, 64
3, 200160, Note_on_c, 0, 48, 80
3, 200376, Note_off_c, 0, 48, 64
3, 200400, Note_on_c, 0, 52, 80
3, 200400, Note_on_c, 0, 55, 80
3, 200400, Note_on_c, 0, 60, 80
3, 200610, Control_c, 0, 64, 0
3, 200616, Note_off_c, 0, 52, 64
3, 200616, Note_off_c, 0, 55, 64
3, 200616, Note_off_c, 0, 60, 64
3, 200640, Control_c, 0, 64, 124
3, 200640, Note_on_c, 0, 45, 80
3, 200640, Note_on_c, 0, 33, 80
3, 200856, Note_off_c, 0, 45, 64
3, 200856, Note_off_c, 0, 33, 64
3, 200880, Note_on_c, 0, 64, 80
3, 200880, Note_on_c, 0, 61, 80
3, 200880, Note_on_c, 0, 57, 80
3, 201096, Note_off_c, 0, 64, 64
3, 201096, Note_off_c, 0, 61, 64
3, 201096, Note_off_c, 0, 57, 64
3, 201120, Note_on_c, 0, 52, 80
3, 201336, Note_off_c, 0, 52, 64
3, 201360, Note_on_c, 0, 64, 80
3, 201360, Note_on_c, 0, 61, 80
3, 201360, Note_on_c, 0, 57, 80
3, 201570, Control_c, 0, 64, 0
3, 201576, Note_off_c, 0, 64, 64
3, 201576, Note_off_c, 0, 61, 64
3, 201576, Note_off_c, 0, 57, 64
3, 201600, Control_c, 0, 64, 122
3, 201600, Note_on_c, 0, 46, 80
3, 201600, Note_on_c, 0, 34, 80
3, 201816, Note_off_c, 0, 46, 64
3, 201816, Note_off_c, 0, 34, 64
3, 201840, Note_on_c, 0, 69, 80
3, 201840, Note_on_c, 0, 65, 80
3, 201840, Note_on_c, 0, 62, 80
3, 201840, Note_on_c, 0, 58, 80
3, 202056, Note_off_c, 0, 69, 64
3, 202056, Note_off_c, 0, 65, 64
3, 202056, Note_off_c, 0, 62, 64
3, 202056, Note_off_c, 0, 58, 64
3, 202080, Note_on_c, 0, 53, 80
3, 202296, Note_off_c, 0, 53, 64
3, 202320, Note_on_c, 0, 69, 80
3, 202320, Note_on_c, 0, 65, 80
3, 202320, Note_on_c, 0, 62, 80
3, 202320, Note_on_c, 0, 58, 80
3, 202530, Control_c, 0, 64, 0
3, 202536, Note_off_c, 0, 69, 64
3, 202536, Note_off_c, 0, 65, 64
3, 202536, Note_off_c, 0, 62, 64
3, 202536, Note_off_c, 0, 58, 64
3, 202560, Control_c, 0, 64, 121
3, 202560, Note_on_c, 0, 48, 80
3, 202560, Note_on_c, 0, 36, 80
3, 202776, Note_off_c, 0, 48, 64
3, 202776, Note_off_c, 0, 36, 64
3, 202800, Note_on_c, 0, 67, 80
3, 202800, Note_on_c, 0, 64, 80
3, 202800, Note_on_c, 0, 60, 80
3, 203016, Note_off_c, 0, 67, 64
3, 203016, Note_off_c, 0, 64, 64
3, 203016, Note_off_c, 0, 60, 64
3, 203040, Note_on_c, 0, 55, 80
3, 203256, Note_off_c, 0, 55, 64
3, 203280, Note_on_c, 0, 67, 80
3, 203280, Note_on_c, 0, 64, 80
3, 203280, Note_on_c, 0, 60, 80
3, 203490, Control_c, 0, 64, 0
3, 203496, Note_off_c, 0, 67, 64
3, 203496, Note_off_c, 0, 64, 64
3, 203496, Note_off_c, 0, 60, 64
3, 203520, Control_c, 0, 64, 112
3, 203520, Note_on_c, 0, 50, 80
3, 203520, Note_on_c, 0, 38, 80
3, 203736, Note_off_c, 0, 50, 64
3, 203736, Note_off_c, 0, 38, 64
3, 203760, Note_on_c, 0, 65, 80
3, 203760, Note_on_c, 0, 62, 80
3, 203760, Note_on_c, 0, 57, 80
3, 203976, Note_off_c, 0, 65, 64
3, 203976, Note_off_c, 0, 62, 64
3, 203976, Note_off_c, 0, 57, 64
3, 204000, Note_on_c, 0, 53, 80
3, 204000, Note_on_c, 0, 41, 80
3, 204216, Note_off_c, 0, 53, 64
3, 204216, Note_off_c, 0, 41, 64
3, 204240, Note_on_c, 0, 65, 80
3, 204240, Note_on_c, 0, 62, 80
3, 204240, Note_on_c, 0, 57, 80
3, 204456, Note_off_c, 0, 65, 64
3, 204456, Note_off_c, 0, 62, 64
3, 204456, Note_off_c, 0, 57, 64
3, 204480, Note_on_c, 0, 45, 80
3, 204696, Note_off_c, 0, 45, 64
3, 204720, Note_on_c, 0, 62, 80
3, 204720, Note_on_c, 0, 57, 80
3, 204720, Note_on_c, 0, 53, 80
3, 204936, Note_off_c, 0, 62, 64
3, 204936, Note_off_c, 0, 57, 64
3, 204936, Note_off_c, 0, 53, 64
3, 204960, Note_on_c, 0, 38, 80
3, 205176, Note_off_c, 0, 38, 64
3, 205200, Note_on_c, 0, 57, 80
3, 205200, Note_on_c, 0, 53, 80
3, 205410, Control_c, 0, 64, 0
3, 205416, Note_off_c, 0, 57, 64
3, 205416, Note_off_c, 0, 53, 64
3, 205440, Control_c, 0, 64, 112
3, 205440, Note_on_c, 0, 34, 80
3, 205440, Note_on_c, 0, 46, 80
3, 205656, Note_off_c, 0, 34, 64
3, 205656, Note_off_c, 0, 46, 64
3, 205680, Note_on_c, 0, 50, 80
3, 205680, Note_on_c, 0, 53, 80
3, 205896, Note_off_c, 0, 50, 64
3, 205896, Note_off_c, 0, 53, 64
3, 205920, Note_on_c, 0, 46, 80
3, 206136, Note_off_c, 0, 46, 64
3, 206160, Note_on_c, 0, 50, 80
3, 206160, Note_on_c, 0, 53, 80
3, 206370, Control_c, 0, 64, 0
3, 206376, Note_off_c, 0, 50, 64
3, 206376, Note_off_c, 0, 53, 64
3, 206400, Control_c, 0, 64, 112
3, 206400, Note_on_c, 0, 36, 80
3, 206400, Note_on_c, 0, 48, 80
3, 206616, Note_off_c, 0, 36, 64
3, 206616, Note_off_c, 0, 48, 64
3, 206640, Note_on_c, 0, 52, 80
3, 206640, Note_on_c, 0, 55, 80
3, 206856, Note_off_c, 0, 52, 64
3, 206856, Note_off_c, 0, 55, 64
3, 206880, Note_on_c, 0, 48, 80
3, 207096, Note_off_c, 0, 48, 64
3, 207120, Note_on_c, 0, 52, 80
3, 207120, Note_on_c, 0, 55, 80
3, 207330, Control_c, 0, 64, 0
3, 207336, Note_off_c, 0, 52, 64
3, 207336, Note_off_c, 0, 55, 64
3, 207360, Control_c, 0, 64, 112
3, 207360, Note_on_c, 0, 50, 80
3, 207360, Note_on_c, 0, 38, 80
3, 207576, Note_off_c, 0, 50, 64
3, 207576, Note_off_c, 0, 38, 64
3, 207600, Note_on_c, 0, 62, 80
3, 207600, Note_on_c, 0, 57, 80
3, 207600, Note_on_c, 0, 53, 80
3, 207816, Note_off_c, 0, 62, 64
3, 207816, Note_off_c, 0, 57, 64
3, 207816, Note_off_c, 0, 53, 64
3, 207840, Note_on_c, 0, 52, 80
3, 207840, Note_on_c, 0, 40, 80
3, 208056, Note_off_c, 0, 52, 64
3, 208056, Note_off_c, 0, 40, 64
3, 208080, Note_on_c, 0, 62, 80
3, 208080, Note_on_c, 0, 57, 80
3, 208080, Note_on_c, 0, 53, 80
3, 208296, Note_off_c, 0, 62, 64
3, 208296, Note_off_c, 0, 57, 64
3, 208296, Note_off_c, 0, 53, 64
3, 208320, Note_on_c, 0, 41, 80
3, 208536, Note_off_c, 0, 41, 64
3, 208560, Note_on_c, 0, 62, 80
3, 208560, Note_on_c, 0, 57, 80
3, 208560, Note_on_c, 0, 53, 80
3, 208776, Note_off_c, 0, 62, 64
3, 208776, Note_off_c, 0, 57, 64
3, 208776, Note_off_c, 0, 53, 64
3, 208800, Note_on_c, 0, 41, 80
3, 208908, Note_off_c, 0, 41, 64
3, 208920, Note_on_c, 0, 45, 80
3, 209028, Note_off_c, 0, 45, 64
3, 209040, Note_on_c, 0, 41, 80
3, 209148, Note_off_c, 0, 41, 64
3, 209160, Note_on_c, 0, 38, 80
3, 209250, Control_c, 0, 64, 0
3, 209268, Note_off_c, 0, 38, 64
3, 209280, Control_c, 0, 64, 112
3, 209280, Note_on_c, 0, 34, 80
3, 209280, Note_on_c, 0, 46, 80
3, 209496, Note_off_c, 0, 34, 64
3, 209496, Note_off_c, 0, 46, 64
3, 209520, Note_on_c, 0, 50, 80
3, 209520, Note_on_c, 0, 53, 80
3, 209736, Note_off_c, 0, 50, 64
3, 209736, Note_off_c, 0, 53, 64
3, 209760, Note_on_c, 0, 46, 80
3, 209976, Note_off_c, 0, 46, 64
3, 210000, Note_on_c, 0, 50, 80
3, 210000, Note_on_c, 0, 53, 80
3, 210210, Control_c, 0, 64, 0
3, 210216, Note_off_c, 0, 50, 64
3, 210216, Note_off_c, 0, 53, 64
3, 210240, Control_c, 0, 64, 112
3, 210240, Note_on_c, 0, 36, 80
3, 210240, Note_on_c, 0, 48, 80
3, 210456, Note_off_c, 0, 36, 64
3, 210456, Note_off_c, 0, 48, 64
3, 210480, Note_on_c, 0, 52, 80
3, 210480, Note_on_c, 0, 55, 80
3, 210696, Note_off_c, 0, 52, 64
3, 210696, Note_off_c, 0, 55, 64
3, 210720, Note_on_c, 0, 48, 80
3, 210936, Note_off_c, 0, 48, 64
3, 210960, Note_on_c, 0, 52, 80
3, 210960, Note_on_c, 0, 55, 80
3, 211170, Control_c, 0, 64, 0
3, 211176, Note_off_c, 0, 52, 64
3, 211176, Note_off_c, 0, 55, 64
3, 211200, Control_c, 0, 64, 112
3, 211200, Note_on_c, 0, 50, 80
3, 211200, Note_on_c, 0, 38, 80
3, 211416, Note_off_c, 0, 50, 64
3, 211416, Note_off_c, 0, 38, 64
3, 211440, Note_on_c, 0, 62, 80
3, 211440, Note_on_c, 0, 57, 80
3, 211440, Note_on_c, 0, 53, 80
3, 211656, Note_off_c, 0, 62, 64
3, 211656, Note_off_c, 0, 57, 64
3, 211656, Note_off_c, 0, 53, 64
3, 211680, Note_on_c, 0, 52, 80
3, 211680, Note_on_c, 0, 40, 80
3, 211896, Note_off_c, 0, 52, 64
3, 211896, Note_off_c, 0, 40, 64
3, 211920, Note_on_c, 0, 62, 80
3, 211920, Note_on_c, 0, 57, 80
3, 211920, Note_on_c, 0, 53, 80
3, 212136, Note_off_c, 0, 62, 64
3, 212136, Note_off_c, 0, 57, 64
3, 212136, Note_off_c, 0, 53, 64
3, 212160, Note_on_c, 0, 41, 80
3, 212376, Note_off_c, 0, 41, 64
3, 212400, Note_on_c, 0, 62, 80
3, 212400, Note_on_c, 0, 57, 80
3, 212400, Note_on_c, 0, 53, 80
3, 212616, Note_off_c, 0, 62, 64
3, 212616, Note_off_c, 0, 57, 64
3, 212616, Note_off_c, 0, 53, 64
3, 212640, Note_on_c, 0, 41, 80
3, 212748, Note_off_c, 0, 41, 64
3, 212760, Note_on_c, 0, 45, 80
3, 212868, Note_off_c, 0, 45, 64
3, 212880, Note_on_c, 0, 41, 80
3, 212988, Note_off_c, 0, 41, 64
3, 213000, Note_on_c, 0, 38, 80
3, 213090, Control_c, 0, 64, 0
3, 213108, Note_off_c, 0, 38, 64
3, 213120, Control_c, 0, 64, 122
3, 213120, Note_on_c, 0, 34, 80
3, 213120, Note_on_c, 0, 46, 80
3, 213336, Note_off_c, 0, 34, 64
3, 213336, Note_off_c, 0, 46, 64
3, 213360, Note_on_c, 0, 53, 80
3, 213360, Note_on_c, 0, 58, 80
3, 213360, Note_on_c, 0, 62, 80
3, 213576, Note_off_c, 0, 53, 64
3, 213576, Note_off_c, 0, 58, 64
3, 213576, Note_off_c, 0, 62, 64
3, 213600, Note_on_c, 0, 46, 80
3, 213816, Note_off_c, 0, 46, 64
3, 213840, Note_on_c, 0, 53, 80
3, 213840, Note_on_c, 0, 58, 80
3, 213840, Note_on_c, 0, 62, 80
3, 214050, Control_c, 0, 64, 0
3, 214056, Note_off_c, 0, 53, 64
3, 214056, Note_off_c, 0, 58, 64
3, 214056, Note_off_c, 0, 62, 64
3, 214080, Control_c, 0, 64, 121
3, 214080, Note_on_c, 0, 48, 80
3, 214080, Note_on_c, 0, 36, 80
3, 214296, Note_off_c, 0, 48, 64
3, 214296, Note_off_c, 0, 36, 64
3, 214320, Note_on_c, 0, 64, 80
3, 214320, Note_on_c, 0, 60, 80
3, 214320, Note_on_c, 0, 55, 80
3, 214536, Note_off_c, 0, 64, 64
3, 214536, Note_off_c, 0, 60, 64
3, 214536, Note_off_c, 0, 55, 64
3, 214560, Note_on_c, 0, 48, 80
3, 214668, Note_off_c, 0, 48, 64
3, 214680, Note_on_c, 0, 55, 80
3, 214788, Note_off_c, 0, 55, 64
3, 214800, Note_on_c, 0, 60, 80
3, 214908, Note_off_c, 0, 60, 64
3, 214920, Note_on_c, 0, 48, 80
3, 215010, Control_c, 0, 64, 0
3, 215028, Note_off_c, 0, 48, 64
3, 215040, Control_c, 0, 64, 121
3, 215040, Note_on_c, 0, 50, 80
3, 215040, Note_on_c, 0, 45, 80
3, 215040, Note_on_c, 0, 38, 80
3, 215256, Note_off_c, 0, 50, 64
3, 215256, Note_off_c, 0, 45, 64
3, 215256, Note_off_c, 0, 38, 64
3, 215280, Note_on_c, 0, 50, 80
3, 215388, Note_off_c, 0, 50, 64
3, 215400, Note_on_c, 0, 62, 80
3, 215400, Note_on_c, 0, 57, 80
3, 215400, Note_on_c, 0, 53, 80
3, 215628, Note_off_c, 0, 62, 64
3, 215628, Note_off_c, 0, 57, 64
3, 215628, Note_off_c, 0, 53, 64
3, 215640, Note_on_c, 0, 38, 80
3, 215748, Note_off_c, 0, 38, 64
3, 215760, Note_on_c, 0, 50, 80
3, 215976, Note_off_c, 0, 50, 64
3, 216000, Note_on_c, 0, 38, 80
3, 216000, Note_on_c, 0, 50, 80
3, 216432, Note_off_c, 0, 38, 64
3, 216432, Note_off_c, 0, 50, 64
3, 216480, Note_on_c, 0, 26, 80
3, 216480, Note_on_c, 0, 38, 80
3, 216912, Note_off_c, 0, 26, 64
3, 216912, Note_off_c, 0, 38, 64
3, 216930, Control_c, 0, 64, 0
3, 216960, Control_c, 0, 64, 119
3, 216960, Note_on_c, 0, 34, 80
3, 217176, Note_off_c, 0, 34, 64
3, 217200, Note_on_c, 0, 46, 80
3, 217416, Note_off_c, 0, 46, 64
3, 217440, Note_on_c, 0, 34, 80
3, 217764, Note_off_c, 0, 34, 64
3, 217800, Note_on_c, 0, 46, 80
3, 217908, Note_off_c, 0, 46, 64
3, 217920, Note_on_c, 0, 34, 80
3, 218136, Note_off_c, 0, 34, 64
3, 218160, Note_on_c, 0, 46, 80
3, 218376, Note_off_c, 0, 46, 64
3, 218400, Note_on_c, 0, 34, 80
3, 218724, Note_off_c, 0, 34, 64
3, 218760, Note_on_c, 0, 46, 80
3, 218850, Control_c, 0, 64, 0
3, 218868, Note_off_c, 0, 46, 64
3, 218880, Control_c, 0, 64, 119
3, 218880, Note_on_c, 0, 29, 80
3, 219096, Note_off_c, 0, 29, 64
3, 219120, Note_on_c, 0, 41, 80
3, 219336, Note_off_c, 0, 41, 64
3, 219360, Note_on_c, 0, 29, 80
3, 219684, Note_off_c, 0, 29, 64
3, 219720, Note_on_c, 0, 41, 80
3, 219828, Note_off_c, 0, 41, 64
3, 219840, Note_on_c, 0, 41, 80
3, 220056, Note_off_c, 0, 41, 64
3, 220080, Note_on_c, 0, 41, 80
3, 220296, Note_off_c, 0, 41, 64
3, 220320, Note_on_c, 0, 41, 80
3, 220536, Note_off_c, 0, 41, 64
3, 220560, Note_on_c, 0, 41, 80
3, 220770, Control_c, 0, 64, 0
3, 220776, Note_off_c, 0, 41, 64
3, 220800, Control_c, 0, 64, 119
3, 220800, Note_on_c, 0, 34, 80
3, 221016, Note_off_c, 0, 34, 64
3, 221040, Note_on_c, 0, 46, 80
3, 221256, Note_off_c, 0, 46, 64
3, 221280, Note_on_c, 0, 34, 80
3, 221604, Note_off_c, 0, 34, 64
3, 221640, Note_on_c, 0, 46, 80
3, 221730, Control_c, 0, 64, 0
3, 221748, Note_off_c, 0, 46, 64
3, 221760, Control_c, 0, 64, 120
3, 221760, Note_on_c, 0, 36, 80
3, 221976, Note_off_c, 0, 36, 64
3, 222000, Note_on_c, 0, 48, 80
3, 222216, Note_off_c, 0, 48, 64
3, 222240, Note_on_c, 0, 36, 80
3, 222456, Note_off_c, 0, 36, 64
3, 222480, Note_on_c, 0, 36, 80
3, 222588, Note_off_c, 0, 36, 64
3, 222600, Note_on_c, 0, 48, 80
3, 222690, Control_c, 0, 64, 0
3, 222708, Note_off_c, 0, 48, 64
3, 222720, Control_c, 0, 64, 116
3, 222720, Note_on_c, 0, 38, 80
3, 222936, Note_off_c, 0, 38, 64
3, 222960, Note_on_c, 0, 50, 80
3, 223176, Note_off_c, 0, 50, 64
3, 223200, Note_on_c, 0, 38, 80
3, 223308, Note_off_c, 0, 38, 64
3, 223320, Note_on_c, 0, 50, 80
3, 223428, Note_off_c, 0, 50, 64
3, 223440, Note_on_c, 0, 38, 80
3, 223548, Note_off_c, 0, 38, 64
3, 223560, Note_on_c, 0, 50, 80
3, 223668, Note_off_c, 0, 50, 64
3, 223680, Note_on_c, 0, 38, 80
3, 223896, Note_off_c, 0, 38, 64
3, 223920, Note_on_c, 0, 50, 80
3, 224136, Note_off_c, 0, 50, 64
3, 224160, Note_on_c, 0, 38, 80
3, 224376, Note_off_c, 0, 38, 64
3, 224400, Note_on_c, 0, 50, 80
3, 224610, Control_c, 0, 64, 0
3, 224616, Note_off_c, 0, 50, 64
3, 224640, Control_c, 0, 64, 117
3, 224640, Note_on_c, 0, 34, 80
3, 224856, Note_off_c, 0, 34, 64
3, 224880, Note_on_c, 0, 46, 80
3, 225096, Note_off_c, 0, 46, 64
3, 225120, Note_on_c, 0, 34, 80
3, 225444, Note_off_c, 0, 34, 64
3, 225480, Note_on_c, 0, 46, 80
3, 225588, Note_off_c, 0, 46, 64
3, 225600, Note_on_c, 0, 34, 80
3, 225816, Note_off_c, 0, 34, 64
3, 225840, Note_on_c, 0, 46, 80
3, 226056, Note_off_c, 0, 46, 64
3, 226080, Note_on_c, 0, 34, 80
3, 226404, Note_off_c, 0, 34, 64
3, 226440, Note_on_c, 0, 46, 80
3, 226530, Control_c, 0, 64, 0
3, 226548, Note_off_c, 0, 46, 64
3, 226560, Control_c, 0, 64, 119
3, 226560, Note_on_c, 0, 29, 80
3, 226776, Note_off_c, 0, 29, 64
3, 226800, Note_on_c, 0, 41, 80
3, 227016, Note_off_c, 0, 41, 64
3, 227040, Note_on_c, 0, 29, 80
3, 227364, Note_off_c, 0, 29, 64
3, 227400, Note_on_c, 0, 41, 80
3, 227508, Note_off_c, 0, 41, 64
3, 227520, Note_on_c, 0, 41, 80
3, 227736, Note_off_c, 0, 41, 64
3, 227760, Note_on_c, 0, 41, 80
3, 227976, Note_off_c, 0, 41, 64
3, 228000, Note_on_c, 0, 41, 80
3, 228216, Note_off_c, 0, 41, 64
3, 228240, Note_on_c, 0, 41, 80
3, 228450, Control_c, 0, 64, 0
3, 228456, Note_off_c, 0, 41, 64
3, 228480, Control_c, 0, 64, 120
3, 228480, Note_on_c, 0, 31, 80
3, 228480, Note_on_c, 0, 43, 80
3, 228696, Note_off_c, 0, 31, 64
3, 228696, Note_off_c, 0, 43, 64
3, 228720, Note_on_c, 0, 43, 80
3, 229152, Note_off_c, 0, 43, 64
3, 229200, Note_on_c, 0, 43, 80
3, 229416, Note_off_c, 0, 43, 64
3, 229440, Note_on_c, 0, 43, 80
3, 229440, Note_on_c, 0, 50, 80
3, 229872, Note_off_c, 0, 43, 64
3, 229872, Note_off_c, 0, 50, 64
3, 229920, Note_on_c, 0, 43, 80
3, 229920, Note_on_c, 0, 50, 80
3, 230352, Note_off_c, 0, 43, 64
3, 230352, Note_off_c, 0, 50, 64
3, 230370, Control_c, 0, 64, 0
3, 230400, Control_c, 0, 64, 120
3, 230400, Note_on_c, 0, 33, 80
3, 230400, Note_on_c, 0, 45, 80
3, 230616, Note_off_c, 0, 33, 64
3, 230616, Note_off_c, 0, 45, 64
3, 230640, Note_on_c, 0, 45, 80
3, 230856, Note_off_c, 0, 45, 64
3, 230880, Note_on_c, 0, 33, 80
3, 230880, Note_on_c, 0, 45, 80
3, 231096, Note_off_c, 0, 33, 64
3, 231096, Note_off_c, 0, 45, 64
3, 231120, Note_on_c, 0, 33, 80
3, 231120, Note_on_c, 0, 45, 80
3, 231336, Note_off_c, 0, 33, 64
3, 231336, Note_off_c, 0, 45, 64
3, 232290, Control_c, 0, 64, 0
3, 232320, Control_c, 0, 64, 122
3, 232320, Note_on_c, 0, 50, 80
3, 232752, Note_off_c, 0, 50, 64
3, 232800, Note_on_c, 0, 57, 80
3, 233016, Note_off_c, 0, 57, 64
3, 233040, Note_on_c, 0, 50, 80
3, 233250, Control_c, 0, 64, 0
3, 233256, Note_off_c, 0, 50, 64
3, 233280, Control_c, 0, 64, 121
3, 233280, Note_on_c, 0, 46, 80
3, 233712, Note_off_c, 0, 46, 64
3, 233760, Note_on_c, 0, 53, 80
3, 233976, Note_off_c, 0, 53, 64
3, 234000, Note_on_c, 0, 46, 80
3, 234210, Control_c, 0, 64, 0
3, 234216, Note_off_c, 0, 46, 64
3, 234240, Control_c, 0, 64, 122
3, 234240, Note_on_c, 0, 48, 80
3, 234672, Note_off_c, 0, 48, 64
3, 234720, Note_on_c, 0, 55, 80
3, 234936, Note_off_c, 0, 55, 64
3, 234960, Note_on_c, 0, 48, 80
3, 235170, Control_c, 0, 64, 0
3, 235176, Note_off_c, 0, 48, 64
3, 235200, Control_c, 0, 64, 121
3, 235200, Note_on_c, 0, 41, 80
3, 235632, Note_off_c, 0, 41, 64
3, 235680, Note_on_c, 0, 53, 80
3, 235896, Note_off_c, 0, 53, 64
3, 235920, Note_on_c, 0, 48, 80
3, 236130, Control_c, 0, 64, 0
3, 236136, Note_off_c, 0, 48, 64
3, 236160, Control_c, 0, 64, 122
3, 236160, Note_on_c, 0, 50, 80
3, 236592, Note_off_c, 0, 50, 64
3, 236640, Note_on_c, 0, 57, 80
3, 236856, Note_off_c, 0, 57, 64
3, 236880, Note_on_c, 0, 50, 80
3, 237090, Control_c, 0, 64, 0
3, 237096, Note_off_c, 0, 50, 64
3, 237120, Control_c, 0, 64, 121
3, 237120, Note_on_c, 0, 46, 80
3, 237552, Note_off_c, 0, 46, 64
3, 237600, Note_on_c, 0, 53, 80
3, 237816, Note_off_c, 0, 53, 64
3, 237840, Note_on_c, 0, 46, 80
3, 238050, Control_c, 0, 64, 0
3, 238056, Note_off_c, 0, 46, 64
3, 238080, Control_c, 0, 64, 122
3, 238080, Note_on_c, 0, 48, 80
3, 238512, Note_off_c, 0, 48, 64
3, 238560, Note_on_c, 0, 55, 80
3, 238776, Note_off_c, 0, 55, 64
3, 238800, Note_on_c, 0, 48, 80
3, 239010, Control_c, 0, 64, 0
3, 239016, Note_off_c, 0, 48, 64
3, 239040, Control_c, 0, 64, 121
3, 239040, Note_on_c, 0, 41, 80
3, 239472, Note_off_c, 0, 41, 64
3, 239520, Note_on_c, 0, 41, 80
3, 239520, Note_on_c, 0, 48, 80
3, 239520, Note_on_c, 0, 53, 80
3, 239736, Note_off_c, 0, 41, 64
3, 239736, Note_off_c, 0, 48, 64
3, 239736, Note_off_c, 0, 53, 64
3, 239760, Note_on_c, 0, 41, 80
3, 239760, Note_on_c, 0, 48, 80
3, 239760, Note_on_c, 0, 53, 80
3, 239970, Control_c, 0, 64, 0
3, 239976, Note_off_c, 0, 41, 64
3, 239976, Note_off_c, 0, 48, 64
3, 239976, Note_off_c, 0, 53, 64
3, 240000, Control_c, 0, 64, 122
3, 240000, Note_on_c, 0, 38, 80
3, 240000, Note_on_c, 0, 50, 80
3, 240432, Note_off_c, 0, 38, 64
3, 240432, Note_off_c, 0, 50, 64
3, 240480, Note_on_c, 0, 57, 80
3, 240480, Note_on_c, 0, 53, 80
3, 240696, Note_off_c, 0, 57, 64
3, 240696, Note_off_c, 0, 53, 64
3, 240720, Note_on_c, 0, 50, 80
3, 240930, Control_c, 0, 64, 0
3, 240936, Note_off_c, 0, 50, 64
3, 240960, Control_c, 0, 64, 121
3, 240960, Note_on_c, 0, 34, 80
3, 240960, Note_on_c, 0, 46, 80
3, 241392, Note_off_c, 0, 34, 64
3, 241392, Note_off_c, 0, 46, 64
3, 241440, Note_on_c, 0, 57, 80
3, 241440, Note_on_c, 0, 53, 80
3, 241656, Note_off_c, 0, 57, 64
3, 241656, Note_off_c, 0, 53, 64
3, 241680, Note_on_c, 0, 46, 80
3, 241890, Control_c, 0, 64, 0
3, 241896, Note_off_c, 0, 46, 64
3, 241920, Control_c, 0, 64, 122
3, 241920, Note_on_c, 0, 36, 80
3, 241920, Note_on_c, 0, 48, 80
3, 242352, Note_off_c, 0, 36, 64
3, 242352, Note_off_c, 0, 48, 64
3, 242400, Note_on_c, 0, 58, 80
3, 242400, Note_on_c, 0, 55, 80
3, 242616, Note_off_c, 0, 58, 64
3, 242616, Note_off_c, 0, 55, 64
3, 242640, Note_on_c, 0, 48, 80
3, 242850, Control_c, 0, 64, 0
3, 242856, Note_off_c, 0, 48, 64
3, 242880, Control_c, 0, 64, 121
3, 242880, Note_on_c, 0, 41, 80
3, 243312, Note_off_c, 0, 41, 64
3, 243360, Note_on_c, 0, 57, 80
3, 243360, Note_on_c, 0, 53, 80
3, 243576, Note_off_c, 0, 57, 64
3, 243576, Note_off_c, 0, 53, 64
3, 243600, Note_on_c, 0, 48, 80
3, 243810, Control_c, 0, 64, 0
3, 243816, Note_off_c, 0, 48, 64
3, 243840, Control_c, 0, 64, 122
3, 243840, Note_on_c, 0, 46, 80
3, 243840, Note_on_c, 0, 34, 80
3, 244056, Note_off_c, 0, 46, 64
3, 244056, Note_off_c, 0, 34, 64
3, 244080, Note_on_c, 0, 53, 80
3, 244296, Note_off_c, 0, 53, 64
3, 244320, Note_on_c, 0, 62, 80
3, 244320, Note_on_c, 0, 58, 80
3, 244536, Note_off_c, 0, 62, 64
3, 244536, Note_off_c, 0, 58, 64
3, 244560, Note_on_c, 0, 53, 80
3, 244770, Control_c, 0, 64, 0
3, 244776, Note_off_c, 0, 53, 64
3, 244800, Control_c, 0, 64, 121
3, 244800, Note_on_c, 0, 45, 80
3, 244800, Note_on_c, 0, 33, 80
3, 245016, Note_off_c, 0, 45, 64
3, 245016, Note_off_c, 0, 33, 64
3, 245040, Note_on_c, 0, 52, 80
3, 245256, Note_off_c, 0, 52, 64
3, 245280, Note_on_c, 0, 60, 80
3, 245280, Note_on_c, 0, 55, 80
3, 245496, Note_off_c, 0, 60, 64
3, 245496, Note_off_c, 0, 55, 64
3, 245520, Note_on_c, 0, 52, 80
3, 245730, Control_c, 0, 64, 0
3, 245736, Note_off_c, 0, 52, 64
3, 245760, Control_c, 0, 64, 118
3, 245760, Note_on_c, 0, 34, 80
3, 245760, Note_on_c, 0, 46, 80
3, 245976, Note_off_c, 0, 34, 64
3, 245976, Note_off_c, 0, 46, 64
3, 246000, Note_on_c, 0, 53, 80
3, 246216, Note_off_c, 0, 53, 64
3, 246240, Note_on_c, 0, 36, 80
3, 246240, Note_on_c, 0, 48, 80
3, 246456, Note_off_c, 0, 36, 64
3, 246456, Note_off_c, 0, 48, 64
3, 246480, Note_on_c, 0, 55, 80
3, 246690, Control_c, 0, 64, 0
3, 246696, Note_off_c, 0, 55, 64
3, 246720, Control_c, 0, 64, 118
3, 246720, Note_on_c, 0, 38, 80
3, 246720, Note_on_c, 0, 50, 80
3, 247152, Note_off_c, 0, 38, 64
3, 247152, Note_off_c, 0, 50, 64
3, 247170, Control_c, 0, 64, 0
3, 247200, Control_c, 0, 64, 116
3, 247200, Note_on_c, 0, 40, 80
3, 247200, Note_on_c, 0, 47, 80
3, 247200, Note_on_c, 0, 52, 80
3, 247416, Note_off_c, 0, 40, 64
3, 247416, Note_off_c, 0, 47, 64
3, 247416, Note_off_c, 0, 52, 64
3, 247440, Note_on_c, 0, 28, 80
3, 247650, Control_c, 0, 64, 0
3, 247656, Note_off_c, 0, 28, 64
3, 247680, Key_signature, 1, "major"
3, 247680, Control_c, 0, 64, 114
3, 247680, Note_on_c, 0, 52, 80
3, 247680, Note_on_c, 0, 40, 80
3, 247896, Note_off_c, 0, 52, 64
3, 247896, Note_off_c, 0, 40, 64
3, 247920, Note_on_c, 0, 52, 80
3, 248028, Note_off_c, 0, 52, 64
3, 248040, Note_on_c, 0, 55, 80
3, 248148, Note_off_c, 0, 55, 64
3, 248160, Note_on_c, 0, 59, 80
3, 248160, Note_on_c, 0, 52, 80
3, 248376, Note_off_c, 0, 59, 64
3, 248376, Note_off_c, 0, 52, 64
3, 248400, Note_on_c, 0, 52, 80
3, 248610, Control_c, 0, 64, 0
3, 248616, Note_off_c, 0, 52, 64
3, 248640, Control_c, 0, 64, 116
3, 248640, Note_on_c, 0, 48, 80
3, 248640, Note_on_c, 0, 36, 80
3, 248856, Note_off_c, 0, 48, 64
3, 248856, Note_off_c, 0, 36, 64
3, 248880, Note_on_c, 0, 52, 80
3, 248988, Note_off_c, 0, 52, 64
3, 249000, Note_on_c, 0, 55, 80
3, 249108, Note_off_c, 0, 55, 64
3, 249120, Note_on_c, 0, 60, 80
3, 249120, Note_on_c, 0, 52, 80
3, 249336, Note_off_c, 0, 60, 64
3, 249336, Note_off_c, 0, 52, 64
3, 249360, Note_on_c, 0, 48, 80
3, 249570, Control_c, 0, 64, 0
3, 249576, Note_off_c, 0, 48, 64
3, 249600, Control_c, 0, 64, 114
3, 249600, Note_on_c, 0, 38, 80
3, 249600, Note_on_c, 0, 50, 80
3, 249816, Note_off_c, 0, 38, 64
3, 249816, Note_off_c, 0, 50, 64
3, 249840, Note_on_c, 0, 50, 80
3, 249948, Note_off_c, 0, 50, 64
3, 249960, Note_on_c, 0, 54, 80
3, 250068, Note_off_c, 0, 54, 64
3, 250080, Note_on_c, 0, 57, 80
3, 250080, Note_on_c, 0, 50, 80
3, 250296, Note_off_c, 0, 57, 64
3, 250296, Note_off_c, 0, 50, 64
3, 250320, Note_on_c, 0, 50, 80
3, 250530, Control_c, 0, 64, 0
3, 250536, Note_off_c, 0, 50, 64
3, 250560, Control_c, 0, 64, 116
3, 250560, Note_on_c, 0, 43, 80
3, 250560, Note_on_c, 0, 55, 80
3, 250776, Note_off_c, 0, 43, 64
3, 250776, Note_off_c, 0, 55, 64
3, 250800, Note_on_c, 0, 50, 80
3, 250908, Note_off_c, 0, 50, 64
3, 250920, Note_on_c, 0, 50, 80
3, 251028, Note_off_c, 0, 50, 64
3, 251040, Note_on_c, 0, 59, 80
3, 251040, Note_on_c, 0, 55, 80
3, 251256, Note_off_c, 0, 59, 64
3, 251256, Note_off_c, 0, 55, 64
3, 251280, Note_on_c, 0, 50, 80
3, 251490, Control_c, 0, 64, 0
3, 251496, Note_off_c, 0, 50, 64
3, 251520, Control_c, 0, 64, 117
3, 251520, Note_on_c, 0, 52, 80
3, 251520, Note_on_c, 0, 40, 80
3, 251736, Note_off_c, 0, 52, 64
3, 251736, Note_off_c, 0, 40, 64
3, 251760, Note_on_c, 0, 52, 80
3, 251868, Note_off_c, 0, 52, 64
3, 251880, Note_on_c, 0, 55, 80
3, 251988, Note_off_c, 0, 55, 64
3, 252000, Note_on_c, 0, 59, 80
3, 252000, Note_on_c, 0, 52, 80
3, 252216, Note_off_c, 0, 59, 64
3, 252216, Note_off_c, 0, 52, 64
3, 252240, Note_on_c, 0, 52, 80
3, 252450, Control_c, 0, 64, 0
3, 252456, Note_off_c, 0, 52, 64
3, 252480, Control_c, 0, 64, 115
3, 252480, Note_on_c, 0, 48, 80
3, 252480, Note_on_c, 0, 36, 80
3, 252696, Note_off_c, 0, 48, 64
3, 252696, Note_off_c, 0, 36, 64
3, 252720, Note_on_c, 0, 52, 80
3, 252828, Note_off_c, 0, 52, 64
3, 252840, Note_on_c, 0, 55, 80
3, 252948, Note_off_c, 0, 55, 64
3, 252960, Note_on_c, 0, 60, 80
3, 252960, Note_on_c, 0, 52, 80
3, 253176, Note_off_c, 0, 60, 64
3, 253176, Note_off_c, 0, 52, 64
3, 253200, Note_on_c, 0, 48, 80
3, 253410, Control_c, 0, 64, 0
3, 253416, Note_off_c, 0, 48, 64
3, 253440, Control_c, 0, 64, 117
3, 253440, Note_on_c, 0, 38, 80
3, 253440, Note_on_c, 0, 50, 80
3, 253656, Note_off_c, 0, 38, 64
3, 253656, Note_off_c, 0, 50, 64
3, 253680, Note_on_c, 0, 50, 80
3, 253788, Note_off_c, 0, 50, 64
3, 253800, Note_on_c, 0, 54, 80
3, 253908, Note_off_c, 0, 54, 64
3, 253920, Note_on_c, 0, 57, 80
3, 253920, Note_on_c, 0, 50, 80
3, 254136, Note_off_c, 0, 57, 64
3, 254136, Note_off_c, 0, 50, 64
3, 254160, Note_on_c, 0, 50, 80
3, 254370, Control_c, 0, 64, 0
3, 254376, Note_off_c, 0, 50, 64
3, 254400, Control_c, 0, 64, 117
3, 254400, Note_on_c, 0, 43, 80
3, 254400, Note_on_c, 0, 55, 80
3, 254616, Note_off_c, 0, 43, 64
3, 254616, Note_off_c, 0, 55, 64
3, 254640, Note_on_c, 0, 50, 80
3, 254748, Note_off_c, 0, 50, 64
3, 254760, Note_on_c, 0, 50, 80
3, 254868, Note_off_c, 0, 50, 64
3, 254880, Note_on_c, 0, 43, 80
3, 254880, Note_on_c, 0, 55, 80
3, 255096, Note_off_c, 0, 43, 64
3, 255096, Note_off_c, 0, 55, 64
3, 255120, Note_on_c, 0, 50, 80
3, 255330, Control_c, 0, 64, 0
3, 255336, Note_off_c, 0, 50, 64
3, 255360, Control_c, 0, 64, 116
3, 255360, Note_on_c, 0, 52, 80
3, 255360, Note_on_c, 0, 40, 80
3, 255576, Note_off_c, 0, 52, 64
3, 255576, Note_off_c, 0, 40, 64
3, 255600, Note_on_c, 0, 52, 80
3, 255708, Note_off_c, 0, 52, 64
3, 255720, Note_on_c, 0, 55, 80
3, 255828, Note_off_c, 0, 55, 64
3, 255840, Note_on_c, 0, 59, 80
3, 255840, Note_on_c, 0, 52, 80
3, 256056, Note_off_c, 0, 59, 64
3, 256056, Note_off_c, 0, 52, 64
3, 256080, Note_on_c, 0, 52, 80
3, 256290, Control_c, 0, 64, 0
3, 256296, Note_off_c, 0, 52, 64
3, 256320, Control_c, 0, 64, 117
3, 256320, Note_on_c, 0, 48, 80
3, 256320, Note_on_c, 0, 36, 80
3, 256536, Note_off_c, 0, 48, 64
3, 256536, Note_off_c, 0, 36, 64
3, 256560, Note_on_c, 0, 52, 80
3, 256668, Note_off_c, 0, 52, 64
3, 256680, Note_on_c, 0, 55, 80
3, 256788, Note_off_c, 0, 55, 64
3, 256800, Note_on_c, 0, 60, 80
3, 256800, Note_on_c, 0, 52, 80
3, 257016, Note_off_c, 0, 60, 64
3, 257016, Note_off_c, 0, 52, 64
3, 257040, Note_on_c, 0, 48, 80
3, 257250, Control_c, 0, 64, 0
3, 257256, Note_off_c, 0, 48, 64
3, 257280, Control_c, 0, 64, 119
3, 257280, Note_on_c, 0, 38, 80
3, 257280, Note_on_c, 0, 50, 80
3, 257496, Note_off_c, 0, 38, 64
3, 257496, Note_off_c, 0, 50, 64
3, 257520, Note_on_c, 0, 50, 80
3, 257628, Note_off_c, 0, 50, 64
3, 257640, Note_on_c, 0, 54, 80
3, 257748, Note_off_c, 0, 54, 64
3, 257760, Note_on_c, 0, 57, 80
3, 257760, Note_on_c, 0, 50, 80
3, 257976, Note_off_c, 0, 57, 64
3, 257976, Note_off_c, 0, 50, 64
3, 258000, Note_on_c, 0, 50, 80
3, 258210, Control_c, 0, 64, 0
3, 258216, Note_off_c, 0, 50, 64
3, 258240, Control_c, 0, 64, 120
3, 258240, Note_on_c, 0, 43, 80
3, 258240, Note_on_c, 0, 55, 80
3, 258456, Note_off_c, 0, 43, 64
3, 258456, Note_off_c, 0, 55, 64
3, 258480, Note_on_c, 0, 50, 80
3, 258588, Note_off_c, 0, 50, 64
3, 258600, Note_on_c, 0, 50, 80
3, 258708, Note_off_c, 0, 50, 64
3, 258720, Note_on_c, 0, 59, 80
3, 258720, Note_on_c, 0, 55, 80
3, 258936, Note_off_c, 0, 59, 64
3, 258936, Note_off_c, 0, 55, 64
3, 258960, Note_on_c, 0, 50, 80
3, 259170, Control_c, 0, 64, 0
3, 259176, Note_off_c, 0, 50, 64
3, 259200, Control_c, 0, 64, 115
3, 259200, Note_on_c, 0, 48, 80
3, 259200, Note_on_c, 0, 36, 80
3, 259416, Note_off_c, 0, 48, 64
3, 259416, Note_off_c, 0, 36, 64
3, 259440, Note_on_c, 0, 52, 80
3, 259548, Note_off_c, 0, 52, 64
3, 259560, Note_on_c, 0, 55, 80
3, 259668, Note_off_c, 0, 55, 64
3, 259680, Note_on_c, 0, 60, 80
3, 259680, Note_on_c, 0, 48, 80
3, 259896, Note_off_c, 0, 60, 64
3, 259896, Note_off_c, 0, 48, 64
3, 259920, Note_on_c, 0, 52, 80
3, 260028, Note_off_c, 0, 52, 64
3, 260040, Note_on_c, 0, 55, 80
3, 260130, Control_c, 0, 64, 0
3, 260148, Note_off_c, 0, 55, 64
3, 260160, Control_c, 0, 64, 117
3, 260160, Note_on_c, 0, 35, 80
3, 260160, Note_on_c, 0, 47, 80
3, 260376, Note_off_c, 0, 35, 64
3, 260376, Note_off_c, 0, 47, 64
3, 260400, Note_on_c, 0, 50, 80
3, 260508, Note_off_c, 0, 50, 64
3, 260520, Note_on_c, 0, 54, 80
3, 260628, Note_off_c, 0, 54, 64
3, 260640, Note_on_c, 0, 59, 80
3, 260640, Note_on_c, 0, 47, 80
3, 260856, Note_off_c, 0, 59, 64
3, 260856, Note_off_c, 0, 47, 64
3, 260880, Note_on_c, 0, 50, 80
3, 260988, Note_off_c, 0, 50, 64
3, 261000, Note_on_c, 0, 54, 80
3, 261090, Control_c, 0, 64, 0
3, 261108, Note_off_c, 0, 54, 64
3, 261120, Control_c, 0, 64, 118
3, 261120, Note_on_c, 0, 36, 80
3, 261120, Note_on_c, 0, 48, 80
3, 261360, Note_off_c, 0, 36, 64
3, 261360, Note_off_c, 0, 48, 64
3, 261360, Note_on_c, 0, 48, 80
3, 261552, Note_off_c, 0, 48, 64
3, 261600, Note_on_c, 0, 38, 80
3, 261600, Note_on_c, 0, 50, 80
3, 261840, Note_off_c, 0, 38, 64
3, 261840, Note_off_c, 0, 50, 64
3, 261840, Note_on_c, 0, 50, 80
3, 262032, Note_off_c, 0, 50, 64
3, 262050, Control_c, 0, 64, 0
3, 262080, Control_c, 0, 64, 116
3, 262080, Note_on_c, 0, 40, 80
3, 262080, Note_on_c, 0, 52, 80
3, 262296, Note_off_c, 0, 40, 64
3, 262296, Note_off_c, 0, 52, 64
3, 262320, Note_on_c, 0, 47, 80
3, 262428, Note_off_c, 0, 47, 64
3, 262440, Note_on_c, 0, 47, 80
3, 262548, Note_off_c, 0, 47, 64
3, 262560, Note_on_c, 0, 40, 80
3, 262560, Note_on_c, 0, 52, 80
3, 262776, Note_off_c, 0, 40, 64
3, 262776, Note_off_c, 0, 52, 64
3, 262800, Note_on_c, 0, 40, 80
3, 262800, Note_on_c, 0, 52, 80
3, 263010, Control_c, 0, 64, 0
3, 263016, Note_off_c, 0, 40, 64
3, 263016, Note_off_c, 0, 52, 64
3, 263040, Control_c, 0, 64, 114
3, 263040, Note_on_c, 0, 36, 80
3, 263040, Note_on_c, 0, 48, 80
3, 263256, Note_off_c, 0, 36, 64
3, 263256, Note_off_c, 0, 48, 64
3, 263280, Note_on_c, 0, 52, 80
3, 263280, Note_on_c, 0, 55, 80
3, 263496, Note_off_c, 0, 52, 64
3, 263496, Note_off_c, 0, 55, 64
3, 263520, Note_on_c, 0, 48, 80
3, 263736, Note_off_c, 0, 48, 64
3, 263760, Note_on_c, 0, 52, 80
3, 263760, Note_on_c, 0, 55, 80
3, 263970, Control_c, 0, 64, 0
3, 263976, Note_off_c, 0, 52, 64
3, 263976, Note_off_c, 0, 55, 64
3, 264000, Control_c, 0, 64, 115
3, 264000, Note_on_c, 0, 50, 80
3, 264000, Note_on_c, 0, 38, 80
3, 264216, Note_off_c, 0, 50, 64
3, 264216, Note_off_c, 0, 38, 64
3, 264240, Note_on_c, 0, 57, 80
3, 264240, Note_on_c, 0, 54, 80
3, 264456, Note_off_c, 0, 57, 64
3, 264456, Note_off_c, 0, 54, 64
3, 264480, Note_on_c, 0, 50, 80
3, 264696, Note_off_c, 0, 50, 64
3, 264720, Note_on_c, 0, 57, 80
3, 264720, Note_on_c, 0, 54, 80
3, 264930, Control_c, 0, 64, 0
3, 264936, Note_off_c, 0, 57, 64
3, 264936, Note_off_c, 0, 54, 64
3, 264960, Control_c, 0, 64, 112
3, 264960, Note_on_c, 0, 52, 80
3, 264960, Note_on_c, 0, 40, 80
3, 265176, Note_off_c, 0, 52, 64
3, 265176, Note_off_c, 0, 40, 64
3, 265200, Note_on_c, 0, 59, 80
3, 265200, Note_on_c, 0, 55, 80
3, 265416, Note_off_c, 0, 59, 64
3, 265416, Note_off_c, 0, 55, 64
3, 265440, Note_on_c, 0, 43, 80
3, 265656, Note_off_c, 0, 43, 64
3, 265680, Note_on_c, 0, 59, 80
3, 265680, Note_on_c, 0, 55, 80
3, 265896, Note_off_c, 0, 59, 64
3, 265896, Note_off_c, 0, 55, 64
3, 265920, Note_on_c, 0, 55, 80
3, 265920, Note_on_c, 0, 47, 80
3, 266136, Note_off_c, 0, 55, 64
3, 266136, Note_off_c, 0, 47, 64
3, 266160, Note_on_c, 0, 59, 80
3, 266160, Note_on_c, 0, 52, 80
3, 266376, Note_off_c, 0, 59, 64
3, 266376, Note_off_c, 0, 52, 64
3, 266400, Note_on_c, 0, 55, 80
3, 266400, Note_on_c, 0, 43, 80
3, 266616, Note_off_c, 0, 55, 64
3, 266616, Note_off_c, 0, 43, 64
3, 266640, Note_on_c, 0, 52, 80
3, 266640, Note_on_c, 0, 47, 80
3, 266850, Control_c, 0, 64, 0
3, 266856, Note_off_c, 0, 52, 64
3, 266856, Note_off_c, 0, 47, 64
3, 266880, Control_c, 0, 64, 109
3, 266880, Note_on_c, 0, 36, 80
3, 266880, Note_on_c, 0, 48, 80
3, 267096, Note_off_c, 0, 36, 64
3, 267096, Note_off_c, 0, 48, 64
3, 267120, Note_on_c, 0, 52, 80
3, 267120, Note_on_c, 0, 55, 80
3, 267336, Note_off_c, 0, 52, 64
3, 267336, Note_off_c, 0, 55, 64
3, 267360, Note_on_c, 0, 48, 80
3, 267576, Note_off_c, 0, 48, 64
3, 267600, Note_on_c, 0, 52, 80
3, 267600, Note_on_c, 0, 55, 80
3, 267810, Control_c, 0, 64, 0
3, 267816, Note_off_c, 0, 52, 64
3, 267816, Note_off_c, 0, 55, 64
3, 267840, Control_c, 0, 64, 111
3, 267840, Note_on_c, 0, 50, 80
3, 267840, Note_on_c, 0, 38, 80
3, 268056, Note_off_c, 0, 50, 64
3, 268056, Note_off_c, 0, 38, 64
3, 268080, Note_on_c, 0, 57, 80
3, 268080, Note_on_c, 0, 54, 80
3, 268296, Note_off_c, 0, 57, 64
3, 268296, Note_off_c, 0, 54, 64
3, 268320, Note_on_c, 0, 50, 80
3, 268536, Note_off_c, 0, 50, 64
3, 268560, Note_on_c, 0, 57, 80
3, 268560, Note_on_c, 0, 54, 80
3, 268770, Control_c, 0, 64, 0
3, 268776, Note_off_c, 0, 57, 64
3, 268776, Note_off_c, 0, 54, 64
3, 268800, Control_c, 0, 64, 114
3, 268800, Note_on_c, 0, 40, 80
3, 269016, Note_off_c, 0, 40, 64
3, 269040, Note_on_c, 0, 59, 80
3, 269040, Note_on_c, 0, 52, 80
3, 269256, Note_off_c, 0, 59, 64
3, 269256, Note_off_c, 0, 52, 64
3, 269280, Note_on_c, 0, 43, 80
3, 269496, Note_off_c, 0, 43, 64
3, 269520, Note_on_c, 0, 64, 80
3, 269520, Note_on_c, 0, 55, 80
3, 269736, Note_off_c, 0, 64, 64
3, 269736, Note_off_c, 0, 55, 64
3, 269760, Note_on_c, 0, 59, 80
3, 269760, Note_on_c, 0, 47, 80
3, 269976, Note_off_c, 0, 59, 64
3, 269976, Note_off_c, 0, 47, 64
3, 270000, Note_on_c, 0, 62, 80
3, 270000, Note_on_c, 0, 55, 80
3, 270216, Note_off_c, 0, 62, 64
3, 270216, Note_off_c, 0, 55, 64
3, 270240, Note_on_c, 0, 64, 80
3, 270240, Note_on_c, 0, 59, 80
3, 270240, Note_on_c, 0, 52, 80
3, 270456, Note_off_c, 0, 64, 64
3, 270456, Note_off_c, 0, 59, 64
3, 270456, Note_off_c, 0, 52, 64
3, 270480, Note_on_c, 0, 52, 80
3, 270588, Note_off_c, 0, 52, 64
3, 270600, Note_on_c, 0, 40, 80
3, 270690, Control_c, 0, 64, 0
3, 270708, Note_off_c, 0, 40, 64
3, 270720, Control_c, 0, 64, 112
3, 270720, Note_on_c, 0, 36, 80
3, 270720, Note_on_c, 0, 48, 80
3, 270936, Note_off_c, 0, 36, 64
3, 270936, Note_off_c, 0, 48, 64
3, 270960, Note_on_c, 0, 52, 80
3, 270960, Note_on_c, 0, 55, 80
3, 271176, Note_off_c, 0, 52, 64
3, 271176, Note_off_c, 0, 55, 64
3, 271200, Note_on_c, 0, 48, 80
3, 271416, Note_off_c, 0, 48, 64
3, 271440, Note_on_c, 0, 52, 80
3, 271440, Note_on_c, 0, 55, 80
3, 271650, Control_c, 0, 64, 0
3, 271656, Note_off_c, 0, 52, 64
3, 271656, Note_off_c, 0, 55, 64
3, 271680, Control_c, 0, 64, 112
3, 271680, Note_on_c, 0, 50, 80
3, 271680, Note_on_c, 0, 38, 80
3, 271896, Note_off_c, 0, 50, 64
3, 271896, Note_off_c, 0, 38, 64
3, 271920, Note_on_c, 0, 57, 80
3, 271920, Note_on_c, 0, 54, 80
3, 272136, Note_off_c, 0, 57, 64
3, 272136, Note_off_c, 0, 54, 64
3, 272160, Note_on_c, 0, 50, 80
3, 272376, Note_off_c, 0, 50, 64
3, 272400, Note_on_c, 0, 57, 80
3, 272400, Note_on_c, 0, 54, 80
3, 272610, Control_c, 0, 64, 0
3, 272616, Note_off_c, 0, 57, 64
3, 272616, Note_off_c, 0, 54, 64
3, 272640, Control_c, 0, 64, 112
3, 272640, Note_on_c, 0, 52, 80
3, 272640, Note_on_c, 0, 40, 80
3, 272856, Note_off_c, 0, 52, 64
3, 272856, Note_off_c, 0, 40, 64
3, 272880, Note_on_c, 0, 59, 80
3, 272880, Note_on_c, 0, 55, 80
3, 273096, Note_off_c, 0, 59, 64
3, 273096, Note_off_c, 0, 55, 64
3, 273120, Note_on_c, 0, 43, 80
3, 273336, Note_off_c, 0, 43, 64
3, 273360, Note_on_c, 0, 59, 80
3, 273360, Note_on_c, 0, 55, 80
3, 273576, Note_off_c, 0, 59, 64
3, 273576, Note_off_c, 0, 55, 64
3, 273600, Note_on_c, 0, 55, 80
3, 273600, Note_on_c, 0, 47, 80
3, 273816, Note_off_c, 0, 55, 64
3, 273816, Note_off_c, 0, 47, 64
3, 273840, Note_on_c, 0, 59, 80
3, 273840, Note_on_c, 0, 52, 80
3, 274056, Note_off_c, 0, 59, 64
3, 274056, Note_off_c, 0, 52, 64
3, 274080, Note_on_c, 0, 55, 80
3, 274080, Note_on_c, 0, 43, 80
3, 274296, Note_off_c, 0, 55, 64
3, 274296, Note_off_c, 0, 43, 64
3, 274320, Note_on_c, 0, 52, 80
3, 274320, Note_on_c, 0, 47, 80
3, 274530, Control_c, 0, 64, 0
3, 274536, Note_off_c, 0, 52, 64
3, 274536, Note_off_c, 0, 47, 64
3, 274560, Control_c, 0, 64, 119
3, 274560, Note_on_c, 0, 36, 80
3, 274560, Note_on_c, 0, 48, 80
3, 274776, Note_off_c, 0, 36, 64
3, 274776, Note_off_c, 0, 48, 64
3, 274800, Note_on_c, 0, 52, 80
3, 274800, Note_on_c, 0, 55, 80
3, 275016, Note_off_c, 0, 52, 64
3, 275016, Note_off_c, 0, 55, 64
3, 275040, Note_on_c, 0, 48, 80
3, 275256, Note_off_c, 0, 48, 64
3, 275280, Note_on_c, 0, 52, 80
3, 275280, Note_on_c, 0, 55, 80
3, 275490, Control_c, 0, 64, 0
3, 275496, Note_off_c, 0, 52, 64
3, 275496, Note_off_c, 0, 55, 64
3, 275520, Control_c, 0, 64, 117
3, 275520, Note_on_c, 0, 50, 80
3, 275520, Note_on_c, 0, 38, 80
3, 275736, Note_off_c, 0, 50, 64
3, 275736, Note_off_c, 0, 38, 64
3, 275760, Note_on_c, 0, 57, 80
3, 275760, Note_on_c, 0, 54, 80
3, 275976, Note_off_c, 0, 57, 64
3, 275976, Note_off_c, 0, 54, 64
3, 276000, Note_on_c, 0, 50, 80
3, 276216, Note_off_c, 0, 50, 64
3, 276240, Note_on_c, 0, 57, 80
3, 276240, Note_on_c, 0, 54, 80
3, 276450, Control_c, 0, 64, 0
3, 276456, Note_off_c, 0, 57, 64
3, 276456, Note_off_c, 0, 54, 64
3, 276480, Control_c, 0, 64, 117
3, 276480, Note_on_c, 0, 40, 80
3, 276480, Note_on_c, 0, 47, 80
3, 276480, Note_on_c, 0, 52, 80
3, 276696, Note_off_c, 0, 40, 64
3, 276696, Note_off_c, 0, 47, 64
3, 276696, Note_off_c, 0, 52, 64
3, 276720, Note_on_c, 0, 40, 80
3, 276828, Note_off_c, 0, 40, 64
3, 276840, Note_on_c, 0, 47, 80
3, 276840, Note_on_c, 0, 52, 80
3, 277200, Note_off_c, 0, 47, 64
3, 277200, Note_off_c, 0, 52, 64
3, 277200, Note_on_c, 0, 55, 80
3, 277200, Note_on_c, 0, 50, 80
3, 277200, Note_on_c, 0, 43, 80
3, 277410, Control_c, 0, 64, 0
3, 277416, Note_off_c, 0, 55, 64
3, 277416, Note_off_c, 0, 50, 64
3, 277416, Note_off_c, 0, 43, 64
3, 277440, Control_c, 0, 64, 119
3, 277440, Note_on_c, 0, 40, 80
3, 277440, Note_on_c, 0, 47, 80
3, 277440, Note_on_c, 0, 52, 80
3, 277872, Note_off_c, 0, 40, 64
3, 277872, Note_off_c, 0, 47, 64
3, 277872, Note_off_c, 0, 52, 64
3, 277920, Note_on_c, 0, 52, 80
3, 278028, Note_off_c, 0, 52, 64
3, 278040, Note_on_c, 0, 47, 80
3, 278148, Note_off_c, 0, 47, 64
3, 278160, Note_on_c, 0, 43, 80
3, 278268, Note_off_c, 0, 43, 64
3, 278280, Note_on_c, 0, 40, 80
3, 278370, Control_c, 0, 64, 0
3, 278388, Note_off_c, 0, 40, 64
3, 278400, Control_c, 0, 64, 119
3, 278400, Note_on_c, 0, 48, 80
3, 278400, Note_on_c, 0, 36, 80
3, 278616, Note_off_c, 0, 48, 64
3, 278616, Note_off_c, 0, 36, 64
3, 278640, Note_on_c, 0, 64, 80
3, 278640, Note_on_c, 0, 60, 80
3, 278640, Note_on_c, 0, 55, 80
3, 278856, Note_off_c, 0, 64, 64
3, 278856, Note_off_c, 0, 60, 64
3, 278856, Note_off_c, 0, 55, 64
3, 278880, Note_on_c, 0, 48, 80
3, 279096, Note_off_c, 0, 48, 64
3, 279120, Note_on_c, 0, 64, 80
3, 279120, Note_on_c, 0, 60, 80
3, 279120, Note_on_c, 0, 55, 80
3, 279330, Control_c, 0, 64, 0
3, 279336, Note_off_c, 0, 64, 64
3, 279336, Note_off_c, 0, 60, 64
3, 279336, Note_off_c, 0, 55, 64
3, 279360, Control_c, 0, 64, 119
3, 279360, Note_on_c, 0, 50, 80
3, 279360, Note_on_c, 0, 38, 80
3, 279576, Note_off_c, 0, 50, 64
3, 279576, Note_off_c, 0, 38, 64
3, 279600, Note_on_c, 0, 66, 80
3, 279600, Note_on_c, 0, 62, 80
3, 279600, Note_on_c, 0, 57, 80
3, 279816, Note_off_c, 0, 66, 64
3, 279816, Note_off_c, 0, 62, 64
3, 279816, Note_off_c, 0, 57, 64
3, 279840, Note_on_c, 0, 50, 80
3, 280056, Note_off_c, 0, 50, 64
3, 280080, Note_on_c, 0, 66, 80
3, 280080, Note_on_c, 0, 62, 80
3, 280080, Note_on_c, 0, 57, 80
3, 280290, Control_c, 0, 64, 0
3, 280296, Note_off_c, 0, 66, 64
3, 280296, Note_off_c, 0, 62, 64
3, 280296, Note_off_c, 0, 57, 64
3, 280320, Control_c, 0, 64, 118
3, 280320, Note_on_c, 0, 52, 80
3, 280320, Note_on_c, 0, 40, 80
3, 280536, Note_off_c, 0, 52, 64
3, 280536, Note_off_c, 0, 40, 64
3, 280560, Note_on_c, 0, 64, 80
3, 280560, Note_on_c, 0, 59, 80
3, 280560, Note_on_c, 0, 55, 80
3, 280776, Note_off_c, 0, 64, 64
3, 280776, Note_off_c, 0, 59, 64
3, 280776, Note_off_c, 0, 55, 64
3, 280800, Note_on_c, 0, 43, 80
3, 281016, Note_off_c, 0, 43, 64
3, 281040, Note_on_c, 0, 64, 80
3, 281040, Note_on_c, 0, 59, 80
3, 281040, Note_on_c, 0, 55, 80
3, 281256, Note_off_c, 0, 64, 64
3, 281256, Note_off_c, 0, 59, 64
3, 281256, Note_off_c, 0, 55, 64
3, 281280, Note_on_c, 0, 55, 80
3, 281280, Note_on_c, 0, 47, 80
3, 281496, Note_off_c, 0, 55, 64
3, 281496, Note_off_c, 0, 47, 64
3, 281520, Note_on_c, 0, 59, 80
3, 281520, Note_on_c, 0, 52, 80
3, 281736, Note_off_c, 0, 59, 64
3, 281736, Note_off_c, 0, 52, 64
3, 281760, Note_on_c, 0, 40, 80
3, 281868, Note_off_c, 0, 40, 64
3, 281880, Note_on_c, 0, 47, 80
3, 281988, Note_off_c, 0, 47, 64
3, 282000, Note_on_c, 0, 52, 80
3, 282108, Note_off_c, 0, 52, 64
3, 282120, Note_on_c, 0, 47, 80
3, 282210, Control_c, 0, 64, 0
3, 282228, Note_off_c, 0, 47, 64
3, 282240, Control_c, 0, 64, 119
3, 282240, Note_on_c, 0, 48, 80
3, 282240, Note_on_c, 0, 36, 80
3, 282456, Note_off_c, 0, 48, 64
3, 282456, Note_off_c, 0, 36, 64
3, 282480, Note_on_c, 0, 64, 80
3, 282480, Note_on_c, 0, 60, 80
3, 282480, Note_on_c, 0, 55, 80
3, 282696, Note_off_c, 0, 64, 64
3, 282696, Note_off_c, 0, 60, 64
3, 282696, Note_off_c, 0, 55, 64
3, 282720, Note_on_c, 0, 48, 80
3, 282936, Note_off_c, 0, 48, 64
3, 282960, Note_on_c, 0, 64, 80
3, 282960, Note_on_c, 0, 60, 80
3, 282960, Note_on_c, 0, 55, 80
3, 283170, Control_c, 0, 64, 0
3, 283176, Note_off_c, 0, 64, 64
3, 283176, Note_off_c, 0, 60, 64
3, 283176, Note_off_c, 0, 55, 64
3, 283200, Control_c, 0, 64, 118
3, 283200, Note_on_c, 0, 50, 80
3, 283200, Note_on_c, 0, 38, 80
3, 283416, Note_off_c, 0, 50, 64
3, 283416, Note_off_c, 0, 38, 64
3, 283440, Note_on_c, 0, 66, 80
3, 283440, Note_on_c, 0, 62, 80
3, 283440, Note_on_c, 0, 57, 80
3, 283656, Note_off_c, 0, 66, 64
3, 283656, Note_off_c, 0, 62, 64
3, 283656, Note_off_c, 0, 57, 64
3, 283680, Note_on_c, 0, 50, 80
3, 283896, Note_off_c, 0, 50, 64
3, 283920, Note_on_c, 0, 66, 80
3, 283920, Note_on_c, 0, 62, 80
3, 283920, Note_on_c, 0, 57, 80
3, 284130, Control_c, 0, 64, 0
3, 284136, Note_off_c, 0, 66, 64
3, 284136, Note_off_c, 0, 62, 64
3, 284136, Note_off_c, 0, 57, 64
3, 284160, Control_c, 0, 64, 118
3, 284160, Note_on_c, 0, 52, 80
3, 284160, Note_on_c, 0, 40, 80
3, 284376, Note_off_c, 0, 52, 64
3, 284376, Note_off_c, 0, 40, 64
3, 284400, Note_on_c, 0, 64, 80
3, 284400, Note_on_c, 0, 59, 80
3, 284400, Note_on_c, 0, 55, 80
3, 284616, Note_off_c, 0, 64, 64
3, 284616, Note_off_c, 0, 59, 64
3, 284616, Note_off_c, 0, 55, 64
3, 284640, Note_on_c, 0, 43, 80
3, 284856, Note_off_c, 0, 43, 64
3, 284880, Note_on_c, 0, 67, 80
3, 284880, Note_on_c, 0, 64, 80
3, 284880, Note_on_c, 0, 59, 80
3, 285096, Note_off_c, 0, 67, 64
3, 285096, Note_off_c, 0, 64, 64
3, 285096, Note_off_c, 0, 59, 64
3, 285120, Note_on_c, 0, 59, 80
3, 285120, Note_on_c, 0, 47, 80
3, 285336, Note_off_c, 0, 59, 64
3, 285336, Note_off_c, 0, 47, 64
3, 285360, Note_on_c, 0, 64, 80
3, 285360, Note_on_c, 0, 55, 80
3, 285576, Note_off_c, 0, 64, 64
3, 285576, Note_off_c, 0, 55, 64
3, 285600, Note_on_c, 0, 59, 80
3, 285708, Note_off_c, 0, 59, 64
3, 285720, Note_on_c, 0, 52, 80
3, 285828, Note_off_c, 0, 52, 64
3, 285840, Note_on_c, 0, 47, 80
3, 285948, Note_off_c, 0, 47, 64
3, 285960, Note_on_c, 0, 40, 80
3, 286050, Control_c, 0, 64, 0
3, 286068, Note_off_c, 0, 40, 64
3, 286080, Control_c, 0, 64, 120
3, 286080, Note_on_c, 0, 48, 80
3, 286080, Note_on_c, 0, 36, 80
3, 286296, Note_off_c, 0, 48, 64
3, 286296, Note_off_c, 0, 36, 64
3, 286320, Note_on_c, 0, 64, 80
3, 286320, Note_on_c, 0, 60, 80
3, 286320, Note_on_c, 0, 55, 80
3, 286536, Note_off_c, 0, 64, 64
3, 286536, Note_off_c, 0, 60, 64
3, 286536, Note_off_c, 0, 55, 64
3, 286560, Note_on_c, 0, 48, 80
3, 286776, Note_off_c, 0, 48, 64
3, 286800, Note_on_c, 0, 64, 80
3, 286800, Note_on_c, 0, 60, 80
3, 286800, Note_on_c, 0, 55, 80
3, 287010, Control_c, 0, 64, 0
3, 287016, Note_off_c, 0, 64, 64
3, 287016, Note_off_c, 0, 60, 64
3, 287016, Note_off_c, 0, 55, 64
3, 287040, Control_c, 0, 64, 117
3, 287040, Note_on_c, 0, 50, 80
3, 287040, Note_on_c, 0, 38, 80
3, 287256, Note_off_c, 0, 50, 64
3, 287256, Note_off_c, 0, 38, 64
3, 287280, Note_on_c, 0, 66, 80
3, 287280, Note_on_c, 0, 62, 80
3, 287280, Note_on_c, 0, 57, 80
3, 287496, Note_off_c, 0, 66, 64
3, 287496, Note_off_c, 0, 62, 64
3, 287496, Note_off_c, 0, 57, 64
3, 287520, Note_on_c, 0, 50, 80
3, 287736, Note_off_c, 0, 50, 64
3, 287760, Note_on_c, 0, 66, 80
3, 287760, Note_on_c, 0, 62, 80
3, 287760, Note_on_c, 0, 57, 80
3, 287970, Control_c, 0, 64, 0
3, 287976, Note_off_c, 0, 66, 64
3, 287976, Note_off_c, 0, 62, 64
3, 287976, Note_off_c, 0, 57, 64
3, 288000, Control_c, 0, 64, 117
3, 288000, Note_on_c, 0, 52, 80
3, 288000, Note_on_c, 0, 40, 80
3, 288216, Note_off_c, 0, 52, 64
3, 288216, Note_off_c, 0, 40, 64
3, 288240, Note_on_c, 0, 64, 80
3, 288240, Note_on_c, 0, 59, 80
3, 288240, Note_on_c, 0, 55, 80
3, 288456, Note_off_c, 0, 64, 64
3, 288456, Note_off_c, 0, 59, 64
3, 288456, Note_off_c, 0, 55, 64
3, 288480, Note_on_c, 0, 43, 80
3, 288696, Note_off_c, 0, 43, 64
3, 288720, Note_on_c, 0, 64, 80
3, 288720, Note_on_c, 0, 59, 80
3, 288720, Note_on_c, 0, 55, 80
3, 288936, Note_off_c, 0, 64, 64
3, 288936, Note_off_c, 0, 59, 64
3, 288936, Note_off_c, 0, 55, 64
3, 288960, Note_on_c, 0, 55, 80
3, 288960, Note_on_c, 0, 47, 80
3, 289176, Note_off_c, 0, 55, 64
3, 289176, Note_off_c, 0, 47, 64
3, 289200, Note_on_c, 0, 59, 80
3, 289200, Note_on_c, 0, 52, 80
3, 289416, Note_off_c, 0, 59, 64
3, 289416, Note_off_c, 0, 52, 64
3, 289440, Note_on_c, 0, 40, 80
3, 289548, Note_off_c, 0, 40, 64
3, 289560, Note_on_c, 0, 47, 80
3, 289668, Note_off_c, 0, 47, 64
3, 289680, Note_on_c, 0, 52, 80
3, 289788, Note_off_c, 0, 52, 64
3, 289800, Note_on_c, 0, 47, 80
3, 289890, Control_c, 0, 64, 0
3, 289908, Note_off_c, 0, 47, 64
3, 289920, Control_c, 0, 64, 119
3, 289920, Note_on_c, 0, 48, 80
3, 289920, Note_on_c, 0, 36, 80
3, 290136, Note_off_c, 0, 48, 64
3, 290136, Note_off_c, 0, 36, 64
3, 290160, Note_on_c, 0, 64, 80
3, 290160, Note_on_c, 0, 60, 80
3, 290160, Note_on_c, 0, 55, 80
3, 290376, Note_off_c, 0, 64, 64
3, 290376, Note_off_c, 0, 60, 64
3, 290376, Note_off_c, 0, 55, 64
3, 290400, Note_on_c, 0, 48, 80
3, 290616, Note_off_c, 0, 48, 64
3, 290640, Note_on_c, 0, 64, 80
3, 290640, Note_on_c, 0, 60, 80
3, 290640, Note_on_c, 0, 55, 80
3, 290850, Control_c, 0, 64, 0
3, 290856, Note_off_c, 0, 64, 64
3, 290856, Note_off_c, 0, 60, 64
3, 290856, Note_off_c, 0, 55, 64
3, 290880, Control_c, 0, 64, 119
3, 290880, Note_on_c, 0, 50, 80
3, 290880, Note_on_c, 0, 38, 80
3, 291096, Note_off_c, 0, 50, 64
3, 291096, Note_off_c, 0, 38, 64
3, 291120, Note_on_c, 0, 66, 80
3, 291120, Note_on_c, 0, 62, 80
3, 291120, Note_on_c, 0, 57, 80
3, 291336, Note_off_c, 0, 66, 64
3, 291336, Note_off_c, 0, 62, 64
3, 291336, Note_off_c, 0, 57, 64
3, 291360, Note_on_c, 0, 38, 80
3, 291468, Note_off_c, 0, 38, 64
3, 291480, Note_on_c, 0, 45, 80
3, 291588, Note_off_c, 0, 45, 64
3, 291600, Note_on_c, 0, 50, 80
3, 291708, Note_off_c, 0, 50, 64
3, 291720, Note_on_c, 0, 54, 80
3, 291810, Control_c, 0, 64, 0
3, 291828, Note_off_c, 0, 54, 64
3, 291840, Control_c, 0, 64, 118
3, 291840, Note_on_c, 0, 40, 80
3, 291840, Note_on_c, 0, 47, 80
3, 291840, Note_on_c, 0, 52, 80
3, 292056, Note_off_c, 0, 40, 64
3, 292056, Note_off_c, 0, 47, 64
3, 292056, Note_off_c, 0, 52, 64
3, 292080, Note_on_c, 0, 40, 80
3, 292188, Note_off_c, 0, 40, 64
3, 292200, Note_on_c, 0, 47, 80
3, 292200, Note_on_c, 0, 52, 80
3, 292416, Note_off_c, 0, 47, 64
3, 292416, Note_off_c, 0, 52, 64
3, 292440, Note_on_c, 0, 40, 80
3, 292548, Note_off_c, 0, 40, 64
3, 292560, Note_on_c, 0, 43, 80
3, 292560, Note_on_c, 0, 52, 80
3, 292776, Note_off_c, 0, 43, 64
3, 292776, Note_off_c, 0, 52, 64
3, 292800, Control_c, 0, 64, 0
3, 292800, Note_on_c, 0, 43, 80
3, 292800, Note_on_c, 0, 52, 80
3, 292830, Control_c, 0, 64, 117
3, 293040, Note_on_c, 0, 40, 80
3, 293232, Note_off_c, 0, 43, 64
3, 293232, Note_off_c, 0, 52, 64
3, 293256, Note_off_c, 0, 40, 64
3, 293280, Note_on_c, 0, 59, 80
3, 293280, Note_on_c, 0, 55, 80
3, 293280, Note_on_c, 0, 52, 80
3, 293712, Note_off_c, 0, 59, 64
3, 293712, Note_off_c, 0, 55, 64
3, 293712, Note_off_c, 0, 52, 64
3, 293730, Control_c, 0, 64, 0
3, 293760, Control_c, 0, 64, 118
3, 293760, Note_on_c, 0, 40, 80
3, 293760, Note_on_c, 0, 47, 80
3, 293760, Note_on_c, 0, 52, 80
3, 294120, Note_off_c, 0, 40, 64
3, 294120, Note_off_c, 0, 47, 64
3, 294120, Note_off_c, 0, 52, 64
3, 294120, Note_on_c, 0, 40, 80
3, 294120, Note_on_c, 0, 47, 80
3, 294120, Note_on_c, 0, 52, 80
3, 294480, Note_off_c, 0, 40, 64
3, 294480, Note_off_c, 0, 47, 64
3, 294480, Note_off_c, 0, 52, 64
3, 294480, Note_on_c, 0, 40, 80
3, 294480, Note_on_c, 0, 47, 80
3, 294480, Note_on_c, 0, 52, 80
3, 294696, Note_off_c, 0, 40, 64
3, 294696, Note_off_c, 0, 47, 64
3, 294696, Note_off_c, 0, 52, 64
3, 294720, Control_c, 0, 64, 0
3, 294720, Note_on_c, 0, 28, 80
3, 294720, Note_on_c, 0, 40, 80
3, 294750, Control_c, 0, 64, 117
3, 295584, Note_off_c, 0, 28, 64
3, 295584, Note_off_c, 0, 40, 64
3, 295650, Control_c, 0, 64, 0
3, 297599, End_track
0, 0, End_of_file
