0, 0, Header, 1, 2, 1024
1, 0, Start_track
1, 0, SMPTE_offset, 96, 0, 0, 0, 0
1, 0, Time_signature, 4, 2, 24, 8
1, 0, Key_signature, 2, "major"
1, 0, Tempo, 499999
1, 0, Tempo, 499999
1, 0, Tempo, 500003
1, 61440, Key_signature, -1, "major"
1, 71680, Tempo, 500003
1, 71936, Tempo, 504434
1, 72192, Tempo, 506432
1, 72448, Tempo, 508697
1, 72704, Tempo, 513029
1, 72960, Tempo, 515093
1, 73216, Tempo, 517436
1, 73472, Tempo, 519535
1, 73984, Tempo, 500003
1, 94208, Key_signature, 2, "major"
1, 167936, Key_signature, -1, "major"
1, 200704, Key_signature, 2, "major"
1, 202752, Tempo, 500003
1, 203008, Tempo, 502210
1, 203264, Tempo, 504434
1, 203520, Tempo, 504434
1, 203776, Tempo, 506432
1, 204032, Tempo, 506432
1, 204288, Tempo, 508697
1, 204544, Tempo, 510726
1, 204800, Tempo, 500003
1, 206848, Tempo, 500003
1, 207104, Tempo, 502210
1, 207360, Tempo, 504434
1, 207616, Tempo, 504434
1, 207872, Tempo, 506432
1, 208128, Tempo, 506432
1, 208384, Tempo, 508697
1, 208640, Tempo, 510726
1, 208896, Tempo, 500003
1, 210944, Tempo, 500003
1, 211200, Tempo, 502210
1, 211456, Tempo, 504434
1, 211712, Tempo, 504434
1, 211968, Tempo, 506432
1, 212224, Tempo, 506432
1, 212480, Tempo, 508697
1, 212736, Tempo, 510726
1, 212992, Tempo, 500003
1, 215040, Tempo, 500003
1, 215296, Tempo, 502210
1, 215552, Tempo, 504434
1, 215808, Tempo, 504434
1, 216064, Tempo, 506432
1, 216320, Tempo, 506432
1, 216576, Tempo, 508697
1, 216832, Tempo, 510726
1, 217088, Tempo, 500003
1, 219136, Tempo, 500003
1, 219392, Tempo, 502210
1, 219648, Tempo, 504434
1, 219904, Tempo, 504434
1, 220160, Tempo, 506432
1, 220416, Tempo, 506432
1, 220672, Tempo, 508697
1, 220928, Tempo, 510726
1, 221184, Tempo, 500003
1, 223232, Tempo, 500003
1, 223488, Tempo, 502210
1, 223744, Tempo, 504434
1, 224000, Tempo, 504434
1, 224256, Tempo, 506432
1, 224512, Tempo, 506432
1, 224768, Tempo, 508697
1, 225024, Tempo, 510726
1, 225280, Tempo, 500003
1, 227328, Tempo, 500003
1, 227584, Tempo, 502210
1, 227840, Tempo, 504434
1, 228096, Tempo, 504434
1, 228352, Tempo, 506432
1, 228608, Tempo, 506432
1, 228864, Tempo, 508697
1, 229120, Tempo, 510726
1, 229376, Tempo, 500003
1, 235520, Tempo, 500003
1, 235776, Tempo, 502210
1, 236032, Tempo, 504434
1, 236288, Tempo, 504434
1, 236544, Tempo, 506432
1, 236800, Tempo, 506432
1, 237056, Tempo, 508697
1, 237312, Tempo, 510726
1, 237568, Tempo, 500003
1, 239616, Tempo, 500003
1, 239872, Tempo, 502210
1, 240128, Tempo, 504434
1, 240384, Tempo, 504434
1, 240640, Tempo, 506432
1, 240896, Tempo, 506432
1, 241152, Tempo, 508697
1, 241408, Tempo, 510726
1, 241664, Tempo, 500003
1, 243712, Tempo, 500003
1, 243968, Tempo, 502210
1, 244224, Tempo, 504434
1, 244480, Tempo, 504434
1, 244736, Tempo, 506432
1, 244992, Tempo, 506432
1, 245248, Tempo, 508697
1, 245504, Tempo, 510726
1, 245760, Tempo, 500003
1, 274432, Key_signature, -1, "major"
1, 307200, Key_signature, 2, "major"
1, 357602, End_track
2, 0, Start_track
2, 0, Unknown_meta_event, 9, 22, 83, 109, 97, 114, 116, 77, 117, 115, 105, 99, 32, 83, 111, 102, 116, 83, 121, 110, 116, 104, 32, 49
2, 0, Title_t, "Piano"
2, 0, Program_c, 0, 0
2, 0, Control_c, 0, 7, 101
2, 0, Control_c, 0, 10, 64
2, 0, Control_c, 0, 7, 102
2, 0, Control_c, 0, 7, 110
2, 3, Control_c, 0, 100, 0
2, 3, Control_c, 0, 101, 0
2, 3, Control_c, 0, 100, 0
2, 3, Control_c, 0, 101, 0
2, 4, Control_c, 0, 6, 12
2, 4, Control_c, 0, 6, 12
2, 5, Control_c, 0, 38, 0
2, 5, Control_c, 0, 38, 0
2, 2069, Note_on_c, 0, 79, 65
2, 2548, Note_off_c, 0, 79, 0
2, 2579, Note_on_c, 0, 78, 62
2, 3053, Note_off_c, 0, 78, 0
2, 3084, Note_on_c, 0, 76, 63
2, 3588, Note_off_c, 0, 76, 0
2, 3589, Note_on_c, 0, 76, 62
2, 4042, Control_c, 0, 7, 102
2, 4065, Note_off_c, 0, 76, 0
2, 4100, Note_on_c, 0, 78, 67
2, 4100, Note_on_c, 0, 57, 55
2, 4642, Note_on_c, 0, 62, 50
2, 4672, Note_off_c, 0, 57, 0
2, 5149, Note_off_c, 0, 78, 0
2, 5150, Note_on_c, 0, 66, 51
2, 5180, Note_off_c, 0, 62, 0
2, 5345, Control_c, 0, 7, 110
2, 5655, Note_on_c, 0, 62, 50
2, 5685, Note_off_c, 0, 66, 0
2, 6165, Note_on_c, 0, 59, 53
2, 6195, Note_off_c, 0, 62, 0
2, 6675, Note_on_c, 0, 62, 50
2, 6705, Note_off_c, 0, 59, 0
2, 7180, Note_on_c, 0, 66, 51
2, 7210, Note_off_c, 0, 62, 0
2, 7685, Note_on_c, 0, 62, 50
2, 7715, Note_off_c, 0, 66, 0
2, 8196, Note_on_c, 0, 57, 55
2, 8222, Note_off_c, 0, 62, 0
2, 8738, Note_on_c, 0, 62, 50
2, 8768, Note_off_c, 0, 57, 0
2, 9246, Note_on_c, 0, 66, 51
2, 9276, Note_off_c, 0, 62, 0
2, 9751, Note_on_c, 0, 69, 62
2, 9751, Note_on_c, 0, 62, 50
2, 9781, Note_off_c, 0, 66, 0
2, 10230, Note_off_c, 0, 69, 0
2, 10261, Note_on_c, 0, 79, 65
2, 10261, Note_on_c, 0, 59, 53
2, 10291, Note_off_c, 0, 62, 0
2, 10740, Note_off_c, 0, 79, 0
2, 10771, Note_on_c, 0, 78, 62
2, 10771, Note_on_c, 0, 62, 50
2, 10801, Note_off_c, 0, 59, 0
2, 11245, Note_off_c, 0, 78, 0
2, 11276, Note_on_c, 0, 76, 63
2, 11276, Note_on_c, 0, 66, 51
2, 11306, Note_off_c, 0, 62, 0
2, 11780, Note_off_c, 0, 76, 0
2, 11781, Note_on_c, 0, 76, 62
2, 11781, Note_on_c, 0, 62, 50
2, 11811, Note_off_c, 0, 66, 0
2, 12292, Note_on_c, 0, 57, 55
2, 12318, Note_off_c, 0, 62, 0
2, 12803, Note_off_c, 0, 76, 0
2, 12834, Note_on_c, 0, 78, 62
2, 12834, Note_on_c, 0, 62, 50
2, 12864, Note_off_c, 0, 57, 0
2, 13311, Note_off_c, 0, 78, 0
2, 13342, Note_on_c, 0, 66, 51
2, 13372, Note_off_c, 0, 62, 0
2, 13847, Note_on_c, 0, 62, 50
2, 13877, Note_off_c, 0, 66, 0
2, 14357, Note_on_c, 0, 74, 65
2, 14357, Note_on_c, 0, 59, 53
2, 14387, Note_off_c, 0, 62, 0
2, 14867, Note_on_c, 0, 62, 50
2, 14897, Note_off_c, 0, 59, 0
2, 15371, Note_off_c, 0, 74, 0
2, 15372, Note_on_c, 0, 76, 63
2, 15372, Note_on_c, 0, 66, 51
2, 15402, Note_off_c, 0, 62, 0
2, 15846, Note_off_c, 0, 76, 0
2, 15877, Note_on_c, 0, 69, 62
2, 15877, Note_on_c, 0, 62, 50
2, 15907, Note_off_c, 0, 66, 0
2, 16353, Note_off_c, 0, 69, 0
2, 16388, Note_on_c, 0, 57, 55
2, 16414, Note_off_c, 0, 62, 0
2, 16930, Note_on_c, 0, 62, 50
2, 16960, Note_off_c, 0, 57, 0
2, 17438, Note_on_c, 0, 66, 51
2, 17468, Note_off_c, 0, 62, 0
2, 17943, Note_on_c, 0, 62, 50
2, 17973, Note_off_c, 0, 66, 0
2, 18453, Note_on_c, 0, 59, 53
2, 18483, Note_off_c, 0, 62, 0
2, 18963, Note_on_c, 0, 62, 50
2, 18993, Note_off_c, 0, 59, 0
2, 19468, Note_on_c, 0, 66, 51
2, 19498, Note_off_c, 0, 62, 0
2, 19973, Note_on_c, 0, 69, 62
2, 19973, Note_on_c, 0, 62, 50
2, 20003, Note_off_c, 0, 66, 0
2, 20449, Note_off_c, 0, 69, 0
2, 20484, Note_on_c, 0, 76, 67
2, 20484, Note_on_c, 0, 59, 55
2, 20510, Note_off_c, 0, 62, 0
2, 21026, Note_on_c, 0, 64, 50
2, 21056, Note_off_c, 0, 59, 0
2, 21533, Note_off_c, 0, 76, 0
2, 21534, Note_on_c, 0, 78, 63
2, 21534, Note_on_c, 0, 67, 51
2, 21564, Note_off_c, 0, 64, 0
2, 22008, Note_off_c, 0, 78, 0
2, 22039, Note_on_c, 0, 79, 62
2, 22039, Note_on_c, 0, 64, 50
2, 22069, Note_off_c, 0, 67, 0
2, 22549, Note_on_c, 0, 59, 53
2, 22579, Note_off_c, 0, 64, 0
2, 23059, Note_on_c, 0, 64, 50
2, 23089, Note_off_c, 0, 59, 0
2, 23563, Note_off_c, 0, 79, 0
2, 23564, Note_on_c, 0, 76, 63
2, 23564, Note_on_c, 0, 67, 51
2, 23594, Note_off_c, 0, 64, 0
2, 24038, Note_off_c, 0, 76, 0
2, 24069, Note_on_c, 0, 73, 62
2, 24069, Note_on_c, 0, 64, 50
2, 24099, Note_off_c, 0, 67, 0
2, 24580, Note_on_c, 0, 57, 55
2, 24606, Note_off_c, 0, 64, 0
2, 25091, Note_off_c, 0, 73, 0
2, 25122, Note_on_c, 0, 74, 62
2, 25122, Note_on_c, 0, 64, 50
2, 25152, Note_off_c, 0, 57, 0
2, 25630, Note_on_c, 0, 67, 51
2, 25660, Note_off_c, 0, 64, 0
2, 26135, Note_on_c, 0, 64, 50
2, 26165, Note_off_c, 0, 67, 0
2, 26644, Note_off_c, 0, 74, 0
2, 26645, Note_on_c, 0, 76, 65
2, 26645, Note_on_c, 0, 57, 53
2, 26675, Note_off_c, 0, 64, 0
2, 27155, Note_on_c, 0, 64, 50
2, 27185, Note_off_c, 0, 57, 0
2, 27659, Note_off_c, 0, 76, 0
2, 27660, Note_on_c, 0, 69, 51
2, 27660, Note_on_c, 0, 67, 51
2, 27690, Note_off_c, 0, 64, 0
2, 28164, Note_off_c, 0, 69, 0
2, 28165, Note_on_c, 0, 69, 50
2, 28165, Note_on_c, 0, 64, 50
2, 28195, Note_off_c, 0, 67, 0
2, 28676, Note_on_c, 0, 57, 55
2, 28702, Note_off_c, 0, 64, 0
2, 29218, Note_on_c, 0, 78, 62
2, 29218, Note_on_c, 0, 62, 50
2, 29248, Note_off_c, 0, 69, 0
2, 29248, Note_off_c, 0, 57, 0
2, 29726, Note_on_c, 0, 66, 51
2, 29756, Note_off_c, 0, 62, 0
2, 30230, Note_off_c, 0, 78, 0
2, 30231, Note_on_c, 0, 62, 50
2, 30261, Note_off_c, 0, 66, 0
2, 30741, Note_on_c, 0, 59, 53
2, 30771, Note_off_c, 0, 62, 0
2, 31251, Note_on_c, 0, 62, 50
2, 31281, Note_off_c, 0, 59, 0
2, 31756, Note_on_c, 0, 66, 51
2, 31786, Note_off_c, 0, 62, 0
2, 32261, Note_on_c, 0, 62, 50
2, 32291, Note_off_c, 0, 66, 0
2, 32772, Note_on_c, 0, 57, 55
2, 32798, Note_off_c, 0, 62, 0
2, 33314, Note_on_c, 0, 62, 50
2, 33344, Note_off_c, 0, 57, 0
2, 33822, Note_on_c, 0, 66, 51
2, 33852, Note_off_c, 0, 62, 0
2, 34327, Note_on_c, 0, 62, 50
2, 34357, Note_off_c, 0, 66, 0
2, 34837, Note_on_c, 0, 79, 65
2, 34837, Note_on_c, 0, 59, 53
2, 34867, Note_off_c, 0, 62, 0
2, 35316, Note_off_c, 0, 79, 0
2, 35347, Note_on_c, 0, 78, 62
2, 35347, Note_on_c, 0, 62, 50
2, 35377, Note_off_c, 0, 59, 0
2, 35821, Note_off_c, 0, 78, 0
2, 35852, Note_on_c, 0, 76, 63
2, 35852, Note_on_c, 0, 66, 51
2, 35882, Note_off_c, 0, 62, 0
2, 36356, Note_off_c, 0, 76, 0
2, 36357, Note_on_c, 0, 76, 62
2, 36357, Note_on_c, 0, 62, 50
2, 36387, Note_off_c, 0, 66, 0
2, 36833, Note_off_c, 0, 76, 0
2, 36868, Note_on_c, 0, 78, 67
2, 36868, Note_on_c, 0, 57, 55
2, 36894, Note_off_c, 0, 62, 0
2, 37410, Note_on_c, 0, 62, 50
2, 37440, Note_off_c, 0, 57, 0
2, 37917, Note_off_c, 0, 78, 0
2, 37918, Note_on_c, 0, 66, 51
2, 37948, Note_off_c, 0, 62, 0
2, 38423, Note_on_c, 0, 62, 50
2, 38453, Note_off_c, 0, 66, 0
2, 38933, Note_on_c, 0, 59, 53
2, 38963, Note_off_c, 0, 62, 0
2, 39443, Note_on_c, 0, 62, 50
2, 39473, Note_off_c, 0, 59, 0
2, 39948, Note_on_c, 0, 66, 51
2, 39978, Note_off_c, 0, 62, 0
2, 40453, Note_on_c, 0, 62, 50
2, 40483, Note_off_c, 0, 66, 0
2, 40964, Note_on_c, 0, 57, 55
2, 40990, Note_off_c, 0, 62, 0
2, 41506, Note_on_c, 0, 62, 50
2, 41536, Note_off_c, 0, 57, 0
2, 42014, Note_on_c, 0, 66, 51
2, 42044, Note_off_c, 0, 62, 0
2, 42519, Note_on_c, 0, 69, 62
2, 42519, Note_on_c, 0, 62, 50
2, 42549, Note_off_c, 0, 66, 0
2, 42998, Note_off_c, 0, 69, 0
2, 43029, Note_on_c, 0, 79, 65
2, 43029, Note_on_c, 0, 59, 53
2, 43059, Note_off_c, 0, 62, 0
2, 43508, Note_off_c, 0, 79, 0
2, 43539, Note_on_c, 0, 78, 62
2, 43539, Note_on_c, 0, 62, 50
2, 43569, Note_off_c, 0, 59, 0
2, 44013, Note_off_c, 0, 78, 0
2, 44044, Note_on_c, 0, 76, 63
2, 44044, Note_on_c, 0, 66, 51
2, 44074, Note_off_c, 0, 62, 0
2, 44548, Note_off_c, 0, 76, 0
2, 44549, Note_on_c, 0, 76, 62
2, 44549, Note_on_c, 0, 62, 50
2, 44579, Note_off_c, 0, 66, 0
2, 45025, Note_off_c, 0, 76, 0
2, 45060, Note_on_c, 0, 57, 55
2, 45086, Note_off_c, 0, 62, 0
2, 45602, Note_on_c, 0, 62, 50
2, 45632, Note_off_c, 0, 57, 0
2, 46110, Note_on_c, 0, 78, 63
2, 46110, Note_on_c, 0, 66, 51
2, 46140, Note_off_c, 0, 62, 0
2, 46584, Note_off_c, 0, 78, 0
2, 46615, Note_on_c, 0, 74, 62
2, 46615, Note_on_c, 0, 62, 50
2, 46645, Note_off_c, 0, 66, 0
2, 47094, Note_off_c, 0, 74, 0
2, 47125, Note_on_c, 0, 59, 53
2, 47155, Note_off_c, 0, 62, 0
2, 47635, Note_on_c, 0, 62, 50
2, 47665, Note_off_c, 0, 59, 0
2, 48140, Note_on_c, 0, 76, 63
2, 48140, Note_on_c, 0, 66, 51
2, 48170, Note_off_c, 0, 62, 0
2, 48614, Note_off_c, 0, 76, 0
2, 48645, Note_on_c, 0, 69, 62
2, 48645, Note_on_c, 0, 62, 50
2, 48675, Note_off_c, 0, 66, 0
2, 49121, Note_off_c, 0, 69, 0
2, 49156, Note_on_c, 0, 57, 55
2, 49182, Note_off_c, 0, 62, 0
2, 49698, Note_on_c, 0, 62, 50
2, 49728, Note_off_c, 0, 57, 0
2, 50206, Note_on_c, 0, 66, 51
2, 50236, Note_off_c, 0, 62, 0
2, 50711, Note_on_c, 0, 62, 50
2, 50741, Note_off_c, 0, 66, 0
2, 51221, Note_on_c, 0, 59, 53
2, 51251, Note_off_c, 0, 62, 0
2, 51731, Note_on_c, 0, 62, 50
2, 51761, Note_off_c, 0, 59, 0
2, 52236, Note_on_c, 0, 66, 51
2, 52266, Note_off_c, 0, 62, 0
2, 52741, Note_on_c, 0, 62, 50
2, 52771, Note_off_c, 0, 66, 0
2, 53252, Note_on_c, 0, 76, 67
2, 53252, Note_on_c, 0, 59, 55
2, 53278, Note_off_c, 0, 62, 0
2, 53794, Note_on_c, 0, 64, 50
2, 53824, Note_off_c, 0, 59, 0
2, 54301, Note_off_c, 0, 76, 0
2, 54302, Note_on_c, 0, 78, 63
2, 54302, Note_on_c, 0, 67, 51
2, 54332, Note_off_c, 0, 64, 0
2, 54776, Note_off_c, 0, 78, 0
2, 54807, Note_on_c, 0, 79, 62
2, 54807, Note_on_c, 0, 64, 50
2, 54837, Note_off_c, 0, 67, 0
2, 55317, Note_on_c, 0, 59, 53
2, 55347, Note_off_c, 0, 64, 0
2, 55827, Note_on_c, 0, 64, 50
2, 55857, Note_off_c, 0, 59, 0
2, 56331, Note_off_c, 0, 79, 0
2, 56332, Note_on_c, 0, 76, 63
2, 56332, Note_on_c, 0, 67, 51
2, 56362, Note_off_c, 0, 64, 0
2, 56806, Note_off_c, 0, 76, 0
2, 56837, Note_on_c, 0, 73, 62
2, 56837, Note_on_c, 0, 64, 50
2, 56867, Note_off_c, 0, 67, 0
2, 57348, Note_on_c, 0, 57, 55
2, 57374, Note_off_c, 0, 64, 0
2, 57890, Note_on_c, 0, 64, 50
2, 57920, Note_off_c, 0, 57, 0
2, 58397, Note_off_c, 0, 73, 0
2, 58398, Note_on_c, 0, 74, 63
2, 58398, Note_on_c, 0, 67, 51
2, 58428, Note_off_c, 0, 64, 0
2, 58872, Note_off_c, 0, 74, 0
2, 58903, Note_on_c, 0, 76, 62
2, 58903, Note_on_c, 0, 64, 50
2, 58933, Note_off_c, 0, 67, 0
2, 59382, Note_off_c, 0, 76, 0
2, 59413, Note_on_c, 0, 57, 53
2, 59443, Note_off_c, 0, 64, 0
2, 59923, Note_on_c, 0, 69, 62
2, 59923, Note_on_c, 0, 64, 50
2, 59953, Note_off_c, 0, 57, 0
2, 60397, Note_off_c, 0, 69, 0
2, 60428, Note_on_c, 0, 74, 63
2, 60428, Note_on_c, 0, 67, 51
2, 60458, Note_off_c, 0, 64, 0
2, 60902, Note_off_c, 0, 74, 0
2, 60933, Note_on_c, 0, 76, 62
2, 60933, Note_on_c, 0, 64, 50
2, 60963, Note_off_c, 0, 67, 0
2, 61409, Note_off_c, 0, 76, 0
2, 61444, Note_on_c, 0, 77, 67
2, 61444, Note_on_c, 0, 58, 55
2, 61470, Note_off_c, 0, 64, 0
2, 61955, Note_off_c, 0, 77, 0
2, 61986, Note_on_c, 0, 76, 62
2, 61986, Note_on_c, 0, 62, 50
2, 62016, Note_off_c, 0, 58, 0
2, 62463, Note_off_c, 0, 76, 0
2, 62494, Note_on_c, 0, 74, 63
2, 62494, Note_on_c, 0, 65, 51
2, 62524, Note_off_c, 0, 62, 0
2, 62968, Note_off_c, 0, 74, 0
2, 62999, Note_on_c, 0, 72, 62
2, 62999, Note_on_c, 0, 70, 50
2, 63029, Note_off_c, 0, 65, 0
2, 63478, Note_off_c, 0, 72, 0
2, 63539, Note_off_c, 0, 70, 0
2, 63713, Control_c, 0, 7, 102
2, 63713, Control_c, 0, 7, 110
2, 64524, Note_on_c, 0, 69, 63
2, 64998, Note_off_c, 0, 69, 0
2, 65029, Note_on_c, 0, 70, 62
2, 65482, Control_c, 0, 7, 102
2, 65505, Note_off_c, 0, 70, 0
2, 65540, Note_on_c, 0, 72, 67
2, 65540, Note_on_c, 0, 53, 55
2, 66082, Note_on_c, 0, 60, 50
2, 66112, Note_off_c, 0, 53, 0
2, 66589, Note_off_c, 0, 72, 0
2, 66590, Note_on_c, 0, 77, 63
2, 66590, Note_on_c, 0, 65, 51
2, 66620, Note_off_c, 0, 60, 0
2, 67095, Note_on_c, 0, 60, 50
2, 67125, Note_off_c, 0, 65, 0
2, 67604, Note_off_c, 0, 77, 0
2, 67605, Note_on_c, 0, 76, 65
2, 67605, Note_on_c, 0, 55, 53
2, 67635, Note_off_c, 0, 60, 0
2, 68084, Note_off_c, 0, 76, 0
2, 68115, Note_on_c, 0, 74, 62
2, 68115, Note_on_c, 0, 62, 50
2, 68145, Note_off_c, 0, 55, 0
2, 68619, Note_off_c, 0, 74, 0
2, 68620, Note_on_c, 0, 74, 63
2, 68620, Note_on_c, 0, 65, 51
2, 68650, Note_off_c, 0, 62, 0
2, 69094, Note_off_c, 0, 74, 0
2, 69125, Note_on_c, 0, 72, 62
2, 69125, Note_on_c, 0, 62, 50
2, 69155, Note_off_c, 0, 65, 0
2, 69601, Note_off_c, 0, 72, 0
2, 69636, Note_on_c, 0, 74, 67
2, 69636, Note_on_c, 0, 57, 55
2, 69662, Note_off_c, 0, 62, 0
2, 70147, Note_off_c, 0, 74, 0
2, 70178, Note_on_c, 0, 72, 62
2, 70178, Note_on_c, 0, 60, 50
2, 70208, Note_off_c, 0, 57, 0
2, 70685, Note_off_c, 0, 72, 0
2, 70686, Note_on_c, 0, 72, 63
2, 70686, Note_on_c, 0, 65, 51
2, 70716, Note_off_c, 0, 60, 0
2, 71191, Note_on_c, 0, 60, 50
2, 71221, Note_off_c, 0, 65, 0
2, 71700, Note_off_c, 0, 72, 0
2, 71701, Note_on_c, 0, 72, 65
2, 71701, Note_on_c, 0, 53, 53
2, 71731, Note_off_c, 0, 60, 0
2, 72211, Note_on_c, 0, 60, 50
2, 72241, Note_off_c, 0, 53, 0
2, 72715, Note_off_c, 0, 72, 0
2, 72716, Note_on_c, 0, 69, 63
2, 72716, Note_on_c, 0, 65, 51
2, 72746, Note_off_c, 0, 60, 0
2, 73190, Note_off_c, 0, 69, 0
2, 73221, Note_on_c, 0, 70, 62
2, 73221, Note_on_c, 0, 60, 50
2, 73251, Note_off_c, 0, 65, 0
2, 73697, Note_off_c, 0, 70, 0
2, 73732, Note_on_c, 0, 72, 67
2, 73732, Note_on_c, 0, 53, 55
2, 73758, Note_off_c, 0, 60, 0
2, 74274, Note_on_c, 0, 60, 50
2, 74304, Note_off_c, 0, 53, 0
2, 74781, Note_off_c, 0, 72, 0
2, 74782, Note_on_c, 0, 77, 63
2, 74782, Note_on_c, 0, 65, 51
2, 74812, Note_off_c, 0, 60, 0
2, 75287, Note_on_c, 0, 60, 50
2, 75317, Note_off_c, 0, 65, 0
2, 75796, Note_off_c, 0, 77, 0
2, 75797, Note_on_c, 0, 79, 65
2, 75797, Note_on_c, 0, 55, 53
2, 75827, Note_off_c, 0, 60, 0
2, 76276, Note_off_c, 0, 79, 0
2, 76307, Note_on_c, 0, 77, 62
2, 76307, Note_on_c, 0, 62, 50
2, 76337, Note_off_c, 0, 55, 0
2, 76781, Note_off_c, 0, 77, 0
2, 76812, Note_on_c, 0, 76, 63
2, 76812, Note_on_c, 0, 65, 51
2, 76842, Note_off_c, 0, 62, 0
2, 77286, Note_off_c, 0, 76, 0
2, 77317, Note_on_c, 0, 74, 62
2, 77317, Note_on_c, 0, 62, 50
2, 77347, Note_off_c, 0, 65, 0
2, 77823, Note_off_c, 0, 74, 0
2, 77828, Note_on_c, 0, 74, 67
2, 77828, Note_on_c, 0, 57, 55
2, 77854, Note_off_c, 0, 62, 0
2, 78339, Note_off_c, 0, 74, 0
2, 78370, Note_on_c, 0, 76, 62
2, 78370, Note_on_c, 0, 60, 50
2, 78400, Note_off_c, 0, 57, 0
2, 78847, Note_off_c, 0, 76, 0
2, 78878, Note_on_c, 0, 77, 63
2, 78878, Note_on_c, 0, 65, 51
2, 78908, Note_off_c, 0, 60, 0
2, 79383, Note_on_c, 0, 60, 50
2, 79413, Note_off_c, 0, 65, 0
2, 79892, Note_off_c, 0, 77, 0
2, 79893, Note_on_c, 0, 77, 65
2, 79893, Note_on_c, 0, 57, 53
2, 79923, Note_off_c, 0, 60, 0
2, 80403, Note_on_c, 0, 60, 50
2, 80433, Note_off_c, 0, 57, 0
2, 80907, Note_off_c, 0, 77, 0
2, 80908, Note_on_c, 0, 79, 63
2, 80908, Note_on_c, 0, 65, 51
2, 80938, Note_off_c, 0, 60, 0
2, 81382, Note_off_c, 0, 79, 0
2, 81413, Note_on_c, 0, 81, 62
2, 81413, Note_on_c, 0, 60, 50
2, 81443, Note_off_c, 0, 65, 0
2, 81889, Note_off_c, 0, 81, 0
2, 81924, Note_on_c, 0, 82, 67
2, 81924, Note_on_c, 0, 58, 55
2, 81950, Note_off_c, 0, 60, 0
2, 82465, Note_off_c, 0, 82, 0
2, 82466, Note_on_c, 0, 82, 62
2, 82466, Note_on_c, 0, 65, 50
2, 82496, Note_off_c, 0, 58, 0
2, 82943, Note_off_c, 0, 82, 0
2, 82974, Note_on_c, 0, 81, 63
2, 82974, Note_on_c, 0, 69, 51
2, 83004, Note_off_c, 0, 65, 0
2, 83479, Note_on_c, 0, 65, 50
2, 83509, Note_off_c, 0, 69, 0
2, 83988, Note_off_c, 0, 81, 0
2, 83989, Note_on_c, 0, 79, 65
2, 83989, Note_on_c, 0, 58, 53
2, 84019, Note_off_c, 0, 65, 0
2, 84499, Note_on_c, 0, 65, 50
2, 84529, Note_off_c, 0, 58, 0
2, 85003, Note_off_c, 0, 79, 0
2, 85004, Note_on_c, 0, 77, 63
2, 85004, Note_on_c, 0, 69, 51
2, 85034, Note_off_c, 0, 65, 0
2, 85478, Note_off_c, 0, 77, 0
2, 85509, Note_on_c, 0, 79, 62
2, 85509, Note_on_c, 0, 65, 50
2, 85539, Note_off_c, 0, 69, 0
2, 85985, Note_off_c, 0, 79, 0
2, 86020, Note_on_c, 0, 81, 67
2, 86020, Note_on_c, 0, 57, 55
2, 86046, Note_off_c, 0, 65, 0
2, 86561, Note_off_c, 0, 81, 0
2, 86562, Note_on_c, 0, 81, 62
2, 86562, Note_on_c, 0, 60, 50
2, 86592, Note_off_c, 0, 57, 0
2, 87039, Note_off_c, 0, 81, 0
2, 87070, Note_on_c, 0, 79, 63
2, 87070, Note_on_c, 0, 65, 51
2, 87100, Note_off_c, 0, 60, 0
2, 87575, Note_on_c, 0, 60, 50
2, 87605, Note_off_c, 0, 65, 0
2, 88084, Note_off_c, 0, 79, 0
2, 88085, Note_on_c, 0, 77, 65
2, 88085, Note_on_c, 0, 57, 53
2, 88115, Note_off_c, 0, 60, 0
2, 88595, Note_on_c, 0, 60, 50
2, 88625, Note_off_c, 0, 57, 0
2, 89099, Note_off_c, 0, 77, 0
2, 89100, Note_on_c, 0, 74, 63
2, 89100, Note_on_c, 0, 65, 51
2, 89130, Note_off_c, 0, 60, 0
2, 89574, Note_off_c, 0, 74, 0
2, 89605, Note_on_c, 0, 72, 62
2, 89605, Note_on_c, 0, 60, 50
2, 89635, Note_off_c, 0, 65, 0
2, 90081, Note_off_c, 0, 72, 0
2, 90116, Note_on_c, 0, 74, 67
2, 90116, Note_on_c, 0, 57, 55
2, 90142, Note_off_c, 0, 60, 0
2, 90627, Note_off_c, 0, 74, 0
2, 90658, Note_on_c, 0, 77, 62
2, 90658, Note_on_c, 0, 60, 50
2, 90688, Note_off_c, 0, 57, 0
2, 91165, Note_off_c, 0, 77, 0
2, 91166, Note_on_c, 0, 77, 63
2, 91166, Note_on_c, 0, 65, 51
2, 91196, Note_off_c, 0, 60, 0
2, 91640, Note_off_c, 0, 77, 0
2, 91671, Note_on_c, 0, 76, 62
2, 91671, Note_on_c, 0, 60, 50
2, 91701, Note_off_c, 0, 65, 0
2, 92181, Note_on_c, 0, 57, 53
2, 92211, Note_off_c, 0, 60, 0
2, 92690, Note_off_c, 0, 76, 0
2, 92691, Note_on_c, 0, 76, 62
2, 92691, Note_on_c, 0, 60, 50
2, 92721, Note_off_c, 0, 57, 0
2, 93165, Note_off_c, 0, 76, 0
2, 93196, Note_on_c, 0, 78, 63
2, 93196, Note_on_c, 0, 64, 51
2, 93226, Note_off_c, 0, 60, 0
2, 93700, Note_off_c, 0, 78, 0
2, 93701, Note_on_c, 0, 78, 62
2, 93701, Note_on_c, 0, 66, 50
2, 93731, Note_off_c, 0, 64, 0
2, 94212, Note_on_c, 0, 50, 72
2, 94212, Note_on_c, 0, 57, 82
2, 94238, Note_off_c, 0, 66, 0
2, 95261, Note_off_c, 0, 78, 0
2, 95262, Note_on_c, 0, 78, 64
2, 95766, Note_off_c, 0, 50, 0
2, 95766, Note_off_c, 0, 57, 0
2, 95767, Note_on_c, 0, 74, 63
2, 95767, Note_on_c, 0, 50, 67
2, 95767, Note_on_c, 0, 57, 81
2, 95797, Note_off_c, 0, 78, 0
2, 96246, Note_off_c, 0, 50, 0
2, 96276, Note_off_c, 0, 57, 0
2, 96277, Note_on_c, 0, 71, 66
2, 96277, Note_on_c, 0, 47, 70
2, 96277, Note_on_c, 0, 54, 84
2, 96307, Note_off_c, 0, 74, 0
2, 96787, Note_on_c, 0, 74, 63
2, 96817, Note_off_c, 0, 71, 0
2, 97292, Note_on_c, 0, 78, 64
2, 97322, Note_off_c, 0, 74, 0
2, 97796, Note_off_c, 0, 47, 0
2, 97796, Note_off_c, 0, 54, 0
2, 97797, Note_on_c, 0, 74, 63
2, 97797, Note_on_c, 0, 47, 67
2, 97797, Note_on_c, 0, 54, 81
2, 97827, Note_off_c, 0, 78, 0
2, 98273, Note_off_c, 0, 47, 0
2, 98303, Note_off_c, 0, 54, 0
2, 98308, Note_on_c, 0, 69, 68
2, 98308, Note_on_c, 0, 50, 72
2, 98308, Note_on_c, 0, 57, 86
2, 98334, Note_off_c, 0, 74, 0
2, 98850, Note_on_c, 0, 74, 63
2, 98880, Note_off_c, 0, 69, 0
2, 99358, Note_on_c, 0, 78, 64
2, 99388, Note_off_c, 0, 74, 0
2, 99862, Note_off_c, 0, 50, 0
2, 99862, Note_off_c, 0, 57, 0
2, 99863, Note_on_c, 0, 74, 63
2, 99863, Note_on_c, 0, 50, 67
2, 99863, Note_on_c, 0, 57, 81
2, 99893, Note_off_c, 0, 78, 0
2, 100342, Note_off_c, 0, 50, 0
2, 100372, Note_off_c, 0, 57, 0
2, 100373, Note_on_c, 0, 71, 66
2, 100373, Note_on_c, 0, 47, 70
2, 100373, Note_on_c, 0, 54, 84
2, 100403, Note_off_c, 0, 74, 0
2, 100883, Note_on_c, 0, 74, 63
2, 100913, Note_off_c, 0, 71, 0
2, 101388, Note_on_c, 0, 78, 64
2, 101418, Note_off_c, 0, 74, 0
2, 101892, Note_off_c, 0, 47, 0
2, 101892, Note_off_c, 0, 54, 0
2, 101893, Note_on_c, 0, 74, 63
2, 101893, Note_on_c, 0, 47, 67
2, 101893, Note_on_c, 0, 54, 81
2, 101923, Note_off_c, 0, 78, 0
2, 102369, Note_off_c, 0, 47, 0
2, 102399, Note_off_c, 0, 54, 0
2, 102404, Note_on_c, 0, 69, 68
2, 102404, Note_on_c, 0, 50, 72
2, 102404, Note_on_c, 0, 57, 86
2, 102430, Note_off_c, 0, 74, 0
2, 102946, Note_on_c, 0, 74, 63
2, 102976, Note_off_c, 0, 69, 0
2, 103454, Note_on_c, 0, 78, 64
2, 103484, Note_off_c, 0, 74, 0
2, 103958, Note_off_c, 0, 50, 0
2, 103958, Note_off_c, 0, 57, 0
2, 103959, Note_on_c, 0, 74, 63
2, 103959, Note_on_c, 0, 50, 67
2, 103959, Note_on_c, 0, 57, 81
2, 103989, Note_off_c, 0, 78, 0
2, 104438, Note_off_c, 0, 50, 0
2, 104468, Note_off_c, 0, 57, 0
2, 104469, Note_on_c, 0, 71, 66
2, 104469, Note_on_c, 0, 47, 70
2, 104469, Note_on_c, 0, 54, 84
2, 104499, Note_off_c, 0, 74, 0
2, 104979, Note_on_c, 0, 74, 63
2, 105009, Note_off_c, 0, 71, 0
2, 105484, Note_on_c, 0, 78, 64
2, 105514, Note_off_c, 0, 74, 0
2, 105988, Note_off_c, 0, 47, 0
2, 105988, Note_off_c, 0, 54, 0
2, 105989, Note_on_c, 0, 74, 63
2, 105989, Note_on_c, 0, 47, 67
2, 105989, Note_on_c, 0, 54, 81
2, 106019, Note_off_c, 0, 78, 0
2, 106465, Note_off_c, 0, 47, 0
2, 106495, Note_off_c, 0, 54, 0
2, 106500, Note_on_c, 0, 69, 68
2, 106500, Note_on_c, 0, 50, 72
2, 106500, Note_on_c, 0, 57, 86
2, 106526, Note_off_c, 0, 74, 0
2, 107042, Note_on_c, 0, 74, 63
2, 107072, Note_off_c, 0, 69, 0
2, 107550, Note_on_c, 0, 78, 64
2, 107580, Note_off_c, 0, 74, 0
2, 108054, Note_off_c, 0, 50, 0
2, 108054, Note_off_c, 0, 57, 0
2, 108055, Note_on_c, 0, 69, 63
2, 108055, Note_on_c, 0, 50, 67
2, 108055, Note_on_c, 0, 57, 81
2, 108085, Note_off_c, 0, 78, 0
2, 108534, Note_off_c, 0, 50, 0
2, 108564, Note_off_c, 0, 57, 0
2, 108565, Note_on_c, 0, 79, 66
2, 108565, Note_on_c, 0, 47, 70
2, 108565, Note_on_c, 0, 54, 84
2, 108595, Note_off_c, 0, 69, 0
2, 109075, Note_on_c, 0, 78, 63
2, 109105, Note_off_c, 0, 79, 0
2, 109580, Note_on_c, 0, 76, 64
2, 109610, Note_off_c, 0, 78, 0
2, 110084, Note_off_c, 0, 76, 0
2, 110084, Note_off_c, 0, 47, 0
2, 110084, Note_off_c, 0, 54, 0
2, 110085, Note_on_c, 0, 76, 63
2, 110085, Note_on_c, 0, 47, 67
2, 110085, Note_on_c, 0, 54, 77
2, 110561, Note_off_c, 0, 47, 0
2, 110591, Note_off_c, 0, 54, 0
2, 110596, Note_on_c, 0, 50, 80
2, 110596, Note_on_c, 0, 57, 68
2, 111138, Note_on_c, 0, 78, 75
2, 111138, Note_on_c, 0, 62, 63
2, 111168, Note_off_c, 0, 76, 0
2, 111168, Note_off_c, 0, 57, 0
2, 111646, Note_on_c, 0, 66, 64
2, 111676, Note_off_c, 0, 62, 0
2, 112150, Note_off_c, 0, 78, 0
2, 112151, Note_on_c, 0, 62, 63
2, 112181, Note_off_c, 0, 66, 0
2, 112353, Control_c, 0, 7, 110
2, 112660, Note_off_c, 0, 50, 0
2, 112661, Note_on_c, 0, 54, 78
2, 112661, Note_on_c, 0, 59, 66
2, 112691, Note_off_c, 0, 62, 0
2, 113171, Note_on_c, 0, 62, 63
2, 113201, Note_off_c, 0, 59, 0
2, 113676, Note_on_c, 0, 66, 64
2, 113706, Note_off_c, 0, 62, 0
2, 114181, Note_on_c, 0, 62, 63
2, 114211, Note_off_c, 0, 66, 0
2, 114687, Note_off_c, 0, 54, 0
2, 114692, Note_on_c, 0, 50, 80
2, 114692, Note_on_c, 0, 57, 68
2, 114718, Note_off_c, 0, 62, 0
2, 115234, Note_on_c, 0, 62, 63
2, 115264, Note_off_c, 0, 57, 0
2, 115742, Note_on_c, 0, 66, 64
2, 115772, Note_off_c, 0, 62, 0
2, 116247, Note_on_c, 0, 62, 63
2, 116277, Note_off_c, 0, 66, 0
2, 116756, Note_off_c, 0, 50, 0
2, 116757, Note_on_c, 0, 79, 78
2, 116757, Note_on_c, 0, 54, 78
2, 116757, Note_on_c, 0, 59, 66
2, 116787, Note_off_c, 0, 62, 0
2, 117236, Note_off_c, 0, 79, 0
2, 117267, Note_on_c, 0, 78, 75
2, 117267, Note_on_c, 0, 62, 63
2, 117297, Note_off_c, 0, 59, 0
2, 117741, Note_off_c, 0, 78, 0
2, 117772, Note_on_c, 0, 76, 76
2, 117772, Note_on_c, 0, 66, 64
2, 117802, Note_off_c, 0, 62, 0
2, 118276, Note_off_c, 0, 76, 0
2, 118277, Note_on_c, 0, 76, 75
2, 118277, Note_on_c, 0, 62, 63
2, 118307, Note_off_c, 0, 66, 0
2, 118783, Note_off_c, 0, 54, 0
2, 118788, Note_on_c, 0, 50, 80
2, 118788, Note_on_c, 0, 57, 68
2, 118814, Note_off_c, 0, 62, 0
2, 119330, Note_on_c, 0, 62, 63
2, 119360, Note_off_c, 0, 57, 0
2, 119837, Note_off_c, 0, 76, 0
2, 119838, Note_on_c, 0, 78, 76
2, 119838, Note_on_c, 0, 66, 64
2, 119868, Note_off_c, 0, 62, 0
2, 120312, Note_off_c, 0, 78, 0
2, 120343, Note_on_c, 0, 74, 75
2, 120343, Note_on_c, 0, 62, 63
2, 120373, Note_off_c, 0, 66, 0
2, 120852, Note_off_c, 0, 50, 0
2, 120853, Note_on_c, 0, 54, 78
2, 120853, Note_on_c, 0, 59, 66
2, 120883, Note_off_c, 0, 62, 0
2, 121362, Note_off_c, 0, 74, 0
2, 121363, Note_on_c, 0, 76, 75
2, 121363, Note_on_c, 0, 62, 63
2, 121393, Note_off_c, 0, 59, 0
2, 121868, Note_on_c, 0, 66, 64
2, 121898, Note_off_c, 0, 62, 0
2, 122372, Note_off_c, 0, 76, 0
2, 122373, Note_on_c, 0, 69, 75
2, 122373, Note_on_c, 0, 62, 63
2, 122403, Note_off_c, 0, 66, 0
2, 122879, Note_off_c, 0, 54, 0
2, 122884, Note_on_c, 0, 50, 80
2, 122884, Note_on_c, 0, 57, 68
2, 122910, Note_off_c, 0, 62, 0
2, 123426, Note_on_c, 0, 62, 63
2, 123456, Note_off_c, 0, 57, 0
2, 123933, Note_off_c, 0, 69, 0
2, 123934, Note_on_c, 0, 66, 64
2, 123964, Note_off_c, 0, 62, 0
2, 124439, Note_on_c, 0, 62, 63
2, 124469, Note_off_c, 0, 66, 0
2, 124948, Note_off_c, 0, 50, 0
2, 124949, Note_on_c, 0, 54, 78
2, 124949, Note_on_c, 0, 59, 66
2, 124979, Note_off_c, 0, 62, 0
2, 125459, Note_on_c, 0, 62, 63
2, 125489, Note_off_c, 0, 59, 0
2, 125964, Note_on_c, 0, 66, 64
2, 125994, Note_off_c, 0, 62, 0
2, 126469, Note_on_c, 0, 62, 63
2, 126499, Note_off_c, 0, 66, 0
2, 126975, Note_off_c, 0, 54, 0
2, 126980, Note_on_c, 0, 76, 80
2, 126980, Note_on_c, 0, 52, 80
2, 126980, Note_on_c, 0, 59, 68
2, 127006, Note_off_c, 0, 62, 0
2, 127522, Note_on_c, 0, 64, 63
2, 127552, Note_off_c, 0, 59, 0
2, 128029, Note_off_c, 0, 76, 0
2, 128030, Note_on_c, 0, 78, 76
2, 128030, Note_on_c, 0, 67, 64
2, 128060, Note_off_c, 0, 64, 0
2, 128504, Note_off_c, 0, 78, 0
2, 128535, Note_on_c, 0, 79, 75
2, 128535, Note_on_c, 0, 64, 63
2, 128565, Note_off_c, 0, 67, 0
2, 129044, Note_off_c, 0, 52, 0
2, 129045, Note_on_c, 0, 52, 78
2, 129045, Note_on_c, 0, 59, 66
2, 129075, Note_off_c, 0, 64, 0
2, 129555, Note_on_c, 0, 64, 63
2, 129585, Note_off_c, 0, 59, 0
2, 130059, Note_off_c, 0, 79, 0
2, 130060, Note_on_c, 0, 76, 76
2, 130060, Note_on_c, 0, 67, 64
2, 130090, Note_off_c, 0, 64, 0
2, 130565, Note_on_c, 0, 64, 63
2, 130595, Note_off_c, 0, 67, 0
2, 131071, Note_off_c, 0, 76, 0
2, 131071, Note_off_c, 0, 52, 0
2, 131076, Note_on_c, 0, 73, 80
2, 131076, Note_on_c, 0, 52, 80
2, 131076, Note_on_c, 0, 57, 68
2, 131102, Note_off_c, 0, 64, 0
2, 131618, Note_on_c, 0, 64, 63
2, 131648, Note_off_c, 0, 57, 0
2, 132125, Note_off_c, 0, 73, 0
2, 132126, Note_on_c, 0, 74, 76
2, 132126, Note_on_c, 0, 67, 64
2, 132156, Note_off_c, 0, 64, 0
2, 132600, Note_off_c, 0, 74, 0
2, 132631, Note_on_c, 0, 76, 75
2, 132631, Note_on_c, 0, 64, 63
2, 132661, Note_off_c, 0, 67, 0
2, 133140, Note_off_c, 0, 52, 0
2, 133141, Note_on_c, 0, 52, 78
2, 133141, Note_on_c, 0, 57, 66
2, 133171, Note_off_c, 0, 64, 0
2, 133651, Note_on_c, 0, 64, 63
2, 133681, Note_off_c, 0, 57, 0
2, 134155, Note_off_c, 0, 76, 0
2, 134156, Note_on_c, 0, 69, 64
2, 134156, Note_on_c, 0, 67, 64
2, 134186, Note_off_c, 0, 64, 0
2, 134660, Note_off_c, 0, 69, 0
2, 134661, Note_on_c, 0, 69, 63
2, 134661, Note_on_c, 0, 64, 63
2, 134691, Note_off_c, 0, 67, 0
2, 135167, Note_off_c, 0, 52, 0
2, 135172, Note_on_c, 0, 50, 80
2, 135172, Note_on_c, 0, 57, 68
2, 135198, Note_off_c, 0, 64, 0
2, 135714, Note_on_c, 0, 78, 75
2, 135714, Note_on_c, 0, 62, 63
2, 135744, Note_off_c, 0, 69, 0
2, 135744, Note_off_c, 0, 57, 0
2, 136222, Note_on_c, 0, 66, 64
2, 136252, Note_off_c, 0, 62, 0
2, 136726, Note_off_c, 0, 78, 0
2, 136727, Note_on_c, 0, 62, 63
2, 136757, Note_off_c, 0, 66, 0
2, 137236, Note_off_c, 0, 50, 0
2, 137237, Note_on_c, 0, 54, 78
2, 137237, Note_on_c, 0, 59, 66
2, 137267, Note_off_c, 0, 62, 0
2, 137747, Note_on_c, 0, 62, 63
2, 137777, Note_off_c, 0, 59, 0
2, 138252, Note_on_c, 0, 66, 64
2, 138282, Note_off_c, 0, 62, 0
2, 138757, Note_on_c, 0, 62, 63
2, 138787, Note_off_c, 0, 66, 0
2, 139263, Note_off_c, 0, 54, 0
2, 139268, Note_on_c, 0, 50, 80
2, 139268, Note_on_c, 0, 57, 68
2, 139294, Note_off_c, 0, 62, 0
2, 139810, Note_on_c, 0, 62, 63
2, 139840, Note_off_c, 0, 57, 0
2, 140318, Note_on_c, 0, 66, 64
2, 140348, Note_off_c, 0, 62, 0
2, 140823, Note_on_c, 0, 69, 75
2, 140823, Note_on_c, 0, 62, 63
2, 140853, Note_off_c, 0, 66, 0
2, 141302, Note_off_c, 0, 69, 0
2, 141332, Note_off_c, 0, 50, 0
2, 141333, Note_on_c, 0, 71, 70
2, 141333, Note_on_c, 0, 79, 84
2, 141333, Note_on_c, 0, 54, 78
2, 141333, Note_on_c, 0, 59, 66
2, 141363, Note_off_c, 0, 62, 0
2, 141812, Note_off_c, 0, 71, 0
2, 141842, Note_off_c, 0, 79, 0
2, 141843, Note_on_c, 0, 69, 67
2, 141843, Note_on_c, 0, 78, 81
2, 141843, Note_on_c, 0, 62, 63
2, 141873, Note_off_c, 0, 59, 0
2, 142317, Note_off_c, 0, 69, 0
2, 142347, Note_off_c, 0, 78, 0
2, 142348, Note_on_c, 0, 67, 68
2, 142348, Note_on_c, 0, 76, 82
2, 142348, Note_on_c, 0, 66, 64
2, 142378, Note_off_c, 0, 62, 0
2, 142852, Note_off_c, 0, 67, 0
2, 142852, Note_off_c, 0, 76, 0
2, 142853, Note_on_c, 0, 67, 67
2, 142853, Note_on_c, 0, 76, 81
2, 142853, Note_on_c, 0, 62, 63
2, 142883, Note_off_c, 0, 66, 0
2, 143329, Note_off_c, 0, 67, 0
2, 143359, Note_off_c, 0, 76, 0
2, 143359, Note_off_c, 0, 54, 0
2, 143364, Note_on_c, 0, 69, 72
2, 143364, Note_on_c, 0, 78, 86
2, 143364, Note_on_c, 0, 50, 80
2, 143364, Note_on_c, 0, 57, 68
2, 143390, Note_off_c, 0, 62, 0
2, 143906, Note_on_c, 0, 62, 63
2, 143936, Note_off_c, 0, 57, 0
2, 144413, Note_off_c, 0, 69, 0
2, 144413, Note_off_c, 0, 78, 0
2, 144414, Note_on_c, 0, 66, 64
2, 144444, Note_off_c, 0, 62, 0
2, 144919, Note_on_c, 0, 62, 63
2, 144949, Note_off_c, 0, 66, 0
2, 145428, Note_off_c, 0, 50, 0
2, 145429, Note_on_c, 0, 54, 78
2, 145429, Note_on_c, 0, 59, 66
2, 145459, Note_off_c, 0, 62, 0
2, 145939, Note_on_c, 0, 62, 63
2, 145969, Note_off_c, 0, 59, 0
2, 146444, Note_on_c, 0, 66, 64
2, 146474, Note_off_c, 0, 62, 0
2, 146949, Note_on_c, 0, 62, 63
2, 146979, Note_off_c, 0, 66, 0
2, 147455, Note_off_c, 0, 54, 0
2, 147460, Note_on_c, 0, 50, 80
2, 147460, Note_on_c, 0, 57, 68
2, 147486, Note_off_c, 0, 62, 0
2, 148002, Note_on_c, 0, 62, 63
2, 148032, Note_off_c, 0, 57, 0
2, 148510, Note_on_c, 0, 66, 64
2, 148540, Note_off_c, 0, 62, 0
2, 149015, Note_on_c, 0, 69, 75
2, 149015, Note_on_c, 0, 62, 63
2, 149045, Note_off_c, 0, 66, 0
2, 149494, Note_off_c, 0, 69, 0
2, 149524, Note_off_c, 0, 50, 0
2, 149525, Note_on_c, 0, 71, 70
2, 149525, Note_on_c, 0, 79, 84
2, 149525, Note_on_c, 0, 54, 78
2, 149525, Note_on_c, 0, 59, 66
2, 149555, Note_off_c, 0, 62, 0
2, 150004, Note_off_c, 0, 71, 0
2, 150034, Note_off_c, 0, 79, 0
2, 150035, Note_on_c, 0, 69, 67
2, 150035, Note_on_c, 0, 78, 81
2, 150035, Note_on_c, 0, 62, 63
2, 150065, Note_off_c, 0, 59, 0
2, 150509, Note_off_c, 0, 69, 0
2, 150539, Note_off_c, 0, 78, 0
2, 150540, Note_on_c, 0, 67, 68
2, 150540, Note_on_c, 0, 76, 82
2, 150540, Note_on_c, 0, 66, 64
2, 150570, Note_off_c, 0, 62, 0
2, 151044, Note_off_c, 0, 67, 0
2, 151044, Note_off_c, 0, 76, 0
2, 151045, Note_on_c, 0, 67, 67
2, 151045, Note_on_c, 0, 76, 81
2, 151045, Note_on_c, 0, 62, 63
2, 151075, Note_off_c, 0, 66, 0
2, 151521, Note_off_c, 0, 67, 0
2, 151551, Note_off_c, 0, 76, 0
2, 151551, Note_off_c, 0, 54, 0
2, 151556, Note_on_c, 0, 50, 80
2, 151556, Note_on_c, 0, 57, 68
2, 151582, Note_off_c, 0, 62, 0
2, 152098, Note_on_c, 0, 62, 63
2, 152128, Note_off_c, 0, 57, 0
2, 152606, Note_on_c, 0, 69, 68
2, 152606, Note_on_c, 0, 78, 82
2, 152606, Note_on_c, 0, 66, 64
2, 152636, Note_off_c, 0, 62, 0
2, 153080, Note_off_c, 0, 69, 0
2, 153110, Note_off_c, 0, 78, 0
2, 153111, Note_on_c, 0, 66, 67
2, 153111, Note_on_c, 0, 74, 81
2, 153111, Note_on_c, 0, 62, 63
2, 153141, Note_off_c, 0, 66, 0
2, 153590, Note_off_c, 0, 66, 0
2, 153620, Note_off_c, 0, 74, 0
2, 153620, Note_off_c, 0, 50, 0
2, 153621, Note_on_c, 0, 54, 78
2, 153621, Note_on_c, 0, 59, 66
2, 153651, Note_off_c, 0, 62, 0
2, 154131, Note_on_c, 0, 62, 63
2, 154161, Note_off_c, 0, 59, 0
2, 154636, Note_on_c, 0, 67, 68
2, 154636, Note_on_c, 0, 76, 82
2, 154636, Note_on_c, 0, 66, 64
2, 154666, Note_off_c, 0, 62, 0
2, 155110, Note_off_c, 0, 67, 0
2, 155140, Note_off_c, 0, 76, 0
2, 155141, Note_on_c, 0, 69, 75
2, 155141, Note_on_c, 0, 62, 63
2, 155171, Note_off_c, 0, 66, 0
2, 155617, Note_off_c, 0, 69, 0
2, 155647, Note_off_c, 0, 54, 0
2, 155652, Note_on_c, 0, 50, 80
2, 155652, Note_on_c, 0, 57, 68
2, 155678, Note_off_c, 0, 62, 0
2, 156194, Note_on_c, 0, 62, 63
2, 156224, Note_off_c, 0, 57, 0
2, 156702, Note_on_c, 0, 66, 64
2, 156732, Note_off_c, 0, 62, 0
2, 157207, Note_on_c, 0, 62, 63
2, 157237, Note_off_c, 0, 66, 0
2, 157716, Note_off_c, 0, 50, 0
2, 157717, Note_on_c, 0, 54, 78
2, 157717, Note_on_c, 0, 59, 66
2, 157747, Note_off_c, 0, 62, 0
2, 158227, Note_on_c, 0, 62, 63
2, 158257, Note_off_c, 0, 59, 0
2, 158732, Note_on_c, 0, 66, 64
2, 158762, Note_off_c, 0, 62, 0
2, 159237, Note_on_c, 0, 62, 63
2, 159267, Note_off_c, 0, 66, 0
2, 159743, Note_off_c, 0, 54, 0
2, 159748, Note_on_c, 0, 76, 80
2, 159748, Note_on_c, 0, 52, 80
2, 159748, Note_on_c, 0, 59, 68
2, 159774, Note_off_c, 0, 62, 0
2, 160290, Note_on_c, 0, 64, 63
2, 160320, Note_off_c, 0, 59, 0
2, 160797, Note_off_c, 0, 76, 0
2, 160798, Note_on_c, 0, 78, 76
2, 160798, Note_on_c, 0, 67, 64
2, 160828, Note_off_c, 0, 64, 0
2, 161272, Note_off_c, 0, 78, 0
2, 161303, Note_on_c, 0, 79, 75
2, 161303, Note_on_c, 0, 64, 63
2, 161333, Note_off_c, 0, 67, 0
2, 161812, Note_off_c, 0, 52, 0
2, 161813, Note_on_c, 0, 52, 78
2, 161813, Note_on_c, 0, 59, 66
2, 161843, Note_off_c, 0, 64, 0
2, 162323, Note_on_c, 0, 64, 63
2, 162353, Note_off_c, 0, 59, 0
2, 162827, Note_off_c, 0, 79, 0
2, 162828, Note_on_c, 0, 76, 76
2, 162828, Note_on_c, 0, 67, 64
2, 162858, Note_off_c, 0, 64, 0
2, 163333, Note_on_c, 0, 64, 63
2, 163363, Note_off_c, 0, 67, 0
2, 163839, Note_off_c, 0, 76, 0
2, 163839, Note_off_c, 0, 52, 0
2, 163844, Note_on_c, 0, 73, 80
2, 163844, Note_on_c, 0, 52, 80
2, 163844, Note_on_c, 0, 57, 68
2, 163870, Note_off_c, 0, 64, 0
2, 164386, Note_on_c, 0, 64, 63
2, 164416, Note_off_c, 0, 57, 0
2, 164893, Note_off_c, 0, 73, 0
2, 164894, Note_on_c, 0, 74, 76
2, 164894, Note_on_c, 0, 67, 64
2, 164924, Note_off_c, 0, 64, 0
2, 165368, Note_off_c, 0, 74, 0
2, 165399, Note_on_c, 0, 76, 75
2, 165399, Note_on_c, 0, 64, 63
2, 165429, Note_off_c, 0, 67, 0
2, 165878, Note_off_c, 0, 76, 0
2, 165908, Note_off_c, 0, 52, 0
2, 165909, Note_on_c, 0, 52, 78
2, 165909, Note_on_c, 0, 57, 66
2, 165939, Note_off_c, 0, 64, 0
2, 166419, Note_on_c, 0, 69, 75
2, 166419, Note_on_c, 0, 64, 63
2, 166449, Note_off_c, 0, 57, 0
2, 166893, Note_off_c, 0, 69, 0
2, 166924, Note_on_c, 0, 74, 76
2, 166924, Note_on_c, 0, 67, 64
2, 166954, Note_off_c, 0, 64, 0
2, 167398, Note_off_c, 0, 74, 0
2, 167429, Note_on_c, 0, 76, 75
2, 167429, Note_on_c, 0, 64, 63
2, 167459, Note_off_c, 0, 67, 0
2, 167905, Note_off_c, 0, 76, 0
2, 167935, Note_off_c, 0, 52, 0
2, 167940, Note_on_c, 0, 77, 80
2, 167940, Note_on_c, 0, 50, 72
2, 167940, Note_on_c, 0, 53, 72
2, 167940, Note_on_c, 0, 58, 82
2, 167966, Note_off_c, 0, 64, 0
2, 168451, Note_off_c, 0, 77, 0
2, 168482, Note_on_c, 0, 76, 76
2, 168959, Note_off_c, 0, 76, 0
2, 168989, Note_off_c, 0, 50, 0
2, 168989, Note_off_c, 0, 53, 0
2, 168989, Note_off_c, 0, 58, 0
2, 168990, Note_on_c, 0, 74, 77
2, 168990, Note_on_c, 0, 50, 72
2, 168990, Note_on_c, 0, 53, 72
2, 168990, Note_on_c, 0, 58, 82
2, 169464, Note_off_c, 0, 74, 0
2, 169495, Note_on_c, 0, 72, 79
2, 169974, Note_off_c, 0, 72, 0
2, 170004, Note_off_c, 0, 50, 0
2, 170004, Note_off_c, 0, 53, 0
2, 170004, Note_off_c, 0, 58, 0
2, 170005, Note_on_c, 0, 50, 67
2, 170005, Note_on_c, 0, 53, 67
2, 170005, Note_on_c, 0, 58, 77
2, 170514, Note_off_c, 0, 50, 0
2, 170514, Note_off_c, 0, 53, 0
2, 170514, Note_off_c, 0, 58, 0
2, 170515, Note_on_c, 0, 50, 70
2, 170515, Note_on_c, 0, 53, 70
2, 170515, Note_on_c, 0, 58, 80
2, 171019, Note_off_c, 0, 50, 0
2, 171019, Note_off_c, 0, 53, 0
2, 171019, Note_off_c, 0, 58, 0
2, 171020, Note_on_c, 0, 69, 84
2, 171020, Note_on_c, 0, 50, 74
2, 171020, Note_on_c, 0, 53, 74
2, 171020, Note_on_c, 0, 58, 84
2, 171494, Note_off_c, 0, 69, 0
2, 171524, Note_off_c, 0, 50, 0
2, 171524, Note_off_c, 0, 53, 0
2, 171524, Note_off_c, 0, 58, 0
2, 171525, Note_on_c, 0, 70, 86
2, 171525, Note_on_c, 0, 50, 77
2, 171525, Note_on_c, 0, 53, 77
2, 171525, Note_on_c, 0, 58, 91
2, 172001, Note_off_c, 0, 70, 0
2, 172031, Note_off_c, 0, 58, 0
2, 172036, Note_on_c, 0, 72, 93
2, 172036, Note_on_c, 0, 45, 85
2, 172036, Note_on_c, 0, 48, 85
2, 172036, Note_on_c, 0, 53, 99
2, 172062, Note_off_c, 0, 50, 0
2, 172062, Note_off_c, 0, 53, 0
2, 173085, Note_off_c, 0, 72, 0
2, 173086, Note_on_c, 0, 77, 89
2, 173590, Note_off_c, 0, 45, 0
2, 173590, Note_off_c, 0, 48, 0
2, 173590, Note_off_c, 0, 53, 0
2, 173591, Note_on_c, 0, 45, 80
2, 173591, Note_on_c, 0, 48, 80
2, 173591, Note_on_c, 0, 53, 94
2, 174070, Note_off_c, 0, 45, 0
2, 174070, Note_off_c, 0, 48, 0
2, 174100, Note_off_c, 0, 77, 0
2, 174100, Note_off_c, 0, 53, 0
2, 174101, Note_on_c, 0, 76, 91
2, 174101, Note_on_c, 0, 52, 83
2, 174101, Note_on_c, 0, 55, 83
2, 174101, Note_on_c, 0, 60, 97
2, 174580, Note_off_c, 0, 76, 0
2, 174611, Note_on_c, 0, 74, 88
2, 175115, Note_off_c, 0, 74, 0
2, 175116, Note_on_c, 0, 74, 89
2, 175590, Note_off_c, 0, 74, 0
2, 175620, Note_off_c, 0, 52, 0
2, 175620, Note_off_c, 0, 55, 0
2, 175620, Note_off_c, 0, 60, 0
2, 175621, Note_on_c, 0, 72, 88
2, 175621, Note_on_c, 0, 52, 80
2, 175621, Note_on_c, 0, 55, 80
2, 175621, Note_on_c, 0, 60, 94
2, 176097, Note_off_c, 0, 72, 0
2, 176097, Note_off_c, 0, 52, 0
2, 176097, Note_off_c, 0, 55, 0
2, 176127, Note_off_c, 0, 60, 0
2, 176132, Note_on_c, 0, 74, 93
2, 176132, Note_on_c, 0, 50, 85
2, 176132, Note_on_c, 0, 53, 85
2, 176132, Note_on_c, 0, 58, 99
2, 176643, Note_off_c, 0, 74, 0
2, 176674, Note_on_c, 0, 72, 88
2, 177181, Note_off_c, 0, 72, 0
2, 177182, Note_on_c, 0, 72, 89
2, 177686, Note_off_c, 0, 50, 0
2, 177686, Note_off_c, 0, 53, 0
2, 177686, Note_off_c, 0, 58, 0
2, 177687, Note_on_c, 0, 50, 80
2, 177687, Note_on_c, 0, 53, 80
2, 177687, Note_on_c, 0, 58, 94
2, 178166, Note_off_c, 0, 50, 0
2, 178166, Note_off_c, 0, 53, 0
2, 178196, Note_off_c, 0, 72, 0
2, 178196, Note_off_c, 0, 58, 0
2, 178197, Note_on_c, 0, 72, 91
2, 178197, Note_on_c, 0, 45, 83
2, 178197, Note_on_c, 0, 48, 83
2, 178197, Note_on_c, 0, 53, 97
2, 179211, Note_off_c, 0, 72, 0
2, 179212, Note_on_c, 0, 69, 89
2, 179686, Note_off_c, 0, 69, 0
2, 179716, Note_off_c, 0, 45, 0
2, 179716, Note_off_c, 0, 48, 0
2, 179716, Note_off_c, 0, 53, 0
2, 179717, Note_on_c, 0, 70, 88
2, 179717, Note_on_c, 0, 45, 80
2, 179717, Note_on_c, 0, 48, 80
2, 179717, Note_on_c, 0, 53, 90
2, 180193, Note_off_c, 0, 70, 0
2, 180223, Note_off_c, 0, 45, 0
2, 180223, Note_off_c, 0, 48, 0
2, 180223, Note_off_c, 0, 53, 0
2, 180228, Note_on_c, 0, 72, 93
2, 180228, Note_on_c, 0, 45, 85
2, 180228, Note_on_c, 0, 48, 85
2, 180228, Note_on_c, 0, 53, 95
2, 181277, Note_off_c, 0, 72, 0
2, 181278, Note_on_c, 0, 77, 89
2, 181782, Note_off_c, 0, 45, 0
2, 181782, Note_off_c, 0, 48, 0
2, 181782, Note_off_c, 0, 53, 0
2, 181783, Note_on_c, 0, 45, 80
2, 181783, Note_on_c, 0, 48, 80
2, 181783, Note_on_c, 0, 53, 94
2, 182262, Note_off_c, 0, 45, 0
2, 182262, Note_off_c, 0, 48, 0
2, 182292, Note_off_c, 0, 77, 0
2, 182292, Note_off_c, 0, 53, 0
2, 182293, Note_on_c, 0, 79, 91
2, 182293, Note_on_c, 0, 52, 83
2, 182293, Note_on_c, 0, 55, 83
2, 182293, Note_on_c, 0, 60, 97
2, 182772, Note_off_c, 0, 79, 0
2, 182803, Note_on_c, 0, 77, 88
2, 183277, Note_off_c, 0, 77, 0
2, 183308, Note_on_c, 0, 76, 89
2, 183782, Note_off_c, 0, 76, 0
2, 183812, Note_off_c, 0, 52, 0
2, 183812, Note_off_c, 0, 55, 0
2, 183812, Note_off_c, 0, 60, 0
2, 183813, Note_on_c, 0, 74, 88
2, 183813, Note_on_c, 0, 52, 80
2, 183813, Note_on_c, 0, 55, 80
2, 183813, Note_on_c, 0, 60, 94
2, 184289, Note_off_c, 0, 52, 0
2, 184289, Note_off_c, 0, 55, 0
2, 184319, Note_off_c, 0, 74, 0
2, 184319, Note_off_c, 0, 60, 0
2, 184324, Note_on_c, 0, 74, 93
2, 184324, Note_on_c, 0, 50, 85
2, 184324, Note_on_c, 0, 53, 85
2, 184324, Note_on_c, 0, 58, 99
2, 184835, Note_off_c, 0, 74, 0
2, 184866, Note_on_c, 0, 76, 88
2, 185343, Note_off_c, 0, 76, 0
2, 185374, Note_on_c, 0, 77, 89
2, 185878, Note_off_c, 0, 50, 0
2, 185878, Note_off_c, 0, 53, 0
2, 185878, Note_off_c, 0, 58, 0
2, 185879, Note_on_c, 0, 50, 80
2, 185879, Note_on_c, 0, 53, 80
2, 185879, Note_on_c, 0, 58, 94
2, 186358, Note_off_c, 0, 50, 0
2, 186358, Note_off_c, 0, 53, 0
2, 186388, Note_off_c, 0, 77, 0
2, 186388, Note_off_c, 0, 58, 0
2, 186389, Note_on_c, 0, 77, 91
2, 186389, Note_on_c, 0, 45, 83
2, 186389, Note_on_c, 0, 48, 83
2, 186389, Note_on_c, 0, 53, 97
2, 187403, Note_off_c, 0, 77, 0
2, 187404, Note_on_c, 0, 79, 89
2, 187878, Note_off_c, 0, 79, 0
2, 187908, Note_off_c, 0, 45, 0
2, 187908, Note_off_c, 0, 48, 0
2, 187908, Note_off_c, 0, 53, 0
2, 187909, Note_on_c, 0, 81, 88
2, 187909, Note_on_c, 0, 45, 80
2, 187909, Note_on_c, 0, 48, 80
2, 187909, Note_on_c, 0, 53, 94
2, 188385, Note_off_c, 0, 81, 0
2, 188385, Note_off_c, 0, 45, 0
2, 188385, Note_off_c, 0, 48, 0
2, 188415, Note_off_c, 0, 53, 0
2, 188420, Note_on_c, 0, 82, 93
2, 188420, Note_on_c, 0, 50, 85
2, 188420, Note_on_c, 0, 53, 85
2, 188420, Note_on_c, 0, 58, 99
2, 188961, Note_off_c, 0, 82, 0
2, 188962, Note_on_c, 0, 82, 88
2, 189439, Note_off_c, 0, 82, 0
2, 189470, Note_on_c, 0, 81, 89
2, 190484, Note_off_c, 0, 81, 0
2, 190484, Note_off_c, 0, 50, 0
2, 190484, Note_off_c, 0, 53, 0
2, 190484, Note_off_c, 0, 58, 0
2, 190485, Note_on_c, 0, 79, 91
2, 190485, Note_on_c, 0, 52, 83
2, 190485, Note_on_c, 0, 55, 83
2, 190485, Note_on_c, 0, 60, 97
2, 191499, Note_off_c, 0, 79, 0
2, 191499, Note_off_c, 0, 52, 0
2, 191499, Note_off_c, 0, 55, 0
2, 191499, Note_off_c, 0, 60, 0
2, 191500, Note_on_c, 0, 77, 89
2, 191500, Note_on_c, 0, 52, 81
2, 191500, Note_on_c, 0, 55, 81
2, 191500, Note_on_c, 0, 60, 95
2, 191974, Note_off_c, 0, 77, 0
2, 192005, Note_on_c, 0, 79, 88
2, 192481, Note_off_c, 0, 79, 0
2, 192511, Note_off_c, 0, 52, 0
2, 192511, Note_off_c, 0, 55, 0
2, 192511, Note_off_c, 0, 60, 0
2, 192516, Note_on_c, 0, 81, 93
2, 192516, Note_on_c, 0, 57, 85
2, 192516, Note_on_c, 0, 60, 85
2, 192516, Note_on_c, 0, 65, 99
2, 193057, Note_off_c, 0, 81, 0
2, 193058, Note_on_c, 0, 81, 88
2, 193535, Note_off_c, 0, 81, 0
2, 193565, Note_off_c, 0, 57, 0
2, 193565, Note_off_c, 0, 60, 0
2, 193565, Note_off_c, 0, 65, 0
2, 193566, Note_on_c, 0, 79, 89
2, 193566, Note_on_c, 0, 55, 81
2, 193566, Note_on_c, 0, 60, 81
2, 193566, Note_on_c, 0, 64, 95
2, 194040, Note_off_c, 0, 79, 0
2, 194071, Note_on_c, 0, 77, 88
2, 194580, Note_off_c, 0, 77, 0
2, 194580, Note_off_c, 0, 55, 0
2, 194580, Note_off_c, 0, 60, 0
2, 194580, Note_off_c, 0, 64, 0
2, 194581, Note_on_c, 0, 77, 91
2, 194581, Note_on_c, 0, 53, 83
2, 194581, Note_on_c, 0, 58, 83
2, 194581, Note_on_c, 0, 62, 97
2, 195595, Note_off_c, 0, 77, 0
2, 195595, Note_off_c, 0, 53, 0
2, 195595, Note_off_c, 0, 58, 0
2, 195595, Note_off_c, 0, 62, 0
2, 195596, Note_on_c, 0, 74, 89
2, 195596, Note_on_c, 0, 52, 81
2, 195596, Note_on_c, 0, 55, 81
2, 195596, Note_on_c, 0, 60, 95
2, 196070, Note_off_c, 0, 74, 0
2, 196101, Note_on_c, 0, 72, 88
2, 196577, Note_off_c, 0, 72, 0
2, 196607, Note_off_c, 0, 52, 0
2, 196607, Note_off_c, 0, 55, 0
2, 196607, Note_off_c, 0, 60, 0
2, 196612, Note_on_c, 0, 74, 93
2, 196612, Note_on_c, 0, 50, 85
2, 196612, Note_on_c, 0, 53, 85
2, 196612, Note_on_c, 0, 58, 99
2, 197123, Note_off_c, 0, 74, 0
2, 197154, Note_on_c, 0, 77, 88
2, 197661, Note_off_c, 0, 77, 0
2, 197661, Note_off_c, 0, 50, 0
2, 197661, Note_off_c, 0, 53, 0
2, 197661, Note_off_c, 0, 58, 0
2, 197662, Note_on_c, 0, 77, 89
2, 197662, Note_on_c, 0, 50, 81
2, 197662, Note_on_c, 0, 53, 81
2, 197662, Note_on_c, 0, 58, 95
2, 198136, Note_off_c, 0, 77, 0
2, 198167, Note_on_c, 0, 76, 88
2, 198676, Note_off_c, 0, 50, 0
2, 198676, Note_off_c, 0, 53, 0
2, 198676, Note_off_c, 0, 58, 0
2, 198677, Note_on_c, 0, 52, 83
2, 198677, Note_on_c, 0, 55, 83
2, 198677, Note_on_c, 0, 60, 97
2, 199186, Note_off_c, 0, 76, 0
2, 199187, Note_on_c, 0, 76, 88
2, 199661, Note_off_c, 0, 76, 0
2, 199691, Note_off_c, 0, 52, 0
2, 199691, Note_off_c, 0, 55, 0
2, 199691, Note_off_c, 0, 60, 0
2, 199692, Note_on_c, 0, 78, 89
2, 199692, Note_on_c, 0, 52, 81
2, 199692, Note_on_c, 0, 55, 81
2, 199692, Note_on_c, 0, 60, 91
2, 200196, Note_off_c, 0, 78, 0
2, 200197, Note_on_c, 0, 78, 88
2, 200703, Note_off_c, 0, 52, 0
2, 200703, Note_off_c, 0, 55, 0
2, 200703, Note_off_c, 0, 60, 0
2, 200708, Note_on_c, 0, 57, 68
2, 201250, Note_on_c, 0, 62, 63
2, 201280, Note_off_c, 0, 57, 0
2, 201757, Note_off_c, 0, 78, 0
2, 201758, Note_on_c, 0, 66, 64
2, 201788, Note_off_c, 0, 62, 0
2, 202263, Note_on_c, 0, 62, 63
2, 202293, Note_off_c, 0, 66, 0
2, 202773, Note_on_c, 0, 59, 66
2, 202803, Note_off_c, 0, 62, 0
2, 203283, Note_on_c, 0, 62, 63
2, 203313, Note_off_c, 0, 59, 0
2, 203788, Note_on_c, 0, 66, 64
2, 203818, Note_off_c, 0, 62, 0
2, 204293, Note_on_c, 0, 62, 63
2, 204323, Note_off_c, 0, 66, 0
2, 204804, Note_on_c, 0, 57, 68
2, 204830, Note_off_c, 0, 62, 0
2, 205346, Note_on_c, 0, 62, 63
2, 205376, Note_off_c, 0, 57, 0
2, 205854, Note_on_c, 0, 66, 64
2, 205884, Note_off_c, 0, 62, 0
2, 206359, Note_on_c, 0, 62, 63
2, 206389, Note_off_c, 0, 66, 0
2, 206869, Note_on_c, 0, 79, 78
2, 206869, Note_on_c, 0, 59, 66
2, 206899, Note_off_c, 0, 62, 0
2, 207379, Note_on_c, 0, 62, 63
2, 207409, Note_off_c, 0, 59, 0
2, 207503, Note_off_c, 0, 79, 0
2, 207544, Note_on_c, 0, 78, 75
2, 207884, Note_on_c, 0, 66, 64
2, 207914, Note_off_c, 0, 62, 0
2, 208183, Note_off_c, 0, 78, 0
2, 208224, Note_on_c, 0, 74, 75
2, 208389, Note_on_c, 0, 62, 63
2, 208419, Note_off_c, 0, 66, 0
2, 208855, Note_off_c, 0, 74, 0
2, 208900, Note_on_c, 0, 69, 75
2, 208900, Note_on_c, 0, 57, 68
2, 208926, Note_off_c, 0, 62, 0
2, 209442, Note_on_c, 0, 62, 63
2, 209472, Note_off_c, 0, 57, 0
2, 209950, Note_on_c, 0, 66, 64
2, 209980, Note_off_c, 0, 62, 0
2, 210455, Note_on_c, 0, 62, 63
2, 210485, Note_off_c, 0, 66, 0
2, 210965, Note_on_c, 0, 59, 66
2, 210995, Note_off_c, 0, 62, 0
2, 211475, Note_on_c, 0, 62, 63
2, 211505, Note_off_c, 0, 59, 0
2, 211980, Note_on_c, 0, 66, 64
2, 212010, Note_off_c, 0, 62, 0
2, 212485, Note_on_c, 0, 62, 63
2, 212515, Note_off_c, 0, 66, 0
2, 212991, Note_off_c, 0, 69, 0
2, 212996, Note_on_c, 0, 57, 63
2, 213022, Note_off_c, 0, 62, 0
2, 213538, Note_on_c, 0, 62, 59
2, 213568, Note_off_c, 0, 57, 0
2, 214046, Note_on_c, 0, 66, 54
2, 214076, Note_off_c, 0, 62, 0
2, 214551, Note_on_c, 0, 62, 49
2, 214581, Note_off_c, 0, 66, 0
2, 215061, Note_on_c, 0, 79, 62
2, 215061, Note_on_c, 0, 59, 44
2, 215091, Note_off_c, 0, 62, 0
2, 215540, Note_off_c, 0, 79, 0
2, 215571, Note_on_c, 0, 78, 59
2, 215571, Note_on_c, 0, 62, 39
2, 215601, Note_off_c, 0, 59, 0
2, 216045, Note_off_c, 0, 78, 0
2, 216076, Note_on_c, 0, 76, 56
2, 216076, Note_on_c, 0, 66, 34
2, 216106, Note_off_c, 0, 62, 0
2, 216580, Note_off_c, 0, 76, 0
2, 216581, Note_on_c, 0, 76, 53
2, 216581, Note_on_c, 0, 62, 29
2, 216611, Note_off_c, 0, 66, 0
2, 217092, Note_on_c, 0, 57, 42
2, 217118, Note_off_c, 0, 62, 0
2, 217603, Note_off_c, 0, 76, 0
2, 217634, Note_on_c, 0, 78, 49
2, 217634, Note_on_c, 0, 62, 37
2, 217664, Note_off_c, 0, 57, 0
2, 218142, Note_on_c, 0, 66, 38
2, 218172, Note_off_c, 0, 62, 0
2, 218646, Note_off_c, 0, 78, 0
2, 218647, Note_on_c, 0, 62, 37
2, 218677, Note_off_c, 0, 66, 0
2, 219157, Note_on_c, 0, 59, 40
2, 219187, Note_off_c, 0, 62, 0
2, 219667, Note_on_c, 0, 62, 37
2, 219697, Note_off_c, 0, 59, 0
2, 220172, Note_on_c, 0, 66, 38
2, 220202, Note_off_c, 0, 62, 0
2, 220677, Note_on_c, 0, 62, 37
2, 220707, Note_off_c, 0, 66, 0
2, 221188, Note_on_c, 0, 57, 42
2, 221214, Note_off_c, 0, 62, 0
2, 221730, Note_on_c, 0, 62, 37
2, 221760, Note_off_c, 0, 57, 0
2, 222238, Note_on_c, 0, 66, 38
2, 222268, Note_off_c, 0, 62, 0
2, 222743, Note_on_c, 0, 69, 49
2, 222743, Note_on_c, 0, 62, 37
2, 222773, Note_off_c, 0, 66, 0
2, 223222, Note_off_c, 0, 69, 0
2, 223253, Note_on_c, 0, 79, 52
2, 223253, Note_on_c, 0, 59, 40
2, 223283, Note_off_c, 0, 62, 0
2, 223732, Note_off_c, 0, 79, 0
2, 223763, Note_on_c, 0, 78, 49
2, 223763, Note_on_c, 0, 62, 37
2, 223793, Note_off_c, 0, 59, 0
2, 224237, Note_off_c, 0, 78, 0
2, 224268, Note_on_c, 0, 76, 50
2, 224268, Note_on_c, 0, 66, 38
2, 224298, Note_off_c, 0, 62, 0
2, 224772, Note_off_c, 0, 76, 0
2, 224773, Note_on_c, 0, 76, 49
2, 224773, Note_on_c, 0, 62, 37
2, 224803, Note_off_c, 0, 66, 0
2, 225249, Note_off_c, 0, 76, 0
2, 225284, Note_on_c, 0, 57, 42
2, 225310, Note_off_c, 0, 62, 0
2, 225826, Note_on_c, 0, 62, 37
2, 225856, Note_off_c, 0, 57, 0
2, 226334, Note_on_c, 0, 78, 50
2, 226334, Note_on_c, 0, 66, 38
2, 226364, Note_off_c, 0, 62, 0
2, 226808, Note_off_c, 0, 78, 0
2, 226839, Note_on_c, 0, 74, 49
2, 226839, Note_on_c, 0, 62, 37
2, 226869, Note_off_c, 0, 66, 0
2, 227318, Note_off_c, 0, 74, 0
2, 227349, Note_on_c, 0, 59, 40
2, 227379, Note_off_c, 0, 62, 0
2, 227859, Note_on_c, 0, 62, 37
2, 227889, Note_off_c, 0, 59, 0
2, 228364, Note_on_c, 0, 76, 50
2, 228364, Note_on_c, 0, 66, 38
2, 228394, Note_off_c, 0, 62, 0
2, 228838, Note_off_c, 0, 76, 0
2, 228869, Note_on_c, 0, 69, 49
2, 228869, Note_on_c, 0, 62, 37
2, 228899, Note_off_c, 0, 66, 0
2, 229345, Note_off_c, 0, 69, 0
2, 229380, Note_on_c, 0, 57, 42
2, 229406, Note_off_c, 0, 62, 0
2, 229922, Note_on_c, 0, 62, 37
2, 229952, Note_off_c, 0, 57, 0
2, 230430, Note_on_c, 0, 66, 38
2, 230460, Note_off_c, 0, 62, 0
2, 230935, Note_on_c, 0, 62, 37
2, 230965, Note_off_c, 0, 66, 0
2, 231445, Note_on_c, 0, 59, 40
2, 231475, Note_off_c, 0, 62, 0
2, 231955, Note_on_c, 0, 62, 37
2, 231985, Note_off_c, 0, 59, 0
2, 232460, Note_on_c, 0, 66, 38
2, 232490, Note_off_c, 0, 62, 0
2, 232965, Note_on_c, 0, 62, 37
2, 232995, Note_off_c, 0, 66, 0
2, 233476, Note_on_c, 0, 76, 54
2, 233476, Note_on_c, 0, 59, 42
2, 233502, Note_off_c, 0, 62, 0
2, 234018, Note_on_c, 0, 64, 37
2, 234048, Note_off_c, 0, 59, 0
2, 234525, Note_off_c, 0, 76, 0
2, 234526, Note_on_c, 0, 78, 50
2, 234526, Note_on_c, 0, 67, 38
2, 234556, Note_off_c, 0, 64, 0
2, 235000, Note_off_c, 0, 78, 0
2, 235031, Note_on_c, 0, 79, 49
2, 235031, Note_on_c, 0, 64, 37
2, 235061, Note_off_c, 0, 67, 0
2, 235541, Note_on_c, 0, 59, 40
2, 235571, Note_off_c, 0, 64, 0
2, 236051, Note_on_c, 0, 64, 37
2, 236081, Note_off_c, 0, 59, 0
2, 236555, Note_off_c, 0, 79, 0
2, 236556, Note_on_c, 0, 76, 50
2, 236556, Note_on_c, 0, 67, 38
2, 236586, Note_off_c, 0, 64, 0
2, 237061, Note_on_c, 0, 64, 37
2, 237091, Note_off_c, 0, 67, 0
2, 237567, Note_off_c, 0, 76, 0
2, 237572, Note_on_c, 0, 73, 54
2, 237572, Note_on_c, 0, 57, 42
2, 237598, Note_off_c, 0, 64, 0
2, 238114, Note_on_c, 0, 64, 37
2, 238144, Note_off_c, 0, 57, 0
2, 238621, Note_off_c, 0, 73, 0
2, 238622, Note_on_c, 0, 74, 50
2, 238622, Note_on_c, 0, 67, 38
2, 238652, Note_off_c, 0, 64, 0
2, 239096, Note_off_c, 0, 74, 0
2, 239127, Note_on_c, 0, 76, 49
2, 239127, Note_on_c, 0, 64, 37
2, 239157, Note_off_c, 0, 67, 0
2, 239637, Note_on_c, 0, 57, 40
2, 239667, Note_off_c, 0, 64, 0
2, 240147, Note_on_c, 0, 64, 37
2, 240177, Note_off_c, 0, 57, 0
2, 240651, Note_off_c, 0, 76, 0
2, 240652, Note_on_c, 0, 69, 38
2, 240652, Note_on_c, 0, 67, 38
2, 240682, Note_off_c, 0, 64, 0
2, 241156, Note_off_c, 0, 69, 0
2, 241157, Note_on_c, 0, 69, 37
2, 241157, Note_on_c, 0, 64, 37
2, 241187, Note_off_c, 0, 67, 0
2, 241668, Note_on_c, 0, 57, 42
2, 241694, Note_off_c, 0, 64, 0
2, 242210, Note_on_c, 0, 78, 49
2, 242210, Note_on_c, 0, 62, 37
2, 242240, Note_off_c, 0, 69, 0
2, 242240, Note_off_c, 0, 57, 0
2, 242718, Note_on_c, 0, 66, 38
2, 242748, Note_off_c, 0, 62, 0
2, 243222, Note_off_c, 0, 78, 0
2, 243223, Note_on_c, 0, 62, 37
2, 243253, Note_off_c, 0, 66, 0
2, 243733, Note_on_c, 0, 59, 40
2, 243763, Note_off_c, 0, 62, 0
2, 244243, Note_on_c, 0, 62, 37
2, 244273, Note_off_c, 0, 59, 0
2, 244748, Note_on_c, 0, 66, 38
2, 244778, Note_off_c, 0, 62, 0
2, 245253, Note_on_c, 0, 62, 37
2, 245283, Note_off_c, 0, 66, 0
2, 245764, Note_on_c, 0, 57, 42
2, 245790, Note_off_c, 0, 62, 0
2, 246306, Note_on_c, 0, 62, 37
2, 246336, Note_off_c, 0, 57, 0
2, 246814, Note_on_c, 0, 66, 38
2, 246844, Note_off_c, 0, 62, 0
2, 247319, Note_on_c, 0, 62, 37
2, 247349, Note_off_c, 0, 66, 0
2, 247829, Note_on_c, 0, 71, 70
2, 247829, Note_on_c, 0, 79, 84
2, 247829, Note_on_c, 0, 59, 66
2, 247859, Note_off_c, 0, 62, 0
2, 248308, Note_off_c, 0, 71, 0
2, 248338, Note_off_c, 0, 79, 0
2, 248339, Note_on_c, 0, 69, 67
2, 248339, Note_on_c, 0, 78, 81
2, 248339, Note_on_c, 0, 62, 63
2, 248369, Note_off_c, 0, 59, 0
2, 248813, Note_off_c, 0, 69, 0
2, 248843, Note_off_c, 0, 78, 0
2, 248844, Note_on_c, 0, 67, 68
2, 248844, Note_on_c, 0, 76, 82
2, 248844, Note_on_c, 0, 66, 64
2, 248874, Note_off_c, 0, 62, 0
2, 249348, Note_off_c, 0, 67, 0
2, 249348, Note_off_c, 0, 76, 0
2, 249349, Note_on_c, 0, 67, 67
2, 249349, Note_on_c, 0, 76, 77
2, 249349, Note_on_c, 0, 62, 63
2, 249379, Note_off_c, 0, 66, 0
2, 249860, Note_on_c, 0, 50, 80
2, 249860, Note_on_c, 0, 57, 68
2, 249886, Note_off_c, 0, 62, 0
2, 250371, Note_off_c, 0, 67, 0
2, 250401, Note_off_c, 0, 76, 0
2, 250402, Note_on_c, 0, 69, 67
2, 250402, Note_on_c, 0, 78, 81
2, 250402, Note_on_c, 0, 62, 63
2, 250432, Note_off_c, 0, 57, 0
2, 250910, Note_on_c, 0, 66, 64
2, 250940, Note_off_c, 0, 62, 0
2, 251414, Note_off_c, 0, 69, 0
2, 251414, Note_off_c, 0, 78, 0
2, 251415, Note_on_c, 0, 62, 63
2, 251445, Note_off_c, 0, 66, 0
2, 251924, Note_off_c, 0, 50, 0
2, 251925, Note_on_c, 0, 54, 78
2, 251925, Note_on_c, 0, 59, 66
2, 251955, Note_off_c, 0, 62, 0
2, 252435, Note_on_c, 0, 62, 63
2, 252465, Note_off_c, 0, 59, 0
2, 252940, Note_on_c, 0, 66, 64
2, 252970, Note_off_c, 0, 62, 0
2, 253445, Note_on_c, 0, 62, 63
2, 253475, Note_off_c, 0, 66, 0
2, 253951, Note_off_c, 0, 54, 0
2, 253956, Note_on_c, 0, 50, 80
2, 253956, Note_on_c, 0, 57, 68
2, 253982, Note_off_c, 0, 62, 0
2, 254498, Note_on_c, 0, 62, 63
2, 254528, Note_off_c, 0, 57, 0
2, 255006, Note_on_c, 0, 66, 64
2, 255036, Note_off_c, 0, 62, 0
2, 255511, Note_on_c, 0, 62, 63
2, 255541, Note_off_c, 0, 66, 0
2, 256020, Note_off_c, 0, 50, 0
2, 256021, Note_on_c, 0, 71, 70
2, 256021, Note_on_c, 0, 79, 84
2, 256021, Note_on_c, 0, 54, 78
2, 256021, Note_on_c, 0, 59, 66
2, 256051, Note_off_c, 0, 62, 0
2, 256500, Note_off_c, 0, 71, 0
2, 256530, Note_off_c, 0, 79, 0
2, 256531, Note_on_c, 0, 69, 67
2, 256531, Note_on_c, 0, 78, 81
2, 256531, Note_on_c, 0, 62, 63
2, 256561, Note_off_c, 0, 59, 0
2, 257005, Note_off_c, 0, 69, 0
2, 257035, Note_off_c, 0, 78, 0
2, 257036, Note_on_c, 0, 67, 68
2, 257036, Note_on_c, 0, 76, 82
2, 257036, Note_on_c, 0, 66, 64
2, 257066, Note_off_c, 0, 62, 0
2, 257540, Note_off_c, 0, 67, 0
2, 257540, Note_off_c, 0, 76, 0
2, 257541, Note_on_c, 0, 67, 67
2, 257541, Note_on_c, 0, 76, 81
2, 257541, Note_on_c, 0, 62, 63
2, 257571, Note_off_c, 0, 66, 0
2, 258017, Note_off_c, 0, 67, 0
2, 258047, Note_off_c, 0, 76, 0
2, 258047, Note_off_c, 0, 54, 0
2, 258052, Note_on_c, 0, 50, 80
2, 258052, Note_on_c, 0, 57, 68
2, 258078, Note_off_c, 0, 62, 0
2, 258594, Note_on_c, 0, 62, 63
2, 258624, Note_off_c, 0, 57, 0
2, 259102, Note_on_c, 0, 69, 68
2, 259102, Note_on_c, 0, 78, 82
2, 259102, Note_on_c, 0, 66, 64
2, 259132, Note_off_c, 0, 62, 0
2, 259576, Note_off_c, 0, 69, 0
2, 259606, Note_off_c, 0, 78, 0
2, 259607, Note_on_c, 0, 66, 67
2, 259607, Note_on_c, 0, 74, 81
2, 259607, Note_on_c, 0, 62, 63
2, 259637, Note_off_c, 0, 66, 0
2, 260086, Note_off_c, 0, 66, 0
2, 260116, Note_off_c, 0, 74, 0
2, 260116, Note_off_c, 0, 50, 0
2, 260117, Note_on_c, 0, 54, 78
2, 260117, Note_on_c, 0, 59, 66
2, 260147, Note_off_c, 0, 62, 0
2, 260627, Note_on_c, 0, 62, 63
2, 260657, Note_off_c, 0, 59, 0
2, 261132, Note_on_c, 0, 67, 68
2, 261132, Note_on_c, 0, 76, 82
2, 261132, Note_on_c, 0, 66, 64
2, 261162, Note_off_c, 0, 62, 0
2, 261606, Note_off_c, 0, 67, 0
2, 261636, Note_off_c, 0, 76, 0
2, 261637, Note_on_c, 0, 69, 75
2, 261637, Note_on_c, 0, 62, 63
2, 261667, Note_off_c, 0, 66, 0
2, 262113, Note_off_c, 0, 69, 0
2, 262143, Note_off_c, 0, 54, 0
2, 262148, Note_on_c, 0, 50, 80
2, 262148, Note_on_c, 0, 57, 68
2, 262174, Note_off_c, 0, 62, 0
2, 262690, Note_on_c, 0, 62, 63
2, 262720, Note_off_c, 0, 57, 0
2, 263198, Note_on_c, 0, 66, 64
2, 263228, Note_off_c, 0, 62, 0
2, 263703, Note_on_c, 0, 62, 63
2, 263733, Note_off_c, 0, 66, 0
2, 264212, Note_off_c, 0, 50, 0
2, 264213, Note_on_c, 0, 54, 78
2, 264213, Note_on_c, 0, 59, 66
2, 264243, Note_off_c, 0, 62, 0
2, 264723, Note_on_c, 0, 62, 63
2, 264753, Note_off_c, 0, 59, 0
2, 265228, Note_on_c, 0, 66, 64
2, 265258, Note_off_c, 0, 62, 0
2, 265733, Note_on_c, 0, 62, 63
2, 265763, Note_off_c, 0, 66, 0
2, 266239, Note_off_c, 0, 54, 0
2, 266244, Note_on_c, 0, 76, 80
2, 266244, Note_on_c, 0, 52, 80
2, 266244, Note_on_c, 0, 59, 68
2, 266270, Note_off_c, 0, 62, 0
2, 266786, Note_on_c, 0, 64, 63
2, 266816, Note_off_c, 0, 59, 0
2, 267293, Note_off_c, 0, 76, 0
2, 267294, Note_on_c, 0, 78, 76
2, 267294, Note_on_c, 0, 67, 64
2, 267324, Note_off_c, 0, 64, 0
2, 267768, Note_off_c, 0, 78, 0
2, 267799, Note_on_c, 0, 79, 75
2, 267799, Note_on_c, 0, 64, 63
2, 267829, Note_off_c, 0, 67, 0
2, 268308, Note_off_c, 0, 52, 0
2, 268309, Note_on_c, 0, 52, 78
2, 268309, Note_on_c, 0, 59, 66
2, 268339, Note_off_c, 0, 64, 0
2, 268819, Note_on_c, 0, 64, 63
2, 268849, Note_off_c, 0, 59, 0
2, 269323, Note_off_c, 0, 79, 0
2, 269324, Note_on_c, 0, 76, 76
2, 269324, Note_on_c, 0, 67, 64
2, 269354, Note_off_c, 0, 64, 0
2, 269829, Note_on_c, 0, 64, 63
2, 269859, Note_off_c, 0, 67, 0
2, 270335, Note_off_c, 0, 76, 0
2, 270335, Note_off_c, 0, 52, 0
2, 270340, Note_on_c, 0, 73, 80
2, 270340, Note_on_c, 0, 52, 80
2, 270340, Note_on_c, 0, 57, 68
2, 270366, Note_off_c, 0, 64, 0
2, 270882, Note_on_c, 0, 64, 63
2, 270912, Note_off_c, 0, 57, 0
2, 271389, Note_off_c, 0, 73, 0
2, 271390, Note_on_c, 0, 74, 76
2, 271390, Note_on_c, 0, 67, 64
2, 271420, Note_off_c, 0, 64, 0
2, 271864, Note_off_c, 0, 74, 0
2, 271895, Note_on_c, 0, 76, 75
2, 271895, Note_on_c, 0, 64, 63
2, 271925, Note_off_c, 0, 67, 0
2, 272374, Note_off_c, 0, 76, 0
2, 272404, Note_off_c, 0, 52, 0
2, 272405, Note_on_c, 0, 52, 78
2, 272405, Note_on_c, 0, 57, 66
2, 272435, Note_off_c, 0, 64, 0
2, 272915, Note_on_c, 0, 69, 75
2, 272915, Note_on_c, 0, 64, 63
2, 272945, Note_off_c, 0, 57, 0
2, 273389, Note_off_c, 0, 69, 0
2, 273420, Note_on_c, 0, 74, 76
2, 273420, Note_on_c, 0, 67, 64
2, 273450, Note_off_c, 0, 64, 0
2, 273894, Note_off_c, 0, 74, 0
2, 273925, Note_on_c, 0, 76, 75
2, 273925, Note_on_c, 0, 64, 63
2, 273955, Note_off_c, 0, 67, 0
2, 274401, Note_off_c, 0, 76, 0
2, 274431, Note_off_c, 0, 52, 0
2, 274436, Note_on_c, 0, 77, 80
2, 274436, Note_on_c, 0, 50, 72
2, 274436, Note_on_c, 0, 53, 72
2, 274436, Note_on_c, 0, 58, 82
2, 274462, Note_off_c, 0, 64, 0
2, 274947, Note_off_c, 0, 77, 0
2, 274978, Note_on_c, 0, 76, 76
2, 275455, Note_off_c, 0, 76, 0
2, 275485, Note_off_c, 0, 50, 0
2, 275485, Note_off_c, 0, 53, 0
2, 275485, Note_off_c, 0, 58, 0
2, 275486, Note_on_c, 0, 74, 77
2, 275486, Note_on_c, 0, 50, 75
2, 275486, Note_on_c, 0, 53, 75
2, 275486, Note_on_c, 0, 58, 85
2, 275960, Note_off_c, 0, 74, 0
2, 275991, Note_on_c, 0, 72, 79
2, 276470, Note_off_c, 0, 72, 0
2, 276500, Note_off_c, 0, 50, 0
2, 276500, Note_off_c, 0, 53, 0
2, 276500, Note_off_c, 0, 58, 0
2, 276501, Note_on_c, 0, 50, 73
2, 276501, Note_on_c, 0, 53, 73
2, 276501, Note_on_c, 0, 58, 83
2, 277010, Note_off_c, 0, 50, 0
2, 277010, Note_off_c, 0, 53, 0
2, 277010, Note_off_c, 0, 58, 0
2, 277011, Note_on_c, 0, 50, 78
2, 277011, Note_on_c, 0, 53, 78
2, 277011, Note_on_c, 0, 58, 88
2, 277515, Note_off_c, 0, 50, 0
2, 277515, Note_off_c, 0, 53, 0
2, 277515, Note_off_c, 0, 58, 0
2, 277516, Note_on_c, 0, 69, 84
2, 277516, Note_on_c, 0, 50, 83
2, 277516, Note_on_c, 0, 53, 83
2, 277516, Note_on_c, 0, 58, 93
2, 277990, Note_off_c, 0, 69, 0
2, 278020, Note_off_c, 0, 50, 0
2, 278020, Note_off_c, 0, 53, 0
2, 278020, Note_off_c, 0, 58, 0
2, 278021, Note_on_c, 0, 70, 86
2, 278021, Note_on_c, 0, 50, 89
2, 278021, Note_on_c, 0, 53, 89
2, 278021, Note_on_c, 0, 58, 103
2, 278497, Note_off_c, 0, 70, 0
2, 278527, Note_off_c, 0, 58, 0
2, 278532, Note_on_c, 0, 72, 93
2, 278532, Note_on_c, 0, 45, 85
2, 278532, Note_on_c, 0, 48, 85
2, 278532, Note_on_c, 0, 53, 99
2, 278558, Note_off_c, 0, 50, 0
2, 278558, Note_off_c, 0, 53, 0
2, 279581, Note_off_c, 0, 72, 0
2, 279582, Note_on_c, 0, 77, 89
2, 280086, Note_off_c, 0, 45, 0
2, 280086, Note_off_c, 0, 48, 0
2, 280086, Note_off_c, 0, 53, 0
2, 280087, Note_on_c, 0, 45, 80
2, 280087, Note_on_c, 0, 48, 80
2, 280087, Note_on_c, 0, 53, 94
2, 280566, Note_off_c, 0, 45, 0
2, 280566, Note_off_c, 0, 48, 0
2, 280596, Note_off_c, 0, 77, 0
2, 280596, Note_off_c, 0, 53, 0
2, 280597, Note_on_c, 0, 76, 91
2, 280597, Note_on_c, 0, 52, 83
2, 280597, Note_on_c, 0, 55, 83
2, 280597, Note_on_c, 0, 60, 97
2, 281076, Note_off_c, 0, 76, 0
2, 281107, Note_on_c, 0, 74, 88
2, 281611, Note_off_c, 0, 74, 0
2, 281612, Note_on_c, 0, 74, 89
2, 282086, Note_off_c, 0, 74, 0
2, 282116, Note_off_c, 0, 52, 0
2, 282116, Note_off_c, 0, 55, 0
2, 282116, Note_off_c, 0, 60, 0
2, 282117, Note_on_c, 0, 72, 88
2, 282117, Note_on_c, 0, 52, 80
2, 282117, Note_on_c, 0, 55, 80
2, 282117, Note_on_c, 0, 60, 94
2, 282593, Note_off_c, 0, 72, 0
2, 282593, Note_off_c, 0, 52, 0
2, 282593, Note_off_c, 0, 55, 0
2, 282623, Note_off_c, 0, 60, 0
2, 282628, Note_on_c, 0, 74, 93
2, 282628, Note_on_c, 0, 50, 85
2, 282628, Note_on_c, 0, 53, 85
2, 282628, Note_on_c, 0, 58, 99
2, 283139, Note_off_c, 0, 74, 0
2, 283170, Note_on_c, 0, 72, 88
2, 283677, Note_off_c, 0, 72, 0
2, 283678, Note_on_c, 0, 72, 89
2, 284182, Note_off_c, 0, 50, 0
2, 284182, Note_off_c, 0, 53, 0
2, 284182, Note_off_c, 0, 58, 0
2, 284183, Note_on_c, 0, 50, 80
2, 284183, Note_on_c, 0, 53, 80
2, 284183, Note_on_c, 0, 58, 94
2, 284662, Note_off_c, 0, 50, 0
2, 284662, Note_off_c, 0, 53, 0
2, 284692, Note_off_c, 0, 72, 0
2, 284692, Note_off_c, 0, 58, 0
2, 284693, Note_on_c, 0, 72, 91
2, 284693, Note_on_c, 0, 45, 83
2, 284693, Note_on_c, 0, 48, 83
2, 284693, Note_on_c, 0, 53, 97
2, 285707, Note_off_c, 0, 72, 0
2, 285708, Note_on_c, 0, 69, 89
2, 286182, Note_off_c, 0, 69, 0
2, 286212, Note_off_c, 0, 45, 0
2, 286212, Note_off_c, 0, 48, 0
2, 286212, Note_off_c, 0, 53, 0
2, 286213, Note_on_c, 0, 70, 88
2, 286213, Note_on_c, 0, 45, 80
2, 286213, Note_on_c, 0, 48, 80
2, 286213, Note_on_c, 0, 53, 90
2, 286689, Note_off_c, 0, 70, 0
2, 286719, Note_off_c, 0, 45, 0
2, 286719, Note_off_c, 0, 48, 0
2, 286719, Note_off_c, 0, 53, 0
2, 286724, Note_on_c, 0, 72, 93
2, 286724, Note_on_c, 0, 45, 85
2, 286724, Note_on_c, 0, 48, 85
2, 286724, Note_on_c, 0, 53, 95
2, 287773, Note_off_c, 0, 72, 0
2, 287774, Note_on_c, 0, 77, 89
2, 288278, Note_off_c, 0, 45, 0
2, 288278, Note_off_c, 0, 48, 0
2, 288278, Note_off_c, 0, 53, 0
2, 288279, Note_on_c, 0, 45, 80
2, 288279, Note_on_c, 0, 48, 80
2, 288279, Note_on_c, 0, 53, 94
2, 288758, Note_off_c, 0, 45, 0
2, 288758, Note_off_c, 0, 48, 0
2, 288788, Note_off_c, 0, 77, 0
2, 288788, Note_off_c, 0, 53, 0
2, 288789, Note_on_c, 0, 79, 91
2, 288789, Note_on_c, 0, 52, 83
2, 288789, Note_on_c, 0, 55, 83
2, 288789, Note_on_c, 0, 60, 97
2, 289268, Note_off_c, 0, 79, 0
2, 289299, Note_on_c, 0, 77, 88
2, 289773, Note_off_c, 0, 77, 0
2, 289804, Note_on_c, 0, 76, 89
2, 290278, Note_off_c, 0, 76, 0
2, 290308, Note_off_c, 0, 52, 0
2, 290308, Note_off_c, 0, 55, 0
2, 290308, Note_off_c, 0, 60, 0
2, 290309, Note_on_c, 0, 74, 88
2, 290309, Note_on_c, 0, 52, 80
2, 290309, Note_on_c, 0, 55, 80
2, 290309, Note_on_c, 0, 60, 94
2, 290785, Note_off_c, 0, 52, 0
2, 290785, Note_off_c, 0, 55, 0
2, 290815, Note_off_c, 0, 74, 0
2, 290815, Note_off_c, 0, 60, 0
2, 290820, Note_on_c, 0, 74, 93
2, 290820, Note_on_c, 0, 50, 85
2, 290820, Note_on_c, 0, 53, 85
2, 290820, Note_on_c, 0, 58, 99
2, 291331, Note_off_c, 0, 74, 0
2, 291362, Note_on_c, 0, 76, 88
2, 291839, Note_off_c, 0, 76, 0
2, 291870, Note_on_c, 0, 77, 89
2, 292374, Note_off_c, 0, 50, 0
2, 292374, Note_off_c, 0, 53, 0
2, 292374, Note_off_c, 0, 58, 0
2, 292375, Note_on_c, 0, 50, 80
2, 292375, Note_on_c, 0, 53, 80
2, 292375, Note_on_c, 0, 58, 94
2, 292854, Note_off_c, 0, 50, 0
2, 292854, Note_off_c, 0, 53, 0
2, 292884, Note_off_c, 0, 77, 0
2, 292884, Note_off_c, 0, 58, 0
2, 292885, Note_on_c, 0, 77, 91
2, 292885, Note_on_c, 0, 45, 83
2, 292885, Note_on_c, 0, 48, 83
2, 292885, Note_on_c, 0, 53, 97
2, 293899, Note_off_c, 0, 77, 0
2, 293900, Note_on_c, 0, 79, 89
2, 294374, Note_off_c, 0, 79, 0
2, 294404, Note_off_c, 0, 45, 0
2, 294404, Note_off_c, 0, 48, 0
2, 294404, Note_off_c, 0, 53, 0
2, 294405, Note_on_c, 0, 81, 88
2, 294405, Note_on_c, 0, 45, 80
2, 294405, Note_on_c, 0, 48, 80
2, 294405, Note_on_c, 0, 53, 94
2, 294881, Note_off_c, 0, 81, 0
2, 294881, Note_off_c, 0, 45, 0
2, 294881, Note_off_c, 0, 48, 0
2, 294911, Note_off_c, 0, 53, 0
2, 294916, Note_on_c, 0, 82, 93
2, 294916, Note_on_c, 0, 50, 85
2, 294916, Note_on_c, 0, 53, 85
2, 294916, Note_on_c, 0, 58, 99
2, 295457, Note_off_c, 0, 82, 0
2, 295458, Note_on_c, 0, 82, 88
2, 295935, Note_off_c, 0, 82, 0
2, 295966, Note_on_c, 0, 81, 89
2, 296470, Note_off_c, 0, 81, 0
2, 296471, Note_on_c, 0, 81, 88
2, 296950, Note_off_c, 0, 81, 0
2, 296980, Note_off_c, 0, 50, 0
2, 296980, Note_off_c, 0, 53, 0
2, 296980, Note_off_c, 0, 58, 0
2, 296981, Note_on_c, 0, 79, 91
2, 296981, Note_on_c, 0, 52, 83
2, 296981, Note_on_c, 0, 55, 83
2, 296981, Note_on_c, 0, 60, 97
2, 297995, Note_off_c, 0, 79, 0
2, 297995, Note_off_c, 0, 52, 0
2, 297995, Note_off_c, 0, 55, 0
2, 297995, Note_off_c, 0, 60, 0
2, 297996, Note_on_c, 0, 77, 89
2, 297996, Note_on_c, 0, 52, 81
2, 297996, Note_on_c, 0, 55, 81
2, 297996, Note_on_c, 0, 60, 95
2, 298470, Note_off_c, 0, 77, 0
2, 298501, Note_on_c, 0, 79, 88
2, 298977, Note_off_c, 0, 79, 0
2, 299007, Note_off_c, 0, 52, 0
2, 299007, Note_off_c, 0, 55, 0
2, 299007, Note_off_c, 0, 60, 0
2, 299012, Note_on_c, 0, 81, 93
2, 299012, Note_on_c, 0, 57, 85
2, 299012, Note_on_c, 0, 60, 85
2, 299012, Note_on_c, 0, 65, 99
2, 299553, Note_off_c, 0, 81, 0
2, 299554, Note_on_c, 0, 81, 88
2, 300031, Note_off_c, 0, 81, 0
2, 300061, Note_off_c, 0, 57, 0
2, 300061, Note_off_c, 0, 60, 0
2, 300061, Note_off_c, 0, 65, 0
2, 300062, Note_on_c, 0, 79, 89
2, 300062, Note_on_c, 0, 55, 81
2, 300062, Note_on_c, 0, 60, 81
2, 300062, Note_on_c, 0, 64, 95
2, 300566, Note_off_c, 0, 79, 0
2, 300567, Note_on_c, 0, 79, 88
2, 301046, Note_off_c, 0, 79, 0
2, 301076, Note_off_c, 0, 55, 0
2, 301076, Note_off_c, 0, 60, 0
2, 301076, Note_off_c, 0, 64, 0
2, 301077, Note_on_c, 0, 77, 91
2, 301077, Note_on_c, 0, 53, 83
2, 301077, Note_on_c, 0, 58, 83
2, 301077, Note_on_c, 0, 62, 97
2, 302091, Note_off_c, 0, 77, 0
2, 302091, Note_off_c, 0, 53, 0
2, 302091, Note_off_c, 0, 58, 0
2, 302091, Note_off_c, 0, 62, 0
2, 302092, Note_on_c, 0, 74, 89
2, 302092, Note_on_c, 0, 52, 81
2, 302092, Note_on_c, 0, 55, 81
2, 302092, Note_on_c, 0, 60, 95
2, 302566, Note_off_c, 0, 74, 0
2, 302597, Note_on_c, 0, 72, 88
2, 303073, Note_off_c, 0, 72, 0
2, 303103, Note_off_c, 0, 52, 0
2, 303103, Note_off_c, 0, 55, 0
2, 303103, Note_off_c, 0, 60, 0
2, 303108, Note_on_c, 0, 74, 93
2, 303108, Note_on_c, 0, 50, 85
2, 303108, Note_on_c, 0, 53, 85
2, 303108, Note_on_c, 0, 58, 99
2, 303619, Note_off_c, 0, 74, 0
2, 303650, Note_on_c, 0, 77, 88
2, 304157, Note_off_c, 0, 77, 0
2, 304157, Note_off_c, 0, 50, 0
2, 304157, Note_off_c, 0, 53, 0
2, 304157, Note_off_c, 0, 58, 0
2, 304158, Note_on_c, 0, 77, 89
2, 304158, Note_on_c, 0, 50, 81
2, 304158, Note_on_c, 0, 53, 81
2, 304158, Note_on_c, 0, 58, 95
2, 304632, Note_off_c, 0, 77, 0
2, 304663, Note_on_c, 0, 76, 88
2, 305172, Note_off_c, 0, 50, 0
2, 305172, Note_off_c, 0, 53, 0
2, 305172, Note_off_c, 0, 58, 0
2, 305173, Note_on_c, 0, 52, 83
2, 305173, Note_on_c, 0, 55, 83
2, 305173, Note_on_c, 0, 60, 97
2, 305682, Note_off_c, 0, 76, 0
2, 305683, Note_on_c, 0, 76, 88
2, 306157, Note_off_c, 0, 76, 0
2, 306187, Note_off_c, 0, 52, 0
2, 306187, Note_off_c, 0, 55, 0
2, 306187, Note_off_c, 0, 60, 0
2, 306188, Note_on_c, 0, 78, 89
2, 306188, Note_on_c, 0, 52, 81
2, 306188, Note_on_c, 0, 55, 81
2, 306188, Note_on_c, 0, 60, 91
2, 306692, Note_off_c, 0, 78, 0
2, 306693, Note_on_c, 0, 78, 88
2, 307199, Note_off_c, 0, 52, 0
2, 307199, Note_off_c, 0, 55, 0
2, 307199, Note_off_c, 0, 60, 0
2, 307204, Note_on_c, 0, 50, 93
2, 307204, Note_on_c, 0, 57, 81
2, 307746, Note_on_c, 0, 62, 76
2, 307776, Note_off_c, 0, 57, 0
2, 308254, Note_on_c, 0, 66, 77
2, 308284, Note_off_c, 0, 62, 0
2, 308759, Note_on_c, 0, 62, 76
2, 308789, Note_off_c, 0, 66, 0
2, 309268, Note_off_c, 0, 78, 0
2, 309268, Note_off_c, 0, 50, 0
2, 309269, Note_on_c, 0, 54, 91
2, 309269, Note_on_c, 0, 59, 79
2, 309299, Note_off_c, 0, 62, 0
2, 309779, Note_on_c, 0, 62, 76
2, 309809, Note_off_c, 0, 59, 0
2, 310284, Note_on_c, 0, 81, 89
2, 310284, Note_on_c, 0, 66, 77
2, 310314, Note_off_c, 0, 62, 0
2, 310788, Note_off_c, 0, 81, 0
2, 310789, Note_on_c, 0, 81, 88
2, 310789, Note_on_c, 0, 62, 76
2, 310819, Note_off_c, 0, 66, 0
2, 311265, Note_off_c, 0, 81, 0
2, 311295, Note_off_c, 0, 54, 0
2, 311300, Note_on_c, 0, 83, 93
2, 311300, Note_on_c, 0, 50, 93
2, 311300, Note_on_c, 0, 57, 81
2, 311326, Note_off_c, 0, 62, 0
2, 311811, Note_off_c, 0, 83, 0
2, 311842, Note_on_c, 0, 81, 88
2, 311842, Note_on_c, 0, 62, 76
2, 311872, Note_off_c, 0, 57, 0
2, 312319, Note_off_c, 0, 81, 0
2, 312350, Note_on_c, 0, 78, 89
2, 312350, Note_on_c, 0, 66, 77
2, 312380, Note_off_c, 0, 62, 0
2, 312824, Note_off_c, 0, 78, 0
2, 312855, Note_on_c, 0, 74, 88
2, 312855, Note_on_c, 0, 62, 76
2, 312885, Note_off_c, 0, 66, 0
2, 313364, Note_off_c, 0, 50, 0
2, 313365, Note_on_c, 0, 54, 91
2, 313365, Note_on_c, 0, 59, 79
2, 313395, Note_off_c, 0, 62, 0
2, 313874, Note_off_c, 0, 74, 0
2, 313875, Note_on_c, 0, 67, 80
2, 313875, Note_on_c, 0, 76, 94
2, 313875, Note_on_c, 0, 62, 76
2, 313905, Note_off_c, 0, 59, 0
2, 314349, Note_off_c, 0, 67, 0
2, 314379, Note_off_c, 0, 76, 0
2, 314380, Note_on_c, 0, 69, 81
2, 314380, Note_on_c, 0, 78, 95
2, 314380, Note_on_c, 0, 66, 77
2, 314410, Note_off_c, 0, 62, 0
2, 314884, Note_off_c, 0, 69, 0
2, 314884, Note_off_c, 0, 78, 0
2, 314885, Note_on_c, 0, 69, 80
2, 314885, Note_on_c, 0, 78, 90
2, 314885, Note_on_c, 0, 62, 76
2, 314915, Note_off_c, 0, 66, 0
2, 315391, Note_off_c, 0, 54, 0
2, 315396, Note_on_c, 0, 50, 93
2, 315396, Note_on_c, 0, 57, 81
2, 315422, Note_off_c, 0, 62, 0
2, 315938, Note_on_c, 0, 62, 76
2, 315968, Note_off_c, 0, 57, 0
2, 316445, Note_off_c, 0, 69, 0
2, 316445, Note_off_c, 0, 78, 0
2, 316446, Note_on_c, 0, 66, 77
2, 316476, Note_off_c, 0, 62, 0
2, 316951, Note_on_c, 0, 62, 76
2, 316981, Note_off_c, 0, 66, 0
2, 317460, Note_off_c, 0, 50, 0
2, 317461, Note_on_c, 0, 54, 91
2, 317461, Note_on_c, 0, 59, 79
2, 317491, Note_off_c, 0, 62, 0
2, 317971, Note_on_c, 0, 81, 88
2, 317971, Note_on_c, 0, 62, 76
2, 318001, Note_off_c, 0, 59, 0
2, 318475, Note_off_c, 0, 81, 0
2, 318476, Note_on_c, 0, 81, 89
2, 318476, Note_on_c, 0, 66, 77
2, 318506, Note_off_c, 0, 62, 0
2, 318980, Note_off_c, 0, 81, 0
2, 318981, Note_on_c, 0, 81, 88
2, 318981, Note_on_c, 0, 62, 76
2, 319011, Note_off_c, 0, 66, 0
2, 319457, Note_off_c, 0, 81, 0
2, 319487, Note_off_c, 0, 54, 0
2, 319492, Note_on_c, 0, 83, 93
2, 319492, Note_on_c, 0, 50, 93
2, 319492, Note_on_c, 0, 57, 81
2, 319518, Note_off_c, 0, 62, 0
2, 320003, Note_off_c, 0, 83, 0
2, 320034, Note_on_c, 0, 81, 88
2, 320034, Note_on_c, 0, 62, 76
2, 320064, Note_off_c, 0, 57, 0
2, 320511, Note_off_c, 0, 81, 0
2, 320542, Note_on_c, 0, 78, 89
2, 320542, Note_on_c, 0, 66, 77
2, 320572, Note_off_c, 0, 62, 0
2, 321016, Note_off_c, 0, 78, 0
2, 321047, Note_on_c, 0, 74, 88
2, 321047, Note_on_c, 0, 62, 76
2, 321077, Note_off_c, 0, 66, 0
2, 321556, Note_off_c, 0, 50, 0
2, 321557, Note_on_c, 0, 54, 91
2, 321557, Note_on_c, 0, 59, 79
2, 321587, Note_off_c, 0, 62, 0
2, 322066, Note_off_c, 0, 74, 0
2, 322067, Note_on_c, 0, 67, 80
2, 322067, Note_on_c, 0, 76, 94
2, 322067, Note_on_c, 0, 62, 76
2, 322097, Note_off_c, 0, 59, 0
2, 322541, Note_off_c, 0, 67, 0
2, 322571, Note_off_c, 0, 76, 0
2, 322572, Note_on_c, 0, 69, 81
2, 322572, Note_on_c, 0, 78, 95
2, 322572, Note_on_c, 0, 66, 77
2, 322602, Note_off_c, 0, 62, 0
2, 323076, Note_off_c, 0, 69, 0
2, 323076, Note_off_c, 0, 78, 0
2, 323077, Note_on_c, 0, 69, 80
2, 323077, Note_on_c, 0, 78, 90
2, 323077, Note_on_c, 0, 62, 76
2, 323107, Note_off_c, 0, 66, 0
2, 323583, Note_off_c, 0, 54, 0
2, 323588, Note_on_c, 0, 50, 93
2, 323588, Note_on_c, 0, 57, 81
2, 323614, Note_off_c, 0, 62, 0
2, 324130, Note_on_c, 0, 62, 76
2, 324160, Note_off_c, 0, 57, 0
2, 324637, Note_off_c, 0, 69, 0
2, 324637, Note_off_c, 0, 78, 0
2, 324638, Note_on_c, 0, 66, 77
2, 324668, Note_off_c, 0, 62, 0
2, 325143, Note_on_c, 0, 62, 76
2, 325173, Note_off_c, 0, 66, 0
2, 325652, Note_off_c, 0, 50, 0
2, 325653, Note_on_c, 0, 54, 91
2, 325653, Note_on_c, 0, 59, 79
2, 325683, Note_off_c, 0, 62, 0
2, 326163, Note_on_c, 0, 81, 88
2, 326163, Note_on_c, 0, 62, 76
2, 326193, Note_off_c, 0, 59, 0
2, 326667, Note_off_c, 0, 81, 0
2, 326668, Note_on_c, 0, 81, 89
2, 326668, Note_on_c, 0, 66, 77
2, 326698, Note_off_c, 0, 62, 0
2, 327172, Note_off_c, 0, 81, 0
2, 327173, Note_on_c, 0, 81, 88
2, 327173, Note_on_c, 0, 62, 76
2, 327203, Note_off_c, 0, 66, 0
2, 327649, Note_off_c, 0, 81, 0
2, 327679, Note_off_c, 0, 54, 0
2, 327684, Note_on_c, 0, 83, 93
2, 327684, Note_on_c, 0, 50, 93
2, 327684, Note_on_c, 0, 57, 81
2, 327710, Note_off_c, 0, 62, 0
2, 328195, Note_off_c, 0, 83, 0
2, 328226, Note_on_c, 0, 81, 88
2, 328226, Note_on_c, 0, 62, 76
2, 328256, Note_off_c, 0, 57, 0
2, 328703, Note_off_c, 0, 81, 0
2, 328734, Note_on_c, 0, 78, 89
2, 328734, Note_on_c, 0, 66, 77
2, 328764, Note_off_c, 0, 62, 0
2, 329208, Note_off_c, 0, 78, 0
2, 329239, Note_on_c, 0, 74, 88
2, 329239, Note_on_c, 0, 62, 76
2, 329269, Note_off_c, 0, 66, 0
2, 329748, Note_off_c, 0, 50, 0
2, 329749, Note_on_c, 0, 54, 91
2, 329749, Note_on_c, 0, 59, 79
2, 329779, Note_off_c, 0, 62, 0
2, 330258, Note_off_c, 0, 74, 0
2, 330259, Note_on_c, 0, 67, 80
2, 330259, Note_on_c, 0, 76, 94
2, 330259, Note_on_c, 0, 62, 76
2, 330289, Note_off_c, 0, 59, 0
2, 330733, Note_off_c, 0, 67, 0
2, 330763, Note_off_c, 0, 76, 0
2, 330764, Note_on_c, 0, 69, 81
2, 330764, Note_on_c, 0, 78, 95
2, 330764, Note_on_c, 0, 66, 77
2, 330794, Note_off_c, 0, 62, 0
2, 331268, Note_off_c, 0, 69, 0
2, 331268, Note_off_c, 0, 78, 0
2, 331269, Note_on_c, 0, 69, 80
2, 331269, Note_on_c, 0, 78, 90
2, 331269, Note_on_c, 0, 62, 76
2, 331299, Note_off_c, 0, 66, 0
2, 331775, Note_off_c, 0, 54, 0
2, 331780, Note_on_c, 0, 50, 93
2, 331780, Note_on_c, 0, 57, 81
2, 331806, Note_off_c, 0, 62, 0
2, 332322, Note_on_c, 0, 62, 76
2, 332352, Note_off_c, 0, 57, 0
2, 332829, Note_off_c, 0, 69, 0
2, 332829, Note_off_c, 0, 78, 0
2, 332830, Note_on_c, 0, 66, 77
2, 332860, Note_off_c, 0, 62, 0
2, 333335, Note_on_c, 0, 62, 76
2, 333365, Note_off_c, 0, 66, 0
2, 333844, Note_off_c, 0, 50, 0
2, 333845, Note_on_c, 0, 54, 91
2, 333845, Note_on_c, 0, 59, 79
2, 333875, Note_off_c, 0, 62, 0
2, 334355, Note_on_c, 0, 62, 76
2, 334385, Note_off_c, 0, 59, 0
2, 334860, Note_on_c, 0, 81, 89
2, 334860, Note_on_c, 0, 66, 77
2, 334890, Note_off_c, 0, 62, 0
2, 335364, Note_off_c, 0, 81, 0
2, 335365, Note_on_c, 0, 81, 88
2, 335365, Note_on_c, 0, 62, 76
2, 335395, Note_off_c, 0, 66, 0
2, 335841, Note_off_c, 0, 81, 0
2, 335871, Note_off_c, 0, 54, 0
2, 335876, Note_on_c, 0, 83, 93
2, 335876, Note_on_c, 0, 50, 93
2, 335876, Note_on_c, 0, 57, 81
2, 335902, Note_off_c, 0, 62, 0
2, 336387, Note_off_c, 0, 83, 0
2, 336418, Note_on_c, 0, 81, 88
2, 336418, Note_on_c, 0, 62, 76
2, 336448, Note_off_c, 0, 57, 0
2, 336895, Note_off_c, 0, 81, 0
2, 336926, Note_on_c, 0, 78, 89
2, 336926, Note_on_c, 0, 66, 77
2, 336956, Note_off_c, 0, 62, 0
2, 337400, Note_off_c, 0, 78, 0
2, 337431, Note_on_c, 0, 74, 88
2, 337431, Note_on_c, 0, 62, 76
2, 337461, Note_off_c, 0, 66, 0
2, 337940, Note_off_c, 0, 50, 0
2, 337941, Note_on_c, 0, 54, 91
2, 337941, Note_on_c, 0, 59, 79
2, 337971, Note_off_c, 0, 62, 0
2, 338450, Note_off_c, 0, 74, 0
2, 338451, Note_on_c, 0, 67, 80
2, 338451, Note_on_c, 0, 76, 94
2, 338451, Note_on_c, 0, 62, 76
2, 338481, Note_off_c, 0, 59, 0
2, 338925, Note_off_c, 0, 67, 0
2, 338955, Note_off_c, 0, 76, 0
2, 338956, Note_on_c, 0, 69, 81
2, 338956, Note_on_c, 0, 78, 95
2, 338956, Note_on_c, 0, 66, 77
2, 338986, Note_off_c, 0, 62, 0
2, 339460, Note_off_c, 0, 69, 0
2, 339460, Note_off_c, 0, 78, 0
2, 339461, Note_on_c, 0, 69, 80
2, 339461, Note_on_c, 0, 78, 90
2, 339461, Note_on_c, 0, 62, 76
2, 339491, Note_off_c, 0, 66, 0
2, 339967, Note_off_c, 0, 54, 0
2, 339972, Note_on_c, 0, 50, 93
2, 339972, Note_on_c, 0, 57, 81
2, 339998, Note_off_c, 0, 62, 0
2, 340514, Note_on_c, 0, 62, 76
2, 340544, Note_off_c, 0, 57, 0
2, 341021, Note_off_c, 0, 69, 0
2, 341021, Note_off_c, 0, 78, 0
2, 341022, Note_on_c, 0, 66, 77
2, 341052, Note_off_c, 0, 62, 0
2, 341527, Note_on_c, 0, 62, 76
2, 341557, Note_off_c, 0, 66, 0
2, 342036, Note_off_c, 0, 50, 0
2, 342037, Note_on_c, 0, 54, 91
2, 342037, Note_on_c, 0, 59, 79
2, 342067, Note_off_c, 0, 62, 0
2, 342547, Note_on_c, 0, 81, 88
2, 342547, Note_on_c, 0, 62, 76
2, 342577, Note_off_c, 0, 59, 0
2, 343051, Note_off_c, 0, 81, 0
2, 343052, Note_on_c, 0, 81, 89
2, 343052, Note_on_c, 0, 66, 77
2, 343082, Note_off_c, 0, 62, 0
2, 343556, Note_off_c, 0, 81, 0
2, 343557, Note_on_c, 0, 81, 88
2, 343557, Note_on_c, 0, 62, 76
2, 343587, Note_off_c, 0, 66, 0
2, 344033, Note_off_c, 0, 81, 0
2, 344063, Note_off_c, 0, 54, 0
2, 344068, Note_on_c, 0, 83, 93
2, 344068, Note_on_c, 0, 50, 93
2, 344068, Note_on_c, 0, 57, 81
2, 344094, Note_off_c, 0, 62, 0
2, 344579, Note_off_c, 0, 83, 0
2, 344610, Note_on_c, 0, 81, 88
2, 344610, Note_on_c, 0, 62, 76
2, 344640, Note_off_c, 0, 57, 0
2, 345087, Note_off_c, 0, 81, 0
2, 345118, Note_on_c, 0, 78, 89
2, 345118, Note_on_c, 0, 66, 77
2, 345148, Note_off_c, 0, 62, 0
2, 345592, Note_off_c, 0, 78, 0
2, 345623, Note_on_c, 0, 74, 88
2, 345623, Note_on_c, 0, 62, 76
2, 345653, Note_off_c, 0, 66, 0
2, 346132, Note_off_c, 0, 50, 0
2, 346133, Note_on_c, 0, 54, 91
2, 346133, Note_on_c, 0, 59, 79
2, 346163, Note_off_c, 0, 62, 0
2, 346642, Note_off_c, 0, 74, 0
2, 346643, Note_on_c, 0, 67, 80
2, 346643, Note_on_c, 0, 76, 94
2, 346643, Note_on_c, 0, 62, 76
2, 346673, Note_off_c, 0, 59, 0
2, 347117, Note_off_c, 0, 67, 0
2, 347147, Note_off_c, 0, 76, 0
2, 347148, Note_on_c, 0, 69, 81
2, 347148, Note_on_c, 0, 78, 95
2, 347148, Note_on_c, 0, 66, 77
2, 347178, Note_off_c, 0, 62, 0
2, 347652, Note_off_c, 0, 69, 0
2, 347652, Note_off_c, 0, 78, 0
2, 347653, Note_on_c, 0, 69, 80
2, 347653, Note_on_c, 0, 78, 90
2, 347653, Note_on_c, 0, 62, 76
2, 347683, Note_off_c, 0, 66, 0
2, 348159, Note_off_c, 0, 54, 0
2, 348164, Note_on_c, 0, 50, 93
2, 348164, Note_on_c, 0, 57, 81
2, 348190, Note_off_c, 0, 62, 0
2, 348706, Note_on_c, 0, 62, 76
2, 348736, Note_off_c, 0, 57, 0
2, 349213, Note_off_c, 0, 69, 0
2, 349213, Note_off_c, 0, 78, 0
2, 349214, Note_on_c, 0, 66, 77
2, 349244, Note_off_c, 0, 62, 0
2, 349719, Note_on_c, 0, 62, 76
2, 349749, Note_off_c, 0, 66, 0
2, 350228, Note_off_c, 0, 50, 0
2, 350229, Note_on_c, 0, 54, 91
2, 350229, Note_on_c, 0, 59, 79
2, 350259, Note_off_c, 0, 62, 0
2, 350739, Note_on_c, 0, 78, 76
2, 350739, Note_on_c, 0, 62, 76
2, 350769, Note_off_c, 0, 59, 0
2, 351244, Note_on_c, 0, 81, 77
2, 351244, Note_on_c, 0, 66, 77
2, 351274, Note_off_c, 0, 78, 0
2, 351274, Note_off_c, 0, 62, 0
2, 351748, Note_off_c, 0, 81, 0
2, 351749, Note_on_c, 0, 81, 76
2, 351749, Note_on_c, 0, 62, 76
2, 351779, Note_off_c, 0, 66, 0
2, 352255, Note_off_c, 0, 54, 0
2, 352260, Note_on_c, 0, 50, 93
2, 352260, Note_on_c, 0, 57, 81
2, 352286, Note_off_c, 0, 62, 0
2, 352802, Note_on_c, 0, 62, 76
2, 352832, Note_off_c, 0, 57, 0
2, 353309, Note_off_c, 0, 81, 0
2, 353310, Note_on_c, 0, 66, 77
2, 353340, Note_off_c, 0, 62, 0
2, 353815, Note_on_c, 0, 62, 76
2, 353845, Note_off_c, 0, 66, 0
2, 354324, Note_off_c, 0, 50, 0
2, 354325, Note_on_c, 0, 54, 91
2, 354325, Note_on_c, 0, 59, 79
2, 354355, Note_off_c, 0, 62, 0
2, 354835, Note_on_c, 0, 79, 88
2, 354865, Note_off_c, 0, 59, 0
2, 355309, Note_off_c, 0, 79, 0
2, 355340, Note_on_c, 0, 78, 89
2, 355844, Note_off_c, 0, 78, 0
2, 355845, Note_on_c, 0, 78, 88
2, 356351, Note_off_c, 0, 54, 0
2, 356577, Control_c, 0, 7, 102
2, 357405, Note_off_c, 0, 78, 0
2, 357601, Control_c, 0, 7, 110
2, 357602, End_track
0, 0, End_of_file
