0,0, Header,1,6,960,
1,0, Start_track,,,,
1,0, Title_t,Kumo,,,
1,0, Tempo,1052631,,,
1,0, Time_signature,2,2,24,8
1,1920, Time_signature,4,2,24,8
1,36480, Tempo,779219,,,
1,36480, End_track,,,,
2,0, Start_track,,,,
2,0, Title_t,Right,,,
2,0, MIDI_port,0,,,
2,0, Program_c,0,0,,
2,3840, Note_on_c,0,89,100,
2,4800, Note_off_c,0,89,0,
2,4800, Note_on_c,0,91,100,
2,5760, Note_off_c,0,91,0,
2,5760, Note_on_c,0,94,100,
2,6240, Note_off_c,0,94,0,
2,6240, Note_on_c,0,96,100,
2,6720, Note_off_c,0,96,0,
2,6720, Note_on_c,0,91,100,
2,7200, Note_off_c,0,91,0,
2,7200, Note_on_c,0,89,100,
2,7680, Note_off_c,0,89,0,
2,7680, Note_on_c,0,91,100,
2,8160, Note_off_c,0,91,0,
2,8160, Note_on_c,0,84,100,
2,8640, Note_off_c,0,84,0,
2,8640, Note_on_c,0,87,100,
2,9120, Note_off_c,0,87,0,
2,9120, Note_on_c,0,89,100,
2,9600, Note_off_c,0,89,0,
2,9600, Note_on_c,0,86,100,
2,10080, Note_off_c,0,86,0,
2,10080, Note_on_c,0,87,100,
2,10560, Note_off_c,0,87,0,
2,10560, Note_on_c,0,86,100,
2,11040, Note_off_c,0,86,0,
2,11040, Note_on_c,0,82,100,
2,11520, Note_off_c,0,82,0,
2,11520, Note_on_c,0,84,100,
2,12480, Note_off_c,0,84,0,
2,12480, Note_on_c,0,79,100,
2,12960, Note_off_c,0,79,0,
2,12960, Note_on_c,0,82,100,
2,13440, Note_off_c,0,82,0,
2,13440, Note_on_c,0,84,100,
2,13920, Note_off_c,0,84,0,
2,13920, Note_on_c,0,87,100,
2,14400, Note_off_c,0,87,0,
2,14400, Note_on_c,0,89,100,
2,14880, Note_off_c,0,89,0,
2,14880, Note_on_c,0,87,100,
2,15360, Note_off_c,0,87,0,
2,15360, Note_on_c,0,89,100,
2,16320, Note_off_c,0,89,0,
2,16320, Note_on_c,0,89,100,
2,16800, Note_off_c,0,89,0,
2,16800, Note_on_c,0,87,100,
2,17280, Note_off_c,0,87,0,
2,17280, Note_on_c,0,89,100,
2,17760, Note_off_c,0,89,0,
2,17760, Note_on_c,0,94,100,
2,18240, Note_off_c,0,94,0,
2,18240, Note_on_c,0,91,100,
2,20160, Note_off_c,0,91,0,
2,20160, Note_on_c,0,91,100,
2,20640, Note_off_c,0,91,0,
2,20640, Note_on_c,0,94,100,
2,21120, Note_off_c,0,94,0,
2,21120, Note_on_c,0,96,100,
2,21600, Note_off_c,0,96,0,
2,21600, Note_on_c,0,96,100,
2,22080, Note_off_c,0,96,0,
2,22080, Note_on_c,0,94,100,
2,22560, Note_off_c,0,94,0,
2,22560, Note_on_c,0,96,100,
2,23040, Note_off_c,0,96,0,
2,23040, Note_on_c,0,91,100,
2,24000, Note_off_c,0,91,0,
2,24000, Note_on_c,0,91,100,
2,24480, Note_off_c,0,91,0,
2,24480, Note_on_c,0,87,100,
2,24960, Note_off_c,0,87,0,
2,24960, Note_on_c,0,89,100,
2,25440, Note_off_c,0,89,0,
2,25440, Note_on_c,0,91,100,
2,25920, Note_off_c,0,91,0,
2,25920, Note_on_c,0,89,100,
2,26400, Note_off_c,0,89,0,
2,26400, Note_on_c,0,87,100,
2,26880, Note_off_c,0,87,0,
2,26880, Note_on_c,0,84,100,
2,27840, Note_off_c,0,84,0,
2,27840, Note_on_c,0,84,100,
2,28320, Note_off_c,0,84,0,
2,28320, Note_on_c,0,82,100,
2,28800, Note_off_c,0,82,0,
2,28800, Note_on_c,0,84,100,
2,29760, Note_off_c,0,84,0,
2,29760, Note_on_c,0,89,100,
2,30240, Note_off_c,0,89,0,
2,30240, Note_on_c,0,91,100,
2,30720, Note_off_c,0,91,0,
2,30720, Note_on_c,0,94,100,
2,31200, Note_off_c,0,94,0,
2,31200, Note_on_c,0,91,100,
2,31680, Note_off_c,0,91,0,
2,31680, Note_on_c,0,94,100,
2,32640, Note_off_c,0,94,0,
2,32640, Note_on_c,0,96,100,
2,34560, Note_off_c,0,96,0,
2,34560, Note_on_c,0,96,100,
2,36480, Note_off_c,0,96,0,
2,40320, Note_on_c,0,72,100,
2,40800, Note_off_c,0,72,0,
2,40800, Note_on_c,0,74,100,
2,41280, Note_off_c,0,74,0,
2,41280, Note_on_c,0,75,100,
2,42720, Note_off_c,0,75,0,
2,42720, Note_on_c,0,72,100,
2,44160, Note_off_c,0,72,0,
2,44160, Note_on_c,0,79,100,
2,45120, Note_off_c,0,79,0,
2,45120, Note_on_c,0,77,100,
2,46560, Note_off_c,0,77,0,
2,46560, Note_on_c,0,74,100,
2,47520, Note_off_c,0,74,0,
2,47520, Note_on_c,0,74,100,
2,48000, Note_off_c,0,74,0,
2,48000, Note_on_c,0,75,100,
2,48480, Note_off_c,0,75,0,
2,48480, Note_on_c,0,77,100,
2,48960, Note_off_c,0,77,0,
2,48960, Note_on_c,0,77,100,
2,50400, Note_off_c,0,77,0,
2,50400, Note_on_c,0,79,100,
2,52800, Note_off_c,0,79,0,
2,54240, Note_on_c,0,79,100,
2,55200, Note_off_c,0,79,0,
2,55200, Note_on_c,0,80,100,
2,55680, Note_off_c,0,80,0,
2,55680, Note_on_c,0,79,100,
2,56160, Note_off_c,0,79,0,
2,56160, Note_on_c,0,75,100,
2,56640, Note_off_c,0,75,0,
2,56640, Note_on_c,0,72,100,
2,58080, Note_off_c,0,72,0,
2,58080, Note_on_c,0,72,100,
2,59040, Note_off_c,0,72,0,
2,59040, Note_on_c,0,72,100,
2,59520, Note_off_c,0,72,0,
2,59520, Note_on_c,0,74,100,
2,60000, Note_off_c,0,74,0,
2,60000, Note_on_c,0,75,100,
2,60480, Note_off_c,0,75,0,
2,60480, Note_on_c,0,75,100,
2,61920, Note_off_c,0,75,0,
2,61920, Note_on_c,0,74,100,
2,62880, Note_off_c,0,74,0,
2,62880, Note_on_c,0,74,100,
2,63360, Note_off_c,0,74,0,
2,63360, Note_on_c,0,75,100,
2,63840, Note_off_c,0,75,0,
2,63840, Note_on_c,0,77,100,
2,64320, Note_off_c,0,77,0,
2,64320, Note_on_c,0,77,100,
2,65760, Note_off_c,0,77,0,
2,65760, Note_on_c,0,79,100,
2,68160, Note_off_c,0,79,0,
2,70080, Note_on_c,0,72,100,
2,70560, Note_off_c,0,72,0,
2,70560, Note_on_c,0,75,100,
2,71040, Note_off_c,0,75,0,
2,71040, Note_on_c,0,77,100,
2,71520, Note_off_c,0,77,0,
2,71520, Note_on_c,0,79,100,
2,72000, Note_off_c,0,79,0,
2,72000, Note_on_c,0,82,100,
2,72480, Note_off_c,0,82,0,
2,72480, Note_on_c,0,84,100,
2,72960, Note_off_c,0,84,0,
2,72960, Note_on_c,0,79,100,
2,73440, Note_off_c,0,79,0,
2,73440, Note_on_c,0,77,100,
2,73920, Note_off_c,0,77,0,
2,73920, Note_on_c,0,79,100,
2,75840, Note_off_c,0,79,0,
2,78720, Note_on_c,0,74,100,
2,79200, Note_off_c,0,74,0,
2,79200, Note_on_c,0,75,100,
2,79680, Note_off_c,0,75,0,
2,79680, Note_on_c,0,74,100,
2,80160, Note_off_c,0,74,0,
2,80160, Note_on_c,0,75,100,
2,80640, Note_off_c,0,75,0,
2,80640, Note_on_c,0,74,100,
2,81120, Note_off_c,0,74,0,
2,81120, Note_on_c,0,70,100,
2,81600, Note_off_c,0,70,0,
2,81600, Note_on_c,0,72,100,
2,83520, Note_off_c,0,72,0,
2,85440, Note_on_c,0,72,100,
2,85920, Note_off_c,0,72,0,
2,85920, Note_on_c,0,75,100,
2,86400, Note_off_c,0,75,0,
2,86400, Note_on_c,0,77,100,
2,86880, Note_off_c,0,77,0,
2,86880, Note_on_c,0,79,100,
2,87360, Note_off_c,0,79,0,
2,87360, Note_on_c,0,82,100,
2,87840, Note_off_c,0,82,0,
2,87840, Note_on_c,0,84,100,
2,88320, Note_off_c,0,84,0,
2,88320, Note_on_c,0,79,100,
2,88800, Note_off_c,0,79,0,
2,88800, Note_on_c,0,77,100,
2,89280, Note_off_c,0,77,0,
2,89280, Note_on_c,0,79,100,
2,91200, Note_off_c,0,79,0,
2,94080, Note_on_c,0,87,100,
2,95040, Note_off_c,0,87,0,
2,95040, Note_on_c,0,86,100,
2,96480, Note_off_c,0,86,0,
2,96480, Note_on_c,0,84,100,
2,98880, Note_off_c,0,84,0,
2,98880, Note_on_c,0,72,100,
2,99360, Note_off_c,0,72,0,
2,99360, Note_on_c,0,75,100,
2,99840, Note_off_c,0,75,0,
2,99840, Note_on_c,0,79,100,
2,100320, Note_off_c,0,79,0,
2,100320, Note_on_c,0,82,100,
2,100800, Note_off_c,0,82,0,
2,100800, Note_on_c,0,84,100,
2,102720, Note_off_c,0,84,0,
2,105600, Note_on_c,0,72,100,
2,106080, Note_off_c,0,72,0,
2,106080, Note_on_c,0,74,100,
2,106560, Note_off_c,0,74,0,
2,106560, Note_on_c,0,75,100,
2,108000, Note_off_c,0,75,0,
2,108000, Note_on_c,0,79,100,
2,108480, Note_off_c,0,79,0,
2,108480, Note_on_c,0,77,100,
2,108960, Note_off_c,0,77,0,
2,108960, Note_on_c,0,75,100,
2,109440, Note_off_c,0,75,0,
2,109440, Note_on_c,0,74,100,
2,109920, Note_off_c,0,74,0,
2,109920, Note_on_c,0,75,100,
2,110400, Note_off_c,0,75,0,
2,110400, Note_on_c,0,72,100,
2,111840, Note_off_c,0,72,0,
2,111840, Note_on_c,0,74,100,
2,112320, Note_off_c,0,74,0,
2,112320, Note_on_c,0,75,100,
2,113280, Note_off_c,0,75,0,
2,113280, Note_on_c,0,72,100,
2,114240, Note_off_c,0,72,0,
2,114240, Note_on_c,0,77,100,
2,115680, Note_off_c,0,77,0,
2,115680, Note_on_c,0,75,100,
2,116160, Note_off_c,0,75,0,
2,116160, Note_on_c,0,77,100,
2,116640, Note_off_c,0,77,0,
2,116640, Note_on_c,0,75,100,
2,117120, Note_off_c,0,75,0,
2,117120, Note_on_c,0,77,100,
2,117600, Note_off_c,0,77,0,
2,117600, Note_on_c,0,79,100,
2,118080, Note_off_c,0,79,0,
2,118080, Note_on_c,0,79,100,
2,119520, Note_off_c,0,79,0,
2,119520, Note_on_c,0,77,100,
2,119760, Note_off_c,0,77,0,
2,119760, Note_on_c,0,79,100,
2,120000, Note_off_c,0,79,0,
2,120000, Note_on_c,0,79,100,
2,121440, Note_off_c,0,79,0,
2,121440, Note_on_c,0,72,100,
2,121680, Note_off_c,0,72,0,
2,121680, Note_on_c,0,74,100,
2,121920, Note_off_c,0,74,0,
2,121920, Note_on_c,0,75,100,
2,123360, Note_off_c,0,75,0,
2,123360, Note_on_c,0,79,100,
2,123840, Note_off_c,0,79,0,
2,123840, Note_on_c,0,77,100,
2,124320, Note_off_c,0,77,0,
2,124320, Note_on_c,0,75,100,
2,124800, Note_off_c,0,75,0,
2,124800, Note_on_c,0,77,100,
2,125280, Note_off_c,0,77,0,
2,125280, Note_on_c,0,79,100,
2,125760, Note_off_c,0,79,0,
2,125760, Note_on_c,0,82,100,
2,127200, Note_off_c,0,82,0,
2,127200, Note_on_c,0,84,100,
2,127680, Note_off_c,0,84,0,
2,127680, Note_on_c,0,75,100,
2,129120, Note_off_c,0,75,0,
2,129120, Note_on_c,0,72,100,
2,129600, Note_off_c,0,72,0,
2,129600, Note_on_c,0,74,100,
2,131040, Note_off_c,0,74,0,
2,131040, Note_on_c,0,72,100,
2,131520, Note_off_c,0,72,0,
2,131520, Note_on_c,0,74,100,
2,132000, Note_off_c,0,74,0,
2,132000, Note_on_c,0,75,100,
2,132480, Note_off_c,0,75,0,
2,132480, Note_on_c,0,77,100,
2,132960, Note_off_c,0,77,0,
2,132960, Note_on_c,0,74,100,
2,133440, Note_off_c,0,74,0,
2,133440, Note_on_c,0,74,100,
2,134880, Note_off_c,0,74,0,
2,134880, Note_on_c,0,75,100,
2,135120, Note_off_c,0,75,0,
2,135120, Note_on_c,0,74,100,
2,135360, Note_off_c,0,74,0,
2,135360, Note_on_c,0,72,100,
2,136320, Note_off_c,0,72,0,
2,136320, Note_on_c,0,72,100,
2,136800, Note_off_c,0,72,0,
2,136800, Note_on_c,0,74,100,
2,137280, Note_off_c,0,74,0,
2,137280, Note_on_c,0,75,100,
2,138720, Note_off_c,0,75,0,
2,138720, Note_on_c,0,79,100,
2,139200, Note_off_c,0,79,0,
2,139200, Note_on_c,0,77,100,
2,139680, Note_off_c,0,77,0,
2,139680, Note_on_c,0,75,100,
2,140160, Note_off_c,0,75,0,
2,140160, Note_on_c,0,74,100,
2,140640, Note_off_c,0,74,0,
2,140640, Note_on_c,0,75,100,
2,141120, Note_off_c,0,75,0,
2,141120, Note_on_c,0,72,100,
2,142560, Note_off_c,0,72,0,
2,142560, Note_on_c,0,74,100,
2,143040, Note_off_c,0,74,0,
2,143040, Note_on_c,0,75,100,
2,144000, Note_off_c,0,75,0,
2,144000, Note_on_c,0,72,100,
2,144960, Note_off_c,0,72,0,
2,144960, Note_on_c,0,77,100,
2,146400, Note_off_c,0,77,0,
2,146400, Note_on_c,0,75,100,
2,146880, Note_off_c,0,75,0,
2,146880, Note_on_c,0,77,100,
2,147360, Note_off_c,0,77,0,
2,147360, Note_on_c,0,75,100,
2,147840, Note_off_c,0,75,0,
2,147840, Note_on_c,0,77,100,
2,148320, Note_off_c,0,77,0,
2,148320, Note_on_c,0,79,100,
2,148800, Note_off_c,0,79,0,
2,148800, Note_on_c,0,79,100,
2,150240, Note_off_c,0,79,0,
2,150240, Note_on_c,0,77,100,
2,150480, Note_off_c,0,77,0,
2,150480, Note_on_c,0,79,100,
2,150720, Note_off_c,0,79,0,
2,150720, Note_on_c,0,79,100,
2,152160, Note_off_c,0,79,0,
2,152160, Note_on_c,0,72,100,
2,152400, Note_off_c,0,72,0,
2,152400, Note_on_c,0,74,100,
2,152640, Note_off_c,0,74,0,
2,152640, Note_on_c,0,75,100,
2,154080, Note_off_c,0,75,0,
2,154080, Note_on_c,0,79,100,
2,154560, Note_off_c,0,79,0,
2,154560, Note_on_c,0,77,100,
2,155040, Note_off_c,0,77,0,
2,155040, Note_on_c,0,75,100,
2,155520, Note_off_c,0,75,0,
2,155520, Note_on_c,0,77,100,
2,156000, Note_off_c,0,77,0,
2,156000, Note_on_c,0,79,100,
2,156480, Note_off_c,0,79,0,
2,156480, Note_on_c,0,82,100,
2,157920, Note_off_c,0,82,0,
2,157920, Note_on_c,0,84,100,
2,158400, Note_off_c,0,84,0,
2,158400, Note_on_c,0,75,100,
2,159840, Note_off_c,0,75,0,
2,159840, Note_on_c,0,72,100,
2,160320, Note_off_c,0,72,0,
2,160320, Note_on_c,0,74,100,
2,161760, Note_off_c,0,74,0,
2,161760, Note_on_c,0,72,100,
2,162240, Note_off_c,0,72,0,
2,162240, Note_on_c,0,74,100,
2,162720, Note_off_c,0,74,0,
2,162720, Note_on_c,0,75,100,
2,163200, Note_off_c,0,75,0,
2,163200, Note_on_c,0,77,100,
2,163680, Note_off_c,0,77,0,
2,163680, Note_on_c,0,74,100,
2,164160, Note_off_c,0,74,0,
2,164160, Note_on_c,0,74,100,
2,165600, Note_off_c,0,74,0,
2,165600, Note_on_c,0,75,100,
2,165840, Note_off_c,0,75,0,
2,165840, Note_on_c,0,74,100,
2,166080, Note_off_c,0,74,0,
2,166080, Note_on_c,0,72,100,
2,167040, Note_off_c,0,72,0,
2,167040, Note_on_c,0,77,100,
2,167520, Note_off_c,0,77,0,
2,167520, Note_on_c,0,79,100,
2,168000, Note_off_c,0,79,0,
2,168000, Note_on_c,0,82,100,
2,168480, Note_off_c,0,82,0,
2,168480, Note_on_c,0,84,100,
2,168960, Note_off_c,0,84,0,
2,168960, Note_on_c,0,79,100,
2,169440, Note_off_c,0,79,0,
2,169440, Note_on_c,0,77,100,
2,169920, Note_off_c,0,77,0,
2,169920, Note_on_c,0,79,100,
2,170400, Note_off_c,0,79,0,
2,170400, Note_on_c,0,72,100,
2,170880, Note_off_c,0,72,0,
2,170880, Note_on_c,0,75,100,
2,171360, Note_off_c,0,75,0,
2,171360, Note_on_c,0,77,100,
2,171840, Note_off_c,0,77,0,
2,171840, Note_on_c,0,74,100,
2,172320, Note_off_c,0,74,0,
2,172320, Note_on_c,0,75,100,
2,172800, Note_off_c,0,75,0,
2,172800, Note_on_c,0,74,100,
2,173280, Note_off_c,0,74,0,
2,173280, Note_on_c,0,70,100,
2,173760, Note_off_c,0,70,0,
2,173760, Note_on_c,0,72,100,
2,174720, Note_off_c,0,72,0,
2,174720, Note_on_c,0,67,100,
2,175200, Note_off_c,0,67,0,
2,175200, Note_on_c,0,70,100,
2,175680, Note_off_c,0,70,0,
2,175680, Note_on_c,0,72,100,
2,176160, Note_off_c,0,72,0,
2,176160, Note_on_c,0,75,100,
2,176640, Note_off_c,0,75,0,
2,176640, Note_on_c,0,77,100,
2,177120, Note_off_c,0,77,0,
2,177120, Note_on_c,0,75,100,
2,177600, Note_off_c,0,75,0,
2,177600, Note_on_c,0,77,100,
2,178560, Note_off_c,0,77,0,
2,178560, Note_on_c,0,77,100,
2,179040, Note_off_c,0,77,0,
2,179040, Note_on_c,0,75,100,
2,179520, Note_off_c,0,75,0,
2,179520, Note_on_c,0,77,100,
2,180000, Note_off_c,0,77,0,
2,180000, Note_on_c,0,82,100,
2,180480, Note_off_c,0,82,0,
2,180480, Note_on_c,0,79,100,
2,182400, Note_off_c,0,79,0,
2,182400, Note_on_c,0,79,100,
2,182880, Note_off_c,0,79,0,
2,182880, Note_on_c,0,82,100,
2,183360, Note_off_c,0,82,0,
2,183360, Note_on_c,0,84,100,
2,183840, Note_off_c,0,84,0,
2,183840, Note_on_c,0,84,100,
2,184320, Note_off_c,0,84,0,
2,184320, Note_on_c,0,82,100,
2,184800, Note_off_c,0,82,0,
2,184800, Note_on_c,0,84,100,
2,185280, Note_off_c,0,84,0,
2,185280, Note_on_c,0,79,100,
2,186240, Note_off_c,0,79,0,
2,186240, Note_on_c,0,79,100,
2,186720, Note_off_c,0,79,0,
2,186720, Note_on_c,0,75,100,
2,187200, Note_off_c,0,75,0,
2,187200, Note_on_c,0,77,100,
2,187680, Note_off_c,0,77,0,
2,187680, Note_on_c,0,79,100,
2,188160, Note_off_c,0,79,0,
2,188160, Note_on_c,0,77,100,
2,188640, Note_off_c,0,77,0,
2,188640, Note_on_c,0,75,100,
2,189120, Note_off_c,0,75,0,
2,189120, Note_on_c,0,72,100,
2,190080, Note_off_c,0,72,0,
2,190080, Note_on_c,0,72,100,
2,190560, Note_off_c,0,72,0,
2,190560, Note_on_c,0,70,100,
2,191040, Note_off_c,0,70,0,
2,191040, Note_on_c,0,72,100,
2,192000, Note_off_c,0,72,0,
2,192000, Note_on_c,0,77,100,
2,192480, Note_off_c,0,77,0,
2,192480, Note_on_c,0,79,100,
2,192960, Note_off_c,0,79,0,
2,192960, Note_on_c,0,82,100,
2,193440, Note_off_c,0,82,0,
2,193440, Note_on_c,0,79,100,
2,193920, Note_off_c,0,79,0,
2,193920, Note_on_c,0,82,100,
2,194880, Note_off_c,0,82,0,
2,194880, Note_on_c,0,84,100,
2,198720, Note_off_c,0,84,0,
2,198720, Note_on_c,0,83,100,
2,199200, Note_off_c,0,83,0,
2,199200, Note_on_c,0,85,100,
2,199680, Note_off_c,0,85,0,
2,199680, Note_on_c,0,80,100,
2,200160, Note_off_c,0,80,0,
2,200160, Note_on_c,0,78,100,
2,200640, Note_off_c,0,78,0,
2,200640, Note_on_c,0,80,100,
2,201120, Note_off_c,0,80,0,
2,201120, Note_on_c,0,73,100,
2,201600, Note_off_c,0,73,0,
2,201600, Note_on_c,0,76,100,
2,202080, Note_off_c,0,76,0,
2,202080, Note_on_c,0,78,100,
2,202560, Note_off_c,0,78,0,
2,202560, Note_on_c,0,75,100,
2,203040, Note_off_c,0,75,0,
2,203040, Note_on_c,0,76,100,
2,203520, Note_off_c,0,76,0,
2,203520, Note_on_c,0,75,100,
2,204000, Note_off_c,0,75,0,
2,204000, Note_on_c,0,71,100,
2,204480, Note_off_c,0,71,0,
2,204480, Note_on_c,0,73,100,
2,205440, Note_off_c,0,73,0,
2,205440, Note_on_c,0,68,100,
2,205920, Note_off_c,0,68,0,
2,205920, Note_on_c,0,71,100,
2,206400, Note_off_c,0,71,0,
2,206400, Note_on_c,0,73,100,
2,206880, Note_off_c,0,73,0,
2,206880, Note_on_c,0,76,100,
2,207360, Note_off_c,0,76,0,
2,207360, Note_on_c,0,78,100,
2,207840, Note_off_c,0,78,0,
2,207840, Note_on_c,0,76,100,
2,208320, Note_off_c,0,76,0,
2,208320, Note_on_c,0,78,100,
2,209280, Note_off_c,0,78,0,
2,209280, Note_on_c,0,78,100,
2,209760, Note_off_c,0,78,0,
2,209760, Note_on_c,0,76,100,
2,210240, Note_off_c,0,76,0,
2,210240, Note_on_c,0,78,100,
2,210720, Note_off_c,0,78,0,
2,210720, Note_on_c,0,83,100,
2,211200, Note_off_c,0,83,0,
2,211200, Note_on_c,0,80,100,
2,213120, Note_off_c,0,80,0,
2,213120, Note_on_c,0,80,100,
2,213600, Note_off_c,0,80,0,
2,213600, Note_on_c,0,83,100,
2,214080, Note_off_c,0,83,0,
2,214080, Note_on_c,0,85,100,
2,214560, Note_off_c,0,85,0,
2,214560, Note_on_c,0,85,100,
2,215040, Note_off_c,0,85,0,
2,215040, Note_on_c,0,83,100,
2,215520, Note_off_c,0,83,0,
2,215520, Note_on_c,0,85,100,
2,216000, Note_off_c,0,85,0,
2,216000, Note_on_c,0,80,100,
2,216960, Note_off_c,0,80,0,
2,216960, Note_on_c,0,80,100,
2,217440, Note_off_c,0,80,0,
2,217440, Note_on_c,0,76,100,
2,217920, Note_off_c,0,76,0,
2,217920, Note_on_c,0,78,100,
2,218400, Note_off_c,0,78,0,
2,218400, Note_on_c,0,80,100,
2,218880, Note_off_c,0,80,0,
2,218880, Note_on_c,0,78,100,
2,219360, Note_off_c,0,78,0,
2,219360, Note_on_c,0,76,100,
2,219840, Note_off_c,0,76,0,
2,219840, Note_on_c,0,73,100,
2,220800, Note_off_c,0,73,0,
2,220800, Note_on_c,0,73,100,
2,221280, Note_off_c,0,73,0,
2,221280, Note_on_c,0,71,100,
2,221760, Note_off_c,0,71,0,
2,221760, Note_on_c,0,73,100,
2,222720, Note_off_c,0,73,0,
2,222720, Note_on_c,0,78,100,
2,223200, Note_off_c,0,78,0,
2,223200, Note_on_c,0,80,100,
2,223680, Note_off_c,0,80,0,
2,223680, Note_on_c,0,83,100,
2,224160, Note_off_c,0,83,0,
2,224160, Note_on_c,0,80,100,
2,224640, Note_off_c,0,80,0,
2,224640, Note_on_c,0,83,100,
2,225600, Note_off_c,0,83,0,
2,225600, Note_on_c,0,85,100,
2,227520, Note_off_c,0,85,0,
2,228480, Note_on_c,0,73,100,
2,228960, Note_off_c,0,73,0,
2,228960, Note_on_c,0,75,100,
2,229440, Note_off_c,0,75,0,
2,229440, Note_on_c,0,76,100,
2,230880, Note_off_c,0,76,0,
2,230880, Note_on_c,0,73,100,
2,232320, Note_off_c,0,73,0,
2,232320, Note_on_c,0,80,100,
2,233280, Note_off_c,0,80,0,
2,233280, Note_on_c,0,78,100,
2,234720, Note_off_c,0,78,0,
2,234720, Note_on_c,0,75,100,
2,235680, Note_off_c,0,75,0,
2,235680, Note_on_c,0,75,100,
2,236160, Note_off_c,0,75,0,
2,236160, Note_on_c,0,76,100,
2,236640, Note_off_c,0,76,0,
2,236640, Note_on_c,0,78,100,
2,237120, Note_off_c,0,78,0,
2,237120, Note_on_c,0,78,100,
2,238560, Note_off_c,0,78,0,
2,238560, Note_on_c,0,80,100,
2,240960, Note_off_c,0,80,0,
2,242400, Note_on_c,0,80,100,
2,243360, Note_off_c,0,80,0,
2,243360, Note_on_c,0,81,100,
2,243840, Note_off_c,0,81,0,
2,243840, Note_on_c,0,80,100,
2,244320, Note_off_c,0,80,0,
2,244320, Note_on_c,0,76,100,
2,244800, Note_off_c,0,76,0,
2,244800, Note_on_c,0,73,100,
2,246240, Note_off_c,0,73,0,
2,246240, Note_on_c,0,73,100,
2,247200, Note_off_c,0,73,0,
2,247200, Note_on_c,0,73,100,
2,247680, Note_off_c,0,73,0,
2,247680, Note_on_c,0,75,100,
2,248160, Note_off_c,0,75,0,
2,248160, Note_on_c,0,76,100,
2,248640, Note_off_c,0,76,0,
2,248640, Note_on_c,0,76,100,
2,250080, Note_off_c,0,76,0,
2,250080, Note_on_c,0,75,100,
2,251040, Note_off_c,0,75,0,
2,251040, Note_on_c,0,75,100,
2,251520, Note_off_c,0,75,0,
2,251520, Note_on_c,0,76,100,
2,252000, Note_off_c,0,76,0,
2,252000, Note_on_c,0,78,100,
2,252480, Note_off_c,0,78,0,
2,252480, Note_on_c,0,78,100,
2,253920, Note_off_c,0,78,0,
2,253920, Note_on_c,0,80,100,
2,256320, Note_off_c,0,80,0,
2,258240, Note_on_c,0,73,100,
2,258720, Note_off_c,0,73,0,
2,258720, Note_on_c,0,76,100,
2,259200, Note_off_c,0,76,0,
2,259200, Note_on_c,0,78,100,
2,259680, Note_off_c,0,78,0,
2,259680, Note_on_c,0,80,100,
2,260160, Note_off_c,0,80,0,
2,260160, Note_on_c,0,83,100,
2,260640, Note_off_c,0,83,0,
2,260640, Note_on_c,0,85,100,
2,261120, Note_off_c,0,85,0,
2,261120, Note_on_c,0,80,100,
2,261600, Note_off_c,0,80,0,
2,261600, Note_on_c,0,78,100,
2,262080, Note_off_c,0,78,0,
2,262080, Note_on_c,0,80,100,
2,264000, Note_off_c,0,80,0,
2,266880, Note_on_c,0,75,100,
2,267360, Note_off_c,0,75,0,
2,267360, Note_on_c,0,76,100,
2,267840, Note_off_c,0,76,0,
2,267840, Note_on_c,0,75,100,
2,268320, Note_off_c,0,75,0,
2,268320, Note_on_c,0,76,100,
2,268800, Note_off_c,0,76,0,
2,268800, Note_on_c,0,75,100,
2,269280, Note_off_c,0,75,0,
2,269280, Note_on_c,0,71,100,
2,269760, Note_off_c,0,71,0,
2,269760, Note_on_c,0,73,100,
2,271680, Note_off_c,0,73,0,
2,273600, Note_on_c,0,73,100,
2,274080, Note_off_c,0,73,0,
2,274080, Note_on_c,0,76,100,
2,274560, Note_off_c,0,76,0,
2,274560, Note_on_c,0,78,100,
2,275040, Note_off_c,0,78,0,
2,275040, Note_on_c,0,80,100,
2,275520, Note_off_c,0,80,0,
2,275520, Note_on_c,0,83,100,
2,276000, Note_off_c,0,83,0,
2,276000, Note_on_c,0,85,100,
2,276480, Note_off_c,0,85,0,
2,276480, Note_on_c,0,80,100,
2,276960, Note_off_c,0,80,0,
2,276960, Note_on_c,0,78,100,
2,277440, Note_off_c,0,78,0,
2,277440, Note_on_c,0,80,100,
2,279360, Note_off_c,0,80,0,
2,282240, Note_on_c,0,88,100,
2,283200, Note_off_c,0,88,0,
2,283200, Note_on_c,0,87,100,
2,284640, Note_off_c,0,87,0,
2,284640, Note_on_c,0,85,100,
2,287040, Note_off_c,0,85,0,
2,287040, Note_on_c,0,73,100,
2,287520, Note_off_c,0,73,0,
2,287520, Note_on_c,0,76,100,
2,288000, Note_off_c,0,76,0,
2,288000, Note_on_c,0,80,100,
2,288480, Note_off_c,0,80,0,
2,288480, Note_on_c,0,83,100,
2,288960, Note_off_c,0,83,0,
2,288960, Note_on_c,0,85,100,
2,290880, Note_off_c,0,85,0,
2,290880, End_track,,,,
3,0, Start_track,,,,
3,0, Title_t,Left,,,
3,0, MIDI_port,0,,,
3,0, Program_c,1,0,,
3,5720, Control_c,1,64,127,
3,5760, Note_on_c,1,68,90,
3,6240, Note_off_c,1,68,0,
3,6240, Note_on_c,1,72,90,
3,6720, Note_off_c,1,72,0,
3,6720, Note_on_c,1,75,90,
3,7680, Note_off_c,1,75,0,
3,7680, Note_on_c,1,70,90,
3,8160, Note_off_c,1,70,0,
3,8160, Note_on_c,1,74,90,
3,8640, Note_off_c,1,74,0,
3,8640, Note_on_c,1,77,90,
3,9600, Note_off_c,1,77,0,
3,9600, Note_on_c,1,72,90,
3,10080, Note_off_c,1,72,0,
3,10080, Note_on_c,1,75,90,
3,10560, Note_off_c,1,75,0,
3,10560, Note_on_c,1,79,90,
3,11520, Note_off_c,1,79,0,
3,13440, Note_on_c,1,68,90,
3,13920, Note_off_c,1,68,0,
3,13920, Note_on_c,1,72,90,
3,14400, Note_off_c,1,72,0,
3,14400, Note_on_c,1,75,90,
3,15360, Note_off_c,1,75,0,
3,15360, Note_on_c,1,70,90,
3,15840, Note_off_c,1,70,0,
3,15840, Note_on_c,1,74,90,
3,16320, Note_off_c,1,74,0,
3,16320, Note_on_c,1,77,90,
3,17280, Note_off_c,1,77,0,
3,17280, Note_on_c,1,72,90,
3,17760, Note_off_c,1,72,0,
3,17760, Note_on_c,1,75,90,
3,18240, Note_off_c,1,75,0,
3,18240, Note_on_c,1,79,90,
3,18720, Note_off_c,1,79,0,
3,18720, Note_on_c,1,82,90,
3,19680, Note_off_c,1,82,0,
3,19680, Note_on_c,1,79,90,
3,20160, Note_off_c,1,79,0,
3,20160, Note_on_c,1,75,90,
3,20640, Note_off_c,1,75,0,
3,20640, Note_on_c,1,72,90,
3,21120, Note_off_c,1,72,0,
3,21120, Note_on_c,1,68,90,
3,21600, Note_off_c,1,68,0,
3,21600, Note_on_c,1,72,90,
3,22080, Note_off_c,1,72,0,
3,22080, Note_on_c,1,75,90,
3,23040, Note_off_c,1,75,0,
3,23040, Note_on_c,1,70,90,
3,23520, Note_off_c,1,70,0,
3,23520, Note_on_c,1,74,90,
3,24000, Note_off_c,1,74,0,
3,24000, Note_on_c,1,77,90,
3,24960, Note_off_c,1,77,0,
3,24960, Note_on_c,1,72,90,
3,24960, Note_on_c,1,75,90,
3,24960, Note_on_c,1,79,90,
3,25920, Note_off_c,1,72,0,
3,25920, Note_off_c,1,75,0,
3,25920, Note_off_c,1,79,0,
3,25920, Note_on_c,1,70,90,
3,25920, Note_on_c,1,74,90,
3,25920, Note_on_c,1,77,90,
3,26880, Note_off_c,1,70,0,
3,26880, Note_off_c,1,74,0,
3,26880, Note_off_c,1,77,0,
3,26880, Note_on_c,1,69,90,
3,26880, Note_on_c,1,72,90,
3,26880, Note_on_c,1,75,90,
3,28800, Note_off_c,1,69,0,
3,28800, Note_off_c,1,72,0,
3,28800, Note_off_c,1,75,0,
3,28800, Note_on_c,1,68,90,
3,29280, Note_off_c,1,68,0,
3,29280, Note_on_c,1,72,90,
3,29760, Note_off_c,1,72,0,
3,29760, Note_on_c,1,77,90,
3,30720, Note_off_c,1,77,0,
3,30720, Note_on_c,1,70,90,
3,31200, Note_off_c,1,70,0,
3,31200, Note_on_c,1,74,90,
3,31680, Note_off_c,1,74,0,
3,31680, Note_on_c,1,77,90,
3,32640, Note_off_c,1,77,0,
3,32640, Note_on_c,1,72,90,
3,32640, Note_on_c,1,75,90,
3,32640, Note_on_c,1,79,90,
3,36480, Note_off_c,1,72,0,
3,36480, Note_off_c,1,75,0,
3,36480, Note_off_c,1,79,0,
3,41280, Note_on_c,1,56,90,
3,41760, Note_off_c,1,56,0,
3,41760, Note_on_c,1,60,90,
3,42240, Note_off_c,1,60,0,
3,42240, Note_on_c,1,63,90,
3,45120, Note_off_c,1,63,0,
3,45120, Note_on_c,1,58,90,
3,45600, Note_off_c,1,58,0,
3,45600, Note_on_c,1,62,90,
3,46080, Note_off_c,1,62,0,
3,46080, Note_on_c,1,65,90,
3,48960, Note_off_c,1,65,0,
3,48960, Note_on_c,1,60,90,
3,49440, Note_off_c,1,60,0,
3,49440, Note_on_c,1,63,90,
3,49920, Note_off_c,1,63,0,
3,49920, Note_on_c,1,67,90,
3,52800, Note_off_c,1,67,0,
3,52800, Note_on_c,1,60,90,
3,53280, Note_off_c,1,60,0,
3,53280, Note_on_c,1,63,90,
3,53760, Note_off_c,1,63,0,
3,53760, Note_on_c,1,67,90,
3,56640, Note_off_c,1,67,0,
3,56640, Note_on_c,1,56,90,
3,57120, Note_off_c,1,56,0,
3,57120, Note_on_c,1,60,90,
3,57600, Note_off_c,1,60,0,
3,57600, Note_on_c,1,63,90,
3,60480, Note_off_c,1,63,0,
3,60480, Note_on_c,1,58,90,
3,60960, Note_off_c,1,58,0,
3,60960, Note_on_c,1,62,90,
3,61440, Note_off_c,1,62,0,
3,61440, Note_on_c,1,65,90,
3,64320, Note_off_c,1,65,0,
3,64320, Note_on_c,1,60,90,
3,64800, Note_off_c,1,60,0,
3,64800, Note_on_c,1,63,90,
3,65280, Note_off_c,1,63,0,
3,65280, Note_on_c,1,67,90,
3,68160, Note_off_c,1,67,0,
3,68160, Note_on_c,1,60,90,
3,68640, Note_off_c,1,60,0,
3,68640, Note_on_c,1,63,90,
3,69120, Note_off_c,1,63,0,
3,69120, Note_on_c,1,67,90,
3,69600, Note_off_c,1,67,0,
3,69600, Note_on_c,1,70,90,
3,70080, Note_off_c,1,70,0,
3,72000, Note_on_c,1,56,90,
3,72480, Note_off_c,1,56,0,
3,72480, Note_on_c,1,60,90,
3,72960, Note_off_c,1,60,0,
3,72960, Note_on_c,1,63,90,
3,75840, Note_off_c,1,63,0,
3,75840, Note_on_c,1,58,90,
3,76320, Note_off_c,1,58,0,
3,76320, Note_on_c,1,62,90,
3,76800, Note_off_c,1,62,0,
3,76800, Note_on_c,1,65,90,
3,79680, Note_off_c,1,65,0,
3,79680, Note_on_c,1,60,90,
3,80160, Note_off_c,1,60,0,
3,80160, Note_on_c,1,63,90,
3,80640, Note_off_c,1,63,0,
3,80640, Note_on_c,1,67,90,
3,83520, Note_off_c,1,67,0,
3,83520, Note_on_c,1,60,90,
3,84000, Note_off_c,1,60,0,
3,84000, Note_on_c,1,63,90,
3,84480, Note_off_c,1,63,0,
3,84480, Note_on_c,1,67,90,
3,84960, Note_off_c,1,67,0,
3,84960, Note_on_c,1,70,90,
3,85440, Note_off_c,1,70,0,
3,87360, Note_on_c,1,56,90,
3,87840, Note_off_c,1,56,0,
3,87840, Note_on_c,1,60,90,
3,88320, Note_off_c,1,60,0,
3,88320, Note_on_c,1,63,90,
3,91200, Note_off_c,1,63,0,
3,91200, Note_on_c,1,58,90,
3,91680, Note_off_c,1,58,0,
3,91680, Note_on_c,1,62,90,
3,92160, Note_off_c,1,62,0,
3,92160, Note_on_c,1,65,90,
3,92640, Note_off_c,1,65,0,
3,92640, Note_on_c,1,70,90,
3,93120, Note_off_c,1,70,0,
3,93120, Note_on_c,1,74,90,
3,95040, Note_off_c,1,74,0,
3,95040, Note_on_c,1,60,90,
3,95520, Note_off_c,1,60,0,
3,95520, Note_on_c,1,63,90,
3,96000, Note_off_c,1,63,0,
3,96000, Note_on_c,1,67,90,
3,98880, Note_off_c,1,67,0,
3,106560, Note_on_c,1,60,90,
3,107040, Note_off_c,1,60,0,
3,107040, Note_on_c,1,63,90,
3,107520, Note_off_c,1,63,0,
3,107520, Note_on_c,1,67,90,
3,110400, Note_off_c,1,67,0,
3,110400, Note_on_c,1,56,90,
3,110880, Note_off_c,1,56,0,
3,110880, Note_on_c,1,60,90,
3,111360, Note_off_c,1,60,0,
3,111360, Note_on_c,1,63,90,
3,114240, Note_off_c,1,63,0,
3,114240, Note_on_c,1,58,90,
3,114720, Note_off_c,1,58,0,
3,114720, Note_on_c,1,62,90,
3,115200, Note_off_c,1,62,0,
3,115200, Note_on_c,1,65,90,
3,118080, Note_off_c,1,65,0,
3,118080, Note_on_c,1,55,90,
3,118560, Note_off_c,1,55,0,
3,118560, Note_on_c,1,58,90,
3,119040, Note_off_c,1,58,0,
3,119040, Note_on_c,1,62,90,
3,121920, Note_off_c,1,62,0,
3,121920, Note_on_c,1,60,90,
3,122400, Note_off_c,1,60,0,
3,122400, Note_on_c,1,63,90,
3,122880, Note_off_c,1,63,0,
3,122880, Note_on_c,1,67,90,
3,125760, Note_off_c,1,67,0,
3,125760, Note_on_c,1,56,90,
3,126240, Note_off_c,1,56,0,
3,126240, Note_on_c,1,60,90,
3,126720, Note_off_c,1,60,0,
3,126720, Note_on_c,1,63,90,
3,129600, Note_off_c,1,63,0,
3,129600, Note_on_c,1,58,90,
3,130080, Note_off_c,1,58,0,
3,130080, Note_on_c,1,62,90,
3,130560, Note_off_c,1,62,0,
3,130560, Note_on_c,1,65,90,
3,133440, Note_off_c,1,65,0,
3,133440, Note_on_c,1,60,90,
3,133440, Note_on_c,1,63,90,
3,133440, Note_on_c,1,67,90,
3,137280, Note_off_c,1,60,0,
3,137280, Note_off_c,1,63,0,
3,137280, Note_off_c,1,67,0,
3,137280, Note_on_c,1,60,90,
3,137760, Note_off_c,1,60,0,
3,137760, Note_on_c,1,63,90,
3,138240, Note_off_c,1,63,0,
3,138240, Note_on_c,1,67,90,
3,141120, Note_off_c,1,67,0,
3,141120, Note_on_c,1,56,90,
3,141600, Note_off_c,1,56,0,
3,141600, Note_on_c,1,60,90,
3,142080, Note_off_c,1,60,0,
3,142080, Note_on_c,1,63,90,
3,144960, Note_off_c,1,63,0,
3,144960, Note_on_c,1,58,90,
3,145440, Note_off_c,1,58,0,
3,145440, Note_on_c,1,62,90,
3,145920, Note_off_c,1,62,0,
3,145920, Note_on_c,1,65,90,
3,148800, Note_off_c,1,65,0,
3,148800, Note_on_c,1,55,90,
3,149280, Note_off_c,1,55,0,
3,149280, Note_on_c,1,58,90,
3,149760, Note_off_c,1,58,0,
3,149760, Note_on_c,1,62,90,
3,152640, Note_off_c,1,62,0,
3,152640, Note_on_c,1,60,90,
3,153120, Note_off_c,1,60,0,
3,153120, Note_on_c,1,63,90,
3,153600, Note_off_c,1,63,0,
3,153600, Note_on_c,1,67,90,
3,156480, Note_off_c,1,67,0,
3,156480, Note_on_c,1,56,90,
3,156960, Note_off_c,1,56,0,
3,156960, Note_on_c,1,60,90,
3,157440, Note_off_c,1,60,0,
3,157440, Note_on_c,1,63,90,
3,160320, Note_off_c,1,63,0,
3,160320, Note_on_c,1,58,90,
3,160800, Note_off_c,1,58,0,
3,160800, Note_on_c,1,62,90,
3,161280, Note_off_c,1,62,0,
3,161280, Note_on_c,1,65,90,
3,164160, Note_off_c,1,65,0,
3,164160, Note_on_c,1,60,90,
3,164160, Note_on_c,1,63,90,
3,164160, Note_on_c,1,67,90,
3,168000, Note_off_c,1,60,0,
3,168000, Note_off_c,1,63,0,
3,168000, Note_off_c,1,67,0,
3,168000, Note_on_c,1,56,90,
3,168480, Note_off_c,1,56,0,
3,168480, Note_on_c,1,60,90,
3,168960, Note_off_c,1,60,0,
3,168960, Note_on_c,1,63,90,
3,169920, Note_off_c,1,63,0,
3,169920, Note_on_c,1,58,90,
3,170400, Note_off_c,1,58,0,
3,170400, Note_on_c,1,62,90,
3,170880, Note_off_c,1,62,0,
3,170880, Note_on_c,1,65,90,
3,171840, Note_off_c,1,65,0,
3,171840, Note_on_c,1,60,90,
3,172320, Note_off_c,1,60,0,
3,172320, Note_on_c,1,63,90,
3,172800, Note_off_c,1,63,0,
3,172800, Note_on_c,1,67,90,
3,173760, Note_off_c,1,67,0,
3,175680, Note_on_c,1,56,90,
3,176160, Note_off_c,1,56,0,
3,176160, Note_on_c,1,60,90,
3,176640, Note_off_c,1,60,0,
3,176640, Note_on_c,1,63,90,
3,177600, Note_off_c,1,63,0,
3,177600, Note_on_c,1,58,90,
3,178080, Note_off_c,1,58,0,
3,178080, Note_on_c,1,62,90,
3,178560, Note_off_c,1,62,0,
3,178560, Note_on_c,1,65,90,
3,179520, Note_off_c,1,65,0,
3,179520, Note_on_c,1,60,90,
3,180000, Note_off_c,1,60,0,
3,180000, Note_on_c,1,63,90,
3,180480, Note_off_c,1,63,0,
3,180480, Note_on_c,1,67,90,
3,180960, Note_off_c,1,67,0,
3,180960, Note_on_c,1,70,90,
3,181920, Note_off_c,1,70,0,
3,181920, Note_on_c,1,67,90,
3,182400, Note_off_c,1,67,0,
3,182400, Note_on_c,1,63,90,
3,182880, Note_off_c,1,63,0,
3,182880, Note_on_c,1,60,90,
3,183360, Note_off_c,1,60,0,
3,183360, Note_on_c,1,56,90,
3,183840, Note_off_c,1,56,0,
3,183840, Note_on_c,1,60,90,
3,184320, Note_off_c,1,60,0,
3,184320, Note_on_c,1,63,90,
3,185280, Note_off_c,1,63,0,
3,185280, Note_on_c,1,58,90,
3,185760, Note_off_c,1,58,0,
3,185760, Note_on_c,1,62,90,
3,186240, Note_off_c,1,62,0,
3,186240, Note_on_c,1,65,90,
3,187200, Note_off_c,1,65,0,
3,187200, Note_on_c,1,60,90,
3,187200, Note_on_c,1,63,90,
3,187200, Note_on_c,1,67,90,
3,188160, Note_off_c,1,60,0,
3,188160, Note_off_c,1,63,0,
3,188160, Note_off_c,1,67,0,
3,188160, Note_on_c,1,58,90,
3,188160, Note_on_c,1,62,90,
3,188160, Note_on_c,1,65,90,
3,189120, Note_off_c,1,58,0,
3,189120, Note_off_c,1,62,0,
3,189120, Note_off_c,1,65,0,
3,189120, Note_on_c,1,57,90,
3,189120, Note_on_c,1,60,90,
3,189120, Note_on_c,1,63,90,
3,191040, Note_off_c,1,57,0,
3,191040, Note_off_c,1,60,0,
3,191040, Note_off_c,1,63,0,
3,191040, Note_on_c,1,56,90,
3,191520, Note_off_c,1,56,0,
3,191520, Note_on_c,1,60,90,
3,192000, Note_off_c,1,60,0,
3,192000, Note_on_c,1,65,90,
3,192960, Note_off_c,1,65,0,
3,192960, Note_on_c,1,58,90,
3,193440, Note_off_c,1,58,0,
3,193440, Note_on_c,1,62,90,
3,193920, Note_off_c,1,62,0,
3,193920, Note_on_c,1,65,90,
3,194880, Note_off_c,1,65,0,
3,194880, Note_on_c,1,60,90,
3,194880, Note_on_c,1,63,90,
3,194880, Note_on_c,1,67,90,
3,198720, Note_off_c,1,60,0,
3,198720, Note_off_c,1,63,0,
3,198720, Note_off_c,1,67,0,
3,198720, Note_on_c,1,57,90,
3,199200, Note_off_c,1,57,0,
3,199200, Note_on_c,1,61,90,
3,199680, Note_off_c,1,61,0,
3,199680, Note_on_c,1,64,90,
3,200640, Note_off_c,1,64,0,
3,200640, Note_on_c,1,59,90,
3,201120, Note_off_c,1,59,0,
3,201120, Note_on_c,1,63,90,
3,201600, Note_off_c,1,63,0,
3,201600, Note_on_c,1,66,90,
3,202560, Note_off_c,1,66,0,
3,202560, Note_on_c,1,61,90,
3,203040, Note_off_c,1,61,0,
3,203040, Note_on_c,1,64,90,
3,203520, Note_off_c,1,64,0,
3,203520, Note_on_c,1,68,90,
3,204480, Note_off_c,1,68,0,
3,206400, Note_on_c,1,57,90,
3,206880, Note_off_c,1,57,0,
3,206880, Note_on_c,1,61,90,
3,207360, Note_off_c,1,61,0,
3,207360, Note_on_c,1,64,90,
3,208320, Note_off_c,1,64,0,
3,208320, Note_on_c,1,59,90,
3,208800, Note_off_c,1,59,0,
3,208800, Note_on_c,1,63,90,
3,209280, Note_off_c,1,63,0,
3,209280, Note_on_c,1,66,90,
3,210240, Note_off_c,1,66,0,
3,210240, Note_on_c,1,61,90,
3,210720, Note_off_c,1,61,0,
3,210720, Note_on_c,1,64,90,
3,211200, Note_off_c,1,64,0,
3,211200, Note_on_c,1,68,90,
3,211680, Note_off_c,1,68,0,
3,211680, Note_on_c,1,71,90,
3,212640, Note_off_c,1,71,0,
3,212640, Note_on_c,1,68,90,
3,213120, Note_off_c,1,68,0,
3,213120, Note_on_c,1,64,90,
3,213600, Note_off_c,1,64,0,
3,213600, Note_on_c,1,61,90,
3,214080, Note_off_c,1,61,0,
3,214080, Note_on_c,1,57,90,
3,214560, Note_off_c,1,57,0,
3,214560, Note_on_c,1,61,90,
3,215040, Note_off_c,1,61,0,
3,215040, Note_on_c,1,64,90,
3,216000, Note_off_c,1,64,0,
3,216000, Note_on_c,1,59,90,
3,216480, Note_off_c,1,59,0,
3,216480, Note_on_c,1,63,90,
3,216960, Note_off_c,1,63,0,
3,216960, Note_on_c,1,66,90,
3,217920, Note_off_c,1,66,0,
3,217920, Note_on_c,1,61,90,
3,217920, Note_on_c,1,64,90,
3,217920, Note_on_c,1,68,90,
3,218880, Note_off_c,1,61,0,
3,218880, Note_off_c,1,64,0,
3,218880, Note_off_c,1,68,0,
3,218880, Note_on_c,1,59,90,
3,218880, Note_on_c,1,63,90,
3,218880, Note_on_c,1,66,90,
3,219840, Note_off_c,1,59,0,
3,219840, Note_off_c,1,63,0,
3,219840, Note_off_c,1,66,0,
3,219840, Note_on_c,1,58,90,
3,219840, Note_on_c,1,61,90,
3,219840, Note_on_c,1,64,90,
3,221760, Note_off_c,1,58,0,
3,221760, Note_off_c,1,61,0,
3,221760, Note_off_c,1,64,0,
3,221760, Note_on_c,1,57,90,
3,222240, Note_off_c,1,57,0,
3,222240, Note_on_c,1,61,90,
3,222720, Note_off_c,1,61,0,
3,222720, Note_on_c,1,66,90,
3,223680, Note_off_c,1,66,0,
3,223680, Note_on_c,1,59,90,
3,224160, Note_off_c,1,59,0,
3,224160, Note_on_c,1,63,90,
3,224640, Note_off_c,1,63,0,
3,224640, Note_on_c,1,66,90,
3,225600, Note_off_c,1,66,0,
3,225600, Note_on_c,1,61,90,
3,225600, Note_on_c,1,64,90,
3,225600, Note_on_c,1,68,90,
3,227520, Note_off_c,1,61,0,
3,227520, Note_off_c,1,64,0,
3,227520, Note_off_c,1,68,0,
3,229440, Note_on_c,1,57,90,
3,229920, Note_off_c,1,57,0,
3,229920, Note_on_c,1,61,90,
3,230400, Note_off_c,1,61,0,
3,230400, Note_on_c,1,64,90,
3,233280, Note_off_c,1,64,0,
3,233280, Note_on_c,1,59,90,
3,233760, Note_off_c,1,59,0,
3,233760, Note_on_c,1,63,90,
3,234240, Note_off_c,1,63,0,
3,234240, Note_on_c,1,66,90,
3,237120, Note_off_c,1,66,0,
3,237120, Note_on_c,1,61,90,
3,237600, Note_off_c,1,61,0,
3,237600, Note_on_c,1,64,90,
3,238080, Note_off_c,1,64,0,
3,238080, Note_on_c,1,68,90,
3,240960, Note_off_c,1,68,0,
3,240960, Note_on_c,1,61,90,
3,241440, Note_off_c,1,61,0,
3,241440, Note_on_c,1,64,90,
3,241920, Note_off_c,1,64,0,
3,241920, Note_on_c,1,68,90,
3,244800, Note_off_c,1,68,0,
3,244800, Note_on_c,1,57,90,
3,245280, Note_off_c,1,57,0,
3,245280, Note_on_c,1,61,90,
3,245760, Note_off_c,1,61,0,
3,245760, Note_on_c,1,64,90,
3,248640, Note_off_c,1,64,0,
3,248640, Note_on_c,1,59,90,
3,249120, Note_off_c,1,59,0,
3,249120, Note_on_c,1,63,90,
3,249600, Note_off_c,1,63,0,
3,249600, Note_on_c,1,66,90,
3,252480, Note_off_c,1,66,0,
3,252480, Note_on_c,1,61,90,
3,252960, Note_off_c,1,61,0,
3,252960, Note_on_c,1,64,90,
3,253440, Note_off_c,1,64,0,
3,253440, Note_on_c,1,68,90,
3,256320, Note_off_c,1,68,0,
3,256320, Note_on_c,1,61,90,
3,256800, Note_off_c,1,61,0,
3,256800, Note_on_c,1,64,90,
3,257280, Note_off_c,1,64,0,
3,257280, Note_on_c,1,68,90,
3,257760, Note_off_c,1,68,0,
3,257760, Note_on_c,1,71,90,
3,258240, Note_off_c,1,71,0,
3,260160, Note_on_c,1,57,90,
3,260640, Note_off_c,1,57,0,
3,260640, Note_on_c,1,61,90,
3,261120, Note_off_c,1,61,0,
3,261120, Note_on_c,1,64,90,
3,264000, Note_off_c,1,64,0,
3,264000, Note_on_c,1,59,90,
3,264480, Note_off_c,1,59,0,
3,264480, Note_on_c,1,63,90,
3,264960, Note_off_c,1,63,0,
3,264960, Note_on_c,1,66,90,
3,267840, Note_off_c,1,66,0,
3,267840, Note_on_c,1,61,90,
3,268320, Note_off_c,1,61,0,
3,268320, Note_on_c,1,64,90,
3,268800, Note_off_c,1,64,0,
3,268800, Note_on_c,1,68,90,
3,271680, Note_off_c,1,68,0,
3,271680, Note_on_c,1,61,90,
3,272160, Note_off_c,1,61,0,
3,272160, Note_on_c,1,64,90,
3,272640, Note_off_c,1,64,0,
3,272640, Note_on_c,1,68,90,
3,273120, Note_off_c,1,68,0,
3,273120, Note_on_c,1,71,90,
3,273600, Note_off_c,1,71,0,
3,275520, Note_on_c,1,57,90,
3,276000, Note_off_c,1,57,0,
3,276000, Note_on_c,1,61,90,
3,276480, Note_off_c,1,61,0,
3,276480, Note_on_c,1,64,90,
3,279360, Note_off_c,1,64,0,
3,279360, Note_on_c,1,59,90,
3,279840, Note_off_c,1,59,0,
3,279840, Note_on_c,1,63,90,
3,280320, Note_off_c,1,63,0,
3,280320, Note_on_c,1,66,90,
3,280800, Note_off_c,1,66,0,
3,280800, Note_on_c,1,71,90,
3,281280, Note_off_c,1,71,0,
3,281280, Note_on_c,1,75,90,
3,283200, Note_off_c,1,75,0,
3,283200, Note_on_c,1,61,90,
3,283680, Note_off_c,1,61,0,
3,283680, Note_on_c,1,64,90,
3,284160, Note_off_c,1,64,0,
3,284160, Note_on_c,1,68,90,
3,287040, Note_off_c,1,68,0,
3,287040, End_track,,,,
4,0, Start_track,,,,
4,0, Title_t,Vibraphone 1,,,
4,0, MIDI_port,0,,,
4,0, Program_c,2,11,,
4,72000, Note_on_c,2,82,80,
4,72480, Note_off_c,2,82,0,
4,72480, Note_on_c,2,84,80,
4,72960, Note_off_c,2,84,0,
4,72960, Note_on_c,2,79,80,
4,73440, Note_off_c,2,79,0,
4,73440, Note_on_c,2,77,80,
4,73920, Note_off_c,2,77,0,
4,73920, Note_on_c,2,79,80,
4,75840, Note_off_c,2,79,0,
4,78720, Note_on_c,2,74,80,
4,79200, Note_off_c,2,74,0,
4,79200, Note_on_c,2,75,80,
4,79680, Note_off_c,2,75,0,
4,79680, Note_on_c,2,74,80,
4,80160, Note_off_c,2,74,0,
4,80160, Note_on_c,2,75,80,
4,80640, Note_off_c,2,75,0,
4,80640, Note_on_c,2,74,80,
4,81120, Note_off_c,2,74,0,
4,81120, Note_on_c,2,70,80,
4,81600, Note_off_c,2,70,0,
4,81600, Note_on_c,2,72,80,
4,83520, Note_off_c,2,72,0,
4,85440, Note_on_c,2,72,80,
4,85920, Note_off_c,2,72,0,
4,85920, Note_on_c,2,75,80,
4,86400, Note_off_c,2,75,0,
4,86400, Note_on_c,2,77,80,
4,86880, Note_off_c,2,77,0,
4,86880, Note_on_c,2,79,80,
4,87360, Note_off_c,2,79,0,
4,87360, Note_on_c,2,82,80,
4,87840, Note_off_c,2,82,0,
4,87840, Note_on_c,2,84,80,
4,88320, Note_off_c,2,84,0,
4,88320, Note_on_c,2,79,80,
4,88800, Note_off_c,2,79,0,
4,88800, Note_on_c,2,77,80,
4,89280, Note_off_c,2,77,0,
4,89280, Note_on_c,2,79,80,
4,91200, Note_off_c,2,79,0,
4,94080, Note_on_c,2,87,80,
4,95040, Note_off_c,2,87,0,
4,95040, Note_on_c,2,86,80,
4,96480, Note_off_c,2,86,0,
4,96480, Note_on_c,2,84,80,
4,98880, Note_off_c,2,84,0,
4,98880, Note_on_c,2,72,80,
4,99360, Note_off_c,2,72,0,
4,99360, Note_on_c,2,75,80,
4,99840, Note_off_c,2,75,0,
4,99840, Note_on_c,2,79,80,
4,100320, Note_off_c,2,79,0,
4,100320, Note_on_c,2,82,80,
4,100800, Note_off_c,2,82,0,
4,100800, Note_on_c,2,84,80,
4,102720, Note_off_c,2,84,0,
4,137280, Note_on_c,2,75,80,
4,138720, Note_off_c,2,75,0,
4,138720, Note_on_c,2,79,80,
4,139200, Note_off_c,2,79,0,
4,139200, Note_on_c,2,77,80,
4,139680, Note_off_c,2,77,0,
4,139680, Note_on_c,2,75,80,
4,140160, Note_off_c,2,75,0,
4,140160, Note_on_c,2,74,80,
4,140640, Note_off_c,2,74,0,
4,140640, Note_on_c,2,75,80,
4,141120, Note_off_c,2,75,0,
4,141120, Note_on_c,2,72,80,
4,142560, Note_off_c,2,72,0,
4,142560, Note_on_c,2,74,80,
4,143040, Note_off_c,2,74,0,
4,143040, Note_on_c,2,75,80,
4,144000, Note_off_c,2,75,0,
4,144000, Note_on_c,2,72,80,
4,144960, Note_off_c,2,72,0,
4,144960, Note_on_c,2,77,80,
4,146400, Note_off_c,2,77,0,
4,146400, Note_on_c,2,75,80,
4,146880, Note_off_c,2,75,0,
4,146880, Note_on_c,2,77,80,
4,147360, Note_off_c,2,77,0,
4,147360, Note_on_c,2,75,80,
4,147840, Note_off_c,2,75,0,
4,147840, Note_on_c,2,77,80,
4,148320, Note_off_c,2,77,0,
4,148320, Note_on_c,2,79,80,
4,148800, Note_off_c,2,79,0,
4,148800, Note_on_c,2,79,80,
4,150240, Note_off_c,2,79,0,
4,150240, Note_on_c,2,77,80,
4,150480, Note_off_c,2,77,0,
4,150480, Note_on_c,2,79,80,
4,150720, Note_off_c,2,79,0,
4,150720, Note_on_c,2,79,80,
4,152160, Note_off_c,2,79,0,
4,152160, Note_on_c,2,72,80,
4,152400, Note_off_c,2,72,0,
4,152400, Note_on_c,2,74,80,
4,152640, Note_off_c,2,74,0,
4,152640, Note_on_c,2,75,80,
4,154080, Note_off_c,2,75,0,
4,154080, Note_on_c,2,79,80,
4,154560, Note_off_c,2,79,0,
4,154560, Note_on_c,2,77,80,
4,155040, Note_off_c,2,77,0,
4,155040, Note_on_c,2,75,80,
4,155520, Note_off_c,2,75,0,
4,155520, Note_on_c,2,77,80,
4,156000, Note_off_c,2,77,0,
4,156000, Note_on_c,2,79,80,
4,156480, Note_off_c,2,79,0,
4,156480, Note_on_c,2,82,80,
4,157920, Note_off_c,2,82,0,
4,157920, Note_on_c,2,84,80,
4,158400, Note_off_c,2,84,0,
4,158400, Note_on_c,2,75,80,
4,159840, Note_off_c,2,75,0,
4,159840, Note_on_c,2,72,80,
4,160320, Note_off_c,2,72,0,
4,160320, Note_on_c,2,74,80,
4,161760, Note_off_c,2,74,0,
4,161760, Note_on_c,2,72,80,
4,162240, Note_off_c,2,72,0,
4,162240, Note_on_c,2,74,80,
4,162720, Note_off_c,2,74,0,
4,162720, Note_on_c,2,75,80,
4,163200, Note_off_c,2,75,0,
4,163200, Note_on_c,2,77,80,
4,163680, Note_off_c,2,77,0,
4,163680, Note_on_c,2,74,80,
4,164160, Note_off_c,2,74,0,
4,164160, Note_on_c,2,74,80,
4,165600, Note_off_c,2,74,0,
4,165600, Note_on_c,2,75,80,
4,165840, Note_off_c,2,75,0,
4,165840, Note_on_c,2,74,80,
4,166080, Note_off_c,2,74,0,
4,166080, Note_on_c,2,72,80,
4,167040, Note_off_c,2,72,0,
4,216960, Note_on_c,2,80,100,
4,217440, Note_off_c,2,80,0,
4,217440, Note_on_c,2,76,100,
4,217920, Note_off_c,2,76,0,
4,217920, Note_on_c,2,78,100,
4,218400, Note_off_c,2,78,0,
4,218400, Note_on_c,2,80,100,
4,218880, Note_off_c,2,80,0,
4,218880, Note_on_c,2,78,100,
4,219360, Note_off_c,2,78,0,
4,219360, Note_on_c,2,76,100,
4,219840, Note_off_c,2,76,0,
4,219840, Note_on_c,2,73,100,
4,220800, Note_off_c,2,73,0,
4,220800, Note_on_c,2,73,100,
4,221280, Note_off_c,2,73,0,
4,221280, Note_on_c,2,71,100,
4,221760, Note_off_c,2,71,0,
4,221760, Note_on_c,2,73,100,
4,222720, Note_off_c,2,73,0,
4,222720, Note_on_c,2,78,100,
4,223200, Note_off_c,2,78,0,
4,223200, Note_on_c,2,80,100,
4,223680, Note_off_c,2,80,0,
4,223680, Note_on_c,2,83,100,
4,224160, Note_off_c,2,83,0,
4,224160, Note_on_c,2,80,100,
4,224640, Note_off_c,2,80,0,
4,224640, Note_on_c,2,83,100,
4,225600, Note_off_c,2,83,0,
4,225600, Note_on_c,2,85,100,
4,227520, Note_off_c,2,85,0,
4,228480, Note_on_c,2,73,80,
4,228960, Note_off_c,2,73,0,
4,228960, Note_on_c,2,75,80,
4,229440, Note_off_c,2,75,0,
4,229440, Note_on_c,2,76,80,
4,230880, Note_off_c,2,76,0,
4,230880, Note_on_c,2,73,80,
4,232320, Note_off_c,2,73,0,
4,232320, Note_on_c,2,80,80,
4,233280, Note_off_c,2,80,0,
4,233280, Note_on_c,2,78,80,
4,234720, Note_off_c,2,78,0,
4,234720, Note_on_c,2,75,80,
4,235680, Note_off_c,2,75,0,
4,235680, Note_on_c,2,75,80,
4,236160, Note_off_c,2,75,0,
4,236160, Note_on_c,2,76,80,
4,236640, Note_off_c,2,76,0,
4,236640, Note_on_c,2,78,80,
4,237120, Note_off_c,2,78,0,
4,237120, Note_on_c,2,78,80,
4,238560, Note_off_c,2,78,0,
4,238560, Note_on_c,2,80,80,
4,240960, Note_off_c,2,80,0,
4,242400, Note_on_c,2,80,80,
4,243360, Note_off_c,2,80,0,
4,243360, Note_on_c,2,81,80,
4,243840, Note_off_c,2,81,0,
4,243840, Note_on_c,2,80,80,
4,244320, Note_off_c,2,80,0,
4,244320, Note_on_c,2,76,80,
4,244800, Note_off_c,2,76,0,
4,244800, Note_on_c,2,73,80,
4,246240, Note_off_c,2,73,0,
4,246240, Note_on_c,2,73,80,
4,247200, Note_off_c,2,73,0,
4,247200, Note_on_c,2,73,80,
4,247680, Note_off_c,2,73,0,
4,247680, Note_on_c,2,75,80,
4,248160, Note_off_c,2,75,0,
4,248160, Note_on_c,2,76,80,
4,248640, Note_off_c,2,76,0,
4,248640, Note_on_c,2,76,80,
4,250080, Note_off_c,2,76,0,
4,250080, Note_on_c,2,75,80,
4,251040, Note_off_c,2,75,0,
4,251040, Note_on_c,2,75,80,
4,251520, Note_off_c,2,75,0,
4,251520, Note_on_c,2,76,80,
4,252000, Note_off_c,2,76,0,
4,252000, Note_on_c,2,78,80,
4,252480, Note_off_c,2,78,0,
4,252480, Note_on_c,2,78,80,
4,253920, Note_off_c,2,78,0,
4,253920, Note_on_c,2,80,80,
4,256320, Note_off_c,2,80,0,
4,257760, Note_on_c,2,71,80,
4,258240, Note_off_c,2,71,0,
4,258240, Note_on_c,2,73,80,
4,258720, Note_off_c,2,73,0,
4,258720, Note_on_c,2,76,80,
4,259200, Note_off_c,2,76,0,
4,259200, Note_on_c,2,78,80,
4,259680, Note_off_c,2,78,0,
4,259680, Note_on_c,2,80,80,
4,260160, Note_off_c,2,80,0,
4,260160, Note_on_c,2,83,80,
4,260640, Note_off_c,2,83,0,
4,260640, Note_on_c,2,85,80,
4,261120, Note_off_c,2,85,0,
4,261120, Note_on_c,2,80,80,
4,261600, Note_off_c,2,80,0,
4,261600, Note_on_c,2,78,80,
4,262080, Note_off_c,2,78,0,
4,262080, Note_on_c,2,80,80,
4,264000, Note_off_c,2,80,0,
4,266880, Note_on_c,2,75,80,
4,267360, Note_off_c,2,75,0,
4,267360, Note_on_c,2,76,80,
4,267840, Note_off_c,2,76,0,
4,267840, Note_on_c,2,75,80,
4,268320, Note_off_c,2,75,0,
4,268320, Note_on_c,2,76,80,
4,268800, Note_off_c,2,76,0,
4,268800, Note_on_c,2,75,80,
4,269280, Note_off_c,2,75,0,
4,269280, Note_on_c,2,71,80,
4,269760, Note_off_c,2,71,0,
4,269760, Note_on_c,2,73,80,
4,271680, Note_off_c,2,73,0,
4,273120, Note_on_c,2,71,80,
4,273600, Note_off_c,2,71,0,
4,273600, End_track,,,,
5,0, Start_track,,,,
5,0, Title_t,SFX,,,
5,0, MIDI_port,0,,,
5,0, Program_c,9,56,,
5,36480, Note_on_c,9,62,60,
5,40320, Note_off_c,9,62,0,
5,40320, End_track,,,,
6,0, Start_track,,,,
6,0, Title_t,Vibraphone 2,,,
6,0, MIDI_port,0,,,
6,0, Program_c,3,11,,
6,137280, Note_on_c,3,60,80,
6,137760, Note_off_c,3,60,0,
6,137760, Note_on_c,3,63,80,
6,138240, Note_off_c,3,63,0,
6,138240, Note_on_c,3,67,80,
6,141120, Note_off_c,3,67,0,
6,141120, Note_on_c,3,56,80,
6,141600, Note_off_c,3,56,0,
6,141600, Note_on_c,3,60,80,
6,142080, Note_off_c,3,60,0,
6,142080, Note_on_c,3,63,80,
6,144960, Note_off_c,3,63,0,
6,144960, Note_on_c,3,58,80,
6,145440, Note_off_c,3,58,0,
6,145440, Note_on_c,3,62,80,
6,145920, Note_off_c,3,62,0,
6,145920, Note_on_c,3,65,80,
6,148800, Note_off_c,3,65,0,
6,148800, Note_on_c,3,55,80,
6,149280, Note_off_c,3,55,0,
6,149280, Note_on_c,3,58,80,
6,149760, Note_off_c,3,58,0,
6,149760, Note_on_c,3,62,80,
6,152640, Note_off_c,3,62,0,
6,152640, Note_on_c,3,60,80,
6,153120, Note_off_c,3,60,0,
6,153120, Note_on_c,3,63,80,
6,153600, Note_off_c,3,63,0,
6,153600, Note_on_c,3,67,80,
6,156480, Note_off_c,3,67,0,
6,156480, Note_on_c,3,56,80,
6,156960, Note_off_c,3,56,0,
6,156960, Note_on_c,3,60,80,
6,157440, Note_off_c,3,60,0,
6,157440, Note_on_c,3,63,80,
6,160320, Note_off_c,3,63,0,
6,160320, Note_on_c,3,58,80,
6,160800, Note_off_c,3,58,0,
6,160800, Note_on_c,3,62,80,
6,161280, Note_off_c,3,62,0,
6,161280, Note_on_c,3,65,80,
6,164160, Note_off_c,3,65,0,
6,164160, Note_on_c,3,60,80,
6,164160, Note_on_c,3,63,80,
6,164160, Note_on_c,3,67,80,
6,168000, Note_off_c,3,60,0,
6,168000, Note_off_c,3,63,0,
6,168000, Note_off_c,3,67,0,
6,206400, Note_on_c,3,57,90,
6,206880, Note_off_c,3,57,0,
6,206880, Note_on_c,3,61,90,
6,207360, Note_off_c,3,61,0,
6,207360, Note_on_c,3,64,90,
6,208320, Note_off_c,3,64,0,
6,208320, Note_on_c,3,59,90,
6,208800, Note_off_c,3,59,0,
6,208800, Note_on_c,3,63,90,
6,209280, Note_off_c,3,63,0,
6,209280, Note_on_c,3,66,90,
6,210240, Note_off_c,3,66,0,
6,210240, Note_on_c,3,61,90,
6,210720, Note_off_c,3,61,0,
6,210720, Note_on_c,3,64,90,
6,211200, Note_off_c,3,64,0,
6,211200, Note_on_c,3,68,90,
6,211680, Note_off_c,3,68,0,
6,211680, Note_on_c,3,71,90,
6,212640, Note_off_c,3,71,0,
6,212640, Note_on_c,3,68,90,
6,213120, Note_off_c,3,68,0,
6,213120, Note_on_c,3,64,90,
6,213600, Note_off_c,3,64,0,
6,213600, Note_on_c,3,61,90,
6,214080, Note_off_c,3,61,0,
6,214080, Note_on_c,3,57,90,
6,214560, Note_off_c,3,57,0,
6,214560, Note_on_c,3,61,90,
6,215040, Note_off_c,3,61,0,
6,215040, Note_on_c,3,64,90,
6,216000, Note_off_c,3,64,0,
6,216000, Note_on_c,3,59,90,
6,216480, Note_off_c,3,59,0,
6,216480, Note_on_c,3,63,90,
6,216960, Note_off_c,3,63,0,
6,216960, Note_on_c,3,66,90,
6,217920, Note_off_c,3,66,0,
6,217920, Note_on_c,3,61,90,
6,217920, Note_on_c,3,64,90,
6,217920, Note_on_c,3,68,90,
6,218880, Note_off_c,3,61,0,
6,218880, Note_off_c,3,64,0,
6,218880, Note_off_c,3,68,0,
6,218880, Note_on_c,3,59,90,
6,218880, Note_on_c,3,63,90,
6,218880, Note_on_c,3,66,90,
6,219840, Note_off_c,3,59,0,
6,219840, Note_off_c,3,63,0,
6,219840, Note_off_c,3,66,0,
6,219840, Note_on_c,3,58,90,
6,219840, Note_on_c,3,61,90,
6,219840, Note_on_c,3,64,90,
6,221760, Note_off_c,3,58,0,
6,221760, Note_off_c,3,61,0,
6,221760, Note_off_c,3,64,0,
6,221760, Note_on_c,3,57,90,
6,222240, Note_off_c,3,57,0,
6,222240, Note_on_c,3,61,90,
6,222720, Note_off_c,3,61,0,
6,222720, Note_on_c,3,66,90,
6,223680, Note_off_c,3,66,0,
6,223680, Note_on_c,3,59,90,
6,224160, Note_off_c,3,59,0,
6,224160, Note_on_c,3,63,90,
6,224640, Note_off_c,3,63,0,
6,224640, Note_on_c,3,66,90,
6,225600, Note_off_c,3,66,0,
6,225600, Note_on_c,3,61,90,
6,225600, Note_on_c,3,64,90,
6,225600, Note_on_c,3,68,90,
6,227520, Note_off_c,3,61,0,
6,227520, Note_off_c,3,64,0,
6,227520, Note_off_c,3,68,0,
6,229440, Note_on_c,3,57,80,
6,229920, Note_off_c,3,57,0,
6,229920, Note_on_c,3,61,80,
6,230400, Note_off_c,3,61,0,
6,230400, Note_on_c,3,64,80,
6,233280, Note_off_c,3,64,0,
6,233280, Note_on_c,3,59,80,
6,233760, Note_off_c,3,59,0,
6,233760, Note_on_c,3,63,80,
6,234240, Note_off_c,3,63,0,
6,234240, Note_on_c,3,66,80,
6,237120, Note_off_c,3,66,0,
6,237120, Note_on_c,3,61,80,
6,237600, Note_off_c,3,61,0,
6,237600, Note_on_c,3,64,80,
6,238080, Note_off_c,3,64,0,
6,238080, Note_on_c,3,68,80,
6,240960, Note_off_c,3,68,0,
6,240960, Note_on_c,3,61,80,
6,241440, Note_off_c,3,61,0,
6,241440, Note_on_c,3,64,80,
6,241920, Note_off_c,3,64,0,
6,241920, Note_on_c,3,68,80,
6,244800, Note_off_c,3,68,0,
6,244800, Note_on_c,3,57,80,
6,245280, Note_off_c,3,57,0,
6,245280, Note_on_c,3,61,80,
6,245760, Note_off_c,3,61,0,
6,245760, Note_on_c,3,64,80,
6,248640, Note_off_c,3,64,0,
6,248640, Note_on_c,3,59,80,
6,249120, Note_off_c,3,59,0,
6,249120, Note_on_c,3,63,80,
6,249600, Note_off_c,3,63,0,
6,249600, Note_on_c,3,66,80,
6,252480, Note_off_c,3,66,0,
6,252480, Note_on_c,3,61,80,
6,252960, Note_off_c,3,61,0,
6,252960, Note_on_c,3,64,80,
6,253440, Note_off_c,3,64,0,
6,253440, Note_on_c,3,68,80,
6,256320, Note_off_c,3,68,0,
6,256320, Note_on_c,3,61,80,
6,256800, Note_off_c,3,61,0,
6,256800, Note_on_c,3,64,80,
6,257280, Note_off_c,3,64,0,
6,257280, Note_on_c,3,68,80,
6,257760, Note_off_c,3,68,0,
6,260160, Note_on_c,3,57,80,
6,260640, Note_off_c,3,57,0,
6,260640, Note_on_c,3,61,80,
6,261120, Note_off_c,3,61,0,
6,261120, Note_on_c,3,64,80,
6,264000, Note_off_c,3,64,0,
6,264000, Note_on_c,3,59,80,
6,264480, Note_off_c,3,59,0,
6,264480, Note_on_c,3,63,80,
6,264960, Note_off_c,3,63,0,
6,264960, Note_on_c,3,66,80,
6,267840, Note_off_c,3,66,0,
6,267840, Note_on_c,3,61,80,
6,268320, Note_off_c,3,61,0,
6,268320, Note_on_c,3,64,80,
6,268800, Note_off_c,3,64,0,
6,268800, Note_on_c,3,68,80,
6,271680, Note_off_c,3,68,0,
6,271680, Note_on_c,3,61,80,
6,272160, Note_off_c,3,61,0,
6,272160, Note_on_c,3,64,80,
6,272640, Note_off_c,3,64,0,
6,272640, Note_on_c,3,68,80,
6,273120, Note_off_c,3,68,0,
6,288960, End_track,,,,
0,0, End_of_file,,,,
