0, 0, Header, 1, 6, 96
1, 0, Start_track
1, 0, Time_signature, 4, 2, 24, 8
1, 0, End_track
2, 0, Start_track
2, 0, Tempo, 434783
2, 0, Tempo, 416667
2, 0, Tempo, 416667
2, 14112, Tempo, 434783
2, 22224, Tempo, 416667
2, 22224, End_track
3, 0, Start_track
3, 0, Title_t, "MIDITrack"
3, 0, Control_c, 0, 10, 64
3, 0, Control_c, 0, 7, 100
3, 0, Pitch_bend_c, 0, 8192
3, 0, Control_c, 0, 101, 0
3, 0, Control_c, 0, 100, 0
3, 0, Control_c, 0, 6, 12
3, 0, Control_c, 0, 10, 64
3, 0, Control_c, 0, 7, 100
3, 0, Pitch_bend_c, 0, 8192
3, 0, Program_c, 0, 0
3, 0, Control_c, 0, 91, 30
3, 0, Control_c, 0, 93, 30
3, 0, Control_c, 0, 68, 78
3, 0, Control_c, 0, 101, 0
3, 0, Control_c, 0, 100, 0
3, 0, Control_c, 0, 6, 12
3, 0, Control_c, 0, 10, 64
3, 0, Control_c, 0, 7, 100
3, 0, Pitch_bend_c, 0, 8192
3, 0, Program_c, 0, 0
3, 0, Control_c, 0, 91, 30
3, 0, Control_c, 0, 93, 30
3, 0, Control_c, 0, 68, 78
3, 0, Program_c, 0, 0
3, 0, Control_c, 0, 7, 100
3, 0, Control_c, 0, 10, 64
3, 0, Control_c, 0, 101, 0
3, 0, Control_c, 0, 100, 0
3, 0, Control_c, 0, 6, 12
3, 0, Control_c, 0, 10, 64
3, 0, Control_c, 0, 7, 100
3, 0, Pitch_bend_c, 0, 8192
3, 0, Program_c, 0, 0
3, 0, Control_c, 0, 91, 30
3, 0, Control_c, 0, 93, 30
3, 0, Control_c, 0, 68, 78
3, 0, Program_c, 0, 0
3, 0, Control_c, 0, 7, 100
3, 0, Control_c, 0, 10, 64
3, 0, Note_on_c, 0, 62, 80
3, 0, Note_on_c, 0, 69, 80
3, 1, Control_c, 0, 91, 30
3, 1, Control_c, 0, 93, 30
3, 47, Note_off_c, 0, 62, 0
3, 47, Note_off_c, 0, 69, 0
3, 48, Note_on_c, 0, 65, 80
3, 48, Note_on_c, 0, 74, 80
3, 95, Note_off_c, 0, 65, 0
3, 95, Note_off_c, 0, 74, 0
3, 96, Note_on_c, 0, 69, 80
3, 96, Note_on_c, 0, 77, 80
3, 143, Note_off_c, 0, 69, 0
3, 143, Note_off_c, 0, 77, 0
3, 144, Note_on_c, 0, 74, 80
3, 144, Note_on_c, 0, 81, 80
3, 239, Note_off_c, 0, 74, 0
3, 239, Note_off_c, 0, 81, 0
3, 240, Note_on_c, 0, 69, 80
3, 240, Note_on_c, 0, 77, 80
3, 287, Note_off_c, 0, 69, 0
3, 287, Note_off_c, 0, 77, 0
3, 288, Note_on_c, 0, 74, 80
3, 288, Note_on_c, 0, 81, 80
3, 335, Note_off_c, 0, 74, 0
3, 335, Note_off_c, 0, 81, 0
3, 336, Note_on_c, 0, 69, 80
3, 383, Note_off_c, 0, 69, 0
3, 384, Note_on_c, 0, 61, 80
3, 384, Note_on_c, 0, 69, 80
3, 431, Note_off_c, 0, 61, 0
3, 431, Note_off_c, 0, 69, 0
3, 432, Note_on_c, 0, 65, 80
3, 432, Note_on_c, 0, 73, 80
3, 479, Note_off_c, 0, 65, 0
3, 479, Note_off_c, 0, 73, 0
3, 480, Note_on_c, 0, 69, 80
3, 480, Note_on_c, 0, 77, 80
3, 527, Note_off_c, 0, 69, 0
3, 527, Note_off_c, 0, 77, 0
3, 528, Note_on_c, 0, 73, 80
3, 528, Note_on_c, 0, 81, 80
3, 623, Note_off_c, 0, 73, 0
3, 623, Note_off_c, 0, 81, 0
3, 624, Note_on_c, 0, 69, 80
3, 624, Note_on_c, 0, 77, 80
3, 671, Note_off_c, 0, 69, 0
3, 671, Note_off_c, 0, 77, 0
3, 672, Note_on_c, 0, 73, 80
3, 672, Note_on_c, 0, 81, 80
3, 719, Note_off_c, 0, 73, 0
3, 719, Note_off_c, 0, 81, 0
3, 720, Note_on_c, 0, 69, 80
3, 767, Note_off_c, 0, 69, 0
3, 768, Note_on_c, 0, 60, 80
3, 768, Note_on_c, 0, 69, 80
3, 815, Note_off_c, 0, 60, 0
3, 815, Note_off_c, 0, 69, 0
3, 816, Note_on_c, 0, 64, 80
3, 816, Note_on_c, 0, 72, 80
3, 863, Note_off_c, 0, 64, 0
3, 863, Note_off_c, 0, 72, 0
3, 864, Note_on_c, 0, 69, 80
3, 864, Note_on_c, 0, 77, 80
3, 911, Note_off_c, 0, 69, 0
3, 911, Note_off_c, 0, 77, 0
3, 912, Note_on_c, 0, 72, 80
3, 912, Note_on_c, 0, 81, 80
3, 1007, Note_off_c, 0, 72, 0
3, 1007, Note_off_c, 0, 81, 0
3, 1008, Note_on_c, 0, 69, 80
3, 1008, Note_on_c, 0, 77, 80
3, 1055, Note_off_c, 0, 69, 0
3, 1055, Note_off_c, 0, 77, 0
3, 1056, Note_on_c, 0, 72, 80
3, 1056, Note_on_c, 0, 81, 80
3, 1103, Note_off_c, 0, 72, 0
3, 1103, Note_off_c, 0, 81, 0
3, 1104, Note_on_c, 0, 69, 80
3, 1151, Note_off_c, 0, 69, 0
3, 1152, Note_on_c, 0, 62, 80
3, 1152, Note_on_c, 0, 71, 80
3, 1199, Note_off_c, 0, 62, 0
3, 1199, Note_off_c, 0, 71, 0
3, 1200, Note_on_c, 0, 59, 80
3, 1247, Note_off_c, 0, 59, 0
3, 1248, Note_on_c, 0, 67, 80
3, 1248, Note_on_c, 0, 74, 80
3, 1295, Note_off_c, 0, 67, 0
3, 1295, Note_off_c, 0, 74, 0
3, 1296, Note_on_c, 0, 62, 80
3, 1343, Note_off_c, 0, 62, 0
3, 1344, Note_on_c, 0, 71, 80
3, 1344, Note_on_c, 0, 79, 80
3, 1391, Note_off_c, 0, 71, 0
3, 1391, Note_off_c, 0, 79, 0
3, 1392, Note_on_c, 0, 67, 80
3, 1439, Note_off_c, 0, 67, 0
3, 1440, Note_on_c, 0, 74, 80
3, 1440, Note_on_c, 0, 83, 80
3, 1487, Note_off_c, 0, 74, 0
3, 1487, Note_off_c, 0, 83, 0
3, 1488, Note_on_c, 0, 71, 80
3, 1535, Note_off_c, 0, 71, 0
3, 1536, Note_on_c, 0, 62, 80
3, 1536, Note_on_c, 0, 74, 80
3, 1583, Note_off_c, 0, 62, 0
3, 1584, Note_on_c, 0, 70, 80
3, 1631, Note_off_c, 0, 70, 0
3, 1632, Note_on_c, 0, 65, 80
3, 1679, Note_off_c, 0, 65, 0
3, 1680, Note_on_c, 0, 62, 80
3, 1727, Note_off_c, 0, 74, 0
3, 1727, Note_off_c, 0, 62, 0
3, 1728, Note_on_c, 0, 64, 80
3, 1728, Note_on_c, 0, 76, 80
3, 1775, Note_off_c, 0, 64, 0
3, 1776, Note_on_c, 0, 70, 80
3, 1823, Note_off_c, 0, 70, 0
3, 1824, Note_on_c, 0, 65, 80
3, 1871, Note_off_c, 0, 65, 0
3, 1872, Note_on_c, 0, 64, 80
3, 1919, Note_off_c, 0, 76, 0
3, 1919, Note_off_c, 0, 64, 0
3, 1920, Note_on_c, 0, 65, 80
3, 1920, Note_on_c, 0, 77, 80
3, 1967, Note_off_c, 0, 65, 0
3, 1968, Note_on_c, 0, 72, 80
3, 2015, Note_off_c, 0, 72, 0
3, 2016, Note_on_c, 0, 69, 80
3, 2063, Note_off_c, 0, 69, 0
3, 2064, Note_on_c, 0, 65, 80
3, 2111, Note_off_c, 0, 77, 0
3, 2111, Note_off_c, 0, 65, 0
3, 2112, Note_on_c, 0, 67, 80
3, 2112, Note_on_c, 0, 79, 80
3, 2159, Note_off_c, 0, 67, 0
3, 2160, Note_on_c, 0, 72, 80
3, 2207, Note_off_c, 0, 72, 0
3, 2208, Note_on_c, 0, 69, 80
3, 2255, Note_off_c, 0, 69, 0
3, 2256, Note_on_c, 0, 67, 80
3, 2303, Note_off_c, 0, 79, 0
3, 2303, Note_off_c, 0, 67, 0
3, 2304, Note_on_c, 0, 69, 80
3, 2304, Note_on_c, 0, 81, 80
3, 2351, Note_off_c, 0, 69, 0
3, 2352, Note_on_c, 0, 74, 80
3, 2399, Note_off_c, 0, 74, 0
3, 2400, Note_on_c, 0, 70, 80
3, 2447, Note_off_c, 0, 70, 0
3, 2448, Note_on_c, 0, 69, 80
3, 2495, Note_off_c, 0, 81, 0
3, 2495, Note_off_c, 0, 69, 0
3, 2496, Note_on_c, 0, 70, 80
3, 2496, Note_on_c, 0, 82, 80
3, 2543, Note_off_c, 0, 70, 0
3, 2544, Note_on_c, 0, 79, 80
3, 2591, Note_off_c, 0, 79, 0
3, 2592, Note_on_c, 0, 74, 80
3, 2639, Note_off_c, 0, 74, 0
3, 2640, Note_on_c, 0, 70, 80
3, 2687, Note_off_c, 0, 82, 0
3, 2687, Note_off_c, 0, 70, 0
3, 2688, Note_on_c, 0, 73, 80
3, 2688, Note_on_c, 0, 85, 80
3, 2735, Note_off_c, 0, 73, 0
3, 2736, Note_on_c, 0, 81, 80
3, 2783, Note_off_c, 0, 81, 0
3, 2784, Note_on_c, 0, 76, 80
3, 2831, Note_off_c, 0, 76, 0
3, 2832, Note_on_c, 0, 73, 80
3, 2879, Note_off_c, 0, 85, 0
3, 2879, Note_off_c, 0, 73, 0
3, 2880, Note_on_c, 0, 76, 80
3, 2880, Note_on_c, 0, 88, 80
3, 2927, Note_off_c, 0, 88, 0
3, 2927, Note_off_c, 0, 76, 0
3, 2928, Note_on_c, 0, 85, 80
3, 2975, Note_off_c, 0, 85, 0
3, 2976, Note_on_c, 0, 81, 80
3, 3023, Note_off_c, 0, 81, 0
3, 3072, Note_on_c, 0, 58, 64
3, 3083, Note_off_c, 0, 58, 0
3, 3084, Note_on_c, 0, 62, 64
3, 3095, Note_off_c, 0, 62, 0
3, 3096, Note_on_c, 0, 69, 64
3, 3167, Note_off_c, 0, 69, 0
3, 3168, Note_on_c, 0, 65, 64
3, 3215, Note_off_c, 0, 65, 0
3, 3216, Note_on_c, 0, 65, 64
3, 3311, Note_off_c, 0, 65, 0
3, 3312, Note_on_c, 0, 62, 64
3, 3359, Note_off_c, 0, 62, 0
3, 3360, Note_on_c, 0, 65, 64
3, 3407, Note_off_c, 0, 65, 0
3, 3408, Note_on_c, 0, 64, 64
3, 3503, Note_off_c, 0, 64, 0
3, 3504, Note_on_c, 0, 65, 64
3, 3551, Note_off_c, 0, 65, 0
3, 3552, Note_on_c, 0, 67, 64
3, 3743, Note_off_c, 0, 67, 0
3, 3744, Note_on_c, 0, 62, 64
3, 3791, Note_off_c, 0, 62, 0
3, 3792, Note_on_c, 0, 62, 64
3, 3839, Note_off_c, 0, 62, 0
3, 3840, Note_on_c, 0, 60, 64
3, 3840, Note_on_c, 0, 64, 64
3, 3935, Note_off_c, 0, 64, 0
3, 3935, Note_off_c, 0, 60, 0
3, 3936, Note_on_c, 0, 60, 64
3, 3983, Note_off_c, 0, 60, 0
3, 3984, Note_on_c, 0, 67, 64
3, 4079, Note_off_c, 0, 67, 0
3, 4080, Note_on_c, 0, 60, 64
3, 4127, Note_off_c, 0, 60, 0
3, 4128, Note_on_c, 0, 64, 64
3, 4175, Note_off_c, 0, 64, 0
3, 4176, Note_on_c, 0, 64, 64
3, 4223, Note_off_c, 0, 64, 0
3, 4224, Note_on_c, 0, 62, 64
3, 4415, Note_off_c, 0, 62, 0
3, 4416, Note_on_c, 0, 62, 64
3, 4511, Note_off_c, 0, 62, 0
3, 4512, Note_on_c, 0, 65, 64
3, 4607, Note_off_c, 0, 65, 0
3, 4608, Note_on_c, 0, 58, 64
3, 4608, Note_on_c, 0, 62, 64
3, 4608, Note_on_c, 0, 67, 64
3, 4703, Note_off_c, 0, 67, 0
3, 4703, Note_off_c, 0, 58, 0
3, 4703, Note_off_c, 0, 62, 0
3, 4704, Note_on_c, 0, 69, 64
3, 4751, Note_off_c, 0, 69, 0
3, 4752, Note_on_c, 0, 67, 64
3, 4895, Note_off_c, 0, 67, 0
3, 4896, Note_on_c, 0, 67, 64
3, 4943, Note_off_c, 0, 67, 0
3, 4944, Note_on_c, 0, 67, 64
3, 4991, Note_off_c, 0, 67, 0
3, 4992, Note_on_c, 0, 60, 64
3, 4992, Note_on_c, 0, 69, 64
3, 5087, Note_off_c, 0, 69, 0
3, 5087, Note_off_c, 0, 60, 0
3, 5088, Note_on_c, 0, 64, 64
3, 5135, Note_off_c, 0, 64, 0
3, 5136, Note_on_c, 0, 64, 64
3, 5231, Note_off_c, 0, 64, 0
3, 5232, Note_on_c, 0, 60, 64
3, 5279, Note_off_c, 0, 60, 0
3, 5280, Note_on_c, 0, 67, 64
3, 5327, Note_off_c, 0, 67, 0
3, 5328, Note_on_c, 0, 67, 64
3, 5375, Note_off_c, 0, 67, 0
3, 5376, Note_on_c, 0, 65, 64
3, 5423, Note_off_c, 0, 65, 0
3, 5424, Note_on_c, 0, 60, 96
3, 5424, Note_on_c, 0, 72, 96
3, 5471, Note_off_c, 0, 60, 0
3, 5471, Note_off_c, 0, 72, 0
3, 5472, Note_on_c, 0, 61, 96
3, 5472, Note_on_c, 0, 73, 96
3, 5519, Note_off_c, 0, 61, 0
3, 5519, Note_off_c, 0, 73, 0
3, 5520, Note_on_c, 0, 62, 96
3, 5520, Note_on_c, 0, 74, 96
3, 5567, Note_off_c, 0, 74, 0
3, 5567, Note_off_c, 0, 62, 0
3, 5616, Note_on_c, 0, 69, 96
3, 5616, Note_on_c, 0, 81, 96
3, 5639, Note_off_c, 0, 69, 0
3, 5639, Note_off_c, 0, 81, 0
3, 5664, Note_on_c, 0, 67, 96
3, 5664, Note_on_c, 0, 79, 96
3, 5687, Note_off_c, 0, 67, 0
3, 5687, Note_off_c, 0, 79, 0
3, 5712, Note_on_c, 0, 65, 96
3, 5712, Note_on_c, 0, 77, 96
3, 5855, Note_off_c, 0, 65, 0
3, 5855, Note_off_c, 0, 77, 0
3, 5856, Note_on_c, 0, 65, 96
3, 5856, Note_on_c, 0, 77, 96
3, 5903, Note_off_c, 0, 65, 0
3, 5903, Note_off_c, 0, 77, 0
3, 5904, Note_on_c, 0, 67, 96
3, 5904, Note_on_c, 0, 79, 96
3, 5999, Note_off_c, 0, 79, 0
3, 5999, Note_off_c, 0, 67, 0
3, 6000, Note_on_c, 0, 60, 96
3, 6000, Note_on_c, 0, 64, 96
3, 6000, Note_on_c, 0, 72, 96
3, 6047, Note_off_c, 0, 60, 0
3, 6047, Note_off_c, 0, 64, 0
3, 6047, Note_off_c, 0, 72, 0
3, 6048, Note_on_c, 0, 60, 96
3, 6048, Note_on_c, 0, 64, 96
3, 6048, Note_on_c, 0, 72, 96
3, 6191, Note_off_c, 0, 72, 0
3, 6191, Note_off_c, 0, 64, 0
3, 6191, Note_off_c, 0, 60, 0
3, 6336, Note_on_c, 0, 69, 96
3, 6347, Note_off_c, 0, 69, 0
3, 6348, Note_on_c, 0, 74, 96
3, 6359, Note_off_c, 0, 74, 0
3, 6360, Note_on_c, 0, 81, 96
3, 6431, Note_off_c, 0, 81, 0
3, 6432, Note_on_c, 0, 65, 96
3, 6432, Note_on_c, 0, 77, 96
3, 6479, Note_off_c, 0, 65, 0
3, 6479, Note_off_c, 0, 77, 0
3, 6480, Note_on_c, 0, 65, 96
3, 6480, Note_on_c, 0, 77, 96
3, 6575, Note_off_c, 0, 77, 0
3, 6575, Note_off_c, 0, 65, 0
3, 6576, Note_on_c, 0, 62, 96
3, 6576, Note_on_c, 0, 74, 96
3, 6623, Note_off_c, 0, 62, 0
3, 6623, Note_off_c, 0, 74, 0
3, 6624, Note_on_c, 0, 65, 96
3, 6624, Note_on_c, 0, 77, 96
3, 6671, Note_off_c, 0, 65, 0
3, 6671, Note_off_c, 0, 77, 0
3, 6672, Note_on_c, 0, 64, 96
3, 6672, Note_on_c, 0, 76, 96
3, 6767, Note_off_c, 0, 76, 0
3, 6767, Note_off_c, 0, 64, 0
3, 6768, Note_on_c, 0, 65, 96
3, 6768, Note_on_c, 0, 77, 96
3, 6815, Note_off_c, 0, 65, 0
3, 6815, Note_off_c, 0, 77, 0
3, 6816, Note_on_c, 0, 67, 96
3, 6816, Note_on_c, 0, 79, 96
3, 7007, Note_off_c, 0, 67, 0
3, 7007, Note_off_c, 0, 79, 0
3, 7008, Note_on_c, 0, 62, 96
3, 7008, Note_on_c, 0, 74, 96
3, 7055, Note_off_c, 0, 62, 0
3, 7055, Note_off_c, 0, 74, 0
3, 7056, Note_on_c, 0, 62, 96
3, 7056, Note_on_c, 0, 74, 96
3, 7103, Note_off_c, 0, 62, 0
3, 7103, Note_off_c, 0, 74, 0
3, 7104, Note_on_c, 0, 64, 96
3, 7104, Note_on_c, 0, 76, 96
3, 7199, Note_off_c, 0, 76, 0
3, 7199, Note_off_c, 0, 64, 0
3, 7200, Note_on_c, 0, 60, 96
3, 7200, Note_on_c, 0, 72, 96
3, 7247, Note_off_c, 0, 60, 0
3, 7247, Note_off_c, 0, 72, 0
3, 7248, Note_on_c, 0, 67, 96
3, 7248, Note_on_c, 0, 79, 96
3, 7343, Note_off_c, 0, 79, 0
3, 7343, Note_off_c, 0, 67, 0
3, 7344, Note_on_c, 0, 69, 96
3, 7344, Note_on_c, 0, 81, 96
3, 7391, Note_off_c, 0, 69, 0
3, 7391, Note_off_c, 0, 81, 0
3, 7392, Note_on_c, 0, 67, 96
3, 7392, Note_on_c, 0, 79, 96
3, 7439, Note_off_c, 0, 67, 0
3, 7439, Note_off_c, 0, 79, 0
3, 7440, Note_on_c, 0, 67, 96
3, 7440, Note_on_c, 0, 79, 96
3, 7487, Note_off_c, 0, 67, 0
3, 7487, Note_off_c, 0, 79, 0
3, 7488, Note_on_c, 0, 65, 96
3, 7488, Note_on_c, 0, 69, 96
3, 7488, Note_on_c, 0, 77, 96
3, 7679, Note_off_c, 0, 69, 0
3, 7679, Note_off_c, 0, 77, 0
3, 7679, Note_off_c, 0, 65, 0
3, 7680, Note_on_c, 0, 62, 96
3, 7680, Note_on_c, 0, 74, 96
3, 7775, Note_off_c, 0, 74, 0
3, 7775, Note_off_c, 0, 62, 0
3, 7776, Note_on_c, 0, 69, 96
3, 7776, Note_on_c, 0, 81, 96
3, 7871, Note_off_c, 0, 81, 0
3, 7871, Note_off_c, 0, 69, 0
3, 7872, Note_on_c, 0, 70, 96
3, 7883, Note_off_c, 0, 70, 0
3, 7884, Note_on_c, 0, 74, 96
3, 7895, Note_off_c, 0, 74, 0
3, 7896, Note_on_c, 0, 82, 96
3, 7967, Note_off_c, 0, 82, 0
3, 7968, Note_on_c, 0, 65, 96
3, 7968, Note_on_c, 0, 70, 96
3, 7968, Note_on_c, 0, 77, 96
3, 8015, Note_off_c, 0, 65, 0
3, 8015, Note_off_c, 0, 70, 0
3, 8015, Note_off_c, 0, 77, 0
3, 8016, Note_on_c, 0, 65, 96
3, 8016, Note_on_c, 0, 70, 96
3, 8016, Note_on_c, 0, 77, 96
3, 8159, Note_off_c, 0, 77, 0
3, 8159, Note_off_c, 0, 70, 0
3, 8159, Note_off_c, 0, 65, 0
3, 8160, Note_on_c, 0, 62, 96
3, 8160, Note_on_c, 0, 74, 96
3, 8207, Note_off_c, 0, 62, 0
3, 8207, Note_off_c, 0, 74, 0
3, 8208, Note_on_c, 0, 65, 96
3, 8208, Note_on_c, 0, 77, 96
3, 8255, Note_off_c, 0, 65, 0
3, 8255, Note_off_c, 0, 77, 0
3, 8256, Note_on_c, 0, 64, 96
3, 8256, Note_on_c, 0, 76, 96
3, 8351, Note_off_c, 0, 76, 0
3, 8351, Note_off_c, 0, 64, 0
3, 8352, Note_on_c, 0, 65, 96
3, 8352, Note_on_c, 0, 77, 96
3, 8399, Note_off_c, 0, 65, 0
3, 8399, Note_off_c, 0, 77, 0
3, 8400, Note_on_c, 0, 67, 96
3, 8400, Note_on_c, 0, 79, 96
3, 8495, Note_off_c, 0, 79, 0
3, 8495, Note_off_c, 0, 67, 0
3, 8496, Note_on_c, 0, 60, 96
3, 8496, Note_on_c, 0, 72, 96
3, 8543, Note_off_c, 0, 60, 0
3, 8543, Note_off_c, 0, 72, 0
3, 8544, Note_on_c, 0, 64, 96
3, 8544, Note_on_c, 0, 76, 96
3, 8591, Note_off_c, 0, 64, 0
3, 8591, Note_off_c, 0, 76, 0
3, 8592, Note_on_c, 0, 65, 96
3, 8592, Note_on_c, 0, 77, 96
3, 8783, Note_off_c, 0, 77, 0
3, 8783, Note_off_c, 0, 65, 0
3, 8784, Note_on_c, 0, 65, 96
3, 8784, Note_on_c, 0, 77, 96
3, 8807, Note_off_c, 0, 65, 0
3, 8807, Note_off_c, 0, 77, 0
3, 8832, Note_on_c, 0, 67, 96
3, 8832, Note_on_c, 0, 79, 96
3, 8855, Note_off_c, 0, 67, 0
3, 8855, Note_off_c, 0, 79, 0
3, 8880, Note_on_c, 0, 64, 96
3, 8880, Note_on_c, 0, 76, 96
3, 8903, Note_off_c, 0, 64, 0
3, 8903, Note_off_c, 0, 76, 0
3, 8928, Note_on_c, 0, 60, 96
3, 8928, Note_on_c, 0, 72, 96
3, 8951, Note_off_c, 0, 60, 0
3, 8951, Note_off_c, 0, 72, 0
3, 8976, Note_on_c, 0, 62, 96
3, 8976, Note_on_c, 0, 74, 96
3, 9167, Note_off_c, 0, 74, 0
3, 9167, Note_off_c, 0, 62, 0
3, 9168, Note_on_c, 0, 62, 96
3, 9168, Note_on_c, 0, 74, 96
3, 9191, Note_off_c, 0, 62, 0
3, 9191, Note_off_c, 0, 74, 0
3, 9216, Note_on_c, 0, 69, 96
3, 9216, Note_on_c, 0, 81, 96
3, 9239, Note_off_c, 0, 69, 0
3, 9239, Note_off_c, 0, 81, 0
3, 9264, Note_on_c, 0, 65, 96
3, 9264, Note_on_c, 0, 77, 96
3, 9287, Note_off_c, 0, 65, 0
3, 9287, Note_off_c, 0, 77, 0
3, 9312, Note_on_c, 0, 67, 96
3, 9312, Note_on_c, 0, 79, 96
3, 9335, Note_off_c, 0, 67, 0
3, 9335, Note_off_c, 0, 79, 0
3, 9360, Note_on_c, 0, 65, 96
3, 9360, Note_on_c, 0, 77, 96
3, 9503, Note_off_c, 0, 77, 0
3, 9503, Note_off_c, 0, 65, 0
3, 9504, Note_on_c, 0, 62, 96
3, 9504, Note_on_c, 0, 65, 96
3, 9504, Note_on_c, 0, 74, 96
3, 9599, Note_off_c, 0, 74, 0
3, 9599, Note_off_c, 0, 62, 0
3, 9599, Note_off_c, 0, 65, 0
3, 9600, Note_on_c, 0, 70, 96
3, 9611, Note_off_c, 0, 70, 0
3, 9612, Note_on_c, 0, 74, 96
3, 9623, Note_off_c, 0, 74, 0
3, 9624, Note_on_c, 0, 77, 96
3, 9635, Note_off_c, 0, 77, 0
3, 9636, Note_on_c, 0, 82, 96
3, 9647, Note_off_c, 0, 82, 0
3, 9648, Note_on_c, 0, 69, 96
3, 9648, Note_on_c, 0, 74, 96
3, 9648, Note_on_c, 0, 81, 96
3, 9743, Note_off_c, 0, 81, 0
3, 9743, Note_off_c, 0, 74, 0
3, 9743, Note_off_c, 0, 69, 0
3, 9744, Note_on_c, 0, 67, 96
3, 9744, Note_on_c, 0, 72, 96
3, 9744, Note_on_c, 0, 79, 96
3, 9839, Note_off_c, 0, 79, 0
3, 9839, Note_off_c, 0, 72, 0
3, 9839, Note_off_c, 0, 67, 0
3, 9840, Note_on_c, 0, 65, 96
3, 9840, Note_on_c, 0, 77, 96
3, 9887, Note_off_c, 0, 65, 0
3, 9887, Note_off_c, 0, 77, 0
3, 9888, Note_on_c, 0, 67, 96
3, 9888, Note_on_c, 0, 79, 96
3, 9935, Note_off_c, 0, 67, 0
3, 9935, Note_off_c, 0, 79, 0
3, 9936, Note_on_c, 0, 67, 96
3, 9936, Note_on_c, 0, 79, 96
3, 9983, Note_off_c, 0, 67, 0
3, 9983, Note_off_c, 0, 79, 0
3, 9984, Note_on_c, 0, 64, 96
3, 9984, Note_on_c, 0, 67, 96
3, 9984, Note_on_c, 0, 76, 96
3, 10127, Note_off_c, 0, 67, 0
3, 10127, Note_off_c, 0, 76, 0
3, 10127, Note_off_c, 0, 64, 0
3, 10128, Note_on_c, 0, 60, 96
3, 10128, Note_on_c, 0, 64, 96
3, 10128, Note_on_c, 0, 72, 96
3, 10175, Note_off_c, 0, 60, 0
3, 10175, Note_off_c, 0, 64, 0
3, 10175, Note_off_c, 0, 72, 0
3, 10176, Note_on_c, 0, 60, 96
3, 10176, Note_on_c, 0, 64, 96
3, 10176, Note_on_c, 0, 72, 96
3, 10271, Note_off_c, 0, 72, 0
3, 10271, Note_off_c, 0, 60, 0
3, 10271, Note_off_c, 0, 64, 0
3, 10272, Note_on_c, 0, 70, 96
3, 10272, Note_on_c, 0, 82, 96
3, 10319, Note_off_c, 0, 70, 0
3, 10319, Note_off_c, 0, 82, 0
3, 10320, Note_on_c, 0, 69, 96
3, 10320, Note_on_c, 0, 81, 96
3, 10415, Note_off_c, 0, 81, 0
3, 10415, Note_off_c, 0, 69, 0
3, 10416, Note_on_c, 0, 64, 96
3, 10416, Note_on_c, 0, 76, 96
3, 10463, Note_off_c, 0, 64, 0
3, 10463, Note_off_c, 0, 76, 0
3, 10464, Note_on_c, 0, 67, 96
3, 10464, Note_on_c, 0, 79, 96
3, 10511, Note_off_c, 0, 67, 0
3, 10511, Note_off_c, 0, 79, 0
3, 10512, Note_on_c, 0, 67, 96
3, 10512, Note_on_c, 0, 79, 96
3, 10559, Note_off_c, 0, 67, 0
3, 10559, Note_off_c, 0, 79, 0
3, 10560, Note_on_c, 0, 65, 96
3, 10560, Note_on_c, 0, 69, 96
3, 10560, Note_on_c, 0, 77, 96
3, 10751, Note_off_c, 0, 69, 0
3, 10751, Note_off_c, 0, 77, 0
3, 10751, Note_off_c, 0, 65, 0
3, 10800, Note_on_c, 0, 69, 96
3, 10800, Note_on_c, 0, 81, 96
3, 10847, Note_off_c, 0, 69, 0
3, 10847, Note_off_c, 0, 81, 0
3, 10848, Note_on_c, 0, 67, 96
3, 10848, Note_on_c, 0, 79, 96
3, 10895, Note_off_c, 0, 67, 0
3, 10895, Note_off_c, 0, 79, 0
3, 10896, Note_on_c, 0, 65, 96
3, 10896, Note_on_c, 0, 77, 96
3, 10991, Note_off_c, 0, 77, 0
3, 10991, Note_off_c, 0, 65, 0
3, 10992, Note_on_c, 0, 62, 96
3, 10992, Note_on_c, 0, 74, 96
3, 11039, Note_off_c, 0, 62, 0
3, 11039, Note_off_c, 0, 74, 0
3, 11040, Note_on_c, 0, 62, 96
3, 11040, Note_on_c, 0, 74, 96
3, 11183, Note_off_c, 0, 62, 0
3, 11183, Note_off_c, 0, 74, 0
3, 11184, Note_on_c, 0, 62, 96
3, 11184, Note_on_c, 0, 74, 96
3, 11231, Note_off_c, 0, 62, 0
3, 11231, Note_off_c, 0, 74, 0
3, 11232, Note_on_c, 0, 69, 96
3, 11232, Note_on_c, 0, 81, 96
3, 11279, Note_off_c, 0, 69, 0
3, 11279, Note_off_c, 0, 81, 0
3, 11280, Note_on_c, 0, 67, 96
3, 11280, Note_on_c, 0, 79, 96
3, 11375, Note_off_c, 0, 79, 0
3, 11375, Note_off_c, 0, 67, 0
3, 11376, Note_on_c, 0, 69, 96
3, 11376, Note_on_c, 0, 81, 96
3, 11423, Note_off_c, 0, 69, 0
3, 11423, Note_off_c, 0, 81, 0
3, 11424, Note_on_c, 0, 64, 96
3, 11424, Note_on_c, 0, 76, 96
3, 11615, Note_off_c, 0, 64, 0
3, 11615, Note_off_c, 0, 76, 0
3, 11616, Note_on_c, 0, 60, 96
3, 11616, Note_on_c, 0, 72, 96
3, 11663, Note_off_c, 0, 60, 0
3, 11663, Note_off_c, 0, 72, 0
3, 11664, Note_on_c, 0, 60, 96
3, 11664, Note_on_c, 0, 72, 96
3, 11711, Note_off_c, 0, 60, 0
3, 11711, Note_off_c, 0, 72, 0
3, 11712, Note_on_c, 0, 69, 96
3, 11712, Note_on_c, 0, 81, 96
3, 11807, Note_off_c, 0, 81, 0
3, 11807, Note_off_c, 0, 69, 0
3, 11808, Note_on_c, 0, 69, 96
3, 11808, Note_on_c, 0, 81, 96
3, 11855, Note_off_c, 0, 69, 0
3, 11855, Note_off_c, 0, 81, 0
3, 11856, Note_on_c, 0, 67, 96
3, 11856, Note_on_c, 0, 79, 96
3, 11951, Note_off_c, 0, 79, 0
3, 11951, Note_off_c, 0, 67, 0
3, 11952, Note_on_c, 0, 60, 96
3, 11952, Note_on_c, 0, 72, 96
3, 11999, Note_off_c, 0, 60, 0
3, 11999, Note_off_c, 0, 72, 0
3, 12000, Note_on_c, 0, 60, 96
3, 12000, Note_on_c, 0, 72, 96
3, 12047, Note_off_c, 0, 60, 0
3, 12047, Note_off_c, 0, 72, 0
3, 12048, Note_on_c, 0, 62, 96
3, 12048, Note_on_c, 0, 74, 96
3, 12239, Note_off_c, 0, 74, 0
3, 12239, Note_off_c, 0, 62, 0
3, 12240, Note_on_c, 0, 62, 96
3, 12240, Note_on_c, 0, 74, 96
3, 12263, Note_off_c, 0, 62, 0
3, 12263, Note_off_c, 0, 74, 0
3, 12288, Note_on_c, 0, 69, 96
3, 12288, Note_on_c, 0, 81, 96
3, 12311, Note_off_c, 0, 69, 0
3, 12311, Note_off_c, 0, 81, 0
3, 12336, Note_on_c, 0, 65, 96
3, 12336, Note_on_c, 0, 77, 96
3, 12359, Note_off_c, 0, 65, 0
3, 12359, Note_off_c, 0, 77, 0
3, 12384, Note_on_c, 0, 67, 96
3, 12384, Note_on_c, 0, 79, 96
3, 12407, Note_off_c, 0, 67, 0
3, 12407, Note_off_c, 0, 79, 0
3, 12432, Note_on_c, 0, 65, 96
3, 12432, Note_on_c, 0, 77, 96
3, 12575, Note_off_c, 0, 77, 0
3, 12575, Note_off_c, 0, 65, 0
3, 12576, Note_on_c, 0, 62, 96
3, 12576, Note_on_c, 0, 65, 96
3, 12576, Note_on_c, 0, 74, 96
3, 12671, Note_off_c, 0, 74, 0
3, 12671, Note_off_c, 0, 62, 0
3, 12671, Note_off_c, 0, 65, 0
3, 12672, Note_on_c, 0, 70, 96
3, 12672, Note_on_c, 0, 74, 96
3, 12672, Note_on_c, 0, 77, 96
3, 12672, Note_on_c, 0, 82, 96
3, 12719, Note_off_c, 0, 70, 0
3, 12719, Note_off_c, 0, 74, 0
3, 12719, Note_off_c, 0, 77, 0
3, 12719, Note_off_c, 0, 82, 0
3, 12720, Note_on_c, 0, 69, 96
3, 12720, Note_on_c, 0, 74, 96
3, 12720, Note_on_c, 0, 81, 96
3, 12815, Note_off_c, 0, 81, 0
3, 12815, Note_off_c, 0, 74, 0
3, 12815, Note_off_c, 0, 69, 0
3, 12816, Note_on_c, 0, 67, 96
3, 12816, Note_on_c, 0, 72, 96
3, 12816, Note_on_c, 0, 79, 96
3, 12911, Note_off_c, 0, 79, 0
3, 12911, Note_off_c, 0, 72, 0
3, 12911, Note_off_c, 0, 67, 0
3, 12912, Note_on_c, 0, 65, 96
3, 12912, Note_on_c, 0, 77, 96
3, 12959, Note_off_c, 0, 65, 0
3, 12959, Note_off_c, 0, 77, 0
3, 12960, Note_on_c, 0, 67, 96
3, 12960, Note_on_c, 0, 79, 96
3, 13007, Note_off_c, 0, 67, 0
3, 13007, Note_off_c, 0, 79, 0
3, 13008, Note_on_c, 0, 67, 96
3, 13008, Note_on_c, 0, 79, 96
3, 13055, Note_off_c, 0, 67, 0
3, 13055, Note_off_c, 0, 79, 0
3, 13056, Note_on_c, 0, 64, 96
3, 13056, Note_on_c, 0, 67, 96
3, 13056, Note_on_c, 0, 76, 96
3, 13199, Note_off_c, 0, 67, 0
3, 13199, Note_off_c, 0, 76, 0
3, 13199, Note_off_c, 0, 64, 0
3, 13200, Note_on_c, 0, 60, 96
3, 13200, Note_on_c, 0, 64, 96
3, 13200, Note_on_c, 0, 72, 96
3, 13247, Note_off_c, 0, 60, 0
3, 13247, Note_off_c, 0, 64, 0
3, 13247, Note_off_c, 0, 72, 0
3, 13248, Note_on_c, 0, 60, 96
3, 13248, Note_on_c, 0, 64, 96
3, 13248, Note_on_c, 0, 72, 96
3, 13343, Note_off_c, 0, 72, 0
3, 13343, Note_off_c, 0, 60, 0
3, 13343, Note_off_c, 0, 64, 0
3, 13344, Note_on_c, 0, 70, 96
3, 13344, Note_on_c, 0, 82, 96
3, 13391, Note_off_c, 0, 70, 0
3, 13391, Note_off_c, 0, 82, 0
3, 13392, Note_on_c, 0, 69, 96
3, 13392, Note_on_c, 0, 81, 96
3, 13487, Note_off_c, 0, 81, 0
3, 13487, Note_off_c, 0, 69, 0
3, 13488, Note_on_c, 0, 64, 96
3, 13488, Note_on_c, 0, 76, 96
3, 13535, Note_off_c, 0, 64, 0
3, 13535, Note_off_c, 0, 76, 0
3, 13536, Note_on_c, 0, 67, 96
3, 13536, Note_on_c, 0, 79, 96
3, 13583, Note_off_c, 0, 67, 0
3, 13583, Note_off_c, 0, 79, 0
3, 13584, Note_on_c, 0, 67, 96
3, 13584, Note_on_c, 0, 79, 96
3, 13631, Note_off_c, 0, 67, 0
3, 13631, Note_off_c, 0, 79, 0
3, 13632, Note_on_c, 0, 65, 96
3, 13632, Note_on_c, 0, 69, 96
3, 13632, Note_on_c, 0, 77, 96
3, 13823, Note_off_c, 0, 69, 0
3, 13823, Note_off_c, 0, 77, 0
3, 13823, Note_off_c, 0, 65, 0
3, 13872, Note_on_c, 0, 62, 96
3, 13872, Note_on_c, 0, 74, 96
3, 13919, Note_off_c, 0, 62, 0
3, 13919, Note_off_c, 0, 74, 0
3, 13920, Note_on_c, 0, 64, 96
3, 13920, Note_on_c, 0, 76, 96
3, 13967, Note_off_c, 0, 64, 0
3, 13967, Note_off_c, 0, 76, 0
3, 13968, Note_on_c, 0, 65, 96
3, 13968, Note_on_c, 0, 77, 96
3, 14111, Note_off_c, 0, 77, 0
3, 14111, Note_off_c, 0, 65, 0
3, 14112, Note_on_c, 0, 67, 96
3, 14112, Note_on_c, 0, 79, 96
3, 14159, Note_off_c, 0, 67, 0
3, 14159, Note_off_c, 0, 79, 0
3, 14160, Note_on_c, 0, 65, 96
3, 14160, Note_on_c, 0, 77, 96
3, 14255, Note_off_c, 0, 77, 0
3, 14255, Note_off_c, 0, 65, 0
3, 14256, Note_on_c, 0, 64, 96
3, 14256, Note_on_c, 0, 76, 96
3, 14303, Note_off_c, 0, 64, 0
3, 14303, Note_off_c, 0, 76, 0
3, 14304, Note_on_c, 0, 65, 96
3, 14304, Note_on_c, 0, 77, 96
3, 14351, Note_off_c, 0, 65, 0
3, 14351, Note_off_c, 0, 77, 0
3, 14352, Note_on_c, 0, 67, 96
3, 14352, Note_on_c, 0, 79, 96
3, 14495, Note_off_c, 0, 79, 0
3, 14495, Note_off_c, 0, 67, 0
3, 14496, Note_on_c, 0, 69, 96
3, 14496, Note_on_c, 0, 81, 96
3, 14543, Note_off_c, 0, 69, 0
3, 14543, Note_off_c, 0, 81, 0
3, 14544, Note_on_c, 0, 67, 96
3, 14544, Note_on_c, 0, 79, 96
3, 14687, Note_off_c, 0, 79, 0
3, 14687, Note_off_c, 0, 67, 0
3, 14688, Note_on_c, 0, 70, 96
3, 14688, Note_on_c, 0, 82, 96
3, 14735, Note_off_c, 0, 70, 0
3, 14735, Note_off_c, 0, 82, 0
3, 14736, Note_on_c, 0, 69, 96
3, 14736, Note_on_c, 0, 81, 96
3, 14831, Note_off_c, 0, 81, 0
3, 14831, Note_off_c, 0, 69, 0
3, 14832, Note_on_c, 0, 67, 96
3, 14832, Note_on_c, 0, 79, 96
3, 14879, Note_off_c, 0, 67, 0
3, 14879, Note_off_c, 0, 79, 0
3, 14880, Note_on_c, 0, 69, 96
3, 14880, Note_on_c, 0, 81, 96
3, 14927, Note_off_c, 0, 69, 0
3, 14927, Note_off_c, 0, 81, 0
3, 14928, Note_on_c, 0, 70, 96
3, 14928, Note_on_c, 0, 74, 96
3, 14928, Note_on_c, 0, 82, 96
3, 15119, Note_off_c, 0, 82, 0
3, 15119, Note_off_c, 0, 74, 0
3, 15119, Note_off_c, 0, 70, 0
3, 15120, Note_on_c, 0, 70, 96
3, 15120, Note_on_c, 0, 74, 96
3, 15120, Note_on_c, 0, 82, 96
3, 15215, Note_off_c, 0, 82, 0
3, 15215, Note_off_c, 0, 70, 0
3, 15215, Note_off_c, 0, 74, 0
3, 15216, Note_on_c, 0, 72, 96
3, 15216, Note_on_c, 0, 84, 96
3, 15311, Note_off_c, 0, 84, 0
3, 15311, Note_off_c, 0, 72, 0
3, 15312, Note_on_c, 0, 69, 96
3, 15312, Note_on_c, 0, 81, 96
3, 15407, Note_off_c, 0, 81, 0
3, 15407, Note_off_c, 0, 69, 0
3, 15408, Note_on_c, 0, 67, 96
3, 15408, Note_on_c, 0, 79, 96
3, 15455, Note_off_c, 0, 79, 0
3, 15455, Note_off_c, 0, 67, 0
3, 15456, Note_on_c, 0, 69, 96
3, 15456, Note_on_c, 0, 81, 96
3, 15647, Note_off_c, 0, 81, 0
3, 15647, Note_off_c, 0, 69, 0
3, 15648, Note_on_c, 0, 69, 96
3, 15648, Note_on_c, 0, 81, 96
3, 15695, Note_off_c, 0, 69, 0
3, 15695, Note_off_c, 0, 81, 0
3, 15696, Note_on_c, 0, 69, 96
3, 15696, Note_on_c, 0, 81, 96
3, 15743, Note_off_c, 0, 69, 0
3, 15743, Note_off_c, 0, 81, 0
3, 15744, Note_on_c, 0, 68, 96
3, 15744, Note_on_c, 0, 80, 96
3, 15791, Note_off_c, 0, 80, 0
3, 15791, Note_off_c, 0, 68, 0
3, 15792, Note_on_c, 0, 69, 96
3, 15792, Note_on_c, 0, 81, 96
3, 15839, Note_off_c, 0, 81, 0
3, 15839, Note_off_c, 0, 69, 0
3, 15840, Note_on_c, 0, 71, 96
3, 15840, Note_on_c, 0, 83, 96
3, 15935, Note_off_c, 0, 83, 0
3, 15935, Note_off_c, 0, 71, 0
3, 15936, Note_on_c, 0, 72, 112
3, 15936, Note_on_c, 0, 76, 112
3, 15936, Note_on_c, 0, 84, 112
3, 15983, Note_off_c, 0, 72, 0
3, 15983, Note_off_c, 0, 76, 0
3, 15983, Note_off_c, 0, 84, 0
3, 15984, Note_on_c, 0, 71, 112
3, 15984, Note_on_c, 0, 83, 112
3, 16031, Note_off_c, 0, 71, 0
3, 16031, Note_off_c, 0, 83, 0
3, 16032, Note_on_c, 0, 67, 112
3, 16032, Note_on_c, 0, 79, 112
3, 16079, Note_off_c, 0, 67, 0
3, 16079, Note_off_c, 0, 79, 0
3, 16080, Note_on_c, 0, 67, 112
3, 16080, Note_on_c, 0, 79, 112
3, 16175, Note_off_c, 0, 79, 0
3, 16175, Note_off_c, 0, 67, 0
3, 16176, Note_on_c, 0, 64, 112
3, 16176, Note_on_c, 0, 76, 112
3, 16223, Note_off_c, 0, 64, 0
3, 16223, Note_off_c, 0, 76, 0
3, 16224, Note_on_c, 0, 71, 112
3, 16224, Note_on_c, 0, 83, 112
3, 16271, Note_off_c, 0, 71, 0
3, 16271, Note_off_c, 0, 83, 0
3, 16272, Note_on_c, 0, 71, 112
3, 16272, Note_on_c, 0, 83, 112
3, 16319, Note_off_c, 0, 71, 0
3, 16319, Note_off_c, 0, 83, 0
3, 16320, Note_on_c, 0, 69, 112
3, 16320, Note_on_c, 0, 72, 112
3, 16320, Note_on_c, 0, 77, 112
3, 16320, Note_on_c, 0, 81, 112
3, 16511, Note_off_c, 0, 81, 0
3, 16511, Note_off_c, 0, 77, 0
3, 16511, Note_off_c, 0, 72, 0
3, 16511, Note_off_c, 0, 69, 0
3, 16560, Note_on_c, 0, 64, 112
3, 16560, Note_on_c, 0, 76, 112
3, 16607, Note_off_c, 0, 64, 0
3, 16607, Note_off_c, 0, 76, 0
3, 16608, Note_on_c, 0, 67, 112
3, 16608, Note_on_c, 0, 79, 112
3, 16655, Note_off_c, 0, 67, 0
3, 16655, Note_off_c, 0, 79, 0
3, 16656, Note_on_c, 0, 65, 112
3, 16656, Note_on_c, 0, 77, 112
3, 16703, Note_off_c, 0, 65, 0
3, 16703, Note_off_c, 0, 77, 0
3, 16704, Note_on_c, 0, 69, 112
3, 16704, Note_on_c, 0, 74, 112
3, 16799, Note_off_c, 0, 74, 0
3, 16799, Note_off_c, 0, 69, 0
3, 16800, Note_on_c, 0, 69, 112
3, 16800, Note_on_c, 0, 74, 112
3, 16800, Note_on_c, 0, 81, 112
3, 16847, Note_off_c, 0, 69, 0
3, 16847, Note_off_c, 0, 74, 0
3, 16847, Note_off_c, 0, 81, 0
3, 16848, Note_on_c, 0, 67, 112
3, 16848, Note_on_c, 0, 71, 112
3, 16848, Note_on_c, 0, 79, 112
3, 16943, Note_off_c, 0, 79, 0
3, 16943, Note_off_c, 0, 67, 0
3, 16943, Note_off_c, 0, 71, 0
3, 16944, Note_on_c, 0, 62, 112
3, 16944, Note_on_c, 0, 74, 112
3, 17039, Note_off_c, 0, 74, 0
3, 17039, Note_off_c, 0, 62, 0
3, 17040, Note_on_c, 0, 62, 112
3, 17040, Note_on_c, 0, 74, 112
3, 17135, Note_off_c, 0, 74, 0
3, 17135, Note_off_c, 0, 62, 0
3, 17136, Note_on_c, 0, 64, 112
3, 17136, Note_on_c, 0, 67, 112
3, 17136, Note_on_c, 0, 76, 112
3, 17183, Note_off_c, 0, 64, 0
3, 17183, Note_off_c, 0, 67, 0
3, 17183, Note_off_c, 0, 76, 0
3, 17184, Note_on_c, 0, 64, 112
3, 17184, Note_on_c, 0, 67, 112
3, 17184, Note_on_c, 0, 76, 112
3, 17375, Note_off_c, 0, 67, 0
3, 17375, Note_off_c, 0, 64, 0
3, 17375, Note_off_c, 0, 76, 0
3, 17424, Note_on_c, 0, 64, 112
3, 17424, Note_on_c, 0, 76, 112
3, 17471, Note_off_c, 0, 64, 0
3, 17471, Note_off_c, 0, 76, 0
3, 17472, Note_on_c, 0, 72, 112
3, 17472, Note_on_c, 0, 84, 112
3, 17519, Note_off_c, 0, 72, 0
3, 17519, Note_off_c, 0, 84, 0
3, 17520, Note_on_c, 0, 71, 112
3, 17520, Note_on_c, 0, 83, 112
3, 17567, Note_off_c, 0, 71, 0
3, 17567, Note_off_c, 0, 83, 0
3, 17568, Note_on_c, 0, 74, 112
3, 17568, Note_on_c, 0, 86, 112
3, 17615, Note_off_c, 0, 74, 0
3, 17615, Note_off_c, 0, 86, 0
3, 17616, Note_on_c, 0, 72, 112
3, 17616, Note_on_c, 0, 84, 112
3, 17711, Note_off_c, 0, 84, 0
3, 17711, Note_off_c, 0, 72, 0
3, 17712, Note_on_c, 0, 67, 112
3, 17712, Note_on_c, 0, 79, 112
3, 17759, Note_off_c, 0, 67, 0
3, 17759, Note_off_c, 0, 79, 0
3, 17760, Note_on_c, 0, 71, 112
3, 17760, Note_on_c, 0, 83, 112
3, 17807, Note_off_c, 0, 71, 0
3, 17807, Note_off_c, 0, 83, 0
3, 17808, Note_on_c, 0, 71, 112
3, 17808, Note_on_c, 0, 83, 112
3, 17855, Note_off_c, 0, 71, 0
3, 17855, Note_off_c, 0, 83, 0
3, 17856, Note_on_c, 0, 69, 112
3, 17856, Note_on_c, 0, 72, 112
3, 17856, Note_on_c, 0, 77, 112
3, 17856, Note_on_c, 0, 81, 112
3, 18047, Note_off_c, 0, 81, 0
3, 18047, Note_off_c, 0, 77, 0
3, 18047, Note_off_c, 0, 72, 0
3, 18047, Note_off_c, 0, 69, 0
3, 18096, Note_on_c, 0, 69, 112
3, 18096, Note_on_c, 0, 81, 112
3, 18143, Note_off_c, 0, 69, 0
3, 18143, Note_off_c, 0, 81, 0
3, 18144, Note_on_c, 0, 67, 112
3, 18144, Note_on_c, 0, 79, 112
3, 18191, Note_off_c, 0, 67, 0
3, 18191, Note_off_c, 0, 79, 0
3, 18192, Note_on_c, 0, 69, 112
3, 18192, Note_on_c, 0, 81, 112
3, 18239, Note_off_c, 0, 69, 0
3, 18239, Note_off_c, 0, 81, 0
3, 18240, Note_on_c, 0, 74, 112
3, 18240, Note_on_c, 0, 77, 112
3, 18335, Note_off_c, 0, 77, 0
3, 18335, Note_off_c, 0, 74, 0
3, 18336, Note_on_c, 0, 69, 112
3, 18336, Note_on_c, 0, 74, 112
3, 18336, Note_on_c, 0, 81, 112
3, 18383, Note_off_c, 0, 69, 0
3, 18383, Note_off_c, 0, 74, 0
3, 18383, Note_off_c, 0, 81, 0
3, 18384, Note_on_c, 0, 71, 112
3, 18384, Note_on_c, 0, 74, 112
3, 18384, Note_on_c, 0, 83, 112
3, 18479, Note_off_c, 0, 83, 0
3, 18479, Note_off_c, 0, 71, 0
3, 18479, Note_off_c, 0, 74, 0
3, 18480, Note_on_c, 0, 67, 112
3, 18480, Note_on_c, 0, 79, 112
3, 18575, Note_off_c, 0, 79, 0
3, 18575, Note_off_c, 0, 67, 0
3, 18576, Note_on_c, 0, 69, 112
3, 18576, Note_on_c, 0, 72, 112
3, 18576, Note_on_c, 0, 76, 112
3, 18576, Note_on_c, 0, 81, 112
3, 18719, Note_off_c, 0, 81, 0
3, 18719, Note_off_c, 0, 76, 0
3, 18719, Note_off_c, 0, 72, 0
3, 18719, Note_off_c, 0, 69, 0
3, 18720, Note_on_c, 0, 69, 112
3, 18720, Note_on_c, 0, 72, 112
3, 18720, Note_on_c, 0, 81, 112
3, 18767, Note_off_c, 0, 69, 0
3, 18767, Note_off_c, 0, 72, 0
3, 18767, Note_off_c, 0, 81, 0
3, 18768, Note_on_c, 0, 69, 112
3, 18768, Note_on_c, 0, 72, 112
3, 18768, Note_on_c, 0, 81, 112
3, 18815, Note_off_c, 0, 69, 0
3, 18815, Note_off_c, 0, 72, 0
3, 18815, Note_off_c, 0, 81, 0
3, 18816, Note_on_c, 0, 68, 112
3, 18816, Note_on_c, 0, 80, 112
3, 18863, Note_off_c, 0, 80, 0
3, 18863, Note_off_c, 0, 68, 0
3, 18864, Note_on_c, 0, 69, 112
3, 18864, Note_on_c, 0, 81, 112
3, 18911, Note_off_c, 0, 81, 0
3, 18911, Note_off_c, 0, 69, 0
3, 18912, Note_on_c, 0, 71, 112
3, 18912, Note_on_c, 0, 83, 112
3, 19007, Note_off_c, 0, 83, 0
3, 19007, Note_off_c, 0, 71, 0
3, 19008, Note_on_c, 0, 72, 112
3, 19008, Note_on_c, 0, 76, 112
3, 19008, Note_on_c, 0, 84, 112
3, 19055, Note_off_c, 0, 72, 0
3, 19055, Note_off_c, 0, 76, 0
3, 19055, Note_off_c, 0, 84, 0
3, 19056, Note_on_c, 0, 71, 112
3, 19056, Note_on_c, 0, 83, 112
3, 19103, Note_off_c, 0, 71, 0
3, 19103, Note_off_c, 0, 83, 0
3, 19104, Note_on_c, 0, 67, 112
3, 19104, Note_on_c, 0, 79, 112
3, 19151, Note_off_c, 0, 67, 0
3, 19151, Note_off_c, 0, 79, 0
3, 19152, Note_on_c, 0, 67, 112
3, 19152, Note_on_c, 0, 79, 112
3, 19247, Note_off_c, 0, 79, 0
3, 19247, Note_off_c, 0, 67, 0
3, 19248, Note_on_c, 0, 64, 112
3, 19248, Note_on_c, 0, 76, 112
3, 19295, Note_off_c, 0, 64, 0
3, 19295, Note_off_c, 0, 76, 0
3, 19296, Note_on_c, 0, 71, 112
3, 19296, Note_on_c, 0, 83, 112
3, 19343, Note_off_c, 0, 71, 0
3, 19343, Note_off_c, 0, 83, 0
3, 19344, Note_on_c, 0, 71, 112
3, 19344, Note_on_c, 0, 83, 112
3, 19391, Note_off_c, 0, 71, 0
3, 19391, Note_off_c, 0, 83, 0
3, 19392, Note_on_c, 0, 69, 112
3, 19392, Note_on_c, 0, 72, 112
3, 19392, Note_on_c, 0, 77, 112
3, 19392, Note_on_c, 0, 81, 112
3, 19583, Note_off_c, 0, 81, 0
3, 19583, Note_off_c, 0, 77, 0
3, 19583, Note_off_c, 0, 72, 0
3, 19583, Note_off_c, 0, 69, 0
3, 19632, Note_on_c, 0, 64, 112
3, 19632, Note_on_c, 0, 76, 112
3, 19679, Note_off_c, 0, 64, 0
3, 19679, Note_off_c, 0, 76, 0
3, 19680, Note_on_c, 0, 67, 112
3, 19680, Note_on_c, 0, 79, 112
3, 19727, Note_off_c, 0, 67, 0
3, 19727, Note_off_c, 0, 79, 0
3, 19728, Note_on_c, 0, 65, 112
3, 19728, Note_on_c, 0, 77, 112
3, 19775, Note_off_c, 0, 65, 0
3, 19775, Note_off_c, 0, 77, 0
3, 19776, Note_on_c, 0, 69, 112
3, 19776, Note_on_c, 0, 74, 112
3, 19871, Note_off_c, 0, 74, 0
3, 19871, Note_off_c, 0, 69, 0
3, 19872, Note_on_c, 0, 69, 112
3, 19872, Note_on_c, 0, 81, 112
3, 19919, Note_off_c, 0, 69, 0
3, 19919, Note_off_c, 0, 81, 0
3, 19920, Note_on_c, 0, 71, 112
3, 19920, Note_on_c, 0, 83, 112
3, 20015, Note_off_c, 0, 83, 0
3, 20015, Note_off_c, 0, 71, 0
3, 20016, Note_on_c, 0, 67, 112
3, 20016, Note_on_c, 0, 79, 112
3, 20111, Note_off_c, 0, 79, 0
3, 20111, Note_off_c, 0, 67, 0
3, 20112, Note_on_c, 0, 71, 112
3, 20112, Note_on_c, 0, 83, 112
3, 20207, Note_off_c, 0, 83, 0
3, 20207, Note_off_c, 0, 71, 0
3, 20208, Note_on_c, 0, 72, 112
3, 20208, Note_on_c, 0, 84, 112
3, 20255, Note_off_c, 0, 72, 0
3, 20255, Note_off_c, 0, 84, 0
3, 20256, Note_on_c, 0, 71, 112
3, 20256, Note_on_c, 0, 83, 112
3, 20447, Note_off_c, 0, 71, 0
3, 20447, Note_off_c, 0, 83, 0
3, 20496, Note_on_c, 0, 64, 112
3, 20496, Note_on_c, 0, 76, 112
3, 20543, Note_off_c, 0, 64, 0
3, 20543, Note_off_c, 0, 76, 0
3, 20544, Note_on_c, 0, 72, 112
3, 20544, Note_on_c, 0, 76, 112
3, 20544, Note_on_c, 0, 84, 112
3, 20591, Note_off_c, 0, 72, 0
3, 20591, Note_off_c, 0, 76, 0
3, 20591, Note_off_c, 0, 84, 0
3, 20592, Note_on_c, 0, 71, 112
3, 20592, Note_on_c, 0, 76, 112
3, 20592, Note_on_c, 0, 83, 112
3, 20639, Note_off_c, 0, 71, 0
3, 20639, Note_off_c, 0, 76, 0
3, 20639, Note_off_c, 0, 83, 0
3, 20640, Note_on_c, 0, 74, 112
3, 20640, Note_on_c, 0, 86, 112
3, 20687, Note_off_c, 0, 74, 0
3, 20687, Note_off_c, 0, 86, 0
3, 20688, Note_on_c, 0, 72, 112
3, 20688, Note_on_c, 0, 84, 112
3, 20783, Note_off_c, 0, 84, 0
3, 20783, Note_off_c, 0, 72, 0
3, 20784, Note_on_c, 0, 64, 112
3, 20784, Note_on_c, 0, 76, 112
3, 20831, Note_off_c, 0, 64, 0
3, 20831, Note_off_c, 0, 76, 0
3, 20832, Note_on_c, 0, 71, 112
3, 20832, Note_on_c, 0, 83, 112
3, 20879, Note_off_c, 0, 71, 0
3, 20879, Note_off_c, 0, 83, 0
3, 20880, Note_on_c, 0, 72, 112
3, 20880, Note_on_c, 0, 84, 112
3, 21119, Note_off_c, 0, 84, 0
3, 21119, Note_off_c, 0, 72, 0
3, 21168, Note_on_c, 0, 72, 112
3, 21168, Note_on_c, 0, 84, 112
3, 21215, Note_off_c, 0, 72, 0
3, 21215, Note_off_c, 0, 84, 0
3, 21216, Note_on_c, 0, 71, 112
3, 21216, Note_on_c, 0, 83, 112
3, 21263, Note_off_c, 0, 71, 0
3, 21263, Note_off_c, 0, 83, 0
3, 21264, Note_on_c, 0, 69, 112
3, 21264, Note_on_c, 0, 81, 112
3, 21311, Note_off_c, 0, 69, 0
3, 21311, Note_off_c, 0, 81, 0
3, 21312, Note_on_c, 0, 74, 112
3, 21312, Note_on_c, 0, 77, 112
3, 21407, Note_off_c, 0, 77, 0
3, 21407, Note_off_c, 0, 74, 0
3, 21408, Note_on_c, 0, 69, 112
3, 21408, Note_on_c, 0, 74, 112
3, 21408, Note_on_c, 0, 81, 112
3, 21455, Note_off_c, 0, 69, 0
3, 21455, Note_off_c, 0, 74, 0
3, 21455, Note_off_c, 0, 81, 0
3, 21456, Note_on_c, 0, 74, 112
3, 21456, Note_on_c, 0, 86, 112
3, 21551, Note_off_c, 0, 86, 0
3, 21551, Note_off_c, 0, 74, 0
3, 21552, Note_on_c, 0, 67, 112
3, 21552, Note_on_c, 0, 79, 112
3, 21647, Note_off_c, 0, 79, 0
3, 21647, Note_off_c, 0, 67, 0
3, 21648, Note_on_c, 0, 67, 112
3, 21648, Note_on_c, 0, 79, 112
3, 21743, Note_off_c, 0, 79, 0
3, 21743, Note_off_c, 0, 67, 0
3, 21744, Note_on_c, 0, 71, 112
3, 21744, Note_on_c, 0, 83, 112
3, 21791, Note_off_c, 0, 71, 0
3, 21791, Note_off_c, 0, 83, 0
3, 21792, Note_on_c, 0, 69, 112
3, 21792, Note_on_c, 0, 81, 112
3, 22079, Note_off_c, 0, 81, 0
3, 22079, Note_off_c, 0, 69, 0
3, 22080, Note_on_c, 0, 60, 112
3, 22080, Note_on_c, 0, 72, 112
3, 22127, Note_off_c, 0, 60, 0
3, 22127, Note_off_c, 0, 72, 0
3, 22128, Note_on_c, 0, 64, 112
3, 22175, Note_off_c, 0, 64, 0
3, 22176, Note_on_c, 0, 60, 112
3, 22176, Note_on_c, 0, 72, 112
3, 22223, Note_off_c, 0, 60, 0
3, 22223, Note_off_c, 0, 72, 0
3, 22224, Note_on_c, 0, 62, 112
3, 22224, Note_on_c, 0, 74, 112
3, 22271, Note_off_c, 0, 62, 0
3, 22271, Note_off_c, 0, 74, 0
3, 22320, Note_on_c, 0, 62, 112
3, 22320, Note_on_c, 0, 74, 112
3, 22367, Note_off_c, 0, 62, 0
3, 22367, Note_off_c, 0, 74, 0
3, 22416, Note_on_c, 0, 64, 112
3, 22416, Note_on_c, 0, 69, 112
3, 22416, Note_on_c, 0, 72, 112
3, 22416, Note_on_c, 0, 76, 112
3, 22847, Note_off_c, 0, 76, 0
3, 22847, Note_off_c, 0, 64, 0
3, 22847, Note_off_c, 0, 69, 0
3, 22847, Note_off_c, 0, 72, 0
3, 23040, Control_c, 0, 101, 0
3, 23040, Control_c, 0, 100, 0
3, 23040, Control_c, 0, 6, 12
3, 23040, Control_c, 0, 10, 64
3, 23040, Control_c, 0, 7, 100
3, 23040, Pitch_bend_c, 0, 8192
3, 23040, Program_c, 0, 0
3, 23040, Control_c, 0, 91, 30
3, 23040, Control_c, 0, 93, 30
3, 23040, Control_c, 0, 68, 78
3, 23041, Control_c, 0, 101, 0
3, 23041, Control_c, 0, 100, 0
3, 23041, Control_c, 0, 6, 12
3, 23041, Control_c, 0, 10, 64
3, 23041, Control_c, 0, 7, 100
3, 23041, Pitch_bend_c, 0, 8192
3, 23041, Program_c, 0, 0
3, 23041, Control_c, 0, 91, 30
3, 23041, Control_c, 0, 93, 30
3, 23041, Control_c, 0, 68, 78
3, 23041, Control_c, 0, 101, 0
3, 23041, Control_c, 0, 100, 0
3, 23041, Control_c, 0, 6, 12
3, 23041, Control_c, 0, 10, 64
3, 23041, Control_c, 0, 7, 100
3, 23041, Pitch_bend_c, 0, 8192
3, 23041, Program_c, 0, 0
3, 23041, Control_c, 0, 91, 30
3, 23041, Control_c, 0, 93, 30
3, 23041, Control_c, 0, 68, 78
3, 23041, End_track
4, 0, Start_track
4, 0, Title_t, "MIDITrack #2"
4, 0, Control_c, 0, 10, 64
4, 0, Control_c, 0, 7, 100
4, 0, Pitch_bend_c, 0, 8192
4, 0, Control_c, 0, 101, 0
4, 0, Control_c, 0, 100, 0
4, 0, Control_c, 0, 6, 12
4, 0, Control_c, 0, 10, 64
4, 0, Control_c, 0, 7, 100
4, 0, Pitch_bend_c, 0, 8192
4, 0, Program_c, 0, 0
4, 0, Control_c, 0, 91, 20
4, 0, Control_c, 0, 68, 83
4, 0, Control_c, 0, 101, 0
4, 0, Control_c, 0, 100, 0
4, 0, Control_c, 0, 6, 12
4, 0, Control_c, 0, 10, 64
4, 0, Control_c, 0, 7, 100
4, 0, Pitch_bend_c, 0, 8192
4, 0, Program_c, 0, 0
4, 0, Control_c, 0, 91, 20
4, 0, Control_c, 0, 68, 83
4, 0, Control_c, 0, 101, 0
4, 0, Control_c, 0, 100, 0
4, 0, Control_c, 0, 6, 12
4, 0, Control_c, 0, 10, 64
4, 0, Control_c, 0, 7, 100
4, 0, Pitch_bend_c, 0, 8192
4, 0, Program_c, 0, 0
4, 0, Control_c, 0, 91, 20
4, 0, Control_c, 0, 68, 83
4, 0, Note_on_c, 0, 38, 80
4, 0, Note_on_c, 0, 50, 80
4, 383, Note_off_c, 0, 38, 0
4, 383, Note_off_c, 0, 50, 0
4, 384, Note_on_c, 0, 37, 80
4, 384, Note_on_c, 0, 49, 80
4, 767, Note_off_c, 0, 37, 0
4, 767, Note_off_c, 0, 49, 0
4, 768, Note_on_c, 0, 36, 80
4, 768, Note_on_c, 0, 48, 80
4, 1151, Note_off_c, 0, 36, 0
4, 1151, Note_off_c, 0, 48, 0
4, 1152, Note_on_c, 0, 35, 80
4, 1152, Note_on_c, 0, 47, 80
4, 1535, Note_off_c, 0, 35, 0
4, 1535, Note_off_c, 0, 47, 0
4, 1536, Note_on_c, 0, 34, 80
4, 1536, Note_on_c, 0, 46, 80
4, 1583, Note_off_c, 0, 34, 0
4, 1583, Note_off_c, 0, 46, 0
4, 1584, Note_on_c, 0, 46, 80
4, 1631, Note_off_c, 0, 46, 0
4, 1632, Note_on_c, 0, 53, 80
4, 1679, Note_off_c, 0, 53, 0
4, 1680, Note_on_c, 0, 50, 80
4, 1727, Note_off_c, 0, 50, 0
4, 1728, Note_on_c, 0, 34, 80
4, 1728, Note_on_c, 0, 46, 80
4, 1775, Note_off_c, 0, 34, 0
4, 1775, Note_off_c, 0, 46, 0
4, 1776, Note_on_c, 0, 41, 80
4, 1823, Note_off_c, 0, 41, 0
4, 1824, Note_on_c, 0, 34, 80
4, 1871, Note_off_c, 0, 34, 0
4, 1872, Note_on_c, 0, 41, 80
4, 1919, Note_off_c, 0, 41, 0
4, 1920, Note_on_c, 0, 33, 80
4, 1967, Note_off_c, 0, 33, 0
4, 1968, Note_on_c, 0, 41, 80
4, 2015, Note_off_c, 0, 41, 0
4, 2016, Note_on_c, 0, 45, 80
4, 2063, Note_off_c, 0, 45, 0
4, 2064, Note_on_c, 0, 41, 80
4, 2111, Note_off_c, 0, 41, 0
4, 2112, Note_on_c, 0, 48, 80
4, 2159, Note_off_c, 0, 48, 0
4, 2160, Note_on_c, 0, 53, 80
4, 2207, Note_off_c, 0, 53, 0
4, 2208, Note_on_c, 0, 57, 80
4, 2255, Note_off_c, 0, 57, 0
4, 2256, Note_on_c, 0, 48, 80
4, 2303, Note_off_c, 0, 48, 0
4, 2304, Note_on_c, 0, 31, 80
4, 2351, Note_off_c, 0, 31, 0
4, 2352, Note_on_c, 0, 43, 80
4, 2399, Note_off_c, 0, 43, 0
4, 2400, Note_on_c, 0, 46, 80
4, 2447, Note_off_c, 0, 46, 0
4, 2448, Note_on_c, 0, 50, 80
4, 2495, Note_off_c, 0, 50, 0
4, 2496, Note_on_c, 0, 55, 80
4, 2543, Note_off_c, 0, 55, 0
4, 2544, Note_on_c, 0, 50, 80
4, 2591, Note_off_c, 0, 50, 0
4, 2592, Note_on_c, 0, 46, 80
4, 2639, Note_off_c, 0, 46, 0
4, 2640, Note_on_c, 0, 43, 80
4, 2687, Note_off_c, 0, 43, 0
4, 2688, Note_on_c, 0, 33, 80
4, 2688, Note_on_c, 0, 45, 80
4, 2735, Note_off_c, 0, 33, 0
4, 2735, Note_off_c, 0, 45, 0
4, 2736, Note_on_c, 0, 45, 80
4, 2783, Note_off_c, 0, 45, 0
4, 2784, Note_on_c, 0, 52, 80
4, 2831, Note_off_c, 0, 52, 0
4, 2832, Note_on_c, 0, 49, 80
4, 2879, Note_off_c, 0, 49, 0
4, 2880, Note_on_c, 0, 33, 80
4, 2880, Note_on_c, 0, 45, 80
4, 2927, Note_off_c, 0, 33, 0
4, 2927, Note_off_c, 0, 45, 0
4, 2928, Note_on_c, 0, 40, 80
4, 2975, Note_off_c, 0, 40, 0
4, 2976, Note_on_c, 0, 37, 80
4, 3023, Note_off_c, 0, 37, 0
4, 3024, Note_on_c, 0, 33, 80
4, 3071, Note_off_c, 0, 33, 0
4, 3072, Note_on_c, 0, 31, 64
4, 3119, Note_off_c, 0, 31, 0
4, 3120, Note_on_c, 0, 43, 64
4, 3167, Note_off_c, 0, 43, 0
4, 3168, Note_on_c, 0, 46, 64
4, 3215, Note_off_c, 0, 46, 0
4, 3216, Note_on_c, 0, 50, 64
4, 3263, Note_off_c, 0, 50, 0
4, 3264, Note_on_c, 0, 55, 64
4, 3311, Note_off_c, 0, 55, 0
4, 3312, Note_on_c, 0, 58, 64
4, 3359, Note_off_c, 0, 58, 0
4, 3456, Note_on_c, 0, 36, 64
4, 3503, Note_off_c, 0, 36, 0
4, 3504, Note_on_c, 0, 43, 64
4, 3551, Note_off_c, 0, 43, 0
4, 3552, Note_on_c, 0, 48, 64
4, 3599, Note_off_c, 0, 48, 0
4, 3600, Note_on_c, 0, 52, 64
4, 3647, Note_off_c, 0, 52, 0
4, 3648, Note_on_c, 0, 55, 64
4, 3695, Note_off_c, 0, 55, 0
4, 3696, Note_on_c, 0, 60, 64
4, 3743, Note_off_c, 0, 60, 0
4, 3840, Note_on_c, 0, 33, 64
4, 3887, Note_off_c, 0, 33, 0
4, 3888, Note_on_c, 0, 40, 64
4, 3935, Note_off_c, 0, 40, 0
4, 3936, Note_on_c, 0, 45, 64
4, 3983, Note_off_c, 0, 45, 0
4, 3984, Note_on_c, 0, 48, 64
4, 4031, Note_off_c, 0, 48, 0
4, 4032, Note_on_c, 0, 52, 64
4, 4079, Note_off_c, 0, 52, 0
4, 4080, Note_on_c, 0, 57, 64
4, 4127, Note_off_c, 0, 57, 0
4, 4224, Note_on_c, 0, 38, 64
4, 4271, Note_off_c, 0, 38, 0
4, 4272, Note_on_c, 0, 45, 64
4, 4319, Note_off_c, 0, 45, 0
4, 4320, Note_on_c, 0, 50, 64
4, 4367, Note_off_c, 0, 50, 0
4, 4368, Note_on_c, 0, 53, 64
4, 4415, Note_off_c, 0, 53, 0
4, 4416, Note_on_c, 0, 57, 64
4, 4463, Note_off_c, 0, 57, 0
4, 4464, Note_on_c, 0, 53, 64
4, 4511, Note_off_c, 0, 53, 0
4, 4512, Note_on_c, 0, 50, 64
4, 4559, Note_off_c, 0, 50, 0
4, 4560, Note_on_c, 0, 45, 64
4, 4607, Note_off_c, 0, 45, 0
4, 4608, Note_on_c, 0, 31, 64
4, 4655, Note_off_c, 0, 31, 0
4, 4656, Note_on_c, 0, 43, 64
4, 4703, Note_off_c, 0, 43, 0
4, 4704, Note_on_c, 0, 46, 64
4, 4751, Note_off_c, 0, 46, 0
4, 4752, Note_on_c, 0, 50, 64
4, 4799, Note_off_c, 0, 50, 0
4, 4800, Note_on_c, 0, 55, 64
4, 4847, Note_off_c, 0, 55, 0
4, 4848, Note_on_c, 0, 58, 64
4, 4895, Note_off_c, 0, 58, 0
4, 4992, Note_on_c, 0, 33, 64
4, 5039, Note_off_c, 0, 33, 0
4, 5040, Note_on_c, 0, 40, 64
4, 5087, Note_off_c, 0, 40, 0
4, 5088, Note_on_c, 0, 45, 64
4, 5135, Note_off_c, 0, 45, 0
4, 5136, Note_on_c, 0, 48, 64
4, 5183, Note_off_c, 0, 48, 0
4, 5184, Note_on_c, 0, 52, 64
4, 5231, Note_off_c, 0, 52, 0
4, 5376, Note_on_c, 0, 38, 64
4, 5376, Note_on_c, 0, 50, 64
4, 5423, Note_off_c, 0, 38, 0
4, 5423, Note_off_c, 0, 50, 0
4, 5424, Note_on_c, 0, 36, 96
4, 5424, Note_on_c, 0, 48, 96
4, 5471, Note_off_c, 0, 36, 0
4, 5471, Note_off_c, 0, 48, 0
4, 5472, Note_on_c, 0, 37, 96
4, 5472, Note_on_c, 0, 49, 96
4, 5519, Note_off_c, 0, 37, 0
4, 5519, Note_off_c, 0, 49, 0
4, 5520, Note_on_c, 0, 38, 96
4, 5520, Note_on_c, 0, 50, 96
4, 5567, Note_off_c, 0, 38, 0
4, 5567, Note_off_c, 0, 50, 0
4, 5616, Note_on_c, 0, 26, 96
4, 5616, Note_on_c, 0, 38, 96
4, 5639, Note_off_c, 0, 26, 0
4, 5639, Note_off_c, 0, 38, 0
4, 5664, Note_on_c, 0, 28, 96
4, 5664, Note_on_c, 0, 40, 96
4, 5687, Note_off_c, 0, 28, 0
4, 5687, Note_off_c, 0, 40, 0
4, 5712, Note_on_c, 0, 29, 96
4, 5712, Note_on_c, 0, 41, 96
4, 5903, Note_off_c, 0, 29, 0
4, 5903, Note_off_c, 0, 41, 0
4, 5904, Note_on_c, 0, 48, 96
4, 5904, Note_on_c, 0, 60, 96
4, 5951, Note_off_c, 0, 48, 0
4, 5951, Note_off_c, 0, 60, 0
4, 5952, Note_on_c, 0, 55, 96
4, 5999, Note_off_c, 0, 55, 0
4, 6000, Note_on_c, 0, 52, 96
4, 6047, Note_off_c, 0, 52, 0
4, 6048, Note_on_c, 0, 48, 96
4, 6095, Note_off_c, 0, 48, 0
4, 6096, Note_on_c, 0, 43, 96
4, 6143, Note_off_c, 0, 43, 0
4, 6144, Note_on_c, 0, 40, 96
4, 6191, Note_off_c, 0, 40, 0
4, 6192, Note_on_c, 0, 36, 96
4, 6239, Note_off_c, 0, 36, 0
4, 6240, Note_on_c, 0, 31, 96
4, 6287, Note_off_c, 0, 31, 0
4, 6288, Note_on_c, 0, 24, 96
4, 6335, Note_off_c, 0, 24, 0
4, 6336, Note_on_c, 0, 31, 96
4, 6383, Note_off_c, 0, 31, 0
4, 6384, Note_on_c, 0, 43, 96
4, 6431, Note_off_c, 0, 43, 0
4, 6432, Note_on_c, 0, 46, 96
4, 6479, Note_off_c, 0, 46, 0
4, 6480, Note_on_c, 0, 50, 96
4, 6527, Note_off_c, 0, 50, 0
4, 6528, Note_on_c, 0, 55, 96
4, 6575, Note_off_c, 0, 55, 0
4, 6576, Note_on_c, 0, 58, 96
4, 6623, Note_off_c, 0, 58, 0
4, 6720, Note_on_c, 0, 36, 96
4, 6767, Note_off_c, 0, 36, 0
4, 6768, Note_on_c, 0, 43, 96
4, 6815, Note_off_c, 0, 43, 0
4, 6816, Note_on_c, 0, 48, 96
4, 6863, Note_off_c, 0, 48, 0
4, 6864, Note_on_c, 0, 52, 96
4, 6911, Note_off_c, 0, 52, 0
4, 6912, Note_on_c, 0, 55, 96
4, 6959, Note_off_c, 0, 55, 0
4, 6960, Note_on_c, 0, 60, 96
4, 7007, Note_off_c, 0, 60, 0
4, 7104, Note_on_c, 0, 33, 96
4, 7151, Note_off_c, 0, 33, 0
4, 7152, Note_on_c, 0, 40, 96
4, 7199, Note_off_c, 0, 40, 0
4, 7200, Note_on_c, 0, 45, 96
4, 7247, Note_off_c, 0, 45, 0
4, 7248, Note_on_c, 0, 48, 96
4, 7295, Note_off_c, 0, 48, 0
4, 7296, Note_on_c, 0, 52, 96
4, 7343, Note_off_c, 0, 52, 0
4, 7344, Note_on_c, 0, 57, 96
4, 7391, Note_off_c, 0, 57, 0
4, 7488, Note_on_c, 0, 38, 96
4, 7535, Note_off_c, 0, 38, 0
4, 7536, Note_on_c, 0, 45, 96
4, 7583, Note_off_c, 0, 45, 0
4, 7584, Note_on_c, 0, 50, 96
4, 7631, Note_off_c, 0, 50, 0
4, 7632, Note_on_c, 0, 53, 96
4, 7679, Note_off_c, 0, 53, 0
4, 7680, Note_on_c, 0, 57, 96
4, 7727, Note_off_c, 0, 57, 0
4, 7728, Note_on_c, 0, 53, 96
4, 7775, Note_off_c, 0, 53, 0
4, 7776, Note_on_c, 0, 50, 96
4, 7823, Note_off_c, 0, 50, 0
4, 7824, Note_on_c, 0, 45, 96
4, 7871, Note_off_c, 0, 45, 0
4, 7872, Note_on_c, 0, 31, 96
4, 7919, Note_off_c, 0, 31, 0
4, 7920, Note_on_c, 0, 43, 96
4, 7967, Note_off_c, 0, 43, 0
4, 7968, Note_on_c, 0, 46, 96
4, 8015, Note_off_c, 0, 46, 0
4, 8016, Note_on_c, 0, 50, 96
4, 8063, Note_off_c, 0, 50, 0
4, 8064, Note_on_c, 0, 55, 96
4, 8111, Note_off_c, 0, 55, 0
4, 8112, Note_on_c, 0, 58, 96
4, 8159, Note_off_c, 0, 58, 0
4, 8256, Note_on_c, 0, 36, 96
4, 8303, Note_off_c, 0, 36, 0
4, 8304, Note_on_c, 0, 43, 96
4, 8351, Note_off_c, 0, 43, 0
4, 8352, Note_on_c, 0, 48, 96
4, 8399, Note_off_c, 0, 48, 0
4, 8400, Note_on_c, 0, 52, 96
4, 8447, Note_off_c, 0, 52, 0
4, 8448, Note_on_c, 0, 55, 96
4, 8495, Note_off_c, 0, 55, 0
4, 8640, Note_on_c, 0, 38, 96
4, 8640, Note_on_c, 0, 50, 96
4, 8687, Note_off_c, 0, 50, 0
4, 8687, Note_off_c, 0, 38, 0
4, 8688, Note_on_c, 0, 45, 96
4, 8735, Note_off_c, 0, 45, 0
4, 8736, Note_on_c, 0, 38, 96
4, 8783, Note_off_c, 0, 38, 0
4, 8784, Note_on_c, 0, 50, 96
4, 8831, Note_off_c, 0, 50, 0
4, 8832, Note_on_c, 0, 33, 96
4, 8832, Note_on_c, 0, 45, 96
4, 8879, Note_off_c, 0, 33, 0
4, 8879, Note_off_c, 0, 45, 0
4, 8880, Note_on_c, 0, 40, 96
4, 8927, Note_off_c, 0, 40, 0
4, 8928, Note_on_c, 0, 33, 96
4, 8928, Note_on_c, 0, 40, 96
4, 8975, Note_off_c, 0, 33, 0
4, 8975, Note_off_c, 0, 40, 0
4, 8976, Note_on_c, 0, 26, 96
4, 8976, Note_on_c, 0, 38, 96
4, 9071, Note_off_c, 0, 26, 0
4, 9071, Note_off_c, 0, 38, 0
4, 9072, Note_on_c, 0, 26, 96
4, 9072, Note_on_c, 0, 38, 96
4, 9119, Note_off_c, 0, 26, 0
4, 9119, Note_off_c, 0, 38, 0
4, 9120, Note_on_c, 0, 26, 96
4, 9120, Note_on_c, 0, 38, 96
4, 9215, Note_off_c, 0, 38, 0
4, 9215, Note_off_c, 0, 26, 0
4, 9216, Note_on_c, 0, 38, 96
4, 9216, Note_on_c, 0, 50, 96
4, 9239, Note_off_c, 0, 38, 0
4, 9239, Note_off_c, 0, 50, 0
4, 9312, Note_on_c, 0, 36, 96
4, 9312, Note_on_c, 0, 48, 96
4, 9335, Note_off_c, 0, 36, 0
4, 9335, Note_off_c, 0, 48, 0
4, 9360, Note_on_c, 0, 34, 96
4, 9360, Note_on_c, 0, 46, 96
4, 9407, Note_off_c, 0, 34, 0
4, 9407, Note_off_c, 0, 46, 0
4, 9408, Note_on_c, 0, 46, 96
4, 9455, Note_off_c, 0, 46, 0
4, 9456, Note_on_c, 0, 50, 96
4, 9503, Note_off_c, 0, 50, 0
4, 9504, Note_on_c, 0, 53, 96
4, 9551, Note_off_c, 0, 53, 0
4, 9552, Note_on_c, 0, 50, 96
4, 9599, Note_off_c, 0, 50, 0
4, 9600, Note_on_c, 0, 41, 96
4, 9647, Note_off_c, 0, 41, 0
4, 9648, Note_on_c, 0, 34, 96
4, 9695, Note_off_c, 0, 34, 0
4, 9696, Note_on_c, 0, 41, 96
4, 9791, Note_off_c, 0, 41, 0
4, 9792, Note_on_c, 0, 36, 96
4, 9839, Note_off_c, 0, 36, 0
4, 9840, Note_on_c, 0, 43, 96
4, 9887, Note_off_c, 0, 43, 0
4, 9888, Note_on_c, 0, 48, 96
4, 9935, Note_off_c, 0, 48, 0
4, 9936, Note_on_c, 0, 52, 96
4, 9983, Note_off_c, 0, 52, 0
4, 9984, Note_on_c, 0, 55, 96
4, 10031, Note_off_c, 0, 55, 0
4, 10032, Note_on_c, 0, 60, 96
4, 10079, Note_off_c, 0, 60, 0
4, 10080, Note_on_c, 0, 55, 96
4, 10127, Note_off_c, 0, 55, 0
4, 10128, Note_on_c, 0, 52, 96
4, 10175, Note_off_c, 0, 52, 0
4, 10176, Note_on_c, 0, 33, 96
4, 10223, Note_off_c, 0, 33, 0
4, 10224, Note_on_c, 0, 40, 96
4, 10271, Note_off_c, 0, 40, 0
4, 10272, Note_on_c, 0, 45, 96
4, 10319, Note_off_c, 0, 45, 0
4, 10320, Note_on_c, 0, 48, 96
4, 10367, Note_off_c, 0, 48, 0
4, 10368, Note_on_c, 0, 52, 96
4, 10415, Note_off_c, 0, 52, 0
4, 10416, Note_on_c, 0, 57, 96
4, 10463, Note_off_c, 0, 57, 0
4, 10560, Note_on_c, 0, 38, 96
4, 10607, Note_off_c, 0, 38, 0
4, 10608, Note_on_c, 0, 45, 96
4, 10655, Note_off_c, 0, 45, 0
4, 10656, Note_on_c, 0, 50, 96
4, 10703, Note_off_c, 0, 50, 0
4, 10704, Note_on_c, 0, 53, 96
4, 10751, Note_off_c, 0, 53, 0
4, 10752, Note_on_c, 0, 57, 96
4, 10799, Note_off_c, 0, 57, 0
4, 10800, Note_on_c, 0, 53, 96
4, 10847, Note_off_c, 0, 53, 0
4, 10848, Note_on_c, 0, 50, 96
4, 10895, Note_off_c, 0, 50, 0
4, 10896, Note_on_c, 0, 45, 96
4, 10943, Note_off_c, 0, 45, 0
4, 10944, Note_on_c, 0, 31, 96
4, 10991, Note_off_c, 0, 31, 0
4, 10992, Note_on_c, 0, 43, 96
4, 11039, Note_off_c, 0, 43, 0
4, 11040, Note_on_c, 0, 46, 96
4, 11087, Note_off_c, 0, 46, 0
4, 11088, Note_on_c, 0, 50, 96
4, 11135, Note_off_c, 0, 50, 0
4, 11136, Note_on_c, 0, 55, 96
4, 11183, Note_off_c, 0, 55, 0
4, 11184, Note_on_c, 0, 58, 96
4, 11231, Note_off_c, 0, 58, 0
4, 11328, Note_on_c, 0, 33, 96
4, 11375, Note_off_c, 0, 33, 0
4, 11376, Note_on_c, 0, 40, 96
4, 11423, Note_off_c, 0, 40, 0
4, 11424, Note_on_c, 0, 45, 96
4, 11471, Note_off_c, 0, 45, 0
4, 11472, Note_on_c, 0, 48, 96
4, 11519, Note_off_c, 0, 48, 0
4, 11520, Note_on_c, 0, 52, 96
4, 11567, Note_off_c, 0, 52, 0
4, 11568, Note_on_c, 0, 57, 96
4, 11615, Note_off_c, 0, 57, 0
4, 11712, Note_on_c, 0, 34, 96
4, 11712, Note_on_c, 0, 46, 96
4, 11759, Note_off_c, 0, 34, 0
4, 11759, Note_off_c, 0, 46, 0
4, 11760, Note_on_c, 0, 46, 96
4, 11807, Note_off_c, 0, 46, 0
4, 11808, Note_on_c, 0, 53, 96
4, 11855, Note_off_c, 0, 53, 0
4, 11856, Note_on_c, 0, 36, 96
4, 11856, Note_on_c, 0, 48, 96
4, 11999, Note_off_c, 0, 48, 0
4, 11999, Note_off_c, 0, 36, 0
4, 12000, Note_on_c, 0, 48, 96
4, 12000, Note_on_c, 0, 60, 96
4, 12047, Note_off_c, 0, 48, 0
4, 12047, Note_off_c, 0, 60, 0
4, 12048, Note_on_c, 0, 38, 96
4, 12048, Note_on_c, 0, 50, 96
4, 12143, Note_off_c, 0, 38, 0
4, 12143, Note_off_c, 0, 50, 0
4, 12144, Note_on_c, 0, 26, 96
4, 12144, Note_on_c, 0, 38, 96
4, 12191, Note_off_c, 0, 26, 0
4, 12191, Note_off_c, 0, 38, 0
4, 12192, Note_on_c, 0, 26, 96
4, 12192, Note_on_c, 0, 38, 96
4, 12287, Note_off_c, 0, 38, 0
4, 12287, Note_off_c, 0, 26, 0
4, 12288, Note_on_c, 0, 38, 96
4, 12288, Note_on_c, 0, 50, 96
4, 12311, Note_off_c, 0, 38, 0
4, 12311, Note_off_c, 0, 50, 0
4, 12384, Note_on_c, 0, 36, 96
4, 12384, Note_on_c, 0, 48, 96
4, 12407, Note_off_c, 0, 36, 0
4, 12407, Note_off_c, 0, 48, 0
4, 12432, Note_on_c, 0, 34, 96
4, 12432, Note_on_c, 0, 46, 96
4, 12479, Note_off_c, 0, 34, 0
4, 12479, Note_off_c, 0, 46, 0
4, 12480, Note_on_c, 0, 46, 96
4, 12527, Note_off_c, 0, 46, 0
4, 12528, Note_on_c, 0, 50, 96
4, 12575, Note_off_c, 0, 50, 0
4, 12576, Note_on_c, 0, 53, 96
4, 12623, Note_off_c, 0, 53, 0
4, 12624, Note_on_c, 0, 50, 96
4, 12671, Note_off_c, 0, 50, 0
4, 12672, Note_on_c, 0, 41, 96
4, 12719, Note_off_c, 0, 41, 0
4, 12720, Note_on_c, 0, 34, 96
4, 12767, Note_off_c, 0, 34, 0
4, 12768, Note_on_c, 0, 41, 96
4, 12863, Note_off_c, 0, 41, 0
4, 12864, Note_on_c, 0, 36, 96
4, 12911, Note_off_c, 0, 36, 0
4, 12912, Note_on_c, 0, 43, 96
4, 12959, Note_off_c, 0, 43, 0
4, 12960, Note_on_c, 0, 48, 96
4, 13007, Note_off_c, 0, 48, 0
4, 13008, Note_on_c, 0, 52, 96
4, 13055, Note_off_c, 0, 52, 0
4, 13056, Note_on_c, 0, 55, 96
4, 13103, Note_off_c, 0, 55, 0
4, 13104, Note_on_c, 0, 60, 96
4, 13151, Note_off_c, 0, 60, 0
4, 13152, Note_on_c, 0, 55, 96
4, 13199, Note_off_c, 0, 55, 0
4, 13200, Note_on_c, 0, 52, 96
4, 13247, Note_off_c, 0, 52, 0
4, 13248, Note_on_c, 0, 33, 96
4, 13295, Note_off_c, 0, 33, 0
4, 13296, Note_on_c, 0, 40, 96
4, 13343, Note_off_c, 0, 40, 0
4, 13344, Note_on_c, 0, 45, 96
4, 13391, Note_off_c, 0, 45, 0
4, 13392, Note_on_c, 0, 48, 96
4, 13439, Note_off_c, 0, 48, 0
4, 13440, Note_on_c, 0, 52, 96
4, 13487, Note_off_c, 0, 52, 0
4, 13488, Note_on_c, 0, 57, 96
4, 13535, Note_off_c, 0, 57, 0
4, 13632, Note_on_c, 0, 38, 96
4, 13679, Note_off_c, 0, 38, 0
4, 13680, Note_on_c, 0, 45, 96
4, 13727, Note_off_c, 0, 45, 0
4, 13728, Note_on_c, 0, 50, 96
4, 13775, Note_off_c, 0, 50, 0
4, 13776, Note_on_c, 0, 53, 96
4, 13823, Note_off_c, 0, 53, 0
4, 13824, Note_on_c, 0, 57, 96
4, 13871, Note_off_c, 0, 57, 0
4, 13872, Note_on_c, 0, 53, 96
4, 13919, Note_off_c, 0, 53, 0
4, 13920, Note_on_c, 0, 50, 96
4, 13967, Note_off_c, 0, 50, 0
4, 13968, Note_on_c, 0, 45, 96
4, 14015, Note_off_c, 0, 45, 0
4, 14016, Note_on_c, 0, 31, 96
4, 14016, Note_on_c, 0, 43, 96
4, 14063, Note_off_c, 0, 31, 0
4, 14063, Note_off_c, 0, 43, 0
4, 14064, Note_on_c, 0, 43, 96
4, 14111, Note_off_c, 0, 43, 0
4, 14112, Note_on_c, 0, 46, 96
4, 14112, Note_on_c, 0, 58, 96
4, 14159, Note_off_c, 0, 46, 0
4, 14159, Note_off_c, 0, 58, 0
4, 14160, Note_on_c, 0, 43, 96
4, 14207, Note_off_c, 0, 43, 0
4, 14208, Note_on_c, 0, 46, 96
4, 14208, Note_on_c, 0, 58, 96
4, 14255, Note_off_c, 0, 46, 0
4, 14255, Note_off_c, 0, 58, 0
4, 14256, Note_on_c, 0, 43, 96
4, 14303, Note_off_c, 0, 43, 0
4, 14304, Note_on_c, 0, 46, 96
4, 14304, Note_on_c, 0, 58, 96
4, 14351, Note_off_c, 0, 46, 0
4, 14351, Note_off_c, 0, 58, 0
4, 14352, Note_on_c, 0, 43, 96
4, 14399, Note_off_c, 0, 43, 0
4, 14400, Note_on_c, 0, 33, 96
4, 14400, Note_on_c, 0, 45, 96
4, 14447, Note_off_c, 0, 33, 0
4, 14447, Note_off_c, 0, 45, 0
4, 14448, Note_on_c, 0, 45, 96
4, 14495, Note_off_c, 0, 45, 0
4, 14496, Note_on_c, 0, 52, 96
4, 14496, Note_on_c, 0, 60, 96
4, 14543, Note_off_c, 0, 52, 0
4, 14543, Note_off_c, 0, 60, 0
4, 14544, Note_on_c, 0, 45, 96
4, 14591, Note_off_c, 0, 45, 0
4, 14592, Note_on_c, 0, 52, 96
4, 14592, Note_on_c, 0, 60, 96
4, 14639, Note_off_c, 0, 52, 0
4, 14639, Note_off_c, 0, 60, 0
4, 14640, Note_on_c, 0, 45, 96
4, 14687, Note_off_c, 0, 45, 0
4, 14688, Note_on_c, 0, 52, 96
4, 14688, Note_on_c, 0, 60, 96
4, 14735, Note_off_c, 0, 52, 0
4, 14735, Note_off_c, 0, 60, 0
4, 14736, Note_on_c, 0, 34, 96
4, 14736, Note_on_c, 0, 46, 96
4, 14879, Note_off_c, 0, 46, 0
4, 14879, Note_off_c, 0, 34, 0
4, 14880, Note_on_c, 0, 46, 96
4, 14927, Note_off_c, 0, 46, 0
4, 14928, Note_on_c, 0, 33, 96
4, 14928, Note_on_c, 0, 45, 96
4, 15023, Note_off_c, 0, 33, 0
4, 15023, Note_off_c, 0, 45, 0
4, 15024, Note_on_c, 0, 45, 96
4, 15071, Note_off_c, 0, 45, 0
4, 15072, Note_on_c, 0, 48, 96
4, 15072, Note_on_c, 0, 53, 96
4, 15072, Note_on_c, 0, 57, 96
4, 15119, Note_off_c, 0, 48, 0
4, 15119, Note_off_c, 0, 53, 0
4, 15119, Note_off_c, 0, 57, 0
4, 15120, Note_on_c, 0, 34, 96
4, 15120, Note_on_c, 0, 46, 96
4, 15215, Note_off_c, 0, 34, 0
4, 15215, Note_off_c, 0, 46, 0
4, 15216, Note_on_c, 0, 46, 96
4, 15311, Note_off_c, 0, 46, 0
4, 15312, Note_on_c, 0, 36, 96
4, 15312, Note_on_c, 0, 48, 96
4, 15455, Note_off_c, 0, 48, 0
4, 15455, Note_off_c, 0, 36, 0
4, 15456, Note_on_c, 0, 48, 96
4, 15456, Note_on_c, 0, 55, 96
4, 15456, Note_on_c, 0, 60, 96
4, 15551, Note_off_c, 0, 48, 0
4, 15551, Note_off_c, 0, 55, 0
4, 15551, Note_off_c, 0, 60, 0
4, 15552, Note_on_c, 0, 33, 96
4, 15552, Note_on_c, 0, 45, 96
4, 15647, Note_off_c, 0, 45, 0
4, 15647, Note_off_c, 0, 33, 0
4, 15648, Note_on_c, 0, 43, 96
4, 15648, Note_on_c, 0, 55, 96
4, 15695, Note_off_c, 0, 43, 0
4, 15695, Note_off_c, 0, 55, 0
4, 15696, Note_on_c, 0, 41, 96
4, 15696, Note_on_c, 0, 53, 96
4, 15743, Note_off_c, 0, 41, 0
4, 15743, Note_off_c, 0, 53, 0
4, 15744, Note_on_c, 0, 40, 96
4, 15744, Note_on_c, 0, 52, 96
4, 15791, Note_off_c, 0, 40, 0
4, 15791, Note_off_c, 0, 52, 0
4, 15792, Note_on_c, 0, 38, 96
4, 15792, Note_on_c, 0, 50, 96
4, 15839, Note_off_c, 0, 38, 0
4, 15839, Note_off_c, 0, 50, 0
4, 15840, Note_on_c, 0, 36, 96
4, 15840, Note_on_c, 0, 48, 96
4, 15887, Note_off_c, 0, 36, 0
4, 15887, Note_off_c, 0, 48, 0
4, 15888, Note_on_c, 0, 35, 96
4, 15888, Note_on_c, 0, 47, 96
4, 15935, Note_off_c, 0, 47, 0
4, 15935, Note_off_c, 0, 35, 0
4, 15936, Note_on_c, 0, 33, 112
4, 15936, Note_on_c, 0, 45, 112
4, 15983, Note_off_c, 0, 33, 0
4, 15983, Note_off_c, 0, 45, 0
4, 15984, Note_on_c, 0, 45, 112
4, 16031, Note_off_c, 0, 45, 0
4, 16032, Note_on_c, 0, 52, 112
4, 16032, Note_on_c, 0, 60, 112
4, 16079, Note_off_c, 0, 52, 0
4, 16079, Note_off_c, 0, 60, 0
4, 16080, Note_on_c, 0, 31, 112
4, 16080, Note_on_c, 0, 43, 112
4, 16175, Note_off_c, 0, 31, 0
4, 16175, Note_off_c, 0, 43, 0
4, 16176, Note_on_c, 0, 43, 112
4, 16223, Note_off_c, 0, 43, 0
4, 16224, Note_on_c, 0, 52, 112
4, 16224, Note_on_c, 0, 59, 112
4, 16319, Note_off_c, 0, 59, 0
4, 16319, Note_off_c, 0, 52, 0
4, 16320, Note_on_c, 0, 29, 112
4, 16320, Note_on_c, 0, 41, 112
4, 16367, Note_off_c, 0, 29, 0
4, 16367, Note_off_c, 0, 41, 0
4, 16368, Note_on_c, 0, 41, 112
4, 16415, Note_off_c, 0, 41, 0
4, 16416, Note_on_c, 0, 53, 112
4, 16463, Note_off_c, 0, 53, 0
4, 16464, Note_on_c, 0, 53, 112
4, 16511, Note_off_c, 0, 53, 0
4, 16512, Note_on_c, 0, 57, 112
4, 16512, Note_on_c, 0, 60, 112
4, 16559, Note_off_c, 0, 57, 0
4, 16559, Note_off_c, 0, 60, 0
4, 16560, Note_on_c, 0, 53, 112
4, 16607, Note_off_c, 0, 53, 0
4, 16608, Note_on_c, 0, 41, 112
4, 16608, Note_on_c, 0, 53, 112
4, 16655, Note_off_c, 0, 41, 0
4, 16655, Note_off_c, 0, 53, 0
4, 16656, Note_on_c, 0, 48, 112
4, 16703, Note_off_c, 0, 48, 0
4, 16704, Note_on_c, 0, 26, 112
4, 16704, Note_on_c, 0, 38, 112
4, 16751, Note_off_c, 0, 26, 0
4, 16751, Note_off_c, 0, 38, 0
4, 16752, Note_on_c, 0, 50, 112
4, 16799, Note_off_c, 0, 50, 0
4, 16800, Note_on_c, 0, 57, 112
4, 16800, Note_on_c, 0, 62, 112
4, 16847, Note_off_c, 0, 57, 0
4, 16847, Note_off_c, 0, 62, 0
4, 16848, Note_on_c, 0, 31, 112
4, 16848, Note_on_c, 0, 43, 112
4, 16943, Note_off_c, 0, 31, 0
4, 16943, Note_off_c, 0, 43, 0
4, 16944, Note_on_c, 0, 43, 112
4, 16944, Note_on_c, 0, 50, 112
4, 16944, Note_on_c, 0, 55, 112
4, 17039, Note_off_c, 0, 43, 0
4, 17039, Note_off_c, 0, 50, 0
4, 17039, Note_off_c, 0, 55, 0
4, 17040, Note_on_c, 0, 36, 112
4, 17040, Note_on_c, 0, 48, 112
4, 17183, Note_off_c, 0, 48, 0
4, 17183, Note_off_c, 0, 36, 0
4, 17184, Note_on_c, 0, 48, 112
4, 17184, Note_on_c, 0, 55, 112
4, 17279, Note_off_c, 0, 48, 0
4, 17279, Note_off_c, 0, 55, 0
4, 17280, Note_on_c, 0, 40, 112
4, 17280, Note_on_c, 0, 52, 112
4, 17375, Note_off_c, 0, 52, 0
4, 17375, Note_off_c, 0, 40, 0
4, 17376, Note_on_c, 0, 28, 112
4, 17376, Note_on_c, 0, 40, 112
4, 17471, Note_off_c, 0, 40, 0
4, 17471, Note_off_c, 0, 28, 0
4, 17472, Note_on_c, 0, 33, 112
4, 17472, Note_on_c, 0, 45, 112
4, 17519, Note_off_c, 0, 33, 0
4, 17519, Note_off_c, 0, 45, 0
4, 17520, Note_on_c, 0, 45, 112
4, 17567, Note_off_c, 0, 45, 0
4, 17568, Note_on_c, 0, 52, 112
4, 17568, Note_on_c, 0, 60, 112
4, 17615, Note_off_c, 0, 52, 0
4, 17615, Note_off_c, 0, 60, 0
4, 17616, Note_on_c, 0, 31, 112
4, 17616, Note_on_c, 0, 43, 112
4, 17711, Note_off_c, 0, 31, 0
4, 17711, Note_off_c, 0, 43, 0
4, 17712, Note_on_c, 0, 43, 112
4, 17759, Note_off_c, 0, 43, 0
4, 17760, Note_on_c, 0, 52, 112
4, 17760, Note_on_c, 0, 59, 112
4, 17855, Note_off_c, 0, 59, 0
4, 17855, Note_off_c, 0, 52, 0
4, 17856, Note_on_c, 0, 29, 112
4, 17856, Note_on_c, 0, 41, 112
4, 17903, Note_off_c, 0, 29, 0
4, 17903, Note_off_c, 0, 41, 0
4, 17904, Note_on_c, 0, 41, 112
4, 17951, Note_off_c, 0, 41, 0
4, 17952, Note_on_c, 0, 53, 112
4, 17999, Note_off_c, 0, 53, 0
4, 18000, Note_on_c, 0, 53, 112
4, 18047, Note_off_c, 0, 53, 0
4, 18048, Note_on_c, 0, 57, 112
4, 18048, Note_on_c, 0, 60, 112
4, 18095, Note_off_c, 0, 57, 0
4, 18095, Note_off_c, 0, 60, 0
4, 18096, Note_on_c, 0, 53, 112
4, 18143, Note_off_c, 0, 53, 0
4, 18144, Note_on_c, 0, 41, 112
4, 18144, Note_on_c, 0, 53, 112
4, 18191, Note_off_c, 0, 41, 0
4, 18191, Note_off_c, 0, 53, 0
4, 18192, Note_on_c, 0, 48, 112
4, 18239, Note_off_c, 0, 48, 0
4, 18240, Note_on_c, 0, 26, 112
4, 18240, Note_on_c, 0, 38, 112
4, 18287, Note_off_c, 0, 26, 0
4, 18287, Note_off_c, 0, 38, 0
4, 18288, Note_on_c, 0, 50, 112
4, 18335, Note_off_c, 0, 50, 0
4, 18336, Note_on_c, 0, 57, 112
4, 18336, Note_on_c, 0, 62, 112
4, 18383, Note_off_c, 0, 57, 0
4, 18383, Note_off_c, 0, 62, 0
4, 18384, Note_on_c, 0, 31, 112
4, 18384, Note_on_c, 0, 43, 112
4, 18479, Note_off_c, 0, 31, 0
4, 18479, Note_off_c, 0, 43, 0
4, 18480, Note_on_c, 0, 43, 112
4, 18480, Note_on_c, 0, 50, 112
4, 18480, Note_on_c, 0, 55, 112
4, 18575, Note_off_c, 0, 43, 0
4, 18575, Note_off_c, 0, 50, 0
4, 18575, Note_off_c, 0, 55, 0
4, 18576, Note_on_c, 0, 33, 112
4, 18576, Note_on_c, 0, 45, 112
4, 18671, Note_off_c, 0, 33, 0
4, 18671, Note_off_c, 0, 45, 0
4, 18672, Note_on_c, 0, 45, 112
4, 18672, Note_on_c, 0, 57, 112
4, 18719, Note_off_c, 0, 45, 0
4, 18719, Note_off_c, 0, 57, 0
4, 18720, Note_on_c, 0, 43, 112
4, 18720, Note_on_c, 0, 55, 112
4, 18767, Note_off_c, 0, 43, 0
4, 18767, Note_off_c, 0, 55, 0
4, 18768, Note_on_c, 0, 41, 112
4, 18768, Note_on_c, 0, 53, 112
4, 18815, Note_off_c, 0, 41, 0
4, 18815, Note_off_c, 0, 53, 0
4, 18816, Note_on_c, 0, 40, 112
4, 18816, Note_on_c, 0, 52, 112
4, 18863, Note_off_c, 0, 40, 0
4, 18863, Note_off_c, 0, 52, 0
4, 18864, Note_on_c, 0, 38, 112
4, 18864, Note_on_c, 0, 50, 112
4, 18911, Note_off_c, 0, 38, 0
4, 18911, Note_off_c, 0, 50, 0
4, 18912, Note_on_c, 0, 36, 112
4, 18912, Note_on_c, 0, 48, 112
4, 18959, Note_off_c, 0, 36, 0
4, 18959, Note_off_c, 0, 48, 0
4, 18960, Note_on_c, 0, 35, 112
4, 18960, Note_on_c, 0, 47, 112
4, 19007, Note_off_c, 0, 47, 0
4, 19007, Note_off_c, 0, 35, 0
4, 19008, Note_on_c, 0, 33, 112
4, 19008, Note_on_c, 0, 45, 112
4, 19055, Note_off_c, 0, 33, 0
4, 19055, Note_off_c, 0, 45, 0
4, 19056, Note_on_c, 0, 45, 112
4, 19103, Note_off_c, 0, 45, 0
4, 19104, Note_on_c, 0, 52, 112
4, 19104, Note_on_c, 0, 60, 112
4, 19151, Note_off_c, 0, 52, 0
4, 19151, Note_off_c, 0, 60, 0
4, 19152, Note_on_c, 0, 31, 112
4, 19152, Note_on_c, 0, 43, 112
4, 19247, Note_off_c, 0, 31, 0
4, 19247, Note_off_c, 0, 43, 0
4, 19248, Note_on_c, 0, 43, 112
4, 19295, Note_off_c, 0, 43, 0
4, 19296, Note_on_c, 0, 52, 112
4, 19296, Note_on_c, 0, 59, 112
4, 19391, Note_off_c, 0, 59, 0
4, 19391, Note_off_c, 0, 52, 0
4, 19392, Note_on_c, 0, 29, 112
4, 19392, Note_on_c, 0, 41, 112
4, 19439, Note_off_c, 0, 29, 0
4, 19439, Note_off_c, 0, 41, 0
4, 19440, Note_on_c, 0, 41, 112
4, 19487, Note_off_c, 0, 41, 0
4, 19488, Note_on_c, 0, 53, 112
4, 19535, Note_off_c, 0, 53, 0
4, 19536, Note_on_c, 0, 53, 112
4, 19583, Note_off_c, 0, 53, 0
4, 19584, Note_on_c, 0, 57, 112
4, 19584, Note_on_c, 0, 60, 112
4, 19631, Note_off_c, 0, 57, 0
4, 19631, Note_off_c, 0, 60, 0
4, 19632, Note_on_c, 0, 53, 112
4, 19679, Note_off_c, 0, 53, 0
4, 19680, Note_on_c, 0, 41, 112
4, 19680, Note_on_c, 0, 53, 112
4, 19727, Note_off_c, 0, 41, 0
4, 19727, Note_off_c, 0, 53, 0
4, 19728, Note_on_c, 0, 48, 112
4, 19775, Note_off_c, 0, 48, 0
4, 19776, Note_on_c, 0, 26, 112
4, 19776, Note_on_c, 0, 38, 112
4, 19823, Note_off_c, 0, 26, 0
4, 19823, Note_off_c, 0, 38, 0
4, 19824, Note_on_c, 0, 50, 112
4, 19871, Note_off_c, 0, 50, 0
4, 19872, Note_on_c, 0, 57, 112
4, 19872, Note_on_c, 0, 62, 112
4, 19919, Note_off_c, 0, 57, 0
4, 19919, Note_off_c, 0, 62, 0
4, 19920, Note_on_c, 0, 31, 112
4, 19920, Note_on_c, 0, 43, 112
4, 20015, Note_off_c, 0, 31, 0
4, 20015, Note_off_c, 0, 43, 0
4, 20016, Note_on_c, 0, 43, 112
4, 20016, Note_on_c, 0, 50, 112
4, 20016, Note_on_c, 0, 55, 112
4, 20111, Note_off_c, 0, 43, 0
4, 20111, Note_off_c, 0, 50, 0
4, 20111, Note_off_c, 0, 55, 0
4, 20112, Note_on_c, 0, 36, 112
4, 20112, Note_on_c, 0, 48, 112
4, 20255, Note_off_c, 0, 48, 0
4, 20255, Note_off_c, 0, 36, 0
4, 20256, Note_on_c, 0, 48, 112
4, 20256, Note_on_c, 0, 60, 112
4, 20303, Note_off_c, 0, 48, 0
4, 20303, Note_off_c, 0, 60, 0
4, 20304, Note_on_c, 0, 55, 112
4, 20351, Note_off_c, 0, 55, 0
4, 20352, Note_on_c, 0, 40, 112
4, 20352, Note_on_c, 0, 52, 112
4, 20399, Note_off_c, 0, 40, 0
4, 20399, Note_off_c, 0, 52, 0
4, 20400, Note_on_c, 0, 44, 112
4, 20400, Note_on_c, 0, 47, 112
4, 20447, Note_off_c, 0, 44, 0
4, 20447, Note_off_c, 0, 47, 0
4, 20448, Note_on_c, 0, 28, 112
4, 20448, Note_on_c, 0, 40, 112
4, 20495, Note_off_c, 0, 28, 0
4, 20495, Note_off_c, 0, 40, 0
4, 20496, Note_on_c, 0, 32, 112
4, 20496, Note_on_c, 0, 35, 112
4, 20543, Note_off_c, 0, 32, 0
4, 20543, Note_off_c, 0, 35, 0
4, 20544, Note_on_c, 0, 33, 112
4, 20544, Note_on_c, 0, 45, 112
4, 20591, Note_off_c, 0, 33, 0
4, 20591, Note_off_c, 0, 45, 0
4, 20592, Note_on_c, 0, 45, 112
4, 20639, Note_off_c, 0, 45, 0
4, 20640, Note_on_c, 0, 52, 112
4, 20640, Note_on_c, 0, 60, 112
4, 20687, Note_off_c, 0, 52, 0
4, 20687, Note_off_c, 0, 60, 0
4, 20688, Note_on_c, 0, 31, 112
4, 20688, Note_on_c, 0, 43, 112
4, 20783, Note_off_c, 0, 31, 0
4, 20783, Note_off_c, 0, 43, 0
4, 20784, Note_on_c, 0, 43, 112
4, 20831, Note_off_c, 0, 43, 0
4, 20832, Note_on_c, 0, 52, 112
4, 20832, Note_on_c, 0, 59, 112
4, 20927, Note_off_c, 0, 59, 0
4, 20927, Note_off_c, 0, 52, 0
4, 20928, Note_on_c, 0, 29, 112
4, 20928, Note_on_c, 0, 41, 112
4, 20975, Note_off_c, 0, 29, 0
4, 20975, Note_off_c, 0, 41, 0
4, 20976, Note_on_c, 0, 41, 112
4, 21023, Note_off_c, 0, 41, 0
4, 21024, Note_on_c, 0, 53, 112
4, 21071, Note_off_c, 0, 53, 0
4, 21072, Note_on_c, 0, 53, 112
4, 21119, Note_off_c, 0, 53, 0
4, 21120, Note_on_c, 0, 57, 112
4, 21120, Note_on_c, 0, 60, 112
4, 21167, Note_off_c, 0, 57, 0
4, 21167, Note_off_c, 0, 60, 0
4, 21168, Note_on_c, 0, 53, 112
4, 21215, Note_off_c, 0, 53, 0
4, 21216, Note_on_c, 0, 41, 112
4, 21216, Note_on_c, 0, 53, 112
4, 21263, Note_off_c, 0, 41, 0
4, 21263, Note_off_c, 0, 53, 0
4, 21264, Note_on_c, 0, 48, 112
4, 21311, Note_off_c, 0, 48, 0
4, 21312, Note_on_c, 0, 26, 112
4, 21312, Note_on_c, 0, 38, 112
4, 21359, Note_off_c, 0, 26, 0
4, 21359, Note_off_c, 0, 38, 0
4, 21360, Note_on_c, 0, 50, 112
4, 21407, Note_off_c, 0, 50, 0
4, 21408, Note_on_c, 0, 57, 112
4, 21408, Note_on_c, 0, 62, 112
4, 21455, Note_off_c, 0, 57, 0
4, 21455, Note_off_c, 0, 62, 0
4, 21456, Note_on_c, 0, 31, 112
4, 21456, Note_on_c, 0, 43, 112
4, 21551, Note_off_c, 0, 31, 0
4, 21551, Note_off_c, 0, 43, 0
4, 21552, Note_on_c, 0, 43, 112
4, 21552, Note_on_c, 0, 50, 112
4, 21552, Note_on_c, 0, 55, 112
4, 21647, Note_off_c, 0, 43, 0
4, 21647, Note_off_c, 0, 50, 0
4, 21647, Note_off_c, 0, 55, 0
4, 21648, Note_on_c, 0, 33, 112
4, 21648, Note_on_c, 0, 45, 112
4, 21743, Note_off_c, 0, 33, 0
4, 21743, Note_off_c, 0, 45, 0
4, 21744, Note_on_c, 0, 45, 112
4, 21791, Note_off_c, 0, 45, 0
4, 21792, Note_on_c, 0, 52, 112
4, 21792, Note_on_c, 0, 57, 112
4, 21839, Note_off_c, 0, 52, 0
4, 21839, Note_off_c, 0, 57, 0
4, 21840, Note_on_c, 0, 45, 112
4, 21887, Note_off_c, 0, 45, 0
4, 21888, Note_on_c, 0, 52, 112
4, 21888, Note_on_c, 0, 59, 112
4, 21935, Note_off_c, 0, 59, 0
4, 21935, Note_off_c, 0, 52, 0
4, 21936, Note_on_c, 0, 45, 112
4, 21983, Note_off_c, 0, 45, 0
4, 21984, Note_on_c, 0, 52, 112
4, 21984, Note_on_c, 0, 60, 112
4, 22031, Note_off_c, 0, 60, 0
4, 22031, Note_off_c, 0, 52, 0
4, 22032, Note_on_c, 0, 45, 112
4, 22079, Note_off_c, 0, 45, 0
4, 22080, Note_on_c, 0, 33, 112
4, 22080, Note_on_c, 0, 45, 112
4, 22127, Note_off_c, 0, 33, 0
4, 22127, Note_off_c, 0, 45, 0
4, 22128, Note_on_c, 0, 40, 112
4, 22175, Note_off_c, 0, 40, 0
4, 22176, Note_on_c, 0, 33, 112
4, 22176, Note_on_c, 0, 45, 112
4, 22223, Note_off_c, 0, 33, 0
4, 22223, Note_off_c, 0, 45, 0
4, 22224, Note_on_c, 0, 31, 112
4, 22224, Note_on_c, 0, 43, 112
4, 22271, Note_off_c, 0, 31, 0
4, 22271, Note_off_c, 0, 43, 0
4, 22320, Note_on_c, 0, 31, 112
4, 22320, Note_on_c, 0, 43, 112
4, 22367, Note_off_c, 0, 31, 0
4, 22367, Note_off_c, 0, 43, 0
4, 22416, Note_on_c, 0, 29, 112
4, 22416, Note_on_c, 0, 41, 112
4, 22847, Note_off_c, 0, 29, 0
4, 22847, Note_off_c, 0, 41, 0
4, 23040, Control_c, 0, 101, 0
4, 23040, Control_c, 0, 100, 0
4, 23040, Control_c, 0, 6, 12
4, 23040, Control_c, 0, 10, 64
4, 23040, Control_c, 0, 7, 100
4, 23040, Pitch_bend_c, 0, 8192
4, 23040, Program_c, 0, 0
4, 23040, Control_c, 0, 91, 20
4, 23040, Control_c, 0, 68, 83
4, 23041, Control_c, 0, 101, 0
4, 23041, Control_c, 0, 100, 0
4, 23041, Control_c, 0, 6, 12
4, 23041, Control_c, 0, 10, 64
4, 23041, Control_c, 0, 7, 100
4, 23041, Pitch_bend_c, 0, 8192
4, 23041, Program_c, 0, 0
4, 23041, Control_c, 0, 91, 20
4, 23041, Control_c, 0, 68, 83
4, 23041, Control_c, 0, 101, 0
4, 23041, Control_c, 0, 100, 0
4, 23041, Control_c, 0, 6, 12
4, 23041, Control_c, 0, 10, 64
4, 23041, Control_c, 0, 7, 100
4, 23041, Pitch_bend_c, 0, 8192
4, 23041, Program_c, 0, 0
4, 23041, Control_c, 0, 91, 20
4, 23041, Control_c, 0, 68, 83
4, 23041, End_track
5, 0, Start_track
5, 0, Title_t, "MIDITrack #3"
5, 0, Control_c, 1, 10, 64
5, 0, Control_c, 1, 7, 100
5, 0, Pitch_bend_c, 1, 8192
5, 0, Control_c, 1, 101, 0
5, 0, Control_c, 1, 100, 0
5, 0, Control_c, 1, 6, 12
5, 0, Control_c, 1, 10, 64
5, 0, Control_c, 1, 7, 100
5, 0, Pitch_bend_c, 1, 8192
5, 0, Program_c, 1, 33
5, 0, Control_c, 1, 91, 30
5, 0, Control_c, 1, 93, 30
5, 0, Control_c, 1, 101, 0
5, 0, Control_c, 1, 100, 0
5, 0, Control_c, 1, 6, 12
5, 0, Control_c, 1, 10, 64
5, 0, Control_c, 1, 7, 100
5, 0, Pitch_bend_c, 1, 8192
5, 0, Program_c, 1, 33
5, 0, Control_c, 1, 91, 30
5, 0, Control_c, 1, 93, 30
5, 0, Program_c, 1, 33
5, 0, Control_c, 1, 7, 100
5, 0, Control_c, 1, 10, 64
5, 0, Control_c, 1, 101, 0
5, 0, Control_c, 1, 100, 0
5, 0, Control_c, 1, 6, 12
5, 0, Control_c, 1, 10, 64
5, 0, Control_c, 1, 7, 100
5, 0, Pitch_bend_c, 1, 8192
5, 0, Program_c, 1, 33
5, 0, Control_c, 1, 91, 30
5, 0, Control_c, 1, 93, 30
5, 0, Program_c, 1, 33
5, 0, Control_c, 1, 7, 100
5, 0, Control_c, 1, 10, 64
5, 0, Note_on_c, 1, 38, 33
5, 0, Note_on_c, 1, 50, 33
5, 1, Control_c, 1, 91, 30
5, 1, Control_c, 1, 93, 30
5, 383, Note_off_c, 1, 38, 0
5, 383, Note_off_c, 1, 50, 0
5, 384, Note_on_c, 1, 37, 33
5, 384, Note_on_c, 1, 49, 33
5, 767, Note_off_c, 1, 37, 0
5, 767, Note_off_c, 1, 49, 0
5, 768, Note_on_c, 1, 36, 33
5, 768, Note_on_c, 1, 48, 33
5, 1151, Note_off_c, 1, 36, 0
5, 1151, Note_off_c, 1, 48, 0
5, 1152, Note_on_c, 1, 35, 33
5, 1152, Note_on_c, 1, 47, 33
5, 1535, Note_off_c, 1, 35, 0
5, 1535, Note_off_c, 1, 47, 0
5, 1536, Note_on_c, 1, 34, 33
5, 1536, Note_on_c, 1, 46, 33
5, 1919, Note_off_c, 1, 46, 0
5, 1919, Note_off_c, 1, 34, 0
5, 1920, Note_on_c, 1, 33, 33
5, 1920, Note_on_c, 1, 45, 33
5, 2303, Note_off_c, 1, 45, 0
5, 2303, Note_off_c, 1, 33, 0
5, 2304, Note_on_c, 1, 31, 33
5, 2304, Note_on_c, 1, 43, 33
5, 2687, Note_off_c, 1, 43, 0
5, 2687, Note_off_c, 1, 31, 0
5, 2688, Note_on_c, 1, 33, 33
5, 2688, Note_on_c, 1, 45, 33
5, 3071, Note_off_c, 1, 45, 0
5, 3071, Note_off_c, 1, 33, 0
5, 3072, Note_on_c, 1, 31, 33
5, 3072, Note_on_c, 1, 43, 33
5, 3455, Note_off_c, 1, 43, 0
5, 3455, Note_off_c, 1, 31, 0
5, 3456, Note_on_c, 1, 36, 33
5, 3456, Note_on_c, 1, 48, 33
5, 3839, Note_off_c, 1, 48, 0
5, 3839, Note_off_c, 1, 36, 0
5, 3840, Note_on_c, 1, 33, 33
5, 3840, Note_on_c, 1, 45, 33
5, 4223, Note_off_c, 1, 45, 0
5, 4223, Note_off_c, 1, 33, 0
5, 4224, Note_on_c, 1, 38, 33
5, 4224, Note_on_c, 1, 50, 33
5, 4607, Note_off_c, 1, 50, 0
5, 4607, Note_off_c, 1, 38, 0
5, 4608, Note_on_c, 1, 31, 33
5, 4608, Note_on_c, 1, 43, 33
5, 4991, Note_off_c, 1, 43, 0
5, 4991, Note_off_c, 1, 31, 0
5, 4992, Note_on_c, 1, 33, 33
5, 4992, Note_on_c, 1, 45, 33
5, 5375, Note_off_c, 1, 45, 0
5, 5375, Note_off_c, 1, 33, 0
5, 5376, Note_on_c, 1, 38, 49
5, 5376, Note_on_c, 1, 50, 49
5, 5423, Note_off_c, 1, 38, 0
5, 5423, Note_off_c, 1, 50, 0
5, 5424, Note_on_c, 1, 36, 49
5, 5424, Note_on_c, 1, 48, 49
5, 5471, Note_off_c, 1, 36, 0
5, 5471, Note_off_c, 1, 48, 0
5, 5472, Note_on_c, 1, 37, 49
5, 5472, Note_on_c, 1, 49, 49
5, 5519, Note_off_c, 1, 37, 0
5, 5519, Note_off_c, 1, 49, 0
5, 5520, Note_on_c, 1, 38, 49
5, 5520, Note_on_c, 1, 50, 49
5, 5567, Note_off_c, 1, 38, 0
5, 5567, Note_off_c, 1, 50, 0
5, 5616, Note_on_c, 1, 26, 49
5, 5616, Note_on_c, 1, 38, 49
5, 5663, Note_off_c, 1, 26, 0
5, 5663, Note_off_c, 1, 38, 0
5, 5664, Note_on_c, 1, 28, 49
5, 5664, Note_on_c, 1, 40, 49
5, 5711, Note_off_c, 1, 28, 0
5, 5711, Note_off_c, 1, 40, 0
5, 5712, Note_on_c, 1, 29, 49
5, 5712, Note_on_c, 1, 41, 49
5, 5903, Note_off_c, 1, 29, 0
5, 5903, Note_off_c, 1, 41, 0
5, 5904, Note_on_c, 1, 36, 49
5, 5904, Note_on_c, 1, 40, 49
5, 5904, Note_on_c, 1, 43, 49
5, 5904, Note_on_c, 1, 48, 49
5, 6335, Note_off_c, 1, 48, 0
5, 6335, Note_off_c, 1, 36, 0
5, 6335, Note_off_c, 1, 40, 0
5, 6335, Note_off_c, 1, 43, 0
5, 6336, Note_on_c, 1, 31, 49
5, 6336, Note_on_c, 1, 43, 49
5, 6719, Note_off_c, 1, 43, 0
5, 6719, Note_off_c, 1, 31, 0
5, 6720, Note_on_c, 1, 36, 49
5, 6720, Note_on_c, 1, 48, 49
5, 7103, Note_off_c, 1, 48, 0
5, 7103, Note_off_c, 1, 36, 0
5, 7104, Note_on_c, 1, 33, 49
5, 7104, Note_on_c, 1, 45, 49
5, 7487, Note_off_c, 1, 45, 0
5, 7487, Note_off_c, 1, 33, 0
5, 7488, Note_on_c, 1, 38, 49
5, 7488, Note_on_c, 1, 50, 49
5, 7871, Note_off_c, 1, 50, 0
5, 7871, Note_off_c, 1, 38, 0
5, 7872, Note_on_c, 1, 31, 49
5, 7872, Note_on_c, 1, 43, 49
5, 8255, Note_off_c, 1, 43, 0
5, 8255, Note_off_c, 1, 31, 0
5, 8256, Note_on_c, 1, 36, 49
5, 8256, Note_on_c, 1, 48, 49
5, 8639, Note_off_c, 1, 48, 0
5, 8639, Note_off_c, 1, 36, 0
5, 8640, Note_on_c, 1, 38, 49
5, 8640, Note_on_c, 1, 50, 49
5, 8927, Note_off_c, 1, 38, 0
5, 8927, Note_off_c, 1, 50, 0
5, 8976, Note_on_c, 1, 38, 49
5, 8976, Note_on_c, 1, 50, 49
5, 9071, Note_off_c, 1, 38, 0
5, 9071, Note_off_c, 1, 50, 0
5, 9072, Note_on_c, 1, 26, 49
5, 9072, Note_on_c, 1, 38, 49
5, 9119, Note_off_c, 1, 26, 0
5, 9119, Note_off_c, 1, 38, 0
5, 9120, Note_on_c, 1, 26, 49
5, 9120, Note_on_c, 1, 38, 49
5, 9215, Note_off_c, 1, 26, 0
5, 9215, Note_off_c, 1, 38, 0
5, 9216, Note_on_c, 1, 38, 49
5, 9216, Note_on_c, 1, 50, 49
5, 9263, Note_off_c, 1, 38, 0
5, 9263, Note_off_c, 1, 50, 0
5, 9312, Note_on_c, 1, 36, 49
5, 9312, Note_on_c, 1, 48, 49
5, 9359, Note_off_c, 1, 36, 0
5, 9359, Note_off_c, 1, 48, 0
5, 9360, Note_on_c, 1, 34, 49
5, 9360, Note_on_c, 1, 46, 49
5, 9791, Note_off_c, 1, 46, 0
5, 9791, Note_off_c, 1, 34, 0
5, 9792, Note_on_c, 1, 36, 49
5, 9792, Note_on_c, 1, 48, 49
5, 10175, Note_off_c, 1, 48, 0
5, 10175, Note_off_c, 1, 36, 0
5, 10176, Note_on_c, 1, 33, 49
5, 10176, Note_on_c, 1, 45, 49
5, 10559, Note_off_c, 1, 45, 0
5, 10559, Note_off_c, 1, 33, 0
5, 10560, Note_on_c, 1, 38, 49
5, 10560, Note_on_c, 1, 50, 49
5, 10943, Note_off_c, 1, 50, 0
5, 10943, Note_off_c, 1, 38, 0
5, 10944, Note_on_c, 1, 31, 49
5, 10944, Note_on_c, 1, 43, 49
5, 11327, Note_off_c, 1, 43, 0
5, 11327, Note_off_c, 1, 31, 0
5, 11328, Note_on_c, 1, 33, 49
5, 11328, Note_on_c, 1, 45, 49
5, 11711, Note_off_c, 1, 45, 0
5, 11711, Note_off_c, 1, 33, 0
5, 11712, Note_on_c, 1, 34, 49
5, 11712, Note_on_c, 1, 46, 49
5, 11999, Note_off_c, 1, 46, 0
5, 11999, Note_off_c, 1, 34, 0
5, 12048, Note_on_c, 1, 38, 49
5, 12048, Note_on_c, 1, 50, 49
5, 12143, Note_off_c, 1, 38, 0
5, 12143, Note_off_c, 1, 50, 0
5, 12144, Note_on_c, 1, 26, 49
5, 12144, Note_on_c, 1, 38, 49
5, 12191, Note_off_c, 1, 26, 0
5, 12191, Note_off_c, 1, 38, 0
5, 12192, Note_on_c, 1, 26, 49
5, 12192, Note_on_c, 1, 38, 49
5, 12287, Note_off_c, 1, 26, 0
5, 12287, Note_off_c, 1, 38, 0
5, 12288, Note_on_c, 1, 38, 49
5, 12288, Note_on_c, 1, 50, 49
5, 12335, Note_off_c, 1, 38, 0
5, 12335, Note_off_c, 1, 50, 0
5, 12384, Note_on_c, 1, 36, 49
5, 12384, Note_on_c, 1, 48, 49
5, 12431, Note_off_c, 1, 36, 0
5, 12431, Note_off_c, 1, 48, 0
5, 12432, Note_on_c, 1, 34, 49
5, 12432, Note_on_c, 1, 46, 49
5, 12863, Note_off_c, 1, 46, 0
5, 12863, Note_off_c, 1, 34, 0
5, 12864, Note_on_c, 1, 36, 49
5, 12864, Note_on_c, 1, 48, 49
5, 13247, Note_off_c, 1, 48, 0
5, 13247, Note_off_c, 1, 36, 0
5, 13248, Note_on_c, 1, 33, 49
5, 13248, Note_on_c, 1, 45, 49
5, 13631, Note_off_c, 1, 45, 0
5, 13631, Note_off_c, 1, 33, 0
5, 13632, Note_on_c, 1, 38, 49
5, 13632, Note_on_c, 1, 50, 49
5, 14015, Note_off_c, 1, 50, 0
5, 14015, Note_off_c, 1, 38, 0
5, 14016, Note_on_c, 1, 31, 49
5, 14016, Note_on_c, 1, 43, 49
5, 14399, Note_off_c, 1, 43, 0
5, 14399, Note_off_c, 1, 31, 0
5, 14400, Note_on_c, 1, 33, 49
5, 14400, Note_on_c, 1, 45, 49
5, 14687, Note_off_c, 1, 45, 0
5, 14687, Note_off_c, 1, 33, 0
5, 14736, Note_on_c, 1, 34, 49
5, 14736, Note_on_c, 1, 46, 49
5, 14927, Note_off_c, 1, 46, 0
5, 14927, Note_off_c, 1, 34, 0
5, 14928, Note_on_c, 1, 33, 49
5, 14928, Note_on_c, 1, 45, 49
5, 15119, Note_off_c, 1, 33, 0
5, 15119, Note_off_c, 1, 45, 0
5, 15120, Note_on_c, 1, 34, 49
5, 15120, Note_on_c, 1, 46, 49
5, 15311, Note_off_c, 1, 46, 0
5, 15311, Note_off_c, 1, 34, 0
5, 15312, Note_on_c, 1, 33, 49
5, 15312, Note_on_c, 1, 45, 49
5, 15551, Note_off_c, 1, 45, 0
5, 15551, Note_off_c, 1, 33, 0
5, 15552, Note_on_c, 1, 33, 49
5, 15552, Note_on_c, 1, 45, 49
5, 15935, Note_off_c, 1, 45, 0
5, 15935, Note_off_c, 1, 33, 0
5, 15936, Note_on_c, 1, 33, 80
5, 15936, Note_on_c, 1, 45, 80
5, 16079, Note_off_c, 1, 45, 0
5, 16079, Note_off_c, 1, 33, 0
5, 16080, Note_on_c, 1, 31, 80
5, 16080, Note_on_c, 1, 43, 80
5, 16319, Note_off_c, 1, 43, 0
5, 16319, Note_off_c, 1, 31, 0
5, 16320, Note_on_c, 1, 29, 80
5, 16320, Note_on_c, 1, 41, 80
5, 16703, Note_off_c, 1, 41, 0
5, 16703, Note_off_c, 1, 29, 0
5, 16704, Note_on_c, 1, 26, 80
5, 16704, Note_on_c, 1, 38, 80
5, 16847, Note_off_c, 1, 38, 0
5, 16847, Note_off_c, 1, 26, 0
5, 16848, Note_on_c, 1, 31, 80
5, 16848, Note_on_c, 1, 43, 80
5, 17039, Note_off_c, 1, 43, 0
5, 17039, Note_off_c, 1, 31, 0
5, 17040, Note_on_c, 1, 36, 80
5, 17040, Note_on_c, 1, 48, 80
5, 17279, Note_off_c, 1, 48, 0
5, 17279, Note_off_c, 1, 36, 0
5, 17280, Note_on_c, 1, 28, 80
5, 17280, Note_on_c, 1, 40, 80
5, 17471, Note_off_c, 1, 40, 0
5, 17471, Note_off_c, 1, 28, 0
5, 17472, Note_on_c, 1, 33, 80
5, 17472, Note_on_c, 1, 45, 80
5, 17615, Note_off_c, 1, 45, 0
5, 17615, Note_off_c, 1, 33, 0
5, 17616, Note_on_c, 1, 31, 80
5, 17616, Note_on_c, 1, 43, 80
5, 17855, Note_off_c, 1, 43, 0
5, 17855, Note_off_c, 1, 31, 0
5, 17856, Note_on_c, 1, 29, 80
5, 17856, Note_on_c, 1, 41, 80
5, 18239, Note_off_c, 1, 41, 0
5, 18239, Note_off_c, 1, 29, 0
5, 18240, Note_on_c, 1, 26, 80
5, 18240, Note_on_c, 1, 38, 80
5, 18383, Note_off_c, 1, 38, 0
5, 18383, Note_off_c, 1, 26, 0
5, 18384, Note_on_c, 1, 31, 80
5, 18384, Note_on_c, 1, 43, 80
5, 18575, Note_off_c, 1, 43, 0
5, 18575, Note_off_c, 1, 31, 0
5, 18576, Note_on_c, 1, 33, 80
5, 18576, Note_on_c, 1, 45, 80
5, 19007, Note_off_c, 1, 45, 0
5, 19007, Note_off_c, 1, 33, 0
5, 19008, Note_on_c, 1, 33, 80
5, 19008, Note_on_c, 1, 45, 80
5, 19151, Note_off_c, 1, 45, 0
5, 19151, Note_off_c, 1, 33, 0
5, 19152, Note_on_c, 1, 31, 80
5, 19152, Note_on_c, 1, 43, 80
5, 19391, Note_off_c, 1, 43, 0
5, 19391, Note_off_c, 1, 31, 0
5, 19392, Note_on_c, 1, 29, 80
5, 19392, Note_on_c, 1, 41, 80
5, 19775, Note_off_c, 1, 41, 0
5, 19775, Note_off_c, 1, 29, 0
5, 19776, Note_on_c, 1, 26, 80
5, 19776, Note_on_c, 1, 38, 80
5, 19919, Note_off_c, 1, 38, 0
5, 19919, Note_off_c, 1, 26, 0
5, 19920, Note_on_c, 1, 31, 80
5, 19920, Note_on_c, 1, 43, 80
5, 20111, Note_off_c, 1, 43, 0
5, 20111, Note_off_c, 1, 31, 0
5, 20112, Note_on_c, 1, 36, 80
5, 20112, Note_on_c, 1, 48, 80
5, 20351, Note_off_c, 1, 48, 0
5, 20351, Note_off_c, 1, 36, 0
5, 20352, Note_on_c, 1, 28, 80
5, 20352, Note_on_c, 1, 40, 80
5, 20543, Note_off_c, 1, 28, 0
5, 20543, Note_off_c, 1, 40, 0
5, 20544, Note_on_c, 1, 33, 80
5, 20544, Note_on_c, 1, 45, 80
5, 20687, Note_off_c, 1, 45, 0
5, 20687, Note_off_c, 1, 33, 0
5, 20688, Note_on_c, 1, 31, 80
5, 20688, Note_on_c, 1, 43, 80
5, 20927, Note_off_c, 1, 43, 0
5, 20927, Note_off_c, 1, 31, 0
5, 20928, Note_on_c, 1, 29, 80
5, 20928, Note_on_c, 1, 41, 80
5, 21311, Note_off_c, 1, 29, 0
5, 21311, Note_off_c, 1, 41, 0
5, 21312, Note_on_c, 1, 26, 80
5, 21312, Note_on_c, 1, 38, 80
5, 21455, Note_off_c, 1, 38, 0
5, 21455, Note_off_c, 1, 26, 0
5, 21456, Note_on_c, 1, 31, 80
5, 21456, Note_on_c, 1, 43, 80
5, 21647, Note_off_c, 1, 43, 0
5, 21647, Note_off_c, 1, 31, 0
5, 21648, Note_on_c, 1, 33, 80
5, 21648, Note_on_c, 1, 45, 80
5, 22079, Note_off_c, 1, 45, 0
5, 22079, Note_off_c, 1, 33, 0
5, 22080, Note_on_c, 1, 33, 80
5, 22080, Note_on_c, 1, 45, 80
5, 22223, Note_off_c, 1, 45, 0
5, 22223, Note_off_c, 1, 33, 0
5, 22224, Note_on_c, 1, 31, 80
5, 22224, Note_on_c, 1, 43, 80
5, 22271, Note_off_c, 1, 31, 0
5, 22271, Note_off_c, 1, 43, 0
5, 22320, Note_on_c, 1, 31, 80
5, 22320, Note_on_c, 1, 43, 80
5, 22367, Note_off_c, 1, 31, 0
5, 22367, Note_off_c, 1, 43, 0
5, 22416, Note_on_c, 1, 29, 80
5, 22416, Note_on_c, 1, 41, 80
5, 22847, Note_off_c, 1, 29, 0
5, 22847, Note_off_c, 1, 41, 0
5, 23040, Control_c, 1, 101, 0
5, 23040, Control_c, 1, 100, 0
5, 23040, Control_c, 1, 6, 12
5, 23040, Control_c, 1, 10, 64
5, 23040, Control_c, 1, 7, 100
5, 23040, Pitch_bend_c, 1, 8192
5, 23040, Program_c, 1, 33
5, 23040, Control_c, 1, 91, 30
5, 23040, Control_c, 1, 93, 30
5, 23041, Control_c, 1, 101, 0
5, 23041, Control_c, 1, 100, 0
5, 23041, Control_c, 1, 6, 12
5, 23041, Control_c, 1, 10, 64
5, 23041, Control_c, 1, 7, 100
5, 23041, Pitch_bend_c, 1, 8192
5, 23041, Program_c, 1, 33
5, 23041, Control_c, 1, 91, 30
5, 23041, Control_c, 1, 93, 30
5, 23041, Control_c, 1, 101, 0
5, 23041, Control_c, 1, 100, 0
5, 23041, Control_c, 1, 6, 12
5, 23041, Control_c, 1, 10, 64
5, 23041, Control_c, 1, 7, 100
5, 23041, Pitch_bend_c, 1, 8192
5, 23041, Program_c, 1, 33
5, 23041, Control_c, 1, 91, 30
5, 23041, Control_c, 1, 93, 30
5, 23041, End_track
6, 0, Start_track
6, 0, Title_t, "MIDITrack #4"
6, 0, Control_c, 9, 10, 64
6, 0, Control_c, 9, 7, 63
6, 0, Pitch_bend_c, 9, 8192
6, 0, Control_c, 9, 101, 0
6, 0, Control_c, 9, 100, 0
6, 0, Control_c, 9, 6, 12
6, 0, Control_c, 9, 10, 64
6, 0, Control_c, 9, 7, 63
6, 0, Pitch_bend_c, 9, 8192
6, 0, Program_c, 9, 0
6, 0, Control_c, 9, 91, 30
6, 0, Control_c, 9, 93, 30
6, 0, Control_c, 9, 101, 0
6, 0, Control_c, 9, 100, 0
6, 0, Control_c, 9, 6, 12
6, 0, Control_c, 9, 10, 64
6, 0, Control_c, 9, 7, 63
6, 0, Pitch_bend_c, 9, 8192
6, 0, Program_c, 9, 0
6, 0, Control_c, 9, 91, 30
6, 0, Control_c, 9, 93, 30
6, 0, Program_c, 9, 0
6, 0, Control_c, 9, 7, 63
6, 0, Control_c, 9, 10, 64
6, 0, Control_c, 9, 101, 0
6, 0, Control_c, 9, 100, 0
6, 0, Control_c, 9, 6, 12
6, 0, Control_c, 9, 10, 64
6, 0, Control_c, 9, 7, 63
6, 0, Pitch_bend_c, 9, 8192
6, 0, Program_c, 9, 0
6, 0, Control_c, 9, 91, 30
6, 0, Control_c, 9, 93, 30
6, 0, Program_c, 9, 0
6, 0, Control_c, 9, 7, 63
6, 0, Control_c, 9, 10, 64
6, 1, Control_c, 9, 91, 30
6, 1, Control_c, 9, 93, 30
6, 1536, Note_on_c, 9, 36, 80
6, 1631, Note_off_c, 9, 36, 0
6, 1632, Note_on_c, 9, 36, 80
6, 1727, Note_off_c, 9, 36, 0
6, 1728, Note_on_c, 9, 36, 80
6, 1823, Note_off_c, 9, 36, 0
6, 1824, Note_on_c, 9, 36, 80
6, 1919, Note_off_c, 9, 36, 0
6, 1920, Note_on_c, 9, 36, 80
6, 2015, Note_off_c, 9, 36, 0
6, 2016, Note_on_c, 9, 36, 80
6, 2111, Note_off_c, 9, 36, 0
6, 2112, Note_on_c, 9, 36, 80
6, 2207, Note_off_c, 9, 36, 0
6, 2208, Note_on_c, 9, 36, 80
6, 2303, Note_off_c, 9, 36, 0
6, 2304, Note_on_c, 9, 36, 80
6, 2399, Note_off_c, 9, 36, 0
6, 2400, Note_on_c, 9, 36, 80
6, 2495, Note_off_c, 9, 36, 0
6, 2496, Note_on_c, 9, 36, 80
6, 2591, Note_off_c, 9, 36, 0
6, 2592, Note_on_c, 9, 36, 80
6, 2687, Note_off_c, 9, 36, 0
6, 2688, Note_on_c, 9, 36, 80
6, 2783, Note_off_c, 9, 36, 0
6, 2784, Note_on_c, 9, 36, 80
6, 2879, Note_off_c, 9, 36, 0
6, 2880, Note_on_c, 9, 42, 80
6, 2903, Note_off_c, 9, 42, 0
6, 2904, Note_on_c, 9, 42, 80
6, 2927, Note_off_c, 9, 42, 0
6, 2928, Note_on_c, 9, 42, 80
6, 2951, Note_off_c, 9, 42, 0
6, 2952, Note_on_c, 9, 42, 80
6, 2975, Note_off_c, 9, 42, 0
6, 2976, Note_on_c, 9, 42, 80
6, 2999, Note_off_c, 9, 42, 0
6, 3000, Note_on_c, 9, 42, 80
6, 3023, Note_off_c, 9, 42, 0
6, 3024, Note_on_c, 9, 42, 80
6, 3047, Note_off_c, 9, 42, 0
6, 3048, Note_on_c, 9, 42, 80
6, 3071, Note_off_c, 9, 42, 0
6, 3072, Note_on_c, 9, 36, 80
6, 3167, Note_off_c, 9, 36, 0
6, 3168, Note_on_c, 9, 38, 80
6, 3263, Note_off_c, 9, 38, 0
6, 3264, Note_on_c, 9, 36, 80
6, 3359, Note_off_c, 9, 36, 0
6, 3360, Note_on_c, 9, 38, 80
6, 3455, Note_off_c, 9, 38, 0
6, 3456, Note_on_c, 9, 36, 80
6, 3551, Note_off_c, 9, 36, 0
6, 3552, Note_on_c, 9, 38, 80
6, 3647, Note_off_c, 9, 38, 0
6, 3648, Note_on_c, 9, 36, 80
6, 3743, Note_off_c, 9, 36, 0
6, 3744, Note_on_c, 9, 38, 80
6, 3839, Note_off_c, 9, 38, 0
6, 3840, Note_on_c, 9, 36, 80
6, 3935, Note_off_c, 9, 36, 0
6, 3936, Note_on_c, 9, 38, 80
6, 4031, Note_off_c, 9, 38, 0
6, 4032, Note_on_c, 9, 36, 80
6, 4127, Note_off_c, 9, 36, 0
6, 4128, Note_on_c, 9, 38, 80
6, 4223, Note_off_c, 9, 38, 0
6, 4224, Note_on_c, 9, 36, 80
6, 4319, Note_off_c, 9, 36, 0
6, 4320, Note_on_c, 9, 38, 80
6, 4415, Note_off_c, 9, 38, 0
6, 4416, Note_on_c, 9, 36, 80
6, 4511, Note_off_c, 9, 36, 0
6, 4512, Note_on_c, 9, 38, 80
6, 4607, Note_off_c, 9, 38, 0
6, 4608, Note_on_c, 9, 36, 80
6, 4703, Note_off_c, 9, 36, 0
6, 4704, Note_on_c, 9, 38, 80
6, 4799, Note_off_c, 9, 38, 0
6, 4800, Note_on_c, 9, 36, 80
6, 4895, Note_off_c, 9, 36, 0
6, 4896, Note_on_c, 9, 38, 80
6, 4991, Note_off_c, 9, 38, 0
6, 4992, Note_on_c, 9, 36, 80
6, 5087, Note_off_c, 9, 36, 0
6, 5088, Note_on_c, 9, 38, 80
6, 5183, Note_off_c, 9, 38, 0
6, 5184, Note_on_c, 9, 36, 80
6, 5279, Note_off_c, 9, 36, 0
6, 5280, Note_on_c, 9, 38, 80
6, 5375, Note_off_c, 9, 38, 0
6, 5376, Note_on_c, 9, 38, 80
6, 5399, Note_off_c, 9, 38, 0
6, 5400, Note_on_c, 9, 38, 80
6, 5423, Note_off_c, 9, 38, 0
6, 5520, Note_on_c, 9, 38, 80
6, 5543, Note_off_c, 9, 38, 0
6, 5544, Note_on_c, 9, 38, 80
6, 5567, Note_off_c, 9, 38, 0
6, 5760, Note_on_c, 9, 38, 80
6, 5855, Note_off_c, 9, 38, 0
6, 5856, Note_on_c, 9, 38, 80
6, 5951, Note_off_c, 9, 38, 0
6, 5952, Note_on_c, 9, 38, 80
6, 5999, Note_off_c, 9, 38, 0
6, 6000, Note_on_c, 9, 38, 80
6, 6047, Note_off_c, 9, 38, 0
6, 6048, Note_on_c, 9, 38, 80
6, 6071, Note_off_c, 9, 38, 0
6, 6072, Note_on_c, 9, 38, 80
6, 6095, Note_off_c, 9, 38, 0
6, 6096, Note_on_c, 9, 38, 80
6, 6119, Note_off_c, 9, 38, 0
6, 6120, Note_on_c, 9, 38, 80
6, 6143, Note_off_c, 9, 38, 0
6, 6144, Note_on_c, 9, 42, 80
6, 6167, Note_off_c, 9, 42, 0
6, 6168, Note_on_c, 9, 42, 80
6, 6191, Note_off_c, 9, 42, 0
6, 6192, Note_on_c, 9, 42, 80
6, 6215, Note_off_c, 9, 42, 0
6, 6216, Note_on_c, 9, 42, 80
6, 6239, Note_off_c, 9, 42, 0
6, 6240, Note_on_c, 9, 42, 80
6, 6263, Note_off_c, 9, 42, 0
6, 6264, Note_on_c, 9, 42, 80
6, 6287, Note_off_c, 9, 42, 0
6, 6288, Note_on_c, 9, 42, 80
6, 6311, Note_off_c, 9, 42, 0
6, 6312, Note_on_c, 9, 42, 80
6, 6335, Note_off_c, 9, 42, 0
6, 6336, Note_on_c, 9, 36, 80
6, 6431, Note_off_c, 9, 36, 0
6, 6432, Note_on_c, 9, 38, 80
6, 6527, Note_off_c, 9, 38, 0
6, 6528, Note_on_c, 9, 36, 80
6, 6623, Note_off_c, 9, 36, 0
6, 6624, Note_on_c, 9, 38, 80
6, 6719, Note_off_c, 9, 38, 0
6, 6720, Note_on_c, 9, 36, 80
6, 6815, Note_off_c, 9, 36, 0
6, 6816, Note_on_c, 9, 38, 80
6, 6911, Note_off_c, 9, 38, 0
6, 6912, Note_on_c, 9, 36, 80
6, 7007, Note_off_c, 9, 36, 0
6, 7008, Note_on_c, 9, 38, 80
6, 7103, Note_off_c, 9, 38, 0
6, 7104, Note_on_c, 9, 36, 80
6, 7199, Note_off_c, 9, 36, 0
6, 7200, Note_on_c, 9, 38, 80
6, 7295, Note_off_c, 9, 38, 0
6, 7296, Note_on_c, 9, 36, 80
6, 7391, Note_off_c, 9, 36, 0
6, 7392, Note_on_c, 9, 38, 80
6, 7487, Note_off_c, 9, 38, 0
6, 7488, Note_on_c, 9, 36, 80
6, 7583, Note_off_c, 9, 36, 0
6, 7584, Note_on_c, 9, 38, 80
6, 7679, Note_off_c, 9, 38, 0
6, 7680, Note_on_c, 9, 36, 80
6, 7775, Note_off_c, 9, 36, 0
6, 7776, Note_on_c, 9, 38, 80
6, 7871, Note_off_c, 9, 38, 0
6, 7872, Note_on_c, 9, 36, 80
6, 7967, Note_off_c, 9, 36, 0
6, 7968, Note_on_c, 9, 38, 80
6, 8063, Note_off_c, 9, 38, 0
6, 8064, Note_on_c, 9, 36, 80
6, 8159, Note_off_c, 9, 36, 0
6, 8160, Note_on_c, 9, 38, 80
6, 8255, Note_off_c, 9, 38, 0
6, 8256, Note_on_c, 9, 36, 80
6, 8351, Note_off_c, 9, 36, 0
6, 8352, Note_on_c, 9, 38, 80
6, 8447, Note_off_c, 9, 38, 0
6, 8448, Note_on_c, 9, 36, 80
6, 8543, Note_off_c, 9, 36, 0
6, 8544, Note_on_c, 9, 38, 80
6, 8639, Note_off_c, 9, 38, 0
6, 8640, Note_on_c, 9, 38, 80
6, 8663, Note_off_c, 9, 38, 0
6, 8664, Note_on_c, 9, 38, 80
6, 8687, Note_off_c, 9, 38, 0
6, 8784, Note_on_c, 9, 38, 80
6, 8807, Note_off_c, 9, 38, 0
6, 8808, Note_on_c, 9, 38, 80
6, 8831, Note_off_c, 9, 38, 0
6, 8976, Note_on_c, 9, 49, 80
6, 9023, Note_off_c, 9, 49, 0
6, 9216, Note_on_c, 9, 36, 80
6, 9311, Note_off_c, 9, 36, 0
6, 9312, Note_on_c, 9, 38, 80
6, 9407, Note_off_c, 9, 38, 0
6, 9408, Note_on_c, 9, 36, 80
6, 9503, Note_off_c, 9, 36, 0
6, 9504, Note_on_c, 9, 38, 80
6, 9599, Note_off_c, 9, 38, 0
6, 9600, Note_on_c, 9, 36, 80
6, 9695, Note_off_c, 9, 36, 0
6, 9696, Note_on_c, 9, 38, 80
6, 9791, Note_off_c, 9, 38, 0
6, 9792, Note_on_c, 9, 36, 80
6, 9887, Note_off_c, 9, 36, 0
6, 9888, Note_on_c, 9, 38, 80
6, 9983, Note_off_c, 9, 38, 0
6, 9984, Note_on_c, 9, 36, 80
6, 10079, Note_off_c, 9, 36, 0
6, 10080, Note_on_c, 9, 38, 80
6, 10175, Note_off_c, 9, 38, 0
6, 10176, Note_on_c, 9, 36, 80
6, 10271, Note_off_c, 9, 36, 0
6, 10272, Note_on_c, 9, 38, 80
6, 10367, Note_off_c, 9, 38, 0
6, 10368, Note_on_c, 9, 36, 80
6, 10463, Note_off_c, 9, 36, 0
6, 10464, Note_on_c, 9, 38, 80
6, 10559, Note_off_c, 9, 38, 0
6, 10560, Note_on_c, 9, 36, 80
6, 10655, Note_off_c, 9, 36, 0
6, 10656, Note_on_c, 9, 38, 80
6, 10751, Note_off_c, 9, 38, 0
6, 10752, Note_on_c, 9, 36, 80
6, 10847, Note_off_c, 9, 36, 0
6, 10848, Note_on_c, 9, 38, 80
6, 10943, Note_off_c, 9, 38, 0
6, 10944, Note_on_c, 9, 36, 80
6, 11039, Note_off_c, 9, 36, 0
6, 11040, Note_on_c, 9, 38, 80
6, 11135, Note_off_c, 9, 38, 0
6, 11136, Note_on_c, 9, 36, 80
6, 11231, Note_off_c, 9, 36, 0
6, 11232, Note_on_c, 9, 38, 80
6, 11327, Note_off_c, 9, 38, 0
6, 11328, Note_on_c, 9, 36, 80
6, 11423, Note_off_c, 9, 36, 0
6, 11424, Note_on_c, 9, 38, 80
6, 11519, Note_off_c, 9, 38, 0
6, 11520, Note_on_c, 9, 36, 80
6, 11615, Note_off_c, 9, 36, 0
6, 11616, Note_on_c, 9, 38, 80
6, 11711, Note_off_c, 9, 38, 0
6, 11712, Note_on_c, 9, 38, 80
6, 11735, Note_off_c, 9, 38, 0
6, 11736, Note_on_c, 9, 38, 80
6, 11759, Note_off_c, 9, 38, 0
6, 11856, Note_on_c, 9, 38, 80
6, 11879, Note_off_c, 9, 38, 0
6, 11880, Note_on_c, 9, 38, 80
6, 11903, Note_off_c, 9, 38, 0
6, 12048, Note_on_c, 9, 49, 80
6, 12095, Note_off_c, 9, 49, 0
6, 12288, Note_on_c, 9, 36, 80
6, 12383, Note_off_c, 9, 36, 0
6, 12384, Note_on_c, 9, 38, 80
6, 12479, Note_off_c, 9, 38, 0
6, 12480, Note_on_c, 9, 36, 80
6, 12575, Note_off_c, 9, 36, 0
6, 12576, Note_on_c, 9, 38, 80
6, 12671, Note_off_c, 9, 38, 0
6, 12672, Note_on_c, 9, 36, 80
6, 12767, Note_off_c, 9, 36, 0
6, 12768, Note_on_c, 9, 38, 80
6, 12863, Note_off_c, 9, 38, 0
6, 12864, Note_on_c, 9, 36, 80
6, 12959, Note_off_c, 9, 36, 0
6, 12960, Note_on_c, 9, 38, 80
6, 13055, Note_off_c, 9, 38, 0
6, 13056, Note_on_c, 9, 36, 80
6, 13151, Note_off_c, 9, 36, 0
6, 13152, Note_on_c, 9, 38, 80
6, 13247, Note_off_c, 9, 38, 0
6, 13248, Note_on_c, 9, 36, 80
6, 13343, Note_off_c, 9, 36, 0
6, 13344, Note_on_c, 9, 38, 80
6, 13439, Note_off_c, 9, 38, 0
6, 13440, Note_on_c, 9, 36, 80
6, 13535, Note_off_c, 9, 36, 0
6, 13536, Note_on_c, 9, 38, 80
6, 13631, Note_off_c, 9, 38, 0
6, 13632, Note_on_c, 9, 36, 80
6, 13727, Note_off_c, 9, 36, 0
6, 13728, Note_on_c, 9, 38, 80
6, 13823, Note_off_c, 9, 38, 0
6, 13824, Note_on_c, 9, 36, 80
6, 13919, Note_off_c, 9, 36, 0
6, 13920, Note_on_c, 9, 38, 80
6, 14015, Note_off_c, 9, 38, 0
6, 14016, Note_on_c, 9, 36, 80
6, 14111, Note_off_c, 9, 36, 0
6, 14112, Note_on_c, 9, 38, 80
6, 14207, Note_off_c, 9, 38, 0
6, 14208, Note_on_c, 9, 36, 80
6, 14303, Note_off_c, 9, 36, 0
6, 14304, Note_on_c, 9, 38, 80
6, 14399, Note_off_c, 9, 38, 0
6, 14400, Note_on_c, 9, 36, 80
6, 14495, Note_off_c, 9, 36, 0
6, 14496, Note_on_c, 9, 38, 80
6, 14591, Note_off_c, 9, 38, 0
6, 14592, Note_on_c, 9, 36, 80
6, 14687, Note_off_c, 9, 36, 0
6, 14688, Note_on_c, 9, 38, 80
6, 14783, Note_off_c, 9, 38, 0
6, 14784, Note_on_c, 9, 38, 80
6, 14807, Note_off_c, 9, 38, 0
6, 14808, Note_on_c, 9, 38, 80
6, 14831, Note_off_c, 9, 38, 0
6, 14928, Note_on_c, 9, 38, 80
6, 14951, Note_off_c, 9, 38, 0
6, 14952, Note_on_c, 9, 38, 80
6, 14975, Note_off_c, 9, 38, 0
6, 15120, Note_on_c, 9, 36, 80
6, 15167, Note_off_c, 9, 36, 0
6, 15168, Note_on_c, 9, 36, 80
6, 15215, Note_off_c, 9, 36, 0
6, 15216, Note_on_c, 9, 36, 80
6, 15263, Note_off_c, 9, 36, 0
6, 15264, Note_on_c, 9, 36, 80
6, 15311, Note_off_c, 9, 36, 0
6, 15312, Note_on_c, 9, 36, 80
6, 15335, Note_off_c, 9, 36, 0
6, 15336, Note_on_c, 9, 36, 80
6, 15359, Note_off_c, 9, 36, 0
6, 15360, Note_on_c, 9, 36, 80
6, 15383, Note_off_c, 9, 36, 0
6, 15384, Note_on_c, 9, 36, 80
6, 15407, Note_off_c, 9, 36, 0
6, 15408, Note_on_c, 9, 36, 80
6, 15431, Note_off_c, 9, 36, 0
6, 15432, Note_on_c, 9, 36, 80
6, 15455, Note_off_c, 9, 36, 0
6, 15456, Note_on_c, 9, 49, 80
6, 15551, Note_off_c, 9, 49, 0
6, 15552, Note_on_c, 9, 36, 80
6, 15599, Note_off_c, 9, 36, 0
6, 15600, Note_on_c, 9, 36, 80
6, 15647, Note_off_c, 9, 36, 0
6, 15648, Note_on_c, 9, 36, 80
6, 15695, Note_off_c, 9, 36, 0
6, 15696, Note_on_c, 9, 36, 80
6, 15743, Note_off_c, 9, 36, 0
6, 15744, Note_on_c, 9, 36, 80
6, 15767, Note_off_c, 9, 36, 0
6, 15768, Note_on_c, 9, 36, 80
6, 15791, Note_off_c, 9, 36, 0
6, 15792, Note_on_c, 9, 36, 80
6, 15815, Note_off_c, 9, 36, 0
6, 15816, Note_on_c, 9, 36, 80
6, 15839, Note_off_c, 9, 36, 0
6, 15840, Note_on_c, 9, 51, 80
6, 15851, Note_off_c, 9, 51, 0
6, 15852, Note_on_c, 9, 51, 80
6, 15863, Note_off_c, 9, 51, 0
6, 15864, Note_on_c, 9, 51, 80
6, 15875, Note_off_c, 9, 51, 0
6, 15876, Note_on_c, 9, 51, 80
6, 15887, Note_off_c, 9, 51, 0
6, 15888, Note_on_c, 9, 51, 80
6, 15899, Note_off_c, 9, 51, 0
6, 15900, Note_on_c, 9, 51, 80
6, 15911, Note_off_c, 9, 51, 0
6, 15912, Note_on_c, 9, 51, 80
6, 15923, Note_off_c, 9, 51, 0
6, 15924, Note_on_c, 9, 51, 80
6, 15935, Note_off_c, 9, 51, 0
6, 15936, Note_on_c, 9, 36, 96
6, 15983, Note_off_c, 9, 36, 0
6, 15984, Note_on_c, 9, 36, 96
6, 16031, Note_off_c, 9, 36, 0
6, 16032, Note_on_c, 9, 38, 96
6, 16079, Note_off_c, 9, 38, 0
6, 16080, Note_on_c, 9, 36, 96
6, 16127, Note_off_c, 9, 36, 0
6, 16128, Note_on_c, 9, 36, 96
6, 16175, Note_off_c, 9, 36, 0
6, 16176, Note_on_c, 9, 36, 96
6, 16223, Note_off_c, 9, 36, 0
6, 16224, Note_on_c, 9, 38, 96
6, 16271, Note_off_c, 9, 38, 0
6, 16272, Note_on_c, 9, 36, 96
6, 16319, Note_off_c, 9, 36, 0
6, 16320, Note_on_c, 9, 36, 96
6, 16367, Note_off_c, 9, 36, 0
6, 16368, Note_on_c, 9, 36, 96
6, 16415, Note_off_c, 9, 36, 0
6, 16416, Note_on_c, 9, 38, 96
6, 16463, Note_off_c, 9, 38, 0
6, 16464, Note_on_c, 9, 36, 96
6, 16511, Note_off_c, 9, 36, 0
6, 16512, Note_on_c, 9, 36, 96
6, 16559, Note_off_c, 9, 36, 0
6, 16560, Note_on_c, 9, 36, 96
6, 16607, Note_off_c, 9, 36, 0
6, 16608, Note_on_c, 9, 38, 96
6, 16655, Note_off_c, 9, 38, 0
6, 16656, Note_on_c, 9, 36, 96
6, 16703, Note_off_c, 9, 36, 0
6, 16704, Note_on_c, 9, 36, 96
6, 16751, Note_off_c, 9, 36, 0
6, 16752, Note_on_c, 9, 36, 96
6, 16799, Note_off_c, 9, 36, 0
6, 16800, Note_on_c, 9, 38, 96
6, 16847, Note_off_c, 9, 38, 0
6, 16848, Note_on_c, 9, 36, 96
6, 16895, Note_off_c, 9, 36, 0
6, 16896, Note_on_c, 9, 36, 96
6, 16943, Note_off_c, 9, 36, 0
6, 16944, Note_on_c, 9, 36, 96
6, 16991, Note_off_c, 9, 36, 0
6, 16992, Note_on_c, 9, 38, 96
6, 17039, Note_off_c, 9, 38, 0
6, 17040, Note_on_c, 9, 36, 96
6, 17087, Note_off_c, 9, 36, 0
6, 17088, Note_on_c, 9, 36, 96
6, 17135, Note_off_c, 9, 36, 0
6, 17136, Note_on_c, 9, 36, 96
6, 17183, Note_off_c, 9, 36, 0
6, 17184, Note_on_c, 9, 38, 96
6, 17231, Note_off_c, 9, 38, 0
6, 17232, Note_on_c, 9, 36, 96
6, 17279, Note_off_c, 9, 36, 0
6, 17280, Note_on_c, 9, 36, 96
6, 17327, Note_off_c, 9, 36, 0
6, 17328, Note_on_c, 9, 36, 96
6, 17375, Note_off_c, 9, 36, 0
6, 17376, Note_on_c, 9, 38, 96
6, 17423, Note_off_c, 9, 38, 0
6, 17424, Note_on_c, 9, 36, 96
6, 17471, Note_off_c, 9, 36, 0
6, 17472, Note_on_c, 9, 36, 96
6, 17519, Note_off_c, 9, 36, 0
6, 17520, Note_on_c, 9, 36, 96
6, 17567, Note_off_c, 9, 36, 0
6, 17568, Note_on_c, 9, 38, 96
6, 17615, Note_off_c, 9, 38, 0
6, 17616, Note_on_c, 9, 36, 96
6, 17663, Note_off_c, 9, 36, 0
6, 17664, Note_on_c, 9, 36, 96
6, 17711, Note_off_c, 9, 36, 0
6, 17712, Note_on_c, 9, 36, 96
6, 17759, Note_off_c, 9, 36, 0
6, 17760, Note_on_c, 9, 38, 96
6, 17807, Note_off_c, 9, 38, 0
6, 17808, Note_on_c, 9, 36, 96
6, 17855, Note_off_c, 9, 36, 0
6, 17856, Note_on_c, 9, 36, 96
6, 17903, Note_off_c, 9, 36, 0
6, 17904, Note_on_c, 9, 36, 96
6, 17951, Note_off_c, 9, 36, 0
6, 17952, Note_on_c, 9, 38, 96
6, 17999, Note_off_c, 9, 38, 0
6, 18000, Note_on_c, 9, 36, 96
6, 18047, Note_off_c, 9, 36, 0
6, 18048, Note_on_c, 9, 36, 96
6, 18095, Note_off_c, 9, 36, 0
6, 18096, Note_on_c, 9, 36, 96
6, 18143, Note_off_c, 9, 36, 0
6, 18144, Note_on_c, 9, 38, 96
6, 18191, Note_off_c, 9, 38, 0
6, 18192, Note_on_c, 9, 36, 96
6, 18239, Note_off_c, 9, 36, 0
6, 18240, Note_on_c, 9, 36, 96
6, 18287, Note_off_c, 9, 36, 0
6, 18288, Note_on_c, 9, 36, 96
6, 18335, Note_off_c, 9, 36, 0
6, 18336, Note_on_c, 9, 38, 96
6, 18383, Note_off_c, 9, 38, 0
6, 18384, Note_on_c, 9, 36, 96
6, 18431, Note_off_c, 9, 36, 0
6, 18432, Note_on_c, 9, 36, 96
6, 18479, Note_off_c, 9, 36, 0
6, 18480, Note_on_c, 9, 36, 96
6, 18527, Note_off_c, 9, 36, 0
6, 18528, Note_on_c, 9, 38, 96
6, 18575, Note_off_c, 9, 38, 0
6, 18576, Note_on_c, 9, 36, 96
6, 18623, Note_off_c, 9, 36, 0
6, 18624, Note_on_c, 9, 36, 96
6, 18671, Note_off_c, 9, 36, 0
6, 18672, Note_on_c, 9, 36, 96
6, 18719, Note_off_c, 9, 36, 0
6, 18720, Note_on_c, 9, 36, 96
6, 18767, Note_off_c, 9, 36, 0
6, 18768, Note_on_c, 9, 36, 96
6, 18815, Note_off_c, 9, 36, 0
6, 18816, Note_on_c, 9, 36, 96
6, 18839, Note_off_c, 9, 36, 0
6, 18840, Note_on_c, 9, 36, 96
6, 18863, Note_off_c, 9, 36, 0
6, 18864, Note_on_c, 9, 36, 96
6, 18887, Note_off_c, 9, 36, 0
6, 18888, Note_on_c, 9, 36, 96
6, 18911, Note_off_c, 9, 36, 0
6, 18912, Note_on_c, 9, 51, 96
6, 18923, Note_off_c, 9, 51, 0
6, 18924, Note_on_c, 9, 51, 96
6, 18935, Note_off_c, 9, 51, 0
6, 18936, Note_on_c, 9, 51, 96
6, 18947, Note_off_c, 9, 51, 0
6, 18948, Note_on_c, 9, 51, 96
6, 18959, Note_off_c, 9, 51, 0
6, 18960, Note_on_c, 9, 51, 96
6, 18971, Note_off_c, 9, 51, 0
6, 18972, Note_on_c, 9, 51, 96
6, 18983, Note_off_c, 9, 51, 0
6, 18984, Note_on_c, 9, 51, 96
6, 18995, Note_off_c, 9, 51, 0
6, 18996, Note_on_c, 9, 51, 96
6, 19007, Note_off_c, 9, 51, 0
6, 19008, Note_on_c, 9, 36, 96
6, 19055, Note_off_c, 9, 36, 0
6, 19056, Note_on_c, 9, 36, 96
6, 19103, Note_off_c, 9, 36, 0
6, 19104, Note_on_c, 9, 38, 96
6, 19151, Note_off_c, 9, 38, 0
6, 19152, Note_on_c, 9, 36, 96
6, 19199, Note_off_c, 9, 36, 0
6, 19200, Note_on_c, 9, 36, 96
6, 19247, Note_off_c, 9, 36, 0
6, 19248, Note_on_c, 9, 36, 96
6, 19295, Note_off_c, 9, 36, 0
6, 19296, Note_on_c, 9, 38, 96
6, 19343, Note_off_c, 9, 38, 0
6, 19344, Note_on_c, 9, 36, 96
6, 19391, Note_off_c, 9, 36, 0
6, 19392, Note_on_c, 9, 36, 96
6, 19439, Note_off_c, 9, 36, 0
6, 19440, Note_on_c, 9, 36, 96
6, 19487, Note_off_c, 9, 36, 0
6, 19488, Note_on_c, 9, 38, 96
6, 19535, Note_off_c, 9, 38, 0
6, 19536, Note_on_c, 9, 36, 96
6, 19583, Note_off_c, 9, 36, 0
6, 19584, Note_on_c, 9, 36, 96
6, 19631, Note_off_c, 9, 36, 0
6, 19632, Note_on_c, 9, 36, 96
6, 19679, Note_off_c, 9, 36, 0
6, 19680, Note_on_c, 9, 38, 96
6, 19727, Note_off_c, 9, 38, 0
6, 19728, Note_on_c, 9, 36, 96
6, 19775, Note_off_c, 9, 36, 0
6, 19776, Note_on_c, 9, 36, 96
6, 19823, Note_off_c, 9, 36, 0
6, 19824, Note_on_c, 9, 36, 96
6, 19871, Note_off_c, 9, 36, 0
6, 19872, Note_on_c, 9, 38, 96
6, 19919, Note_off_c, 9, 38, 0
6, 19920, Note_on_c, 9, 36, 96
6, 19967, Note_off_c, 9, 36, 0
6, 19968, Note_on_c, 9, 36, 96
6, 20015, Note_off_c, 9, 36, 0
6, 20016, Note_on_c, 9, 36, 96
6, 20063, Note_off_c, 9, 36, 0
6, 20064, Note_on_c, 9, 38, 96
6, 20111, Note_off_c, 9, 38, 0
6, 20112, Note_on_c, 9, 36, 96
6, 20159, Note_off_c, 9, 36, 0
6, 20160, Note_on_c, 9, 36, 96
6, 20207, Note_off_c, 9, 36, 0
6, 20208, Note_on_c, 9, 36, 96
6, 20255, Note_off_c, 9, 36, 0
6, 20256, Note_on_c, 9, 38, 96
6, 20303, Note_off_c, 9, 38, 0
6, 20304, Note_on_c, 9, 36, 96
6, 20351, Note_off_c, 9, 36, 0
6, 20352, Note_on_c, 9, 36, 96
6, 20399, Note_off_c, 9, 36, 0
6, 20400, Note_on_c, 9, 36, 96
6, 20447, Note_off_c, 9, 36, 0
6, 20448, Note_on_c, 9, 38, 96
6, 20495, Note_off_c, 9, 38, 0
6, 20496, Note_on_c, 9, 36, 96
6, 20543, Note_off_c, 9, 36, 0
6, 20544, Note_on_c, 9, 36, 96
6, 20591, Note_off_c, 9, 36, 0
6, 20592, Note_on_c, 9, 36, 96
6, 20639, Note_off_c, 9, 36, 0
6, 20640, Note_on_c, 9, 38, 96
6, 20687, Note_off_c, 9, 38, 0
6, 20688, Note_on_c, 9, 36, 96
6, 20735, Note_off_c, 9, 36, 0
6, 20736, Note_on_c, 9, 36, 96
6, 20783, Note_off_c, 9, 36, 0
6, 20784, Note_on_c, 9, 36, 96
6, 20831, Note_off_c, 9, 36, 0
6, 20832, Note_on_c, 9, 38, 96
6, 20879, Note_off_c, 9, 38, 0
6, 20880, Note_on_c, 9, 36, 96
6, 20927, Note_off_c, 9, 36, 0
6, 20928, Note_on_c, 9, 36, 96
6, 20975, Note_off_c, 9, 36, 0
6, 20976, Note_on_c, 9, 36, 96
6, 21023, Note_off_c, 9, 36, 0
6, 21024, Note_on_c, 9, 38, 96
6, 21071, Note_off_c, 9, 38, 0
6, 21072, Note_on_c, 9, 36, 96
6, 21119, Note_off_c, 9, 36, 0
6, 21120, Note_on_c, 9, 36, 96
6, 21167, Note_off_c, 9, 36, 0
6, 21168, Note_on_c, 9, 36, 96
6, 21215, Note_off_c, 9, 36, 0
6, 21216, Note_on_c, 9, 38, 96
6, 21263, Note_off_c, 9, 38, 0
6, 21264, Note_on_c, 9, 36, 96
6, 21311, Note_off_c, 9, 36, 0
6, 21312, Note_on_c, 9, 36, 96
6, 21359, Note_off_c, 9, 36, 0
6, 21360, Note_on_c, 9, 36, 96
6, 21407, Note_off_c, 9, 36, 0
6, 21408, Note_on_c, 9, 38, 96
6, 21455, Note_off_c, 9, 38, 0
6, 21456, Note_on_c, 9, 36, 96
6, 21503, Note_off_c, 9, 36, 0
6, 21504, Note_on_c, 9, 36, 96
6, 21551, Note_off_c, 9, 36, 0
6, 21552, Note_on_c, 9, 36, 96
6, 21599, Note_off_c, 9, 36, 0
6, 21600, Note_on_c, 9, 38, 96
6, 21647, Note_off_c, 9, 38, 0
6, 21648, Note_on_c, 9, 36, 96
6, 21695, Note_off_c, 9, 36, 0
6, 21696, Note_on_c, 9, 36, 96
6, 21743, Note_off_c, 9, 36, 0
6, 21744, Note_on_c, 9, 36, 96
6, 21791, Note_off_c, 9, 36, 0
6, 21792, Note_on_c, 9, 36, 96
6, 21839, Note_off_c, 9, 36, 0
6, 21840, Note_on_c, 9, 36, 96
6, 21887, Note_off_c, 9, 36, 0
6, 21888, Note_on_c, 9, 36, 96
6, 21911, Note_off_c, 9, 36, 0
6, 21912, Note_on_c, 9, 36, 96
6, 21935, Note_off_c, 9, 36, 0
6, 21936, Note_on_c, 9, 36, 96
6, 21959, Note_off_c, 9, 36, 0
6, 21960, Note_on_c, 9, 36, 96
6, 21983, Note_off_c, 9, 36, 0
6, 21984, Note_on_c, 9, 51, 96
6, 21995, Note_off_c, 9, 51, 0
6, 21996, Note_on_c, 9, 51, 96
6, 22007, Note_off_c, 9, 51, 0
6, 22008, Note_on_c, 9, 51, 96
6, 22019, Note_off_c, 9, 51, 0
6, 22020, Note_on_c, 9, 51, 96
6, 22031, Note_off_c, 9, 51, 0
6, 22032, Note_on_c, 9, 51, 96
6, 22043, Note_off_c, 9, 51, 0
6, 22044, Note_on_c, 9, 51, 96
6, 22055, Note_off_c, 9, 51, 0
6, 22056, Note_on_c, 9, 51, 96
6, 22067, Note_off_c, 9, 51, 0
6, 22068, Note_on_c, 9, 51, 96
6, 22079, Note_off_c, 9, 51, 0
6, 22080, Note_on_c, 9, 38, 96
6, 22175, Note_off_c, 9, 38, 0
6, 22176, Note_on_c, 9, 36, 96
6, 22223, Note_off_c, 9, 36, 0
6, 22224, Note_on_c, 9, 38, 96
6, 22319, Note_off_c, 9, 38, 0
6, 22320, Note_on_c, 9, 38, 96
6, 22415, Note_off_c, 9, 38, 0
6, 22416, Note_on_c, 9, 49, 96
6, 22511, Note_off_c, 9, 49, 0
6, 23040, Control_c, 9, 101, 0
6, 23040, Control_c, 9, 100, 0
6, 23040, Control_c, 9, 6, 12
6, 23040, Control_c, 9, 10, 64
6, 23040, Control_c, 9, 7, 63
6, 23040, Pitch_bend_c, 9, 8192
6, 23040, Program_c, 9, 0
6, 23040, Control_c, 9, 91, 30
6, 23040, Control_c, 9, 93, 30
6, 23041, Control_c, 9, 101, 0
6, 23041, Control_c, 9, 100, 0
6, 23041, Control_c, 9, 6, 12
6, 23041, Control_c, 9, 10, 64
6, 23041, Control_c, 9, 7, 63
6, 23041, Pitch_bend_c, 9, 8192
6, 23041, Program_c, 9, 0
6, 23041, Control_c, 9, 91, 30
6, 23041, Control_c, 9, 93, 30
6, 23041, Control_c, 9, 101, 0
6, 23041, Control_c, 9, 100, 0
6, 23041, Control_c, 9, 6, 12
6, 23041, Control_c, 9, 10, 64
6, 23041, Control_c, 9, 7, 63
6, 23041, Pitch_bend_c, 9, 8192
6, 23041, Program_c, 9, 0
6, 23041, Control_c, 9, 91, 30
6, 23041, Control_c, 9, 93, 30
6, 23041, End_track
0, 0, End_of_file
