0,0, Header,1,3,1024,,,,,,,,,,,,,,,,,,,,,,,,,
1,0, Start_track,,,,,,,,,,,,,,,,,,,,,,,,,,,,
1,0, SMPTE_offset,0,0,0,0,0,,,,,,,,,,,,,,,,,,,,,,,
1,0, Time_signature,4,2,44,8,,,,,,,,,,,,,,,,,,,,,,,,
1,0, Key_signature,3,major,,,,,,,,,,,,,,,,,,,,,,,,,,
1,0, Tempo,857139,,,,,,,,,,,,,,,,,,,,,,,,,,,
1,0, Tempo,857139,,,,,,,,,,,,,,,,,,,,,,,,,,,
1,0, Tempo,857632,,,,,,,,,,,,,,,,,,,,,,,,,,,
1,180224, Tempo,857632,,,,,,,,,,,,,,,,,,,,,,,,,,,
1,180662, Tempo,895896,,,,,,,,,,,,,,,,,,,,,,,,,,,
1,181100, Tempo,930917,,,,,,,,,,,,,,,,,,,,,,,,,,,
1,181538, Tempo,967865,,,,,,,,,,,,,,,,,,,,,,,,,,,
1,181976, Tempo,1008868,,,,,,,,,,,,,,,,,,,,,,,,,,,
1,182414, Tempo,1053514,,,,,,,,,,,,,,,,,,,,,,,,,,,
1,182852, Tempo,1101084,,,,,,,,,,,,,,,,,,,,,,,,,,,
1,183290, Tempo,2403785,,,,,,,,,,,,,,,,,,,,,,,,,,,
1,184320, Tempo,857632,,,,,,,,,,,,,,,,,,,,,,,,,,,
1,184612, Tempo,895896,,,,,,,,,,,,,,,,,,,,,,,,,,,
1,184904, Tempo,930917,,,,,,,,,,,,,,,,,,,,,,,,,,,
1,185196, Tempo,967865,,,,,,,,,,,,,,,,,,,,,,,,,,,
1,185488, Tempo,1008868,,,,,,,,,,,,,,,,,,,,,,,,,,,
1,185780, Tempo,1053514,,,,,,,,,,,,,,,,,,,,,,,,,,,
1,186072, Tempo,1101084,,,,,,,,,,,,,,,,,,,,,,,,,,,
1,186364, Tempo,2403785,,,,,,,,,,,,,,,,,,,,,,,,,,,
1,187392, Tempo,2403785,,,,,,,,,,,,,,,,,,,,,,,,,,,
1,192511, End_track,,,,,,,,,,,,,,,,,,,,,,,,,,,,
2,0, Start_track,,,,,,,,,,,,,,,,,,,,,,,,,,,,
2,0, Unknown_meta_event,9,26,68,101,102,97,117,108,116,32,77,73,68,73,32,79,117,116,112,117,116,32,68,101,118,105,99,101
2,0, Title_t,ARIA Player,,,,,,,,,,,,,,,,,,,,,,,,,,,
2,0, Program_c,0,0,,,,,,,,,,,,,,,,,,,,,,,,,,
2,0, Control_c,0,7,101,,,,,,,,,,,,,,,,,,,,,,,,,
2,0, Control_c,0,10,120,,,,,,,,,,,,,,,,,,,,,,,,,
2,0, Control_c,0,7,102,,,,,,,,,,,,,,,,,,,,,,,,,
2,0, Control_c,0,7,110,,,,,,,,,,,,,,,,,,,,,,,,,
2,10, Note_on_c,0,81,41,,,,,,,,,,,,,,,,,,,,,,,,,
2,515, Note_off_c,0,81,0,,,,,,,,,,,,,,,,,,,,,,,,,
2,546, Note_on_c,0,80,36,,,,,,,,,,,,,,,,,,,,,,,,,
2,1023, Note_off_c,0,80,0,,,,,,,,,,,,,,,,,,,,,,,,,
2,1054, Note_on_c,0,81,37,,,,,,,,,,,,,,,,,,,,,,,,,
2,1528, Note_off_c,0,81,0,,,,,,,,,,,,,,,,,,,,,,,,,
2,1559, Note_on_c,0,80,36,,,,,,,,,,,,,,,,,,,,,,,,,
2,2038, Note_off_c,0,80,0,,,,,,,,,,,,,,,,,,,,,,,,,
2,2069, Note_on_c,0,81,39,,,,,,,,,,,,,,,,,,,,,,,,,
2,2548, Note_off_c,0,81,0,,,,,,,,,,,,,,,,,,,,,,,,,
2,2579, Note_on_c,0,76,36,,,,,,,,,,,,,,,,,,,,,,,,,
2,3053, Note_off_c,0,76,0,,,,,,,,,,,,,,,,,,,,,,,,,
2,3084, Note_on_c,0,81,37,,,,,,,,,,,,,,,,,,,,,,,,,
2,3558, Note_off_c,0,81,0,,,,,,,,,,,,,,,,,,,,,,,,,
2,3589, Note_on_c,0,74,36,,,,,,,,,,,,,,,,,,,,,,,,,
2,7684, Note_off_c,0,74,0,,,,,,,,,,,,,,,,,,,,,,,,,
2,7685, Note_on_c,0,69,36,,,,,,,,,,,,,,,,,,,,,,,,,
2,7917, Note_off_c,0,69,0,,,,,,,,,,,,,,,,,,,,,,,,,
2,7933, Note_on_c,0,73,36,,,,,,,,,,,,,,,,,,,,,,,,,
2,8176, Note_off_c,0,73,0,,,,,,,,,,,,,,,,,,,,,,,,,
2,8196, Note_on_c,0,81,41,,,,,,,,,,,,,,,,,,,,,,,,,
2,8707, Note_off_c,0,81,0,,,,,,,,,,,,,,,,,,,,,,,,,
2,8738, Note_on_c,0,80,36,,,,,,,,,,,,,,,,,,,,,,,,,
2,9215, Note_off_c,0,80,0,,,,,,,,,,,,,,,,,,,,,,,,,
2,9246, Note_on_c,0,81,37,,,,,,,,,,,,,,,,,,,,,,,,,
2,9720, Note_off_c,0,81,0,,,,,,,,,,,,,,,,,,,,,,,,,
2,9751, Note_on_c,0,80,36,,,,,,,,,,,,,,,,,,,,,,,,,
2,10230, Note_off_c,0,80,0,,,,,,,,,,,,,,,,,,,,,,,,,
2,10261, Note_on_c,0,81,39,,,,,,,,,,,,,,,,,,,,,,,,,
2,10740, Note_off_c,0,81,0,,,,,,,,,,,,,,,,,,,,,,,,,
2,10771, Note_on_c,0,76,36,,,,,,,,,,,,,,,,,,,,,,,,,
2,11245, Note_off_c,0,76,0,,,,,,,,,,,,,,,,,,,,,,,,,
2,11276, Note_on_c,0,81,37,,,,,,,,,,,,,,,,,,,,,,,,,
2,11750, Note_off_c,0,81,0,,,,,,,,,,,,,,,,,,,,,,,,,
2,11781, Note_on_c,0,74,36,,,,,,,,,,,,,,,,,,,,,,,,,
2,15876, Note_off_c,0,74,0,,,,,,,,,,,,,,,,,,,,,,,,,
2,15877, Note_on_c,0,69,36,,,,,,,,,,,,,,,,,,,,,,,,,
2,16125, Note_on_c,0,73,36,,,,,,,,,,,,,,,,,,,,,,,,,
2,16128, Note_off_c,0,69,0,,,,,,,,,,,,,,,,,,,,,,,,,
2,16368, Note_off_c,0,73,0,,,,,,,,,,,,,,,,,,,,,,,,,
2,16388, Note_on_c,0,81,41,,,,,,,,,,,,,,,,,,,,,,,,,
2,16899, Note_off_c,0,81,0,,,,,,,,,,,,,,,,,,,,,,,,,
2,16930, Note_on_c,0,80,36,,,,,,,,,,,,,,,,,,,,,,,,,
2,17163, Note_off_c,0,80,0,,,,,,,,,,,,,,,,,,,,,,,,,
2,17179, Note_on_c,0,81,36,,,,,,,,,,,,,,,,,,,,,,,,,
2,17680, Note_off_c,0,81,0,,,,,,,,,,,,,,,,,,,,,,,,,
2,17696, Note_on_c,0,69,36,,,,,,,,,,,,,,,,,,,,,,,,,
2,17927, Note_off_c,0,69,0,,,,,,,,,,,,,,,,,,,,,,,,,
2,17943, Note_on_c,0,80,36,,,,,,,,,,,,,,,,,,,,,,,,,
2,18175, Note_off_c,0,80,0,,,,,,,,,,,,,,,,,,,,,,,,,
2,18191, Note_on_c,0,81,36,,,,,,,,,,,,,,,,,,,,,,,,,
2,18700, Note_off_c,0,81,0,,,,,,,,,,,,,,,,,,,,,,,,,
2,18716, Note_on_c,0,69,36,,,,,,,,,,,,,,,,,,,,,,,,,
2,18947, Note_off_c,0,69,0,,,,,,,,,,,,,,,,,,,,,,,,,
2,18963, Note_on_c,0,76,36,,,,,,,,,,,,,,,,,,,,,,,,,
2,19195, Note_off_c,0,76,0,,,,,,,,,,,,,,,,,,,,,,,,,
2,19211, Note_on_c,0,81,36,,,,,,,,,,,,,,,,,,,,,,,,,
2,19709, Note_off_c,0,81,0,,,,,,,,,,,,,,,,,,,,,,,,,
2,19725, Note_on_c,0,69,36,,,,,,,,,,,,,,,,,,,,,,,,,
2,19957, Note_off_c,0,69,0,,,,,,,,,,,,,,,,,,,,,,,,,
2,19973, Note_on_c,0,74,36,,,,,,,,,,,,,,,,,,,,,,,,,
2,20205, Note_off_c,0,74,0,,,,,,,,,,,,,,,,,,,,,,,,,
2,20221, Note_on_c,0,69,36,,,,,,,,,,,,,,,,,,,,,,,,,
2,20464, Note_off_c,0,69,0,,,,,,,,,,,,,,,,,,,,,,,,,
2,20480, Note_on_c,0,71,41,,,,,,,,,,,,,,,,,,,,,,,,,
2,20572, Note_on_c,0,73,31,,,,,,,,,,,,,,,,,,,,,,,,,
2,20583, Note_off_c,0,71,0,,,,,,,,,,,,,,,,,,,,,,,,,
2,20992, Note_off_c,0,73,0,,,,,,,,,,,,,,,,,,,,,,,,,
2,21026, Note_on_c,0,74,36,,,,,,,,,,,,,,,,,,,,,,,,,
2,21503, Note_off_c,0,74,0,,,,,,,,,,,,,,,,,,,,,,,,,
2,21534, Note_on_c,0,69,29,,,,,,,,,,,,,,,,,,,,,,,,,
2,21534, Note_on_c,0,76,43,,,,,,,,,,,,,,,,,,,,,,,,,
2,22008, Note_off_c,0,69,0,,,,,,,,,,,,,,,,,,,,,,,,,
2,22038, Note_off_c,0,76,0,,,,,,,,,,,,,,,,,,,,,,,,,
2,22039, Note_on_c,0,73,36,,,,,,,,,,,,,,,,,,,,,,,,,
2,22518, Note_off_c,0,73,0,,,,,,,,,,,,,,,,,,,,,,,,,
2,22549, Note_on_c,0,68,31,,,,,,,,,,,,,,,,,,,,,,,,,
2,22549, Note_on_c,0,71,45,,,,,,,,,,,,,,,,,,,,,,,,,
2,24068, Note_off_c,0,68,0,,,,,,,,,,,,,,,,,,,,,,,,,
2,24068, Note_off_c,0,71,0,,,,,,,,,,,,,,,,,,,,,,,,,
2,24069, Note_on_c,0,69,36,,,,,,,,,,,,,,,,,,,,,,,,,
2,24301, Note_off_c,0,69,0,,,,,,,,,,,,,,,,,,,,,,,,,
2,24317, Note_on_c,0,68,36,,,,,,,,,,,,,,,,,,,,,,,,,
2,24560, Note_off_c,0,68,0,,,,,,,,,,,,,,,,,,,,,,,,,
2,24580, Note_on_c,0,69,41,,,,,,,,,,,,,,,,,,,,,,,,,
2,25872, Note_off_c,0,69,0,,,,,,,,,,,,,,,,,,,,,,,,,
2,25888, Note_on_c,0,64,36,,,,,,,,,,,,,,,,,,,,,,,,,
2,26119, Note_off_c,0,64,0,,,,,,,,,,,,,,,,,,,,,,,,,
2,26135, Note_on_c,0,69,36,,,,,,,,,,,,,,,,,,,,,,,,,
2,26367, Note_off_c,0,69,0,,,,,,,,,,,,,,,,,,,,,,,,,
2,26383, Note_on_c,0,71,36,,,,,,,,,,,,,,,,,,,,,,,,,
2,26629, Note_off_c,0,71,0,,,,,,,,,,,,,,,,,,,,,,,,,
2,26645, Note_on_c,0,73,39,,,,,,,,,,,,,,,,,,,,,,,,,
2,28164, Note_off_c,0,73,0,,,,,,,,,,,,,,,,,,,,,,,,,
2,28165, Note_on_c,0,73,36,,,,,,,,,,,,,,,,,,,,,,,,,
2,28397, Note_off_c,0,73,0,,,,,,,,,,,,,,,,,,,,,,,,,
2,28413, Note_on_c,0,74,36,,,,,,,,,,,,,,,,,,,,,,,,,
2,28656, Note_off_c,0,74,0,,,,,,,,,,,,,,,,,,,,,,,,,
2,28676, Note_on_c,0,76,41,,,,,,,,,,,,,,,,,,,,,,,,,
2,30230, Note_off_c,0,76,0,,,,,,,,,,,,,,,,,,,,,,,,,
2,30231, Note_on_c,0,74,36,,,,,,,,,,,,,,,,,,,,,,,,,
2,30463, Note_off_c,0,74,0,,,,,,,,,,,,,,,,,,,,,,,,,
2,30479, Note_on_c,0,73,36,,,,,,,,,,,,,,,,,,,,,,,,,
2,30725, Note_off_c,0,73,0,,,,,,,,,,,,,,,,,,,,,,,,,
2,30741, Note_on_c,0,71,39,,,,,,,,,,,,,,,,,,,,,,,,,
2,32512, Note_on_c,0,69,36,,,,,,,,,,,,,,,,,,,,,,,,,
2,32640, Note_off_c,0,69,0,,,,,,,,,,,,,,,,,,,,,,,,,
2,32640, Note_on_c,0,73,36,,,,,,,,,,,,,,,,,,,,,,,,,
2,32767, Note_off_c,0,71,0,,,,,,,,,,,,,,,,,,,,,,,,,
2,32768, Note_off_c,0,73,0,,,,,,,,,,,,,,,,,,,,,,,,,
2,32772, Note_on_c,0,81,41,,,,,,,,,,,,,,,,,,,,,,,,,
2,33283, Note_off_c,0,81,0,,,,,,,,,,,,,,,,,,,,,,,,,
2,33314, Note_on_c,0,80,36,,,,,,,,,,,,,,,,,,,,,,,,,
2,33547, Note_off_c,0,80,0,,,,,,,,,,,,,,,,,,,,,,,,,
2,33563, Note_on_c,0,81,36,,,,,,,,,,,,,,,,,,,,,,,,,
2,34064, Note_off_c,0,81,0,,,,,,,,,,,,,,,,,,,,,,,,,
2,34080, Note_on_c,0,69,36,,,,,,,,,,,,,,,,,,,,,,,,,
2,34311, Note_off_c,0,69,0,,,,,,,,,,,,,,,,,,,,,,,,,
2,34327, Note_on_c,0,80,36,,,,,,,,,,,,,,,,,,,,,,,,,
2,34559, Note_off_c,0,80,0,,,,,,,,,,,,,,,,,,,,,,,,,
2,34575, Note_on_c,0,81,36,,,,,,,,,,,,,,,,,,,,,,,,,
2,35084, Note_off_c,0,81,0,,,,,,,,,,,,,,,,,,,,,,,,,
2,35100, Note_on_c,0,69,36,,,,,,,,,,,,,,,,,,,,,,,,,
2,35331, Note_off_c,0,69,0,,,,,,,,,,,,,,,,,,,,,,,,,
2,35347, Note_on_c,0,76,36,,,,,,,,,,,,,,,,,,,,,,,,,
2,35579, Note_off_c,0,76,0,,,,,,,,,,,,,,,,,,,,,,,,,
2,35595, Note_on_c,0,81,36,,,,,,,,,,,,,,,,,,,,,,,,,
2,36093, Note_off_c,0,81,0,,,,,,,,,,,,,,,,,,,,,,,,,
2,36109, Note_on_c,0,69,36,,,,,,,,,,,,,,,,,,,,,,,,,
2,36341, Note_off_c,0,69,0,,,,,,,,,,,,,,,,,,,,,,,,,
2,36357, Note_on_c,0,74,36,,,,,,,,,,,,,,,,,,,,,,,,,
2,36589, Note_off_c,0,74,0,,,,,,,,,,,,,,,,,,,,,,,,,
2,36605, Note_on_c,0,69,36,,,,,,,,,,,,,,,,,,,,,,,,,
2,36848, Note_off_c,0,69,0,,,,,,,,,,,,,,,,,,,,,,,,,
2,36864, Note_on_c,0,71,41,,,,,,,,,,,,,,,,,,,,,,,,,
2,36959, Note_on_c,0,73,31,,,,,,,,,,,,,,,,,,,,,,,,,
2,36970, Note_off_c,0,71,0,,,,,,,,,,,,,,,,,,,,,,,,,
2,37376, Note_off_c,0,73,0,,,,,,,,,,,,,,,,,,,,,,,,,
2,37410, Note_on_c,0,74,36,,,,,,,,,,,,,,,,,,,,,,,,,
2,37887, Note_off_c,0,74,0,,,,,,,,,,,,,,,,,,,,,,,,,
2,37918, Note_on_c,0,76,37,,,,,,,,,,,,,,,,,,,,,,,,,
2,38392, Note_off_c,0,76,0,,,,,,,,,,,,,,,,,,,,,,,,,
2,38423, Note_on_c,0,85,36,,,,,,,,,,,,,,,,,,,,,,,,,
2,38902, Note_off_c,0,85,0,,,,,,,,,,,,,,,,,,,,,,,,,
2,38933, Note_on_c,0,83,39,,,,,,,,,,,,,,,,,,,,,,,,,
2,39412, Note_off_c,0,83,0,,,,,,,,,,,,,,,,,,,,,,,,,
2,39443, Note_on_c,0,76,36,,,,,,,,,,,,,,,,,,,,,,,,,
2,39917, Note_off_c,0,76,0,,,,,,,,,,,,,,,,,,,,,,,,,
2,39948, Note_on_c,0,83,29,,,,,,,,,,,,,,,,,,,,,,,,,
2,39948, Note_on_c,0,88,43,,,,,,,,,,,,,,,,,,,,,,,,,
2,40111, Note_off_c,0,83,0,,,,,,,,,,,,,,,,,,,,,,,,,
2,40121, Note_off_c,0,88,0,,,,,,,,,,,,,,,,,,,,,,,,,
2,40122, Note_on_c,0,85,36,,,,,,,,,,,,,,,,,,,,,,,,,
2,40277, Note_off_c,0,85,0,,,,,,,,,,,,,,,,,,,,,,,,,
2,40288, Note_on_c,0,83,36,,,,,,,,,,,,,,,,,,,,,,,,,
2,40442, Note_off_c,0,83,0,,,,,,,,,,,,,,,,,,,,,,,,,
2,40453, Note_on_c,0,81,36,,,,,,,,,,,,,,,,,,,,,,,,,
2,40685, Note_off_c,0,81,0,,,,,,,,,,,,,,,,,,,,,,,,,
2,40701, Note_on_c,0,80,36,,,,,,,,,,,,,,,,,,,,,,,,,
2,40944, Note_off_c,0,80,0,,,,,,,,,,,,,,,,,,,,,,,,,
2,40964, Note_on_c,0,81,41,,,,,,,,,,,,,,,,,,,,,,,,,
2,42518, Note_off_c,0,81,0,,,,,,,,,,,,,,,,,,,,,,,,,
2,42519, Note_on_c,0,69,36,,,,,,,,,,,,,,,,,,,,,,,,,
2,42751, Note_off_c,0,69,0,,,,,,,,,,,,,,,,,,,,,,,,,
2,42767, Note_on_c,0,71,36,,,,,,,,,,,,,,,,,,,,,,,,,
2,43013, Note_off_c,0,71,0,,,,,,,,,,,,,,,,,,,,,,,,,
2,43029, Note_on_c,0,73,39,,,,,,,,,,,,,,,,,,,,,,,,,
2,44548, Note_off_c,0,73,0,,,,,,,,,,,,,,,,,,,,,,,,,
2,44549, Note_on_c,0,73,36,,,,,,,,,,,,,,,,,,,,,,,,,
2,44781, Note_off_c,0,73,0,,,,,,,,,,,,,,,,,,,,,,,,,
2,44797, Note_on_c,0,74,36,,,,,,,,,,,,,,,,,,,,,,,,,
2,45040, Note_off_c,0,74,0,,,,,,,,,,,,,,,,,,,,,,,,,
2,45060, Note_on_c,0,76,41,,,,,,,,,,,,,,,,,,,,,,,,,
2,46109, Note_off_c,0,76,0,,,,,,,,,,,,,,,,,,,,,,,,,
2,46110, Note_on_c,0,73,37,,,,,,,,,,,,,,,,,,,,,,,,,
2,46584, Note_off_c,0,73,0,,,,,,,,,,,,,,,,,,,,,,,,,
2,46615, Note_on_c,0,74,36,,,,,,,,,,,,,,,,,,,,,,,,,
2,46847, Note_off_c,0,74,0,,,,,,,,,,,,,,,,,,,,,,,,,
2,46863, Note_on_c,0,73,36,,,,,,,,,,,,,,,,,,,,,,,,,
2,47109, Note_off_c,0,73,0,,,,,,,,,,,,,,,,,,,,,,,,,
2,47125, Note_on_c,0,71,39,,,,,,,,,,,,,,,,,,,,,,,,,
2,48139, Note_off_c,0,71,0,,,,,,,,,,,,,,,,,,,,,,,,,
2,48140, Note_on_c,0,81,37,,,,,,,,,,,,,,,,,,,,,,,,,
2,48381, Note_off_c,0,81,0,,,,,,,,,,,,,,,,,,,,,,,,,
2,48397, Note_on_c,0,83,36,,,,,,,,,,,,,,,,,,,,,,,,,
2,48629, Note_off_c,0,83,0,,,,,,,,,,,,,,,,,,,,,,,,,
2,48645, Note_on_c,0,81,36,,,,,,,,,,,,,,,,,,,,,,,,,
2,48877, Note_off_c,0,81,0,,,,,,,,,,,,,,,,,,,,,,,,,
2,48893, Note_on_c,0,80,36,,,,,,,,,,,,,,,,,,,,,,,,,
2,49136, Note_off_c,0,80,0,,,,,,,,,,,,,,,,,,,,,,,,,
2,49156, Note_on_c,0,81,41,,,,,,,,,,,,,,,,,,,,,,,,,
2,49433, Note_off_c,0,81,0,,,,,,,,,,,,,,,,,,,,,,,,,
2,49449, Note_on_c,0,69,36,,,,,,,,,,,,,,,,,,,,,,,,,
2,49682, Note_off_c,0,69,0,,,,,,,,,,,,,,,,,,,,,,,,,
2,49698, Note_on_c,0,76,36,,,,,,,,,,,,,,,,,,,,,,,,,
2,49931, Note_off_c,0,76,0,,,,,,,,,,,,,,,,,,,,,,,,,
2,49947, Note_on_c,0,69,36,,,,,,,,,,,,,,,,,,,,,,,,,
2,50190, Note_off_c,0,69,0,,,,,,,,,,,,,,,,,,,,,,,,,
2,50206, Note_on_c,0,81,37,,,,,,,,,,,,,,,,,,,,,,,,,
2,50448, Note_off_c,0,81,0,,,,,,,,,,,,,,,,,,,,,,,,,
2,50464, Note_on_c,0,83,36,,,,,,,,,,,,,,,,,,,,,,,,,
2,50695, Note_off_c,0,83,0,,,,,,,,,,,,,,,,,,,,,,,,,
2,50711, Note_on_c,0,81,36,,,,,,,,,,,,,,,,,,,,,,,,,
2,50943, Note_off_c,0,81,0,,,,,,,,,,,,,,,,,,,,,,,,,
2,50959, Note_on_c,0,80,36,,,,,,,,,,,,,,,,,,,,,,,,,
2,51205, Note_off_c,0,80,0,,,,,,,,,,,,,,,,,,,,,,,,,
2,51221, Note_on_c,0,81,39,,,,,,,,,,,,,,,,,,,,,,,,,
2,51468, Note_off_c,0,81,0,,,,,,,,,,,,,,,,,,,,,,,,,
2,51484, Note_on_c,0,69,36,,,,,,,,,,,,,,,,,,,,,,,,,
2,51715, Note_off_c,0,69,0,,,,,,,,,,,,,,,,,,,,,,,,,
2,51731, Note_on_c,0,76,36,,,,,,,,,,,,,,,,,,,,,,,,,
2,51963, Note_off_c,0,76,0,,,,,,,,,,,,,,,,,,,,,,,,,
2,51979, Note_on_c,0,69,36,,,,,,,,,,,,,,,,,,,,,,,,,
2,52220, Note_off_c,0,69,0,,,,,,,,,,,,,,,,,,,,,,,,,
2,52236, Note_on_c,0,81,37,,,,,,,,,,,,,,,,,,,,,,,,,
2,52477, Note_off_c,0,81,0,,,,,,,,,,,,,,,,,,,,,,,,,
2,52493, Note_on_c,0,83,36,,,,,,,,,,,,,,,,,,,,,,,,,
2,52725, Note_off_c,0,83,0,,,,,,,,,,,,,,,,,,,,,,,,,
2,52741, Note_on_c,0,81,36,,,,,,,,,,,,,,,,,,,,,,,,,
2,52973, Note_off_c,0,81,0,,,,,,,,,,,,,,,,,,,,,,,,,
2,52989, Note_on_c,0,80,36,,,,,,,,,,,,,,,,,,,,,,,,,
2,53232, Note_off_c,0,80,0,,,,,,,,,,,,,,,,,,,,,,,,,
2,53252, Note_on_c,0,81,41,,,,,,,,,,,,,,,,,,,,,,,,,
2,53529, Note_off_c,0,81,0,,,,,,,,,,,,,,,,,,,,,,,,,
2,53545, Note_on_c,0,83,37,,,,,,,,,,,,,,,,,,,,,,,,,
2,53778, Note_off_c,0,83,0,,,,,,,,,,,,,,,,,,,,,,,,,
2,53794, Note_on_c,0,85,42,,,,,,,,,,,,,,,,,,,,,,,,,
2,54027, Note_off_c,0,85,0,,,,,,,,,,,,,,,,,,,,,,,,,
2,54043, Note_on_c,0,86,47,,,,,,,,,,,,,,,,,,,,,,,,,
2,54286, Note_off_c,0,86,0,,,,,,,,,,,,,,,,,,,,,,,,,
2,54302, Note_on_c,0,88,52,,,,,,,,,,,,,,,,,,,,,,,,,
2,54544, Note_off_c,0,88,0,,,,,,,,,,,,,,,,,,,,,,,,,
2,54560, Note_on_c,0,85,50,,,,,,,,,,,,,,,,,,,,,,,,,
2,54791, Note_off_c,0,85,0,,,,,,,,,,,,,,,,,,,,,,,,,
2,54807, Note_on_c,0,83,47,,,,,,,,,,,,,,,,,,,,,,,,,
2,55039, Note_off_c,0,83,0,,,,,,,,,,,,,,,,,,,,,,,,,
2,55055, Note_on_c,0,81,44,,,,,,,,,,,,,,,,,,,,,,,,,
2,55301, Note_off_c,0,81,0,,,,,,,,,,,,,,,,,,,,,,,,,
2,55317, Note_on_c,0,80,41,,,,,,,,,,,,,,,,,,,,,,,,,
2,55796, Note_off_c,0,80,0,,,,,,,,,,,,,,,,,,,,,,,,,
2,55827, Note_on_c,0,71,36,,,,,,,,,,,,,,,,,,,,,,,,,
2,56301, Note_off_c,0,71,0,,,,,,,,,,,,,,,,,,,,,,,,,
2,56332, Note_on_c,0,81,37,,,,,,,,,,,,,,,,,,,,,,,,,
2,56573, Note_off_c,0,81,0,,,,,,,,,,,,,,,,,,,,,,,,,
2,56589, Note_on_c,0,83,36,,,,,,,,,,,,,,,,,,,,,,,,,
2,56821, Note_off_c,0,83,0,,,,,,,,,,,,,,,,,,,,,,,,,
2,56837, Note_on_c,0,81,36,,,,,,,,,,,,,,,,,,,,,,,,,
2,57069, Note_off_c,0,81,0,,,,,,,,,,,,,,,,,,,,,,,,,
2,57085, Note_on_c,0,80,36,,,,,,,,,,,,,,,,,,,,,,,,,
2,57328, Note_off_c,0,80,0,,,,,,,,,,,,,,,,,,,,,,,,,
2,57348, Note_on_c,0,81,41,,,,,,,,,,,,,,,,,,,,,,,,,
2,57625, Note_off_c,0,81,0,,,,,,,,,,,,,,,,,,,,,,,,,
2,57641, Note_on_c,0,69,36,,,,,,,,,,,,,,,,,,,,,,,,,
2,57874, Note_off_c,0,69,0,,,,,,,,,,,,,,,,,,,,,,,,,
2,57890, Note_on_c,0,76,36,,,,,,,,,,,,,,,,,,,,,,,,,
2,58123, Note_off_c,0,76,0,,,,,,,,,,,,,,,,,,,,,,,,,
2,58139, Note_on_c,0,69,36,,,,,,,,,,,,,,,,,,,,,,,,,
2,58382, Note_off_c,0,69,0,,,,,,,,,,,,,,,,,,,,,,,,,
2,58398, Note_on_c,0,81,37,,,,,,,,,,,,,,,,,,,,,,,,,
2,58640, Note_off_c,0,81,0,,,,,,,,,,,,,,,,,,,,,,,,,
2,58656, Note_on_c,0,83,36,,,,,,,,,,,,,,,,,,,,,,,,,
2,58887, Note_off_c,0,83,0,,,,,,,,,,,,,,,,,,,,,,,,,
2,58903, Note_on_c,0,81,36,,,,,,,,,,,,,,,,,,,,,,,,,
2,59135, Note_off_c,0,81,0,,,,,,,,,,,,,,,,,,,,,,,,,
2,59151, Note_on_c,0,80,36,,,,,,,,,,,,,,,,,,,,,,,,,
2,59397, Note_off_c,0,80,0,,,,,,,,,,,,,,,,,,,,,,,,,
2,59413, Note_on_c,0,81,39,,,,,,,,,,,,,,,,,,,,,,,,,
2,59660, Note_off_c,0,81,0,,,,,,,,,,,,,,,,,,,,,,,,,
2,59676, Note_on_c,0,69,36,,,,,,,,,,,,,,,,,,,,,,,,,
2,59907, Note_off_c,0,69,0,,,,,,,,,,,,,,,,,,,,,,,,,
2,59923, Note_on_c,0,76,36,,,,,,,,,,,,,,,,,,,,,,,,,
2,60155, Note_off_c,0,76,0,,,,,,,,,,,,,,,,,,,,,,,,,
2,60171, Note_on_c,0,69,36,,,,,,,,,,,,,,,,,,,,,,,,,
2,60412, Note_off_c,0,69,0,,,,,,,,,,,,,,,,,,,,,,,,,
2,60428, Note_on_c,0,81,37,,,,,,,,,,,,,,,,,,,,,,,,,
2,60669, Note_off_c,0,81,0,,,,,,,,,,,,,,,,,,,,,,,,,
2,60685, Note_on_c,0,83,36,,,,,,,,,,,,,,,,,,,,,,,,,
2,60917, Note_off_c,0,83,0,,,,,,,,,,,,,,,,,,,,,,,,,
2,60933, Note_on_c,0,81,36,,,,,,,,,,,,,,,,,,,,,,,,,
2,61165, Note_off_c,0,81,0,,,,,,,,,,,,,,,,,,,,,,,,,
2,61181, Note_on_c,0,80,36,,,,,,,,,,,,,,,,,,,,,,,,,
2,61424, Note_off_c,0,80,0,,,,,,,,,,,,,,,,,,,,,,,,,
2,61444, Note_on_c,0,81,41,,,,,,,,,,,,,,,,,,,,,,,,,
2,61721, Note_off_c,0,81,0,,,,,,,,,,,,,,,,,,,,,,,,,
2,61737, Note_on_c,0,83,37,,,,,,,,,,,,,,,,,,,,,,,,,
2,61970, Note_off_c,0,83,0,,,,,,,,,,,,,,,,,,,,,,,,,
2,61986, Note_on_c,0,85,42,,,,,,,,,,,,,,,,,,,,,,,,,
2,62219, Note_off_c,0,85,0,,,,,,,,,,,,,,,,,,,,,,,,,
2,62235, Note_on_c,0,86,47,,,,,,,,,,,,,,,,,,,,,,,,,
2,62478, Note_off_c,0,86,0,,,,,,,,,,,,,,,,,,,,,,,,,
2,62494, Note_on_c,0,88,52,,,,,,,,,,,,,,,,,,,,,,,,,
2,62736, Note_off_c,0,88,0,,,,,,,,,,,,,,,,,,,,,,,,,
2,62752, Note_on_c,0,85,50,,,,,,,,,,,,,,,,,,,,,,,,,
2,62983, Note_off_c,0,85,0,,,,,,,,,,,,,,,,,,,,,,,,,
2,62999, Note_on_c,0,83,49,,,,,,,,,,,,,,,,,,,,,,,,,
2,63231, Note_off_c,0,83,0,,,,,,,,,,,,,,,,,,,,,,,,,
2,63247, Note_on_c,0,81,47,,,,,,,,,,,,,,,,,,,,,,,,,
2,63493, Note_off_c,0,81,0,,,,,,,,,,,,,,,,,,,,,,,,,
2,63509, Note_on_c,0,80,46,,,,,,,,,,,,,,,,,,,,,,,,,
2,63988, Note_off_c,0,80,0,,,,,,,,,,,,,,,,,,,,,,,,,
2,64019, Note_on_c,0,71,43,,,,,,,,,,,,,,,,,,,,,,,,,
2,64493, Note_off_c,0,71,0,,,,,,,,,,,,,,,,,,,,,,,,,
2,64524, Note_on_c,0,81,41,,,,,,,,,,,,,,,,,,,,,,,,,
2,64768, Note_on_c,0,81,38,,,,,,,,,,,,,,,,,,,,,,,,,
2,64836, Note_off_c,0,81,0,,,,,,,,,,,,,,,,,,,,,,,,,
2,64896, Note_off_c,0,81,0,,,,,,,,,,,,,,,,,,,,,,,,,
2,64896, Note_on_c,0,83,38,,,,,,,,,,,,,,,,,,,,,,,,,
2,65024, Note_off_c,0,83,0,,,,,,,,,,,,,,,,,,,,,,,,,
2,65029, Note_on_c,0,81,38,,,,,,,,,,,,,,,,,,,,,,,,,
2,65261, Note_off_c,0,81,0,,,,,,,,,,,,,,,,,,,,,,,,,
2,65277, Note_on_c,0,80,37,,,,,,,,,,,,,,,,,,,,,,,,,
2,65520, Note_off_c,0,80,0,,,,,,,,,,,,,,,,,,,,,,,,,
2,65540, Note_on_c,0,81,67,,,,,,,,,,,,,,,,,,,,,,,,,
2,65817, Note_off_c,0,81,0,,,,,,,,,,,,,,,,,,,,,,,,,
2,65833, Note_on_c,0,69,62,,,,,,,,,,,,,,,,,,,,,,,,,
2,66066, Note_off_c,0,69,0,,,,,,,,,,,,,,,,,,,,,,,,,
2,66082, Note_on_c,0,76,62,,,,,,,,,,,,,,,,,,,,,,,,,
2,66315, Note_off_c,0,76,0,,,,,,,,,,,,,,,,,,,,,,,,,
2,66331, Note_on_c,0,69,62,,,,,,,,,,,,,,,,,,,,,,,,,
2,66574, Note_off_c,0,69,0,,,,,,,,,,,,,,,,,,,,,,,,,
2,66590, Note_on_c,0,81,63,,,,,,,,,,,,,,,,,,,,,,,,,
2,66816, Note_on_c,0,81,62,,,,,,,,,,,,,,,,,,,,,,,,,
2,66902, Note_off_c,0,81,0,,,,,,,,,,,,,,,,,,,,,,,,,
2,66944, Note_off_c,0,81,0,,,,,,,,,,,,,,,,,,,,,,,,,
2,66944, Note_on_c,0,83,62,,,,,,,,,,,,,,,,,,,,,,,,,
2,67072, Note_off_c,0,83,0,,,,,,,,,,,,,,,,,,,,,,,,,
2,67080, Note_on_c,0,81,62,,,,,,,,,,,,,,,,,,,,,,,,,
2,67327, Note_off_c,0,81,0,,,,,,,,,,,,,,,,,,,,,,,,,
2,67343, Note_on_c,0,80,62,,,,,,,,,,,,,,,,,,,,,,,,,
2,67589, Note_off_c,0,80,0,,,,,,,,,,,,,,,,,,,,,,,,,
2,67605, Note_on_c,0,81,65,,,,,,,,,,,,,,,,,,,,,,,,,
2,67852, Note_off_c,0,81,0,,,,,,,,,,,,,,,,,,,,,,,,,
2,67868, Note_on_c,0,69,62,,,,,,,,,,,,,,,,,,,,,,,,,
2,68099, Note_off_c,0,69,0,,,,,,,,,,,,,,,,,,,,,,,,,
2,68115, Note_on_c,0,76,62,,,,,,,,,,,,,,,,,,,,,,,,,
2,68347, Note_off_c,0,76,0,,,,,,,,,,,,,,,,,,,,,,,,,
2,68363, Note_on_c,0,69,62,,,,,,,,,,,,,,,,,,,,,,,,,
2,68604, Note_off_c,0,69,0,,,,,,,,,,,,,,,,,,,,,,,,,
2,68620, Note_on_c,0,81,63,,,,,,,,,,,,,,,,,,,,,,,,,
2,68864, Note_on_c,0,81,62,,,,,,,,,,,,,,,,,,,,,,,,,
2,68932, Note_off_c,0,81,0,,,,,,,,,,,,,,,,,,,,,,,,,
2,68992, Note_off_c,0,81,0,,,,,,,,,,,,,,,,,,,,,,,,,
2,68992, Note_on_c,0,83,62,,,,,,,,,,,,,,,,,,,,,,,,,
2,69120, Note_off_c,0,83,0,,,,,,,,,,,,,,,,,,,,,,,,,
2,69125, Note_on_c,0,81,62,,,,,,,,,,,,,,,,,,,,,,,,,
2,69357, Note_off_c,0,81,0,,,,,,,,,,,,,,,,,,,,,,,,,
2,69373, Note_on_c,0,80,62,,,,,,,,,,,,,,,,,,,,,,,,,
2,69616, Note_off_c,0,80,0,,,,,,,,,,,,,,,,,,,,,,,,,
2,69636, Note_on_c,0,81,67,,,,,,,,,,,,,,,,,,,,,,,,,
2,69913, Note_off_c,0,81,0,,,,,,,,,,,,,,,,,,,,,,,,,
2,69929, Note_on_c,0,83,63,,,,,,,,,,,,,,,,,,,,,,,,,
2,70162, Note_off_c,0,83,0,,,,,,,,,,,,,,,,,,,,,,,,,
2,70178, Note_on_c,0,85,67,,,,,,,,,,,,,,,,,,,,,,,,,
2,70411, Note_off_c,0,85,0,,,,,,,,,,,,,,,,,,,,,,,,,
2,70427, Note_on_c,0,86,71,,,,,,,,,,,,,,,,,,,,,,,,,
2,70670, Note_off_c,0,86,0,,,,,,,,,,,,,,,,,,,,,,,,,
2,70686, Note_on_c,0,88,76,,,,,,,,,,,,,,,,,,,,,,,,,
2,70928, Note_off_c,0,88,0,,,,,,,,,,,,,,,,,,,,,,,,,
2,70944, Note_on_c,0,85,74,,,,,,,,,,,,,,,,,,,,,,,,,
2,71175, Note_off_c,0,85,0,,,,,,,,,,,,,,,,,,,,,,,,,
2,71191, Note_on_c,0,83,71,,,,,,,,,,,,,,,,,,,,,,,,,
2,71423, Note_off_c,0,83,0,,,,,,,,,,,,,,,,,,,,,,,,,
2,71439, Note_on_c,0,81,69,,,,,,,,,,,,,,,,,,,,,,,,,
2,71685, Note_off_c,0,81,0,,,,,,,,,,,,,,,,,,,,,,,,,
2,71701, Note_on_c,0,80,66,,,,,,,,,,,,,,,,,,,,,,,,,
2,72180, Note_off_c,0,80,0,,,,,,,,,,,,,,,,,,,,,,,,,
2,72211, Note_on_c,0,71,62,,,,,,,,,,,,,,,,,,,,,,,,,
2,72685, Note_off_c,0,71,0,,,,,,,,,,,,,,,,,,,,,,,,,
2,72716, Note_on_c,0,81,63,,,,,,,,,,,,,,,,,,,,,,,,,
2,72960, Note_on_c,0,81,62,,,,,,,,,,,,,,,,,,,,,,,,,
2,73028, Note_off_c,0,81,0,,,,,,,,,,,,,,,,,,,,,,,,,
2,73088, Note_off_c,0,81,0,,,,,,,,,,,,,,,,,,,,,,,,,
2,73088, Note_on_c,0,83,62,,,,,,,,,,,,,,,,,,,,,,,,,
2,73216, Note_off_c,0,83,0,,,,,,,,,,,,,,,,,,,,,,,,,
2,73221, Note_on_c,0,81,62,,,,,,,,,,,,,,,,,,,,,,,,,
2,73453, Note_off_c,0,81,0,,,,,,,,,,,,,,,,,,,,,,,,,
2,73469, Note_on_c,0,80,62,,,,,,,,,,,,,,,,,,,,,,,,,
2,73712, Note_off_c,0,80,0,,,,,,,,,,,,,,,,,,,,,,,,,
2,73732, Note_on_c,0,81,67,,,,,,,,,,,,,,,,,,,,,,,,,
2,74009, Note_off_c,0,81,0,,,,,,,,,,,,,,,,,,,,,,,,,
2,74025, Note_on_c,0,69,62,,,,,,,,,,,,,,,,,,,,,,,,,
2,74258, Note_off_c,0,69,0,,,,,,,,,,,,,,,,,,,,,,,,,
2,74274, Note_on_c,0,76,62,,,,,,,,,,,,,,,,,,,,,,,,,
2,74507, Note_off_c,0,76,0,,,,,,,,,,,,,,,,,,,,,,,,,
2,74523, Note_on_c,0,69,62,,,,,,,,,,,,,,,,,,,,,,,,,
2,74766, Note_off_c,0,69,0,,,,,,,,,,,,,,,,,,,,,,,,,
2,74782, Note_on_c,0,81,63,,,,,,,,,,,,,,,,,,,,,,,,,
2,75008, Note_on_c,0,81,62,,,,,,,,,,,,,,,,,,,,,,,,,
2,75094, Note_off_c,0,81,0,,,,,,,,,,,,,,,,,,,,,,,,,
2,75136, Note_off_c,0,81,0,,,,,,,,,,,,,,,,,,,,,,,,,
2,75136, Note_on_c,0,83,62,,,,,,,,,,,,,,,,,,,,,,,,,
2,75264, Note_off_c,0,83,0,,,,,,,,,,,,,,,,,,,,,,,,,
2,75272, Note_on_c,0,81,62,,,,,,,,,,,,,,,,,,,,,,,,,
2,75519, Note_off_c,0,81,0,,,,,,,,,,,,,,,,,,,,,,,,,
2,75535, Note_on_c,0,80,62,,,,,,,,,,,,,,,,,,,,,,,,,
2,75781, Note_off_c,0,80,0,,,,,,,,,,,,,,,,,,,,,,,,,
2,75797, Note_on_c,0,81,65,,,,,,,,,,,,,,,,,,,,,,,,,
2,76044, Note_off_c,0,81,0,,,,,,,,,,,,,,,,,,,,,,,,,
2,76060, Note_on_c,0,69,62,,,,,,,,,,,,,,,,,,,,,,,,,
2,76291, Note_off_c,0,69,0,,,,,,,,,,,,,,,,,,,,,,,,,
2,76307, Note_on_c,0,76,62,,,,,,,,,,,,,,,,,,,,,,,,,
2,76539, Note_off_c,0,76,0,,,,,,,,,,,,,,,,,,,,,,,,,
2,76555, Note_on_c,0,69,62,,,,,,,,,,,,,,,,,,,,,,,,,
2,76796, Note_off_c,0,69,0,,,,,,,,,,,,,,,,,,,,,,,,,
2,76812, Note_on_c,0,81,63,,,,,,,,,,,,,,,,,,,,,,,,,
2,77053, Note_off_c,0,81,0,,,,,,,,,,,,,,,,,,,,,,,,,
2,77069, Note_on_c,0,83,62,,,,,,,,,,,,,,,,,,,,,,,,,
2,77301, Note_off_c,0,83,0,,,,,,,,,,,,,,,,,,,,,,,,,
2,77317, Note_on_c,0,81,62,,,,,,,,,,,,,,,,,,,,,,,,,
2,77549, Note_off_c,0,81,0,,,,,,,,,,,,,,,,,,,,,,,,,
2,77565, Note_on_c,0,80,62,,,,,,,,,,,,,,,,,,,,,,,,,
2,77808, Note_off_c,0,80,0,,,,,,,,,,,,,,,,,,,,,,,,,
2,77828, Note_on_c,0,81,67,,,,,,,,,,,,,,,,,,,,,,,,,
2,78105, Note_off_c,0,81,0,,,,,,,,,,,,,,,,,,,,,,,,,
2,78121, Note_on_c,0,83,62,,,,,,,,,,,,,,,,,,,,,,,,,
2,78354, Note_off_c,0,83,0,,,,,,,,,,,,,,,,,,,,,,,,,
2,78370, Note_on_c,0,85,61,,,,,,,,,,,,,,,,,,,,,,,,,
2,78603, Note_off_c,0,85,0,,,,,,,,,,,,,,,,,,,,,,,,,
2,78619, Note_on_c,0,86,60,,,,,,,,,,,,,,,,,,,,,,,,,
2,78862, Note_off_c,0,86,0,,,,,,,,,,,,,,,,,,,,,,,,,
2,78878, Note_on_c,0,88,60,,,,,,,,,,,,,,,,,,,,,,,,,
2,79120, Note_off_c,0,88,0,,,,,,,,,,,,,,,,,,,,,,,,,
2,79136, Note_on_c,0,85,59,,,,,,,,,,,,,,,,,,,,,,,,,
2,79367, Note_off_c,0,85,0,,,,,,,,,,,,,,,,,,,,,,,,,
2,79383, Note_on_c,0,83,58,,,,,,,,,,,,,,,,,,,,,,,,,
2,79615, Note_off_c,0,83,0,,,,,,,,,,,,,,,,,,,,,,,,,
2,79631, Note_on_c,0,81,57,,,,,,,,,,,,,,,,,,,,,,,,,
2,79877, Note_off_c,0,81,0,,,,,,,,,,,,,,,,,,,,,,,,,
2,79893, Note_on_c,0,80,56,,,,,,,,,,,,,,,,,,,,,,,,,
2,80372, Note_off_c,0,80,0,,,,,,,,,,,,,,,,,,,,,,,,,
2,80403, Note_on_c,0,71,54,,,,,,,,,,,,,,,,,,,,,,,,,
2,80877, Note_off_c,0,71,0,,,,,,,,,,,,,,,,,,,,,,,,,
2,80908, Note_on_c,0,68,52,,,,,,,,,,,,,,,,,,,,,,,,,
2,81382, Note_off_c,0,68,0,,,,,,,,,,,,,,,,,,,,,,,,,
2,81413, Note_on_c,0,64,50,,,,,,,,,,,,,,,,,,,,,,,,,
2,85478, Note_off_c,0,64,0,,,,,,,,,,,,,,,,,,,,,,,,,
2,85509, Note_on_c,0,69,49,,,,,,,,,,,,,,,,,,,,,,,,,
2,85741, Note_off_c,0,69,0,,,,,,,,,,,,,,,,,,,,,,,,,
2,85757, Note_on_c,0,73,49,,,,,,,,,,,,,,,,,,,,,,,,,
2,86000, Note_off_c,0,73,0,,,,,,,,,,,,,,,,,,,,,,,,,
2,86020, Note_on_c,0,81,54,,,,,,,,,,,,,,,,,,,,,,,,,
2,86531, Note_off_c,0,81,0,,,,,,,,,,,,,,,,,,,,,,,,,
2,86562, Note_on_c,0,80,49,,,,,,,,,,,,,,,,,,,,,,,,,
2,86795, Note_off_c,0,80,0,,,,,,,,,,,,,,,,,,,,,,,,,
2,86811, Note_on_c,0,81,49,,,,,,,,,,,,,,,,,,,,,,,,,
2,87312, Note_off_c,0,81,0,,,,,,,,,,,,,,,,,,,,,,,,,
2,87328, Note_on_c,0,69,49,,,,,,,,,,,,,,,,,,,,,,,,,
2,87559, Note_off_c,0,69,0,,,,,,,,,,,,,,,,,,,,,,,,,
2,87575, Note_on_c,0,80,49,,,,,,,,,,,,,,,,,,,,,,,,,
2,87807, Note_off_c,0,80,0,,,,,,,,,,,,,,,,,,,,,,,,,
2,87823, Note_on_c,0,81,49,,,,,,,,,,,,,,,,,,,,,,,,,
2,88332, Note_off_c,0,81,0,,,,,,,,,,,,,,,,,,,,,,,,,
2,88348, Note_on_c,0,69,49,,,,,,,,,,,,,,,,,,,,,,,,,
2,88579, Note_off_c,0,69,0,,,,,,,,,,,,,,,,,,,,,,,,,
2,88595, Note_on_c,0,76,49,,,,,,,,,,,,,,,,,,,,,,,,,
2,88827, Note_off_c,0,76,0,,,,,,,,,,,,,,,,,,,,,,,,,
2,88843, Note_on_c,0,81,49,,,,,,,,,,,,,,,,,,,,,,,,,
2,89341, Note_off_c,0,81,0,,,,,,,,,,,,,,,,,,,,,,,,,
2,89357, Note_on_c,0,69,49,,,,,,,,,,,,,,,,,,,,,,,,,
2,89589, Note_off_c,0,69,0,,,,,,,,,,,,,,,,,,,,,,,,,
2,89605, Note_on_c,0,74,49,,,,,,,,,,,,,,,,,,,,,,,,,
2,89837, Note_off_c,0,74,0,,,,,,,,,,,,,,,,,,,,,,,,,
2,89853, Note_on_c,0,69,49,,,,,,,,,,,,,,,,,,,,,,,,,
2,90096, Note_off_c,0,69,0,,,,,,,,,,,,,,,,,,,,,,,,,
2,90112, Note_on_c,0,71,54,,,,,,,,,,,,,,,,,,,,,,,,,
2,90207, Note_on_c,0,73,44,,,,,,,,,,,,,,,,,,,,,,,,,
2,90218, Note_off_c,0,71,0,,,,,,,,,,,,,,,,,,,,,,,,,
2,90624, Note_off_c,0,73,0,,,,,,,,,,,,,,,,,,,,,,,,,
2,90658, Note_on_c,0,74,49,,,,,,,,,,,,,,,,,,,,,,,,,
2,91135, Note_off_c,0,74,0,,,,,,,,,,,,,,,,,,,,,,,,,
2,91166, Note_on_c,0,69,42,,,,,,,,,,,,,,,,,,,,,,,,,
2,91166, Note_on_c,0,76,56,,,,,,,,,,,,,,,,,,,,,,,,,
2,91640, Note_off_c,0,69,0,,,,,,,,,,,,,,,,,,,,,,,,,
2,91670, Note_off_c,0,76,0,,,,,,,,,,,,,,,,,,,,,,,,,
2,91671, Note_on_c,0,73,49,,,,,,,,,,,,,,,,,,,,,,,,,
2,92150, Note_off_c,0,73,0,,,,,,,,,,,,,,,,,,,,,,,,,
2,92181, Note_on_c,0,68,44,,,,,,,,,,,,,,,,,,,,,,,,,
2,92181, Note_on_c,0,71,58,,,,,,,,,,,,,,,,,,,,,,,,,
2,93700, Note_off_c,0,68,0,,,,,,,,,,,,,,,,,,,,,,,,,
2,93700, Note_off_c,0,71,0,,,,,,,,,,,,,,,,,,,,,,,,,
2,93701, Note_on_c,0,69,49,,,,,,,,,,,,,,,,,,,,,,,,,
2,93933, Note_off_c,0,69,0,,,,,,,,,,,,,,,,,,,,,,,,,
2,93949, Note_on_c,0,68,49,,,,,,,,,,,,,,,,,,,,,,,,,
2,94192, Note_off_c,0,68,0,,,,,,,,,,,,,,,,,,,,,,,,,
2,94212, Note_on_c,0,66,46,,,,,,,,,,,,,,,,,,,,,,,,,
2,94212, Note_on_c,0,69,60,,,,,,,,,,,,,,,,,,,,,,,,,
2,95232, Note_off_c,0,66,0,,,,,,,,,,,,,,,,,,,,,,,,,
2,95504, Note_off_c,0,69,0,,,,,,,,,,,,,,,,,,,,,,,,,
2,95520, Note_on_c,0,64,49,,,,,,,,,,,,,,,,,,,,,,,,,
2,95751, Note_off_c,0,64,0,,,,,,,,,,,,,,,,,,,,,,,,,
2,95767, Note_on_c,0,69,49,,,,,,,,,,,,,,,,,,,,,,,,,
2,95999, Note_off_c,0,69,0,,,,,,,,,,,,,,,,,,,,,,,,,
2,96015, Note_on_c,0,71,49,,,,,,,,,,,,,,,,,,,,,,,,,
2,96261, Note_off_c,0,71,0,,,,,,,,,,,,,,,,,,,,,,,,,
2,96277, Note_on_c,0,73,52,,,,,,,,,,,,,,,,,,,,,,,,,
2,96524, Note_off_c,0,73,0,,,,,,,,,,,,,,,,,,,,,,,,,
2,96540, Note_on_c,0,64,49,,,,,,,,,,,,,,,,,,,,,,,,,
2,96771, Note_off_c,0,64,0,,,,,,,,,,,,,,,,,,,,,,,,,
2,96787, Note_on_c,0,69,49,,,,,,,,,,,,,,,,,,,,,,,,,
2,97019, Note_off_c,0,69,0,,,,,,,,,,,,,,,,,,,,,,,,,
2,97035, Note_on_c,0,71,49,,,,,,,,,,,,,,,,,,,,,,,,,
2,97276, Note_off_c,0,71,0,,,,,,,,,,,,,,,,,,,,,,,,,
2,97292, Note_on_c,0,73,50,,,,,,,,,,,,,,,,,,,,,,,,,
2,97533, Note_off_c,0,73,0,,,,,,,,,,,,,,,,,,,,,,,,,
2,97549, Note_on_c,0,64,49,,,,,,,,,,,,,,,,,,,,,,,,,
2,97781, Note_off_c,0,64,0,,,,,,,,,,,,,,,,,,,,,,,,,
2,97797, Note_on_c,0,73,49,,,,,,,,,,,,,,,,,,,,,,,,,
2,98029, Note_off_c,0,73,0,,,,,,,,,,,,,,,,,,,,,,,,,
2,98045, Note_on_c,0,74,49,,,,,,,,,,,,,,,,,,,,,,,,,
2,98288, Note_off_c,0,74,0,,,,,,,,,,,,,,,,,,,,,,,,,
2,98308, Note_on_c,0,76,54,,,,,,,,,,,,,,,,,,,,,,,,,
2,98585, Note_off_c,0,76,0,,,,,,,,,,,,,,,,,,,,,,,,,
2,98601, Note_on_c,0,64,49,,,,,,,,,,,,,,,,,,,,,,,,,
2,98834, Note_off_c,0,64,0,,,,,,,,,,,,,,,,,,,,,,,,,
2,98850, Note_on_c,0,73,49,,,,,,,,,,,,,,,,,,,,,,,,,
2,99083, Note_off_c,0,73,0,,,,,,,,,,,,,,,,,,,,,,,,,
2,99099, Note_on_c,0,74,49,,,,,,,,,,,,,,,,,,,,,,,,,
2,99342, Note_off_c,0,74,0,,,,,,,,,,,,,,,,,,,,,,,,,
2,99358, Note_on_c,0,76,50,,,,,,,,,,,,,,,,,,,,,,,,,
2,99600, Note_off_c,0,76,0,,,,,,,,,,,,,,,,,,,,,,,,,
2,99616, Note_on_c,0,64,49,,,,,,,,,,,,,,,,,,,,,,,,,
2,99847, Note_off_c,0,64,0,,,,,,,,,,,,,,,,,,,,,,,,,
2,99863, Note_on_c,0,74,49,,,,,,,,,,,,,,,,,,,,,,,,,
2,100095, Note_off_c,0,74,0,,,,,,,,,,,,,,,,,,,,,,,,,
2,100111, Note_on_c,0,73,49,,,,,,,,,,,,,,,,,,,,,,,,,
2,100357, Note_off_c,0,73,0,,,,,,,,,,,,,,,,,,,,,,,,,
2,100373, Note_on_c,0,71,52,,,,,,,,,,,,,,,,,,,,,,,,,
2,100620, Note_off_c,0,71,0,,,,,,,,,,,,,,,,,,,,,,,,,
2,100636, Note_on_c,0,64,49,,,,,,,,,,,,,,,,,,,,,,,,,
2,100867, Note_off_c,0,64,0,,,,,,,,,,,,,,,,,,,,,,,,,
2,100883, Note_on_c,0,74,49,,,,,,,,,,,,,,,,,,,,,,,,,
2,101115, Note_off_c,0,74,0,,,,,,,,,,,,,,,,,,,,,,,,,
2,101131, Note_on_c,0,73,49,,,,,,,,,,,,,,,,,,,,,,,,,
2,101372, Note_off_c,0,73,0,,,,,,,,,,,,,,,,,,,,,,,,,
2,101388, Note_on_c,0,71,50,,,,,,,,,,,,,,,,,,,,,,,,,
2,101862, Note_off_c,0,71,0,,,,,,,,,,,,,,,,,,,,,,,,,
2,101893, Note_on_c,0,64,49,,,,,,,,,,,,,,,,,,,,,,,,,
2,102369, Note_off_c,0,64,0,,,,,,,,,,,,,,,,,,,,,,,,,
2,102400, Note_on_c,0,73,54,,,,,,,,,,,,,,,,,,,,,,,,,
2,102495, Note_on_c,0,81,44,,,,,,,,,,,,,,,,,,,,,,,,,
2,102506, Note_off_c,0,73,0,,,,,,,,,,,,,,,,,,,,,,,,,
2,102912, Note_off_c,0,81,0,,,,,,,,,,,,,,,,,,,,,,,,,
2,102946, Note_on_c,0,80,56,,,,,,,,,,,,,,,,,,,,,,,,,
2,103179, Note_off_c,0,80,0,,,,,,,,,,,,,,,,,,,,,,,,,
2,103195, Note_on_c,0,81,61,,,,,,,,,,,,,,,,,,,,,,,,,
2,103696, Note_off_c,0,81,0,,,,,,,,,,,,,,,,,,,,,,,,,
2,103712, Note_on_c,0,69,72,,,,,,,,,,,,,,,,,,,,,,,,,
2,103943, Note_off_c,0,69,0,,,,,,,,,,,,,,,,,,,,,,,,,
2,103959, Note_on_c,0,80,78,,,,,,,,,,,,,,,,,,,,,,,,,
2,104191, Note_off_c,0,80,0,,,,,,,,,,,,,,,,,,,,,,,,,
2,104207, Note_on_c,0,81,80,,,,,,,,,,,,,,,,,,,,,,,,,
2,104716, Note_off_c,0,81,0,,,,,,,,,,,,,,,,,,,,,,,,,
2,104732, Note_on_c,0,69,49,,,,,,,,,,,,,,,,,,,,,,,,,
2,104963, Note_off_c,0,69,0,,,,,,,,,,,,,,,,,,,,,,,,,
2,104979, Note_on_c,0,76,49,,,,,,,,,,,,,,,,,,,,,,,,,
2,105211, Note_off_c,0,76,0,,,,,,,,,,,,,,,,,,,,,,,,,
2,105227, Note_on_c,0,81,49,,,,,,,,,,,,,,,,,,,,,,,,,
2,105725, Note_off_c,0,81,0,,,,,,,,,,,,,,,,,,,,,,,,,
2,105741, Note_on_c,0,69,49,,,,,,,,,,,,,,,,,,,,,,,,,
2,105973, Note_off_c,0,69,0,,,,,,,,,,,,,,,,,,,,,,,,,
2,105989, Note_on_c,0,74,49,,,,,,,,,,,,,,,,,,,,,,,,,
2,106221, Note_off_c,0,74,0,,,,,,,,,,,,,,,,,,,,,,,,,
2,106237, Note_on_c,0,69,49,,,,,,,,,,,,,,,,,,,,,,,,,
2,106480, Note_off_c,0,69,0,,,,,,,,,,,,,,,,,,,,,,,,,
2,106496, Note_on_c,0,71,54,,,,,,,,,,,,,,,,,,,,,,,,,
2,106591, Note_on_c,0,73,44,,,,,,,,,,,,,,,,,,,,,,,,,
2,106602, Note_off_c,0,71,0,,,,,,,,,,,,,,,,,,,,,,,,,
2,107008, Note_off_c,0,73,0,,,,,,,,,,,,,,,,,,,,,,,,,
2,107042, Note_on_c,0,74,49,,,,,,,,,,,,,,,,,,,,,,,,,
2,107519, Note_off_c,0,74,0,,,,,,,,,,,,,,,,,,,,,,,,,
2,107550, Note_on_c,0,76,50,,,,,,,,,,,,,,,,,,,,,,,,,
2,108024, Note_off_c,0,76,0,,,,,,,,,,,,,,,,,,,,,,,,,
2,108055, Note_on_c,0,85,49,,,,,,,,,,,,,,,,,,,,,,,,,
2,108534, Note_off_c,0,85,0,,,,,,,,,,,,,,,,,,,,,,,,,
2,108565, Note_on_c,0,83,52,,,,,,,,,,,,,,,,,,,,,,,,,
2,109044, Note_off_c,0,83,0,,,,,,,,,,,,,,,,,,,,,,,,,
2,109075, Note_on_c,0,76,49,,,,,,,,,,,,,,,,,,,,,,,,,
2,109549, Note_off_c,0,76,0,,,,,,,,,,,,,,,,,,,,,,,,,
2,109580, Note_on_c,0,83,42,,,,,,,,,,,,,,,,,,,,,,,,,
2,109580, Note_on_c,0,88,56,,,,,,,,,,,,,,,,,,,,,,,,,
2,109743, Note_off_c,0,83,0,,,,,,,,,,,,,,,,,,,,,,,,,
2,109753, Note_off_c,0,88,0,,,,,,,,,,,,,,,,,,,,,,,,,
2,109754, Note_on_c,0,85,49,,,,,,,,,,,,,,,,,,,,,,,,,
2,109909, Note_off_c,0,85,0,,,,,,,,,,,,,,,,,,,,,,,,,
2,109920, Note_on_c,0,83,49,,,,,,,,,,,,,,,,,,,,,,,,,
2,110074, Note_off_c,0,83,0,,,,,,,,,,,,,,,,,,,,,,,,,
2,110085, Note_on_c,0,81,49,,,,,,,,,,,,,,,,,,,,,,,,,
2,110317, Note_off_c,0,81,0,,,,,,,,,,,,,,,,,,,,,,,,,
2,110333, Note_on_c,0,80,49,,,,,,,,,,,,,,,,,,,,,,,,,
2,110576, Note_off_c,0,80,0,,,,,,,,,,,,,,,,,,,,,,,,,
2,110596, Note_on_c,0,81,54,,,,,,,,,,,,,,,,,,,,,,,,,
2,112150, Note_off_c,0,81,0,,,,,,,,,,,,,,,,,,,,,,,,,
2,112151, Note_on_c,0,69,49,,,,,,,,,,,,,,,,,,,,,,,,,
2,112383, Note_off_c,0,69,0,,,,,,,,,,,,,,,,,,,,,,,,,
2,112399, Note_on_c,0,71,50,,,,,,,,,,,,,,,,,,,,,,,,,
2,112645, Note_off_c,0,71,0,,,,,,,,,,,,,,,,,,,,,,,,,
2,112661, Note_on_c,0,73,51,,,,,,,,,,,,,,,,,,,,,,,,,
2,112908, Note_off_c,0,73,0,,,,,,,,,,,,,,,,,,,,,,,,,
2,112924, Note_on_c,0,64,52,,,,,,,,,,,,,,,,,,,,,,,,,
2,113155, Note_off_c,0,64,0,,,,,,,,,,,,,,,,,,,,,,,,,
2,113171, Note_on_c,0,69,53,,,,,,,,,,,,,,,,,,,,,,,,,
2,113403, Note_off_c,0,69,0,,,,,,,,,,,,,,,,,,,,,,,,,
2,113419, Note_on_c,0,71,54,,,,,,,,,,,,,,,,,,,,,,,,,
2,113660, Note_off_c,0,71,0,,,,,,,,,,,,,,,,,,,,,,,,,
2,113676, Note_on_c,0,73,55,,,,,,,,,,,,,,,,,,,,,,,,,
2,113917, Note_off_c,0,73,0,,,,,,,,,,,,,,,,,,,,,,,,,
2,113933, Note_on_c,0,64,56,,,,,,,,,,,,,,,,,,,,,,,,,
2,114165, Note_off_c,0,64,0,,,,,,,,,,,,,,,,,,,,,,,,,
2,114181, Note_on_c,0,73,57,,,,,,,,,,,,,,,,,,,,,,,,,
2,114413, Note_off_c,0,73,0,,,,,,,,,,,,,,,,,,,,,,,,,
2,114429, Note_on_c,0,74,58,,,,,,,,,,,,,,,,,,,,,,,,,
2,114672, Note_off_c,0,74,0,,,,,,,,,,,,,,,,,,,,,,,,,
2,114692, Note_on_c,0,76,59,,,,,,,,,,,,,,,,,,,,,,,,,
2,114969, Note_off_c,0,76,0,,,,,,,,,,,,,,,,,,,,,,,,,
2,114985, Note_on_c,0,64,60,,,,,,,,,,,,,,,,,,,,,,,,,
2,115218, Note_off_c,0,64,0,,,,,,,,,,,,,,,,,,,,,,,,,
2,115234, Note_on_c,0,73,61,,,,,,,,,,,,,,,,,,,,,,,,,
2,115467, Note_off_c,0,73,0,,,,,,,,,,,,,,,,,,,,,,,,,
2,115483, Note_on_c,0,74,62,,,,,,,,,,,,,,,,,,,,,,,,,
2,115726, Note_off_c,0,74,0,,,,,,,,,,,,,,,,,,,,,,,,,
2,115742, Note_on_c,0,76,63,,,,,,,,,,,,,,,,,,,,,,,,,
2,115984, Note_off_c,0,76,0,,,,,,,,,,,,,,,,,,,,,,,,,
2,116000, Note_on_c,0,64,64,,,,,,,,,,,,,,,,,,,,,,,,,
2,116231, Note_off_c,0,64,0,,,,,,,,,,,,,,,,,,,,,,,,,
2,116247, Note_on_c,0,74,65,,,,,,,,,,,,,,,,,,,,,,,,,
2,116479, Note_off_c,0,74,0,,,,,,,,,,,,,,,,,,,,,,,,,
2,116495, Note_on_c,0,73,66,,,,,,,,,,,,,,,,,,,,,,,,,
2,116741, Note_off_c,0,73,0,,,,,,,,,,,,,,,,,,,,,,,,,
2,116757, Note_on_c,0,71,67,,,,,,,,,,,,,,,,,,,,,,,,,
2,117004, Note_off_c,0,71,0,,,,,,,,,,,,,,,,,,,,,,,,,
2,117020, Note_on_c,0,64,68,,,,,,,,,,,,,,,,,,,,,,,,,
2,117251, Note_off_c,0,64,0,,,,,,,,,,,,,,,,,,,,,,,,,
2,117267, Note_on_c,0,68,69,,,,,,,,,,,,,,,,,,,,,,,,,
2,117499, Note_off_c,0,68,0,,,,,,,,,,,,,,,,,,,,,,,,,
2,117515, Note_on_c,0,71,70,,,,,,,,,,,,,,,,,,,,,,,,,
2,117756, Note_off_c,0,71,0,,,,,,,,,,,,,,,,,,,,,,,,,
2,117772, Note_on_c,0,81,71,,,,,,,,,,,,,,,,,,,,,,,,,
2,118013, Note_off_c,0,81,0,,,,,,,,,,,,,,,,,,,,,,,,,
2,118029, Note_on_c,0,83,72,,,,,,,,,,,,,,,,,,,,,,,,,
2,118261, Note_off_c,0,83,0,,,,,,,,,,,,,,,,,,,,,,,,,
2,118277, Note_on_c,0,81,73,,,,,,,,,,,,,,,,,,,,,,,,,
2,118509, Note_off_c,0,81,0,,,,,,,,,,,,,,,,,,,,,,,,,
2,118525, Note_on_c,0,80,74,,,,,,,,,,,,,,,,,,,,,,,,,
2,118768, Note_off_c,0,80,0,,,,,,,,,,,,,,,,,,,,,,,,,
2,118788, Note_on_c,0,81,80,,,,,,,,,,,,,,,,,,,,,,,,,
2,119065, Note_off_c,0,81,0,,,,,,,,,,,,,,,,,,,,,,,,,
2,119081, Note_on_c,0,69,75,,,,,,,,,,,,,,,,,,,,,,,,,
2,119314, Note_off_c,0,69,0,,,,,,,,,,,,,,,,,,,,,,,,,
2,119330, Note_on_c,0,76,75,,,,,,,,,,,,,,,,,,,,,,,,,
2,119563, Note_off_c,0,76,0,,,,,,,,,,,,,,,,,,,,,,,,,
2,119579, Note_on_c,0,69,75,,,,,,,,,,,,,,,,,,,,,,,,,
2,119822, Note_off_c,0,69,0,,,,,,,,,,,,,,,,,,,,,,,,,
2,119838, Note_on_c,0,81,76,,,,,,,,,,,,,,,,,,,,,,,,,
2,120064, Note_on_c,0,81,75,,,,,,,,,,,,,,,,,,,,,,,,,
2,120150, Note_off_c,0,81,0,,,,,,,,,,,,,,,,,,,,,,,,,
2,120192, Note_off_c,0,81,0,,,,,,,,,,,,,,,,,,,,,,,,,
2,120192, Note_on_c,0,83,75,,,,,,,,,,,,,,,,,,,,,,,,,
2,120320, Note_off_c,0,83,0,,,,,,,,,,,,,,,,,,,,,,,,,
2,120328, Note_on_c,0,81,75,,,,,,,,,,,,,,,,,,,,,,,,,
2,120575, Note_off_c,0,81,0,,,,,,,,,,,,,,,,,,,,,,,,,
2,120591, Note_on_c,0,80,75,,,,,,,,,,,,,,,,,,,,,,,,,
2,120837, Note_off_c,0,80,0,,,,,,,,,,,,,,,,,,,,,,,,,
2,120853, Note_on_c,0,81,78,,,,,,,,,,,,,,,,,,,,,,,,,
2,121100, Note_off_c,0,81,0,,,,,,,,,,,,,,,,,,,,,,,,,
2,121116, Note_on_c,0,69,75,,,,,,,,,,,,,,,,,,,,,,,,,
2,121347, Note_off_c,0,69,0,,,,,,,,,,,,,,,,,,,,,,,,,
2,121363, Note_on_c,0,76,75,,,,,,,,,,,,,,,,,,,,,,,,,
2,121595, Note_off_c,0,76,0,,,,,,,,,,,,,,,,,,,,,,,,,
2,121611, Note_on_c,0,69,75,,,,,,,,,,,,,,,,,,,,,,,,,
2,121852, Note_off_c,0,69,0,,,,,,,,,,,,,,,,,,,,,,,,,
2,121868, Note_on_c,0,81,76,,,,,,,,,,,,,,,,,,,,,,,,,
2,122112, Note_on_c,0,81,75,,,,,,,,,,,,,,,,,,,,,,,,,
2,122180, Note_off_c,0,81,0,,,,,,,,,,,,,,,,,,,,,,,,,
2,122240, Note_off_c,0,81,0,,,,,,,,,,,,,,,,,,,,,,,,,
2,122240, Note_on_c,0,83,75,,,,,,,,,,,,,,,,,,,,,,,,,
2,122368, Note_off_c,0,83,0,,,,,,,,,,,,,,,,,,,,,,,,,
2,122373, Note_on_c,0,81,75,,,,,,,,,,,,,,,,,,,,,,,,,
2,122605, Note_off_c,0,81,0,,,,,,,,,,,,,,,,,,,,,,,,,
2,122621, Note_on_c,0,80,75,,,,,,,,,,,,,,,,,,,,,,,,,
2,122864, Note_off_c,0,80,0,,,,,,,,,,,,,,,,,,,,,,,,,
2,122884, Note_on_c,0,81,80,,,,,,,,,,,,,,,,,,,,,,,,,
2,123161, Note_off_c,0,81,0,,,,,,,,,,,,,,,,,,,,,,,,,
2,123177, Note_on_c,0,83,75,,,,,,,,,,,,,,,,,,,,,,,,,
2,123410, Note_off_c,0,83,0,,,,,,,,,,,,,,,,,,,,,,,,,
2,123426, Note_on_c,0,85,79,,,,,,,,,,,,,,,,,,,,,,,,,
2,123659, Note_off_c,0,85,0,,,,,,,,,,,,,,,,,,,,,,,,,
2,123675, Note_on_c,0,86,83,,,,,,,,,,,,,,,,,,,,,,,,,
2,123918, Note_off_c,0,86,0,,,,,,,,,,,,,,,,,,,,,,,,,
2,123934, Note_on_c,0,88,88,,,,,,,,,,,,,,,,,,,,,,,,,
2,124176, Note_off_c,0,88,0,,,,,,,,,,,,,,,,,,,,,,,,,
2,124192, Note_on_c,0,85,86,,,,,,,,,,,,,,,,,,,,,,,,,
2,124423, Note_off_c,0,85,0,,,,,,,,,,,,,,,,,,,,,,,,,
2,124439, Note_on_c,0,83,84,,,,,,,,,,,,,,,,,,,,,,,,,
2,124515, Note_off_c,0,83,0,,,,,,,,,,,,,,,,,,,,,,,,,
2,124521, Note_on_c,0,85,83,,,,,,,,,,,,,,,,,,,,,,,,,
2,124598, Note_off_c,0,85,0,,,,,,,,,,,,,,,,,,,,,,,,,
2,124604, Note_on_c,0,83,82,,,,,,,,,,,,,,,,,,,,,,,,,
2,124681, Note_off_c,0,83,0,,,,,,,,,,,,,,,,,,,,,,,,,
2,124687, Note_on_c,0,81,81,,,,,,,,,,,,,,,,,,,,,,,,,
2,124933, Note_off_c,0,81,0,,,,,,,,,,,,,,,,,,,,,,,,,
2,124949, Note_on_c,0,80,79,,,,,,,,,,,,,,,,,,,,,,,,,
2,125428, Note_off_c,0,80,0,,,,,,,,,,,,,,,,,,,,,,,,,
2,125459, Note_on_c,0,71,75,,,,,,,,,,,,,,,,,,,,,,,,,
2,125933, Note_off_c,0,71,0,,,,,,,,,,,,,,,,,,,,,,,,,
2,125964, Note_on_c,0,81,76,,,,,,,,,,,,,,,,,,,,,,,,,
2,126208, Note_on_c,0,81,75,,,,,,,,,,,,,,,,,,,,,,,,,
2,126276, Note_off_c,0,81,0,,,,,,,,,,,,,,,,,,,,,,,,,
2,126336, Note_off_c,0,81,0,,,,,,,,,,,,,,,,,,,,,,,,,
2,126336, Note_on_c,0,83,75,,,,,,,,,,,,,,,,,,,,,,,,,
2,126464, Note_off_c,0,83,0,,,,,,,,,,,,,,,,,,,,,,,,,
2,126469, Note_on_c,0,81,75,,,,,,,,,,,,,,,,,,,,,,,,,
2,126701, Note_off_c,0,81,0,,,,,,,,,,,,,,,,,,,,,,,,,
2,126717, Note_on_c,0,80,75,,,,,,,,,,,,,,,,,,,,,,,,,
2,126960, Note_off_c,0,80,0,,,,,,,,,,,,,,,,,,,,,,,,,
2,126980, Note_on_c,0,81,80,,,,,,,,,,,,,,,,,,,,,,,,,
2,127257, Note_off_c,0,81,0,,,,,,,,,,,,,,,,,,,,,,,,,
2,127273, Note_on_c,0,69,75,,,,,,,,,,,,,,,,,,,,,,,,,
2,127506, Note_off_c,0,69,0,,,,,,,,,,,,,,,,,,,,,,,,,
2,127522, Note_on_c,0,76,75,,,,,,,,,,,,,,,,,,,,,,,,,
2,127755, Note_off_c,0,76,0,,,,,,,,,,,,,,,,,,,,,,,,,
2,127771, Note_on_c,0,69,75,,,,,,,,,,,,,,,,,,,,,,,,,
2,128014, Note_off_c,0,69,0,,,,,,,,,,,,,,,,,,,,,,,,,
2,128030, Note_on_c,0,81,76,,,,,,,,,,,,,,,,,,,,,,,,,
2,128256, Note_on_c,0,81,75,,,,,,,,,,,,,,,,,,,,,,,,,
2,128342, Note_off_c,0,81,0,,,,,,,,,,,,,,,,,,,,,,,,,
2,128384, Note_off_c,0,81,0,,,,,,,,,,,,,,,,,,,,,,,,,
2,128384, Note_on_c,0,83,75,,,,,,,,,,,,,,,,,,,,,,,,,
2,128512, Note_off_c,0,83,0,,,,,,,,,,,,,,,,,,,,,,,,,
2,128520, Note_on_c,0,81,75,,,,,,,,,,,,,,,,,,,,,,,,,
2,128767, Note_off_c,0,81,0,,,,,,,,,,,,,,,,,,,,,,,,,
2,128783, Note_on_c,0,80,75,,,,,,,,,,,,,,,,,,,,,,,,,
2,129029, Note_off_c,0,80,0,,,,,,,,,,,,,,,,,,,,,,,,,
2,129045, Note_on_c,0,81,78,,,,,,,,,,,,,,,,,,,,,,,,,
2,129292, Note_off_c,0,81,0,,,,,,,,,,,,,,,,,,,,,,,,,
2,129308, Note_on_c,0,69,75,,,,,,,,,,,,,,,,,,,,,,,,,
2,129539, Note_off_c,0,69,0,,,,,,,,,,,,,,,,,,,,,,,,,
2,129555, Note_on_c,0,76,75,,,,,,,,,,,,,,,,,,,,,,,,,
2,129787, Note_off_c,0,76,0,,,,,,,,,,,,,,,,,,,,,,,,,
2,129803, Note_on_c,0,69,75,,,,,,,,,,,,,,,,,,,,,,,,,
2,130044, Note_off_c,0,69,0,,,,,,,,,,,,,,,,,,,,,,,,,
2,130060, Note_on_c,0,81,76,,,,,,,,,,,,,,,,,,,,,,,,,
2,130304, Note_on_c,0,81,75,,,,,,,,,,,,,,,,,,,,,,,,,
2,130372, Note_off_c,0,81,0,,,,,,,,,,,,,,,,,,,,,,,,,
2,130432, Note_off_c,0,81,0,,,,,,,,,,,,,,,,,,,,,,,,,
2,130432, Note_on_c,0,83,75,,,,,,,,,,,,,,,,,,,,,,,,,
2,130560, Note_off_c,0,83,0,,,,,,,,,,,,,,,,,,,,,,,,,
2,130565, Note_on_c,0,81,75,,,,,,,,,,,,,,,,,,,,,,,,,
2,130797, Note_off_c,0,81,0,,,,,,,,,,,,,,,,,,,,,,,,,
2,130813, Note_on_c,0,80,75,,,,,,,,,,,,,,,,,,,,,,,,,
2,131056, Note_off_c,0,80,0,,,,,,,,,,,,,,,,,,,,,,,,,
2,131076, Note_on_c,0,81,80,,,,,,,,,,,,,,,,,,,,,,,,,
2,131353, Note_off_c,0,81,0,,,,,,,,,,,,,,,,,,,,,,,,,
2,131369, Note_on_c,0,83,75,,,,,,,,,,,,,,,,,,,,,,,,,
2,131602, Note_off_c,0,83,0,,,,,,,,,,,,,,,,,,,,,,,,,
2,131618, Note_on_c,0,85,79,,,,,,,,,,,,,,,,,,,,,,,,,
2,131851, Note_off_c,0,85,0,,,,,,,,,,,,,,,,,,,,,,,,,
2,131867, Note_on_c,0,86,83,,,,,,,,,,,,,,,,,,,,,,,,,
2,132110, Note_off_c,0,86,0,,,,,,,,,,,,,,,,,,,,,,,,,
2,132126, Note_on_c,0,88,88,,,,,,,,,,,,,,,,,,,,,,,,,
2,132368, Note_off_c,0,88,0,,,,,,,,,,,,,,,,,,,,,,,,,
2,132384, Note_on_c,0,85,86,,,,,,,,,,,,,,,,,,,,,,,,,
2,132615, Note_off_c,0,85,0,,,,,,,,,,,,,,,,,,,,,,,,,
2,132631, Note_on_c,0,83,84,,,,,,,,,,,,,,,,,,,,,,,,,
2,132707, Note_off_c,0,83,0,,,,,,,,,,,,,,,,,,,,,,,,,
2,132713, Note_on_c,0,85,83,,,,,,,,,,,,,,,,,,,,,,,,,
2,132790, Note_off_c,0,85,0,,,,,,,,,,,,,,,,,,,,,,,,,
2,132796, Note_on_c,0,83,82,,,,,,,,,,,,,,,,,,,,,,,,,
2,132873, Note_off_c,0,83,0,,,,,,,,,,,,,,,,,,,,,,,,,
2,132879, Note_on_c,0,81,81,,,,,,,,,,,,,,,,,,,,,,,,,
2,133125, Note_off_c,0,81,0,,,,,,,,,,,,,,,,,,,,,,,,,
2,133141, Note_on_c,0,80,79,,,,,,,,,,,,,,,,,,,,,,,,,
2,133620, Note_off_c,0,80,0,,,,,,,,,,,,,,,,,,,,,,,,,
2,133651, Note_on_c,0,71,75,,,,,,,,,,,,,,,,,,,,,,,,,
2,134125, Note_off_c,0,71,0,,,,,,,,,,,,,,,,,,,,,,,,,
2,134156, Note_on_c,0,81,76,,,,,,,,,,,,,,,,,,,,,,,,,
2,134400, Note_on_c,0,81,75,,,,,,,,,,,,,,,,,,,,,,,,,
2,134468, Note_off_c,0,81,0,,,,,,,,,,,,,,,,,,,,,,,,,
2,134528, Note_off_c,0,81,0,,,,,,,,,,,,,,,,,,,,,,,,,
2,134528, Note_on_c,0,83,75,,,,,,,,,,,,,,,,,,,,,,,,,
2,134656, Note_off_c,0,83,0,,,,,,,,,,,,,,,,,,,,,,,,,
2,134661, Note_on_c,0,81,75,,,,,,,,,,,,,,,,,,,,,,,,,
2,134893, Note_off_c,0,81,0,,,,,,,,,,,,,,,,,,,,,,,,,
2,134909, Note_on_c,0,80,75,,,,,,,,,,,,,,,,,,,,,,,,,
2,135152, Note_off_c,0,80,0,,,,,,,,,,,,,,,,,,,,,,,,,
2,135172, Note_on_c,0,81,80,,,,,,,,,,,,,,,,,,,,,,,,,
2,135449, Note_off_c,0,81,0,,,,,,,,,,,,,,,,,,,,,,,,,
2,135465, Note_on_c,0,69,75,,,,,,,,,,,,,,,,,,,,,,,,,
2,135698, Note_off_c,0,69,0,,,,,,,,,,,,,,,,,,,,,,,,,
2,135714, Note_on_c,0,76,75,,,,,,,,,,,,,,,,,,,,,,,,,
2,135947, Note_off_c,0,76,0,,,,,,,,,,,,,,,,,,,,,,,,,
2,135963, Note_on_c,0,69,75,,,,,,,,,,,,,,,,,,,,,,,,,
2,136206, Note_off_c,0,69,0,,,,,,,,,,,,,,,,,,,,,,,,,
2,136222, Note_on_c,0,81,76,,,,,,,,,,,,,,,,,,,,,,,,,
2,136464, Note_off_c,0,81,0,,,,,,,,,,,,,,,,,,,,,,,,,
2,136480, Note_on_c,0,83,75,,,,,,,,,,,,,,,,,,,,,,,,,
2,136711, Note_off_c,0,83,0,,,,,,,,,,,,,,,,,,,,,,,,,
2,136727, Note_on_c,0,81,75,,,,,,,,,,,,,,,,,,,,,,,,,
2,136959, Note_off_c,0,81,0,,,,,,,,,,,,,,,,,,,,,,,,,
2,136975, Note_on_c,0,80,75,,,,,,,,,,,,,,,,,,,,,,,,,
2,137221, Note_off_c,0,80,0,,,,,,,,,,,,,,,,,,,,,,,,,
2,137237, Note_on_c,0,81,78,,,,,,,,,,,,,,,,,,,,,,,,,
2,137484, Note_off_c,0,81,0,,,,,,,,,,,,,,,,,,,,,,,,,
2,137500, Note_on_c,0,69,75,,,,,,,,,,,,,,,,,,,,,,,,,
2,137731, Note_off_c,0,69,0,,,,,,,,,,,,,,,,,,,,,,,,,
2,137747, Note_on_c,0,76,75,,,,,,,,,,,,,,,,,,,,,,,,,
2,137979, Note_off_c,0,76,0,,,,,,,,,,,,,,,,,,,,,,,,,
2,137995, Note_on_c,0,69,75,,,,,,,,,,,,,,,,,,,,,,,,,
2,138236, Note_off_c,0,69,0,,,,,,,,,,,,,,,,,,,,,,,,,
2,138252, Note_on_c,0,81,76,,,,,,,,,,,,,,,,,,,,,,,,,
2,138496, Note_on_c,0,81,75,,,,,,,,,,,,,,,,,,,,,,,,,
2,138564, Note_off_c,0,81,0,,,,,,,,,,,,,,,,,,,,,,,,,
2,138624, Note_off_c,0,81,0,,,,,,,,,,,,,,,,,,,,,,,,,
2,138624, Note_on_c,0,83,75,,,,,,,,,,,,,,,,,,,,,,,,,
2,138752, Note_off_c,0,83,0,,,,,,,,,,,,,,,,,,,,,,,,,
2,138757, Note_on_c,0,81,75,,,,,,,,,,,,,,,,,,,,,,,,,
2,138989, Note_off_c,0,81,0,,,,,,,,,,,,,,,,,,,,,,,,,
2,139005, Note_on_c,0,80,75,,,,,,,,,,,,,,,,,,,,,,,,,
2,139248, Note_off_c,0,80,0,,,,,,,,,,,,,,,,,,,,,,,,,
2,139268, Note_on_c,0,81,80,,,,,,,,,,,,,,,,,,,,,,,,,
2,139545, Note_off_c,0,81,0,,,,,,,,,,,,,,,,,,,,,,,,,
2,139561, Note_on_c,0,83,76,,,,,,,,,,,,,,,,,,,,,,,,,
2,139794, Note_off_c,0,83,0,,,,,,,,,,,,,,,,,,,,,,,,,
2,139810, Note_on_c,0,85,80,,,,,,,,,,,,,,,,,,,,,,,,,
2,140043, Note_off_c,0,85,0,,,,,,,,,,,,,,,,,,,,,,,,,
2,140059, Note_on_c,0,86,84,,,,,,,,,,,,,,,,,,,,,,,,,
2,140302, Note_off_c,0,86,0,,,,,,,,,,,,,,,,,,,,,,,,,
2,140318, Note_on_c,0,88,88,,,,,,,,,,,,,,,,,,,,,,,,,
2,140560, Note_off_c,0,88,0,,,,,,,,,,,,,,,,,,,,,,,,,
2,140576, Note_on_c,0,85,86,,,,,,,,,,,,,,,,,,,,,,,,,
2,140807, Note_off_c,0,85,0,,,,,,,,,,,,,,,,,,,,,,,,,
2,140823, Note_on_c,0,83,84,,,,,,,,,,,,,,,,,,,,,,,,,
2,141055, Note_off_c,0,83,0,,,,,,,,,,,,,,,,,,,,,,,,,
2,141071, Note_on_c,0,81,81,,,,,,,,,,,,,,,,,,,,,,,,,
2,141317, Note_off_c,0,81,0,,,,,,,,,,,,,,,,,,,,,,,,,
2,141333, Note_on_c,0,80,79,,,,,,,,,,,,,,,,,,,,,,,,,
2,141812, Note_off_c,0,80,0,,,,,,,,,,,,,,,,,,,,,,,,,
2,141843, Note_on_c,0,71,63,,,,,,,,,,,,,,,,,,,,,,,,,
2,142317, Note_off_c,0,71,0,,,,,,,,,,,,,,,,,,,,,,,,,
2,142348, Note_on_c,0,81,64,,,,,,,,,,,,,,,,,,,,,,,,,
2,142592, Note_on_c,0,81,63,,,,,,,,,,,,,,,,,,,,,,,,,
2,142660, Note_off_c,0,81,0,,,,,,,,,,,,,,,,,,,,,,,,,
2,142720, Note_off_c,0,81,0,,,,,,,,,,,,,,,,,,,,,,,,,
2,142720, Note_on_c,0,83,63,,,,,,,,,,,,,,,,,,,,,,,,,
2,142848, Note_off_c,0,83,0,,,,,,,,,,,,,,,,,,,,,,,,,
2,142853, Note_on_c,0,81,63,,,,,,,,,,,,,,,,,,,,,,,,,
2,143085, Note_off_c,0,81,0,,,,,,,,,,,,,,,,,,,,,,,,,
2,143101, Note_on_c,0,80,63,,,,,,,,,,,,,,,,,,,,,,,,,
2,143344, Note_off_c,0,80,0,,,,,,,,,,,,,,,,,,,,,,,,,
2,143364, Note_on_c,0,81,80,,,,,,,,,,,,,,,,,,,,,,,,,
2,143641, Note_off_c,0,81,0,,,,,,,,,,,,,,,,,,,,,,,,,
2,143657, Note_on_c,0,69,75,,,,,,,,,,,,,,,,,,,,,,,,,
2,143890, Note_off_c,0,69,0,,,,,,,,,,,,,,,,,,,,,,,,,
2,143906, Note_on_c,0,76,75,,,,,,,,,,,,,,,,,,,,,,,,,
2,144139, Note_off_c,0,76,0,,,,,,,,,,,,,,,,,,,,,,,,,
2,144155, Note_on_c,0,69,75,,,,,,,,,,,,,,,,,,,,,,,,,
2,144398, Note_off_c,0,69,0,,,,,,,,,,,,,,,,,,,,,,,,,
2,144414, Note_on_c,0,81,76,,,,,,,,,,,,,,,,,,,,,,,,,
2,144640, Note_on_c,0,81,75,,,,,,,,,,,,,,,,,,,,,,,,,
2,144726, Note_off_c,0,81,0,,,,,,,,,,,,,,,,,,,,,,,,,
2,144768, Note_off_c,0,81,0,,,,,,,,,,,,,,,,,,,,,,,,,
2,144768, Note_on_c,0,83,75,,,,,,,,,,,,,,,,,,,,,,,,,
2,144896, Note_off_c,0,83,0,,,,,,,,,,,,,,,,,,,,,,,,,
2,144904, Note_on_c,0,81,75,,,,,,,,,,,,,,,,,,,,,,,,,
2,145151, Note_off_c,0,81,0,,,,,,,,,,,,,,,,,,,,,,,,,
2,145167, Note_on_c,0,80,75,,,,,,,,,,,,,,,,,,,,,,,,,
2,145413, Note_off_c,0,80,0,,,,,,,,,,,,,,,,,,,,,,,,,
2,145429, Note_on_c,0,81,78,,,,,,,,,,,,,,,,,,,,,,,,,
2,145676, Note_off_c,0,81,0,,,,,,,,,,,,,,,,,,,,,,,,,
2,145692, Note_on_c,0,69,75,,,,,,,,,,,,,,,,,,,,,,,,,
2,145923, Note_off_c,0,69,0,,,,,,,,,,,,,,,,,,,,,,,,,
2,145939, Note_on_c,0,76,75,,,,,,,,,,,,,,,,,,,,,,,,,
2,146171, Note_off_c,0,76,0,,,,,,,,,,,,,,,,,,,,,,,,,
2,146187, Note_on_c,0,69,75,,,,,,,,,,,,,,,,,,,,,,,,,
2,146428, Note_off_c,0,69,0,,,,,,,,,,,,,,,,,,,,,,,,,
2,146444, Note_on_c,0,81,76,,,,,,,,,,,,,,,,,,,,,,,,,
2,146688, Note_on_c,0,81,75,,,,,,,,,,,,,,,,,,,,,,,,,
2,146756, Note_off_c,0,81,0,,,,,,,,,,,,,,,,,,,,,,,,,
2,146816, Note_off_c,0,81,0,,,,,,,,,,,,,,,,,,,,,,,,,
2,146816, Note_on_c,0,83,75,,,,,,,,,,,,,,,,,,,,,,,,,
2,146944, Note_off_c,0,83,0,,,,,,,,,,,,,,,,,,,,,,,,,
2,146949, Note_on_c,0,81,75,,,,,,,,,,,,,,,,,,,,,,,,,
2,147181, Note_off_c,0,81,0,,,,,,,,,,,,,,,,,,,,,,,,,
2,147197, Note_on_c,0,80,75,,,,,,,,,,,,,,,,,,,,,,,,,
2,147440, Note_off_c,0,80,0,,,,,,,,,,,,,,,,,,,,,,,,,
2,147460, Note_on_c,0,81,80,,,,,,,,,,,,,,,,,,,,,,,,,
2,147737, Note_off_c,0,81,0,,,,,,,,,,,,,,,,,,,,,,,,,
2,147753, Note_on_c,0,83,75,,,,,,,,,,,,,,,,,,,,,,,,,
2,147986, Note_off_c,0,83,0,,,,,,,,,,,,,,,,,,,,,,,,,
2,148002, Note_on_c,0,85,73,,,,,,,,,,,,,,,,,,,,,,,,,
2,148235, Note_off_c,0,85,0,,,,,,,,,,,,,,,,,,,,,,,,,
2,148251, Note_on_c,0,86,71,,,,,,,,,,,,,,,,,,,,,,,,,
2,148494, Note_off_c,0,86,0,,,,,,,,,,,,,,,,,,,,,,,,,
2,148510, Note_on_c,0,88,69,,,,,,,,,,,,,,,,,,,,,,,,,
2,148752, Note_off_c,0,88,0,,,,,,,,,,,,,,,,,,,,,,,,,
2,148768, Note_on_c,0,85,67,,,,,,,,,,,,,,,,,,,,,,,,,
2,148999, Note_off_c,0,85,0,,,,,,,,,,,,,,,,,,,,,,,,,
2,149015, Note_on_c,0,83,65,,,,,,,,,,,,,,,,,,,,,,,,,
2,149247, Note_off_c,0,83,0,,,,,,,,,,,,,,,,,,,,,,,,,
2,149263, Note_on_c,0,81,63,,,,,,,,,,,,,,,,,,,,,,,,,
2,149509, Note_off_c,0,81,0,,,,,,,,,,,,,,,,,,,,,,,,,
2,149525, Note_on_c,0,80,61,,,,,,,,,,,,,,,,,,,,,,,,,
2,150004, Note_off_c,0,80,0,,,,,,,,,,,,,,,,,,,,,,,,,
2,150035, Note_on_c,0,71,57,,,,,,,,,,,,,,,,,,,,,,,,,
2,150509, Note_off_c,0,71,0,,,,,,,,,,,,,,,,,,,,,,,,,
2,150540, Note_on_c,0,68,53,,,,,,,,,,,,,,,,,,,,,,,,,
2,151014, Note_off_c,0,68,0,,,,,,,,,,,,,,,,,,,,,,,,,
2,151045, Note_on_c,0,64,75,,,,,,,,,,,,,,,,,,,,,,,,,
2,151386, Note_on_c,0,69,72,,,,,,,,,,,,,,,,,,,,,,,,,
2,151471, Note_on_c,0,73,72,,,,,,,,,,,,,,,,,,,,,,,,,
2,151521, Note_off_c,0,64,0,,,,,,,,,,,,,,,,,,,,,,,,,
2,151556, Note_on_c,0,81,60,,,,,,,,,,,,,,,,,,,,,,,,,
2,152067, Note_off_c,0,69,0,,,,,,,,,,,,,,,,,,,,,,,,,
2,152067, Note_off_c,0,73,0,,,,,,,,,,,,,,,,,,,,,,,,,
2,152097, Note_off_c,0,81,0,,,,,,,,,,,,,,,,,,,,,,,,,
2,152098, Note_on_c,0,80,49,,,,,,,,,,,,,,,,,,,,,,,,,
2,152575, Note_off_c,0,80,0,,,,,,,,,,,,,,,,,,,,,,,,,
2,152606, Note_on_c,0,81,50,,,,,,,,,,,,,,,,,,,,,,,,,
2,153080, Note_off_c,0,81,0,,,,,,,,,,,,,,,,,,,,,,,,,
2,153111, Note_on_c,0,80,49,,,,,,,,,,,,,,,,,,,,,,,,,
2,153590, Note_off_c,0,80,0,,,,,,,,,,,,,,,,,,,,,,,,,
2,153621, Note_on_c,0,81,52,,,,,,,,,,,,,,,,,,,,,,,,,
2,154100, Note_off_c,0,81,0,,,,,,,,,,,,,,,,,,,,,,,,,
2,154131, Note_on_c,0,76,49,,,,,,,,,,,,,,,,,,,,,,,,,
2,154605, Note_off_c,0,76,0,,,,,,,,,,,,,,,,,,,,,,,,,
2,154636, Note_on_c,0,81,50,,,,,,,,,,,,,,,,,,,,,,,,,
2,155110, Note_off_c,0,81,0,,,,,,,,,,,,,,,,,,,,,,,,,
2,155141, Note_on_c,0,74,49,,,,,,,,,,,,,,,,,,,,,,,,,
2,155617, Note_off_c,0,74,0,,,,,,,,,,,,,,,,,,,,,,,,,
2,155652, Note_on_c,0,73,54,,,,,,,,,,,,,,,,,,,,,,,,,
2,156163, Note_off_c,0,73,0,,,,,,,,,,,,,,,,,,,,,,,,,
2,156194, Note_on_c,0,74,49,,,,,,,,,,,,,,,,,,,,,,,,,
2,156671, Note_off_c,0,74,0,,,,,,,,,,,,,,,,,,,,,,,,,
2,156702, Note_on_c,0,76,50,,,,,,,,,,,,,,,,,,,,,,,,,
2,157176, Note_off_c,0,76,0,,,,,,,,,,,,,,,,,,,,,,,,,
2,157207, Note_on_c,0,73,49,,,,,,,,,,,,,,,,,,,,,,,,,
2,157686, Note_off_c,0,73,0,,,,,,,,,,,,,,,,,,,,,,,,,
2,157717, Note_on_c,0,71,52,,,,,,,,,,,,,,,,,,,,,,,,,
2,158731, Note_off_c,0,71,0,,,,,,,,,,,,,,,,,,,,,,,,,
2,158732, Note_on_c,0,69,50,,,,,,,,,,,,,,,,,,,,,,,,,
2,159206, Note_off_c,0,69,0,,,,,,,,,,,,,,,,,,,,,,,,,
2,159237, Note_on_c,0,68,49,,,,,,,,,,,,,,,,,,,,,,,,,
2,159578, Note_on_c,0,61,46,,,,,,,,,,,,,,,,,,,,,,,,,
2,159663, Note_on_c,0,66,46,,,,,,,,,,,,,,,,,,,,,,,,,
2,159713, Note_off_c,0,68,0,,,,,,,,,,,,,,,,,,,,,,,,,
2,159748, Note_on_c,0,69,60,,,,,,,,,,,,,,,,,,,,,,,,,
2,160797, Note_off_c,0,61,0,,,,,,,,,,,,,,,,,,,,,,,,,
2,160797, Note_off_c,0,66,0,,,,,,,,,,,,,,,,,,,,,,,,,
2,160797, Note_off_c,0,69,0,,,,,,,,,,,,,,,,,,,,,,,,,
2,160798, Note_on_c,0,64,50,,,,,,,,,,,,,,,,,,,,,,,,,
2,161272, Note_off_c,0,64,0,,,,,,,,,,,,,,,,,,,,,,,,,
2,161303, Note_on_c,0,69,49,,,,,,,,,,,,,,,,,,,,,,,,,
2,161535, Note_off_c,0,69,0,,,,,,,,,,,,,,,,,,,,,,,,,
2,161551, Note_on_c,0,71,49,,,,,,,,,,,,,,,,,,,,,,,,,
2,161797, Note_off_c,0,71,0,,,,,,,,,,,,,,,,,,,,,,,,,
2,161813, Note_on_c,0,73,52,,,,,,,,,,,,,,,,,,,,,,,,,
2,162827, Note_off_c,0,73,0,,,,,,,,,,,,,,,,,,,,,,,,,
2,162828, Note_on_c,0,69,50,,,,,,,,,,,,,,,,,,,,,,,,,
2,163302, Note_off_c,0,69,0,,,,,,,,,,,,,,,,,,,,,,,,,
2,163333, Note_on_c,0,73,49,,,,,,,,,,,,,,,,,,,,,,,,,
2,163565, Note_off_c,0,73,0,,,,,,,,,,,,,,,,,,,,,,,,,
2,163581, Note_on_c,0,74,49,,,,,,,,,,,,,,,,,,,,,,,,,
2,163824, Note_off_c,0,74,0,,,,,,,,,,,,,,,,,,,,,,,,,
2,163844, Note_on_c,0,76,54,,,,,,,,,,,,,,,,,,,,,,,,,
2,164893, Note_off_c,0,76,0,,,,,,,,,,,,,,,,,,,,,,,,,
2,164894, Note_on_c,0,73,50,,,,,,,,,,,,,,,,,,,,,,,,,
2,165368, Note_off_c,0,73,0,,,,,,,,,,,,,,,,,,,,,,,,,
2,165399, Note_on_c,0,74,49,,,,,,,,,,,,,,,,,,,,,,,,,
2,165631, Note_off_c,0,74,0,,,,,,,,,,,,,,,,,,,,,,,,,
2,165647, Note_on_c,0,73,49,,,,,,,,,,,,,,,,,,,,,,,,,
2,165893, Note_off_c,0,73,0,,,,,,,,,,,,,,,,,,,,,,,,,
2,165909, Note_on_c,0,71,52,,,,,,,,,,,,,,,,,,,,,,,,,
2,166923, Note_off_c,0,71,0,,,,,,,,,,,,,,,,,,,,,,,,,
2,166924, Note_on_c,0,68,50,,,,,,,,,,,,,,,,,,,,,,,,,
2,167680, Note_on_c,0,69,49,,,,,,,,,,,,,,,,,,,,,,,,,
2,167808, Note_off_c,0,69,0,,,,,,,,,,,,,,,,,,,,,,,,,
2,167808, Note_on_c,0,73,49,,,,,,,,,,,,,,,,,,,,,,,,,
2,167935, Note_off_c,0,68,0,,,,,,,,,,,,,,,,,,,,,,,,,
2,167936, Note_off_c,0,73,0,,,,,,,,,,,,,,,,,,,,,,,,,
2,167940, Note_on_c,0,81,54,,,,,,,,,,,,,,,,,,,,,,,,,
2,168451, Note_off_c,0,81,0,,,,,,,,,,,,,,,,,,,,,,,,,
2,168482, Note_on_c,0,80,49,,,,,,,,,,,,,,,,,,,,,,,,,
2,168959, Note_off_c,0,80,0,,,,,,,,,,,,,,,,,,,,,,,,,
2,168990, Note_on_c,0,81,50,,,,,,,,,,,,,,,,,,,,,,,,,
2,169464, Note_off_c,0,81,0,,,,,,,,,,,,,,,,,,,,,,,,,
2,169495, Note_on_c,0,80,49,,,,,,,,,,,,,,,,,,,,,,,,,
2,169835, Note_on_c,0,69,44,,,,,,,,,,,,,,,,,,,,,,,,,
2,169920, Note_on_c,0,74,44,,,,,,,,,,,,,,,,,,,,,,,,,
2,169974, Note_off_c,0,80,0,,,,,,,,,,,,,,,,,,,,,,,,,
2,170005, Note_on_c,0,81,58,,,,,,,,,,,,,,,,,,,,,,,,,
2,170484, Note_off_c,0,69,0,,,,,,,,,,,,,,,,,,,,,,,,,
2,170484, Note_off_c,0,74,0,,,,,,,,,,,,,,,,,,,,,,,,,
2,170514, Note_off_c,0,81,0,,,,,,,,,,,,,,,,,,,,,,,,,
2,170515, Note_on_c,0,76,49,,,,,,,,,,,,,,,,,,,,,,,,,
2,170989, Note_off_c,0,76,0,,,,,,,,,,,,,,,,,,,,,,,,,
2,171020, Note_on_c,0,81,50,,,,,,,,,,,,,,,,,,,,,,,,,
2,171494, Note_off_c,0,81,0,,,,,,,,,,,,,,,,,,,,,,,,,
2,171525, Note_on_c,0,74,49,,,,,,,,,,,,,,,,,,,,,,,,,
2,172001, Note_off_c,0,74,0,,,,,,,,,,,,,,,,,,,,,,,,,
2,172032, Note_on_c,0,71,54,,,,,,,,,,,,,,,,,,,,,,,,,
2,172127, Note_on_c,0,73,44,,,,,,,,,,,,,,,,,,,,,,,,,
2,172138, Note_off_c,0,71,0,,,,,,,,,,,,,,,,,,,,,,,,,
2,172544, Note_off_c,0,73,0,,,,,,,,,,,,,,,,,,,,,,,,,
2,172578, Note_on_c,0,74,49,,,,,,,,,,,,,,,,,,,,,,,,,
2,173055, Note_off_c,0,74,0,,,,,,,,,,,,,,,,,,,,,,,,,
2,173086, Note_on_c,0,76,50,,,,,,,,,,,,,,,,,,,,,,,,,
2,173560, Note_off_c,0,76,0,,,,,,,,,,,,,,,,,,,,,,,,,
2,173591, Note_on_c,0,85,49,,,,,,,,,,,,,,,,,,,,,,,,,
2,174070, Note_off_c,0,85,0,,,,,,,,,,,,,,,,,,,,,,,,,
2,174101, Note_on_c,0,83,52,,,,,,,,,,,,,,,,,,,,,,,,,
2,175115, Note_off_c,0,83,0,,,,,,,,,,,,,,,,,,,,,,,,,
2,175116, Note_on_c,0,80,50,,,,,,,,,,,,,,,,,,,,,,,,,
2,175590, Note_off_c,0,80,0,,,,,,,,,,,,,,,,,,,,,,,,,
2,175621, Note_on_c,0,69,49,,,,,,,,,,,,,,,,,,,,,,,,,
2,175853, Note_off_c,0,69,0,,,,,,,,,,,,,,,,,,,,,,,,,
2,175869, Note_on_c,0,68,49,,,,,,,,,,,,,,,,,,,,,,,,,
2,176112, Note_off_c,0,68,0,,,,,,,,,,,,,,,,,,,,,,,,,
2,176132, Note_on_c,0,69,54,,,,,,,,,,,,,,,,,,,,,,,,,
2,177686, Note_off_c,0,69,0,,,,,,,,,,,,,,,,,,,,,,,,,
2,177687, Note_on_c,0,69,49,,,,,,,,,,,,,,,,,,,,,,,,,
2,177919, Note_off_c,0,69,0,,,,,,,,,,,,,,,,,,,,,,,,,
2,177935, Note_on_c,0,71,49,,,,,,,,,,,,,,,,,,,,,,,,,
2,178181, Note_off_c,0,71,0,,,,,,,,,,,,,,,,,,,,,,,,,
2,178197, Note_on_c,0,73,52,,,,,,,,,,,,,,,,,,,,,,,,,
2,179211, Note_off_c,0,73,0,,,,,,,,,,,,,,,,,,,,,,,,,
2,179212, Note_on_c,0,69,50,,,,,,,,,,,,,,,,,,,,,,,,,
2,179686, Note_off_c,0,69,0,,,,,,,,,,,,,,,,,,,,,,,,,
2,179717, Note_on_c,0,73,49,,,,,,,,,,,,,,,,,,,,,,,,,
2,179949, Note_off_c,0,73,0,,,,,,,,,,,,,,,,,,,,,,,,,
2,179965, Note_on_c,0,74,49,,,,,,,,,,,,,,,,,,,,,,,,,
2,180208, Note_off_c,0,74,0,,,,,,,,,,,,,,,,,,,,,,,,,
2,180228, Note_on_c,0,76,54,,,,,,,,,,,,,,,,,,,,,,,,,
2,181277, Note_off_c,0,76,0,,,,,,,,,,,,,,,,,,,,,,,,,
2,181278, Note_on_c,0,73,50,,,,,,,,,,,,,,,,,,,,,,,,,
2,181752, Note_off_c,0,73,0,,,,,,,,,,,,,,,,,,,,,,,,,
2,181783, Note_on_c,0,74,49,,,,,,,,,,,,,,,,,,,,,,,,,
2,182015, Note_off_c,0,74,0,,,,,,,,,,,,,,,,,,,,,,,,,
2,182031, Note_on_c,0,73,49,,,,,,,,,,,,,,,,,,,,,,,,,
2,182277, Note_off_c,0,73,0,,,,,,,,,,,,,,,,,,,,,,,,,
2,182293, Note_on_c,0,71,52,,,,,,,,,,,,,,,,,,,,,,,,,
2,183307, Note_off_c,0,71,0,,,,,,,,,,,,,,,,,,,,,,,,,
2,183308, Note_on_c,0,68,50,,,,,,,,,,,,,,,,,,,,,,,,,
2,184149, Note_off_c,0,68,0,,,,,,,,,,,,,,,,,,,,,,,,,
2,184324, Note_on_c,0,73,54,,,,,,,,,,,,,,,,,,,,,,,,,
2,184835, Note_off_c,0,73,0,,,,,,,,,,,,,,,,,,,,,,,,,
2,184866, Note_on_c,0,57,49,,,,,,,,,,,,,,,,,,,,,,,,,
2,185343, Note_off_c,0,57,0,,,,,,,,,,,,,,,,,,,,,,,,,
2,185374, Note_on_c,0,61,50,,,,,,,,,,,,,,,,,,,,,,,,,
2,185848, Note_off_c,0,61,0,,,,,,,,,,,,,,,,,,,,,,,,,
2,185879, Note_on_c,0,66,49,,,,,,,,,,,,,,,,,,,,,,,,,
2,187233, Note_off_c,0,66,0,,,,,,,,,,,,,,,,,,,,,,,,,
2,187404, Note_on_c,0,69,50,,,,,,,,,,,,,,,,,,,,,,,,,
2,192511, Note_off_c,0,69,0,,,,,,,,,,,,,,,,,,,,,,,,,
2,192511, End_track,,,,,,,,,,,,,,,,,,,,,,,,,,,,
3,0, Start_track,,,,,,,,,,,,,,,,,,,,,,,,,,,,
3,0, Unknown_meta_event,9,26,68,101,102,97,117,108,116,32,77,73,68,73,32,79,117,116,112,117,116,32,68,101,118,105,99,101
3,0, Title_t,ARIA Player,,,,,,,,,,,,,,,,,,,,,,,,,,,
3,0, Program_c,1,0,,,,,,,,,,,,,,,,,,,,,,,,,,
3,0, Control_c,1,7,101,,,,,,,,,,,,,,,,,,,,,,,,,
3,0, Control_c,1,10,127,,,,,,,,,,,,,,,,,,,,,,,,,
3,0, Control_c,1,7,102,,,,,,,,,,,,,,,,,,,,,,,,,
3,0, Control_c,1,7,110,,,,,,,,,,,,,,,,,,,,,,,,,
3,10, Control_c,1,7,102,,,,,,,,,,,,,,,,,,,,,,,,,
3,10, Note_on_c,1,54,69,,,,,,,,,,,,,,,,,,,,,,,,,
3,515, Note_off_c,1,54,0,,,,,,,,,,,,,,,,,,,,,,,,,
3,546, Note_on_c,1,61,64,,,,,,,,,,,,,,,,,,,,,,,,,
3,1023, Note_off_c,1,61,0,,,,,,,,,,,,,,,,,,,,,,,,,
3,1054, Note_on_c,1,66,65,,,,,,,,,,,,,,,,,,,,,,,,,
3,2052, Control_c,1,64,127,,,,,,,,,,,,,,,,,,,,,,,,,
3,2068, Note_off_c,1,66,0,,,,,,,,,,,,,,,,,,,,,,,,,
3,2069, Note_on_c,1,50,67,,,,,,,,,,,,,,,,,,,,,,,,,
3,2548, Note_off_c,1,50,0,,,,,,,,,,,,,,,,,,,,,,,,,
3,2579, Note_on_c,1,57,64,,,,,,,,,,,,,,,,,,,,,,,,,
3,3053, Note_off_c,1,57,0,,,,,,,,,,,,,,,,,,,,,,,,,
3,3084, Note_on_c,1,64,65,,,,,,,,,,,,,,,,,,,,,,,,,
3,4095, Note_off_c,1,64,0,,,,,,,,,,,,,,,,,,,,,,,,,
3,8196, Note_on_c,1,54,69,,,,,,,,,,,,,,,,,,,,,,,,,
3,8707, Note_off_c,1,54,0,,,,,,,,,,,,,,,,,,,,,,,,,
3,8738, Note_on_c,1,61,64,,,,,,,,,,,,,,,,,,,,,,,,,
3,9215, Note_off_c,1,61,0,,,,,,,,,,,,,,,,,,,,,,,,,
3,9246, Note_on_c,1,66,65,,,,,,,,,,,,,,,,,,,,,,,,,
3,10244, Control_c,1,64,127,,,,,,,,,,,,,,,,,,,,,,,,,
3,10260, Note_off_c,1,66,0,,,,,,,,,,,,,,,,,,,,,,,,,
3,10261, Note_on_c,1,50,67,,,,,,,,,,,,,,,,,,,,,,,,,
3,10740, Note_off_c,1,50,0,,,,,,,,,,,,,,,,,,,,,,,,,
3,10771, Note_on_c,1,57,64,,,,,,,,,,,,,,,,,,,,,,,,,
3,11245, Note_off_c,1,57,0,,,,,,,,,,,,,,,,,,,,,,,,,
3,11276, Note_on_c,1,64,65,,,,,,,,,,,,,,,,,,,,,,,,,
3,12287, Note_off_c,1,64,0,,,,,,,,,,,,,,,,,,,,,,,,,
3,16388, Note_on_c,1,54,69,,,,,,,,,,,,,,,,,,,,,,,,,
3,16899, Note_off_c,1,54,0,,,,,,,,,,,,,,,,,,,,,,,,,
3,16930, Note_on_c,1,61,64,,,,,,,,,,,,,,,,,,,,,,,,,
3,17407, Note_off_c,1,61,0,,,,,,,,,,,,,,,,,,,,,,,,,
3,17438, Note_on_c,1,66,65,,,,,,,,,,,,,,,,,,,,,,,,,
3,18452, Note_off_c,1,66,0,,,,,,,,,,,,,,,,,,,,,,,,,
3,18453, Note_on_c,1,50,67,,,,,,,,,,,,,,,,,,,,,,,,,
3,18932, Note_off_c,1,50,0,,,,,,,,,,,,,,,,,,,,,,,,,
3,18963, Note_on_c,1,57,64,,,,,,,,,,,,,,,,,,,,,,,,,
3,19437, Note_off_c,1,57,0,,,,,,,,,,,,,,,,,,,,,,,,,
3,19468, Note_on_c,1,64,65,,,,,,,,,,,,,,,,,,,,,,,,,
3,19942, Note_off_c,1,64,0,,,,,,,,,,,,,,,,,,,,,,,,,
3,19973, Note_on_c,1,50,64,,,,,,,,,,,,,,,,,,,,,,,,,
3,20449, Note_off_c,1,50,0,,,,,,,,,,,,,,,,,,,,,,,,,
3,20484, Note_on_c,1,45,69,,,,,,,,,,,,,,,,,,,,,,,,,
3,20995, Note_off_c,1,45,0,,,,,,,,,,,,,,,,,,,,,,,,,
3,21026, Note_on_c,1,52,64,,,,,,,,,,,,,,,,,,,,,,,,,
3,21503, Note_off_c,1,52,0,,,,,,,,,,,,,,,,,,,,,,,,,
3,21534, Note_on_c,1,61,65,,,,,,,,,,,,,,,,,,,,,,,,,
3,22548, Note_off_c,1,61,0,,,,,,,,,,,,,,,,,,,,,,,,,
3,22549, Note_on_c,1,52,67,,,,,,,,,,,,,,,,,,,,,,,,,
3,23028, Note_off_c,1,52,0,,,,,,,,,,,,,,,,,,,,,,,,,
3,23059, Note_on_c,1,59,64,,,,,,,,,,,,,,,,,,,,,,,,,
3,23533, Note_off_c,1,59,0,,,,,,,,,,,,,,,,,,,,,,,,,
3,23564, Note_on_c,1,64,65,,,,,,,,,,,,,,,,,,,,,,,,,
3,24575, Note_off_c,1,64,0,,,,,,,,,,,,,,,,,,,,,,,,,
3,24580, Note_on_c,1,54,69,,,,,,,,,,,,,,,,,,,,,,,,,
3,25091, Note_off_c,1,54,0,,,,,,,,,,,,,,,,,,,,,,,,,
3,25122, Note_on_c,1,61,64,,,,,,,,,,,,,,,,,,,,,,,,,
3,25599, Note_off_c,1,61,0,,,,,,,,,,,,,,,,,,,,,,,,,
3,25630, Note_on_c,1,66,65,,,,,,,,,,,,,,,,,,,,,,,,,
3,26644, Note_off_c,1,66,0,,,,,,,,,,,,,,,,,,,,,,,,,
3,26645, Note_on_c,1,50,67,,,,,,,,,,,,,,,,,,,,,,,,,
3,27124, Note_off_c,1,50,0,,,,,,,,,,,,,,,,,,,,,,,,,
3,27155, Note_on_c,1,57,64,,,,,,,,,,,,,,,,,,,,,,,,,
3,27629, Note_off_c,1,57,0,,,,,,,,,,,,,,,,,,,,,,,,,
3,27660, Note_on_c,1,64,65,,,,,,,,,,,,,,,,,,,,,,,,,
3,28671, Note_off_c,1,64,0,,,,,,,,,,,,,,,,,,,,,,,,,
3,28676, Note_on_c,1,45,69,,,,,,,,,,,,,,,,,,,,,,,,,
3,29187, Note_off_c,1,45,0,,,,,,,,,,,,,,,,,,,,,,,,,
3,29218, Note_on_c,1,52,64,,,,,,,,,,,,,,,,,,,,,,,,,
3,29695, Note_off_c,1,52,0,,,,,,,,,,,,,,,,,,,,,,,,,
3,29726, Note_on_c,1,61,65,,,,,,,,,,,,,,,,,,,,,,,,,
3,30740, Note_off_c,1,61,0,,,,,,,,,,,,,,,,,,,,,,,,,
3,30741, Note_on_c,1,52,67,,,,,,,,,,,,,,,,,,,,,,,,,
3,31220, Note_off_c,1,52,0,,,,,,,,,,,,,,,,,,,,,,,,,
3,31251, Note_on_c,1,59,64,,,,,,,,,,,,,,,,,,,,,,,,,
3,31725, Note_off_c,1,59,0,,,,,,,,,,,,,,,,,,,,,,,,,
3,31756, Note_on_c,1,68,65,,,,,,,,,,,,,,,,,,,,,,,,,
3,32767, Note_off_c,1,68,0,,,,,,,,,,,,,,,,,,,,,,,,,
3,32772, Note_on_c,1,54,69,,,,,,,,,,,,,,,,,,,,,,,,,
3,33283, Note_off_c,1,54,0,,,,,,,,,,,,,,,,,,,,,,,,,
3,33314, Note_on_c,1,61,64,,,,,,,,,,,,,,,,,,,,,,,,,
3,33791, Note_off_c,1,61,0,,,,,,,,,,,,,,,,,,,,,,,,,
3,33822, Note_on_c,1,66,65,,,,,,,,,,,,,,,,,,,,,,,,,
3,34836, Note_off_c,1,66,0,,,,,,,,,,,,,,,,,,,,,,,,,
3,34837, Note_on_c,1,50,55,,,,,,,,,,,,,,,,,,,,,,,,,
3,35347, Note_on_c,1,57,52,,,,,,,,,,,,,,,,,,,,,,,,,
3,35377, Note_off_c,1,50,0,,,,,,,,,,,,,,,,,,,,,,,,,
3,35852, Note_on_c,1,64,53,,,,,,,,,,,,,,,,,,,,,,,,,
3,35882, Note_off_c,1,57,0,,,,,,,,,,,,,,,,,,,,,,,,,
3,36357, Note_on_c,1,50,52,,,,,,,,,,,,,,,,,,,,,,,,,
3,36387, Note_off_c,1,64,0,,,,,,,,,,,,,,,,,,,,,,,,,
3,36868, Note_on_c,1,45,57,,,,,,,,,,,,,,,,,,,,,,,,,
3,36894, Note_off_c,1,50,0,,,,,,,,,,,,,,,,,,,,,,,,,
3,37410, Note_on_c,1,52,52,,,,,,,,,,,,,,,,,,,,,,,,,
3,37440, Note_off_c,1,45,0,,,,,,,,,,,,,,,,,,,,,,,,,
3,37918, Note_on_c,1,61,53,,,,,,,,,,,,,,,,,,,,,,,,,
3,37948, Note_off_c,1,52,0,,,,,,,,,,,,,,,,,,,,,,,,,
3,38423, Note_on_c,1,45,52,,,,,,,,,,,,,,,,,,,,,,,,,
3,38453, Note_off_c,1,61,0,,,,,,,,,,,,,,,,,,,,,,,,,
3,38933, Note_on_c,1,52,55,,,,,,,,,,,,,,,,,,,,,,,,,
3,38963, Note_off_c,1,45,0,,,,,,,,,,,,,,,,,,,,,,,,,
3,39443, Note_on_c,1,59,52,,,,,,,,,,,,,,,,,,,,,,,,,
3,39473, Note_off_c,1,52,0,,,,,,,,,,,,,,,,,,,,,,,,,
3,39948, Note_on_c,1,64,65,,,,,,,,,,,,,,,,,,,,,,,,,
3,39978, Note_off_c,1,59,0,,,,,,,,,,,,,,,,,,,,,,,,,
3,40959, Note_off_c,1,64,0,,,,,,,,,,,,,,,,,,,,,,,,,
3,40964, Note_on_c,1,54,69,,,,,,,,,,,,,,,,,,,,,,,,,
3,41475, Note_off_c,1,54,0,,,,,,,,,,,,,,,,,,,,,,,,,
3,41506, Note_on_c,1,61,64,,,,,,,,,,,,,,,,,,,,,,,,,
3,41983, Note_off_c,1,61,0,,,,,,,,,,,,,,,,,,,,,,,,,
3,42014, Note_on_c,1,66,65,,,,,,,,,,,,,,,,,,,,,,,,,
3,43028, Note_off_c,1,66,0,,,,,,,,,,,,,,,,,,,,,,,,,
3,43029, Note_on_c,1,50,67,,,,,,,,,,,,,,,,,,,,,,,,,
3,43508, Note_off_c,1,50,0,,,,,,,,,,,,,,,,,,,,,,,,,
3,43539, Note_on_c,1,57,64,,,,,,,,,,,,,,,,,,,,,,,,,
3,44013, Note_off_c,1,57,0,,,,,,,,,,,,,,,,,,,,,,,,,
3,44044, Note_on_c,1,64,65,,,,,,,,,,,,,,,,,,,,,,,,,
3,45055, Note_off_c,1,64,0,,,,,,,,,,,,,,,,,,,,,,,,,
3,45060, Note_on_c,1,45,69,,,,,,,,,,,,,,,,,,,,,,,,,
3,45571, Note_off_c,1,45,0,,,,,,,,,,,,,,,,,,,,,,,,,
3,45602, Note_on_c,1,52,64,,,,,,,,,,,,,,,,,,,,,,,,,
3,46079, Note_off_c,1,52,0,,,,,,,,,,,,,,,,,,,,,,,,,
3,46110, Note_on_c,1,61,65,,,,,,,,,,,,,,,,,,,,,,,,,
3,47124, Note_off_c,1,61,0,,,,,,,,,,,,,,,,,,,,,,,,,
3,47125, Note_on_c,1,52,67,,,,,,,,,,,,,,,,,,,,,,,,,
3,47604, Note_off_c,1,52,0,,,,,,,,,,,,,,,,,,,,,,,,,
3,47635, Note_on_c,1,59,64,,,,,,,,,,,,,,,,,,,,,,,,,
3,48109, Note_off_c,1,59,0,,,,,,,,,,,,,,,,,,,,,,,,,
3,48140, Note_on_c,1,64,65,,,,,,,,,,,,,,,,,,,,,,,,,
3,49151, Note_off_c,1,64,0,,,,,,,,,,,,,,,,,,,,,,,,,
3,49156, Note_on_c,1,54,57,,,,,,,,,,,,,,,,,,,,,,,,,
3,49698, Note_on_c,1,61,52,,,,,,,,,,,,,,,,,,,,,,,,,
3,49728, Note_off_c,1,54,0,,,,,,,,,,,,,,,,,,,,,,,,,
3,50206, Note_on_c,1,66,53,,,,,,,,,,,,,,,,,,,,,,,,,
3,50236, Note_off_c,1,61,0,,,,,,,,,,,,,,,,,,,,,,,,,
3,50711, Note_on_c,1,54,52,,,,,,,,,,,,,,,,,,,,,,,,,
3,50741, Note_off_c,1,66,0,,,,,,,,,,,,,,,,,,,,,,,,,
3,51221, Note_on_c,1,50,55,,,,,,,,,,,,,,,,,,,,,,,,,
3,51251, Note_off_c,1,54,0,,,,,,,,,,,,,,,,,,,,,,,,,
3,51731, Note_on_c,1,57,52,,,,,,,,,,,,,,,,,,,,,,,,,
3,51761, Note_off_c,1,50,0,,,,,,,,,,,,,,,,,,,,,,,,,
3,52236, Note_on_c,1,64,53,,,,,,,,,,,,,,,,,,,,,,,,,
3,52266, Note_off_c,1,57,0,,,,,,,,,,,,,,,,,,,,,,,,,
3,52741, Note_on_c,1,50,52,,,,,,,,,,,,,,,,,,,,,,,,,
3,52771, Note_off_c,1,64,0,,,,,,,,,,,,,,,,,,,,,,,,,
3,53252, Note_on_c,1,45,57,,,,,,,,,,,,,,,,,,,,,,,,,
3,53278, Note_off_c,1,50,0,,,,,,,,,,,,,,,,,,,,,,,,,
3,53794, Note_on_c,1,52,52,,,,,,,,,,,,,,,,,,,,,,,,,
3,53824, Note_off_c,1,45,0,,,,,,,,,,,,,,,,,,,,,,,,,
3,54302, Note_on_c,1,61,53,,,,,,,,,,,,,,,,,,,,,,,,,
3,54332, Note_off_c,1,52,0,,,,,,,,,,,,,,,,,,,,,,,,,
3,54807, Note_on_c,1,45,52,,,,,,,,,,,,,,,,,,,,,,,,,
3,54837, Note_off_c,1,61,0,,,,,,,,,,,,,,,,,,,,,,,,,
3,55317, Note_on_c,1,52,55,,,,,,,,,,,,,,,,,,,,,,,,,
3,55347, Note_off_c,1,45,0,,,,,,,,,,,,,,,,,,,,,,,,,
3,55827, Note_on_c,1,59,52,,,,,,,,,,,,,,,,,,,,,,,,,
3,55857, Note_off_c,1,52,0,,,,,,,,,,,,,,,,,,,,,,,,,
3,56332, Note_on_c,1,64,53,,,,,,,,,,,,,,,,,,,,,,,,,
3,56362, Note_off_c,1,59,0,,,,,,,,,,,,,,,,,,,,,,,,,
3,56837, Note_on_c,1,52,52,,,,,,,,,,,,,,,,,,,,,,,,,
3,56867, Note_off_c,1,64,0,,,,,,,,,,,,,,,,,,,,,,,,,
3,57348, Note_on_c,1,54,57,,,,,,,,,,,,,,,,,,,,,,,,,
3,57374, Note_off_c,1,52,0,,,,,,,,,,,,,,,,,,,,,,,,,
3,57890, Note_on_c,1,61,52,,,,,,,,,,,,,,,,,,,,,,,,,
3,57920, Note_off_c,1,54,0,,,,,,,,,,,,,,,,,,,,,,,,,
3,58398, Note_on_c,1,66,53,,,,,,,,,,,,,,,,,,,,,,,,,
3,58428, Note_off_c,1,61,0,,,,,,,,,,,,,,,,,,,,,,,,,
3,58903, Note_on_c,1,54,52,,,,,,,,,,,,,,,,,,,,,,,,,
3,58933, Note_off_c,1,66,0,,,,,,,,,,,,,,,,,,,,,,,,,
3,59413, Note_on_c,1,50,55,,,,,,,,,,,,,,,,,,,,,,,,,
3,59443, Note_off_c,1,54,0,,,,,,,,,,,,,,,,,,,,,,,,,
3,59923, Note_on_c,1,57,52,,,,,,,,,,,,,,,,,,,,,,,,,
3,59953, Note_off_c,1,50,0,,,,,,,,,,,,,,,,,,,,,,,,,
3,60428, Note_on_c,1,64,53,,,,,,,,,,,,,,,,,,,,,,,,,
3,60458, Note_off_c,1,57,0,,,,,,,,,,,,,,,,,,,,,,,,,
3,60933, Note_on_c,1,50,52,,,,,,,,,,,,,,,,,,,,,,,,,
3,60963, Note_off_c,1,64,0,,,,,,,,,,,,,,,,,,,,,,,,,
3,61444, Note_on_c,1,45,57,,,,,,,,,,,,,,,,,,,,,,,,,
3,61470, Note_off_c,1,50,0,,,,,,,,,,,,,,,,,,,,,,,,,
3,61986, Note_on_c,1,52,52,,,,,,,,,,,,,,,,,,,,,,,,,
3,62016, Note_off_c,1,45,0,,,,,,,,,,,,,,,,,,,,,,,,,
3,62494, Note_on_c,1,61,53,,,,,,,,,,,,,,,,,,,,,,,,,
3,62524, Note_off_c,1,52,0,,,,,,,,,,,,,,,,,,,,,,,,,
3,62999, Note_on_c,1,45,52,,,,,,,,,,,,,,,,,,,,,,,,,
3,63029, Note_off_c,1,61,0,,,,,,,,,,,,,,,,,,,,,,,,,
3,63509, Note_on_c,1,52,55,,,,,,,,,,,,,,,,,,,,,,,,,
3,63539, Note_off_c,1,45,0,,,,,,,,,,,,,,,,,,,,,,,,,
3,64019, Note_on_c,1,59,52,,,,,,,,,,,,,,,,,,,,,,,,,
3,64049, Note_off_c,1,52,0,,,,,,,,,,,,,,,,,,,,,,,,,
3,64524, Note_on_c,1,64,53,,,,,,,,,,,,,,,,,,,,,,,,,
3,64554, Note_off_c,1,59,0,,,,,,,,,,,,,,,,,,,,,,,,,
3,65029, Note_on_c,1,52,52,,,,,,,,,,,,,,,,,,,,,,,,,
3,65059, Note_off_c,1,64,0,,,,,,,,,,,,,,,,,,,,,,,,,
3,65540, Note_on_c,1,42,57,,,,,,,,,,,,,,,,,,,,,,,,,
3,65566, Note_off_c,1,52,0,,,,,,,,,,,,,,,,,,,,,,,,,
3,66082, Note_on_c,1,49,52,,,,,,,,,,,,,,,,,,,,,,,,,
3,66112, Note_off_c,1,42,0,,,,,,,,,,,,,,,,,,,,,,,,,
3,66590, Note_on_c,1,54,53,,,,,,,,,,,,,,,,,,,,,,,,,
3,66620, Note_off_c,1,49,0,,,,,,,,,,,,,,,,,,,,,,,,,
3,67095, Note_on_c,1,42,52,,,,,,,,,,,,,,,,,,,,,,,,,
3,67125, Note_off_c,1,54,0,,,,,,,,,,,,,,,,,,,,,,,,,
3,67605, Note_on_c,1,50,55,,,,,,,,,,,,,,,,,,,,,,,,,
3,67635, Note_off_c,1,42,0,,,,,,,,,,,,,,,,,,,,,,,,,
3,68115, Note_on_c,1,57,52,,,,,,,,,,,,,,,,,,,,,,,,,
3,68145, Note_off_c,1,50,0,,,,,,,,,,,,,,,,,,,,,,,,,
3,68620, Note_on_c,1,64,65,,,,,,,,,,,,,,,,,,,,,,,,,
3,68650, Note_off_c,1,57,0,,,,,,,,,,,,,,,,,,,,,,,,,
3,69631, Note_off_c,1,64,0,,,,,,,,,,,,,,,,,,,,,,,,,
3,69636, Note_on_c,1,45,57,,,,,,,,,,,,,,,,,,,,,,,,,
3,70178, Note_on_c,1,52,52,,,,,,,,,,,,,,,,,,,,,,,,,
3,70208, Note_off_c,1,45,0,,,,,,,,,,,,,,,,,,,,,,,,,
3,70686, Note_on_c,1,61,53,,,,,,,,,,,,,,,,,,,,,,,,,
3,70716, Note_off_c,1,52,0,,,,,,,,,,,,,,,,,,,,,,,,,
3,71191, Note_on_c,1,45,52,,,,,,,,,,,,,,,,,,,,,,,,,
3,71221, Note_off_c,1,61,0,,,,,,,,,,,,,,,,,,,,,,,,,
3,71701, Note_on_c,1,40,54,,,,,,,,,,,,,,,,,,,,,,,,,
3,71731, Note_off_c,1,45,0,,,,,,,,,,,,,,,,,,,,,,,,,
3,72211, Note_on_c,1,47,52,,,,,,,,,,,,,,,,,,,,,,,,,
3,72241, Note_off_c,1,40,0,,,,,,,,,,,,,,,,,,,,,,,,,
3,72716, Note_on_c,1,52,53,,,,,,,,,,,,,,,,,,,,,,,,,
3,72746, Note_off_c,1,47,0,,,,,,,,,,,,,,,,,,,,,,,,,
3,73221, Note_on_c,1,40,51,,,,,,,,,,,,,,,,,,,,,,,,,
3,73251, Note_off_c,1,52,0,,,,,,,,,,,,,,,,,,,,,,,,,
3,73732, Note_on_c,1,42,57,,,,,,,,,,,,,,,,,,,,,,,,,
3,73758, Note_off_c,1,40,0,,,,,,,,,,,,,,,,,,,,,,,,,
3,74274, Note_on_c,1,49,52,,,,,,,,,,,,,,,,,,,,,,,,,
3,74304, Note_off_c,1,42,0,,,,,,,,,,,,,,,,,,,,,,,,,
3,74782, Note_on_c,1,54,53,,,,,,,,,,,,,,,,,,,,,,,,,
3,74812, Note_off_c,1,49,0,,,,,,,,,,,,,,,,,,,,,,,,,
3,75287, Note_on_c,1,42,52,,,,,,,,,,,,,,,,,,,,,,,,,
3,75317, Note_off_c,1,54,0,,,,,,,,,,,,,,,,,,,,,,,,,
3,75797, Note_on_c,1,50,55,,,,,,,,,,,,,,,,,,,,,,,,,
3,75827, Note_off_c,1,42,0,,,,,,,,,,,,,,,,,,,,,,,,,
3,76307, Note_on_c,1,57,52,,,,,,,,,,,,,,,,,,,,,,,,,
3,76337, Note_off_c,1,50,0,,,,,,,,,,,,,,,,,,,,,,,,,
3,76812, Note_on_c,1,64,53,,,,,,,,,,,,,,,,,,,,,,,,,
3,76842, Note_off_c,1,57,0,,,,,,,,,,,,,,,,,,,,,,,,,
3,77317, Note_on_c,1,50,52,,,,,,,,,,,,,,,,,,,,,,,,,
3,77347, Note_off_c,1,64,0,,,,,,,,,,,,,,,,,,,,,,,,,
3,77828, Note_on_c,1,45,57,,,,,,,,,,,,,,,,,,,,,,,,,
3,77854, Note_off_c,1,50,0,,,,,,,,,,,,,,,,,,,,,,,,,
3,78370, Note_on_c,1,52,52,,,,,,,,,,,,,,,,,,,,,,,,,
3,78400, Note_off_c,1,45,0,,,,,,,,,,,,,,,,,,,,,,,,,
3,78878, Note_on_c,1,61,53,,,,,,,,,,,,,,,,,,,,,,,,,
3,78908, Note_off_c,1,52,0,,,,,,,,,,,,,,,,,,,,,,,,,
3,79383, Note_on_c,1,45,52,,,,,,,,,,,,,,,,,,,,,,,,,
3,79413, Note_off_c,1,61,0,,,,,,,,,,,,,,,,,,,,,,,,,
3,79876, Control_c,1,64,127,,,,,,,,,,,,,,,,,,,,,,,,,
3,79893, Note_on_c,1,40,54,,,,,,,,,,,,,,,,,,,,,,,,,
3,79923, Note_off_c,1,45,0,,,,,,,,,,,,,,,,,,,,,,,,,
3,80403, Note_on_c,1,47,52,,,,,,,,,,,,,,,,,,,,,,,,,
3,80433, Note_off_c,1,40,0,,,,,,,,,,,,,,,,,,,,,,,,,
3,80908, Note_on_c,1,56,65,,,,,,,,,,,,,,,,,,,,,,,,,
3,80938, Note_off_c,1,47,0,,,,,,,,,,,,,,,,,,,,,,,,,
3,81919, Note_off_c,1,56,0,,,,,,,,,,,,,,,,,,,,,,,,,
3,86020, Note_on_c,1,54,69,,,,,,,,,,,,,,,,,,,,,,,,,
3,86531, Note_off_c,1,54,0,,,,,,,,,,,,,,,,,,,,,,,,,
3,86562, Note_on_c,1,61,64,,,,,,,,,,,,,,,,,,,,,,,,,
3,87039, Note_off_c,1,61,0,,,,,,,,,,,,,,,,,,,,,,,,,
3,87070, Note_on_c,1,66,65,,,,,,,,,,,,,,,,,,,,,,,,,
3,88084, Note_off_c,1,66,0,,,,,,,,,,,,,,,,,,,,,,,,,
3,88085, Note_on_c,1,50,55,,,,,,,,,,,,,,,,,,,,,,,,,
3,88595, Note_on_c,1,57,52,,,,,,,,,,,,,,,,,,,,,,,,,
3,88625, Note_off_c,1,50,0,,,,,,,,,,,,,,,,,,,,,,,,,
3,89100, Note_on_c,1,64,53,,,,,,,,,,,,,,,,,,,,,,,,,
3,89130, Note_off_c,1,57,0,,,,,,,,,,,,,,,,,,,,,,,,,
3,89605, Note_on_c,1,50,52,,,,,,,,,,,,,,,,,,,,,,,,,
3,89635, Note_off_c,1,64,0,,,,,,,,,,,,,,,,,,,,,,,,,
3,90116, Note_on_c,1,45,57,,,,,,,,,,,,,,,,,,,,,,,,,
3,90142, Note_off_c,1,50,0,,,,,,,,,,,,,,,,,,,,,,,,,
3,90658, Note_on_c,1,52,52,,,,,,,,,,,,,,,,,,,,,,,,,
3,90688, Note_off_c,1,45,0,,,,,,,,,,,,,,,,,,,,,,,,,
3,91166, Note_on_c,1,61,53,,,,,,,,,,,,,,,,,,,,,,,,,
3,91196, Note_off_c,1,52,0,,,,,,,,,,,,,,,,,,,,,,,,,
3,91671, Note_on_c,1,45,52,,,,,,,,,,,,,,,,,,,,,,,,,
3,91701, Note_off_c,1,61,0,,,,,,,,,,,,,,,,,,,,,,,,,
3,92181, Note_on_c,1,52,55,,,,,,,,,,,,,,,,,,,,,,,,,
3,92211, Note_off_c,1,45,0,,,,,,,,,,,,,,,,,,,,,,,,,
3,92691, Note_on_c,1,59,52,,,,,,,,,,,,,,,,,,,,,,,,,
3,92721, Note_off_c,1,52,0,,,,,,,,,,,,,,,,,,,,,,,,,
3,93196, Note_on_c,1,64,65,,,,,,,,,,,,,,,,,,,,,,,,,
3,93226, Note_off_c,1,59,0,,,,,,,,,,,,,,,,,,,,,,,,,
3,94207, Note_off_c,1,64,0,,,,,,,,,,,,,,,,,,,,,,,,,
3,94212, Note_on_c,1,54,69,,,,,,,,,,,,,,,,,,,,,,,,,
3,94723, Note_off_c,1,54,0,,,,,,,,,,,,,,,,,,,,,,,,,
3,94754, Note_on_c,1,61,64,,,,,,,,,,,,,,,,,,,,,,,,,
3,95231, Note_off_c,1,61,0,,,,,,,,,,,,,,,,,,,,,,,,,
3,95262, Note_on_c,1,66,65,,,,,,,,,,,,,,,,,,,,,,,,,
3,96276, Note_off_c,1,66,0,,,,,,,,,,,,,,,,,,,,,,,,,
3,96277, Note_on_c,1,50,67,,,,,,,,,,,,,,,,,,,,,,,,,
3,96756, Note_off_c,1,50,0,,,,,,,,,,,,,,,,,,,,,,,,,
3,96787, Note_on_c,1,57,64,,,,,,,,,,,,,,,,,,,,,,,,,
3,97261, Note_off_c,1,57,0,,,,,,,,,,,,,,,,,,,,,,,,,
3,97292, Note_on_c,1,64,65,,,,,,,,,,,,,,,,,,,,,,,,,
3,98303, Note_off_c,1,64,0,,,,,,,,,,,,,,,,,,,,,,,,,
3,98308, Note_on_c,1,45,69,,,,,,,,,,,,,,,,,,,,,,,,,
3,98819, Note_off_c,1,45,0,,,,,,,,,,,,,,,,,,,,,,,,,
3,98850, Note_on_c,1,52,64,,,,,,,,,,,,,,,,,,,,,,,,,
3,99327, Note_off_c,1,52,0,,,,,,,,,,,,,,,,,,,,,,,,,
3,99358, Note_on_c,1,61,65,,,,,,,,,,,,,,,,,,,,,,,,,
3,99832, Note_off_c,1,61,0,,,,,,,,,,,,,,,,,,,,,,,,,
3,99863, Note_on_c,1,45,64,,,,,,,,,,,,,,,,,,,,,,,,,
3,100342, Note_off_c,1,45,0,,,,,,,,,,,,,,,,,,,,,,,,,
3,100373, Note_on_c,1,52,67,,,,,,,,,,,,,,,,,,,,,,,,,
3,100852, Note_off_c,1,52,0,,,,,,,,,,,,,,,,,,,,,,,,,
3,100883, Note_on_c,1,59,64,,,,,,,,,,,,,,,,,,,,,,,,,
3,102399, Note_off_c,1,59,0,,,,,,,,,,,,,,,,,,,,,,,,,
3,102404, Note_on_c,1,54,57,,,,,,,,,,,,,,,,,,,,,,,,,
3,102946, Note_on_c,1,61,52,,,,,,,,,,,,,,,,,,,,,,,,,
3,102976, Note_off_c,1,54,0,,,,,,,,,,,,,,,,,,,,,,,,,
3,103454, Note_on_c,1,66,53,,,,,,,,,,,,,,,,,,,,,,,,,
3,103484, Note_off_c,1,61,0,,,,,,,,,,,,,,,,,,,,,,,,,
3,103959, Note_on_c,1,54,52,,,,,,,,,,,,,,,,,,,,,,,,,
3,103989, Note_off_c,1,66,0,,,,,,,,,,,,,,,,,,,,,,,,,
3,104469, Note_on_c,1,50,55,,,,,,,,,,,,,,,,,,,,,,,,,
3,104499, Note_off_c,1,54,0,,,,,,,,,,,,,,,,,,,,,,,,,
3,104979, Note_on_c,1,57,52,,,,,,,,,,,,,,,,,,,,,,,,,
3,105009, Note_off_c,1,50,0,,,,,,,,,,,,,,,,,,,,,,,,,
3,105484, Note_on_c,1,64,53,,,,,,,,,,,,,,,,,,,,,,,,,
3,105514, Note_off_c,1,57,0,,,,,,,,,,,,,,,,,,,,,,,,,
3,105989, Note_on_c,1,50,52,,,,,,,,,,,,,,,,,,,,,,,,,
3,106019, Note_off_c,1,64,0,,,,,,,,,,,,,,,,,,,,,,,,,
3,106500, Note_on_c,1,45,57,,,,,,,,,,,,,,,,,,,,,,,,,
3,106526, Note_off_c,1,50,0,,,,,,,,,,,,,,,,,,,,,,,,,
3,107042, Note_on_c,1,52,52,,,,,,,,,,,,,,,,,,,,,,,,,
3,107072, Note_off_c,1,45,0,,,,,,,,,,,,,,,,,,,,,,,,,
3,107550, Note_on_c,1,61,53,,,,,,,,,,,,,,,,,,,,,,,,,
3,107580, Note_off_c,1,52,0,,,,,,,,,,,,,,,,,,,,,,,,,
3,108055, Note_on_c,1,45,52,,,,,,,,,,,,,,,,,,,,,,,,,
3,108085, Note_off_c,1,61,0,,,,,,,,,,,,,,,,,,,,,,,,,
3,108565, Note_on_c,1,52,55,,,,,,,,,,,,,,,,,,,,,,,,,
3,108595, Note_off_c,1,45,0,,,,,,,,,,,,,,,,,,,,,,,,,
3,109075, Note_on_c,1,59,52,,,,,,,,,,,,,,,,,,,,,,,,,
3,109105, Note_off_c,1,52,0,,,,,,,,,,,,,,,,,,,,,,,,,
3,109580, Note_on_c,1,64,53,,,,,,,,,,,,,,,,,,,,,,,,,
3,109610, Note_off_c,1,59,0,,,,,,,,,,,,,,,,,,,,,,,,,
3,110085, Note_on_c,1,52,52,,,,,,,,,,,,,,,,,,,,,,,,,
3,110115, Note_off_c,1,64,0,,,,,,,,,,,,,,,,,,,,,,,,,
3,110596, Note_on_c,1,54,57,,,,,,,,,,,,,,,,,,,,,,,,,
3,110622, Note_off_c,1,52,0,,,,,,,,,,,,,,,,,,,,,,,,,
3,111138, Note_on_c,1,61,52,,,,,,,,,,,,,,,,,,,,,,,,,
3,111168, Note_off_c,1,54,0,,,,,,,,,,,,,,,,,,,,,,,,,
3,111646, Note_on_c,1,66,65,,,,,,,,,,,,,,,,,,,,,,,,,
3,111676, Note_off_c,1,61,0,,,,,,,,,,,,,,,,,,,,,,,,,
3,112660, Note_off_c,1,66,0,,,,,,,,,,,,,,,,,,,,,,,,,
3,112661, Note_on_c,1,50,55,,,,,,,,,,,,,,,,,,,,,,,,,
3,113171, Note_on_c,1,57,52,,,,,,,,,,,,,,,,,,,,,,,,,
3,113201, Note_off_c,1,50,0,,,,,,,,,,,,,,,,,,,,,,,,,
3,113676, Note_on_c,1,64,53,,,,,,,,,,,,,,,,,,,,,,,,,
3,113706, Note_off_c,1,57,0,,,,,,,,,,,,,,,,,,,,,,,,,
3,114181, Note_on_c,1,50,52,,,,,,,,,,,,,,,,,,,,,,,,,
3,114211, Note_off_c,1,64,0,,,,,,,,,,,,,,,,,,,,,,,,,
3,114692, Note_on_c,1,45,57,,,,,,,,,,,,,,,,,,,,,,,,,
3,114718, Note_off_c,1,50,0,,,,,,,,,,,,,,,,,,,,,,,,,
3,115234, Note_on_c,1,52,52,,,,,,,,,,,,,,,,,,,,,,,,,
3,115264, Note_off_c,1,45,0,,,,,,,,,,,,,,,,,,,,,,,,,
3,115742, Note_on_c,1,61,53,,,,,,,,,,,,,,,,,,,,,,,,,
3,115772, Note_off_c,1,52,0,,,,,,,,,,,,,,,,,,,,,,,,,
3,116247, Note_on_c,1,45,52,,,,,,,,,,,,,,,,,,,,,,,,,
3,116277, Note_off_c,1,61,0,,,,,,,,,,,,,,,,,,,,,,,,,
3,116757, Note_on_c,1,40,54,,,,,,,,,,,,,,,,,,,,,,,,,
3,116787, Note_off_c,1,45,0,,,,,,,,,,,,,,,,,,,,,,,,,
3,117267, Note_on_c,1,47,52,,,,,,,,,,,,,,,,,,,,,,,,,
3,117297, Note_off_c,1,40,0,,,,,,,,,,,,,,,,,,,,,,,,,
3,117772, Note_on_c,1,56,53,,,,,,,,,,,,,,,,,,,,,,,,,
3,117802, Note_off_c,1,47,0,,,,,,,,,,,,,,,,,,,,,,,,,
3,118277, Note_on_c,1,40,51,,,,,,,,,,,,,,,,,,,,,,,,,
3,118307, Note_off_c,1,56,0,,,,,,,,,,,,,,,,,,,,,,,,,
3,118788, Note_on_c,1,42,57,,,,,,,,,,,,,,,,,,,,,,,,,
3,118814, Note_off_c,1,40,0,,,,,,,,,,,,,,,,,,,,,,,,,
3,119330, Note_on_c,1,49,52,,,,,,,,,,,,,,,,,,,,,,,,,
3,119360, Note_off_c,1,42,0,,,,,,,,,,,,,,,,,,,,,,,,,
3,119838, Note_on_c,1,54,53,,,,,,,,,,,,,,,,,,,,,,,,,
3,119868, Note_off_c,1,49,0,,,,,,,,,,,,,,,,,,,,,,,,,
3,120343, Note_on_c,1,42,52,,,,,,,,,,,,,,,,,,,,,,,,,
3,120373, Note_off_c,1,54,0,,,,,,,,,,,,,,,,,,,,,,,,,
3,120853, Note_on_c,1,50,55,,,,,,,,,,,,,,,,,,,,,,,,,
3,120883, Note_off_c,1,42,0,,,,,,,,,,,,,,,,,,,,,,,,,
3,121363, Note_on_c,1,57,52,,,,,,,,,,,,,,,,,,,,,,,,,
3,121393, Note_off_c,1,50,0,,,,,,,,,,,,,,,,,,,,,,,,,
3,121868, Note_on_c,1,64,53,,,,,,,,,,,,,,,,,,,,,,,,,
3,121898, Note_off_c,1,57,0,,,,,,,,,,,,,,,,,,,,,,,,,
3,122373, Note_on_c,1,50,52,,,,,,,,,,,,,,,,,,,,,,,,,
3,122403, Note_off_c,1,64,0,,,,,,,,,,,,,,,,,,,,,,,,,
3,122884, Note_on_c,1,45,57,,,,,,,,,,,,,,,,,,,,,,,,,
3,122910, Note_off_c,1,50,0,,,,,,,,,,,,,,,,,,,,,,,,,
3,123426, Note_on_c,1,52,52,,,,,,,,,,,,,,,,,,,,,,,,,
3,123456, Note_off_c,1,45,0,,,,,,,,,,,,,,,,,,,,,,,,,
3,123934, Note_on_c,1,61,53,,,,,,,,,,,,,,,,,,,,,,,,,
3,123964, Note_off_c,1,52,0,,,,,,,,,,,,,,,,,,,,,,,,,
3,124439, Note_on_c,1,45,52,,,,,,,,,,,,,,,,,,,,,,,,,
3,124469, Note_off_c,1,61,0,,,,,,,,,,,,,,,,,,,,,,,,,
3,124949, Note_on_c,1,40,54,,,,,,,,,,,,,,,,,,,,,,,,,
3,124979, Note_off_c,1,45,0,,,,,,,,,,,,,,,,,,,,,,,,,
3,125459, Note_on_c,1,47,52,,,,,,,,,,,,,,,,,,,,,,,,,
3,125489, Note_off_c,1,40,0,,,,,,,,,,,,,,,,,,,,,,,,,
3,125964, Note_on_c,1,56,53,,,,,,,,,,,,,,,,,,,,,,,,,
3,125994, Note_off_c,1,47,0,,,,,,,,,,,,,,,,,,,,,,,,,
3,126469, Note_on_c,1,40,51,,,,,,,,,,,,,,,,,,,,,,,,,
3,126499, Note_off_c,1,56,0,,,,,,,,,,,,,,,,,,,,,,,,,
3,126980, Note_on_c,1,42,57,,,,,,,,,,,,,,,,,,,,,,,,,
3,127006, Note_off_c,1,40,0,,,,,,,,,,,,,,,,,,,,,,,,,
3,127522, Note_on_c,1,49,52,,,,,,,,,,,,,,,,,,,,,,,,,
3,127552, Note_off_c,1,42,0,,,,,,,,,,,,,,,,,,,,,,,,,
3,128030, Note_on_c,1,54,53,,,,,,,,,,,,,,,,,,,,,,,,,
3,128060, Note_off_c,1,49,0,,,,,,,,,,,,,,,,,,,,,,,,,
3,128535, Note_on_c,1,42,52,,,,,,,,,,,,,,,,,,,,,,,,,
3,128565, Note_off_c,1,54,0,,,,,,,,,,,,,,,,,,,,,,,,,
3,129045, Note_on_c,1,50,55,,,,,,,,,,,,,,,,,,,,,,,,,
3,129075, Note_off_c,1,42,0,,,,,,,,,,,,,,,,,,,,,,,,,
3,129555, Note_on_c,1,57,52,,,,,,,,,,,,,,,,,,,,,,,,,
3,129585, Note_off_c,1,50,0,,,,,,,,,,,,,,,,,,,,,,,,,
3,130060, Note_on_c,1,64,53,,,,,,,,,,,,,,,,,,,,,,,,,
3,130090, Note_off_c,1,57,0,,,,,,,,,,,,,,,,,,,,,,,,,
3,130565, Note_on_c,1,50,52,,,,,,,,,,,,,,,,,,,,,,,,,
3,130595, Note_off_c,1,64,0,,,,,,,,,,,,,,,,,,,,,,,,,
3,131076, Note_on_c,1,45,57,,,,,,,,,,,,,,,,,,,,,,,,,
3,131102, Note_off_c,1,50,0,,,,,,,,,,,,,,,,,,,,,,,,,
3,131618, Note_on_c,1,52,52,,,,,,,,,,,,,,,,,,,,,,,,,
3,131648, Note_off_c,1,45,0,,,,,,,,,,,,,,,,,,,,,,,,,
3,132126, Note_on_c,1,61,53,,,,,,,,,,,,,,,,,,,,,,,,,
3,132156, Note_off_c,1,52,0,,,,,,,,,,,,,,,,,,,,,,,,,
3,132631, Note_on_c,1,45,52,,,,,,,,,,,,,,,,,,,,,,,,,
3,132661, Note_off_c,1,61,0,,,,,,,,,,,,,,,,,,,,,,,,,
3,133141, Note_on_c,1,40,54,,,,,,,,,,,,,,,,,,,,,,,,,
3,133171, Note_off_c,1,45,0,,,,,,,,,,,,,,,,,,,,,,,,,
3,133651, Note_on_c,1,47,52,,,,,,,,,,,,,,,,,,,,,,,,,
3,133681, Note_off_c,1,40,0,,,,,,,,,,,,,,,,,,,,,,,,,
3,134156, Note_on_c,1,56,53,,,,,,,,,,,,,,,,,,,,,,,,,
3,134186, Note_off_c,1,47,0,,,,,,,,,,,,,,,,,,,,,,,,,
3,134661, Note_on_c,1,40,51,,,,,,,,,,,,,,,,,,,,,,,,,
3,134691, Note_off_c,1,56,0,,,,,,,,,,,,,,,,,,,,,,,,,
3,135172, Note_on_c,1,42,57,,,,,,,,,,,,,,,,,,,,,,,,,
3,135198, Note_off_c,1,40,0,,,,,,,,,,,,,,,,,,,,,,,,,
3,135714, Note_on_c,1,49,52,,,,,,,,,,,,,,,,,,,,,,,,,
3,135744, Note_off_c,1,42,0,,,,,,,,,,,,,,,,,,,,,,,,,
3,136222, Note_on_c,1,54,53,,,,,,,,,,,,,,,,,,,,,,,,,
3,136252, Note_off_c,1,49,0,,,,,,,,,,,,,,,,,,,,,,,,,
3,136727, Note_on_c,1,42,52,,,,,,,,,,,,,,,,,,,,,,,,,
3,136757, Note_off_c,1,54,0,,,,,,,,,,,,,,,,,,,,,,,,,
3,137237, Note_on_c,1,50,55,,,,,,,,,,,,,,,,,,,,,,,,,
3,137267, Note_off_c,1,42,0,,,,,,,,,,,,,,,,,,,,,,,,,
3,137747, Note_on_c,1,57,52,,,,,,,,,,,,,,,,,,,,,,,,,
3,137777, Note_off_c,1,50,0,,,,,,,,,,,,,,,,,,,,,,,,,
3,138252, Note_on_c,1,64,53,,,,,,,,,,,,,,,,,,,,,,,,,
3,138282, Note_off_c,1,57,0,,,,,,,,,,,,,,,,,,,,,,,,,
3,138757, Note_on_c,1,50,52,,,,,,,,,,,,,,,,,,,,,,,,,
3,138787, Note_off_c,1,64,0,,,,,,,,,,,,,,,,,,,,,,,,,
3,139268, Note_on_c,1,45,57,,,,,,,,,,,,,,,,,,,,,,,,,
3,139294, Note_off_c,1,50,0,,,,,,,,,,,,,,,,,,,,,,,,,
3,139810, Note_on_c,1,52,52,,,,,,,,,,,,,,,,,,,,,,,,,
3,139840, Note_off_c,1,45,0,,,,,,,,,,,,,,,,,,,,,,,,,
3,140318, Note_on_c,1,61,53,,,,,,,,,,,,,,,,,,,,,,,,,
3,140348, Note_off_c,1,52,0,,,,,,,,,,,,,,,,,,,,,,,,,
3,140823, Note_on_c,1,45,52,,,,,,,,,,,,,,,,,,,,,,,,,
3,140853, Note_off_c,1,61,0,,,,,,,,,,,,,,,,,,,,,,,,,
3,141333, Note_on_c,1,40,54,,,,,,,,,,,,,,,,,,,,,,,,,
3,141363, Note_off_c,1,45,0,,,,,,,,,,,,,,,,,,,,,,,,,
3,141843, Note_on_c,1,47,52,,,,,,,,,,,,,,,,,,,,,,,,,
3,141873, Note_off_c,1,40,0,,,,,,,,,,,,,,,,,,,,,,,,,
3,142348, Note_on_c,1,56,53,,,,,,,,,,,,,,,,,,,,,,,,,
3,142378, Note_off_c,1,47,0,,,,,,,,,,,,,,,,,,,,,,,,,
3,142853, Note_on_c,1,40,51,,,,,,,,,,,,,,,,,,,,,,,,,
3,142883, Note_off_c,1,56,0,,,,,,,,,,,,,,,,,,,,,,,,,
3,143364, Note_on_c,1,42,57,,,,,,,,,,,,,,,,,,,,,,,,,
3,143390, Note_off_c,1,40,0,,,,,,,,,,,,,,,,,,,,,,,,,
3,143906, Note_on_c,1,49,52,,,,,,,,,,,,,,,,,,,,,,,,,
3,143936, Note_off_c,1,42,0,,,,,,,,,,,,,,,,,,,,,,,,,
3,144414, Note_on_c,1,54,53,,,,,,,,,,,,,,,,,,,,,,,,,
3,144444, Note_off_c,1,49,0,,,,,,,,,,,,,,,,,,,,,,,,,
3,144919, Note_on_c,1,42,52,,,,,,,,,,,,,,,,,,,,,,,,,
3,144949, Note_off_c,1,54,0,,,,,,,,,,,,,,,,,,,,,,,,,
3,145429, Note_on_c,1,50,55,,,,,,,,,,,,,,,,,,,,,,,,,
3,145459, Note_off_c,1,42,0,,,,,,,,,,,,,,,,,,,,,,,,,
3,145939, Note_on_c,1,57,52,,,,,,,,,,,,,,,,,,,,,,,,,
3,145969, Note_off_c,1,50,0,,,,,,,,,,,,,,,,,,,,,,,,,
3,146444, Note_on_c,1,64,53,,,,,,,,,,,,,,,,,,,,,,,,,
3,146474, Note_off_c,1,57,0,,,,,,,,,,,,,,,,,,,,,,,,,
3,146949, Note_on_c,1,50,52,,,,,,,,,,,,,,,,,,,,,,,,,
3,146979, Note_off_c,1,64,0,,,,,,,,,,,,,,,,,,,,,,,,,
3,147460, Note_on_c,1,45,57,,,,,,,,,,,,,,,,,,,,,,,,,
3,147486, Note_off_c,1,50,0,,,,,,,,,,,,,,,,,,,,,,,,,
3,148002, Note_on_c,1,52,52,,,,,,,,,,,,,,,,,,,,,,,,,
3,148032, Note_off_c,1,45,0,,,,,,,,,,,,,,,,,,,,,,,,,
3,148510, Note_on_c,1,61,53,,,,,,,,,,,,,,,,,,,,,,,,,
3,148540, Note_off_c,1,52,0,,,,,,,,,,,,,,,,,,,,,,,,,
3,149015, Note_on_c,1,45,52,,,,,,,,,,,,,,,,,,,,,,,,,
3,149045, Note_off_c,1,61,0,,,,,,,,,,,,,,,,,,,,,,,,,
3,149525, Note_on_c,1,40,54,,,,,,,,,,,,,,,,,,,,,,,,,
3,149555, Note_off_c,1,45,0,,,,,,,,,,,,,,,,,,,,,,,,,
3,150035, Note_on_c,1,47,52,,,,,,,,,,,,,,,,,,,,,,,,,
3,150065, Note_off_c,1,40,0,,,,,,,,,,,,,,,,,,,,,,,,,
3,150540, Note_on_c,1,56,65,,,,,,,,,,,,,,,,,,,,,,,,,
3,150570, Note_off_c,1,47,0,,,,,,,,,,,,,,,,,,,,,,,,,
3,151551, Note_off_c,1,56,0,,,,,,,,,,,,,,,,,,,,,,,,,
3,151556, Note_on_c,1,54,69,,,,,,,,,,,,,,,,,,,,,,,,,
3,153620, Note_off_c,1,54,0,,,,,,,,,,,,,,,,,,,,,,,,,
3,153621, Note_on_c,1,50,67,,,,,,,,,,,,,,,,,,,,,,,,,
3,154100, Note_off_c,1,50,0,,,,,,,,,,,,,,,,,,,,,,,,,
3,154131, Note_on_c,1,57,64,,,,,,,,,,,,,,,,,,,,,,,,,
3,154605, Note_off_c,1,57,0,,,,,,,,,,,,,,,,,,,,,,,,,
3,154636, Note_on_c,1,64,65,,,,,,,,,,,,,,,,,,,,,,,,,
3,155110, Note_off_c,1,64,0,,,,,,,,,,,,,,,,,,,,,,,,,
3,155141, Note_on_c,1,50,64,,,,,,,,,,,,,,,,,,,,,,,,,
3,155617, Note_off_c,1,50,0,,,,,,,,,,,,,,,,,,,,,,,,,
3,155652, Note_on_c,1,57,69,,,,,,,,,,,,,,,,,,,,,,,,,
3,156163, Note_off_c,1,57,0,,,,,,,,,,,,,,,,,,,,,,,,,
3,156194, Note_on_c,1,64,64,,,,,,,,,,,,,,,,,,,,,,,,,
3,156671, Note_off_c,1,64,0,,,,,,,,,,,,,,,,,,,,,,,,,
3,156702, Note_on_c,1,69,65,,,,,,,,,,,,,,,,,,,,,,,,,
3,157716, Note_off_c,1,69,0,,,,,,,,,,,,,,,,,,,,,,,,,
3,157717, Note_on_c,1,64,59,,,,,,,,,,,,,,,,,,,,,,,,,
3,157717, Note_on_c,1,68,73,,,,,,,,,,,,,,,,,,,,,,,,,
3,159743, Note_off_c,1,64,0,,,,,,,,,,,,,,,,,,,,,,,,,
3,159743, Note_off_c,1,68,0,,,,,,,,,,,,,,,,,,,,,,,,,
3,159748, Note_on_c,1,54,69,,,,,,,,,,,,,,,,,,,,,,,,,
3,160259, Note_off_c,1,54,0,,,,,,,,,,,,,,,,,,,,,,,,,
3,160290, Note_on_c,1,49,64,,,,,,,,,,,,,,,,,,,,,,,,,
3,161812, Note_off_c,1,49,0,,,,,,,,,,,,,,,,,,,,,,,,,
3,161813, Note_on_c,1,50,67,,,,,,,,,,,,,,,,,,,,,,,,,
3,162292, Note_off_c,1,50,0,,,,,,,,,,,,,,,,,,,,,,,,,
3,162323, Note_on_c,1,57,64,,,,,,,,,,,,,,,,,,,,,,,,,
3,162797, Note_off_c,1,57,0,,,,,,,,,,,,,,,,,,,,,,,,,
3,162828, Note_on_c,1,64,65,,,,,,,,,,,,,,,,,,,,,,,,,
3,163302, Note_off_c,1,64,0,,,,,,,,,,,,,,,,,,,,,,,,,
3,163844, Note_on_c,1,45,69,,,,,,,,,,,,,,,,,,,,,,,,,
3,164355, Note_off_c,1,45,0,,,,,,,,,,,,,,,,,,,,,,,,,
3,164386, Note_on_c,1,52,64,,,,,,,,,,,,,,,,,,,,,,,,,
3,164863, Note_off_c,1,52,0,,,,,,,,,,,,,,,,,,,,,,,,,
3,164894, Note_on_c,1,61,65,,,,,,,,,,,,,,,,,,,,,,,,,
3,165908, Note_off_c,1,61,0,,,,,,,,,,,,,,,,,,,,,,,,,
3,165909, Note_on_c,1,52,67,,,,,,,,,,,,,,,,,,,,,,,,,
3,166388, Note_off_c,1,52,0,,,,,,,,,,,,,,,,,,,,,,,,,
3,166419, Note_on_c,1,59,64,,,,,,,,,,,,,,,,,,,,,,,,,
3,166893, Note_off_c,1,59,0,,,,,,,,,,,,,,,,,,,,,,,,,
3,166924, Note_on_c,1,64,65,,,,,,,,,,,,,,,,,,,,,,,,,
3,167935, Note_off_c,1,64,0,,,,,,,,,,,,,,,,,,,,,,,,,
3,167940, Note_on_c,1,54,69,,,,,,,,,,,,,,,,,,,,,,,,,
3,168451, Note_off_c,1,54,0,,,,,,,,,,,,,,,,,,,,,,,,,
3,168482, Note_on_c,1,61,64,,,,,,,,,,,,,,,,,,,,,,,,,
3,168959, Note_off_c,1,61,0,,,,,,,,,,,,,,,,,,,,,,,,,
3,168990, Note_on_c,1,66,65,,,,,,,,,,,,,,,,,,,,,,,,,
3,170004, Note_off_c,1,66,0,,,,,,,,,,,,,,,,,,,,,,,,,
3,170005, Note_on_c,1,50,67,,,,,,,,,,,,,,,,,,,,,,,,,
3,170484, Note_off_c,1,50,0,,,,,,,,,,,,,,,,,,,,,,,,,
3,170515, Note_on_c,1,57,64,,,,,,,,,,,,,,,,,,,,,,,,,
3,170989, Note_off_c,1,57,0,,,,,,,,,,,,,,,,,,,,,,,,,
3,171020, Note_on_c,1,64,65,,,,,,,,,,,,,,,,,,,,,,,,,
3,171494, Note_off_c,1,64,0,,,,,,,,,,,,,,,,,,,,,,,,,
3,171525, Note_on_c,1,57,64,,,,,,,,,,,,,,,,,,,,,,,,,
3,172001, Note_off_c,1,57,0,,,,,,,,,,,,,,,,,,,,,,,,,
3,172036, Note_on_c,1,45,69,,,,,,,,,,,,,,,,,,,,,,,,,
3,172547, Note_off_c,1,45,0,,,,,,,,,,,,,,,,,,,,,,,,,
3,172578, Note_on_c,1,52,64,,,,,,,,,,,,,,,,,,,,,,,,,
3,173055, Note_off_c,1,52,0,,,,,,,,,,,,,,,,,,,,,,,,,
3,173086, Note_on_c,1,61,65,,,,,,,,,,,,,,,,,,,,,,,,,
3,174100, Note_off_c,1,61,0,,,,,,,,,,,,,,,,,,,,,,,,,
3,174101, Note_on_c,1,52,67,,,,,,,,,,,,,,,,,,,,,,,,,
3,174580, Note_off_c,1,52,0,,,,,,,,,,,,,,,,,,,,,,,,,
3,174611, Note_on_c,1,59,64,,,,,,,,,,,,,,,,,,,,,,,,,
3,175085, Note_off_c,1,59,0,,,,,,,,,,,,,,,,,,,,,,,,,
3,175116, Note_on_c,1,68,65,,,,,,,,,,,,,,,,,,,,,,,,,
3,176127, Note_off_c,1,68,0,,,,,,,,,,,,,,,,,,,,,,,,,
3,176132, Note_on_c,1,42,69,,,,,,,,,,,,,,,,,,,,,,,,,
3,176643, Note_off_c,1,42,0,,,,,,,,,,,,,,,,,,,,,,,,,
3,176674, Note_on_c,1,49,64,,,,,,,,,,,,,,,,,,,,,,,,,
3,177151, Note_off_c,1,49,0,,,,,,,,,,,,,,,,,,,,,,,,,
3,177182, Note_on_c,1,54,65,,,,,,,,,,,,,,,,,,,,,,,,,
3,178196, Note_off_c,1,54,0,,,,,,,,,,,,,,,,,,,,,,,,,
3,178197, Note_on_c,1,50,67,,,,,,,,,,,,,,,,,,,,,,,,,
3,178676, Note_off_c,1,50,0,,,,,,,,,,,,,,,,,,,,,,,,,
3,178707, Note_on_c,1,57,64,,,,,,,,,,,,,,,,,,,,,,,,,
3,179181, Note_off_c,1,57,0,,,,,,,,,,,,,,,,,,,,,,,,,
3,179212, Note_on_c,1,64,65,,,,,,,,,,,,,,,,,,,,,,,,,
3,180223, Note_off_c,1,64,0,,,,,,,,,,,,,,,,,,,,,,,,,
3,180228, Note_on_c,1,45,69,,,,,,,,,,,,,,,,,,,,,,,,,
3,180739, Note_off_c,1,45,0,,,,,,,,,,,,,,,,,,,,,,,,,
3,180770, Note_on_c,1,52,64,,,,,,,,,,,,,,,,,,,,,,,,,
3,181247, Note_off_c,1,52,0,,,,,,,,,,,,,,,,,,,,,,,,,
3,181278, Note_on_c,1,61,65,,,,,,,,,,,,,,,,,,,,,,,,,
3,182292, Note_off_c,1,61,0,,,,,,,,,,,,,,,,,,,,,,,,,
3,182293, Note_on_c,1,40,66,,,,,,,,,,,,,,,,,,,,,,,,,
3,182772, Note_off_c,1,40,0,,,,,,,,,,,,,,,,,,,,,,,,,
3,182803, Note_on_c,1,47,64,,,,,,,,,,,,,,,,,,,,,,,,,
3,183277, Note_off_c,1,47,0,,,,,,,,,,,,,,,,,,,,,,,,,
3,183308, Note_on_c,1,56,65,,,,,,,,,,,,,,,,,,,,,,,,,
3,184307, Control_c,1,64,127,,,,,,,,,,,,,,,,,,,,,,,,,
3,184319, Note_off_c,1,56,0,,,,,,,,,,,,,,,,,,,,,,,,,
3,184324, Note_on_c,1,42,69,,,,,,,,,,,,,,,,,,,,,,,,,
3,184835, Note_off_c,1,42,0,,,,,,,,,,,,,,,,,,,,,,,,,
3,184866, Note_on_c,1,49,64,,,,,,,,,,,,,,,,,,,,,,,,,
3,185343, Note_off_c,1,49,0,,,,,,,,,,,,,,,,,,,,,,,,,
3,185374, Note_on_c,1,54,65,,,,,,,,,,,,,,,,,,,,,,,,,
3,187233, Note_off_c,1,54,0,,,,,,,,,,,,,,,,,,,,,,,,,
3,187404, Note_on_c,1,57,65,,,,,,,,,,,,,,,,,,,,,,,,,
3,192511, Note_off_c,1,57,0,,,,,,,,,,,,,,,,,,,,,,,,,
3,192511, End_track,,,,,,,,,,,,,,,,,,,,,,,,,,,,
0,0, End_of_file,,,,,,,,,,,,,,,,,,,,,,,,,,,,
