0, 0, Header, 1, 2, 480
1, 0, Start_track
1, 0, Unknown_meta_event, 10, 11, 65, 114, 114, 63, 109, 97, 114, 97, 115, 121, 0
1, 0, Unknown_meta_event, 12, 23, 115, 104, 101, 101, 116, 32, 109, 97, 107, 101, 114, 32, 58, 32, 107, 97, 107, 105, 109, 117, 107, 105, 0
1, 0, Unknown_meta_event, 8, 14, 78, 111, 32, 76, 105, 102, 101, 32, 81, 117, 101, 101, 110, 0
1, 0, Time_signature, 1, 2, 24, 8
1, 0, Key_signature, -6, "major"
1, 0, Program_c, 0, 0
1, 2, Control_c, 0, 7, 100
1, 4, Control_c, 0, 10, 64
1, 6, Control_c, 0, 91, 30
1, 8, Control_c, 0, 93, 30
1, 480, Time_signature, 6, 2, 24, 8
1, 480, Tempo, 363636
1, 480, Note_on_c, 0, 75, 80
1, 959, Note_on_c, 0, 75, 0
1, 960, Note_on_c, 0, 82, 80
1, 1439, Note_on_c, 0, 82, 0
1, 1440, Note_on_c, 0, 80, 80
1, 2159, Note_on_c, 0, 80, 0
1, 2160, Note_on_c, 0, 78, 80
1, 2399, Note_on_c, 0, 78, 0
1, 2400, Note_on_c, 0, 77, 80
1, 2759, Note_on_c, 0, 77, 0
1, 2760, Note_on_c, 0, 73, 80
1, 3119, Note_on_c, 0, 73, 0
1, 3120, Note_on_c, 0, 75, 80
1, 3360, Time_signature, 4, 2, 24, 8
1, 4319, Note_on_c, 0, 75, 0
1, 4320, Tempo, 333333
1, 4320, Note_on_c, 0, 73, 80
1, 4639, Note_on_c, 0, 73, 0
1, 4640, Note_on_c, 0, 73, 80
1, 4799, Note_on_c, 0, 73, 0
1, 4800, Note_on_c, 0, 75, 80
1, 5039, Note_on_c, 0, 75, 0
1, 5040, Note_on_c, 0, 82, 80
1, 5279, Note_on_c, 0, 82, 0
1, 5280, Tempo, 363636
1, 5280, Note_on_c, 0, 80, 80
1, 5999, Note_on_c, 0, 80, 0
1, 6000, Note_on_c, 0, 78, 80
1, 6239, Note_on_c, 0, 78, 0
1, 6240, Note_on_c, 0, 77, 80
1, 6599, Note_on_c, 0, 77, 0
1, 6600, Note_on_c, 0, 85, 80
1, 6959, Note_on_c, 0, 85, 0
1, 6960, Note_on_c, 0, 82, 80
1, 7200, Tempo, 428572
1, 8639, Note_on_c, 0, 82, 0
1, 8640, Note_on_c, 0, 75, 80
1, 8879, Note_on_c, 0, 75, 0
1, 8880, Note_on_c, 0, 82, 80
1, 9020, Note_on_c, 0, 72, 80
1, 9070, Note_on_c, 0, 75, 80
1, 9119, Note_on_c, 0, 82, 0
1, 9120, Tempo, 666667
1, 9120, Note_on_c, 0, 80, 80
1, 9360, Tempo, 363636
1, 9739, Note_on_c, 0, 72, 0
1, 9789, Note_on_c, 0, 75, 0
1, 9839, Note_on_c, 0, 80, 0
1, 9840, Note_on_c, 0, 78, 80
1, 10079, Note_on_c, 0, 78, 0
1, 10080, Note_on_c, 0, 77, 80
1, 10439, Note_on_c, 0, 77, 0
1, 10440, Note_on_c, 0, 73, 80
1, 10799, Note_on_c, 0, 73, 0
1, 10800, Note_on_c, 0, 75, 80
1, 11040, Tempo, 333333
1, 12810, Note_on_c, 0, 84, 80
1, 12860, Note_on_c, 0, 87, 80
1, 12910, Note_on_c, 0, 92, 80
1, 12959, Note_on_c, 0, 75, 0
1, 12960, Tempo, 352942
1, 12960, Note_on_c, 0, 96, 80
1, 15689, Note_on_c, 0, 84, 0
1, 15739, Note_on_c, 0, 87, 0
1, 15789, Note_on_c, 0, 92, 0
1, 15839, Note_on_c, 0, 96, 0
1, 15840, Tempo, 352942
1, 16080, Note_on_c, 0, 75, 80
1, 16080, Note_on_c, 0, 63, 80
1, 16319, Note_on_c, 0, 75, 0
1, 16319, Note_on_c, 0, 63, 0
1, 16320, Note_on_c, 0, 75, 80
1, 16320, Note_on_c, 0, 63, 80
1, 16559, Note_on_c, 0, 75, 0
1, 16559, Note_on_c, 0, 63, 0
1, 16560, Note_on_c, 0, 77, 80
1, 16560, Note_on_c, 0, 65, 80
1, 16799, Note_on_c, 0, 77, 0
1, 16799, Note_on_c, 0, 65, 0
1, 16800, Note_on_c, 0, 78, 80
1, 16800, Note_on_c, 0, 66, 80
1, 17039, Note_on_c, 0, 78, 0
1, 17039, Note_on_c, 0, 66, 0
1, 17040, Note_on_c, 0, 80, 80
1, 17040, Note_on_c, 0, 68, 80
1, 17279, Note_on_c, 0, 80, 0
1, 17279, Note_on_c, 0, 68, 0
1, 17280, Note_on_c, 0, 82, 80
1, 17280, Note_on_c, 0, 70, 80
1, 17519, Note_on_c, 0, 82, 0
1, 17519, Note_on_c, 0, 70, 0
1, 17520, Note_on_c, 0, 85, 80
1, 17520, Note_on_c, 0, 80, 80
1, 17520, Note_on_c, 0, 77, 80
1, 17520, Note_on_c, 0, 73, 80
1, 17760, Key_signature, -1, "major"
1, 18239, Note_on_c, 0, 85, 0
1, 18239, Note_on_c, 0, 80, 0
1, 18239, Note_on_c, 0, 77, 0
1, 18239, Note_on_c, 0, 73, 0
1, 18240, Note_on_c, 0, 85, 80
1, 18240, Note_on_c, 0, 80, 80
1, 18240, Note_on_c, 0, 77, 80
1, 18240, Note_on_c, 0, 73, 80
1, 18479, Note_on_c, 0, 85, 0
1, 18479, Note_on_c, 0, 80, 0
1, 18479, Note_on_c, 0, 77, 0
1, 18479, Note_on_c, 0, 73, 0
1, 18480, Note_on_c, 0, 87, 80
1, 18480, Note_on_c, 0, 82, 80
1, 18480, Note_on_c, 0, 78, 80
1, 18480, Note_on_c, 0, 75, 80
1, 18720, Key_signature, 0, "major"
1, 18959, Note_on_c, 0, 87, 0
1, 18959, Note_on_c, 0, 82, 0
1, 18959, Note_on_c, 0, 78, 0
1, 18959, Note_on_c, 0, 75, 0
1, 18960, Note_on_c, 0, 86, 80
1, 18992, Note_on_c, 0, 86, 0
1, 18993, Note_on_c, 0, 84, 80
1, 19025, Note_on_c, 0, 84, 0
1, 19026, Note_on_c, 0, 83, 80
1, 19058, Note_on_c, 0, 83, 0
1, 19059, Note_on_c, 0, 81, 80
1, 19091, Note_on_c, 0, 81, 0
1, 19092, Note_on_c, 0, 79, 80
1, 19124, Note_on_c, 0, 79, 0
1, 19125, Note_on_c, 0, 77, 80
1, 19157, Note_on_c, 0, 77, 0
1, 19158, Note_on_c, 0, 76, 80
1, 19190, Note_on_c, 0, 76, 0
1, 19191, Note_on_c, 0, 74, 80
1, 19223, Note_on_c, 0, 74, 0
1, 19224, Note_on_c, 0, 72, 80
1, 19256, Note_on_c, 0, 72, 0
1, 19257, Note_on_c, 0, 71, 80
1, 19289, Note_on_c, 0, 71, 0
1, 19290, Note_on_c, 0, 69, 80
1, 19322, Note_on_c, 0, 69, 0
1, 19323, Note_on_c, 0, 67, 80
1, 19355, Note_on_c, 0, 67, 0
1, 19356, Note_on_c, 0, 65, 80
1, 19388, Note_on_c, 0, 65, 0
1, 19389, Note_on_c, 0, 64, 80
1, 19421, Note_on_c, 0, 64, 0
1, 19422, Note_on_c, 0, 62, 80
1, 19454, Note_on_c, 0, 62, 0
1, 19455, Note_on_c, 0, 60, 80
1, 19487, Note_on_c, 0, 60, 0
1, 19488, Note_on_c, 0, 59, 80
1, 19520, Note_on_c, 0, 59, 0
1, 19521, Note_on_c, 0, 57, 80
1, 19553, Note_on_c, 0, 57, 0
1, 19554, Note_on_c, 0, 55, 80
1, 19586, Note_on_c, 0, 55, 0
1, 19587, Note_on_c, 0, 53, 80
1, 19619, Note_on_c, 0, 53, 0
1, 19620, Note_on_c, 0, 52, 80
1, 19652, Note_on_c, 0, 52, 0
1, 19653, Note_on_c, 0, 50, 80
1, 19685, Note_on_c, 0, 50, 0
1, 19686, Note_on_c, 0, 48, 80
1, 19718, Note_on_c, 0, 48, 0
1, 19719, Note_on_c, 0, 47, 80
1, 19751, Note_on_c, 0, 47, 0
1, 19752, Note_on_c, 0, 45, 80
1, 19784, Note_on_c, 0, 45, 0
1, 19785, Note_on_c, 0, 43, 80
1, 19817, Note_on_c, 0, 43, 0
1, 19818, Note_on_c, 0, 41, 80
1, 19850, Note_on_c, 0, 41, 0
1, 19851, Note_on_c, 0, 40, 80
1, 19883, Note_on_c, 0, 40, 0
1, 19884, Note_on_c, 0, 38, 80
1, 19916, Note_on_c, 0, 38, 0
1, 20160, Note_on_c, 0, 87, 80
1, 20160, Note_on_c, 0, 82, 80
1, 20160, Note_on_c, 0, 78, 80
1, 20639, Note_on_c, 0, 87, 0
1, 20639, Note_on_c, 0, 82, 0
1, 20639, Note_on_c, 0, 78, 0
1, 20640, Note_on_c, 0, 76, 80
1, 20759, Note_on_c, 0, 76, 0
1, 20760, Note_on_c, 0, 74, 80
1, 20879, Note_on_c, 0, 74, 0
1, 20880, Note_on_c, 0, 76, 80
1, 20999, Note_on_c, 0, 76, 0
1, 21000, Note_on_c, 0, 74, 80
1, 21119, Note_on_c, 0, 74, 0
1, 21120, Note_on_c, 0, 76, 80
1, 21239, Note_on_c, 0, 76, 0
1, 21240, Note_on_c, 0, 77, 80
1, 21359, Note_on_c, 0, 77, 0
1, 21360, Note_on_c, 0, 74, 80
1, 21479, Note_on_c, 0, 74, 0
1, 21480, Note_on_c, 0, 76, 80
1, 21719, Note_on_c, 0, 76, 0
1, 21720, Note_on_c, 0, 74, 80
1, 21839, Note_on_c, 0, 74, 0
1, 21840, Note_on_c, 0, 76, 80
1, 21959, Note_on_c, 0, 76, 0
1, 21960, Note_on_c, 0, 74, 80
1, 22079, Note_on_c, 0, 74, 0
1, 22080, Note_on_c, 0, 76, 80
1, 22199, Note_on_c, 0, 76, 0
1, 22200, Note_on_c, 0, 74, 80
1, 22319, Note_on_c, 0, 74, 0
1, 22320, Note_on_c, 0, 76, 80
1, 22439, Note_on_c, 0, 76, 0
1, 22440, Note_on_c, 0, 77, 80
1, 22559, Note_on_c, 0, 77, 0
1, 22560, Note_on_c, 0, 69, 80
1, 22560, Note_on_c, 0, 76, 80
1, 22679, Note_on_c, 0, 76, 0
1, 22680, Note_on_c, 0, 74, 80
1, 22799, Note_on_c, 0, 74, 0
1, 22800, Note_on_c, 0, 76, 80
1, 22919, Note_on_c, 0, 76, 0
1, 22920, Note_on_c, 0, 74, 80
1, 23039, Note_on_c, 0, 74, 0
1, 23040, Note_on_c, 0, 76, 80
1, 23159, Note_on_c, 0, 76, 0
1, 23160, Note_on_c, 0, 77, 80
1, 23279, Note_on_c, 0, 69, 0
1, 23279, Note_on_c, 0, 77, 0
1, 23400, Note_on_c, 0, 74, 80
1, 23400, Note_on_c, 0, 79, 80
1, 23639, Note_on_c, 0, 79, 0
1, 23640, Note_on_c, 0, 81, 80
1, 23759, Note_on_c, 0, 81, 0
1, 23760, Note_on_c, 0, 79, 80
1, 23879, Note_on_c, 0, 79, 0
1, 23880, Note_on_c, 0, 77, 80
1, 23999, Note_on_c, 0, 74, 0
1, 23999, Note_on_c, 0, 77, 0
1, 24000, Note_on_c, 0, 72, 80
1, 24000, Note_on_c, 0, 79, 80
1, 24119, Note_on_c, 0, 79, 0
1, 24120, Note_on_c, 0, 77, 80
1, 24239, Note_on_c, 0, 77, 0
1, 24240, Note_on_c, 0, 76, 80
1, 24359, Note_on_c, 0, 76, 0
1, 24360, Note_on_c, 0, 74, 80
1, 24479, Note_on_c, 0, 72, 0
1, 24479, Note_on_c, 0, 74, 0
1, 24480, Note_on_c, 0, 76, 80
1, 24599, Note_on_c, 0, 76, 0
1, 24600, Note_on_c, 0, 74, 80
1, 24719, Note_on_c, 0, 74, 0
1, 24720, Note_on_c, 0, 76, 80
1, 24839, Note_on_c, 0, 76, 0
1, 24840, Note_on_c, 0, 74, 80
1, 24959, Note_on_c, 0, 74, 0
1, 24960, Note_on_c, 0, 76, 80
1, 25079, Note_on_c, 0, 76, 0
1, 25080, Note_on_c, 0, 77, 80
1, 25199, Note_on_c, 0, 77, 0
1, 25200, Note_on_c, 0, 74, 80
1, 25319, Note_on_c, 0, 74, 0
1, 25320, Note_on_c, 0, 76, 80
1, 25559, Note_on_c, 0, 76, 0
1, 25560, Note_on_c, 0, 74, 80
1, 25679, Note_on_c, 0, 74, 0
1, 25680, Note_on_c, 0, 76, 80
1, 25799, Note_on_c, 0, 76, 0
1, 25800, Note_on_c, 0, 74, 80
1, 25919, Note_on_c, 0, 74, 0
1, 25920, Note_on_c, 0, 76, 80
1, 26039, Note_on_c, 0, 76, 0
1, 26040, Note_on_c, 0, 74, 80
1, 26159, Note_on_c, 0, 74, 0
1, 26160, Note_on_c, 0, 76, 80
1, 26279, Note_on_c, 0, 76, 0
1, 26280, Note_on_c, 0, 77, 80
1, 26399, Note_on_c, 0, 77, 0
1, 26400, Note_on_c, 0, 74, 80
1, 26519, Note_on_c, 0, 74, 0
1, 26520, Note_on_c, 0, 76, 80
1, 26639, Note_on_c, 0, 76, 0
1, 26640, Note_on_c, 0, 77, 80
1, 26759, Note_on_c, 0, 77, 0
1, 26760, Note_on_c, 0, 76, 80
1, 26879, Note_on_c, 0, 76, 0
1, 26880, Note_on_c, 0, 77, 80
1, 26999, Note_on_c, 0, 77, 0
1, 27000, Note_on_c, 0, 79, 80
1, 27119, Note_on_c, 0, 79, 0
1, 27120, Note_on_c, 0, 77, 80
1, 27239, Note_on_c, 0, 77, 0
1, 27240, Note_on_c, 0, 79, 80
1, 27359, Note_on_c, 0, 79, 0
1, 27360, Note_on_c, 0, 81, 80
1, 27479, Note_on_c, 0, 81, 0
1, 27480, Note_on_c, 0, 79, 80
1, 27599, Note_on_c, 0, 79, 0
1, 27600, Note_on_c, 0, 81, 80
1, 27719, Note_on_c, 0, 81, 0
1, 27720, Note_on_c, 0, 84, 80
1, 27839, Note_on_c, 0, 84, 0
1, 27840, Note_on_c, 0, 81, 80
1, 27959, Note_on_c, 0, 81, 0
1, 27960, Note_on_c, 0, 79, 80
1, 28079, Note_on_c, 0, 79, 0
1, 28080, Note_on_c, 0, 77, 80
1, 28199, Note_on_c, 0, 77, 0
1, 28200, Note_on_c, 0, 74, 80
1, 28319, Note_on_c, 0, 74, 0
1, 28320, Note_on_c, 0, 76, 80
1, 28439, Note_on_c, 0, 76, 0
1, 28440, Note_on_c, 0, 74, 80
1, 28559, Note_on_c, 0, 74, 0
1, 28560, Note_on_c, 0, 76, 80
1, 28679, Note_on_c, 0, 76, 0
1, 28680, Note_on_c, 0, 74, 80
1, 28799, Note_on_c, 0, 74, 0
1, 28800, Note_on_c, 0, 76, 80
1, 28919, Note_on_c, 0, 76, 0
1, 28920, Note_on_c, 0, 77, 80
1, 29039, Note_on_c, 0, 77, 0
1, 29040, Note_on_c, 0, 74, 80
1, 29159, Note_on_c, 0, 74, 0
1, 29160, Note_on_c, 0, 72, 80
1, 29160, Note_on_c, 0, 76, 80
1, 29399, Note_on_c, 0, 76, 0
1, 29400, Note_on_c, 0, 74, 80
1, 29519, Note_on_c, 0, 74, 0
1, 29520, Note_on_c, 0, 76, 80
1, 29639, Note_on_c, 0, 76, 0
1, 29640, Note_on_c, 0, 74, 80
1, 29759, Note_on_c, 0, 74, 0
1, 29760, Note_on_c, 0, 76, 80
1, 29879, Note_on_c, 0, 76, 0
1, 29880, Note_on_c, 0, 74, 80
1, 29999, Note_on_c, 0, 74, 0
1, 30000, Note_on_c, 0, 76, 80
1, 30119, Note_on_c, 0, 76, 0
1, 30120, Note_on_c, 0, 77, 80
1, 30239, Note_on_c, 0, 72, 0
1, 30239, Note_on_c, 0, 77, 0
1, 30240, Note_on_c, 0, 69, 80
1, 30240, Note_on_c, 0, 76, 80
1, 30359, Note_on_c, 0, 76, 0
1, 30360, Note_on_c, 0, 74, 80
1, 30479, Note_on_c, 0, 74, 0
1, 30480, Note_on_c, 0, 76, 80
1, 30599, Note_on_c, 0, 76, 0
1, 30600, Note_on_c, 0, 74, 80
1, 30719, Note_on_c, 0, 74, 0
1, 30720, Note_on_c, 0, 76, 80
1, 30839, Note_on_c, 0, 76, 0
1, 30840, Note_on_c, 0, 77, 80
1, 30959, Note_on_c, 0, 69, 0
1, 30959, Note_on_c, 0, 77, 0
1, 31080, Note_on_c, 0, 74, 80
1, 31080, Note_on_c, 0, 79, 80
1, 31319, Note_on_c, 0, 79, 0
1, 31320, Note_on_c, 0, 81, 80
1, 31439, Note_on_c, 0, 81, 0
1, 31440, Note_on_c, 0, 79, 80
1, 31559, Note_on_c, 0, 79, 0
1, 31560, Note_on_c, 0, 77, 80
1, 31679, Note_on_c, 0, 74, 0
1, 31679, Note_on_c, 0, 77, 0
1, 31680, Note_on_c, 0, 72, 80
1, 31680, Note_on_c, 0, 79, 80
1, 31799, Note_on_c, 0, 79, 0
1, 31800, Note_on_c, 0, 77, 80
1, 31919, Note_on_c, 0, 77, 0
1, 31920, Note_on_c, 0, 76, 80
1, 32039, Note_on_c, 0, 76, 0
1, 32040, Note_on_c, 0, 74, 80
1, 32159, Note_on_c, 0, 72, 0
1, 32159, Note_on_c, 0, 74, 0
1, 32160, Note_on_c, 0, 76, 80
1, 32279, Note_on_c, 0, 76, 0
1, 32280, Note_on_c, 0, 74, 80
1, 32399, Note_on_c, 0, 74, 0
1, 32400, Note_on_c, 0, 76, 80
1, 32519, Note_on_c, 0, 76, 0
1, 32520, Note_on_c, 0, 74, 80
1, 32639, Note_on_c, 0, 74, 0
1, 32640, Note_on_c, 0, 76, 80
1, 32759, Note_on_c, 0, 76, 0
1, 32760, Note_on_c, 0, 77, 80
1, 32879, Note_on_c, 0, 77, 0
1, 32880, Note_on_c, 0, 74, 80
1, 32999, Note_on_c, 0, 74, 0
1, 33000, Note_on_c, 0, 76, 80
1, 33239, Note_on_c, 0, 76, 0
1, 33240, Note_on_c, 0, 74, 80
1, 33359, Note_on_c, 0, 74, 0
1, 33360, Note_on_c, 0, 76, 80
1, 33479, Note_on_c, 0, 76, 0
1, 33480, Note_on_c, 0, 74, 80
1, 33599, Note_on_c, 0, 74, 0
1, 33600, Note_on_c, 0, 76, 80
1, 33719, Note_on_c, 0, 76, 0
1, 33720, Note_on_c, 0, 74, 80
1, 33839, Note_on_c, 0, 74, 0
1, 33840, Note_on_c, 0, 76, 80
1, 33959, Note_on_c, 0, 76, 0
1, 33960, Note_on_c, 0, 77, 80
1, 34079, Note_on_c, 0, 77, 0
1, 34080, Note_on_c, 0, 74, 80
1, 34199, Note_on_c, 0, 74, 0
1, 34200, Note_on_c, 0, 74, 80
1, 34319, Note_on_c, 0, 74, 0
1, 34320, Note_on_c, 0, 74, 80
1, 34439, Note_on_c, 0, 74, 0
1, 34440, Note_on_c, 0, 76, 80
1, 34559, Note_on_c, 0, 76, 0
1, 34560, Note_on_c, 0, 76, 80
1, 34679, Note_on_c, 0, 76, 0
1, 34680, Note_on_c, 0, 76, 80
1, 34799, Note_on_c, 0, 76, 0
1, 34800, Note_on_c, 0, 77, 80
1, 34919, Note_on_c, 0, 77, 0
1, 34920, Note_on_c, 0, 77, 80
1, 35039, Note_on_c, 0, 77, 0
1, 35040, Note_on_c, 0, 77, 80
1, 35159, Note_on_c, 0, 77, 0
1, 35160, Note_on_c, 0, 79, 80
1, 35519, Note_on_c, 0, 79, 0
1, 35520, Note_on_c, 0, 81, 80
1, 35759, Note_on_c, 0, 81, 0
1, 35760, Note_on_c, 0, 84, 80
1, 35999, Note_on_c, 0, 84, 0
1, 36000, Note_on_c, 0, 65, 80
1, 36479, Note_on_c, 0, 65, 0
1, 36480, Note_on_c, 0, 67, 80
1, 36719, Note_on_c, 0, 67, 0
1, 36720, Note_on_c, 0, 64, 80
1, 37199, Note_on_c, 0, 64, 0
1, 37200, Note_on_c, 0, 65, 80
1, 37679, Note_on_c, 0, 65, 0
1, 37680, Note_on_c, 0, 62, 80
1, 38639, Note_on_c, 0, 62, 0
1, 38640, Note_on_c, 0, 57, 80
1, 39119, Note_on_c, 0, 57, 0
1, 39120, Note_on_c, 0, 57, 80
1, 39359, Note_on_c, 0, 57, 0
1, 39360, Note_on_c, 0, 62, 80
1, 39599, Note_on_c, 0, 62, 0
1, 39600, Note_on_c, 0, 64, 80
1, 39839, Note_on_c, 0, 64, 0
1, 39840, Note_on_c, 0, 65, 80
1, 39840, Note_on_c, 0, 62, 80
1, 39840, Note_on_c, 0, 57, 80
1, 40319, Note_on_c, 0, 65, 0
1, 40319, Note_on_c, 0, 62, 0
1, 40319, Note_on_c, 0, 57, 0
1, 40320, Note_on_c, 0, 67, 80
1, 40559, Note_on_c, 0, 67, 0
1, 40560, Note_on_c, 0, 64, 80
1, 40560, Note_on_c, 0, 60, 80
1, 41279, Note_on_c, 0, 64, 0
1, 41279, Note_on_c, 0, 60, 0
1, 41280, Note_on_c, 0, 72, 80
1, 41519, Note_on_c, 0, 72, 0
1, 41520, Note_on_c, 0, 72, 80
1, 41520, Note_on_c, 0, 65, 80
1, 41520, Note_on_c, 0, 62, 80
1, 41999, Note_on_c, 0, 72, 0
1, 41999, Note_on_c, 0, 65, 0
1, 41999, Note_on_c, 0, 62, 0
1, 42000, Note_on_c, 0, 69, 80
1, 42000, Note_on_c, 0, 62, 80
1, 42000, Note_on_c, 0, 59, 80
1, 42239, Note_on_c, 0, 69, 0
1, 42239, Note_on_c, 0, 62, 0
1, 42239, Note_on_c, 0, 59, 0
1, 42240, Note_on_c, 0, 69, 80
1, 42240, Note_on_c, 0, 62, 80
1, 42240, Note_on_c, 0, 59, 80
1, 42959, Note_on_c, 0, 69, 0
1, 42959, Note_on_c, 0, 62, 0
1, 42959, Note_on_c, 0, 59, 0
1, 42960, Note_on_c, 0, 69, 80
1, 43199, Note_on_c, 0, 69, 0
1, 43200, Note_on_c, 0, 72, 80
1, 43439, Note_on_c, 0, 72, 0
1, 43440, Note_on_c, 0, 74, 80
1, 43679, Note_on_c, 0, 74, 0
1, 43680, Note_on_c, 0, 67, 80
1, 43680, Note_on_c, 0, 58, 80
1, 43919, Note_on_c, 0, 67, 0
1, 43919, Note_on_c, 0, 58, 0
1, 43920, Note_on_c, 0, 67, 80
1, 43920, Note_on_c, 0, 58, 80
1, 44159, Note_on_c, 0, 67, 0
1, 44159, Note_on_c, 0, 58, 0
1, 44160, Note_on_c, 0, 67, 80
1, 44160, Note_on_c, 0, 58, 80
1, 44879, Note_on_c, 0, 67, 0
1, 44879, Note_on_c, 0, 58, 0
1, 44880, Note_on_c, 0, 67, 80
1, 45119, Note_on_c, 0, 67, 0
1, 45120, Note_on_c, 0, 69, 80
1, 45359, Note_on_c, 0, 69, 0
1, 45360, Note_on_c, 0, 72, 80
1, 45599, Note_on_c, 0, 72, 0
1, 45600, Note_on_c, 0, 65, 80
1, 45600, Note_on_c, 0, 60, 80
1, 45600, Note_on_c, 0, 57, 80
1, 45839, Note_on_c, 0, 65, 0
1, 45839, Note_on_c, 0, 60, 0
1, 45839, Note_on_c, 0, 57, 0
1, 45840, Note_on_c, 0, 65, 80
1, 45840, Note_on_c, 0, 60, 80
1, 45840, Note_on_c, 0, 57, 80
1, 46079, Note_on_c, 0, 65, 0
1, 46079, Note_on_c, 0, 60, 0
1, 46079, Note_on_c, 0, 57, 0
1, 46080, Note_on_c, 0, 65, 80
1, 46080, Note_on_c, 0, 60, 80
1, 46080, Note_on_c, 0, 57, 80
1, 46799, Note_on_c, 0, 65, 0
1, 46799, Note_on_c, 0, 60, 0
1, 46799, Note_on_c, 0, 57, 0
1, 46800, Note_on_c, 0, 62, 80
1, 47039, Note_on_c, 0, 62, 0
1, 47040, Note_on_c, 0, 62, 80
1, 47279, Note_on_c, 0, 62, 0
1, 47280, Note_on_c, 0, 64, 80
1, 47519, Note_on_c, 0, 64, 0
1, 47520, Note_on_c, 0, 65, 80
1, 47520, Note_on_c, 0, 62, 80
1, 47520, Note_on_c, 0, 58, 80
1, 47520, Note_on_c, 0, 55, 80
1, 47999, Note_on_c, 0, 65, 0
1, 47999, Note_on_c, 0, 62, 0
1, 47999, Note_on_c, 0, 58, 0
1, 47999, Note_on_c, 0, 55, 0
1, 48000, Note_on_c, 0, 67, 80
1, 48239, Note_on_c, 0, 67, 0
1, 48240, Note_on_c, 0, 64, 80
1, 48240, Note_on_c, 0, 61, 80
1, 48240, Note_on_c, 0, 57, 80
1, 48240, Note_on_c, 0, 52, 80
1, 48719, Note_on_c, 0, 64, 0
1, 48719, Note_on_c, 0, 61, 0
1, 48719, Note_on_c, 0, 57, 0
1, 48719, Note_on_c, 0, 52, 0
1, 48720, Note_on_c, 0, 61, 80
1, 48720, Note_on_c, 0, 57, 80
1, 48720, Note_on_c, 0, 52, 80
1, 49199, Note_on_c, 0, 61, 0
1, 49199, Note_on_c, 0, 57, 0
1, 49199, Note_on_c, 0, 52, 0
1, 49200, Note_on_c, 0, 62, 80
1, 49439, Note_on_c, 0, 62, 0
1, 49440, Note_on_c, 0, 53, 80
1, 49559, Note_on_c, 0, 53, 0
1, 49560, Note_on_c, 0, 58, 80
1, 49679, Note_on_c, 0, 58, 0
1, 49680, Note_on_c, 0, 62, 80
1, 49799, Note_on_c, 0, 62, 0
1, 49800, Note_on_c, 0, 65, 80
1, 49919, Note_on_c, 0, 65, 0
1, 49920, Note_on_c, 0, 65, 80
1, 50039, Note_on_c, 0, 65, 0
1, 50040, Note_on_c, 0, 70, 80
1, 50159, Note_on_c, 0, 70, 0
1, 50160, Note_on_c, 0, 74, 80
1, 50279, Note_on_c, 0, 74, 0
1, 50280, Note_on_c, 0, 77, 80
1, 50399, Note_on_c, 0, 77, 0
1, 50400, Note_on_c, 0, 76, 80
1, 50519, Note_on_c, 0, 76, 0
1, 50520, Note_on_c, 0, 69, 80
1, 50639, Note_on_c, 0, 69, 0
1, 50640, Note_on_c, 0, 72, 80
1, 50759, Note_on_c, 0, 72, 0
1, 50760, Note_on_c, 0, 76, 80
1, 50879, Note_on_c, 0, 76, 0
1, 50880, Note_on_c, 0, 74, 80
1, 51119, Note_on_c, 0, 74, 0
1, 51120, Note_on_c, 0, 76, 80
1, 51359, Note_on_c, 0, 76, 0
1, 51360, Note_on_c, 0, 77, 80
1, 51360, Note_on_c, 0, 74, 80
1, 51360, Note_on_c, 0, 69, 80
1, 51839, Note_on_c, 0, 77, 0
1, 51839, Note_on_c, 0, 74, 0
1, 51839, Note_on_c, 0, 69, 0
1, 51840, Note_on_c, 0, 79, 80
1, 51840, Note_on_c, 0, 74, 80
1, 51840, Note_on_c, 0, 69, 80
1, 52079, Note_on_c, 0, 79, 0
1, 52079, Note_on_c, 0, 74, 0
1, 52079, Note_on_c, 0, 69, 0
1, 52080, Note_on_c, 0, 76, 80
1, 52080, Note_on_c, 0, 72, 80
1, 52080, Note_on_c, 0, 67, 80
1, 52559, Note_on_c, 0, 76, 0
1, 52559, Note_on_c, 0, 72, 0
1, 52559, Note_on_c, 0, 67, 0
1, 52560, Note_on_c, 0, 77, 80
1, 52560, Note_on_c, 0, 72, 80
1, 52560, Note_on_c, 0, 67, 80
1, 53039, Note_on_c, 0, 77, 0
1, 53039, Note_on_c, 0, 72, 0
1, 53039, Note_on_c, 0, 67, 0
1, 53040, Note_on_c, 0, 74, 80
1, 53040, Note_on_c, 0, 65, 80
1, 53519, Note_on_c, 0, 65, 0
1, 53520, Note_on_c, 0, 70, 80
1, 53520, Note_on_c, 0, 65, 80
1, 53759, Note_on_c, 0, 70, 0
1, 53759, Note_on_c, 0, 65, 0
1, 54000, Note_on_c, 0, 70, 80
1, 54000, Note_on_c, 0, 65, 80
1, 54479, Note_on_c, 0, 70, 0
1, 54479, Note_on_c, 0, 65, 0
1, 54479, Note_on_c, 0, 74, 0
1, 54480, Note_on_c, 0, 69, 80
1, 54719, Note_on_c, 0, 69, 0
1, 54720, Note_on_c, 0, 74, 80
1, 54959, Note_on_c, 0, 74, 0
1, 54960, Note_on_c, 0, 76, 80
1, 55199, Note_on_c, 0, 76, 0
1, 55200, Note_on_c, 0, 77, 80
1, 55200, Note_on_c, 0, 74, 80
1, 55200, Note_on_c, 0, 69, 80
1, 55679, Note_on_c, 0, 77, 0
1, 55679, Note_on_c, 0, 74, 0
1, 55679, Note_on_c, 0, 69, 0
1, 55680, Note_on_c, 0, 79, 80
1, 55680, Note_on_c, 0, 74, 80
1, 55680, Note_on_c, 0, 69, 80
1, 55919, Note_on_c, 0, 79, 0
1, 55919, Note_on_c, 0, 74, 0
1, 55919, Note_on_c, 0, 69, 0
1, 55920, Note_on_c, 0, 76, 80
1, 55920, Note_on_c, 0, 72, 80
1, 55920, Note_on_c, 0, 67, 80
1, 56639, Note_on_c, 0, 76, 0
1, 56639, Note_on_c, 0, 72, 0
1, 56639, Note_on_c, 0, 67, 0
1, 56640, Note_on_c, 0, 84, 80
1, 56640, Note_on_c, 0, 76, 80
1, 56640, Note_on_c, 0, 72, 80
1, 56879, Note_on_c, 0, 84, 0
1, 56879, Note_on_c, 0, 76, 0
1, 56879, Note_on_c, 0, 72, 0
1, 56880, Note_on_c, 0, 84, 80
1, 56880, Note_on_c, 0, 77, 80
1, 56880, Note_on_c, 0, 74, 80
1, 57359, Note_on_c, 0, 84, 0
1, 57359, Note_on_c, 0, 77, 0
1, 57359, Note_on_c, 0, 74, 0
1, 57360, Note_on_c, 0, 81, 80
1, 57360, Note_on_c, 0, 74, 80
1, 57360, Note_on_c, 0, 71, 80
1, 57599, Note_on_c, 0, 81, 0
1, 57599, Note_on_c, 0, 74, 0
1, 57599, Note_on_c, 0, 71, 0
1, 57600, Note_on_c, 0, 81, 80
1, 57600, Note_on_c, 0, 74, 80
1, 57600, Note_on_c, 0, 71, 80
1, 58319, Note_on_c, 0, 81, 0
1, 58319, Note_on_c, 0, 74, 0
1, 58319, Note_on_c, 0, 71, 0
1, 58320, Note_on_c, 0, 81, 80
1, 58559, Note_on_c, 0, 81, 0
1, 58560, Note_on_c, 0, 84, 80
1, 58799, Note_on_c, 0, 84, 0
1, 58800, Note_on_c, 0, 86, 80
1, 59039, Note_on_c, 0, 86, 0
1, 59040, Note_on_c, 0, 79, 80
1, 59040, Note_on_c, 0, 70, 80
1, 59279, Note_on_c, 0, 79, 0
1, 59279, Note_on_c, 0, 70, 0
1, 59280, Note_on_c, 0, 79, 80
1, 59280, Note_on_c, 0, 70, 80
1, 59519, Note_on_c, 0, 79, 0
1, 59519, Note_on_c, 0, 70, 0
1, 59520, Note_on_c, 0, 79, 80
1, 59520, Note_on_c, 0, 70, 80
1, 60239, Note_on_c, 0, 79, 0
1, 60239, Note_on_c, 0, 70, 0
1, 60240, Note_on_c, 0, 79, 80
1, 60479, Note_on_c, 0, 79, 0
1, 60480, Note_on_c, 0, 81, 80
1, 60719, Note_on_c, 0, 81, 0
1, 60720, Note_on_c, 0, 84, 80
1, 60959, Note_on_c, 0, 84, 0
1, 60960, Note_on_c, 0, 77, 80
1, 60960, Note_on_c, 0, 72, 80
1, 61199, Note_on_c, 0, 77, 0
1, 61199, Note_on_c, 0, 72, 0
1, 61200, Note_on_c, 0, 77, 80
1, 61200, Note_on_c, 0, 72, 80
1, 61439, Note_on_c, 0, 77, 0
1, 61439, Note_on_c, 0, 72, 0
1, 61440, Note_on_c, 0, 77, 80
1, 61440, Note_on_c, 0, 72, 80
1, 62159, Note_on_c, 0, 77, 0
1, 62159, Note_on_c, 0, 72, 0
1, 62160, Note_on_c, 0, 74, 80
1, 62399, Note_on_c, 0, 74, 0
1, 62400, Note_on_c, 0, 74, 80
1, 62639, Note_on_c, 0, 74, 0
1, 62640, Note_on_c, 0, 76, 80
1, 62879, Note_on_c, 0, 76, 0
1, 62880, Note_on_c, 0, 77, 80
1, 62880, Note_on_c, 0, 70, 80
1, 62880, Note_on_c, 0, 67, 80
1, 63359, Note_on_c, 0, 77, 0
1, 63359, Note_on_c, 0, 70, 0
1, 63359, Note_on_c, 0, 67, 0
1, 63360, Note_on_c, 0, 79, 80
1, 63599, Note_on_c, 0, 79, 0
1, 63600, Note_on_c, 0, 76, 80
1, 63600, Note_on_c, 0, 73, 80
1, 63600, Note_on_c, 0, 69, 80
1, 63600, Note_on_c, 0, 64, 80
1, 64079, Note_on_c, 0, 76, 0
1, 64079, Note_on_c, 0, 73, 0
1, 64079, Note_on_c, 0, 69, 0
1, 64079, Note_on_c, 0, 64, 0
1, 64080, Note_on_c, 0, 73, 80
1, 64080, Note_on_c, 0, 69, 80
1, 64080, Note_on_c, 0, 64, 80
1, 64559, Note_on_c, 0, 73, 0
1, 64559, Note_on_c, 0, 69, 0
1, 64559, Note_on_c, 0, 64, 0
1, 64560, Note_on_c, 0, 74, 80
1, 64560, Note_on_c, 0, 70, 80
1, 64560, Note_on_c, 0, 65, 80
1, 65279, Note_on_c, 0, 74, 0
1, 65279, Note_on_c, 0, 70, 0
1, 65279, Note_on_c, 0, 65, 0
1, 65280, Note_on_c, 0, 65, 80
1, 65399, Note_on_c, 0, 65, 0
1, 65400, Note_on_c, 0, 70, 80
1, 65519, Note_on_c, 0, 70, 0
1, 65520, Note_on_c, 0, 74, 80
1, 65639, Note_on_c, 0, 74, 0
1, 65640, Note_on_c, 0, 77, 80
1, 65759, Note_on_c, 0, 77, 0
1, 65760, Note_on_c, 0, 76, 80
1, 65879, Note_on_c, 0, 76, 0
1, 65880, Note_on_c, 0, 69, 80
1, 65999, Note_on_c, 0, 69, 0
1, 66000, Note_on_c, 0, 72, 80
1, 66119, Note_on_c, 0, 72, 0
1, 66120, Note_on_c, 0, 76, 80
1, 66239, Note_on_c, 0, 76, 0
1, 66240, Note_on_c, 0, 69, 80
1, 66479, Note_on_c, 0, 69, 0
1, 66480, Note_on_c, 0, 72, 80
1, 66719, Note_on_c, 0, 72, 0
1, 66720, Note_on_c, 0, 74, 80
1, 66720, Note_on_c, 0, 69, 80
1, 66959, Note_on_c, 0, 74, 0
1, 66959, Note_on_c, 0, 69, 0
1, 66960, Note_on_c, 0, 72, 80
1, 66960, Note_on_c, 0, 69, 80
1, 67199, Note_on_c, 0, 72, 0
1, 67199, Note_on_c, 0, 69, 0
1, 67200, Note_on_c, 0, 74, 80
1, 67200, Note_on_c, 0, 69, 80
1, 67319, Note_on_c, 0, 74, 0
1, 67319, Note_on_c, 0, 69, 0
1, 67440, Note_on_c, 0, 72, 80
1, 67440, Note_on_c, 0, 69, 80
1, 67559, Note_on_c, 0, 72, 0
1, 67559, Note_on_c, 0, 69, 0
1, 67680, Note_on_c, 0, 74, 80
1, 67680, Note_on_c, 0, 69, 80
1, 68039, Note_on_c, 0, 74, 0
1, 68039, Note_on_c, 0, 69, 0
1, 68040, Note_on_c, 0, 77, 80
1, 68040, Note_on_c, 0, 72, 80
1, 68040, Note_on_c, 0, 69, 80
1, 68399, Note_on_c, 0, 77, 0
1, 68399, Note_on_c, 0, 72, 0
1, 68399, Note_on_c, 0, 69, 0
1, 68400, Note_on_c, 0, 76, 80
1, 68400, Note_on_c, 0, 72, 80
1, 68400, Note_on_c, 0, 69, 80
1, 68639, Note_on_c, 0, 76, 0
1, 68639, Note_on_c, 0, 72, 0
1, 68639, Note_on_c, 0, 69, 0
1, 68640, Note_on_c, 0, 74, 80
1, 68640, Note_on_c, 0, 67, 80
1, 68640, Note_on_c, 0, 64, 80
1, 68879, Note_on_c, 0, 74, 0
1, 68879, Note_on_c, 0, 67, 0
1, 68879, Note_on_c, 0, 64, 0
1, 68880, Note_on_c, 0, 72, 80
1, 68880, Note_on_c, 0, 67, 80
1, 68880, Note_on_c, 0, 64, 80
1, 69119, Note_on_c, 0, 72, 0
1, 69119, Note_on_c, 0, 67, 0
1, 69119, Note_on_c, 0, 64, 0
1, 69120, Note_on_c, 0, 74, 80
1, 69120, Note_on_c, 0, 67, 80
1, 69120, Note_on_c, 0, 64, 80
1, 69239, Note_on_c, 0, 74, 0
1, 69239, Note_on_c, 0, 67, 0
1, 69239, Note_on_c, 0, 64, 0
1, 69360, Note_on_c, 0, 72, 80
1, 69360, Note_on_c, 0, 67, 80
1, 69360, Note_on_c, 0, 64, 80
1, 69479, Note_on_c, 0, 72, 0
1, 69479, Note_on_c, 0, 67, 0
1, 69479, Note_on_c, 0, 64, 0
1, 69600, Note_on_c, 0, 74, 80
1, 69600, Note_on_c, 0, 67, 80
1, 69600, Note_on_c, 0, 64, 80
1, 69959, Note_on_c, 0, 74, 0
1, 69959, Note_on_c, 0, 67, 0
1, 69959, Note_on_c, 0, 64, 0
1, 69960, Note_on_c, 0, 81, 80
1, 69960, Note_on_c, 0, 72, 80
1, 69960, Note_on_c, 0, 69, 80
1, 70319, Note_on_c, 0, 81, 0
1, 70319, Note_on_c, 0, 72, 0
1, 70319, Note_on_c, 0, 69, 0
1, 70320, Note_on_c, 0, 79, 80
1, 70320, Note_on_c, 0, 72, 80
1, 70320, Note_on_c, 0, 69, 80
1, 70559, Note_on_c, 0, 79, 0
1, 70559, Note_on_c, 0, 72, 0
1, 70559, Note_on_c, 0, 69, 0
1, 70560, Note_on_c, 0, 77, 80
1, 70560, Note_on_c, 0, 73, 80
1, 70560, Note_on_c, 0, 67, 80
1, 70919, Note_on_c, 0, 77, 0
1, 70919, Note_on_c, 0, 73, 0
1, 70919, Note_on_c, 0, 67, 0
1, 70920, Note_on_c, 0, 76, 80
1, 70920, Note_on_c, 0, 73, 80
1, 70920, Note_on_c, 0, 67, 80
1, 71279, Note_on_c, 0, 76, 0
1, 71279, Note_on_c, 0, 73, 0
1, 71279, Note_on_c, 0, 67, 0
1, 71280, Note_on_c, 0, 74, 80
1, 71280, Note_on_c, 0, 67, 80
1, 71519, Note_on_c, 0, 74, 0
1, 71519, Note_on_c, 0, 67, 0
1, 71520, Note_on_c, 0, 73, 80
1, 71520, Note_on_c, 0, 67, 80
1, 71520, Note_on_c, 0, 64, 80
1, 71879, Note_on_c, 0, 73, 0
1, 71879, Note_on_c, 0, 67, 0
1, 71879, Note_on_c, 0, 64, 0
1, 71880, Note_on_c, 0, 69, 80
1, 71880, Note_on_c, 0, 64, 80
1, 72239, Note_on_c, 0, 69, 0
1, 72239, Note_on_c, 0, 64, 0
1, 72240, Note_on_c, 0, 67, 80
1, 72240, Note_on_c, 0, 64, 80
1, 72479, Note_on_c, 0, 67, 0
1, 72479, Note_on_c, 0, 64, 0
1, 72480, Note_on_c, 0, 69, 80
1, 72720, Note_on_c, 0, 74, 80
1, 72839, Note_on_c, 0, 74, 0
1, 72840, Note_on_c, 0, 72, 80
1, 72959, Note_on_c, 0, 72, 0
1, 72960, Note_on_c, 0, 74, 80
1, 73079, Note_on_c, 0, 74, 0
1, 73080, Note_on_c, 0, 77, 80
1, 73199, Note_on_c, 0, 77, 0
1, 73200, Note_on_c, 0, 81, 80
1, 73319, Note_on_c, 0, 81, 0
1, 73320, Note_on_c, 0, 84, 80
1, 73439, Note_on_c, 0, 84, 0
1, 73440, Note_on_c, 0, 81, 80
1, 73559, Note_on_c, 0, 81, 0
1, 73560, Note_on_c, 0, 77, 80
1, 73679, Note_on_c, 0, 77, 0
1, 73680, Note_on_c, 0, 74, 80
1, 73799, Note_on_c, 0, 74, 0
1, 73800, Note_on_c, 0, 72, 80
1, 73919, Note_on_c, 0, 69, 0
1, 73919, Note_on_c, 0, 72, 0
1, 73920, Note_on_c, 0, 69, 80
1, 74159, Note_on_c, 0, 69, 0
1, 74160, Note_on_c, 0, 72, 80
1, 74399, Note_on_c, 0, 72, 0
1, 74400, Note_on_c, 0, 74, 80
1, 74400, Note_on_c, 0, 69, 80
1, 74639, Note_on_c, 0, 74, 0
1, 74639, Note_on_c, 0, 69, 0
1, 74640, Note_on_c, 0, 72, 80
1, 74640, Note_on_c, 0, 69, 80
1, 74879, Note_on_c, 0, 72, 0
1, 74879, Note_on_c, 0, 69, 0
1, 74880, Note_on_c, 0, 74, 80
1, 74880, Note_on_c, 0, 69, 80
1, 74999, Note_on_c, 0, 74, 0
1, 74999, Note_on_c, 0, 69, 0
1, 75120, Note_on_c, 0, 72, 80
1, 75120, Note_on_c, 0, 69, 80
1, 75239, Note_on_c, 0, 72, 0
1, 75239, Note_on_c, 0, 69, 0
1, 75360, Note_on_c, 0, 74, 80
1, 75360, Note_on_c, 0, 69, 80
1, 75719, Note_on_c, 0, 74, 0
1, 75719, Note_on_c, 0, 69, 0
1, 75720, Note_on_c, 0, 77, 80
1, 75720, Note_on_c, 0, 72, 80
1, 75720, Note_on_c, 0, 69, 80
1, 76079, Note_on_c, 0, 77, 0
1, 76079, Note_on_c, 0, 72, 0
1, 76079, Note_on_c, 0, 69, 0
1, 76080, Note_on_c, 0, 76, 80
1, 76080, Note_on_c, 0, 72, 80
1, 76080, Note_on_c, 0, 69, 80
1, 76319, Note_on_c, 0, 76, 0
1, 76319, Note_on_c, 0, 72, 0
1, 76319, Note_on_c, 0, 69, 0
1, 76320, Note_on_c, 0, 74, 80
1, 76320, Note_on_c, 0, 67, 80
1, 76320, Note_on_c, 0, 64, 80
1, 76559, Note_on_c, 0, 74, 0
1, 76559, Note_on_c, 0, 67, 0
1, 76559, Note_on_c, 0, 64, 0
1, 76560, Note_on_c, 0, 72, 80
1, 76560, Note_on_c, 0, 67, 80
1, 76560, Note_on_c, 0, 64, 80
1, 76799, Note_on_c, 0, 72, 0
1, 76799, Note_on_c, 0, 67, 0
1, 76799, Note_on_c, 0, 64, 0
1, 76800, Note_on_c, 0, 74, 80
1, 76800, Note_on_c, 0, 67, 80
1, 76800, Note_on_c, 0, 64, 80
1, 76919, Note_on_c, 0, 74, 0
1, 76919, Note_on_c, 0, 67, 0
1, 76919, Note_on_c, 0, 64, 0
1, 77040, Note_on_c, 0, 72, 80
1, 77040, Note_on_c, 0, 67, 80
1, 77040, Note_on_c, 0, 64, 80
1, 77159, Note_on_c, 0, 72, 0
1, 77159, Note_on_c, 0, 67, 0
1, 77159, Note_on_c, 0, 64, 0
1, 77280, Note_on_c, 0, 74, 80
1, 77280, Note_on_c, 0, 67, 80
1, 77280, Note_on_c, 0, 64, 80
1, 77639, Note_on_c, 0, 74, 0
1, 77639, Note_on_c, 0, 67, 0
1, 77639, Note_on_c, 0, 64, 0
1, 77640, Note_on_c, 0, 81, 80
1, 77640, Note_on_c, 0, 72, 80
1, 77640, Note_on_c, 0, 69, 80
1, 77999, Note_on_c, 0, 81, 0
1, 77999, Note_on_c, 0, 72, 0
1, 77999, Note_on_c, 0, 69, 0
1, 78000, Note_on_c, 0, 79, 80
1, 78000, Note_on_c, 0, 72, 80
1, 78000, Note_on_c, 0, 69, 80
1, 78239, Note_on_c, 0, 79, 0
1, 78239, Note_on_c, 0, 72, 0
1, 78239, Note_on_c, 0, 69, 0
1, 78240, Note_on_c, 0, 77, 80
1, 78240, Note_on_c, 0, 73, 80
1, 78240, Note_on_c, 0, 67, 80
1, 78599, Note_on_c, 0, 77, 0
1, 78599, Note_on_c, 0, 73, 0
1, 78599, Note_on_c, 0, 67, 0
1, 78600, Note_on_c, 0, 76, 80
1, 78600, Note_on_c, 0, 73, 80
1, 78600, Note_on_c, 0, 67, 80
1, 78959, Note_on_c, 0, 76, 0
1, 78959, Note_on_c, 0, 73, 0
1, 78959, Note_on_c, 0, 67, 0
1, 78960, Note_on_c, 0, 74, 80
1, 78960, Note_on_c, 0, 67, 80
1, 79199, Note_on_c, 0, 74, 0
1, 79199, Note_on_c, 0, 67, 0
1, 79200, Key_signature, -6, "major"
1, 79200, Note_on_c, 0, 76, 80
1, 79200, Note_on_c, 0, 73, 80
1, 79200, Note_on_c, 0, 67, 80
1, 79559, Note_on_c, 0, 76, 0
1, 79559, Note_on_c, 0, 73, 0
1, 79559, Note_on_c, 0, 67, 0
1, 79560, Note_on_c, 0, 77, 80
1, 79560, Note_on_c, 0, 73, 80
1, 79560, Note_on_c, 0, 67, 80
1, 79919, Note_on_c, 0, 77, 0
1, 79919, Note_on_c, 0, 73, 0
1, 79919, Note_on_c, 0, 67, 0
1, 79920, Note_on_c, 0, 79, 80
1, 79920, Note_on_c, 0, 73, 80
1, 79920, Note_on_c, 0, 67, 80
1, 80159, Note_on_c, 0, 79, 0
1, 80159, Note_on_c, 0, 73, 0
1, 80159, Note_on_c, 0, 67, 0
1, 80160, Note_on_c, 0, 81, 80
1, 80160, Note_on_c, 0, 73, 80
1, 80160, Note_on_c, 0, 69, 80
1, 80400, Note_on_c, 0, 69, 80
1, 80459, Note_on_c, 0, 69, 0
1, 80460, Note_on_c, 0, 73, 80
1, 80519, Note_on_c, 0, 73, 0
1, 80520, Note_on_c, 0, 76, 80
1, 80579, Note_on_c, 0, 76, 0
1, 80580, Note_on_c, 0, 81, 80
1, 80639, Note_on_c, 0, 81, 0
1, 80640, Note_on_c, 0, 81, 80
1, 80699, Note_on_c, 0, 81, 0
1, 80700, Note_on_c, 0, 85, 80
1, 80759, Note_on_c, 0, 85, 0
1, 80760, Note_on_c, 0, 88, 80
1, 80819, Note_on_c, 0, 88, 0
1, 80820, Note_on_c, 0, 93, 80
1, 80879, Note_on_c, 0, 93, 0
1, 80880, Note_on_c, 0, 93, 80
1, 80939, Note_on_c, 0, 93, 0
1, 80940, Note_on_c, 0, 97, 80
1, 80999, Note_on_c, 0, 97, 0
1, 81000, Note_on_c, 0, 100, 80
1, 81059, Note_on_c, 0, 100, 0
1, 81060, Note_on_c, 0, 105, 80
1, 81119, Note_on_c, 0, 81, 0
1, 81119, Note_on_c, 0, 73, 0
1, 81119, Note_on_c, 0, 69, 0
1, 81119, Note_on_c, 0, 105, 0
1, 81600, Note_on_c, 0, 75, 80
1, 81600, Note_on_c, 0, 63, 80
1, 81839, Note_on_c, 0, 75, 0
1, 81839, Note_on_c, 0, 63, 0
1, 81840, Note_on_c, 0, 82, 80
1, 81840, Note_on_c, 0, 70, 80
1, 82079, Note_on_c, 0, 82, 0
1, 82079, Note_on_c, 0, 70, 0
1, 82080, Note_on_c, 0, 80, 80
1, 82080, Note_on_c, 0, 68, 80
1, 82799, Note_on_c, 0, 80, 0
1, 82799, Note_on_c, 0, 68, 0
1, 82800, Note_on_c, 0, 78, 80
1, 82800, Note_on_c, 0, 66, 80
1, 83039, Note_on_c, 0, 78, 0
1, 83039, Note_on_c, 0, 66, 0
1, 83040, Note_on_c, 0, 77, 80
1, 83040, Note_on_c, 0, 65, 80
1, 83399, Note_on_c, 0, 77, 0
1, 83399, Note_on_c, 0, 65, 0
1, 83400, Note_on_c, 0, 73, 80
1, 83400, Note_on_c, 0, 61, 80
1, 83759, Note_on_c, 0, 73, 0
1, 83759, Note_on_c, 0, 61, 0
1, 83760, Note_on_c, 0, 75, 80
1, 83760, Note_on_c, 0, 63, 80
1, 84000, Note_on_c, 0, 87, 80
1, 84000, Note_on_c, 0, 82, 80
1, 84119, Note_on_c, 0, 87, 0
1, 84119, Note_on_c, 0, 82, 0
1, 84120, Note_on_c, 0, 85, 80
1, 84239, Note_on_c, 0, 85, 0
1, 84240, Note_on_c, 0, 87, 80
1, 84359, Note_on_c, 0, 87, 0
1, 84360, Note_on_c, 0, 89, 80
1, 84479, Note_on_c, 0, 89, 0
1, 84480, Note_on_c, 0, 90, 80
1, 84599, Note_on_c, 0, 90, 0
1, 84600, Note_on_c, 0, 89, 80
1, 84719, Note_on_c, 0, 89, 0
1, 84720, Note_on_c, 0, 87, 80
1, 84839, Note_on_c, 0, 87, 0
1, 84840, Note_on_c, 0, 85, 80
1, 84959, Note_on_c, 0, 85, 0
1, 84960, Note_on_c, 0, 82, 80
1, 85079, Note_on_c, 0, 82, 0
1, 85080, Note_on_c, 0, 80, 80
1, 85199, Note_on_c, 0, 80, 0
1, 85200, Note_on_c, 0, 78, 80
1, 85439, Note_on_c, 0, 78, 0
1, 85439, Note_on_c, 0, 75, 0
1, 85439, Note_on_c, 0, 63, 0
1, 85440, Note_on_c, 0, 75, 80
1, 85440, Note_on_c, 0, 63, 80
1, 85679, Note_on_c, 0, 75, 0
1, 85679, Note_on_c, 0, 63, 0
1, 85680, Note_on_c, 0, 82, 80
1, 85680, Note_on_c, 0, 70, 80
1, 85919, Note_on_c, 0, 82, 0
1, 85919, Note_on_c, 0, 70, 0
1, 85920, Note_on_c, 0, 80, 80
1, 85920, Note_on_c, 0, 68, 80
1, 86639, Note_on_c, 0, 80, 0
1, 86639, Note_on_c, 0, 68, 0
1, 86640, Note_on_c, 0, 78, 80
1, 86640, Note_on_c, 0, 66, 80
1, 86879, Note_on_c, 0, 78, 0
1, 86879, Note_on_c, 0, 66, 0
1, 86880, Note_on_c, 0, 77, 80
1, 86880, Note_on_c, 0, 65, 80
1, 87239, Note_on_c, 0, 77, 0
1, 87239, Note_on_c, 0, 65, 0
1, 87240, Note_on_c, 0, 85, 80
1, 87240, Note_on_c, 0, 73, 80
1, 87599, Note_on_c, 0, 85, 0
1, 87599, Note_on_c, 0, 73, 0
1, 87600, Note_on_c, 0, 82, 80
1, 87600, Note_on_c, 0, 70, 80
1, 87840, Note_on_c, 0, 90, 80
1, 87959, Note_on_c, 0, 90, 0
1, 87960, Note_on_c, 0, 82, 80
1, 88079, Note_on_c, 0, 82, 0
1, 88080, Note_on_c, 0, 78, 80
1, 88199, Note_on_c, 0, 78, 0
1, 88200, Note_on_c, 0, 89, 80
1, 88319, Note_on_c, 0, 89, 0
1, 88320, Note_on_c, 0, 82, 80
1, 88439, Note_on_c, 0, 82, 0
1, 88440, Note_on_c, 0, 78, 80
1, 88559, Note_on_c, 0, 78, 0
1, 88560, Note_on_c, 0, 87, 80
1, 88679, Note_on_c, 0, 87, 0
1, 88680, Note_on_c, 0, 82, 80
1, 88799, Note_on_c, 0, 82, 0
1, 88800, Note_on_c, 0, 78, 80
1, 88919, Note_on_c, 0, 78, 0
1, 88920, Note_on_c, 0, 85, 80
1, 89039, Note_on_c, 0, 85, 0
1, 89040, Note_on_c, 0, 82, 80
1, 89279, Note_on_c, 0, 82, 0
1, 89279, Note_on_c, 0, 82, 0
1, 89279, Note_on_c, 0, 70, 0
1, 89280, Note_on_c, 0, 75, 80
1, 89280, Note_on_c, 0, 63, 80
1, 89519, Note_on_c, 0, 75, 0
1, 89519, Note_on_c, 0, 63, 0
1, 89520, Note_on_c, 0, 82, 80
1, 89520, Note_on_c, 0, 70, 80
1, 89759, Note_on_c, 0, 82, 0
1, 89759, Note_on_c, 0, 70, 0
1, 89760, Note_on_c, 0, 80, 80
1, 89760, Note_on_c, 0, 68, 80
1, 90479, Note_on_c, 0, 80, 0
1, 90479, Note_on_c, 0, 68, 0
1, 90480, Note_on_c, 0, 78, 80
1, 90480, Note_on_c, 0, 66, 80
1, 90719, Note_on_c, 0, 78, 0
1, 90719, Note_on_c, 0, 66, 0
1, 90720, Note_on_c, 0, 77, 80
1, 90720, Note_on_c, 0, 65, 80
1, 91079, Note_on_c, 0, 77, 0
1, 91079, Note_on_c, 0, 65, 0
1, 91080, Note_on_c, 0, 73, 80
1, 91080, Note_on_c, 0, 61, 80
1, 91439, Note_on_c, 0, 73, 0
1, 91439, Note_on_c, 0, 61, 0
1, 91440, Note_on_c, 0, 75, 80
1, 91440, Note_on_c, 0, 72, 80
1, 91440, Note_on_c, 0, 63, 80
1, 91920, Note_on_c, 0, 63, 80
1, 91920, Note_on_c, 0, 60, 80
1, 92159, Note_on_c, 0, 63, 0
1, 92159, Note_on_c, 0, 60, 0
1, 92160, Note_on_c, 0, 63, 80
1, 92160, Note_on_c, 0, 60, 80
1, 92399, Note_on_c, 0, 63, 0
1, 92399, Note_on_c, 0, 60, 0
1, 92400, Note_on_c, 0, 61, 80
1, 92519, Note_on_c, 0, 61, 0
1, 92520, Note_on_c, 0, 63, 80
1, 92639, Note_on_c, 0, 72, 0
1, 92639, Note_on_c, 0, 63, 0
1, 92879, Note_on_c, 0, 63, 0
1, 92879, Note_on_c, 0, 75, 0
1, 92880, Note_on_c, 0, 75, 80
1, 92880, Note_on_c, 0, 63, 80
1, 93119, Note_on_c, 0, 75, 0
1, 93119, Note_on_c, 0, 63, 0
1, 93120, Note_on_c, 0, 75, 80
1, 93120, Note_on_c, 0, 63, 80
1, 93359, Note_on_c, 0, 75, 0
1, 93359, Note_on_c, 0, 63, 0
1, 93360, Note_on_c, 0, 77, 80
1, 93360, Note_on_c, 0, 65, 80
1, 93599, Note_on_c, 0, 77, 0
1, 93599, Note_on_c, 0, 65, 0
1, 93600, Note_on_c, 0, 78, 80
1, 93600, Note_on_c, 0, 66, 80
1, 93839, Note_on_c, 0, 78, 0
1, 93839, Note_on_c, 0, 66, 0
1, 93840, Note_on_c, 0, 77, 80
1, 93840, Note_on_c, 0, 65, 80
1, 94079, Note_on_c, 0, 77, 0
1, 94079, Note_on_c, 0, 65, 0
1, 94080, Note_on_c, 0, 73, 80
1, 94080, Note_on_c, 0, 61, 80
1, 94319, Note_on_c, 0, 73, 0
1, 94319, Note_on_c, 0, 61, 0
1, 94320, Note_on_c, 0, 75, 80
1, 94320, Note_on_c, 0, 70, 80
1, 94320, Note_on_c, 0, 63, 80
1, 94799, Note_on_c, 0, 75, 0
1, 94799, Note_on_c, 0, 70, 0
1, 94799, Note_on_c, 0, 63, 0
1, 94800, Note_on_c, 0, 73, 80
1, 94800, Note_on_c, 0, 68, 80
1, 94800, Note_on_c, 0, 61, 80
1, 95279, Note_on_c, 0, 73, 0
1, 95279, Note_on_c, 0, 68, 0
1, 95279, Note_on_c, 0, 61, 0
1, 95280, Note_on_c, 0, 75, 80
1, 95280, Note_on_c, 0, 70, 80
1, 95280, Note_on_c, 0, 63, 80
1, 96959, Note_on_c, 0, 75, 0
1, 96959, Note_on_c, 0, 70, 0
1, 96959, Note_on_c, 0, 63, 0
1, 96960, Note_on_c, 0, 75, 80
1, 96960, Note_on_c, 0, 63, 80
1, 97199, Note_on_c, 0, 75, 0
1, 97199, Note_on_c, 0, 63, 0
1, 97200, Note_on_c, 0, 82, 80
1, 97200, Note_on_c, 0, 70, 80
1, 97439, Note_on_c, 0, 82, 0
1, 97439, Note_on_c, 0, 70, 0
1, 97440, Note_on_c, 0, 80, 80
1, 97440, Note_on_c, 0, 68, 80
1, 98159, Note_on_c, 0, 80, 0
1, 98159, Note_on_c, 0, 68, 0
1, 98160, Note_on_c, 0, 78, 80
1, 98160, Note_on_c, 0, 66, 80
1, 98399, Note_on_c, 0, 78, 0
1, 98399, Note_on_c, 0, 66, 0
1, 98400, Note_on_c, 0, 77, 80
1, 98400, Note_on_c, 0, 65, 80
1, 98759, Note_on_c, 0, 77, 0
1, 98759, Note_on_c, 0, 65, 0
1, 98760, Note_on_c, 0, 73, 80
1, 98760, Note_on_c, 0, 61, 80
1, 99119, Note_on_c, 0, 73, 0
1, 99119, Note_on_c, 0, 61, 0
1, 99120, Note_on_c, 0, 75, 80
1, 99120, Note_on_c, 0, 63, 80
1, 99360, Note_on_c, 0, 87, 80
1, 99360, Note_on_c, 0, 82, 80
1, 99479, Note_on_c, 0, 87, 0
1, 99479, Note_on_c, 0, 82, 0
1, 99480, Note_on_c, 0, 85, 80
1, 99599, Note_on_c, 0, 85, 0
1, 99600, Note_on_c, 0, 87, 80
1, 99719, Note_on_c, 0, 87, 0
1, 99720, Note_on_c, 0, 89, 80
1, 99839, Note_on_c, 0, 89, 0
1, 99840, Note_on_c, 0, 90, 80
1, 99959, Note_on_c, 0, 90, 0
1, 99960, Note_on_c, 0, 89, 80
1, 100079, Note_on_c, 0, 89, 0
1, 100080, Note_on_c, 0, 87, 80
1, 100199, Note_on_c, 0, 87, 0
1, 100200, Note_on_c, 0, 85, 80
1, 100319, Note_on_c, 0, 85, 0
1, 100320, Note_on_c, 0, 82, 80
1, 100439, Note_on_c, 0, 82, 0
1, 100440, Note_on_c, 0, 80, 80
1, 100559, Note_on_c, 0, 80, 0
1, 100560, Note_on_c, 0, 78, 80
1, 100799, Note_on_c, 0, 78, 0
1, 100799, Note_on_c, 0, 75, 0
1, 100799, Note_on_c, 0, 63, 0
1, 100800, Note_on_c, 0, 75, 80
1, 100800, Note_on_c, 0, 63, 80
1, 101039, Note_on_c, 0, 75, 0
1, 101039, Note_on_c, 0, 63, 0
1, 101040, Note_on_c, 0, 82, 80
1, 101040, Note_on_c, 0, 70, 80
1, 101279, Note_on_c, 0, 82, 0
1, 101279, Note_on_c, 0, 70, 0
1, 101280, Note_on_c, 0, 80, 80
1, 101280, Note_on_c, 0, 68, 80
1, 101999, Note_on_c, 0, 80, 0
1, 101999, Note_on_c, 0, 68, 0
1, 102000, Note_on_c, 0, 78, 80
1, 102000, Note_on_c, 0, 66, 80
1, 102239, Note_on_c, 0, 78, 0
1, 102239, Note_on_c, 0, 66, 0
1, 102240, Note_on_c, 0, 77, 80
1, 102240, Note_on_c, 0, 65, 80
1, 102599, Note_on_c, 0, 77, 0
1, 102599, Note_on_c, 0, 65, 0
1, 102600, Note_on_c, 0, 85, 80
1, 102600, Note_on_c, 0, 73, 80
1, 102959, Note_on_c, 0, 85, 0
1, 102959, Note_on_c, 0, 73, 0
1, 102960, Note_on_c, 0, 82, 80
1, 102960, Note_on_c, 0, 70, 80
1, 103200, Note_on_c, 0, 90, 80
1, 103319, Note_on_c, 0, 90, 0
1, 103320, Note_on_c, 0, 82, 80
1, 103439, Note_on_c, 0, 82, 0
1, 103440, Note_on_c, 0, 78, 80
1, 103559, Note_on_c, 0, 78, 0
1, 103560, Note_on_c, 0, 89, 80
1, 103679, Note_on_c, 0, 89, 0
1, 103680, Note_on_c, 0, 82, 80
1, 103799, Note_on_c, 0, 82, 0
1, 103800, Note_on_c, 0, 78, 80
1, 103919, Note_on_c, 0, 78, 0
1, 103920, Note_on_c, 0, 87, 80
1, 104039, Note_on_c, 0, 87, 0
1, 104040, Note_on_c, 0, 82, 80
1, 104159, Note_on_c, 0, 82, 0
1, 104160, Note_on_c, 0, 78, 80
1, 104279, Note_on_c, 0, 78, 0
1, 104280, Note_on_c, 0, 85, 80
1, 104399, Note_on_c, 0, 85, 0
1, 104400, Note_on_c, 0, 82, 80
1, 104639, Note_on_c, 0, 82, 0
1, 104639, Note_on_c, 0, 82, 0
1, 104639, Note_on_c, 0, 70, 0
1, 104640, Note_on_c, 0, 75, 80
1, 104640, Note_on_c, 0, 63, 80
1, 104879, Note_on_c, 0, 75, 0
1, 104879, Note_on_c, 0, 63, 0
1, 104880, Note_on_c, 0, 82, 80
1, 104880, Note_on_c, 0, 70, 80
1, 105119, Note_on_c, 0, 82, 0
1, 105119, Note_on_c, 0, 70, 0
1, 105120, Note_on_c, 0, 80, 80
1, 105120, Note_on_c, 0, 68, 80
1, 105839, Note_on_c, 0, 80, 0
1, 105839, Note_on_c, 0, 68, 0
1, 105840, Note_on_c, 0, 78, 80
1, 105840, Note_on_c, 0, 66, 80
1, 106079, Note_on_c, 0, 78, 0
1, 106079, Note_on_c, 0, 66, 0
1, 106080, Note_on_c, 0, 77, 80
1, 106080, Note_on_c, 0, 65, 80
1, 106439, Note_on_c, 0, 77, 0
1, 106439, Note_on_c, 0, 65, 0
1, 106440, Note_on_c, 0, 73, 80
1, 106440, Note_on_c, 0, 61, 80
1, 106799, Note_on_c, 0, 73, 0
1, 106799, Note_on_c, 0, 61, 0
1, 106800, Note_on_c, 0, 75, 80
1, 106800, Note_on_c, 0, 72, 80
1, 106800, Note_on_c, 0, 63, 80
1, 107280, Note_on_c, 0, 63, 80
1, 107280, Note_on_c, 0, 60, 80
1, 107519, Note_on_c, 0, 63, 0
1, 107519, Note_on_c, 0, 60, 0
1, 107520, Note_on_c, 0, 63, 80
1, 107520, Note_on_c, 0, 60, 80
1, 107759, Note_on_c, 0, 63, 0
1, 107759, Note_on_c, 0, 60, 0
1, 107760, Note_on_c, 0, 61, 80
1, 107879, Note_on_c, 0, 61, 0
1, 107880, Note_on_c, 0, 63, 80
1, 107999, Note_on_c, 0, 72, 0
1, 107999, Note_on_c, 0, 63, 0
1, 108239, Note_on_c, 0, 63, 0
1, 108239, Note_on_c, 0, 75, 0
1, 108240, Note_on_c, 0, 75, 80
1, 108240, Note_on_c, 0, 63, 80
1, 108479, Note_on_c, 0, 75, 0
1, 108479, Note_on_c, 0, 63, 0
1, 108480, Note_on_c, 0, 75, 80
1, 108480, Note_on_c, 0, 63, 80
1, 108719, Note_on_c, 0, 75, 0
1, 108719, Note_on_c, 0, 63, 0
1, 108720, Note_on_c, 0, 77, 80
1, 108720, Note_on_c, 0, 65, 80
1, 108959, Note_on_c, 0, 77, 0
1, 108959, Note_on_c, 0, 65, 0
1, 108960, Note_on_c, 0, 78, 80
1, 108960, Note_on_c, 0, 66, 80
1, 109199, Note_on_c, 0, 78, 0
1, 109199, Note_on_c, 0, 66, 0
1, 109200, Note_on_c, 0, 80, 80
1, 109200, Note_on_c, 0, 68, 80
1, 109439, Note_on_c, 0, 80, 0
1, 109439, Note_on_c, 0, 68, 0
1, 109440, Note_on_c, 0, 82, 80
1, 109440, Note_on_c, 0, 70, 80
1, 109679, Note_on_c, 0, 82, 0
1, 109679, Note_on_c, 0, 70, 0
1, 109680, Note_on_c, 0, 85, 80
1, 109680, Note_on_c, 0, 80, 80
1, 109680, Note_on_c, 0, 77, 80
1, 109680, Note_on_c, 0, 73, 80
1, 109920, Key_signature, -1, "major"
1, 110399, Note_on_c, 0, 85, 0
1, 110399, Note_on_c, 0, 80, 0
1, 110399, Note_on_c, 0, 77, 0
1, 110399, Note_on_c, 0, 73, 0
1, 110400, Note_on_c, 0, 85, 80
1, 110400, Note_on_c, 0, 80, 80
1, 110400, Note_on_c, 0, 77, 80
1, 110400, Note_on_c, 0, 73, 80
1, 110639, Note_on_c, 0, 85, 0
1, 110639, Note_on_c, 0, 80, 0
1, 110639, Note_on_c, 0, 77, 0
1, 110639, Note_on_c, 0, 73, 0
1, 110640, Note_on_c, 0, 87, 80
1, 110640, Note_on_c, 0, 82, 80
1, 110640, Note_on_c, 0, 78, 80
1, 110640, Note_on_c, 0, 75, 80
1, 111119, Note_on_c, 0, 87, 0
1, 111119, Note_on_c, 0, 82, 0
1, 111119, Note_on_c, 0, 78, 0
1, 111119, Note_on_c, 0, 75, 0
1, 111120, Note_on_c, 0, 86, 80
1, 111152, Note_on_c, 0, 86, 0
1, 111153, Note_on_c, 0, 84, 80
1, 111185, Note_on_c, 0, 84, 0
1, 111186, Note_on_c, 0, 83, 80
1, 111218, Note_on_c, 0, 83, 0
1, 111219, Note_on_c, 0, 81, 80
1, 111251, Note_on_c, 0, 81, 0
1, 111252, Note_on_c, 0, 79, 80
1, 111284, Note_on_c, 0, 79, 0
1, 111285, Note_on_c, 0, 77, 80
1, 111317, Note_on_c, 0, 77, 0
1, 111318, Note_on_c, 0, 76, 80
1, 111350, Note_on_c, 0, 76, 0
1, 111351, Note_on_c, 0, 74, 80
1, 111383, Note_on_c, 0, 74, 0
1, 111384, Note_on_c, 0, 72, 80
1, 111416, Note_on_c, 0, 72, 0
1, 111417, Note_on_c, 0, 71, 80
1, 111449, Note_on_c, 0, 71, 0
1, 111450, Note_on_c, 0, 69, 80
1, 111482, Note_on_c, 0, 69, 0
1, 111483, Note_on_c, 0, 67, 80
1, 111515, Note_on_c, 0, 67, 0
1, 111516, Note_on_c, 0, 65, 80
1, 111548, Note_on_c, 0, 65, 0
1, 111549, Note_on_c, 0, 64, 80
1, 111581, Note_on_c, 0, 64, 0
1, 111582, Note_on_c, 0, 62, 80
1, 111614, Note_on_c, 0, 62, 0
1, 111615, Note_on_c, 0, 60, 80
1, 111647, Note_on_c, 0, 60, 0
1, 111648, Note_on_c, 0, 59, 80
1, 111680, Note_on_c, 0, 59, 0
1, 111681, Note_on_c, 0, 57, 80
1, 111713, Note_on_c, 0, 57, 0
1, 111714, Note_on_c, 0, 55, 80
1, 111746, Note_on_c, 0, 55, 0
1, 111747, Note_on_c, 0, 53, 80
1, 111779, Note_on_c, 0, 53, 0
1, 111780, Note_on_c, 0, 52, 80
1, 111812, Note_on_c, 0, 52, 0
1, 111813, Note_on_c, 0, 50, 80
1, 111845, Note_on_c, 0, 50, 0
1, 111846, Note_on_c, 0, 48, 80
1, 111878, Note_on_c, 0, 48, 0
1, 111879, Note_on_c, 0, 47, 80
1, 111911, Note_on_c, 0, 47, 0
1, 111912, Note_on_c, 0, 45, 80
1, 111944, Note_on_c, 0, 45, 0
1, 111945, Note_on_c, 0, 43, 80
1, 111977, Note_on_c, 0, 43, 0
1, 111978, Note_on_c, 0, 41, 80
1, 112010, Note_on_c, 0, 41, 0
1, 112011, Note_on_c, 0, 40, 80
1, 112043, Note_on_c, 0, 40, 0
1, 112044, Note_on_c, 0, 38, 80
1, 112076, Note_on_c, 0, 38, 0
1, 112320, Note_on_c, 0, 87, 80
1, 112320, Note_on_c, 0, 82, 80
1, 112320, Note_on_c, 0, 78, 80
1, 112799, Note_on_c, 0, 87, 0
1, 112799, Note_on_c, 0, 82, 0
1, 112799, Note_on_c, 0, 78, 0
1, 112800, Note_on_c, 0, 76, 80
1, 112919, Note_on_c, 0, 76, 0
1, 112920, Note_on_c, 0, 74, 80
1, 113039, Note_on_c, 0, 74, 0
1, 113040, Note_on_c, 0, 76, 80
1, 113159, Note_on_c, 0, 76, 0
1, 113160, Note_on_c, 0, 74, 80
1, 113279, Note_on_c, 0, 74, 0
1, 113280, Note_on_c, 0, 76, 80
1, 113399, Note_on_c, 0, 76, 0
1, 113400, Note_on_c, 0, 77, 80
1, 113519, Note_on_c, 0, 77, 0
1, 113520, Note_on_c, 0, 74, 80
1, 113639, Note_on_c, 0, 74, 0
1, 113640, Note_on_c, 0, 76, 80
1, 113879, Note_on_c, 0, 76, 0
1, 113880, Note_on_c, 0, 74, 80
1, 113999, Note_on_c, 0, 74, 0
1, 114000, Note_on_c, 0, 76, 80
1, 114119, Note_on_c, 0, 76, 0
1, 114120, Note_on_c, 0, 74, 80
1, 114239, Note_on_c, 0, 74, 0
1, 114240, Note_on_c, 0, 76, 80
1, 114359, Note_on_c, 0, 76, 0
1, 114360, Note_on_c, 0, 74, 80
1, 114479, Note_on_c, 0, 74, 0
1, 114480, Note_on_c, 0, 76, 80
1, 114599, Note_on_c, 0, 76, 0
1, 114600, Note_on_c, 0, 77, 80
1, 114719, Note_on_c, 0, 77, 0
1, 114720, Note_on_c, 0, 69, 80
1, 114720, Note_on_c, 0, 76, 80
1, 114839, Note_on_c, 0, 76, 0
1, 114840, Note_on_c, 0, 74, 80
1, 114959, Note_on_c, 0, 74, 0
1, 114960, Note_on_c, 0, 76, 80
1, 115079, Note_on_c, 0, 76, 0
1, 115080, Note_on_c, 0, 74, 80
1, 115199, Note_on_c, 0, 74, 0
1, 115200, Note_on_c, 0, 76, 80
1, 115319, Note_on_c, 0, 76, 0
1, 115320, Note_on_c, 0, 77, 80
1, 115439, Note_on_c, 0, 69, 0
1, 115439, Note_on_c, 0, 77, 0
1, 115560, Note_on_c, 0, 74, 80
1, 115560, Note_on_c, 0, 79, 80
1, 115799, Note_on_c, 0, 79, 0
1, 115800, Note_on_c, 0, 81, 80
1, 115919, Note_on_c, 0, 81, 0
1, 115920, Note_on_c, 0, 79, 80
1, 116039, Note_on_c, 0, 79, 0
1, 116040, Note_on_c, 0, 77, 80
1, 116159, Note_on_c, 0, 74, 0
1, 116159, Note_on_c, 0, 77, 0
1, 116160, Note_on_c, 0, 72, 80
1, 116160, Note_on_c, 0, 79, 80
1, 116279, Note_on_c, 0, 79, 0
1, 116280, Note_on_c, 0, 77, 80
1, 116399, Note_on_c, 0, 77, 0
1, 116400, Note_on_c, 0, 76, 80
1, 116519, Note_on_c, 0, 76, 0
1, 116520, Note_on_c, 0, 74, 80
1, 116639, Note_on_c, 0, 72, 0
1, 116639, Note_on_c, 0, 74, 0
1, 116640, Note_on_c, 0, 76, 80
1, 116879, Note_on_c, 0, 76, 0
1, 116880, Note_on_c, 0, 84, 80
1, 116880, Note_on_c, 0, 77, 80
1, 116880, Note_on_c, 0, 74, 80
1, 116999, Note_on_c, 0, 84, 0
1, 116999, Note_on_c, 0, 77, 0
1, 116999, Note_on_c, 0, 74, 0
1, 117000, Note_on_c, 0, 84, 80
1, 117000, Note_on_c, 0, 77, 80
1, 117000, Note_on_c, 0, 74, 80
1, 117239, Note_on_c, 0, 84, 0
1, 117239, Note_on_c, 0, 77, 0
1, 117239, Note_on_c, 0, 74, 0
1, 117240, Note_on_c, 0, 82, 80
1, 117240, Note_on_c, 0, 77, 80
1, 117240, Note_on_c, 0, 74, 80
1, 117359, Note_on_c, 0, 82, 0
1, 117359, Note_on_c, 0, 77, 0
1, 117359, Note_on_c, 0, 74, 0
1, 117360, Note_on_c, 0, 82, 80
1, 117360, Note_on_c, 0, 77, 80
1, 117360, Note_on_c, 0, 74, 80
1, 117599, Note_on_c, 0, 82, 0
1, 117599, Note_on_c, 0, 77, 0
1, 117599, Note_on_c, 0, 74, 0
1, 117600, Note_on_c, 0, 81, 80
1, 117600, Note_on_c, 0, 76, 80
1, 117600, Note_on_c, 0, 72, 80
1, 117959, Note_on_c, 0, 81, 0
1, 117959, Note_on_c, 0, 76, 0
1, 117959, Note_on_c, 0, 72, 0
1, 117960, Note_on_c, 0, 79, 80
1, 117960, Note_on_c, 0, 72, 80
1, 118319, Note_on_c, 0, 79, 0
1, 118319, Note_on_c, 0, 72, 0
1, 118320, Note_on_c, 0, 77, 80
1, 118320, Note_on_c, 0, 72, 80
1, 118559, Note_on_c, 0, 77, 0
1, 118559, Note_on_c, 0, 72, 0
1, 118560, Note_on_c, 0, 76, 80
1, 118679, Note_on_c, 0, 76, 0
1, 118680, Note_on_c, 0, 77, 80
1, 118799, Note_on_c, 0, 77, 0
1, 118800, Note_on_c, 0, 76, 80
1, 118919, Note_on_c, 0, 76, 0
1, 118920, Note_on_c, 0, 72, 80
1, 119039, Note_on_c, 0, 72, 0
1, 119040, Note_on_c, 0, 74, 80
1, 119159, Note_on_c, 0, 74, 0
1, 119160, Note_on_c, 0, 68, 80
1, 119279, Note_on_c, 0, 68, 0
1, 119280, Note_on_c, 0, 67, 80
1, 119399, Note_on_c, 0, 67, 0
1, 119400, Note_on_c, 0, 65, 80
1, 119519, Note_on_c, 0, 65, 0
1, 119520, Note_on_c, 0, 62, 80
1, 119639, Note_on_c, 0, 62, 0
1, 119640, Note_on_c, 0, 60, 80
1, 119759, Note_on_c, 0, 60, 0
1, 119760, Note_on_c, 0, 57, 80
1, 119879, Note_on_c, 0, 57, 0
1, 119880, Note_on_c, 0, 60, 80
1, 119999, Note_on_c, 0, 60, 0
1, 120000, Note_on_c, 0, 62, 80
1, 120119, Note_on_c, 0, 62, 0
1, 120120, Note_on_c, 0, 65, 80
1, 120239, Note_on_c, 0, 65, 0
1, 120240, Note_on_c, 0, 64, 80
1, 120359, Note_on_c, 0, 64, 0
1, 120360, Note_on_c, 0, 57, 80
1, 120479, Note_on_c, 0, 57, 0
1, 120480, Note_on_c, 0, 62, 80
1, 120959, Note_on_c, 0, 62, 0
1, 120960, Note_on_c, 0, 57, 80
1, 121079, Note_on_c, 0, 57, 0
1, 121080, Note_on_c, 0, 60, 80
1, 121199, Note_on_c, 0, 60, 0
1, 121200, Note_on_c, 0, 61, 80
1, 121319, Note_on_c, 0, 61, 0
1, 121320, Note_on_c, 0, 62, 80
1, 121439, Note_on_c, 0, 62, 0
1, 121440, Note_on_c, 0, 64, 80
1, 121559, Note_on_c, 0, 64, 0
1, 121560, Note_on_c, 0, 62, 80
1, 121679, Note_on_c, 0, 62, 0
1, 121680, Note_on_c, 0, 64, 80
1, 121799, Note_on_c, 0, 64, 0
1, 121800, Note_on_c, 0, 66, 80
1, 121919, Note_on_c, 0, 66, 0
1, 121920, Note_on_c, 0, 67, 80
1, 122039, Note_on_c, 0, 67, 0
1, 122040, Note_on_c, 0, 72, 80
1, 122279, Note_on_c, 0, 72, 0
1, 122280, Note_on_c, 0, 67, 80
1, 122399, Note_on_c, 0, 67, 0
1, 122400, Note_on_c, 0, 70, 80
1, 122639, Note_on_c, 0, 70, 0
1, 122640, Note_on_c, 0, 69, 80
1, 122879, Note_on_c, 0, 69, 0
1, 122880, Note_on_c, 0, 69, 80
1, 122999, Note_on_c, 0, 69, 0
1, 123000, Note_on_c, 0, 72, 80
1, 123119, Note_on_c, 0, 72, 0
1, 123120, Note_on_c, 0, 74, 80
1, 123239, Note_on_c, 0, 74, 0
1, 123240, Note_on_c, 0, 77, 80
1, 123359, Note_on_c, 0, 77, 0
1, 123360, Note_on_c, 0, 84, 80
1, 123360, Note_on_c, 0, 80, 80
1, 123360, Note_on_c, 0, 79, 80
1, 123599, Note_on_c, 0, 84, 0
1, 123599, Note_on_c, 0, 80, 0
1, 123599, Note_on_c, 0, 79, 0
1, 123600, Note_on_c, 0, 77, 80
1, 123719, Note_on_c, 0, 77, 0
1, 123720, Note_on_c, 0, 84, 80
1, 123720, Note_on_c, 0, 79, 80
1, 123959, Note_on_c, 0, 84, 0
1, 123959, Note_on_c, 0, 79, 0
1, 123960, Note_on_c, 0, 77, 80
1, 124079, Note_on_c, 0, 77, 0
1, 124080, Note_on_c, 0, 74, 80
1, 124199, Note_on_c, 0, 74, 0
1, 124200, Note_on_c, 0, 72, 80
1, 124319, Note_on_c, 0, 72, 0
1, 124320, Note_on_c, 0, 74, 80
1, 124799, Note_on_c, 0, 74, 0
1, 124800, Note_on_c, 0, 69, 80
1, 124895, Note_on_c, 0, 69, 0
1, 124896, Note_on_c, 0, 70, 80
1, 124991, Note_on_c, 0, 70, 0
1, 124992, Note_on_c, 0, 72, 80
1, 125087, Note_on_c, 0, 72, 0
1, 125088, Note_on_c, 0, 74, 80
1, 125183, Note_on_c, 0, 74, 0
1, 125184, Note_on_c, 0, 76, 80
1, 125279, Note_on_c, 0, 76, 0
1, 125280, Note_on_c, 0, 77, 80
1, 125459, Note_on_c, 0, 77, 0
1, 125640, Note_on_c, 0, 76, 80
1, 125999, Note_on_c, 0, 76, 0
1, 126000, Note_on_c, 0, 72, 80
1, 126239, Note_on_c, 0, 72, 0
1, 126240, Note_on_c, 0, 74, 80
1, 126359, Note_on_c, 0, 74, 0
1, 126360, Note_on_c, 0, 74, 80
1, 126479, Note_on_c, 0, 74, 0
1, 126480, Note_on_c, 0, 74, 80
1, 126599, Note_on_c, 0, 74, 0
1, 126600, Note_on_c, 0, 76, 80
1, 126719, Note_on_c, 0, 76, 0
1, 126720, Note_on_c, 0, 76, 80
1, 126959, Note_on_c, 0, 76, 0
1, 126960, Note_on_c, 0, 77, 80
1, 127439, Note_on_c, 0, 77, 0
1, 127440, Note_on_c, 0, 79, 80
1, 127679, Note_on_c, 0, 79, 0
1, 127680, Note_on_c, 0, 81, 80
1, 127919, Note_on_c, 0, 81, 0
1, 127920, Note_on_c, 0, 84, 80
1, 128159, Note_on_c, 0, 84, 0
1, 128160, Note_on_c, 0, 77, 80
1, 128639, Note_on_c, 0, 77, 0
1, 128640, Note_on_c, 0, 79, 80
1, 128879, Note_on_c, 0, 79, 0
1, 128880, Note_on_c, 0, 76, 80
1, 129359, Note_on_c, 0, 76, 0
1, 129360, Note_on_c, 0, 77, 80
1, 129839, Note_on_c, 0, 77, 0
1, 129840, Note_on_c, 0, 74, 80
1, 131279, Note_on_c, 0, 74, 0
1, 131280, Note_on_c, 0, 69, 80
1, 131519, Note_on_c, 0, 69, 0
1, 131520, Note_on_c, 0, 74, 80
1, 131759, Note_on_c, 0, 74, 0
1, 131760, Note_on_c, 0, 76, 80
1, 131999, Note_on_c, 0, 76, 0
1, 132000, Note_on_c, 0, 77, 80
1, 132479, Note_on_c, 0, 77, 0
1, 132480, Note_on_c, 0, 79, 80
1, 132719, Note_on_c, 0, 79, 0
1, 132720, Note_on_c, 0, 76, 80
1, 133439, Note_on_c, 0, 76, 0
1, 133440, Note_on_c, 0, 84, 80
1, 133679, Note_on_c, 0, 84, 0
1, 133680, Note_on_c, 0, 81, 80
1, 133680, Note_on_c, 0, 77, 80
1, 133680, Note_on_c, 0, 74, 80
1, 135119, Note_on_c, 0, 81, 0
1, 135119, Note_on_c, 0, 77, 0
1, 135119, Note_on_c, 0, 74, 0
1, 135120, Note_on_c, 0, 81, 80
1, 135359, Note_on_c, 0, 81, 0
1, 135360, Note_on_c, 0, 84, 80
1, 135599, Note_on_c, 0, 84, 0
1, 135600, Note_on_c, 0, 86, 80
1, 135839, Note_on_c, 0, 86, 0
1, 135840, Note_on_c, 0, 79, 80
1, 135840, Note_on_c, 0, 70, 80
1, 136079, Note_on_c, 0, 79, 0
1, 136079, Note_on_c, 0, 70, 0
1, 136080, Note_on_c, 0, 79, 80
1, 136080, Note_on_c, 0, 70, 80
1, 136319, Note_on_c, 0, 79, 0
1, 136319, Note_on_c, 0, 70, 0
1, 136320, Note_on_c, 0, 79, 80
1, 136320, Note_on_c, 0, 70, 80
1, 137039, Note_on_c, 0, 79, 0
1, 137039, Note_on_c, 0, 70, 0
1, 137040, Note_on_c, 0, 79, 80
1, 137279, Note_on_c, 0, 79, 0
1, 137280, Note_on_c, 0, 81, 80
1, 137519, Note_on_c, 0, 81, 0
1, 137520, Note_on_c, 0, 84, 80
1, 137759, Note_on_c, 0, 84, 0
1, 137760, Note_on_c, 0, 77, 80
1, 137760, Note_on_c, 0, 72, 80
1, 137999, Note_on_c, 0, 77, 0
1, 137999, Note_on_c, 0, 72, 0
1, 138000, Note_on_c, 0, 77, 80
1, 138000, Note_on_c, 0, 72, 80
1, 138239, Note_on_c, 0, 77, 0
1, 138239, Note_on_c, 0, 72, 0
1, 138240, Note_on_c, 0, 77, 80
1, 138240, Note_on_c, 0, 72, 80
1, 138959, Note_on_c, 0, 77, 0
1, 138959, Note_on_c, 0, 72, 0
1, 138960, Note_on_c, 0, 74, 80
1, 139199, Note_on_c, 0, 74, 0
1, 139200, Note_on_c, 0, 74, 80
1, 139439, Note_on_c, 0, 74, 0
1, 139440, Note_on_c, 0, 76, 80
1, 139679, Note_on_c, 0, 76, 0
1, 139680, Note_on_c, 0, 77, 80
1, 140159, Note_on_c, 0, 77, 0
1, 140160, Note_on_c, 0, 79, 80
1, 140540, Note_on_c, 0, 69, 80
1, 140590, Note_on_c, 0, 73, 80
1, 140639, Note_on_c, 0, 79, 0
1, 140640, Note_on_c, 0, 76, 80
1, 141019, Note_on_c, 0, 69, 0
1, 141069, Note_on_c, 0, 73, 0
1, 141119, Note_on_c, 0, 76, 0
1, 141120, Note_on_c, 0, 73, 80
1, 141599, Note_on_c, 0, 73, 0
1, 141600, Note_on_c, 0, 74, 80
1, 141600, Note_on_c, 0, 70, 80
1, 141600, Note_on_c, 0, 65, 80
1, 142079, Note_on_c, 0, 74, 0
1, 142079, Note_on_c, 0, 70, 0
1, 142079, Note_on_c, 0, 65, 0
1, 142560, Note_on_c, 0, 76, 80
1, 142560, Note_on_c, 0, 73, 80
1, 142560, Note_on_c, 0, 69, 80
1, 142560, Note_on_c, 0, 64, 80
1, 142800, Note_on_c, 0, 69, 80
1, 142800, Note_on_c, 0, 57, 80
1, 143039, Note_on_c, 0, 69, 0
1, 143039, Note_on_c, 0, 57, 0
1, 143040, Note_on_c, 0, 74, 80
1, 143040, Note_on_c, 0, 62, 80
1, 143279, Note_on_c, 0, 74, 0
1, 143279, Note_on_c, 0, 62, 0
1, 143280, Note_on_c, 0, 76, 80
1, 143280, Note_on_c, 0, 64, 80
1, 143519, Note_on_c, 0, 76, 0
1, 143519, Note_on_c, 0, 64, 0
1, 143519, Note_on_c, 0, 76, 0
1, 143519, Note_on_c, 0, 73, 0
1, 143519, Note_on_c, 0, 69, 0
1, 143519, Note_on_c, 0, 64, 0
1, 143520, Note_on_c, 0, 77, 80
1, 143520, Note_on_c, 0, 65, 80
1, 143999, Note_on_c, 0, 77, 0
1, 143999, Note_on_c, 0, 65, 0
1, 144000, Note_on_c, 0, 79, 80
1, 144000, Note_on_c, 0, 67, 80
1, 144239, Note_on_c, 0, 79, 0
1, 144239, Note_on_c, 0, 67, 0
1, 144240, Note_on_c, 0, 76, 80
1, 144240, Note_on_c, 0, 64, 80
1, 144719, Note_on_c, 0, 76, 0
1, 144719, Note_on_c, 0, 64, 0
1, 144720, Note_on_c, 0, 77, 80
1, 144720, Note_on_c, 0, 65, 80
1, 145199, Note_on_c, 0, 77, 0
1, 145199, Note_on_c, 0, 65, 0
1, 145200, Note_on_c, 0, 74, 80
1, 145200, Note_on_c, 0, 70, 80
1, 145200, Note_on_c, 0, 62, 80
1, 145679, Note_on_c, 0, 70, 0
1, 145679, Note_on_c, 0, 62, 0
1, 145680, Note_on_c, 0, 70, 80
1, 145680, Note_on_c, 0, 62, 80
1, 146159, Note_on_c, 0, 70, 0
1, 146159, Note_on_c, 0, 62, 0
1, 146160, Note_on_c, 0, 70, 80
1, 146160, Note_on_c, 0, 62, 80
1, 146639, Note_on_c, 0, 70, 0
1, 146639, Note_on_c, 0, 62, 0
1, 146639, Note_on_c, 0, 74, 0
1, 146640, Note_on_c, 0, 69, 80
1, 146640, Note_on_c, 0, 57, 80
1, 146879, Note_on_c, 0, 69, 0
1, 146879, Note_on_c, 0, 57, 0
1, 146880, Note_on_c, 0, 74, 80
1, 146880, Note_on_c, 0, 62, 80
1, 147119, Note_on_c, 0, 74, 0
1, 147119, Note_on_c, 0, 62, 0
1, 147120, Note_on_c, 0, 76, 80
1, 147120, Note_on_c, 0, 64, 80
1, 147359, Note_on_c, 0, 76, 0
1, 147359, Note_on_c, 0, 64, 0
1, 147360, Note_on_c, 0, 77, 80
1, 147360, Note_on_c, 0, 65, 80
1, 147839, Note_on_c, 0, 77, 0
1, 147839, Note_on_c, 0, 65, 0
1, 147840, Note_on_c, 0, 79, 80
1, 147840, Note_on_c, 0, 67, 80
1, 148079, Note_on_c, 0, 79, 0
1, 148079, Note_on_c, 0, 67, 0
1, 148080, Note_on_c, 0, 76, 80
1, 148080, Note_on_c, 0, 64, 80
1, 148799, Note_on_c, 0, 76, 0
1, 148799, Note_on_c, 0, 64, 0
1, 148800, Note_on_c, 0, 84, 80
1, 148800, Note_on_c, 0, 76, 80
1, 148800, Note_on_c, 0, 72, 80
1, 149039, Note_on_c, 0, 84, 0
1, 149039, Note_on_c, 0, 76, 0
1, 149039, Note_on_c, 0, 72, 0
1, 149040, Note_on_c, 0, 84, 80
1, 149040, Note_on_c, 0, 77, 80
1, 149040, Note_on_c, 0, 74, 80
1, 149519, Note_on_c, 0, 84, 0
1, 149519, Note_on_c, 0, 77, 0
1, 149519, Note_on_c, 0, 74, 0
1, 149520, Note_on_c, 0, 81, 80
1, 149520, Note_on_c, 0, 74, 80
1, 149520, Note_on_c, 0, 71, 80
1, 149759, Note_on_c, 0, 81, 0
1, 149759, Note_on_c, 0, 74, 0
1, 149759, Note_on_c, 0, 71, 0
1, 150000, Note_on_c, 0, 81, 80
1, 150000, Note_on_c, 0, 74, 80
1, 150000, Note_on_c, 0, 71, 80
1, 150479, Note_on_c, 0, 81, 0
1, 150479, Note_on_c, 0, 74, 0
1, 150479, Note_on_c, 0, 71, 0
1, 150480, Note_on_c, 0, 81, 80
1, 150719, Note_on_c, 0, 81, 0
1, 150720, Note_on_c, 0, 84, 80
1, 150959, Note_on_c, 0, 84, 0
1, 150960, Note_on_c, 0, 86, 80
1, 151199, Note_on_c, 0, 86, 0
1, 151200, Note_on_c, 0, 79, 80
1, 151200, Note_on_c, 0, 70, 80
1, 151439, Note_on_c, 0, 79, 0
1, 151439, Note_on_c, 0, 70, 0
1, 151440, Note_on_c, 0, 79, 80
1, 151440, Note_on_c, 0, 70, 80
1, 151679, Note_on_c, 0, 79, 0
1, 151679, Note_on_c, 0, 70, 0
1, 151680, Note_on_c, 0, 79, 80
1, 151680, Note_on_c, 0, 70, 80
1, 152399, Note_on_c, 0, 79, 0
1, 152399, Note_on_c, 0, 70, 0
1, 152400, Note_on_c, 0, 79, 80
1, 152639, Note_on_c, 0, 79, 0
1, 152640, Note_on_c, 0, 81, 80
1, 152879, Note_on_c, 0, 81, 0
1, 152880, Note_on_c, 0, 84, 80
1, 153119, Note_on_c, 0, 84, 0
1, 153120, Note_on_c, 0, 77, 80
1, 153120, Note_on_c, 0, 72, 80
1, 153120, Note_on_c, 0, 69, 80
1, 153359, Note_on_c, 0, 77, 0
1, 153359, Note_on_c, 0, 72, 0
1, 153359, Note_on_c, 0, 69, 0
1, 153360, Note_on_c, 0, 77, 80
1, 153360, Note_on_c, 0, 72, 80
1, 153360, Note_on_c, 0, 69, 80
1, 153599, Note_on_c, 0, 77, 0
1, 153599, Note_on_c, 0, 72, 0
1, 153599, Note_on_c, 0, 69, 0
1, 153600, Note_on_c, 0, 77, 80
1, 153600, Note_on_c, 0, 72, 80
1, 153600, Note_on_c, 0, 69, 80
1, 154319, Note_on_c, 0, 77, 0
1, 154319, Note_on_c, 0, 72, 0
1, 154319, Note_on_c, 0, 69, 0
1, 154320, Note_on_c, 0, 74, 80
1, 154559, Note_on_c, 0, 74, 0
1, 154560, Note_on_c, 0, 74, 80
1, 154799, Note_on_c, 0, 74, 0
1, 154800, Note_on_c, 0, 76, 80
1, 155039, Note_on_c, 0, 76, 0
1, 155040, Note_on_c, 0, 77, 80
1, 155040, Note_on_c, 0, 74, 80
1, 155040, Note_on_c, 0, 70, 80
1, 155040, Note_on_c, 0, 67, 80
1, 155519, Note_on_c, 0, 77, 0
1, 155519, Note_on_c, 0, 74, 0
1, 155519, Note_on_c, 0, 70, 0
1, 155519, Note_on_c, 0, 67, 0
1, 155520, Note_on_c, 0, 79, 80
1, 155759, Note_on_c, 0, 79, 0
1, 155760, Note_on_c, 0, 76, 80
1, 155760, Note_on_c, 0, 73, 80
1, 155760, Note_on_c, 0, 69, 80
1, 155760, Note_on_c, 0, 64, 80
1, 156239, Note_on_c, 0, 76, 0
1, 156239, Note_on_c, 0, 73, 0
1, 156239, Note_on_c, 0, 69, 0
1, 156239, Note_on_c, 0, 64, 0
1, 156240, Note_on_c, 0, 73, 80
1, 156240, Note_on_c, 0, 69, 80
1, 156240, Note_on_c, 0, 64, 80
1, 156719, Note_on_c, 0, 73, 0
1, 156719, Note_on_c, 0, 69, 0
1, 156719, Note_on_c, 0, 64, 0
1, 156720, Note_on_c, 0, 74, 80
1, 156959, Note_on_c, 0, 74, 0
1, 156960, Note_on_c, 0, 65, 80
1, 157079, Note_on_c, 0, 65, 0
1, 157080, Note_on_c, 0, 70, 80
1, 157199, Note_on_c, 0, 70, 0
1, 157200, Note_on_c, 0, 74, 80
1, 157319, Note_on_c, 0, 74, 0
1, 157320, Note_on_c, 0, 77, 80
1, 157439, Note_on_c, 0, 77, 0
1, 157440, Note_on_c, 0, 65, 80
1, 157559, Note_on_c, 0, 65, 0
1, 157560, Note_on_c, 0, 70, 80
1, 157679, Note_on_c, 0, 70, 0
1, 157680, Note_on_c, 0, 74, 80
1, 157799, Note_on_c, 0, 74, 0
1, 157800, Note_on_c, 0, 77, 80
1, 157919, Note_on_c, 0, 77, 0
1, 157920, Note_on_c, 0, 76, 80
1, 158039, Note_on_c, 0, 76, 0
1, 158040, Note_on_c, 0, 69, 80
1, 158159, Note_on_c, 0, 69, 0
1, 158160, Note_on_c, 0, 72, 80
1, 158279, Note_on_c, 0, 72, 0
1, 158280, Note_on_c, 0, 76, 80
1, 158399, Note_on_c, 0, 76, 0
1, 158400, Note_on_c, 0, 69, 80
1, 158639, Note_on_c, 0, 69, 0
1, 158640, Note_on_c, 0, 72, 80
1, 158879, Note_on_c, 0, 72, 0
1, 158880, Note_on_c, 0, 74, 80
1, 158880, Note_on_c, 0, 69, 80
1, 159119, Note_on_c, 0, 74, 0
1, 159119, Note_on_c, 0, 69, 0
1, 159120, Note_on_c, 0, 72, 80
1, 159359, Note_on_c, 0, 72, 0
1, 159360, Note_on_c, 0, 74, 80
1, 159599, Note_on_c, 0, 74, 0
1, 159600, Note_on_c, 0, 72, 80
1, 159839, Note_on_c, 0, 72, 0
1, 159840, Note_on_c, 0, 74, 80
1, 159840, Note_on_c, 0, 69, 80
1, 160199, Note_on_c, 0, 74, 0
1, 160199, Note_on_c, 0, 69, 0
1, 160200, Note_on_c, 0, 77, 80
1, 160559, Note_on_c, 0, 77, 0
1, 160560, Note_on_c, 0, 76, 80
1, 160799, Note_on_c, 0, 76, 0
1, 160800, Note_on_c, 0, 74, 80
1, 160800, Note_on_c, 0, 67, 80
1, 161039, Note_on_c, 0, 74, 0
1, 161039, Note_on_c, 0, 67, 0
1, 161040, Note_on_c, 0, 72, 80
1, 161040, Note_on_c, 0, 67, 80
1, 161279, Note_on_c, 0, 72, 0
1, 161279, Note_on_c, 0, 67, 0
1, 161280, Note_on_c, 0, 74, 80
1, 161280, Note_on_c, 0, 67, 80
1, 161519, Note_on_c, 0, 74, 0
1, 161519, Note_on_c, 0, 67, 0
1, 161520, Note_on_c, 0, 72, 80
1, 161759, Note_on_c, 0, 72, 0
1, 161760, Note_on_c, 0, 74, 80
1, 161760, Note_on_c, 0, 67, 80
1, 162119, Note_on_c, 0, 74, 0
1, 162119, Note_on_c, 0, 67, 0
1, 162120, Note_on_c, 0, 81, 80
1, 162120, Note_on_c, 0, 72, 80
1, 162120, Note_on_c, 0, 69, 80
1, 162479, Note_on_c, 0, 81, 0
1, 162479, Note_on_c, 0, 72, 0
1, 162479, Note_on_c, 0, 69, 0
1, 162480, Note_on_c, 0, 79, 80
1, 162480, Note_on_c, 0, 72, 80
1, 162480, Note_on_c, 0, 69, 80
1, 162719, Note_on_c, 0, 79, 0
1, 162719, Note_on_c, 0, 72, 0
1, 162719, Note_on_c, 0, 69, 0
1, 162720, Note_on_c, 0, 77, 80
1, 162720, Note_on_c, 0, 73, 80
1, 162720, Note_on_c, 0, 67, 80
1, 163079, Note_on_c, 0, 77, 0
1, 163079, Note_on_c, 0, 73, 0
1, 163079, Note_on_c, 0, 67, 0
1, 163080, Note_on_c, 0, 76, 80
1, 163080, Note_on_c, 0, 73, 80
1, 163080, Note_on_c, 0, 67, 80
1, 163439, Note_on_c, 0, 76, 0
1, 163439, Note_on_c, 0, 73, 0
1, 163439, Note_on_c, 0, 67, 0
1, 163440, Note_on_c, 0, 74, 80
1, 163440, Note_on_c, 0, 67, 80
1, 163679, Note_on_c, 0, 74, 0
1, 163679, Note_on_c, 0, 67, 0
1, 163680, Note_on_c, 0, 73, 80
1, 163680, Note_on_c, 0, 67, 80
1, 163680, Note_on_c, 0, 64, 80
1, 164039, Note_on_c, 0, 73, 0
1, 164039, Note_on_c, 0, 67, 0
1, 164039, Note_on_c, 0, 64, 0
1, 164040, Note_on_c, 0, 69, 80
1, 164040, Note_on_c, 0, 64, 80
1, 164399, Note_on_c, 0, 69, 0
1, 164399, Note_on_c, 0, 64, 0
1, 164400, Note_on_c, 0, 67, 80
1, 164639, Note_on_c, 0, 67, 0
1, 164640, Note_on_c, 0, 69, 80
1, 164880, Note_on_c, 0, 74, 80
1, 164999, Note_on_c, 0, 74, 0
1, 165000, Note_on_c, 0, 72, 80
1, 165119, Note_on_c, 0, 72, 0
1, 165120, Note_on_c, 0, 74, 80
1, 165239, Note_on_c, 0, 74, 0
1, 165240, Note_on_c, 0, 77, 80
1, 165359, Note_on_c, 0, 77, 0
1, 165360, Note_on_c, 0, 81, 80
1, 165479, Note_on_c, 0, 81, 0
1, 165480, Note_on_c, 0, 84, 80
1, 165599, Note_on_c, 0, 84, 0
1, 165600, Note_on_c, 0, 81, 80
1, 165719, Note_on_c, 0, 81, 0
1, 165720, Note_on_c, 0, 77, 80
1, 165839, Note_on_c, 0, 77, 0
1, 165840, Note_on_c, 0, 74, 80
1, 165959, Note_on_c, 0, 74, 0
1, 165960, Note_on_c, 0, 72, 80
1, 166079, Note_on_c, 0, 69, 0
1, 166079, Note_on_c, 0, 72, 0
1, 166080, Note_on_c, 0, 69, 80
1, 166319, Note_on_c, 0, 69, 0
1, 166320, Note_on_c, 0, 72, 80
1, 166559, Note_on_c, 0, 72, 0
1, 166560, Note_on_c, 0, 74, 80
1, 166560, Note_on_c, 0, 69, 80
1, 166799, Note_on_c, 0, 74, 0
1, 166799, Note_on_c, 0, 69, 0
1, 166800, Note_on_c, 0, 72, 80
1, 166800, Note_on_c, 0, 69, 80
1, 167039, Note_on_c, 0, 72, 0
1, 167039, Note_on_c, 0, 69, 0
1, 167040, Note_on_c, 0, 74, 80
1, 167040, Note_on_c, 0, 69, 80
1, 167159, Note_on_c, 0, 74, 0
1, 167159, Note_on_c, 0, 69, 0
1, 167280, Note_on_c, 0, 72, 80
1, 167280, Note_on_c, 0, 69, 80
1, 167399, Note_on_c, 0, 72, 0
1, 167399, Note_on_c, 0, 69, 0
1, 167520, Note_on_c, 0, 74, 80
1, 167520, Note_on_c, 0, 69, 80
1, 167879, Note_on_c, 0, 74, 0
1, 167879, Note_on_c, 0, 69, 0
1, 167880, Note_on_c, 0, 77, 80
1, 167880, Note_on_c, 0, 72, 80
1, 167880, Note_on_c, 0, 69, 80
1, 168239, Note_on_c, 0, 77, 0
1, 168239, Note_on_c, 0, 72, 0
1, 168239, Note_on_c, 0, 69, 0
1, 168240, Note_on_c, 0, 76, 80
1, 168240, Note_on_c, 0, 72, 80
1, 168240, Note_on_c, 0, 69, 80
1, 168479, Note_on_c, 0, 76, 0
1, 168479, Note_on_c, 0, 72, 0
1, 168479, Note_on_c, 0, 69, 0
1, 168480, Note_on_c, 0, 74, 80
1, 168480, Note_on_c, 0, 67, 80
1, 168480, Note_on_c, 0, 64, 80
1, 168719, Note_on_c, 0, 74, 0
1, 168719, Note_on_c, 0, 67, 0
1, 168719, Note_on_c, 0, 64, 0
1, 168720, Note_on_c, 0, 72, 80
1, 168720, Note_on_c, 0, 67, 80
1, 168720, Note_on_c, 0, 64, 80
1, 168959, Note_on_c, 0, 72, 0
1, 168959, Note_on_c, 0, 67, 0
1, 168959, Note_on_c, 0, 64, 0
1, 168960, Note_on_c, 0, 74, 80
1, 168960, Note_on_c, 0, 67, 80
1, 168960, Note_on_c, 0, 64, 80
1, 169079, Note_on_c, 0, 74, 0
1, 169079, Note_on_c, 0, 67, 0
1, 169079, Note_on_c, 0, 64, 0
1, 169200, Note_on_c, 0, 72, 80
1, 169200, Note_on_c, 0, 67, 80
1, 169200, Note_on_c, 0, 64, 80
1, 169319, Note_on_c, 0, 72, 0
1, 169319, Note_on_c, 0, 67, 0
1, 169319, Note_on_c, 0, 64, 0
1, 169440, Note_on_c, 0, 74, 80
1, 169440, Note_on_c, 0, 67, 80
1, 169440, Note_on_c, 0, 64, 80
1, 169799, Note_on_c, 0, 74, 0
1, 169799, Note_on_c, 0, 67, 0
1, 169799, Note_on_c, 0, 64, 0
1, 169800, Note_on_c, 0, 81, 80
1, 169800, Note_on_c, 0, 72, 80
1, 169800, Note_on_c, 0, 69, 80
1, 170159, Note_on_c, 0, 81, 0
1, 170159, Note_on_c, 0, 72, 0
1, 170159, Note_on_c, 0, 69, 0
1, 170160, Note_on_c, 0, 79, 80
1, 170160, Note_on_c, 0, 72, 80
1, 170160, Note_on_c, 0, 69, 80
1, 170399, Note_on_c, 0, 79, 0
1, 170399, Note_on_c, 0, 72, 0
1, 170399, Note_on_c, 0, 69, 0
1, 170400, Note_on_c, 0, 77, 80
1, 170400, Note_on_c, 0, 73, 80
1, 170400, Note_on_c, 0, 67, 80
1, 170759, Note_on_c, 0, 77, 0
1, 170759, Note_on_c, 0, 73, 0
1, 170759, Note_on_c, 0, 67, 0
1, 170760, Note_on_c, 0, 76, 80
1, 170760, Note_on_c, 0, 73, 80
1, 170760, Note_on_c, 0, 67, 80
1, 171119, Note_on_c, 0, 76, 0
1, 171119, Note_on_c, 0, 73, 0
1, 171119, Note_on_c, 0, 67, 0
1, 171120, Note_on_c, 0, 74, 80
1, 171120, Note_on_c, 0, 67, 80
1, 171359, Note_on_c, 0, 74, 0
1, 171359, Note_on_c, 0, 67, 0
1, 171360, Key_signature, -6, "major"
1, 171360, Note_on_c, 0, 76, 80
1, 171360, Note_on_c, 0, 73, 80
1, 171360, Note_on_c, 0, 67, 80
1, 171719, Note_on_c, 0, 76, 0
1, 171719, Note_on_c, 0, 73, 0
1, 171719, Note_on_c, 0, 67, 0
1, 171720, Note_on_c, 0, 77, 80
1, 171720, Note_on_c, 0, 73, 80
1, 171720, Note_on_c, 0, 67, 80
1, 172079, Note_on_c, 0, 77, 0
1, 172079, Note_on_c, 0, 73, 0
1, 172079, Note_on_c, 0, 67, 0
1, 172080, Note_on_c, 0, 79, 80
1, 172080, Note_on_c, 0, 73, 80
1, 172080, Note_on_c, 0, 67, 80
1, 172319, Note_on_c, 0, 79, 0
1, 172319, Note_on_c, 0, 73, 0
1, 172319, Note_on_c, 0, 67, 0
1, 172320, Note_on_c, 0, 81, 80
1, 172320, Note_on_c, 0, 73, 80
1, 172320, Note_on_c, 0, 69, 80
1, 172560, Note_on_c, 0, 69, 80
1, 172619, Note_on_c, 0, 69, 0
1, 172620, Note_on_c, 0, 73, 80
1, 172679, Note_on_c, 0, 73, 0
1, 172680, Note_on_c, 0, 76, 80
1, 172739, Note_on_c, 0, 76, 0
1, 172740, Note_on_c, 0, 81, 80
1, 172799, Note_on_c, 0, 81, 0
1, 172800, Note_on_c, 0, 81, 80
1, 172859, Note_on_c, 0, 81, 0
1, 172860, Note_on_c, 0, 85, 80
1, 172919, Note_on_c, 0, 85, 0
1, 172920, Note_on_c, 0, 88, 80
1, 172979, Note_on_c, 0, 88, 0
1, 172980, Note_on_c, 0, 93, 80
1, 173039, Note_on_c, 0, 93, 0
1, 173040, Note_on_c, 0, 93, 80
1, 173099, Note_on_c, 0, 93, 0
1, 173100, Note_on_c, 0, 97, 80
1, 173159, Note_on_c, 0, 97, 0
1, 173160, Note_on_c, 0, 100, 80
1, 173219, Note_on_c, 0, 100, 0
1, 173220, Note_on_c, 0, 105, 80
1, 173279, Note_on_c, 0, 81, 0
1, 173279, Note_on_c, 0, 73, 0
1, 173279, Note_on_c, 0, 69, 0
1, 173279, Note_on_c, 0, 105, 0
1, 173760, Note_on_c, 0, 75, 80
1, 173760, Note_on_c, 0, 63, 80
1, 173999, Note_on_c, 0, 75, 0
1, 173999, Note_on_c, 0, 63, 0
1, 174000, Note_on_c, 0, 82, 80
1, 174000, Note_on_c, 0, 70, 80
1, 174239, Note_on_c, 0, 82, 0
1, 174239, Note_on_c, 0, 70, 0
1, 174240, Note_on_c, 0, 80, 80
1, 174240, Note_on_c, 0, 68, 80
1, 174959, Note_on_c, 0, 80, 0
1, 174959, Note_on_c, 0, 68, 0
1, 174960, Note_on_c, 0, 78, 80
1, 174960, Note_on_c, 0, 66, 80
1, 175199, Note_on_c, 0, 78, 0
1, 175199, Note_on_c, 0, 66, 0
1, 175200, Note_on_c, 0, 77, 80
1, 175200, Note_on_c, 0, 65, 80
1, 175559, Note_on_c, 0, 77, 0
1, 175559, Note_on_c, 0, 65, 0
1, 175560, Note_on_c, 0, 73, 80
1, 175560, Note_on_c, 0, 61, 80
1, 175919, Note_on_c, 0, 73, 0
1, 175919, Note_on_c, 0, 61, 0
1, 175920, Note_on_c, 0, 75, 80
1, 175920, Note_on_c, 0, 63, 80
1, 176160, Note_on_c, 0, 87, 80
1, 176160, Note_on_c, 0, 82, 80
1, 176279, Note_on_c, 0, 87, 0
1, 176279, Note_on_c, 0, 82, 0
1, 176280, Note_on_c, 0, 85, 80
1, 176399, Note_on_c, 0, 85, 0
1, 176400, Note_on_c, 0, 87, 80
1, 176519, Note_on_c, 0, 87, 0
1, 176520, Note_on_c, 0, 89, 80
1, 176639, Note_on_c, 0, 89, 0
1, 176640, Note_on_c, 0, 90, 80
1, 176759, Note_on_c, 0, 90, 0
1, 176760, Note_on_c, 0, 89, 80
1, 176879, Note_on_c, 0, 89, 0
1, 176880, Note_on_c, 0, 87, 80
1, 176999, Note_on_c, 0, 87, 0
1, 177000, Note_on_c, 0, 85, 80
1, 177119, Note_on_c, 0, 85, 0
1, 177120, Note_on_c, 0, 82, 80
1, 177239, Note_on_c, 0, 82, 0
1, 177240, Note_on_c, 0, 80, 80
1, 177359, Note_on_c, 0, 80, 0
1, 177360, Note_on_c, 0, 78, 80
1, 177599, Note_on_c, 0, 78, 0
1, 177599, Note_on_c, 0, 75, 0
1, 177599, Note_on_c, 0, 63, 0
1, 177600, Note_on_c, 0, 75, 80
1, 177600, Note_on_c, 0, 63, 80
1, 177839, Note_on_c, 0, 75, 0
1, 177839, Note_on_c, 0, 63, 0
1, 177840, Note_on_c, 0, 82, 80
1, 177840, Note_on_c, 0, 70, 80
1, 178079, Note_on_c, 0, 82, 0
1, 178079, Note_on_c, 0, 70, 0
1, 178080, Note_on_c, 0, 80, 80
1, 178080, Note_on_c, 0, 68, 80
1, 178799, Note_on_c, 0, 80, 0
1, 178799, Note_on_c, 0, 68, 0
1, 178800, Note_on_c, 0, 78, 80
1, 178800, Note_on_c, 0, 66, 80
1, 179039, Note_on_c, 0, 78, 0
1, 179039, Note_on_c, 0, 66, 0
1, 179040, Note_on_c, 0, 77, 80
1, 179040, Note_on_c, 0, 65, 80
1, 179399, Note_on_c, 0, 77, 0
1, 179399, Note_on_c, 0, 65, 0
1, 179400, Note_on_c, 0, 85, 80
1, 179400, Note_on_c, 0, 73, 80
1, 179759, Note_on_c, 0, 85, 0
1, 179759, Note_on_c, 0, 73, 0
1, 179760, Note_on_c, 0, 82, 80
1, 179760, Note_on_c, 0, 70, 80
1, 180000, Note_on_c, 0, 90, 80
1, 180119, Note_on_c, 0, 90, 0
1, 180120, Note_on_c, 0, 82, 80
1, 180239, Note_on_c, 0, 82, 0
1, 180240, Note_on_c, 0, 78, 80
1, 180359, Note_on_c, 0, 78, 0
1, 180360, Note_on_c, 0, 89, 80
1, 180479, Note_on_c, 0, 89, 0
1, 180480, Note_on_c, 0, 82, 80
1, 180599, Note_on_c, 0, 82, 0
1, 180600, Note_on_c, 0, 78, 80
1, 180719, Note_on_c, 0, 78, 0
1, 180720, Note_on_c, 0, 87, 80
1, 180839, Note_on_c, 0, 87, 0
1, 180840, Note_on_c, 0, 82, 80
1, 180959, Note_on_c, 0, 82, 0
1, 180960, Note_on_c, 0, 78, 80
1, 181079, Note_on_c, 0, 78, 0
1, 181080, Note_on_c, 0, 85, 80
1, 181199, Note_on_c, 0, 85, 0
1, 181200, Note_on_c, 0, 82, 80
1, 181439, Note_on_c, 0, 82, 0
1, 181439, Note_on_c, 0, 82, 0
1, 181439, Note_on_c, 0, 70, 0
1, 181440, Note_on_c, 0, 75, 80
1, 181440, Note_on_c, 0, 63, 80
1, 181679, Note_on_c, 0, 75, 0
1, 181679, Note_on_c, 0, 63, 0
1, 181680, Note_on_c, 0, 82, 80
1, 181680, Note_on_c, 0, 70, 80
1, 181919, Note_on_c, 0, 82, 0
1, 181919, Note_on_c, 0, 70, 0
1, 181920, Note_on_c, 0, 80, 80
1, 181920, Note_on_c, 0, 68, 80
1, 182639, Note_on_c, 0, 80, 0
1, 182639, Note_on_c, 0, 68, 0
1, 182640, Note_on_c, 0, 78, 80
1, 182640, Note_on_c, 0, 66, 80
1, 182879, Note_on_c, 0, 78, 0
1, 182879, Note_on_c, 0, 66, 0
1, 182880, Note_on_c, 0, 77, 80
1, 182880, Note_on_c, 0, 65, 80
1, 183239, Note_on_c, 0, 77, 0
1, 183239, Note_on_c, 0, 65, 0
1, 183240, Note_on_c, 0, 73, 80
1, 183240, Note_on_c, 0, 61, 80
1, 183599, Note_on_c, 0, 73, 0
1, 183599, Note_on_c, 0, 61, 0
1, 183600, Note_on_c, 0, 75, 80
1, 183600, Note_on_c, 0, 72, 80
1, 183600, Note_on_c, 0, 63, 80
1, 184080, Note_on_c, 0, 63, 80
1, 184080, Note_on_c, 0, 60, 80
1, 184319, Note_on_c, 0, 63, 0
1, 184319, Note_on_c, 0, 60, 0
1, 184320, Note_on_c, 0, 63, 80
1, 184320, Note_on_c, 0, 60, 80
1, 184559, Note_on_c, 0, 63, 0
1, 184559, Note_on_c, 0, 60, 0
1, 184560, Note_on_c, 0, 61, 80
1, 184679, Note_on_c, 0, 61, 0
1, 184680, Note_on_c, 0, 63, 80
1, 184799, Note_on_c, 0, 72, 0
1, 184799, Note_on_c, 0, 63, 0
1, 185039, Note_on_c, 0, 63, 0
1, 185039, Note_on_c, 0, 75, 0
1, 185040, Note_on_c, 0, 75, 80
1, 185040, Note_on_c, 0, 63, 80
1, 185279, Note_on_c, 0, 75, 0
1, 185279, Note_on_c, 0, 63, 0
1, 185280, Note_on_c, 0, 75, 80
1, 185280, Note_on_c, 0, 63, 80
1, 185519, Note_on_c, 0, 75, 0
1, 185519, Note_on_c, 0, 63, 0
1, 185520, Note_on_c, 0, 77, 80
1, 185520, Note_on_c, 0, 65, 80
1, 185759, Note_on_c, 0, 77, 0
1, 185759, Note_on_c, 0, 65, 0
1, 185760, Note_on_c, 0, 78, 80
1, 185760, Note_on_c, 0, 66, 80
1, 185999, Note_on_c, 0, 78, 0
1, 185999, Note_on_c, 0, 66, 0
1, 186000, Note_on_c, 0, 77, 80
1, 186000, Note_on_c, 0, 65, 80
1, 186239, Note_on_c, 0, 77, 0
1, 186239, Note_on_c, 0, 65, 0
1, 186240, Note_on_c, 0, 73, 80
1, 186240, Note_on_c, 0, 61, 80
1, 186479, Note_on_c, 0, 73, 0
1, 186479, Note_on_c, 0, 61, 0
1, 186480, Note_on_c, 0, 75, 80
1, 186480, Note_on_c, 0, 70, 80
1, 186480, Note_on_c, 0, 63, 80
1, 186959, Note_on_c, 0, 75, 0
1, 186959, Note_on_c, 0, 70, 0
1, 186959, Note_on_c, 0, 63, 0
1, 186960, Note_on_c, 0, 73, 80
1, 186960, Note_on_c, 0, 68, 80
1, 186960, Note_on_c, 0, 61, 80
1, 187199, Note_on_c, 0, 73, 0
1, 187199, Note_on_c, 0, 68, 0
1, 187199, Note_on_c, 0, 61, 0
1, 187440, Note_on_c, 0, 73, 80
1, 187440, Note_on_c, 0, 68, 80
1, 187440, Note_on_c, 0, 61, 80
1, 187919, Note_on_c, 0, 73, 0
1, 187919, Note_on_c, 0, 68, 0
1, 187919, Note_on_c, 0, 61, 0
1, 187920, Note_on_c, 0, 75, 80
1, 187920, Note_on_c, 0, 70, 80
1, 187920, Note_on_c, 0, 63, 80
1, 188159, Note_on_c, 0, 75, 0
1, 188159, Note_on_c, 0, 70, 0
1, 188159, Note_on_c, 0, 63, 0
1, 188160, Note_on_c, 0, 75, 80
1, 188160, Note_on_c, 0, 70, 80
1, 188160, Note_on_c, 0, 63, 80
1, 188399, Note_on_c, 0, 75, 0
1, 188399, Note_on_c, 0, 70, 0
1, 188399, Note_on_c, 0, 63, 0
1, 188400, Note_on_c, 0, 73, 80
1, 188400, Note_on_c, 0, 61, 80
1, 188639, Note_on_c, 0, 73, 0
1, 188639, Note_on_c, 0, 61, 0
1, 188640, Note_on_c, 0, 75, 80
1, 188640, Note_on_c, 0, 63, 80
1, 188879, Note_on_c, 0, 75, 0
1, 188879, Note_on_c, 0, 63, 0
1, 188880, Note_on_c, 0, 73, 80
1, 188880, Note_on_c, 0, 61, 80
1, 189119, Note_on_c, 0, 73, 0
1, 189119, Note_on_c, 0, 61, 0
1, 189120, Note_on_c, 0, 75, 80
1, 189120, Note_on_c, 0, 63, 80
1, 189359, Note_on_c, 0, 75, 0
1, 189359, Note_on_c, 0, 63, 0
1, 189360, Note_on_c, 0, 82, 80
1, 189360, Note_on_c, 0, 70, 80
1, 189599, Note_on_c, 0, 82, 0
1, 189599, Note_on_c, 0, 70, 0
1, 189600, Note_on_c, 0, 80, 80
1, 189600, Note_on_c, 0, 68, 80
1, 190319, Note_on_c, 0, 80, 0
1, 190319, Note_on_c, 0, 68, 0
1, 190320, Note_on_c, 0, 78, 80
1, 190320, Note_on_c, 0, 66, 80
1, 190559, Note_on_c, 0, 78, 0
1, 190559, Note_on_c, 0, 66, 0
1, 190560, Note_on_c, 0, 77, 80
1, 190560, Note_on_c, 0, 65, 80
1, 190919, Note_on_c, 0, 77, 0
1, 190919, Note_on_c, 0, 65, 0
1, 190920, Note_on_c, 0, 73, 80
1, 190920, Note_on_c, 0, 61, 80
1, 191279, Note_on_c, 0, 73, 0
1, 191279, Note_on_c, 0, 61, 0
1, 191280, Note_on_c, 0, 75, 80
1, 191280, Note_on_c, 0, 63, 80
1, 191520, Note_on_c, 0, 87, 80
1, 191520, Note_on_c, 0, 82, 80
1, 191639, Note_on_c, 0, 87, 0
1, 191639, Note_on_c, 0, 82, 0
1, 191640, Note_on_c, 0, 85, 80
1, 191759, Note_on_c, 0, 85, 0
1, 191760, Note_on_c, 0, 87, 80
1, 191879, Note_on_c, 0, 87, 0
1, 191880, Note_on_c, 0, 89, 80
1, 191999, Note_on_c, 0, 89, 0
1, 192000, Note_on_c, 0, 90, 80
1, 192119, Note_on_c, 0, 90, 0
1, 192120, Note_on_c, 0, 89, 80
1, 192239, Note_on_c, 0, 89, 0
1, 192240, Note_on_c, 0, 87, 80
1, 192359, Note_on_c, 0, 87, 0
1, 192360, Note_on_c, 0, 85, 80
1, 192479, Note_on_c, 0, 85, 0
1, 192480, Note_on_c, 0, 82, 80
1, 192599, Note_on_c, 0, 82, 0
1, 192600, Note_on_c, 0, 80, 80
1, 192719, Note_on_c, 0, 80, 0
1, 192720, Note_on_c, 0, 78, 80
1, 192959, Note_on_c, 0, 78, 0
1, 192959, Note_on_c, 0, 75, 0
1, 192959, Note_on_c, 0, 63, 0
1, 192960, Note_on_c, 0, 75, 80
1, 192960, Note_on_c, 0, 63, 80
1, 193199, Note_on_c, 0, 75, 0
1, 193199, Note_on_c, 0, 63, 0
1, 193200, Note_on_c, 0, 82, 80
1, 193200, Note_on_c, 0, 70, 80
1, 193439, Note_on_c, 0, 82, 0
1, 193439, Note_on_c, 0, 70, 0
1, 193440, Note_on_c, 0, 80, 80
1, 193440, Note_on_c, 0, 68, 80
1, 194159, Note_on_c, 0, 80, 0
1, 194159, Note_on_c, 0, 68, 0
1, 194160, Note_on_c, 0, 78, 80
1, 194160, Note_on_c, 0, 66, 80
1, 194399, Note_on_c, 0, 78, 0
1, 194399, Note_on_c, 0, 66, 0
1, 194400, Note_on_c, 0, 77, 80
1, 194400, Note_on_c, 0, 65, 80
1, 194759, Note_on_c, 0, 77, 0
1, 194759, Note_on_c, 0, 65, 0
1, 194760, Note_on_c, 0, 85, 80
1, 194760, Note_on_c, 0, 73, 80
1, 195119, Note_on_c, 0, 85, 0
1, 195119, Note_on_c, 0, 73, 0
1, 195120, Note_on_c, 0, 82, 80
1, 195120, Note_on_c, 0, 70, 80
1, 195360, Note_on_c, 0, 90, 80
1, 195479, Note_on_c, 0, 90, 0
1, 195480, Note_on_c, 0, 82, 80
1, 195599, Note_on_c, 0, 82, 0
1, 195600, Note_on_c, 0, 78, 80
1, 195719, Note_on_c, 0, 78, 0
1, 195720, Note_on_c, 0, 89, 80
1, 195839, Note_on_c, 0, 89, 0
1, 195840, Note_on_c, 0, 82, 80
1, 195959, Note_on_c, 0, 82, 0
1, 195960, Note_on_c, 0, 78, 80
1, 196079, Note_on_c, 0, 78, 0
1, 196080, Note_on_c, 0, 87, 80
1, 196199, Note_on_c, 0, 87, 0
1, 196200, Note_on_c, 0, 82, 80
1, 196319, Note_on_c, 0, 82, 0
1, 196320, Note_on_c, 0, 78, 80
1, 196439, Note_on_c, 0, 78, 0
1, 196440, Note_on_c, 0, 85, 80
1, 196559, Note_on_c, 0, 85, 0
1, 196560, Note_on_c, 0, 82, 80
1, 196799, Note_on_c, 0, 82, 0
1, 196799, Note_on_c, 0, 82, 0
1, 196799, Note_on_c, 0, 70, 0
1, 196800, Note_on_c, 0, 75, 80
1, 196800, Note_on_c, 0, 63, 80
1, 197039, Note_on_c, 0, 75, 0
1, 197039, Note_on_c, 0, 63, 0
1, 197040, Note_on_c, 0, 82, 80
1, 197040, Note_on_c, 0, 70, 80
1, 197279, Note_on_c, 0, 82, 0
1, 197279, Note_on_c, 0, 70, 0
1, 197280, Note_on_c, 0, 80, 80
1, 197280, Note_on_c, 0, 68, 80
1, 197999, Note_on_c, 0, 80, 0
1, 197999, Note_on_c, 0, 68, 0
1, 198000, Note_on_c, 0, 78, 80
1, 198000, Note_on_c, 0, 66, 80
1, 198239, Note_on_c, 0, 78, 0
1, 198239, Note_on_c, 0, 66, 0
1, 198240, Note_on_c, 0, 77, 80
1, 198240, Note_on_c, 0, 65, 80
1, 198599, Note_on_c, 0, 77, 0
1, 198599, Note_on_c, 0, 65, 0
1, 198600, Note_on_c, 0, 73, 80
1, 198600, Note_on_c, 0, 61, 80
1, 198959, Note_on_c, 0, 73, 0
1, 198959, Note_on_c, 0, 61, 0
1, 198960, Note_on_c, 0, 75, 80
1, 198960, Note_on_c, 0, 72, 80
1, 198960, Note_on_c, 0, 63, 80
1, 200399, Note_on_c, 0, 75, 0
1, 200399, Note_on_c, 0, 72, 0
1, 200399, Note_on_c, 0, 63, 0
1, 200400, Note_on_c, 0, 75, 80
1, 200400, Note_on_c, 0, 63, 80
1, 200639, Note_on_c, 0, 75, 0
1, 200639, Note_on_c, 0, 63, 0
1, 200640, Note_on_c, 0, 75, 80
1, 200640, Note_on_c, 0, 63, 80
1, 200879, Note_on_c, 0, 75, 0
1, 200879, Note_on_c, 0, 63, 0
1, 200880, Note_on_c, 0, 77, 80
1, 200880, Note_on_c, 0, 65, 80
1, 201119, Note_on_c, 0, 77, 0
1, 201119, Note_on_c, 0, 65, 0
1, 201120, Note_on_c, 0, 78, 80
1, 201120, Note_on_c, 0, 66, 80
1, 201359, Note_on_c, 0, 78, 0
1, 201359, Note_on_c, 0, 66, 0
1, 201360, Note_on_c, 0, 80, 80
1, 201360, Note_on_c, 0, 68, 80
1, 201599, Note_on_c, 0, 80, 0
1, 201599, Note_on_c, 0, 68, 0
1, 201600, Note_on_c, 0, 82, 80
1, 201600, Note_on_c, 0, 70, 80
1, 201839, Note_on_c, 0, 82, 0
1, 201839, Note_on_c, 0, 70, 0
1, 201840, Note_on_c, 0, 85, 80
1, 201840, Note_on_c, 0, 80, 80
1, 201840, Note_on_c, 0, 77, 80
1, 201840, Note_on_c, 0, 73, 80
1, 202559, Note_on_c, 0, 85, 0
1, 202559, Note_on_c, 0, 80, 0
1, 202559, Note_on_c, 0, 77, 0
1, 202559, Note_on_c, 0, 73, 0
1, 202560, Note_on_c, 0, 85, 80
1, 202560, Note_on_c, 0, 80, 80
1, 202560, Note_on_c, 0, 77, 80
1, 202560, Note_on_c, 0, 73, 80
1, 202799, Note_on_c, 0, 85, 0
1, 202799, Note_on_c, 0, 80, 0
1, 202799, Note_on_c, 0, 77, 0
1, 202799, Note_on_c, 0, 73, 0
1, 202800, Note_on_c, 0, 87, 80
1, 202800, Note_on_c, 0, 82, 80
1, 202800, Note_on_c, 0, 78, 80
1, 202800, Note_on_c, 0, 75, 80
1, 203279, Note_on_c, 0, 87, 0
1, 203279, Note_on_c, 0, 82, 0
1, 203279, Note_on_c, 0, 78, 0
1, 203279, Note_on_c, 0, 75, 0
1, 203280, Note_on_c, 0, 86, 80
1, 203312, Note_on_c, 0, 86, 0
1, 203313, Note_on_c, 0, 84, 80
1, 203345, Note_on_c, 0, 84, 0
1, 203346, Note_on_c, 0, 83, 80
1, 203378, Note_on_c, 0, 83, 0
1, 203379, Note_on_c, 0, 81, 80
1, 203411, Note_on_c, 0, 81, 0
1, 203412, Note_on_c, 0, 79, 80
1, 203444, Note_on_c, 0, 79, 0
1, 203445, Note_on_c, 0, 77, 80
1, 203477, Note_on_c, 0, 77, 0
1, 203478, Note_on_c, 0, 76, 80
1, 203510, Note_on_c, 0, 76, 0
1, 203511, Note_on_c, 0, 74, 80
1, 203543, Note_on_c, 0, 74, 0
1, 203544, Note_on_c, 0, 72, 80
1, 203576, Note_on_c, 0, 72, 0
1, 203577, Note_on_c, 0, 71, 80
1, 203609, Note_on_c, 0, 71, 0
1, 203610, Note_on_c, 0, 69, 80
1, 203642, Note_on_c, 0, 69, 0
1, 203643, Note_on_c, 0, 67, 80
1, 203675, Note_on_c, 0, 67, 0
1, 203676, Note_on_c, 0, 65, 80
1, 203708, Note_on_c, 0, 65, 0
1, 203709, Note_on_c, 0, 64, 80
1, 203741, Note_on_c, 0, 64, 0
1, 203742, Note_on_c, 0, 62, 80
1, 203774, Note_on_c, 0, 62, 0
1, 203775, Note_on_c, 0, 60, 80
1, 203807, Note_on_c, 0, 60, 0
1, 203808, Note_on_c, 0, 59, 80
1, 203840, Note_on_c, 0, 59, 0
1, 203841, Note_on_c, 0, 57, 80
1, 203873, Note_on_c, 0, 57, 0
1, 203874, Note_on_c, 0, 55, 80
1, 203906, Note_on_c, 0, 55, 0
1, 203907, Note_on_c, 0, 53, 80
1, 203939, Note_on_c, 0, 53, 0
1, 203940, Note_on_c, 0, 52, 80
1, 203972, Note_on_c, 0, 52, 0
1, 203973, Note_on_c, 0, 50, 80
1, 204005, Note_on_c, 0, 50, 0
1, 204006, Note_on_c, 0, 48, 80
1, 204038, Note_on_c, 0, 48, 0
1, 204039, Note_on_c, 0, 47, 80
1, 204071, Note_on_c, 0, 47, 0
1, 204072, Note_on_c, 0, 45, 80
1, 204104, Note_on_c, 0, 45, 0
1, 204105, Note_on_c, 0, 43, 80
1, 204137, Note_on_c, 0, 43, 0
1, 204138, Note_on_c, 0, 41, 80
1, 204170, Note_on_c, 0, 41, 0
1, 204171, Note_on_c, 0, 40, 80
1, 204203, Note_on_c, 0, 40, 0
1, 204204, Note_on_c, 0, 38, 80
1, 204236, Note_on_c, 0, 38, 0
1, 205440, Note_on_c, 0, 58, 80
1, 205440, Note_on_c, 0, 53, 80
1, 205919, Note_on_c, 0, 58, 0
1, 205919, Note_on_c, 0, 53, 0
1, 205920, Note_on_c, 0, 61, 80
1, 205920, Note_on_c, 0, 56, 80
1, 206639, Note_on_c, 0, 61, 0
1, 206639, Note_on_c, 0, 56, 0
1, 206640, Note_on_c, 0, 63, 80
1, 206640, Note_on_c, 0, 58, 80
1, 207119, Note_on_c, 0, 63, 0
1, 207119, Note_on_c, 0, 58, 0
1, 207120, Note_on_c, 0, 63, 80
1, 207239, Note_on_c, 0, 63, 0
1, 207240, Note_on_c, 0, 64, 80
1, 207359, Note_on_c, 0, 64, 0
1, 207360, Note_on_c, 0, 63, 80
1, 207599, Note_on_c, 0, 63, 0
1, 207600, Note_on_c, 0, 61, 80
1, 207839, Note_on_c, 0, 61, 0
1, 207840, Note_on_c, 0, 69, 80
1, 207840, Note_on_c, 0, 63, 80
1, 207840, Note_on_c, 0, 58, 80
1, 208079, Note_on_c, 0, 69, 0
1, 208079, Note_on_c, 0, 63, 0
1, 208079, Note_on_c, 0, 58, 0
1, 208080, Note_on_c, 0, 69, 80
1, 208080, Note_on_c, 0, 64, 80
1, 208080, Note_on_c, 0, 58, 80
1, 208319, Note_on_c, 0, 69, 0
1, 208319, Note_on_c, 0, 64, 0
1, 208319, Note_on_c, 0, 58, 0
1, 208320, Note_on_c, 0, 69, 80
1, 208320, Note_on_c, 0, 63, 80
1, 208320, Note_on_c, 0, 58, 80
1, 208559, Note_on_c, 0, 69, 0
1, 208559, Note_on_c, 0, 63, 0
1, 208559, Note_on_c, 0, 58, 0
1, 208560, Note_on_c, 0, 69, 80
1, 208560, Note_on_c, 0, 61, 80
1, 208560, Note_on_c, 0, 58, 80
1, 208799, Note_on_c, 0, 69, 0
1, 208799, Note_on_c, 0, 61, 0
1, 208799, Note_on_c, 0, 58, 0
1, 209280, Note_on_c, 0, 58, 80
1, 209280, Note_on_c, 0, 53, 80
1, 209759, Note_on_c, 0, 58, 0
1, 209759, Note_on_c, 0, 53, 0
1, 209760, Note_on_c, 0, 61, 80
1, 209760, Note_on_c, 0, 56, 80
1, 210479, Note_on_c, 0, 61, 0
1, 210479, Note_on_c, 0, 56, 0
1, 210480, Note_on_c, 0, 63, 80
1, 210480, Note_on_c, 0, 58, 80
1, 210959, Note_on_c, 0, 63, 0
1, 210959, Note_on_c, 0, 58, 0
1, 210960, Note_on_c, 0, 63, 80
1, 211079, Note_on_c, 0, 63, 0
1, 211080, Note_on_c, 0, 64, 80
1, 211199, Note_on_c, 0, 64, 0
1, 211200, Note_on_c, 0, 63, 80
1, 211439, Note_on_c, 0, 63, 0
1, 211440, Note_on_c, 0, 61, 80
1, 211679, Note_on_c, 0, 61, 0
1, 211680, Note_on_c, 0, 69, 80
1, 211680, Note_on_c, 0, 56, 80
1, 212399, Note_on_c, 0, 69, 0
1, 212399, Note_on_c, 0, 56, 0
1, 212400, Note_on_c, 0, 57, 80
1, 212639, Note_on_c, 0, 57, 0
1, 213120, Note_on_c, 0, 58, 80
1, 213120, Note_on_c, 0, 53, 80
1, 213599, Note_on_c, 0, 58, 0
1, 213599, Note_on_c, 0, 53, 0
1, 213600, Note_on_c, 0, 61, 80
1, 213600, Note_on_c, 0, 56, 80
1, 214319, Note_on_c, 0, 61, 0
1, 214319, Note_on_c, 0, 56, 0
1, 214320, Note_on_c, 0, 63, 80
1, 214320, Note_on_c, 0, 58, 80
1, 214799, Note_on_c, 0, 63, 0
1, 214799, Note_on_c, 0, 58, 0
1, 214800, Note_on_c, 0, 63, 80
1, 214919, Note_on_c, 0, 63, 0
1, 214920, Note_on_c, 0, 64, 80
1, 215039, Note_on_c, 0, 64, 0
1, 215040, Note_on_c, 0, 63, 80
1, 215279, Note_on_c, 0, 63, 0
1, 215280, Note_on_c, 0, 61, 80
1, 215519, Note_on_c, 0, 61, 0
1, 215520, Note_on_c, 0, 69, 80
1, 215520, Note_on_c, 0, 58, 80
1, 215759, Note_on_c, 0, 69, 0
1, 215759, Note_on_c, 0, 58, 0
1, 215760, Note_on_c, 0, 64, 80
1, 215760, Note_on_c, 0, 58, 80
1, 216239, Note_on_c, 0, 64, 0
1, 216239, Note_on_c, 0, 58, 0
1, 216240, Note_on_c, 0, 58, 80
1, 216479, Note_on_c, 0, 58, 0
1, 216480, Note_on_c, 0, 65, 80
1, 216480, Note_on_c, 0, 63, 80
1, 216480, Note_on_c, 0, 57, 80
1, 216959, Note_on_c, 0, 65, 0
1, 216959, Note_on_c, 0, 63, 0
1, 216959, Note_on_c, 0, 57, 0
1, 216960, Note_on_c, 0, 69, 80
1, 217199, Note_on_c, 0, 69, 0
1, 217200, Note_on_c, 0, 65, 80
1, 217200, Note_on_c, 0, 63, 80
1, 217200, Note_on_c, 0, 57, 80
1, 217679, Note_on_c, 0, 65, 0
1, 217679, Note_on_c, 0, 63, 0
1, 217679, Note_on_c, 0, 57, 0
1, 217680, Note_on_c, 0, 69, 80
1, 218159, Note_on_c, 0, 69, 0
1, 218160, Note_on_c, 0, 89, 80
1, 218160, Note_on_c, 0, 77, 80
1, 218639, Note_on_c, 0, 89, 0
1, 218639, Note_on_c, 0, 77, 0
1, 218640, Note_on_c, 0, 87, 80
1, 218640, Note_on_c, 0, 75, 80
1, 218879, Note_on_c, 0, 87, 0
1, 218879, Note_on_c, 0, 75, 0
1, 218880, Note_on_c, 0, 85, 80
1, 218880, Note_on_c, 0, 73, 80
1, 219119, Note_on_c, 0, 85, 0
1, 219119, Note_on_c, 0, 73, 0
1, 219120, Note_on_c, 0, 87, 80
1, 219120, Note_on_c, 0, 75, 80
1, 219359, Note_on_c, 0, 87, 0
1, 219359, Note_on_c, 0, 75, 0
1, 219360, Note_on_c, 0, 85, 80
1, 219360, Note_on_c, 0, 73, 80
1, 219599, Note_on_c, 0, 85, 0
1, 219599, Note_on_c, 0, 73, 0
1, 219600, Note_on_c, 0, 82, 80
1, 219600, Note_on_c, 0, 70, 80
1, 219839, Note_on_c, 0, 82, 0
1, 219839, Note_on_c, 0, 70, 0
1, 219840, Note_on_c, 0, 94, 80
1, 219840, Note_on_c, 0, 82, 80
1, 221279, Note_on_c, 0, 94, 0
1, 221279, Note_on_c, 0, 82, 0
1, 221280, Note_on_c, 0, 82, 80
1, 221399, Note_on_c, 0, 82, 0
1, 221400, Note_on_c, 0, 94, 80
1, 221519, Note_on_c, 0, 94, 0
1, 221520, Note_on_c, 0, 82, 80
1, 221639, Note_on_c, 0, 82, 0
1, 221640, Note_on_c, 0, 94, 80
1, 221759, Note_on_c, 0, 94, 0
1, 221760, Note_on_c, 0, 82, 80
1, 221879, Note_on_c, 0, 82, 0
1, 221880, Note_on_c, 0, 94, 80
1, 221999, Note_on_c, 0, 94, 0
1, 222000, Note_on_c, 0, 82, 80
1, 222119, Note_on_c, 0, 82, 0
1, 222120, Note_on_c, 0, 94, 80
1, 222239, Note_on_c, 0, 94, 0
1, 222240, Note_on_c, 0, 82, 80
1, 222359, Note_on_c, 0, 82, 0
1, 222360, Note_on_c, 0, 94, 80
1, 222479, Note_on_c, 0, 94, 0
1, 222480, Note_on_c, 0, 82, 80
1, 222599, Note_on_c, 0, 82, 0
1, 222600, Note_on_c, 0, 94, 80
1, 222719, Note_on_c, 0, 94, 0
1, 222720, Note_on_c, 0, 82, 80
1, 222839, Note_on_c, 0, 82, 0
1, 222840, Note_on_c, 0, 94, 80
1, 222959, Note_on_c, 0, 94, 0
1, 222960, Note_on_c, 0, 82, 80
1, 223079, Note_on_c, 0, 82, 0
1, 223080, Note_on_c, 0, 94, 80
1, 223199, Note_on_c, 0, 94, 0
1, 223200, Note_on_c, 0, 82, 80
1, 223319, Note_on_c, 0, 82, 0
1, 223320, Note_on_c, 0, 94, 80
1, 223439, Note_on_c, 0, 94, 0
1, 223440, Note_on_c, 0, 82, 80
1, 223559, Note_on_c, 0, 82, 0
1, 223560, Note_on_c, 0, 94, 80
1, 223679, Note_on_c, 0, 94, 0
1, 223920, Note_on_c, 0, 94, 80
1, 223920, Note_on_c, 0, 82, 80
1, 224159, Note_on_c, 0, 94, 0
1, 224159, Note_on_c, 0, 82, 0
1, 224160, Note_on_c, 0, 97, 80
1, 224160, Note_on_c, 0, 85, 80
1, 224399, Note_on_c, 0, 97, 0
1, 224399, Note_on_c, 0, 85, 0
1, 224400, Note_on_c, 0, 94, 80
1, 224400, Note_on_c, 0, 82, 80
1, 224639, Note_on_c, 0, 94, 0
1, 224639, Note_on_c, 0, 82, 0
1, 224640, Note_on_c, 0, 97, 80
1, 224640, Note_on_c, 0, 85, 80
1, 225119, Note_on_c, 0, 97, 0
1, 225119, Note_on_c, 0, 85, 0
1, 225120, Note_on_c, 0, 94, 80
1, 225120, Note_on_c, 0, 82, 80
1, 225359, Note_on_c, 0, 94, 0
1, 225359, Note_on_c, 0, 82, 0
1, 225360, Note_on_c, 0, 97, 80
1, 225360, Note_on_c, 0, 85, 80
1, 225599, Note_on_c, 0, 97, 0
1, 225599, Note_on_c, 0, 85, 0
1, 225600, Note_on_c, 0, 99, 80
1, 225600, Note_on_c, 0, 87, 80
1, 225839, Note_on_c, 0, 99, 0
1, 225839, Note_on_c, 0, 87, 0
1, 225840, Note_on_c, 0, 99, 80
1, 225840, Note_on_c, 0, 87, 80
1, 225919, Note_on_c, 0, 99, 0
1, 225919, Note_on_c, 0, 87, 0
1, 225920, Note_on_c, 0, 100, 80
1, 225920, Note_on_c, 0, 88, 80
1, 226319, Note_on_c, 0, 100, 0
1, 226319, Note_on_c, 0, 88, 0
1, 226320, Note_on_c, 0, 99, 80
1, 226320, Note_on_c, 0, 87, 80
1, 226559, Note_on_c, 0, 99, 0
1, 226559, Note_on_c, 0, 87, 0
1, 226560, Note_on_c, 0, 97, 80
1, 226560, Note_on_c, 0, 85, 80
1, 226799, Note_on_c, 0, 97, 0
1, 226799, Note_on_c, 0, 85, 0
1, 226800, Note_on_c, 0, 94, 80
1, 226800, Note_on_c, 0, 82, 80
1, 227039, Note_on_c, 0, 94, 0
1, 227039, Note_on_c, 0, 82, 0
1, 227040, Note_on_c, 0, 97, 80
1, 227040, Note_on_c, 0, 85, 80
1, 227279, Note_on_c, 0, 97, 0
1, 227279, Note_on_c, 0, 85, 0
1, 227280, Note_on_c, 0, 94, 80
1, 227280, Note_on_c, 0, 82, 80
1, 227519, Note_on_c, 0, 94, 0
1, 227519, Note_on_c, 0, 82, 0
1, 227520, Note_on_c, 0, 92, 80
1, 227520, Note_on_c, 0, 80, 80
1, 227759, Note_on_c, 0, 92, 0
1, 227759, Note_on_c, 0, 80, 0
1, 227760, Note_on_c, 0, 93, 80
1, 227760, Note_on_c, 0, 81, 80
1, 227999, Note_on_c, 0, 93, 0
1, 227999, Note_on_c, 0, 81, 0
1, 228000, Note_on_c, 0, 94, 80
1, 228000, Note_on_c, 0, 89, 80
1, 228000, Note_on_c, 0, 82, 80
1, 228479, Note_on_c, 0, 94, 0
1, 228479, Note_on_c, 0, 89, 0
1, 228479, Note_on_c, 0, 82, 0
1, 228480, Note_on_c, 0, 93, 80
1, 228599, Note_on_c, 0, 93, 0
1, 228600, Note_on_c, 0, 94, 80
1, 228719, Note_on_c, 0, 94, 0
1, 228720, Note_on_c, 0, 93, 80
1, 228839, Note_on_c, 0, 93, 0
1, 228840, Note_on_c, 0, 92, 80
1, 228959, Note_on_c, 0, 92, 0
1, 228960, Note_on_c, 0, 93, 80
1, 229055, Note_on_c, 0, 93, 0
1, 229056, Note_on_c, 0, 92, 80
1, 229151, Note_on_c, 0, 92, 0
1, 229152, Note_on_c, 0, 91, 80
1, 229247, Note_on_c, 0, 91, 0
1, 229248, Note_on_c, 0, 90, 80
1, 229343, Note_on_c, 0, 90, 0
1, 229344, Note_on_c, 0, 89, 80
1, 229439, Note_on_c, 0, 89, 0
1, 229440, Note_on_c, 0, 88, 80
1, 229535, Note_on_c, 0, 88, 0
1, 229536, Note_on_c, 0, 87, 80
1, 229631, Note_on_c, 0, 87, 0
1, 229632, Note_on_c, 0, 86, 80
1, 229727, Note_on_c, 0, 86, 0
1, 229728, Note_on_c, 0, 85, 80
1, 229823, Note_on_c, 0, 85, 0
1, 229824, Note_on_c, 0, 84, 80
1, 229919, Note_on_c, 0, 84, 0
1, 229920, Note_on_c, 0, 83, 80
1, 230015, Note_on_c, 0, 83, 0
1, 230016, Note_on_c, 0, 82, 80
1, 230111, Note_on_c, 0, 82, 0
1, 230112, Note_on_c, 0, 81, 80
1, 230207, Note_on_c, 0, 81, 0
1, 230208, Note_on_c, 0, 80, 80
1, 230303, Note_on_c, 0, 80, 0
1, 230304, Note_on_c, 0, 79, 80
1, 230399, Note_on_c, 0, 79, 0
1, 230400, Note_on_c, 0, 78, 80
1, 230495, Note_on_c, 0, 78, 0
1, 230496, Note_on_c, 0, 77, 80
1, 230591, Note_on_c, 0, 77, 0
1, 230592, Note_on_c, 0, 76, 80
1, 230687, Note_on_c, 0, 76, 0
1, 230688, Note_on_c, 0, 75, 80
1, 230783, Note_on_c, 0, 75, 0
1, 230784, Note_on_c, 0, 74, 80
1, 230879, Note_on_c, 0, 74, 0
1, 230880, Note_on_c, 0, 73, 80
1, 230975, Note_on_c, 0, 73, 0
1, 230976, Note_on_c, 0, 72, 80
1, 231071, Note_on_c, 0, 72, 0
1, 231072, Note_on_c, 0, 71, 80
1, 231167, Note_on_c, 0, 71, 0
1, 231168, Note_on_c, 0, 70, 80
1, 231263, Note_on_c, 0, 70, 0
1, 231264, Note_on_c, 0, 69, 80
1, 231359, Note_on_c, 0, 69, 0
1, 231360, Note_on_c, 0, 70, 80
1, 231599, Note_on_c, 0, 70, 0
1, 231600, Note_on_c, 0, 70, 80
1, 231600, Note_on_c, 0, 64, 80
1, 231839, Note_on_c, 0, 70, 0
1, 231839, Note_on_c, 0, 64, 0
1, 231840, Note_on_c, 0, 73, 80
1, 231840, Note_on_c, 0, 65, 80
1, 232079, Note_on_c, 0, 73, 0
1, 232079, Note_on_c, 0, 65, 0
1, 232080, Note_on_c, 0, 70, 80
1, 232080, Note_on_c, 0, 65, 80
1, 232319, Note_on_c, 0, 70, 0
1, 232319, Note_on_c, 0, 65, 0
1, 232320, Note_on_c, 0, 73, 80
1, 232320, Note_on_c, 0, 65, 80
1, 232799, Note_on_c, 0, 73, 0
1, 232799, Note_on_c, 0, 65, 0
1, 232800, Key_signature, -1, "major"
1, 232800, Note_on_c, 0, 70, 80
1, 232800, Note_on_c, 0, 66, 80
1, 233039, Note_on_c, 0, 70, 0
1, 233039, Note_on_c, 0, 66, 0
1, 233040, Note_on_c, 0, 73, 80
1, 233040, Note_on_c, 0, 66, 80
1, 233519, Note_on_c, 0, 73, 0
1, 233519, Note_on_c, 0, 66, 0
1, 233520, Note_on_c, 0, 75, 80
1, 233520, Note_on_c, 0, 70, 80
1, 233520, Note_on_c, 0, 66, 80
1, 233999, Note_on_c, 0, 75, 0
1, 233999, Note_on_c, 0, 70, 0
1, 233999, Note_on_c, 0, 66, 0
1, 234000, Note_on_c, 0, 66, 80
1, 234079, Note_on_c, 0, 66, 0
1, 234080, Note_on_c, 0, 70, 80
1, 234159, Note_on_c, 0, 70, 0
1, 234160, Note_on_c, 0, 75, 80
1, 234239, Note_on_c, 0, 75, 0
1, 234240, Note_on_c, 0, 78, 80
1, 234319, Note_on_c, 0, 78, 0
1, 234320, Note_on_c, 0, 82, 80
1, 234399, Note_on_c, 0, 82, 0
1, 234400, Note_on_c, 0, 87, 80
1, 234479, Note_on_c, 0, 87, 0
1, 234480, Note_on_c, 0, 77, 80
1, 234559, Note_on_c, 0, 77, 0
1, 234560, Note_on_c, 0, 81, 80
1, 234639, Note_on_c, 0, 81, 0
1, 234640, Note_on_c, 0, 84, 80
1, 234719, Note_on_c, 0, 84, 0
1, 234720, Note_on_c, 0, 89, 80
1, 235199, Note_on_c, 0, 89, 0
1, 235200, Note_on_c, 0, 69, 80
1, 235439, Note_on_c, 0, 69, 0
1, 235440, Note_on_c, 0, 72, 80
1, 235679, Note_on_c, 0, 72, 0
1, 235680, Note_on_c, 0, 74, 80
1, 235919, Note_on_c, 0, 74, 0
1, 235920, Note_on_c, 0, 72, 80
1, 236159, Note_on_c, 0, 72, 0
1, 236160, Note_on_c, 0, 74, 80
1, 236399, Note_on_c, 0, 74, 0
1, 236400, Note_on_c, 0, 72, 80
1, 236639, Note_on_c, 0, 72, 0
1, 236640, Note_on_c, 0, 74, 80
1, 236999, Note_on_c, 0, 74, 0
1, 237000, Note_on_c, 0, 77, 80
1, 237359, Note_on_c, 0, 77, 0
1, 237360, Note_on_c, 0, 76, 80
1, 237599, Note_on_c, 0, 76, 0
1, 237600, Note_on_c, 0, 74, 80
1, 237839, Note_on_c, 0, 74, 0
1, 237840, Note_on_c, 0, 72, 80
1, 238079, Note_on_c, 0, 72, 0
1, 238080, Note_on_c, 0, 74, 80
1, 238319, Note_on_c, 0, 74, 0
1, 238320, Note_on_c, 0, 72, 80
1, 238559, Note_on_c, 0, 72, 0
1, 238560, Note_on_c, 0, 74, 80
1, 238919, Note_on_c, 0, 74, 0
1, 238920, Note_on_c, 0, 81, 80
1, 239279, Note_on_c, 0, 81, 0
1, 239280, Note_on_c, 0, 79, 80
1, 239519, Note_on_c, 0, 79, 0
1, 239520, Note_on_c, 0, 77, 80
1, 239879, Note_on_c, 0, 77, 0
1, 239880, Note_on_c, 0, 76, 80
1, 240239, Note_on_c, 0, 76, 0
1, 240240, Note_on_c, 0, 74, 80
1, 240479, Note_on_c, 0, 74, 0
1, 240480, Note_on_c, 0, 73, 80
1, 240839, Note_on_c, 0, 73, 0
1, 240840, Note_on_c, 0, 69, 80
1, 241199, Note_on_c, 0, 69, 0
1, 241200, Note_on_c, 0, 67, 80
1, 241439, Note_on_c, 0, 67, 0
1, 241440, Note_on_c, 0, 69, 80
1, 241680, Note_on_c, 0, 74, 80
1, 241799, Note_on_c, 0, 74, 0
1, 241800, Note_on_c, 0, 72, 80
1, 241919, Note_on_c, 0, 72, 0
1, 241920, Note_on_c, 0, 74, 80
1, 242039, Note_on_c, 0, 74, 0
1, 242040, Note_on_c, 0, 77, 80
1, 242159, Note_on_c, 0, 77, 0
1, 242160, Note_on_c, 0, 81, 80
1, 242279, Note_on_c, 0, 81, 0
1, 242280, Note_on_c, 0, 84, 80
1, 242399, Note_on_c, 0, 84, 0
1, 242400, Note_on_c, 0, 81, 80
1, 242519, Note_on_c, 0, 81, 0
1, 242520, Note_on_c, 0, 77, 80
1, 242639, Note_on_c, 0, 77, 0
1, 242640, Note_on_c, 0, 74, 80
1, 242759, Note_on_c, 0, 74, 0
1, 242760, Note_on_c, 0, 72, 80
1, 242879, Note_on_c, 0, 69, 0
1, 242879, Note_on_c, 0, 72, 0
1, 242880, Note_on_c, 0, 69, 80
1, 243119, Note_on_c, 0, 69, 0
1, 243120, Note_on_c, 0, 72, 80
1, 243359, Note_on_c, 0, 72, 0
1, 243360, Note_on_c, 0, 74, 80
1, 243360, Note_on_c, 0, 69, 80
1, 243599, Note_on_c, 0, 74, 0
1, 243599, Note_on_c, 0, 69, 0
1, 243600, Note_on_c, 0, 72, 80
1, 243839, Note_on_c, 0, 72, 0
1, 243840, Note_on_c, 0, 74, 80
1, 243840, Note_on_c, 0, 69, 80
1, 244079, Note_on_c, 0, 74, 0
1, 244079, Note_on_c, 0, 69, 0
1, 244080, Note_on_c, 0, 72, 80
1, 244080, Note_on_c, 0, 69, 80
1, 244319, Note_on_c, 0, 72, 0
1, 244319, Note_on_c, 0, 69, 0
1, 244320, Note_on_c, 0, 74, 80
1, 244320, Note_on_c, 0, 69, 80
1, 244679, Note_on_c, 0, 74, 0
1, 244679, Note_on_c, 0, 69, 0
1, 244680, Note_on_c, 0, 77, 80
1, 244680, Note_on_c, 0, 72, 80
1, 244680, Note_on_c, 0, 69, 80
1, 245039, Note_on_c, 0, 77, 0
1, 245039, Note_on_c, 0, 72, 0
1, 245039, Note_on_c, 0, 69, 0
1, 245040, Note_on_c, 0, 76, 80
1, 245040, Note_on_c, 0, 72, 80
1, 245040, Note_on_c, 0, 69, 80
1, 245279, Note_on_c, 0, 76, 0
1, 245279, Note_on_c, 0, 72, 0
1, 245279, Note_on_c, 0, 69, 0
1, 245280, Note_on_c, 0, 74, 80
1, 245280, Note_on_c, 0, 67, 80
1, 245519, Note_on_c, 0, 74, 0
1, 245519, Note_on_c, 0, 67, 0
1, 245520, Note_on_c, 0, 72, 80
1, 245520, Note_on_c, 0, 67, 80
1, 245759, Note_on_c, 0, 72, 0
1, 245759, Note_on_c, 0, 67, 0
1, 245760, Note_on_c, 0, 74, 80
1, 245760, Note_on_c, 0, 67, 80
1, 245999, Note_on_c, 0, 74, 0
1, 245999, Note_on_c, 0, 67, 0
1, 246000, Note_on_c, 0, 72, 80
1, 246000, Note_on_c, 0, 67, 80
1, 246239, Note_on_c, 0, 72, 0
1, 246239, Note_on_c, 0, 67, 0
1, 246240, Note_on_c, 0, 74, 80
1, 246240, Note_on_c, 0, 67, 80
1, 246599, Note_on_c, 0, 74, 0
1, 246599, Note_on_c, 0, 67, 0
1, 246600, Note_on_c, 0, 81, 80
1, 246600, Note_on_c, 0, 72, 80
1, 246600, Note_on_c, 0, 69, 80
1, 246959, Note_on_c, 0, 81, 0
1, 246959, Note_on_c, 0, 72, 0
1, 246959, Note_on_c, 0, 69, 0
1, 246960, Note_on_c, 0, 79, 80
1, 246960, Note_on_c, 0, 72, 80
1, 246960, Note_on_c, 0, 69, 80
1, 247199, Note_on_c, 0, 79, 0
1, 247199, Note_on_c, 0, 72, 0
1, 247199, Note_on_c, 0, 69, 0
1, 247200, Note_on_c, 0, 77, 80
1, 247200, Note_on_c, 0, 73, 80
1, 247200, Note_on_c, 0, 67, 80
1, 247559, Note_on_c, 0, 77, 0
1, 247559, Note_on_c, 0, 73, 0
1, 247559, Note_on_c, 0, 67, 0
1, 247560, Note_on_c, 0, 76, 80
1, 247560, Note_on_c, 0, 73, 80
1, 247560, Note_on_c, 0, 67, 80
1, 247919, Note_on_c, 0, 76, 0
1, 247919, Note_on_c, 0, 73, 0
1, 247919, Note_on_c, 0, 67, 0
1, 247920, Note_on_c, 0, 74, 80
1, 247920, Note_on_c, 0, 67, 80
1, 248159, Note_on_c, 0, 74, 0
1, 248159, Note_on_c, 0, 67, 0
1, 248160, Note_on_c, 0, 76, 80
1, 248160, Note_on_c, 0, 73, 80
1, 248160, Note_on_c, 0, 67, 80
1, 248519, Note_on_c, 0, 76, 0
1, 248519, Note_on_c, 0, 73, 0
1, 248519, Note_on_c, 0, 67, 0
1, 248520, Note_on_c, 0, 77, 80
1, 248520, Note_on_c, 0, 73, 80
1, 248520, Note_on_c, 0, 67, 80
1, 248879, Note_on_c, 0, 77, 0
1, 248879, Note_on_c, 0, 73, 0
1, 248879, Note_on_c, 0, 67, 0
1, 248880, Note_on_c, 0, 79, 80
1, 248880, Note_on_c, 0, 73, 80
1, 248880, Note_on_c, 0, 67, 80
1, 249119, Note_on_c, 0, 79, 0
1, 249119, Note_on_c, 0, 73, 0
1, 249119, Note_on_c, 0, 67, 0
1, 249120, Note_on_c, 0, 81, 80
1, 249120, Note_on_c, 0, 73, 80
1, 249120, Note_on_c, 0, 69, 80
1, 251039, Note_on_c, 0, 81, 0
1, 251039, Note_on_c, 0, 73, 0
1, 251039, Note_on_c, 0, 69, 0
1, 251040, Note_on_c, 0, 93, 80
1, 251119, Note_on_c, 0, 93, 0
1, 251120, Note_on_c, 0, 97, 80
1, 251199, Note_on_c, 0, 97, 0
1, 251200, Note_on_c, 0, 100, 80
1, 251279, Note_on_c, 0, 100, 0
1, 251280, Note_on_c, 0, 105, 80
1, 253920, Key_signature, 1, "major"
1, 254399, Note_on_c, 0, 105, 0
1, 254880, Control_c, 0, 64, 127
1, 254880, Note_on_c, 0, 43, 80
1, 254880, Note_on_c, 0, 41, 80
1, 254880, Note_on_c, 0, 40, 80
1, 254880, Note_on_c, 0, 38, 80
1, 254880, Note_on_c, 0, 36, 80
1, 254913, Note_on_c, 0, 43, 0
1, 254913, Note_on_c, 0, 41, 0
1, 254913, Note_on_c, 0, 40, 0
1, 254913, Note_on_c, 0, 38, 0
1, 254913, Note_on_c, 0, 36, 0
1, 254914, Note_on_c, 0, 45, 80
1, 254947, Note_on_c, 0, 45, 0
1, 254948, Note_on_c, 0, 47, 80
1, 254981, Note_on_c, 0, 47, 0
1, 254982, Note_on_c, 0, 48, 80
1, 255015, Note_on_c, 0, 48, 0
1, 255017, Note_on_c, 0, 50, 80
1, 255050, Note_on_c, 0, 50, 0
1, 255051, Note_on_c, 0, 52, 80
1, 255084, Note_on_c, 0, 52, 0
1, 255085, Note_on_c, 0, 53, 80
1, 255118, Note_on_c, 0, 53, 0
1, 255119, Note_on_c, 0, 55, 80
1, 255152, Note_on_c, 0, 55, 0
1, 255154, Note_on_c, 0, 57, 80
1, 255187, Note_on_c, 0, 57, 0
1, 255188, Note_on_c, 0, 59, 80
1, 255221, Note_on_c, 0, 59, 0
1, 255222, Note_on_c, 0, 60, 80
1, 255255, Note_on_c, 0, 60, 0
1, 255256, Note_on_c, 0, 62, 80
1, 255289, Note_on_c, 0, 62, 0
1, 255291, Note_on_c, 0, 64, 80
1, 255324, Note_on_c, 0, 64, 0
1, 255325, Note_on_c, 0, 65, 80
1, 255358, Note_on_c, 0, 65, 0
1, 255359, Note_on_c, 0, 67, 80
1, 255392, Note_on_c, 0, 67, 0
1, 255393, Note_on_c, 0, 69, 80
1, 255426, Note_on_c, 0, 69, 0
1, 255428, Note_on_c, 0, 71, 80
1, 255461, Note_on_c, 0, 71, 0
1, 255462, Note_on_c, 0, 72, 80
1, 255495, Note_on_c, 0, 72, 0
1, 255496, Note_on_c, 0, 74, 80
1, 255529, Note_on_c, 0, 74, 0
1, 255530, Note_on_c, 0, 76, 80
1, 255563, Note_on_c, 0, 76, 0
1, 255565, Note_on_c, 0, 77, 80
1, 255598, Note_on_c, 0, 77, 0
1, 255599, Note_on_c, 0, 79, 80
1, 255632, Note_on_c, 0, 79, 0
1, 255633, Note_on_c, 0, 81, 80
1, 255666, Note_on_c, 0, 81, 0
1, 255667, Note_on_c, 0, 83, 80
1, 255700, Note_on_c, 0, 83, 0
1, 255702, Note_on_c, 0, 84, 80
1, 255735, Note_on_c, 0, 84, 0
1, 255736, Note_on_c, 0, 86, 80
1, 255769, Note_on_c, 0, 86, 0
1, 255770, Note_on_c, 0, 88, 80
1, 255803, Note_on_c, 0, 88, 0
1, 255804, Note_on_c, 0, 89, 80
1, 255837, Note_on_c, 0, 89, 0
1, 255840, Note_on_c, 0, 91, 80
1, 255899, Note_on_c, 0, 91, 0
1, 255900, Note_on_c, 0, 93, 80
1, 256319, Note_on_c, 0, 93, 0
1, 256320, Control_c, 0, 64, 0
1, 256320, Note_on_c, 0, 76, 80
1, 256320, Note_on_c, 0, 64, 80
1, 256559, Note_on_c, 0, 76, 0
1, 256559, Note_on_c, 0, 64, 0
1, 256560, Note_on_c, 0, 83, 80
1, 256560, Note_on_c, 0, 71, 80
1, 256799, Note_on_c, 0, 83, 0
1, 256799, Note_on_c, 0, 71, 0
1, 256800, Note_on_c, 0, 81, 80
1, 256800, Note_on_c, 0, 69, 80
1, 257519, Note_on_c, 0, 81, 0
1, 257519, Note_on_c, 0, 69, 0
1, 257520, Note_on_c, 0, 79, 80
1, 257520, Note_on_c, 0, 67, 80
1, 257759, Note_on_c, 0, 79, 0
1, 257759, Note_on_c, 0, 67, 0
1, 257760, Note_on_c, 0, 78, 80
1, 257760, Note_on_c, 0, 66, 80
1, 258119, Note_on_c, 0, 78, 0
1, 258119, Note_on_c, 0, 66, 0
1, 258120, Note_on_c, 0, 74, 80
1, 258120, Note_on_c, 0, 62, 80
1, 258479, Note_on_c, 0, 74, 0
1, 258479, Note_on_c, 0, 62, 0
1, 258480, Note_on_c, 0, 76, 80
1, 258480, Note_on_c, 0, 64, 80
1, 258720, Note_on_c, 0, 88, 80
1, 258720, Note_on_c, 0, 83, 80
1, 258839, Note_on_c, 0, 88, 0
1, 258839, Note_on_c, 0, 83, 0
1, 258840, Note_on_c, 0, 86, 80
1, 258959, Note_on_c, 0, 86, 0
1, 258960, Note_on_c, 0, 88, 80
1, 259079, Note_on_c, 0, 88, 0
1, 259080, Note_on_c, 0, 90, 80
1, 259199, Note_on_c, 0, 90, 0
1, 259200, Note_on_c, 0, 91, 80
1, 259319, Note_on_c, 0, 91, 0
1, 259320, Note_on_c, 0, 90, 80
1, 259439, Note_on_c, 0, 90, 0
1, 259440, Note_on_c, 0, 88, 80
1, 259559, Note_on_c, 0, 88, 0
1, 259560, Note_on_c, 0, 86, 80
1, 259679, Note_on_c, 0, 86, 0
1, 259680, Note_on_c, 0, 83, 80
1, 259799, Note_on_c, 0, 83, 0
1, 259800, Note_on_c, 0, 79, 80
1, 259919, Note_on_c, 0, 79, 0
1, 259920, Note_on_c, 0, 78, 80
1, 260039, Note_on_c, 0, 78, 0
1, 260040, Note_on_c, 0, 76, 80
1, 260159, Note_on_c, 0, 76, 0
1, 260159, Note_on_c, 0, 76, 0
1, 260159, Note_on_c, 0, 64, 0
1, 260160, Note_on_c, 0, 76, 80
1, 260160, Note_on_c, 0, 64, 80
1, 260399, Note_on_c, 0, 76, 0
1, 260399, Note_on_c, 0, 64, 0
1, 260400, Note_on_c, 0, 83, 80
1, 260400, Note_on_c, 0, 71, 80
1, 260639, Note_on_c, 0, 83, 0
1, 260639, Note_on_c, 0, 71, 0
1, 260640, Note_on_c, 0, 81, 80
1, 260640, Note_on_c, 0, 69, 80
1, 261359, Note_on_c, 0, 81, 0
1, 261359, Note_on_c, 0, 69, 0
1, 261360, Note_on_c, 0, 79, 80
1, 261360, Note_on_c, 0, 67, 80
1, 261599, Note_on_c, 0, 79, 0
1, 261599, Note_on_c, 0, 67, 0
1, 261600, Note_on_c, 0, 78, 80
1, 261600, Note_on_c, 0, 66, 80
1, 261959, Note_on_c, 0, 78, 0
1, 261959, Note_on_c, 0, 66, 0
1, 261960, Note_on_c, 0, 86, 80
1, 261960, Note_on_c, 0, 74, 80
1, 262319, Note_on_c, 0, 86, 0
1, 262319, Note_on_c, 0, 74, 0
1, 262320, Note_on_c, 0, 83, 80
1, 262320, Note_on_c, 0, 71, 80
1, 262560, Note_on_c, 0, 91, 80
1, 262679, Note_on_c, 0, 91, 0
1, 262680, Note_on_c, 0, 83, 80
1, 262799, Note_on_c, 0, 83, 0
1, 262800, Note_on_c, 0, 79, 80
1, 262919, Note_on_c, 0, 79, 0
1, 262920, Note_on_c, 0, 90, 80
1, 263039, Note_on_c, 0, 90, 0
1, 263040, Note_on_c, 0, 83, 80
1, 263159, Note_on_c, 0, 83, 0
1, 263160, Note_on_c, 0, 79, 80
1, 263279, Note_on_c, 0, 79, 0
1, 263280, Note_on_c, 0, 88, 80
1, 263399, Note_on_c, 0, 88, 0
1, 263400, Note_on_c, 0, 83, 80
1, 263519, Note_on_c, 0, 83, 0
1, 263520, Note_on_c, 0, 79, 80
1, 263639, Note_on_c, 0, 79, 0
1, 263640, Note_on_c, 0, 86, 80
1, 263999, Note_on_c, 0, 86, 0
1, 263999, Note_on_c, 0, 83, 0
1, 263999, Note_on_c, 0, 71, 0
1, 264000, Note_on_c, 0, 76, 80
1, 264000, Note_on_c, 0, 64, 80
1, 264239, Note_on_c, 0, 76, 0
1, 264239, Note_on_c, 0, 64, 0
1, 264240, Note_on_c, 0, 83, 80
1, 264240, Note_on_c, 0, 71, 80
1, 264479, Note_on_c, 0, 83, 0
1, 264479, Note_on_c, 0, 71, 0
1, 264480, Note_on_c, 0, 81, 80
1, 264480, Note_on_c, 0, 73, 80
1, 264480, Note_on_c, 0, 69, 80
1, 265199, Note_on_c, 0, 81, 0
1, 265199, Note_on_c, 0, 73, 0
1, 265199, Note_on_c, 0, 69, 0
1, 265200, Note_on_c, 0, 79, 80
1, 265200, Note_on_c, 0, 67, 80
1, 265439, Note_on_c, 0, 79, 0
1, 265439, Note_on_c, 0, 67, 0
1, 265440, Note_on_c, 0, 78, 80
1, 265440, Note_on_c, 0, 66, 80
1, 265799, Note_on_c, 0, 78, 0
1, 265799, Note_on_c, 0, 66, 0
1, 265800, Note_on_c, 0, 74, 80
1, 265800, Note_on_c, 0, 62, 80
1, 266159, Note_on_c, 0, 74, 0
1, 266159, Note_on_c, 0, 62, 0
1, 266160, Note_on_c, 0, 76, 80
1, 266160, Note_on_c, 0, 73, 80
1, 266160, Note_on_c, 0, 64, 80
1, 266640, Note_on_c, 0, 64, 80
1, 266879, Note_on_c, 0, 64, 0
1, 266880, Note_on_c, 0, 64, 80
1, 267119, Note_on_c, 0, 64, 0
1, 267120, Note_on_c, 0, 62, 80
1, 267239, Note_on_c, 0, 62, 0
1, 267240, Note_on_c, 0, 64, 80
1, 267359, Note_on_c, 0, 73, 0
1, 267359, Note_on_c, 0, 64, 0
1, 267599, Note_on_c, 0, 64, 0
1, 267599, Note_on_c, 0, 76, 0
1, 267600, Note_on_c, 0, 76, 80
1, 267600, Note_on_c, 0, 64, 80
1, 267839, Note_on_c, 0, 76, 0
1, 267839, Note_on_c, 0, 64, 0
1, 267840, Note_on_c, 0, 76, 80
1, 267840, Note_on_c, 0, 64, 80
1, 268079, Note_on_c, 0, 76, 0
1, 268079, Note_on_c, 0, 64, 0
1, 268080, Note_on_c, 0, 78, 80
1, 268080, Note_on_c, 0, 66, 80
1, 268319, Note_on_c, 0, 78, 0
1, 268319, Note_on_c, 0, 66, 0
1, 268320, Note_on_c, 0, 79, 80
1, 268320, Note_on_c, 0, 67, 80
1, 268559, Note_on_c, 0, 79, 0
1, 268559, Note_on_c, 0, 67, 0
1, 268560, Note_on_c, 0, 78, 80
1, 268560, Note_on_c, 0, 66, 80
1, 268799, Note_on_c, 0, 78, 0
1, 268799, Note_on_c, 0, 66, 0
1, 268800, Note_on_c, 0, 74, 80
1, 268800, Note_on_c, 0, 62, 80
1, 269039, Note_on_c, 0, 74, 0
1, 269039, Note_on_c, 0, 62, 0
1, 269040, Note_on_c, 0, 76, 80
1, 269040, Note_on_c, 0, 71, 80
1, 269040, Note_on_c, 0, 64, 80
1, 269519, Note_on_c, 0, 76, 0
1, 269519, Note_on_c, 0, 71, 0
1, 269519, Note_on_c, 0, 64, 0
1, 269520, Note_on_c, 0, 74, 80
1, 269520, Note_on_c, 0, 69, 80
1, 269520, Note_on_c, 0, 62, 80
1, 269999, Note_on_c, 0, 74, 0
1, 269999, Note_on_c, 0, 69, 0
1, 269999, Note_on_c, 0, 62, 0
1, 270000, Note_on_c, 0, 76, 80
1, 270000, Note_on_c, 0, 71, 80
1, 270000, Note_on_c, 0, 64, 80
1, 270720, Note_on_c, 0, 79, 80
1, 270839, Note_on_c, 0, 79, 0
1, 270840, Note_on_c, 0, 78, 80
1, 270959, Note_on_c, 0, 78, 0
1, 270960, Note_on_c, 0, 76, 80
1, 271079, Note_on_c, 0, 76, 0
1, 271080, Note_on_c, 0, 71, 80
1, 271199, Note_on_c, 0, 71, 0
1, 271200, Note_on_c, 0, 67, 80
1, 271319, Note_on_c, 0, 67, 0
1, 271320, Note_on_c, 0, 66, 80
1, 271439, Note_on_c, 0, 66, 0
1, 271440, Note_on_c, 0, 64, 80
1, 271559, Note_on_c, 0, 64, 0
1, 271560, Note_on_c, 0, 62, 80
1, 271679, Note_on_c, 0, 62, 0
1, 271679, Note_on_c, 0, 76, 0
1, 271679, Note_on_c, 0, 71, 0
1, 271679, Note_on_c, 0, 64, 0
1, 271680, Note_on_c, 0, 76, 80
1, 271680, Note_on_c, 0, 64, 80
1, 271919, Note_on_c, 0, 76, 0
1, 271919, Note_on_c, 0, 64, 0
1, 271920, Note_on_c, 0, 83, 80
1, 271920, Note_on_c, 0, 71, 80
1, 272159, Note_on_c, 0, 83, 0
1, 272159, Note_on_c, 0, 71, 0
1, 272160, Note_on_c, 0, 81, 80
1, 272160, Note_on_c, 0, 69, 80
1, 272879, Note_on_c, 0, 81, 0
1, 272879, Note_on_c, 0, 69, 0
1, 272880, Note_on_c, 0, 79, 80
1, 272880, Note_on_c, 0, 67, 80
1, 273119, Note_on_c, 0, 79, 0
1, 273119, Note_on_c, 0, 67, 0
1, 273120, Note_on_c, 0, 78, 80
1, 273120, Note_on_c, 0, 66, 80
1, 273479, Note_on_c, 0, 78, 0
1, 273479, Note_on_c, 0, 66, 0
1, 273480, Note_on_c, 0, 74, 80
1, 273480, Note_on_c, 0, 62, 80
1, 273839, Note_on_c, 0, 74, 0
1, 273839, Note_on_c, 0, 62, 0
1, 273840, Note_on_c, 0, 76, 80
1, 273840, Note_on_c, 0, 64, 80
1, 274080, Note_on_c, 0, 88, 96
1, 274080, Note_on_c, 0, 83, 96
1, 274199, Note_on_c, 0, 88, 0
1, 274199, Note_on_c, 0, 83, 0
1, 274200, Note_on_c, 0, 86, 96
1, 274319, Note_on_c, 0, 86, 0
1, 274320, Note_on_c, 0, 88, 96
1, 274439, Note_on_c, 0, 88, 0
1, 274440, Note_on_c, 0, 90, 96
1, 274559, Note_on_c, 0, 90, 0
1, 274560, Note_on_c, 0, 91, 96
1, 274679, Note_on_c, 0, 91, 0
1, 274680, Note_on_c, 0, 90, 96
1, 274799, Note_on_c, 0, 90, 0
1, 274800, Note_on_c, 0, 88, 96
1, 274919, Note_on_c, 0, 88, 0
1, 274920, Note_on_c, 0, 86, 96
1, 275039, Note_on_c, 0, 86, 0
1, 275040, Note_on_c, 0, 83, 96
1, 275159, Note_on_c, 0, 83, 0
1, 275160, Note_on_c, 0, 79, 96
1, 275279, Note_on_c, 0, 79, 0
1, 275280, Note_on_c, 0, 78, 96
1, 275399, Note_on_c, 0, 78, 0
1, 275400, Note_on_c, 0, 76, 96
1, 275519, Note_on_c, 0, 76, 0
1, 275519, Note_on_c, 0, 76, 0
1, 275519, Note_on_c, 0, 64, 0
1, 275520, Note_on_c, 0, 76, 112
1, 275520, Note_on_c, 0, 64, 112
1, 275759, Note_on_c, 0, 76, 0
1, 275759, Note_on_c, 0, 64, 0
1, 275760, Note_on_c, 0, 83, 80
1, 275760, Note_on_c, 0, 71, 80
1, 275999, Note_on_c, 0, 83, 0
1, 275999, Note_on_c, 0, 71, 0
1, 276000, Note_on_c, 0, 81, 80
1, 276000, Note_on_c, 0, 69, 80
1, 276719, Note_on_c, 0, 81, 0
1, 276719, Note_on_c, 0, 69, 0
1, 276720, Note_on_c, 0, 79, 80
1, 276720, Note_on_c, 0, 67, 80
1, 276959, Note_on_c, 0, 79, 0
1, 276959, Note_on_c, 0, 67, 0
1, 276960, Note_on_c, 0, 78, 80
1, 276960, Note_on_c, 0, 66, 80
1, 277319, Note_on_c, 0, 78, 0
1, 277319, Note_on_c, 0, 66, 0
1, 277320, Note_on_c, 0, 86, 80
1, 277320, Note_on_c, 0, 74, 80
1, 277679, Note_on_c, 0, 86, 0
1, 277679, Note_on_c, 0, 74, 0
1, 277680, Note_on_c, 0, 83, 80
1, 277680, Note_on_c, 0, 71, 80
1, 277920, Note_on_c, 0, 91, 96
1, 277920, Note_on_c, 0, 79, 96
1, 278039, Note_on_c, 0, 91, 0
1, 278039, Note_on_c, 0, 79, 0
1, 278040, Note_on_c, 0, 91, 80
1, 278040, Note_on_c, 0, 79, 80
1, 278159, Note_on_c, 0, 91, 0
1, 278159, Note_on_c, 0, 79, 0
1, 278280, Note_on_c, 0, 90, 80
1, 278280, Note_on_c, 0, 78, 80
1, 278399, Note_on_c, 0, 90, 0
1, 278399, Note_on_c, 0, 78, 0
1, 278400, Note_on_c, 0, 90, 80
1, 278400, Note_on_c, 0, 78, 80
1, 278519, Note_on_c, 0, 90, 0
1, 278519, Note_on_c, 0, 78, 0
1, 278640, Note_on_c, 0, 88, 96
1, 278640, Note_on_c, 0, 76, 96
1, 278759, Note_on_c, 0, 88, 0
1, 278759, Note_on_c, 0, 76, 0
1, 278760, Note_on_c, 0, 88, 80
1, 278760, Note_on_c, 0, 76, 80
1, 278879, Note_on_c, 0, 88, 0
1, 278879, Note_on_c, 0, 76, 0
1, 279000, Note_on_c, 0, 86, 96
1, 279000, Note_on_c, 0, 74, 96
1, 279119, Note_on_c, 0, 86, 0
1, 279119, Note_on_c, 0, 74, 0
1, 279120, Note_on_c, 0, 86, 80
1, 279120, Note_on_c, 0, 74, 80
1, 279239, Note_on_c, 0, 86, 0
1, 279239, Note_on_c, 0, 74, 0
1, 279359, Note_on_c, 0, 83, 0
1, 279359, Note_on_c, 0, 71, 0
1, 279360, Note_on_c, 0, 76, 96
1, 279360, Note_on_c, 0, 64, 96
1, 279599, Note_on_c, 0, 76, 0
1, 279599, Note_on_c, 0, 64, 0
1, 279600, Note_on_c, 0, 83, 80
1, 279600, Note_on_c, 0, 71, 80
1, 279839, Note_on_c, 0, 83, 0
1, 279839, Note_on_c, 0, 71, 0
1, 279840, Note_on_c, 0, 81, 80
1, 279840, Note_on_c, 0, 73, 80
1, 279840, Note_on_c, 0, 69, 80
1, 280559, Note_on_c, 0, 81, 0
1, 280559, Note_on_c, 0, 73, 0
1, 280559, Note_on_c, 0, 69, 0
1, 280560, Note_on_c, 0, 79, 80
1, 280560, Note_on_c, 0, 67, 80
1, 280799, Note_on_c, 0, 79, 0
1, 280799, Note_on_c, 0, 67, 0
1, 280800, Note_on_c, 0, 78, 80
1, 280800, Note_on_c, 0, 66, 80
1, 281159, Note_on_c, 0, 78, 0
1, 281159, Note_on_c, 0, 66, 0
1, 281160, Note_on_c, 0, 74, 80
1, 281160, Note_on_c, 0, 62, 80
1, 281519, Note_on_c, 0, 74, 0
1, 281519, Note_on_c, 0, 62, 0
1, 281520, Note_on_c, 0, 76, 80
1, 281520, Note_on_c, 0, 73, 80
1, 281520, Note_on_c, 0, 64, 80
1, 282000, Note_on_c, 0, 57, 80
1, 282119, Note_on_c, 0, 57, 0
1, 282120, Note_on_c, 0, 61, 80
1, 282239, Note_on_c, 0, 61, 0
1, 282240, Note_on_c, 0, 64, 80
1, 282359, Note_on_c, 0, 64, 0
1, 282360, Note_on_c, 0, 69, 80
1, 282479, Note_on_c, 0, 69, 0
1, 282480, Note_on_c, 0, 69, 80
1, 282599, Note_on_c, 0, 69, 0
1, 282600, Note_on_c, 0, 73, 80
1, 282719, Note_on_c, 0, 73, 0
1, 282719, Note_on_c, 0, 76, 0
1, 282719, Note_on_c, 0, 73, 0
1, 282719, Note_on_c, 0, 64, 0
1, 282720, Note_on_c, 0, 76, 80
1, 282839, Note_on_c, 0, 76, 0
1, 282840, Note_on_c, 0, 81, 80
1, 282959, Note_on_c, 0, 81, 0
1, 282960, Note_on_c, 0, 76, 80
1, 282960, Note_on_c, 0, 64, 80
1, 283199, Note_on_c, 0, 76, 0
1, 283199, Note_on_c, 0, 64, 0
1, 283200, Note_on_c, 0, 76, 80
1, 283200, Note_on_c, 0, 64, 80
1, 283439, Note_on_c, 0, 76, 0
1, 283439, Note_on_c, 0, 64, 0
1, 283440, Note_on_c, 0, 78, 80
1, 283440, Note_on_c, 0, 66, 80
1, 283679, Note_on_c, 0, 78, 0
1, 283679, Note_on_c, 0, 66, 0
1, 283680, Note_on_c, 0, 79, 80
1, 283680, Note_on_c, 0, 67, 80
1, 283919, Note_on_c, 0, 79, 0
1, 283919, Note_on_c, 0, 67, 0
1, 283920, Note_on_c, 0, 81, 80
1, 283920, Note_on_c, 0, 69, 80
1, 284159, Note_on_c, 0, 81, 0
1, 284159, Note_on_c, 0, 69, 0
1, 284160, Note_on_c, 0, 83, 80
1, 284160, Note_on_c, 0, 71, 80
1, 284399, Note_on_c, 0, 83, 0
1, 284399, Note_on_c, 0, 71, 0
1, 284400, Note_on_c, 0, 86, 80
1, 284400, Note_on_c, 0, 78, 80
1, 284400, Note_on_c, 0, 74, 80
1, 284640, Key_signature, 6, "major"
1, 285119, Note_on_c, 0, 86, 0
1, 285119, Note_on_c, 0, 78, 0
1, 285119, Note_on_c, 0, 74, 0
1, 285120, Note_on_c, 0, 86, 80
1, 285120, Note_on_c, 0, 78, 80
1, 285120, Note_on_c, 0, 74, 80
1, 285359, Note_on_c, 0, 86, 0
1, 285359, Note_on_c, 0, 78, 0
1, 285359, Note_on_c, 0, 74, 0
1, 285360, Note_on_c, 0, 88, 80
1, 285360, Note_on_c, 0, 79, 80
1, 285360, Note_on_c, 0, 76, 80
1, 285839, Note_on_c, 0, 88, 0
1, 285839, Note_on_c, 0, 79, 0
1, 285839, Note_on_c, 0, 76, 0
1, 285840, Note_on_c, 0, 86, 80
1, 285873, Note_on_c, 0, 86, 0
1, 285874, Note_on_c, 0, 84, 80
1, 285907, Note_on_c, 0, 84, 0
1, 285908, Note_on_c, 0, 83, 80
1, 285941, Note_on_c, 0, 83, 0
1, 285942, Note_on_c, 0, 81, 80
1, 285975, Note_on_c, 0, 81, 0
1, 285977, Note_on_c, 0, 79, 80
1, 286010, Note_on_c, 0, 79, 0
1, 286011, Note_on_c, 0, 77, 80
1, 286044, Note_on_c, 0, 77, 0
1, 286045, Note_on_c, 0, 76, 80
1, 286078, Note_on_c, 0, 76, 0
1, 286079, Note_on_c, 0, 74, 80
1, 286112, Note_on_c, 0, 74, 0
1, 286114, Note_on_c, 0, 72, 80
1, 286147, Note_on_c, 0, 72, 0
1, 286148, Note_on_c, 0, 71, 80
1, 286181, Note_on_c, 0, 71, 0
1, 286182, Note_on_c, 0, 69, 80
1, 286215, Note_on_c, 0, 69, 0
1, 286216, Note_on_c, 0, 67, 80
1, 286249, Note_on_c, 0, 67, 0
1, 286251, Note_on_c, 0, 65, 80
1, 286284, Note_on_c, 0, 65, 0
1, 286285, Note_on_c, 0, 64, 80
1, 286318, Note_on_c, 0, 64, 0
1, 286319, Note_on_c, 0, 62, 80
1, 286352, Note_on_c, 0, 62, 0
1, 286353, Note_on_c, 0, 60, 80
1, 286386, Note_on_c, 0, 60, 0
1, 286388, Note_on_c, 0, 59, 80
1, 286421, Note_on_c, 0, 59, 0
1, 286422, Note_on_c, 0, 57, 80
1, 286455, Note_on_c, 0, 57, 0
1, 286456, Note_on_c, 0, 55, 80
1, 286489, Note_on_c, 0, 55, 0
1, 286490, Note_on_c, 0, 53, 80
1, 286523, Note_on_c, 0, 53, 0
1, 286525, Note_on_c, 0, 52, 80
1, 286558, Note_on_c, 0, 52, 0
1, 286559, Note_on_c, 0, 50, 80
1, 286592, Note_on_c, 0, 50, 0
1, 286593, Note_on_c, 0, 48, 80
1, 286626, Note_on_c, 0, 48, 0
1, 286627, Note_on_c, 0, 47, 80
1, 286660, Note_on_c, 0, 47, 0
1, 286662, Note_on_c, 0, 45, 80
1, 286695, Note_on_c, 0, 45, 0
1, 286696, Note_on_c, 0, 43, 80
1, 286729, Note_on_c, 0, 43, 0
1, 286730, Note_on_c, 0, 41, 80
1, 286763, Note_on_c, 0, 41, 0
1, 286764, Note_on_c, 0, 40, 80
1, 286797, Note_on_c, 0, 40, 0
1, 287040, Note_on_c, 0, 88, 80
1, 287040, Note_on_c, 0, 83, 80
1, 287040, Note_on_c, 0, 79, 80
1, 287519, Note_on_c, 0, 88, 0
1, 287519, Note_on_c, 0, 83, 0
1, 287519, Note_on_c, 0, 79, 0
1, 287520, Note_on_c, 0, 77, 80
1, 287639, Note_on_c, 0, 77, 0
1, 287640, Note_on_c, 0, 75, 80
1, 287759, Note_on_c, 0, 75, 0
1, 287760, Note_on_c, 0, 77, 80
1, 287879, Note_on_c, 0, 77, 0
1, 287880, Note_on_c, 0, 75, 80
1, 287999, Note_on_c, 0, 75, 0
1, 288000, Note_on_c, 0, 77, 80
1, 288119, Note_on_c, 0, 77, 0
1, 288120, Note_on_c, 0, 78, 80
1, 288239, Note_on_c, 0, 78, 0
1, 288240, Note_on_c, 0, 75, 80
1, 288359, Note_on_c, 0, 75, 0
1, 288360, Note_on_c, 0, 77, 80
1, 288599, Note_on_c, 0, 77, 0
1, 288600, Note_on_c, 0, 75, 80
1, 288719, Note_on_c, 0, 75, 0
1, 288720, Note_on_c, 0, 77, 80
1, 288839, Note_on_c, 0, 77, 0
1, 288840, Note_on_c, 0, 75, 80
1, 288959, Note_on_c, 0, 75, 0
1, 288960, Note_on_c, 0, 77, 80
1, 289079, Note_on_c, 0, 77, 0
1, 289080, Note_on_c, 0, 75, 80
1, 289199, Note_on_c, 0, 75, 0
1, 289200, Note_on_c, 0, 77, 80
1, 289319, Note_on_c, 0, 77, 0
1, 289320, Note_on_c, 0, 78, 80
1, 289439, Note_on_c, 0, 78, 0
1, 289440, Note_on_c, 0, 77, 80
1, 289559, Note_on_c, 0, 77, 0
1, 289560, Note_on_c, 0, 75, 80
1, 289679, Note_on_c, 0, 75, 0
1, 289680, Note_on_c, 0, 77, 80
1, 289799, Note_on_c, 0, 77, 0
1, 289800, Note_on_c, 0, 75, 80
1, 289919, Note_on_c, 0, 75, 0
1, 289920, Note_on_c, 0, 77, 80
1, 290039, Note_on_c, 0, 77, 0
1, 290040, Note_on_c, 0, 78, 80
1, 290159, Note_on_c, 0, 78, 0
1, 290280, Note_on_c, 0, 80, 80
1, 290519, Note_on_c, 0, 80, 0
1, 290520, Note_on_c, 0, 82, 80
1, 290639, Note_on_c, 0, 82, 0
1, 290640, Note_on_c, 0, 80, 80
1, 290759, Note_on_c, 0, 80, 0
1, 290760, Note_on_c, 0, 78, 80
1, 290879, Note_on_c, 0, 78, 0
1, 290880, Note_on_c, 0, 80, 80
1, 290999, Note_on_c, 0, 80, 0
1, 291000, Note_on_c, 0, 78, 80
1, 291119, Note_on_c, 0, 78, 0
1, 291120, Note_on_c, 0, 77, 80
1, 291239, Note_on_c, 0, 77, 0
1, 291240, Note_on_c, 0, 75, 80
1, 291359, Note_on_c, 0, 75, 0
1, 291360, Note_on_c, 0, 77, 80
1, 291479, Note_on_c, 0, 77, 0
1, 291480, Note_on_c, 0, 75, 80
1, 291599, Note_on_c, 0, 75, 0
1, 291600, Note_on_c, 0, 77, 80
1, 291719, Note_on_c, 0, 77, 0
1, 291720, Note_on_c, 0, 75, 80
1, 291839, Note_on_c, 0, 75, 0
1, 291840, Note_on_c, 0, 77, 80
1, 291959, Note_on_c, 0, 77, 0
1, 291960, Note_on_c, 0, 78, 80
1, 292079, Note_on_c, 0, 78, 0
1, 292080, Note_on_c, 0, 75, 80
1, 292199, Note_on_c, 0, 75, 0
1, 292200, Note_on_c, 0, 77, 80
1, 292439, Note_on_c, 0, 77, 0
1, 292440, Note_on_c, 0, 75, 80
1, 292559, Note_on_c, 0, 75, 0
1, 292560, Note_on_c, 0, 77, 80
1, 292679, Note_on_c, 0, 77, 0
1, 292680, Note_on_c, 0, 75, 80
1, 292799, Note_on_c, 0, 75, 0
1, 292800, Note_on_c, 0, 77, 80
1, 292919, Note_on_c, 0, 77, 0
1, 292920, Note_on_c, 0, 75, 80
1, 293039, Note_on_c, 0, 75, 0
1, 293040, Note_on_c, 0, 77, 80
1, 293159, Note_on_c, 0, 77, 0
1, 293160, Note_on_c, 0, 78, 80
1, 293279, Note_on_c, 0, 78, 0
1, 293280, Note_on_c, 0, 75, 80
1, 293399, Note_on_c, 0, 75, 0
1, 293400, Note_on_c, 0, 77, 80
1, 293519, Note_on_c, 0, 77, 0
1, 293520, Note_on_c, 0, 78, 80
1, 293639, Note_on_c, 0, 78, 0
1, 293640, Note_on_c, 0, 77, 80
1, 293759, Note_on_c, 0, 77, 0
1, 293760, Note_on_c, 0, 78, 80
1, 293879, Note_on_c, 0, 78, 0
1, 293880, Note_on_c, 0, 80, 80
1, 293999, Note_on_c, 0, 80, 0
1, 294000, Note_on_c, 0, 78, 80
1, 294119, Note_on_c, 0, 78, 0
1, 294120, Note_on_c, 0, 80, 80
1, 294239, Note_on_c, 0, 80, 0
1, 294240, Note_on_c, 0, 82, 80
1, 294359, Note_on_c, 0, 82, 0
1, 294360, Note_on_c, 0, 80, 80
1, 294479, Note_on_c, 0, 80, 0
1, 294480, Note_on_c, 0, 82, 80
1, 294599, Note_on_c, 0, 82, 0
1, 294600, Note_on_c, 0, 85, 80
1, 294719, Note_on_c, 0, 85, 0
1, 294720, Note_on_c, 0, 82, 80
1, 294839, Note_on_c, 0, 82, 0
1, 294840, Note_on_c, 0, 80, 80
1, 294959, Note_on_c, 0, 80, 0
1, 294960, Note_on_c, 0, 78, 80
1, 295079, Note_on_c, 0, 78, 0
1, 295080, Note_on_c, 0, 75, 80
1, 295199, Note_on_c, 0, 75, 0
1, 295200, Note_on_c, 0, 77, 80
1, 295319, Note_on_c, 0, 77, 0
1, 295320, Note_on_c, 0, 75, 80
1, 295439, Note_on_c, 0, 75, 0
1, 295440, Note_on_c, 0, 77, 80
1, 295559, Note_on_c, 0, 77, 0
1, 295560, Note_on_c, 0, 75, 80
1, 295679, Note_on_c, 0, 75, 0
1, 295680, Note_on_c, 0, 77, 80
1, 295799, Note_on_c, 0, 77, 0
1, 295800, Note_on_c, 0, 78, 80
1, 295919, Note_on_c, 0, 78, 0
1, 295920, Note_on_c, 0, 75, 80
1, 296039, Note_on_c, 0, 75, 0
1, 296040, Note_on_c, 0, 77, 80
1, 296279, Note_on_c, 0, 77, 0
1, 296280, Note_on_c, 0, 75, 80
1, 296399, Note_on_c, 0, 75, 0
1, 296400, Note_on_c, 0, 77, 80
1, 296519, Note_on_c, 0, 77, 0
1, 296520, Note_on_c, 0, 75, 80
1, 296639, Note_on_c, 0, 75, 0
1, 296640, Note_on_c, 0, 77, 80
1, 296759, Note_on_c, 0, 77, 0
1, 296760, Note_on_c, 0, 75, 80
1, 296879, Note_on_c, 0, 75, 0
1, 296880, Note_on_c, 0, 77, 80
1, 296999, Note_on_c, 0, 77, 0
1, 297000, Note_on_c, 0, 78, 80
1, 297119, Note_on_c, 0, 78, 0
1, 297120, Note_on_c, 0, 77, 80
1, 297239, Note_on_c, 0, 77, 0
1, 297240, Note_on_c, 0, 75, 80
1, 297359, Note_on_c, 0, 75, 0
1, 297360, Note_on_c, 0, 77, 80
1, 297479, Note_on_c, 0, 77, 0
1, 297480, Note_on_c, 0, 75, 80
1, 297599, Note_on_c, 0, 75, 0
1, 297600, Note_on_c, 0, 77, 80
1, 297719, Note_on_c, 0, 77, 0
1, 297720, Note_on_c, 0, 78, 80
1, 297839, Note_on_c, 0, 78, 0
1, 297960, Note_on_c, 0, 80, 80
1, 298199, Note_on_c, 0, 80, 0
1, 298200, Note_on_c, 0, 82, 80
1, 298319, Note_on_c, 0, 82, 0
1, 298320, Note_on_c, 0, 80, 80
1, 298439, Note_on_c, 0, 80, 0
1, 298440, Note_on_c, 0, 78, 80
1, 298559, Note_on_c, 0, 78, 0
1, 298560, Note_on_c, 0, 80, 80
1, 298679, Note_on_c, 0, 80, 0
1, 298680, Note_on_c, 0, 78, 80
1, 298799, Note_on_c, 0, 78, 0
1, 298800, Note_on_c, 0, 77, 80
1, 298919, Note_on_c, 0, 77, 0
1, 298920, Note_on_c, 0, 75, 80
1, 299039, Note_on_c, 0, 75, 0
1, 299040, Note_on_c, 0, 77, 80
1, 299159, Note_on_c, 0, 77, 0
1, 299160, Note_on_c, 0, 75, 80
1, 299279, Note_on_c, 0, 75, 0
1, 299280, Note_on_c, 0, 77, 80
1, 299399, Note_on_c, 0, 77, 0
1, 299400, Note_on_c, 0, 75, 80
1, 299519, Note_on_c, 0, 75, 0
1, 299520, Note_on_c, 0, 77, 80
1, 299639, Note_on_c, 0, 77, 0
1, 299640, Note_on_c, 0, 78, 80
1, 299759, Note_on_c, 0, 78, 0
1, 299760, Note_on_c, 0, 75, 80
1, 299879, Note_on_c, 0, 75, 0
1, 299880, Note_on_c, 0, 77, 80
1, 300119, Note_on_c, 0, 77, 0
1, 300120, Note_on_c, 0, 75, 80
1, 300239, Note_on_c, 0, 75, 0
1, 300240, Note_on_c, 0, 77, 80
1, 300359, Note_on_c, 0, 77, 0
1, 300360, Note_on_c, 0, 75, 80
1, 300479, Note_on_c, 0, 75, 0
1, 300480, Note_on_c, 0, 77, 80
1, 300599, Note_on_c, 0, 77, 0
1, 300600, Note_on_c, 0, 75, 80
1, 300719, Note_on_c, 0, 75, 0
1, 300720, Note_on_c, 0, 77, 80
1, 300839, Note_on_c, 0, 77, 0
1, 300840, Note_on_c, 0, 78, 80
1, 300959, Note_on_c, 0, 78, 0
1, 300960, Note_on_c, 0, 75, 80
1, 301079, Note_on_c, 0, 75, 0
1, 301080, Note_on_c, 0, 70, 80
1, 301199, Note_on_c, 0, 70, 0
1, 301200, Note_on_c, 0, 66, 80
1, 301319, Note_on_c, 0, 66, 0
1, 301320, Note_on_c, 0, 77, 80
1, 301439, Note_on_c, 0, 77, 0
1, 301440, Note_on_c, 0, 70, 80
1, 301559, Note_on_c, 0, 70, 0
1, 301560, Note_on_c, 0, 66, 80
1, 301679, Note_on_c, 0, 66, 0
1, 301680, Note_on_c, 0, 78, 80
1, 302039, Note_on_c, 0, 78, 0
1, 302040, Note_on_c, 0, 80, 80
1, 302040, Note_on_c, 0, 68, 80
1, 302399, Note_on_c, 0, 80, 0
1, 302399, Note_on_c, 0, 68, 0
1, 302400, Note_on_c, 0, 82, 80
1, 302400, Note_on_c, 0, 70, 80
1, 302639, Note_on_c, 0, 82, 0
1, 302639, Note_on_c, 0, 70, 0
1, 302640, Note_on_c, 0, 85, 80
1, 302640, Note_on_c, 0, 73, 80
1, 302879, Note_on_c, 0, 85, 0
1, 302879, Note_on_c, 0, 73, 0
1, 302880, Note_on_c, 0, 87, 80
1, 302999, Note_on_c, 0, 87, 0
1, 303000, Note_on_c, 0, 85, 80
1, 303119, Note_on_c, 0, 85, 0
1, 303120, Note_on_c, 0, 87, 80
1, 303239, Note_on_c, 0, 87, 0
1, 303240, Note_on_c, 0, 85, 80
1, 303359, Note_on_c, 0, 85, 0
1, 303360, Note_on_c, 0, 87, 80
1, 303479, Note_on_c, 0, 87, 0
1, 303480, Note_on_c, 0, 90, 80
1, 303719, Note_on_c, 0, 90, 0
1, 303720, Note_on_c, 0, 80, 80
1, 303720, Note_on_c, 0, 87, 80
1, 303959, Note_on_c, 0, 87, 0
1, 303960, Note_on_c, 0, 85, 80
1, 304079, Note_on_c, 0, 85, 0
1, 304080, Note_on_c, 0, 87, 80
1, 304199, Note_on_c, 0, 87, 0
1, 304200, Note_on_c, 0, 85, 80
1, 304319, Note_on_c, 0, 85, 0
1, 304320, Note_on_c, 0, 87, 80
1, 304439, Note_on_c, 0, 87, 0
1, 304440, Note_on_c, 0, 85, 80
1, 304559, Note_on_c, 0, 85, 0
1, 304560, Note_on_c, 0, 87, 80
1, 304679, Note_on_c, 0, 87, 0
1, 304680, Note_on_c, 0, 90, 80
1, 304799, Note_on_c, 0, 80, 0
1, 304799, Note_on_c, 0, 90, 0
1, 304800, Note_on_c, 0, 87, 80
1, 304919, Note_on_c, 0, 87, 0
1, 304920, Note_on_c, 0, 85, 80
1, 305039, Note_on_c, 0, 85, 0
1, 305040, Note_on_c, 0, 87, 80
1, 305159, Note_on_c, 0, 87, 0
1, 305160, Note_on_c, 0, 85, 80
1, 305279, Note_on_c, 0, 85, 0
1, 305280, Note_on_c, 0, 87, 80
1, 305399, Note_on_c, 0, 87, 0
1, 305400, Note_on_c, 0, 90, 80
1, 305519, Note_on_c, 0, 90, 0
1, 305640, Note_on_c, 0, 82, 80
1, 305640, Note_on_c, 0, 92, 80
1, 305879, Note_on_c, 0, 92, 0
1, 305880, Note_on_c, 0, 93, 80
1, 305999, Note_on_c, 0, 93, 0
1, 306000, Note_on_c, 0, 92, 80
1, 306119, Note_on_c, 0, 92, 0
1, 306120, Note_on_c, 0, 90, 80
1, 306239, Note_on_c, 0, 90, 0
1, 306240, Note_on_c, 0, 92, 80
1, 306359, Note_on_c, 0, 92, 0
1, 306360, Note_on_c, 0, 90, 80
1, 306479, Note_on_c, 0, 90, 0
1, 306480, Note_on_c, 0, 87, 80
1, 306599, Note_on_c, 0, 87, 0
1, 306600, Note_on_c, 0, 85, 80
1, 306719, Note_on_c, 0, 82, 0
1, 306719, Note_on_c, 0, 85, 0
1, 306720, Note_on_c, 0, 87, 80
1, 307199, Note_on_c, 0, 87, 0
1, 307200, Note_on_c, 0, 85, 80
1, 307295, Note_on_c, 0, 85, 0
1, 307296, Note_on_c, 0, 87, 80
1, 307391, Note_on_c, 0, 87, 0
1, 307392, Note_on_c, 0, 85, 80
1, 307487, Note_on_c, 0, 85, 0
1, 307488, Note_on_c, 0, 82, 80
1, 307583, Note_on_c, 0, 82, 0
1, 307584, Note_on_c, 0, 80, 80
1, 307679, Note_on_c, 0, 80, 0
1, 307680, Note_on_c, 0, 90, 80
1, 307799, Note_on_c, 0, 90, 0
1, 307800, Note_on_c, 0, 89, 80
1, 307919, Note_on_c, 0, 89, 0
1, 307920, Note_on_c, 0, 85, 80
1, 308039, Note_on_c, 0, 85, 0
1, 308040, Note_on_c, 0, 80, 80
1, 308159, Note_on_c, 0, 80, 0
1, 308280, Note_on_c, 0, 77, 80
1, 308399, Note_on_c, 0, 77, 0
1, 308400, Note_on_c, 0, 78, 80
1, 308519, Note_on_c, 0, 78, 0
1, 308520, Note_on_c, 0, 80, 80
1, 308639, Note_on_c, 0, 80, 0
1, 308640, Note_on_c, 0, 85, 80
1, 308759, Note_on_c, 0, 85, 0
1, 308760, Note_on_c, 0, 82, 80
1, 308879, Note_on_c, 0, 82, 0
1, 308880, Note_on_c, 0, 80, 80
1, 308999, Note_on_c, 0, 80, 0
1, 309000, Note_on_c, 0, 82, 80
1, 309119, Note_on_c, 0, 82, 0
1, 309360, Note_on_c, 0, 85, 80
1, 309479, Note_on_c, 0, 85, 0
1, 309480, Note_on_c, 0, 82, 80
1, 309599, Note_on_c, 0, 82, 0
1, 309600, Note_on_c, 0, 80, 80
1, 309719, Note_on_c, 0, 80, 0
1, 309720, Note_on_c, 0, 82, 80
1, 309839, Note_on_c, 0, 82, 0
1, 310080, Note_on_c, 0, 87, 80
1, 310080, Note_on_c, 0, 82, 80
1, 310080, Note_on_c, 0, 80, 80
1, 310319, Note_on_c, 0, 87, 0
1, 310319, Note_on_c, 0, 82, 0
1, 310319, Note_on_c, 0, 80, 0
1, 310320, Note_on_c, 0, 85, 80
1, 310559, Note_on_c, 0, 85, 0
1, 310560, Key_signature, 0, "major"
1, 310560, Note_on_c, 0, 87, 80
1, 310560, Note_on_c, 0, 82, 80
1, 310560, Note_on_c, 0, 80, 80
1, 310799, Note_on_c, 0, 87, 0
1, 310799, Note_on_c, 0, 82, 0
1, 310799, Note_on_c, 0, 80, 0
1, 310800, Note_on_c, 0, 86, 80
1, 310841, Note_on_c, 0, 86, 0
1, 310842, Note_on_c, 0, 84, 80
1, 310883, Note_on_c, 0, 84, 0
1, 310884, Note_on_c, 0, 83, 80
1, 310925, Note_on_c, 0, 83, 0
1, 310926, Note_on_c, 0, 81, 80
1, 310967, Note_on_c, 0, 81, 0
1, 310968, Note_on_c, 0, 79, 80
1, 311009, Note_on_c, 0, 79, 0
1, 311010, Note_on_c, 0, 77, 80
1, 311051, Note_on_c, 0, 77, 0
1, 311052, Note_on_c, 0, 76, 80
1, 311093, Note_on_c, 0, 76, 0
1, 311094, Note_on_c, 0, 74, 80
1, 311135, Note_on_c, 0, 74, 0
1, 311136, Note_on_c, 0, 72, 80
1, 311177, Note_on_c, 0, 72, 0
1, 311178, Note_on_c, 0, 71, 80
1, 311219, Note_on_c, 0, 71, 0
1, 311220, Note_on_c, 0, 69, 80
1, 311261, Note_on_c, 0, 69, 0
1, 311262, Note_on_c, 0, 67, 80
1, 311303, Note_on_c, 0, 67, 0
1, 311304, Note_on_c, 0, 65, 80
1, 311345, Note_on_c, 0, 65, 0
1, 311346, Note_on_c, 0, 64, 80
1, 311387, Note_on_c, 0, 64, 0
1, 311388, Note_on_c, 0, 62, 80
1, 311429, Note_on_c, 0, 62, 0
1, 311430, Note_on_c, 0, 60, 80
1, 311471, Note_on_c, 0, 60, 0
1, 311472, Note_on_c, 0, 59, 80
1, 311513, Note_on_c, 0, 59, 0
1, 311640, Note_on_c, 0, 53, 80
1, 311759, Note_on_c, 0, 53, 0
1, 311760, Note_on_c, 0, 54, 80
1, 311879, Note_on_c, 0, 54, 0
1, 311880, Note_on_c, 0, 58, 80
1, 311999, Note_on_c, 0, 58, 0
1, 312000, Note_on_c, 0, 59, 80
1, 312119, Note_on_c, 0, 59, 0
1, 312120, Note_on_c, 0, 61, 80
1, 312239, Note_on_c, 0, 61, 0
1, 312240, Note_on_c, 0, 63, 80
1, 312359, Note_on_c, 0, 63, 0
1, 312360, Note_on_c, 0, 65, 80
1, 312479, Note_on_c, 0, 65, 0
1, 312480, Key_signature, 6, "major"
1, 312480, Note_on_c, 0, 70, 80
1, 312839, Note_on_c, 0, 70, 0
1, 312840, Note_on_c, 0, 68, 80
1, 313199, Note_on_c, 0, 68, 0
1, 313200, Note_on_c, 0, 70, 80
1, 313439, Note_on_c, 0, 70, 0
1, 313440, Note_on_c, 0, 68, 80
1, 313919, Note_on_c, 0, 68, 0
1, 313920, Note_on_c, 0, 77, 80
1, 313920, Note_on_c, 0, 70, 80
1, 314159, Note_on_c, 0, 77, 0
1, 314159, Note_on_c, 0, 70, 0
1, 314160, Note_on_c, 0, 78, 80
1, 314160, Note_on_c, 0, 71, 80
1, 314639, Note_on_c, 0, 78, 0
1, 314639, Note_on_c, 0, 71, 0
1, 314640, Note_on_c, 0, 77, 80
1, 314879, Note_on_c, 0, 77, 0
1, 314880, Note_on_c, 0, 73, 80
1, 315359, Note_on_c, 0, 73, 0
1, 315360, Note_on_c, 0, 75, 80
1, 315360, Note_on_c, 0, 70, 80
1, 315839, Note_on_c, 0, 75, 0
1, 315839, Note_on_c, 0, 70, 0
1, 315840, Note_on_c, 0, 73, 80
1, 315840, Note_on_c, 0, 70, 80
1, 316079, Note_on_c, 0, 73, 0
1, 316079, Note_on_c, 0, 70, 0
1, 316080, Note_on_c, 0, 75, 80
1, 316080, Note_on_c, 0, 70, 80
1, 316319, Note_on_c, 0, 75, 0
1, 316319, Note_on_c, 0, 70, 0
1, 316320, Note_on_c, 0, 75, 80
1, 316439, Note_on_c, 0, 75, 0
1, 316440, Note_on_c, 0, 70, 80
1, 316559, Note_on_c, 0, 70, 0
1, 316560, Note_on_c, 0, 66, 80
1, 316679, Note_on_c, 0, 66, 0
1, 316680, Note_on_c, 0, 77, 80
1, 316799, Note_on_c, 0, 77, 0
1, 316800, Note_on_c, 0, 70, 80
1, 317039, Note_on_c, 0, 70, 0
1, 317040, Note_on_c, 0, 78, 80
1, 317040, Note_on_c, 0, 66, 80
1, 317399, Note_on_c, 0, 78, 0
1, 317399, Note_on_c, 0, 66, 0
1, 317400, Note_on_c, 0, 80, 80
1, 317400, Note_on_c, 0, 68, 80
1, 317759, Note_on_c, 0, 80, 0
1, 317759, Note_on_c, 0, 68, 0
1, 317760, Note_on_c, 0, 82, 80
1, 317760, Note_on_c, 0, 70, 80
1, 317999, Note_on_c, 0, 82, 0
1, 317999, Note_on_c, 0, 70, 0
1, 318000, Note_on_c, 0, 85, 80
1, 318000, Note_on_c, 0, 73, 80
1, 318239, Note_on_c, 0, 85, 0
1, 318239, Note_on_c, 0, 73, 0
1, 318240, Note_on_c, 0, 77, 80
1, 318359, Note_on_c, 0, 77, 0
1, 318360, Note_on_c, 0, 75, 80
1, 318479, Note_on_c, 0, 75, 0
1, 318480, Note_on_c, 0, 77, 80
1, 318599, Note_on_c, 0, 77, 0
1, 318600, Note_on_c, 0, 75, 80
1, 318719, Note_on_c, 0, 75, 0
1, 318720, Note_on_c, 0, 77, 80
1, 318839, Note_on_c, 0, 77, 0
1, 318840, Note_on_c, 0, 78, 80
1, 318959, Note_on_c, 0, 78, 0
1, 318960, Note_on_c, 0, 75, 80
1, 319079, Note_on_c, 0, 75, 0
1, 319080, Note_on_c, 0, 77, 80
1, 319319, Note_on_c, 0, 77, 0
1, 319320, Note_on_c, 0, 75, 80
1, 319439, Note_on_c, 0, 75, 0
1, 319440, Note_on_c, 0, 77, 80
1, 319559, Note_on_c, 0, 77, 0
1, 319560, Note_on_c, 0, 75, 80
1, 319679, Note_on_c, 0, 75, 0
1, 319680, Note_on_c, 0, 77, 80
1, 319799, Note_on_c, 0, 77, 0
1, 319800, Note_on_c, 0, 75, 80
1, 319919, Note_on_c, 0, 75, 0
1, 319920, Note_on_c, 0, 77, 80
1, 320039, Note_on_c, 0, 77, 0
1, 320040, Note_on_c, 0, 78, 80
1, 320160, Key_signature, 0, "major"
1, 320399, Note_on_c, 0, 78, 0
1, 320400, Note_on_c, 0, 77, 80
1, 320435, Note_on_c, 0, 77, 0
1, 320436, Note_on_c, 0, 76, 80
1, 320471, Note_on_c, 0, 76, 0
1, 320473, Note_on_c, 0, 74, 80
1, 320508, Note_on_c, 0, 74, 0
1, 320509, Note_on_c, 0, 72, 80
1, 320544, Note_on_c, 0, 72, 0
1, 320546, Note_on_c, 0, 71, 80
1, 320581, Note_on_c, 0, 71, 0
1, 320582, Note_on_c, 0, 69, 80
1, 320617, Note_on_c, 0, 69, 0
1, 320619, Note_on_c, 0, 67, 80
1, 320654, Note_on_c, 0, 67, 0
1, 320655, Note_on_c, 0, 65, 80
1, 320690, Note_on_c, 0, 65, 0
1, 320692, Note_on_c, 0, 64, 80
1, 320727, Note_on_c, 0, 64, 0
1, 320728, Note_on_c, 0, 62, 80
1, 320763, Note_on_c, 0, 62, 0
1, 320765, Note_on_c, 0, 60, 80
1, 320800, Note_on_c, 0, 60, 0
1, 320801, Note_on_c, 0, 59, 80
1, 320836, Note_on_c, 0, 59, 0
1, 320838, Note_on_c, 0, 57, 80
1, 320873, Note_on_c, 0, 57, 0
1, 320874, Note_on_c, 0, 55, 80
1, 320909, Note_on_c, 0, 55, 0
1, 320911, Note_on_c, 0, 53, 80
1, 320946, Note_on_c, 0, 53, 0
1, 320947, Note_on_c, 0, 52, 80
1, 320982, Note_on_c, 0, 52, 0
1, 320984, Note_on_c, 0, 50, 80
1, 321019, Note_on_c, 0, 50, 0
1, 321020, Note_on_c, 0, 48, 80
1, 321055, Note_on_c, 0, 48, 0
1, 321057, Note_on_c, 0, 47, 80
1, 321092, Note_on_c, 0, 47, 0
1, 321093, Note_on_c, 0, 45, 80
1, 321128, Note_on_c, 0, 45, 0
1, 321130, Note_on_c, 0, 43, 80
1, 321165, Note_on_c, 0, 43, 0
1, 321166, Note_on_c, 0, 41, 80
1, 321201, Note_on_c, 0, 41, 0
1, 321203, Note_on_c, 0, 40, 80
1, 321238, Note_on_c, 0, 40, 0
1, 321239, Note_on_c, 0, 38, 80
1, 321274, Note_on_c, 0, 38, 0
1, 321276, Note_on_c, 0, 36, 80
1, 321311, Note_on_c, 0, 36, 0
1, 321312, Note_on_c, 0, 35, 80
1, 321347, Note_on_c, 0, 35, 0
1, 321360, Note_on_c, 0, 33, 80
1, 321479, Note_on_c, 0, 33, 0
1, 321480, End_track
2, 0, Start_track
2, 0, Key_signature, -6, "major"
2, 1440, Note_on_c, 0, 59, 80
2, 1680, Note_on_c, 0, 61, 80
2, 1920, Note_on_c, 0, 63, 80
2, 2159, Note_on_c, 0, 61, 0
2, 2160, Note_on_c, 0, 66, 80
2, 2400, Note_on_c, 0, 70, 80
2, 4319, Note_on_c, 0, 59, 0
2, 4700, Note_on_c, 0, 61, 80
2, 4750, Note_on_c, 0, 65, 80
2, 4799, Note_on_c, 0, 63, 0
2, 4799, Note_on_c, 0, 70, 0
2, 4799, Note_on_c, 0, 66, 0
2, 4800, Note_on_c, 0, 68, 80
2, 5179, Note_on_c, 0, 61, 0
2, 5229, Note_on_c, 0, 65, 0
2, 5279, Note_on_c, 0, 68, 0
2, 5280, Note_on_c, 0, 63, 80
2, 5520, Note_on_c, 0, 65, 80
2, 5759, Note_on_c, 0, 65, 0
2, 5760, Note_on_c, 0, 66, 80
2, 6000, Note_on_c, 0, 68, 80
2, 6240, Note_on_c, 0, 70, 80
2, 9119, Note_on_c, 0, 66, 0
2, 9119, Note_on_c, 0, 63, 0
2, 9119, Note_on_c, 0, 70, 0
2, 9119, Note_on_c, 0, 68, 0
2, 9120, Note_on_c, 0, 60, 80
2, 9360, Note_on_c, 0, 63, 80
2, 9600, Note_on_c, 0, 66, 80
2, 9839, Note_on_c, 0, 63, 0
2, 9840, Note_on_c, 0, 68, 80
2, 10080, Note_on_c, 0, 72, 80
2, 12959, Note_on_c, 0, 66, 0
2, 12959, Note_on_c, 0, 60, 0
2, 12959, Note_on_c, 0, 72, 0
2, 12959, Note_on_c, 0, 68, 0
2, 16800, Note_on_c, 0, 47, 80
2, 16800, Note_on_c, 0, 42, 80
2, 16800, Note_on_c, 0, 39, 80
2, 16800, Note_on_c, 0, 35, 80
2, 17519, Note_on_c, 0, 47, 0
2, 17519, Note_on_c, 0, 42, 0
2, 17519, Note_on_c, 0, 39, 0
2, 17519, Note_on_c, 0, 35, 0
2, 17520, Note_on_c, 0, 49, 80
2, 17520, Note_on_c, 0, 44, 80
2, 17520, Note_on_c, 0, 41, 80
2, 17520, Note_on_c, 0, 37, 80
2, 17760, Key_signature, -1, "major"
2, 17999, Note_on_c, 0, 49, 0
2, 17999, Note_on_c, 0, 44, 0
2, 17999, Note_on_c, 0, 41, 0
2, 17999, Note_on_c, 0, 37, 0
2, 18000, Note_on_c, 0, 37, 80
2, 18239, Note_on_c, 0, 37, 0
2, 18240, Note_on_c, 0, 49, 80
2, 18240, Note_on_c, 0, 44, 80
2, 18479, Note_on_c, 0, 49, 0
2, 18479, Note_on_c, 0, 44, 0
2, 18480, Note_on_c, 0, 51, 80
2, 18480, Note_on_c, 0, 39, 80
2, 20159, Note_on_c, 0, 51, 0
2, 20159, Note_on_c, 0, 39, 0
2, 20160, Note_on_c, 0, 51, 80
2, 20160, Note_on_c, 0, 39, 80
2, 20639, Note_on_c, 0, 51, 0
2, 20639, Note_on_c, 0, 39, 0
2, 20640, Note_on_c, 0, 34, 80
2, 20879, Note_on_c, 0, 34, 0
2, 20880, Note_on_c, 0, 50, 80
2, 20880, Note_on_c, 0, 46, 80
2, 21119, Note_on_c, 0, 50, 0
2, 21119, Note_on_c, 0, 46, 0
2, 21120, Note_on_c, 0, 34, 80
2, 21359, Note_on_c, 0, 34, 0
2, 21360, Note_on_c, 0, 50, 80
2, 21360, Note_on_c, 0, 46, 80
2, 21599, Note_on_c, 0, 50, 0
2, 21599, Note_on_c, 0, 46, 0
2, 21600, Note_on_c, 0, 36, 80
2, 21839, Note_on_c, 0, 36, 0
2, 21840, Note_on_c, 0, 52, 80
2, 21840, Note_on_c, 0, 48, 80
2, 22079, Note_on_c, 0, 52, 0
2, 22079, Note_on_c, 0, 48, 0
2, 22080, Note_on_c, 0, 36, 80
2, 22319, Note_on_c, 0, 36, 0
2, 22320, Note_on_c, 0, 52, 80
2, 22320, Note_on_c, 0, 48, 80
2, 22559, Note_on_c, 0, 52, 0
2, 22559, Note_on_c, 0, 48, 0
2, 22560, Note_on_c, 0, 33, 80
2, 22799, Note_on_c, 0, 33, 0
2, 22800, Note_on_c, 0, 48, 80
2, 22800, Note_on_c, 0, 45, 80
2, 23039, Note_on_c, 0, 48, 0
2, 23039, Note_on_c, 0, 45, 0
2, 23040, Note_on_c, 0, 33, 80
2, 23279, Note_on_c, 0, 33, 0
2, 23280, Note_on_c, 0, 48, 80
2, 23280, Note_on_c, 0, 45, 80
2, 23519, Note_on_c, 0, 48, 0
2, 23519, Note_on_c, 0, 45, 0
2, 23520, Note_on_c, 0, 38, 80
2, 23759, Note_on_c, 0, 38, 0
2, 23760, Note_on_c, 0, 53, 80
2, 23760, Note_on_c, 0, 50, 80
2, 23999, Note_on_c, 0, 53, 0
2, 23999, Note_on_c, 0, 50, 0
2, 24000, Note_on_c, 0, 36, 80
2, 24239, Note_on_c, 0, 36, 0
2, 24240, Note_on_c, 0, 52, 80
2, 24240, Note_on_c, 0, 48, 80
2, 24479, Note_on_c, 0, 52, 0
2, 24479, Note_on_c, 0, 48, 0
2, 24480, Note_on_c, 0, 34, 80
2, 24719, Note_on_c, 0, 34, 0
2, 24720, Note_on_c, 0, 50, 80
2, 24720, Note_on_c, 0, 46, 80
2, 24959, Note_on_c, 0, 50, 0
2, 24959, Note_on_c, 0, 46, 0
2, 24960, Note_on_c, 0, 34, 80
2, 25199, Note_on_c, 0, 34, 0
2, 25200, Note_on_c, 0, 50, 80
2, 25200, Note_on_c, 0, 46, 80
2, 25439, Note_on_c, 0, 50, 0
2, 25439, Note_on_c, 0, 46, 0
2, 25440, Note_on_c, 0, 36, 80
2, 25679, Note_on_c, 0, 36, 0
2, 25680, Note_on_c, 0, 52, 80
2, 25680, Note_on_c, 0, 48, 80
2, 25919, Note_on_c, 0, 52, 0
2, 25919, Note_on_c, 0, 48, 0
2, 25920, Note_on_c, 0, 36, 80
2, 26159, Note_on_c, 0, 36, 0
2, 26160, Note_on_c, 0, 52, 80
2, 26160, Note_on_c, 0, 48, 80
2, 26399, Note_on_c, 0, 52, 0
2, 26399, Note_on_c, 0, 48, 0
2, 26400, Note_on_c, 0, 50, 80
2, 26400, Note_on_c, 0, 38, 80
2, 26759, Note_on_c, 0, 50, 0
2, 26759, Note_on_c, 0, 38, 0
2, 26760, Note_on_c, 0, 50, 80
2, 26760, Note_on_c, 0, 38, 80
2, 27119, Note_on_c, 0, 50, 0
2, 27119, Note_on_c, 0, 38, 0
2, 27120, Note_on_c, 0, 53, 80
2, 27120, Note_on_c, 0, 41, 80
2, 27479, Note_on_c, 0, 53, 0
2, 27479, Note_on_c, 0, 41, 0
2, 27480, Note_on_c, 0, 53, 80
2, 27480, Note_on_c, 0, 41, 80
2, 27839, Note_on_c, 0, 53, 0
2, 27839, Note_on_c, 0, 41, 0
2, 27840, Note_on_c, 0, 50, 80
2, 27840, Note_on_c, 0, 38, 80
2, 28079, Note_on_c, 0, 50, 0
2, 28079, Note_on_c, 0, 38, 0
2, 28080, Note_on_c, 0, 50, 80
2, 28080, Note_on_c, 0, 38, 80
2, 28319, Note_on_c, 0, 50, 0
2, 28319, Note_on_c, 0, 38, 0
2, 28320, Note_on_c, 0, 34, 80
2, 28559, Note_on_c, 0, 34, 0
2, 28560, Note_on_c, 0, 50, 80
2, 28560, Note_on_c, 0, 46, 80
2, 28799, Note_on_c, 0, 50, 0
2, 28799, Note_on_c, 0, 46, 0
2, 28800, Note_on_c, 0, 34, 80
2, 29039, Note_on_c, 0, 34, 0
2, 29040, Note_on_c, 0, 50, 80
2, 29040, Note_on_c, 0, 46, 80
2, 29279, Note_on_c, 0, 50, 0
2, 29279, Note_on_c, 0, 46, 0
2, 29280, Note_on_c, 0, 36, 80
2, 29519, Note_on_c, 0, 36, 0
2, 29520, Note_on_c, 0, 52, 80
2, 29520, Note_on_c, 0, 48, 80
2, 29759, Note_on_c, 0, 52, 0
2, 29759, Note_on_c, 0, 48, 0
2, 29760, Note_on_c, 0, 36, 80
2, 29999, Note_on_c, 0, 36, 0
2, 30000, Note_on_c, 0, 52, 80
2, 30000, Note_on_c, 0, 48, 80
2, 30239, Note_on_c, 0, 52, 0
2, 30239, Note_on_c, 0, 48, 0
2, 30240, Note_on_c, 0, 33, 80
2, 30479, Note_on_c, 0, 33, 0
2, 30480, Note_on_c, 0, 48, 80
2, 30480, Note_on_c, 0, 45, 80
2, 30719, Note_on_c, 0, 48, 0
2, 30719, Note_on_c, 0, 45, 0
2, 30720, Note_on_c, 0, 33, 80
2, 30959, Note_on_c, 0, 33, 0
2, 30960, Note_on_c, 0, 48, 80
2, 30960, Note_on_c, 0, 45, 80
2, 31199, Note_on_c, 0, 48, 0
2, 31199, Note_on_c, 0, 45, 0
2, 31200, Note_on_c, 0, 38, 80
2, 31439, Note_on_c, 0, 38, 0
2, 31440, Note_on_c, 0, 53, 80
2, 31440, Note_on_c, 0, 50, 80
2, 31679, Note_on_c, 0, 53, 0
2, 31679, Note_on_c, 0, 50, 0
2, 31680, Note_on_c, 0, 36, 80
2, 31919, Note_on_c, 0, 36, 0
2, 31920, Note_on_c, 0, 52, 80
2, 31920, Note_on_c, 0, 48, 80
2, 32159, Note_on_c, 0, 52, 0
2, 32159, Note_on_c, 0, 48, 0
2, 32160, Note_on_c, 0, 34, 80
2, 32399, Note_on_c, 0, 34, 0
2, 32400, Note_on_c, 0, 50, 80
2, 32400, Note_on_c, 0, 46, 80
2, 32639, Note_on_c, 0, 50, 0
2, 32639, Note_on_c, 0, 46, 0
2, 32640, Note_on_c, 0, 34, 80
2, 32879, Note_on_c, 0, 34, 0
2, 32880, Note_on_c, 0, 50, 80
2, 32880, Note_on_c, 0, 46, 80
2, 33119, Note_on_c, 0, 50, 0
2, 33119, Note_on_c, 0, 46, 0
2, 33120, Note_on_c, 0, 36, 80
2, 33359, Note_on_c, 0, 36, 0
2, 33360, Note_on_c, 0, 52, 80
2, 33360, Note_on_c, 0, 48, 80
2, 33599, Note_on_c, 0, 52, 0
2, 33599, Note_on_c, 0, 48, 0
2, 33600, Note_on_c, 0, 36, 80
2, 33839, Note_on_c, 0, 36, 0
2, 33840, Note_on_c, 0, 52, 80
2, 33840, Note_on_c, 0, 48, 80
2, 34079, Note_on_c, 0, 52, 0
2, 34079, Note_on_c, 0, 48, 0
2, 34080, Note_on_c, 0, 50, 80
2, 34080, Note_on_c, 0, 38, 80
2, 34319, Note_on_c, 0, 50, 0
2, 34319, Note_on_c, 0, 38, 0
2, 34440, Note_on_c, 0, 50, 80
2, 34440, Note_on_c, 0, 38, 80
2, 34679, Note_on_c, 0, 50, 0
2, 34679, Note_on_c, 0, 38, 0
2, 34800, Note_on_c, 0, 50, 80
2, 34800, Note_on_c, 0, 38, 80
2, 35160, Note_on_c, 0, 57, 80
2, 35519, Note_on_c, 0, 57, 0
2, 35520, Note_on_c, 0, 62, 80
2, 35759, Note_on_c, 0, 62, 0
2, 35760, Note_on_c, 0, 64, 80
2, 35999, Note_on_c, 0, 64, 0
2, 35999, Note_on_c, 0, 50, 0
2, 35999, Note_on_c, 0, 38, 0
2, 36000, Note_on_c, 0, 38, 80
2, 36239, Note_on_c, 0, 38, 0
2, 36240, Note_on_c, 0, 50, 80
2, 36479, Note_on_c, 0, 50, 0
2, 36480, Note_on_c, 0, 38, 80
2, 36719, Note_on_c, 0, 38, 0
2, 36720, Note_on_c, 0, 50, 80
2, 36959, Note_on_c, 0, 50, 0
2, 36960, Note_on_c, 0, 36, 80
2, 37199, Note_on_c, 0, 36, 0
2, 37200, Note_on_c, 0, 48, 80
2, 37439, Note_on_c, 0, 48, 0
2, 37440, Note_on_c, 0, 36, 80
2, 37679, Note_on_c, 0, 36, 0
2, 37680, Note_on_c, 0, 48, 80
2, 37919, Note_on_c, 0, 48, 0
2, 37920, Note_on_c, 0, 34, 80
2, 38159, Note_on_c, 0, 34, 0
2, 38160, Note_on_c, 0, 50, 80
2, 38160, Note_on_c, 0, 46, 80
2, 38399, Note_on_c, 0, 50, 0
2, 38399, Note_on_c, 0, 46, 0
2, 38400, Note_on_c, 0, 34, 80
2, 38639, Note_on_c, 0, 34, 0
2, 38640, Note_on_c, 0, 50, 80
2, 38640, Note_on_c, 0, 46, 80
2, 38879, Note_on_c, 0, 50, 0
2, 38879, Note_on_c, 0, 46, 0
2, 38880, Note_on_c, 0, 34, 80
2, 39119, Note_on_c, 0, 34, 0
2, 39120, Note_on_c, 0, 50, 80
2, 39120, Note_on_c, 0, 46, 80
2, 39359, Note_on_c, 0, 50, 0
2, 39359, Note_on_c, 0, 46, 0
2, 39360, Note_on_c, 0, 36, 80
2, 39599, Note_on_c, 0, 36, 0
2, 39600, Note_on_c, 0, 52, 80
2, 39600, Note_on_c, 0, 48, 80
2, 39839, Note_on_c, 0, 52, 0
2, 39839, Note_on_c, 0, 48, 0
2, 39840, Note_on_c, 0, 38, 80
2, 40079, Note_on_c, 0, 38, 0
2, 40080, Note_on_c, 0, 53, 80
2, 40080, Note_on_c, 0, 50, 80
2, 40319, Note_on_c, 0, 53, 0
2, 40319, Note_on_c, 0, 50, 0
2, 40320, Note_on_c, 0, 38, 80
2, 40559, Note_on_c, 0, 38, 0
2, 40560, Note_on_c, 0, 53, 80
2, 40560, Note_on_c, 0, 50, 80
2, 40799, Note_on_c, 0, 53, 0
2, 40799, Note_on_c, 0, 50, 0
2, 40800, Note_on_c, 0, 36, 80
2, 41039, Note_on_c, 0, 36, 0
2, 41040, Note_on_c, 0, 52, 80
2, 41040, Note_on_c, 0, 48, 80
2, 41279, Note_on_c, 0, 52, 0
2, 41279, Note_on_c, 0, 48, 0
2, 41280, Note_on_c, 0, 36, 80
2, 41519, Note_on_c, 0, 36, 0
2, 41520, Note_on_c, 0, 52, 80
2, 41520, Note_on_c, 0, 48, 80
2, 41759, Note_on_c, 0, 52, 0
2, 41759, Note_on_c, 0, 48, 0
2, 41760, Note_on_c, 0, 35, 80
2, 41999, Note_on_c, 0, 35, 0
2, 42000, Note_on_c, 0, 50, 80
2, 42000, Note_on_c, 0, 47, 80
2, 42239, Note_on_c, 0, 50, 0
2, 42239, Note_on_c, 0, 47, 0
2, 42240, Note_on_c, 0, 35, 80
2, 42479, Note_on_c, 0, 35, 0
2, 42480, Note_on_c, 0, 50, 80
2, 42480, Note_on_c, 0, 47, 80
2, 42719, Note_on_c, 0, 50, 0
2, 42719, Note_on_c, 0, 47, 0
2, 42720, Note_on_c, 0, 35, 80
2, 42959, Note_on_c, 0, 35, 0
2, 42960, Note_on_c, 0, 50, 80
2, 42960, Note_on_c, 0, 47, 80
2, 43199, Note_on_c, 0, 50, 0
2, 43199, Note_on_c, 0, 47, 0
2, 43200, Note_on_c, 0, 35, 80
2, 43439, Note_on_c, 0, 35, 0
2, 43440, Note_on_c, 0, 50, 80
2, 43440, Note_on_c, 0, 47, 80
2, 43679, Note_on_c, 0, 50, 0
2, 43679, Note_on_c, 0, 47, 0
2, 43680, Note_on_c, 0, 31, 80
2, 43919, Note_on_c, 0, 31, 0
2, 43920, Note_on_c, 0, 46, 80
2, 44159, Note_on_c, 0, 46, 0
2, 44160, Note_on_c, 0, 31, 80
2, 44399, Note_on_c, 0, 31, 0
2, 44400, Note_on_c, 0, 46, 80
2, 44639, Note_on_c, 0, 46, 0
2, 44640, Note_on_c, 0, 31, 80
2, 44879, Note_on_c, 0, 31, 0
2, 44880, Note_on_c, 0, 46, 80
2, 45119, Note_on_c, 0, 46, 0
2, 45120, Note_on_c, 0, 31, 80
2, 45359, Note_on_c, 0, 31, 0
2, 45360, Note_on_c, 0, 46, 80
2, 45599, Note_on_c, 0, 46, 0
2, 45600, Note_on_c, 0, 29, 80
2, 45839, Note_on_c, 0, 29, 0
2, 45840, Note_on_c, 0, 45, 80
2, 45840, Note_on_c, 0, 41, 80
2, 46079, Note_on_c, 0, 45, 0
2, 46079, Note_on_c, 0, 41, 0
2, 46080, Note_on_c, 0, 29, 80
2, 46319, Note_on_c, 0, 29, 0
2, 46320, Note_on_c, 0, 45, 80
2, 46320, Note_on_c, 0, 41, 80
2, 46559, Note_on_c, 0, 45, 0
2, 46559, Note_on_c, 0, 41, 0
2, 46560, Note_on_c, 0, 29, 80
2, 46799, Note_on_c, 0, 29, 0
2, 46800, Note_on_c, 0, 45, 80
2, 46800, Note_on_c, 0, 41, 80
2, 47039, Note_on_c, 0, 45, 0
2, 47039, Note_on_c, 0, 41, 0
2, 47040, Note_on_c, 0, 29, 80
2, 47279, Note_on_c, 0, 29, 0
2, 47280, Note_on_c, 0, 45, 80
2, 47280, Note_on_c, 0, 41, 80
2, 47519, Note_on_c, 0, 45, 0
2, 47519, Note_on_c, 0, 41, 0
2, 47520, Note_on_c, 0, 31, 80
2, 47759, Note_on_c, 0, 31, 0
2, 47760, Note_on_c, 0, 46, 80
2, 47999, Note_on_c, 0, 46, 0
2, 48000, Note_on_c, 0, 31, 80
2, 48239, Note_on_c, 0, 31, 0
2, 48240, Note_on_c, 0, 46, 80
2, 48479, Note_on_c, 0, 46, 0
2, 48480, Note_on_c, 0, 33, 80
2, 48719, Note_on_c, 0, 33, 0
2, 48720, Note_on_c, 0, 49, 80
2, 48959, Note_on_c, 0, 49, 0
2, 48960, Note_on_c, 0, 33, 80
2, 49199, Note_on_c, 0, 33, 0
2, 49200, Note_on_c, 0, 49, 80
2, 49439, Note_on_c, 0, 49, 0
2, 49440, Note_on_c, 0, 34, 80
2, 49679, Note_on_c, 0, 34, 0
2, 49680, Note_on_c, 0, 50, 80
2, 49680, Note_on_c, 0, 46, 80
2, 49919, Note_on_c, 0, 50, 0
2, 49919, Note_on_c, 0, 46, 0
2, 49920, Note_on_c, 0, 34, 80
2, 50159, Note_on_c, 0, 34, 0
2, 50160, Note_on_c, 0, 50, 80
2, 50160, Note_on_c, 0, 46, 80
2, 50399, Note_on_c, 0, 50, 0
2, 50399, Note_on_c, 0, 46, 0
2, 50400, Note_on_c, 0, 36, 80
2, 50639, Note_on_c, 0, 36, 0
2, 50640, Note_on_c, 0, 52, 80
2, 50640, Note_on_c, 0, 48, 80
2, 50879, Note_on_c, 0, 52, 0
2, 50879, Note_on_c, 0, 48, 0
2, 50880, Note_on_c, 0, 36, 80
2, 51119, Note_on_c, 0, 36, 0
2, 51120, Note_on_c, 0, 52, 80
2, 51120, Note_on_c, 0, 48, 80
2, 51359, Note_on_c, 0, 52, 0
2, 51359, Note_on_c, 0, 48, 0
2, 51360, Note_on_c, 0, 38, 80
2, 51599, Note_on_c, 0, 38, 0
2, 51600, Note_on_c, 0, 53, 80
2, 51600, Note_on_c, 0, 50, 80
2, 51839, Note_on_c, 0, 53, 0
2, 51839, Note_on_c, 0, 50, 0
2, 51840, Note_on_c, 0, 38, 80
2, 52079, Note_on_c, 0, 38, 0
2, 52080, Note_on_c, 0, 53, 80
2, 52080, Note_on_c, 0, 50, 80
2, 52319, Note_on_c, 0, 53, 0
2, 52319, Note_on_c, 0, 50, 0
2, 52320, Note_on_c, 0, 36, 80
2, 52559, Note_on_c, 0, 36, 0
2, 52560, Note_on_c, 0, 52, 80
2, 52560, Note_on_c, 0, 48, 80
2, 52799, Note_on_c, 0, 52, 0
2, 52799, Note_on_c, 0, 48, 0
2, 52800, Note_on_c, 0, 36, 80
2, 53039, Note_on_c, 0, 36, 0
2, 53040, Note_on_c, 0, 52, 80
2, 53040, Note_on_c, 0, 48, 80
2, 53279, Note_on_c, 0, 52, 0
2, 53279, Note_on_c, 0, 48, 0
2, 53280, Note_on_c, 0, 34, 80
2, 53519, Note_on_c, 0, 34, 0
2, 53520, Note_on_c, 0, 50, 80
2, 53520, Note_on_c, 0, 46, 80
2, 53759, Note_on_c, 0, 50, 0
2, 53759, Note_on_c, 0, 46, 0
2, 53760, Note_on_c, 0, 34, 80
2, 53999, Note_on_c, 0, 34, 0
2, 54000, Note_on_c, 0, 50, 80
2, 54000, Note_on_c, 0, 46, 80
2, 54239, Note_on_c, 0, 50, 0
2, 54239, Note_on_c, 0, 46, 0
2, 54240, Note_on_c, 0, 34, 80
2, 54479, Note_on_c, 0, 34, 0
2, 54480, Note_on_c, 0, 50, 80
2, 54480, Note_on_c, 0, 46, 80
2, 54719, Note_on_c, 0, 50, 0
2, 54719, Note_on_c, 0, 46, 0
2, 54720, Note_on_c, 0, 36, 80
2, 54959, Note_on_c, 0, 36, 0
2, 54960, Note_on_c, 0, 52, 80
2, 54960, Note_on_c, 0, 48, 80
2, 55199, Note_on_c, 0, 52, 0
2, 55199, Note_on_c, 0, 48, 0
2, 55200, Note_on_c, 0, 38, 80
2, 55439, Note_on_c, 0, 38, 0
2, 55440, Note_on_c, 0, 53, 80
2, 55440, Note_on_c, 0, 50, 80
2, 55679, Note_on_c, 0, 53, 0
2, 55679, Note_on_c, 0, 50, 0
2, 55680, Note_on_c, 0, 38, 80
2, 55919, Note_on_c, 0, 38, 0
2, 55920, Note_on_c, 0, 53, 80
2, 55920, Note_on_c, 0, 50, 80
2, 56159, Note_on_c, 0, 53, 0
2, 56159, Note_on_c, 0, 50, 0
2, 56160, Note_on_c, 0, 36, 80
2, 56399, Note_on_c, 0, 36, 0
2, 56400, Note_on_c, 0, 52, 80
2, 56400, Note_on_c, 0, 48, 80
2, 56639, Note_on_c, 0, 52, 0
2, 56639, Note_on_c, 0, 48, 0
2, 56640, Note_on_c, 0, 36, 80
2, 56879, Note_on_c, 0, 36, 0
2, 56880, Note_on_c, 0, 52, 80
2, 56880, Note_on_c, 0, 48, 80
2, 57119, Note_on_c, 0, 52, 0
2, 57119, Note_on_c, 0, 48, 0
2, 57120, Note_on_c, 0, 35, 80
2, 57359, Note_on_c, 0, 35, 0
2, 57360, Note_on_c, 0, 50, 80
2, 57360, Note_on_c, 0, 47, 80
2, 57599, Note_on_c, 0, 50, 0
2, 57599, Note_on_c, 0, 47, 0
2, 57600, Note_on_c, 0, 35, 80
2, 57839, Note_on_c, 0, 35, 0
2, 57840, Note_on_c, 0, 50, 80
2, 57840, Note_on_c, 0, 47, 80
2, 58079, Note_on_c, 0, 50, 0
2, 58079, Note_on_c, 0, 47, 0
2, 58080, Note_on_c, 0, 35, 80
2, 58319, Note_on_c, 0, 35, 0
2, 58320, Note_on_c, 0, 50, 80
2, 58320, Note_on_c, 0, 47, 80
2, 58559, Note_on_c, 0, 50, 0
2, 58559, Note_on_c, 0, 47, 0
2, 58560, Note_on_c, 0, 35, 80
2, 58799, Note_on_c, 0, 35, 0
2, 58800, Note_on_c, 0, 50, 80
2, 58800, Note_on_c, 0, 47, 80
2, 59039, Note_on_c, 0, 50, 0
2, 59039, Note_on_c, 0, 47, 0
2, 59040, Note_on_c, 0, 31, 80
2, 59279, Note_on_c, 0, 31, 0
2, 59280, Note_on_c, 0, 46, 80
2, 59519, Note_on_c, 0, 46, 0
2, 59520, Note_on_c, 0, 31, 80
2, 59759, Note_on_c, 0, 31, 0
2, 59760, Note_on_c, 0, 46, 80
2, 59999, Note_on_c, 0, 46, 0
2, 60000, Note_on_c, 0, 31, 80
2, 60239, Note_on_c, 0, 31, 0
2, 60240, Note_on_c, 0, 46, 80
2, 60479, Note_on_c, 0, 46, 0
2, 60480, Note_on_c, 0, 31, 80
2, 60719, Note_on_c, 0, 31, 0
2, 60720, Note_on_c, 0, 46, 80
2, 60959, Note_on_c, 0, 46, 0
2, 60960, Note_on_c, 0, 29, 80
2, 61199, Note_on_c, 0, 29, 0
2, 61200, Note_on_c, 0, 45, 80
2, 61200, Note_on_c, 0, 41, 80
2, 61439, Note_on_c, 0, 45, 0
2, 61439, Note_on_c, 0, 41, 0
2, 61440, Note_on_c, 0, 29, 80
2, 61679, Note_on_c, 0, 29, 0
2, 61680, Note_on_c, 0, 45, 80
2, 61680, Note_on_c, 0, 41, 80
2, 61919, Note_on_c, 0, 45, 0
2, 61919, Note_on_c, 0, 41, 0
2, 61920, Note_on_c, 0, 29, 80
2, 62159, Note_on_c, 0, 29, 0
2, 62160, Note_on_c, 0, 45, 80
2, 62160, Note_on_c, 0, 41, 80
2, 62399, Note_on_c, 0, 45, 0
2, 62399, Note_on_c, 0, 41, 0
2, 62400, Note_on_c, 0, 29, 80
2, 62639, Note_on_c, 0, 29, 0
2, 62640, Note_on_c, 0, 45, 80
2, 62640, Note_on_c, 0, 41, 80
2, 62879, Note_on_c, 0, 45, 0
2, 62879, Note_on_c, 0, 41, 0
2, 62880, Note_on_c, 0, 31, 80
2, 63119, Note_on_c, 0, 31, 0
2, 63120, Note_on_c, 0, 46, 80
2, 63359, Note_on_c, 0, 46, 0
2, 63360, Note_on_c, 0, 31, 80
2, 63599, Note_on_c, 0, 31, 0
2, 63600, Note_on_c, 0, 46, 80
2, 63839, Note_on_c, 0, 46, 0
2, 63840, Note_on_c, 0, 33, 80
2, 64079, Note_on_c, 0, 33, 0
2, 64080, Note_on_c, 0, 49, 80
2, 64319, Note_on_c, 0, 49, 0
2, 64320, Note_on_c, 0, 33, 80
2, 64559, Note_on_c, 0, 33, 0
2, 64560, Note_on_c, 0, 49, 80
2, 64799, Note_on_c, 0, 49, 0
2, 64800, Note_on_c, 0, 34, 80
2, 65039, Note_on_c, 0, 34, 0
2, 65040, Note_on_c, 0, 50, 80
2, 65040, Note_on_c, 0, 46, 80
2, 65279, Note_on_c, 0, 50, 0
2, 65279, Note_on_c, 0, 46, 0
2, 65280, Note_on_c, 0, 34, 80
2, 65519, Note_on_c, 0, 34, 0
2, 65520, Note_on_c, 0, 50, 80
2, 65520, Note_on_c, 0, 46, 80
2, 65759, Note_on_c, 0, 50, 0
2, 65759, Note_on_c, 0, 46, 0
2, 65760, Note_on_c, 0, 36, 80
2, 65999, Note_on_c, 0, 36, 0
2, 66000, Note_on_c, 0, 52, 80
2, 66000, Note_on_c, 0, 48, 80
2, 66239, Note_on_c, 0, 52, 0
2, 66239, Note_on_c, 0, 48, 0
2, 66240, Note_on_c, 0, 36, 80
2, 66479, Note_on_c, 0, 36, 0
2, 66480, Note_on_c, 0, 52, 80
2, 66480, Note_on_c, 0, 48, 80
2, 66719, Note_on_c, 0, 52, 0
2, 66719, Note_on_c, 0, 48, 0
2, 66720, Note_on_c, 0, 34, 80
2, 66959, Note_on_c, 0, 34, 0
2, 66960, Note_on_c, 0, 50, 80
2, 66960, Note_on_c, 0, 46, 80
2, 67199, Note_on_c, 0, 50, 0
2, 67199, Note_on_c, 0, 46, 0
2, 67200, Note_on_c, 0, 34, 80
2, 67439, Note_on_c, 0, 34, 0
2, 67440, Note_on_c, 0, 50, 80
2, 67440, Note_on_c, 0, 46, 80
2, 67679, Note_on_c, 0, 50, 0
2, 67679, Note_on_c, 0, 46, 0
2, 67680, Note_on_c, 0, 34, 80
2, 67919, Note_on_c, 0, 34, 0
2, 67920, Note_on_c, 0, 50, 80
2, 67920, Note_on_c, 0, 46, 80
2, 68159, Note_on_c, 0, 50, 0
2, 68159, Note_on_c, 0, 46, 0
2, 68160, Note_on_c, 0, 34, 80
2, 68399, Note_on_c, 0, 34, 0
2, 68400, Note_on_c, 0, 50, 80
2, 68400, Note_on_c, 0, 46, 80
2, 68639, Note_on_c, 0, 50, 0
2, 68639, Note_on_c, 0, 46, 0
2, 68640, Note_on_c, 0, 36, 80
2, 68879, Note_on_c, 0, 36, 0
2, 68880, Note_on_c, 0, 52, 80
2, 68880, Note_on_c, 0, 48, 80
2, 69119, Note_on_c, 0, 52, 0
2, 69119, Note_on_c, 0, 48, 0
2, 69120, Note_on_c, 0, 36, 80
2, 69359, Note_on_c, 0, 36, 0
2, 69360, Note_on_c, 0, 52, 80
2, 69360, Note_on_c, 0, 48, 80
2, 69599, Note_on_c, 0, 52, 0
2, 69599, Note_on_c, 0, 48, 0
2, 69600, Note_on_c, 0, 36, 80
2, 69839, Note_on_c, 0, 36, 0
2, 69840, Note_on_c, 0, 52, 80
2, 69840, Note_on_c, 0, 48, 80
2, 70079, Note_on_c, 0, 52, 0
2, 70079, Note_on_c, 0, 48, 0
2, 70080, Note_on_c, 0, 36, 80
2, 70319, Note_on_c, 0, 36, 0
2, 70320, Note_on_c, 0, 52, 80
2, 70320, Note_on_c, 0, 48, 80
2, 70559, Note_on_c, 0, 52, 0
2, 70559, Note_on_c, 0, 48, 0
2, 70560, Note_on_c, 0, 37, 80
2, 70799, Note_on_c, 0, 37, 0
2, 70800, Note_on_c, 0, 52, 80
2, 70800, Note_on_c, 0, 49, 80
2, 71039, Note_on_c, 0, 52, 0
2, 71039, Note_on_c, 0, 49, 0
2, 71040, Note_on_c, 0, 37, 80
2, 71279, Note_on_c, 0, 37, 0
2, 71280, Note_on_c, 0, 52, 80
2, 71280, Note_on_c, 0, 49, 80
2, 71519, Note_on_c, 0, 52, 0
2, 71519, Note_on_c, 0, 49, 0
2, 71520, Note_on_c, 0, 37, 80
2, 71759, Note_on_c, 0, 37, 0
2, 71760, Note_on_c, 0, 52, 80
2, 71760, Note_on_c, 0, 49, 80
2, 71999, Note_on_c, 0, 52, 0
2, 71999, Note_on_c, 0, 49, 0
2, 72000, Note_on_c, 0, 37, 80
2, 72239, Note_on_c, 0, 37, 0
2, 72240, Note_on_c, 0, 52, 80
2, 72240, Note_on_c, 0, 49, 80
2, 72479, Note_on_c, 0, 52, 0
2, 72479, Note_on_c, 0, 49, 0
2, 72480, Note_on_c, 0, 38, 80
2, 72719, Note_on_c, 0, 38, 0
2, 72720, Note_on_c, 0, 53, 80
2, 72720, Note_on_c, 0, 50, 80
2, 72959, Note_on_c, 0, 53, 0
2, 72959, Note_on_c, 0, 50, 0
2, 72960, Note_on_c, 0, 38, 80
2, 73199, Note_on_c, 0, 38, 0
2, 73200, Note_on_c, 0, 53, 80
2, 73200, Note_on_c, 0, 50, 80
2, 73439, Note_on_c, 0, 53, 0
2, 73439, Note_on_c, 0, 50, 0
2, 73440, Note_on_c, 0, 38, 80
2, 73679, Note_on_c, 0, 38, 0
2, 73680, Note_on_c, 0, 53, 80
2, 73680, Note_on_c, 0, 50, 80
2, 73919, Note_on_c, 0, 53, 0
2, 73919, Note_on_c, 0, 50, 0
2, 73920, Note_on_c, 0, 36, 80
2, 74159, Note_on_c, 0, 36, 0
2, 74160, Note_on_c, 0, 52, 80
2, 74160, Note_on_c, 0, 48, 80
2, 74399, Note_on_c, 0, 52, 0
2, 74399, Note_on_c, 0, 48, 0
2, 74400, Note_on_c, 0, 34, 80
2, 74639, Note_on_c, 0, 34, 0
2, 74640, Note_on_c, 0, 50, 80
2, 74640, Note_on_c, 0, 46, 80
2, 74879, Note_on_c, 0, 50, 0
2, 74879, Note_on_c, 0, 46, 0
2, 74880, Note_on_c, 0, 34, 80
2, 75119, Note_on_c, 0, 34, 0
2, 75120, Note_on_c, 0, 50, 80
2, 75120, Note_on_c, 0, 46, 80
2, 75359, Note_on_c, 0, 50, 0
2, 75359, Note_on_c, 0, 46, 0
2, 75360, Note_on_c, 0, 34, 80
2, 75599, Note_on_c, 0, 34, 0
2, 75600, Note_on_c, 0, 50, 80
2, 75600, Note_on_c, 0, 46, 80
2, 75839, Note_on_c, 0, 50, 0
2, 75839, Note_on_c, 0, 46, 0
2, 75840, Note_on_c, 0, 34, 80
2, 76079, Note_on_c, 0, 34, 0
2, 76080, Note_on_c, 0, 50, 80
2, 76080, Note_on_c, 0, 46, 80
2, 76319, Note_on_c, 0, 50, 0
2, 76319, Note_on_c, 0, 46, 0
2, 76320, Note_on_c, 0, 36, 80
2, 76559, Note_on_c, 0, 36, 0
2, 76560, Note_on_c, 0, 52, 80
2, 76560, Note_on_c, 0, 48, 80
2, 76799, Note_on_c, 0, 52, 0
2, 76799, Note_on_c, 0, 48, 0
2, 76800, Note_on_c, 0, 36, 80
2, 77039, Note_on_c, 0, 36, 0
2, 77040, Note_on_c, 0, 52, 80
2, 77040, Note_on_c, 0, 48, 80
2, 77279, Note_on_c, 0, 52, 0
2, 77279, Note_on_c, 0, 48, 0
2, 77280, Note_on_c, 0, 36, 80
2, 77519, Note_on_c, 0, 36, 0
2, 77520, Note_on_c, 0, 52, 80
2, 77520, Note_on_c, 0, 48, 80
2, 77759, Note_on_c, 0, 52, 0
2, 77759, Note_on_c, 0, 48, 0
2, 77760, Note_on_c, 0, 36, 80
2, 77999, Note_on_c, 0, 36, 0
2, 78000, Note_on_c, 0, 52, 80
2, 78000, Note_on_c, 0, 48, 80
2, 78239, Note_on_c, 0, 52, 0
2, 78239, Note_on_c, 0, 48, 0
2, 78240, Note_on_c, 0, 37, 80
2, 78479, Note_on_c, 0, 37, 0
2, 78480, Note_on_c, 0, 52, 80
2, 78480, Note_on_c, 0, 49, 80
2, 78719, Note_on_c, 0, 52, 0
2, 78719, Note_on_c, 0, 49, 0
2, 78720, Note_on_c, 0, 37, 80
2, 78959, Note_on_c, 0, 37, 0
2, 78960, Note_on_c, 0, 52, 80
2, 78960, Note_on_c, 0, 49, 80
2, 79199, Note_on_c, 0, 52, 0
2, 79199, Note_on_c, 0, 49, 0
2, 79200, Key_signature, -6, "major"
2, 79200, Note_on_c, 0, 49, 80
2, 79200, Note_on_c, 0, 37, 80
2, 79559, Note_on_c, 0, 49, 0
2, 79559, Note_on_c, 0, 37, 0
2, 79560, Note_on_c, 0, 49, 80
2, 79560, Note_on_c, 0, 37, 80
2, 79919, Note_on_c, 0, 49, 0
2, 79919, Note_on_c, 0, 37, 0
2, 79920, Note_on_c, 0, 49, 80
2, 79920, Note_on_c, 0, 37, 80
2, 80159, Note_on_c, 0, 49, 0
2, 80159, Note_on_c, 0, 37, 0
2, 80160, Note_on_c, 0, 45, 80
2, 80160, Note_on_c, 0, 33, 80
2, 81119, Note_on_c, 0, 45, 0
2, 81119, Note_on_c, 0, 33, 0
2, 81120, Note_on_c, 0, 45, 80
2, 81359, Note_on_c, 0, 45, 0
2, 82080, Note_on_c, 0, 35, 80
2, 82319, Note_on_c, 0, 35, 0
2, 82320, Note_on_c, 0, 51, 80
2, 82559, Note_on_c, 0, 51, 0
2, 82560, Note_on_c, 0, 35, 80
2, 82799, Note_on_c, 0, 35, 0
2, 82800, Note_on_c, 0, 51, 80
2, 83039, Note_on_c, 0, 51, 0
2, 83040, Note_on_c, 0, 35, 80
2, 83279, Note_on_c, 0, 35, 0
2, 83280, Note_on_c, 0, 51, 80
2, 83519, Note_on_c, 0, 51, 0
2, 83520, Note_on_c, 0, 35, 80
2, 83759, Note_on_c, 0, 35, 0
2, 83760, Note_on_c, 0, 51, 80
2, 83999, Note_on_c, 0, 51, 0
2, 84000, Note_on_c, 0, 35, 80
2, 84239, Note_on_c, 0, 35, 0
2, 84240, Note_on_c, 0, 51, 80
2, 84479, Note_on_c, 0, 51, 0
2, 84480, Note_on_c, 0, 35, 80
2, 84719, Note_on_c, 0, 35, 0
2, 84720, Note_on_c, 0, 51, 80
2, 84959, Note_on_c, 0, 51, 0
2, 84960, Note_on_c, 0, 35, 80
2, 85199, Note_on_c, 0, 35, 0
2, 85200, Note_on_c, 0, 51, 80
2, 85439, Note_on_c, 0, 51, 0
2, 85440, Note_on_c, 0, 37, 80
2, 85679, Note_on_c, 0, 37, 0
2, 85680, Note_on_c, 0, 49, 80
2, 85919, Note_on_c, 0, 49, 0
2, 85920, Note_on_c, 0, 39, 80
2, 86159, Note_on_c, 0, 39, 0
2, 86160, Note_on_c, 0, 54, 80
2, 86160, Note_on_c, 0, 51, 80
2, 86399, Note_on_c, 0, 54, 0
2, 86399, Note_on_c, 0, 51, 0
2, 86400, Note_on_c, 0, 39, 80
2, 86639, Note_on_c, 0, 39, 0
2, 86640, Note_on_c, 0, 54, 80
2, 86640, Note_on_c, 0, 51, 80
2, 86879, Note_on_c, 0, 54, 0
2, 86879, Note_on_c, 0, 51, 0
2, 86880, Note_on_c, 0, 39, 80
2, 87119, Note_on_c, 0, 39, 0
2, 87120, Note_on_c, 0, 54, 80
2, 87120, Note_on_c, 0, 51, 80
2, 87359, Note_on_c, 0, 54, 0
2, 87359, Note_on_c, 0, 51, 0
2, 87360, Note_on_c, 0, 39, 80
2, 87599, Note_on_c, 0, 39, 0
2, 87600, Note_on_c, 0, 54, 80
2, 87600, Note_on_c, 0, 51, 80
2, 87839, Note_on_c, 0, 54, 0
2, 87839, Note_on_c, 0, 51, 0
2, 87840, Note_on_c, 0, 39, 80
2, 88079, Note_on_c, 0, 39, 0
2, 88080, Note_on_c, 0, 54, 80
2, 88080, Note_on_c, 0, 51, 80
2, 88319, Note_on_c, 0, 54, 0
2, 88319, Note_on_c, 0, 51, 0
2, 88320, Note_on_c, 0, 39, 80
2, 88559, Note_on_c, 0, 39, 0
2, 88560, Note_on_c, 0, 54, 80
2, 88560, Note_on_c, 0, 51, 80
2, 88799, Note_on_c, 0, 54, 0
2, 88799, Note_on_c, 0, 51, 0
2, 88800, Note_on_c, 0, 39, 80
2, 89039, Note_on_c, 0, 39, 0
2, 89040, Note_on_c, 0, 54, 80
2, 89040, Note_on_c, 0, 51, 80
2, 89279, Note_on_c, 0, 54, 0
2, 89279, Note_on_c, 0, 51, 0
2, 89280, Note_on_c, 0, 39, 80
2, 89519, Note_on_c, 0, 39, 0
2, 89520, Note_on_c, 0, 54, 80
2, 89520, Note_on_c, 0, 51, 80
2, 89759, Note_on_c, 0, 54, 0
2, 89759, Note_on_c, 0, 51, 0
2, 89760, Note_on_c, 0, 36, 80
2, 89999, Note_on_c, 0, 36, 0
2, 90000, Note_on_c, 0, 51, 80
2, 90000, Note_on_c, 0, 48, 80
2, 90239, Note_on_c, 0, 51, 0
2, 90239, Note_on_c, 0, 48, 0
2, 90240, Note_on_c, 0, 36, 80
2, 90479, Note_on_c, 0, 36, 0
2, 90480, Note_on_c, 0, 51, 80
2, 90480, Note_on_c, 0, 48, 80
2, 90719, Note_on_c, 0, 51, 0
2, 90719, Note_on_c, 0, 48, 0
2, 90720, Note_on_c, 0, 36, 80
2, 90959, Note_on_c, 0, 36, 0
2, 90960, Note_on_c, 0, 51, 80
2, 90960, Note_on_c, 0, 48, 80
2, 91199, Note_on_c, 0, 51, 0
2, 91199, Note_on_c, 0, 48, 0
2, 91200, Note_on_c, 0, 36, 80
2, 91439, Note_on_c, 0, 36, 0
2, 91440, Note_on_c, 0, 51, 80
2, 91440, Note_on_c, 0, 48, 80
2, 91679, Note_on_c, 0, 51, 0
2, 91679, Note_on_c, 0, 48, 0
2, 91680, Note_on_c, 0, 36, 80
2, 91919, Note_on_c, 0, 36, 0
2, 91920, Note_on_c, 0, 51, 80
2, 91920, Note_on_c, 0, 48, 80
2, 92159, Note_on_c, 0, 51, 0
2, 92159, Note_on_c, 0, 48, 0
2, 92160, Note_on_c, 0, 36, 80
2, 92399, Note_on_c, 0, 36, 0
2, 92400, Note_on_c, 0, 51, 80
2, 92400, Note_on_c, 0, 48, 80
2, 92639, Note_on_c, 0, 51, 0
2, 92639, Note_on_c, 0, 48, 0
2, 92640, Note_on_c, 0, 36, 80
2, 92879, Note_on_c, 0, 36, 0
2, 92880, Note_on_c, 0, 51, 80
2, 92880, Note_on_c, 0, 48, 80
2, 93119, Note_on_c, 0, 51, 0
2, 93119, Note_on_c, 0, 48, 0
2, 93120, Note_on_c, 0, 36, 80
2, 93359, Note_on_c, 0, 36, 0
2, 93360, Note_on_c, 0, 51, 80
2, 93360, Note_on_c, 0, 48, 80
2, 93599, Note_on_c, 0, 51, 0
2, 93599, Note_on_c, 0, 48, 0
2, 93600, Note_on_c, 0, 35, 80
2, 93839, Note_on_c, 0, 35, 0
2, 93840, Note_on_c, 0, 51, 80
2, 94079, Note_on_c, 0, 51, 0
2, 94080, Note_on_c, 0, 35, 80
2, 94319, Note_on_c, 0, 35, 0
2, 94320, Note_on_c, 0, 51, 80
2, 94559, Note_on_c, 0, 51, 0
2, 94560, Note_on_c, 0, 37, 80
2, 94799, Note_on_c, 0, 37, 0
2, 94800, Note_on_c, 0, 49, 80
2, 95039, Note_on_c, 0, 49, 0
2, 95040, Note_on_c, 0, 37, 80
2, 95279, Note_on_c, 0, 37, 0
2, 95280, Note_on_c, 0, 49, 80
2, 95519, Note_on_c, 0, 49, 0
2, 95520, Note_on_c, 0, 39, 80
2, 95759, Note_on_c, 0, 39, 0
2, 95760, Note_on_c, 0, 54, 80
2, 95760, Note_on_c, 0, 51, 80
2, 95999, Note_on_c, 0, 54, 0
2, 95999, Note_on_c, 0, 51, 0
2, 96000, Note_on_c, 0, 39, 80
2, 96239, Note_on_c, 0, 39, 0
2, 96240, Note_on_c, 0, 54, 80
2, 96240, Note_on_c, 0, 51, 80
2, 96479, Note_on_c, 0, 54, 0
2, 96479, Note_on_c, 0, 51, 0
2, 96480, Note_on_c, 0, 39, 80
2, 96719, Note_on_c, 0, 39, 0
2, 96720, Note_on_c, 0, 54, 80
2, 96720, Note_on_c, 0, 51, 80
2, 96959, Note_on_c, 0, 54, 0
2, 96959, Note_on_c, 0, 51, 0
2, 96960, Note_on_c, 0, 39, 80
2, 97199, Note_on_c, 0, 39, 0
2, 97200, Note_on_c, 0, 54, 80
2, 97200, Note_on_c, 0, 51, 80
2, 97439, Note_on_c, 0, 54, 0
2, 97439, Note_on_c, 0, 51, 0
2, 97440, Note_on_c, 0, 35, 80
2, 97679, Note_on_c, 0, 35, 0
2, 97680, Note_on_c, 0, 51, 80
2, 97919, Note_on_c, 0, 51, 0
2, 97920, Note_on_c, 0, 35, 80
2, 98159, Note_on_c, 0, 35, 0
2, 98160, Note_on_c, 0, 51, 80
2, 98399, Note_on_c, 0, 51, 0
2, 98400, Note_on_c, 0, 35, 80
2, 98639, Note_on_c, 0, 35, 0
2, 98640, Note_on_c, 0, 51, 80
2, 98879, Note_on_c, 0, 51, 0
2, 98880, Note_on_c, 0, 35, 80
2, 99119, Note_on_c, 0, 35, 0
2, 99120, Note_on_c, 0, 51, 80
2, 99359, Note_on_c, 0, 51, 0
2, 99360, Note_on_c, 0, 35, 80
2, 99599, Note_on_c, 0, 35, 0
2, 99600, Note_on_c, 0, 51, 80
2, 99839, Note_on_c, 0, 51, 0
2, 99840, Note_on_c, 0, 35, 80
2, 100079, Note_on_c, 0, 35, 0
2, 100080, Note_on_c, 0, 51, 80
2, 100319, Note_on_c, 0, 51, 0
2, 100320, Note_on_c, 0, 35, 80
2, 100559, Note_on_c, 0, 35, 0
2, 100560, Note_on_c, 0, 51, 80
2, 100799, Note_on_c, 0, 51, 0
2, 100800, Note_on_c, 0, 37, 80
2, 101039, Note_on_c, 0, 37, 0
2, 101040, Note_on_c, 0, 49, 80
2, 101279, Note_on_c, 0, 49, 0
2, 101280, Note_on_c, 0, 39, 80
2, 101519, Note_on_c, 0, 39, 0
2, 101520, Note_on_c, 0, 54, 80
2, 101520, Note_on_c, 0, 51, 80
2, 101759, Note_on_c, 0, 54, 0
2, 101759, Note_on_c, 0, 51, 0
2, 101760, Note_on_c, 0, 39, 80
2, 101999, Note_on_c, 0, 39, 0
2, 102000, Note_on_c, 0, 54, 80
2, 102000, Note_on_c, 0, 51, 80
2, 102239, Note_on_c, 0, 54, 0
2, 102239, Note_on_c, 0, 51, 0
2, 102240, Note_on_c, 0, 39, 80
2, 102479, Note_on_c, 0, 39, 0
2, 102480, Note_on_c, 0, 54, 80
2, 102480, Note_on_c, 0, 51, 80
2, 102719, Note_on_c, 0, 54, 0
2, 102719, Note_on_c, 0, 51, 0
2, 102720, Note_on_c, 0, 39, 80
2, 102959, Note_on_c, 0, 39, 0
2, 102960, Note_on_c, 0, 54, 80
2, 102960, Note_on_c, 0, 51, 80
2, 103199, Note_on_c, 0, 54, 0
2, 103199, Note_on_c, 0, 51, 0
2, 103200, Note_on_c, 0, 39, 80
2, 103439, Note_on_c, 0, 39, 0
2, 103440, Note_on_c, 0, 54, 80
2, 103440, Note_on_c, 0, 51, 80
2, 103679, Note_on_c, 0, 54, 0
2, 103679, Note_on_c, 0, 51, 0
2, 103680, Note_on_c, 0, 39, 80
2, 103919, Note_on_c, 0, 39, 0
2, 103920, Note_on_c, 0, 54, 80
2, 103920, Note_on_c, 0, 51, 80
2, 104159, Note_on_c, 0, 54, 0
2, 104159, Note_on_c, 0, 51, 0
2, 104160, Note_on_c, 0, 39, 80
2, 104399, Note_on_c, 0, 39, 0
2, 104400, Note_on_c, 0, 54, 80
2, 104400, Note_on_c, 0, 51, 80
2, 104639, Note_on_c, 0, 54, 0
2, 104639, Note_on_c, 0, 51, 0
2, 104640, Note_on_c, 0, 39, 80
2, 104879, Note_on_c, 0, 39, 0
2, 104880, Note_on_c, 0, 54, 80
2, 104880, Note_on_c, 0, 51, 80
2, 105119, Note_on_c, 0, 54, 0
2, 105119, Note_on_c, 0, 51, 0
2, 105120, Note_on_c, 0, 36, 80
2, 105359, Note_on_c, 0, 36, 0
2, 105360, Note_on_c, 0, 51, 80
2, 105360, Note_on_c, 0, 48, 80
2, 105599, Note_on_c, 0, 51, 0
2, 105599, Note_on_c, 0, 48, 0
2, 105600, Note_on_c, 0, 36, 80
2, 105839, Note_on_c, 0, 36, 0
2, 105840, Note_on_c, 0, 51, 80
2, 105840, Note_on_c, 0, 48, 80
2, 106079, Note_on_c, 0, 51, 0
2, 106079, Note_on_c, 0, 48, 0
2, 106080, Note_on_c, 0, 36, 80
2, 106319, Note_on_c, 0, 36, 0
2, 106320, Note_on_c, 0, 51, 80
2, 106320, Note_on_c, 0, 48, 80
2, 106559, Note_on_c, 0, 51, 0
2, 106559, Note_on_c, 0, 48, 0
2, 106560, Note_on_c, 0, 36, 80
2, 106799, Note_on_c, 0, 36, 0
2, 106800, Note_on_c, 0, 51, 80
2, 106800, Note_on_c, 0, 48, 80
2, 107039, Note_on_c, 0, 51, 0
2, 107039, Note_on_c, 0, 48, 0
2, 107040, Note_on_c, 0, 36, 80
2, 107279, Note_on_c, 0, 36, 0
2, 107280, Note_on_c, 0, 51, 80
2, 107280, Note_on_c, 0, 48, 80
2, 107519, Note_on_c, 0, 51, 0
2, 107519, Note_on_c, 0, 48, 0
2, 107520, Note_on_c, 0, 36, 80
2, 107759, Note_on_c, 0, 36, 0
2, 107760, Note_on_c, 0, 51, 80
2, 107760, Note_on_c, 0, 48, 80
2, 107999, Note_on_c, 0, 51, 0
2, 107999, Note_on_c, 0, 48, 0
2, 108000, Note_on_c, 0, 36, 80
2, 108239, Note_on_c, 0, 36, 0
2, 108240, Note_on_c, 0, 51, 80
2, 108240, Note_on_c, 0, 48, 80
2, 108479, Note_on_c, 0, 51, 0
2, 108479, Note_on_c, 0, 48, 0
2, 108480, Note_on_c, 0, 36, 80
2, 108719, Note_on_c, 0, 36, 0
2, 108720, Note_on_c, 0, 51, 80
2, 108720, Note_on_c, 0, 48, 80
2, 108959, Note_on_c, 0, 51, 0
2, 108959, Note_on_c, 0, 48, 0
2, 108960, Note_on_c, 0, 47, 80
2, 108960, Note_on_c, 0, 35, 80
2, 109439, Note_on_c, 0, 47, 0
2, 109439, Note_on_c, 0, 35, 0
2, 109440, Note_on_c, 0, 35, 80
2, 109679, Note_on_c, 0, 35, 0
2, 109680, Note_on_c, 0, 49, 80
2, 109680, Note_on_c, 0, 37, 80
2, 109920, Key_signature, -1, "major"
2, 110159, Note_on_c, 0, 49, 0
2, 110159, Note_on_c, 0, 37, 0
2, 110160, Note_on_c, 0, 37, 80
2, 110399, Note_on_c, 0, 37, 0
2, 110400, Note_on_c, 0, 49, 80
2, 110639, Note_on_c, 0, 49, 0
2, 110640, Note_on_c, 0, 51, 80
2, 110640, Note_on_c, 0, 39, 80
2, 112319, Note_on_c, 0, 51, 0
2, 112319, Note_on_c, 0, 39, 0
2, 112320, Note_on_c, 0, 51, 80
2, 112320, Note_on_c, 0, 39, 80
2, 112799, Note_on_c, 0, 51, 0
2, 112799, Note_on_c, 0, 39, 0
2, 112800, Note_on_c, 0, 34, 80
2, 113039, Note_on_c, 0, 34, 0
2, 113040, Note_on_c, 0, 50, 80
2, 113040, Note_on_c, 0, 46, 80
2, 113279, Note_on_c, 0, 50, 0
2, 113279, Note_on_c, 0, 46, 0
2, 113280, Note_on_c, 0, 34, 80
2, 113519, Note_on_c, 0, 34, 0
2, 113520, Note_on_c, 0, 50, 80
2, 113520, Note_on_c, 0, 46, 80
2, 113759, Note_on_c, 0, 50, 0
2, 113759, Note_on_c, 0, 46, 0
2, 113760, Note_on_c, 0, 36, 80
2, 113999, Note_on_c, 0, 36, 0
2, 114000, Note_on_c, 0, 52, 80
2, 114000, Note_on_c, 0, 48, 80
2, 114239, Note_on_c, 0, 52, 0
2, 114239, Note_on_c, 0, 48, 0
2, 114240, Note_on_c, 0, 36, 80
2, 114479, Note_on_c, 0, 36, 0
2, 114480, Note_on_c, 0, 52, 80
2, 114480, Note_on_c, 0, 48, 80
2, 114719, Note_on_c, 0, 52, 0
2, 114719, Note_on_c, 0, 48, 0
2, 114720, Note_on_c, 0, 33, 80
2, 114959, Note_on_c, 0, 33, 0
2, 114960, Note_on_c, 0, 48, 80
2, 114960, Note_on_c, 0, 45, 80
2, 115199, Note_on_c, 0, 48, 0
2, 115199, Note_on_c, 0, 45, 0
2, 115200, Note_on_c, 0, 33, 80
2, 115439, Note_on_c, 0, 33, 0
2, 115440, Note_on_c, 0, 48, 80
2, 115440, Note_on_c, 0, 45, 80
2, 115679, Note_on_c, 0, 48, 0
2, 115679, Note_on_c, 0, 45, 0
2, 115680, Note_on_c, 0, 38, 80
2, 115919, Note_on_c, 0, 38, 0
2, 115920, Note_on_c, 0, 53, 80
2, 115920, Note_on_c, 0, 50, 80
2, 116159, Note_on_c, 0, 53, 0
2, 116159, Note_on_c, 0, 50, 0
2, 116160, Note_on_c, 0, 36, 80
2, 116399, Note_on_c, 0, 36, 0
2, 116400, Note_on_c, 0, 52, 80
2, 116400, Note_on_c, 0, 48, 80
2, 116639, Note_on_c, 0, 52, 0
2, 116639, Note_on_c, 0, 48, 0
2, 116640, Note_on_c, 0, 34, 80
2, 116879, Note_on_c, 0, 34, 0
2, 116880, Note_on_c, 0, 50, 80
2, 116880, Note_on_c, 0, 46, 80
2, 117119, Note_on_c, 0, 50, 0
2, 117119, Note_on_c, 0, 46, 0
2, 117120, Note_on_c, 0, 34, 80
2, 117359, Note_on_c, 0, 34, 0
2, 117360, Note_on_c, 0, 50, 80
2, 117360, Note_on_c, 0, 46, 80
2, 117599, Note_on_c, 0, 50, 0
2, 117599, Note_on_c, 0, 46, 0
2, 117600, Note_on_c, 0, 36, 80
2, 117839, Note_on_c, 0, 36, 0
2, 117840, Note_on_c, 0, 52, 80
2, 117840, Note_on_c, 0, 48, 80
2, 118079, Note_on_c, 0, 52, 0
2, 118079, Note_on_c, 0, 48, 0
2, 118080, Note_on_c, 0, 36, 80
2, 118319, Note_on_c, 0, 36, 0
2, 118320, Note_on_c, 0, 52, 80
2, 118320, Note_on_c, 0, 48, 80
2, 118559, Note_on_c, 0, 52, 0
2, 118559, Note_on_c, 0, 48, 0
2, 118560, Note_on_c, 0, 50, 80
2, 118560, Note_on_c, 0, 38, 80
2, 118919, Note_on_c, 0, 50, 0
2, 118919, Note_on_c, 0, 38, 0
2, 118920, Note_on_c, 0, 50, 80
2, 118920, Note_on_c, 0, 38, 80
2, 119279, Note_on_c, 0, 50, 0
2, 119279, Note_on_c, 0, 38, 0
2, 119280, Note_on_c, 0, 53, 80
2, 119280, Note_on_c, 0, 41, 80
2, 119519, Note_on_c, 0, 53, 0
2, 119519, Note_on_c, 0, 41, 0
2, 120000, Note_on_c, 0, 48, 80
2, 120000, Note_on_c, 0, 36, 80
2, 120479, Note_on_c, 0, 48, 0
2, 120479, Note_on_c, 0, 36, 0
2, 120480, Note_on_c, 0, 34, 80
2, 120719, Note_on_c, 0, 34, 0
2, 120720, Note_on_c, 0, 50, 80
2, 120720, Note_on_c, 0, 46, 80
2, 120959, Note_on_c, 0, 50, 0
2, 120959, Note_on_c, 0, 46, 0
2, 120960, Note_on_c, 0, 34, 80
2, 121199, Note_on_c, 0, 34, 0
2, 121200, Note_on_c, 0, 50, 80
2, 121200, Note_on_c, 0, 46, 80
2, 121439, Note_on_c, 0, 50, 0
2, 121439, Note_on_c, 0, 46, 0
2, 121440, Note_on_c, 0, 36, 80
2, 121679, Note_on_c, 0, 36, 0
2, 121680, Note_on_c, 0, 52, 80
2, 121680, Note_on_c, 0, 48, 80
2, 121919, Note_on_c, 0, 52, 0
2, 121919, Note_on_c, 0, 48, 0
2, 121920, Note_on_c, 0, 36, 80
2, 122159, Note_on_c, 0, 36, 0
2, 122160, Note_on_c, 0, 52, 80
2, 122160, Note_on_c, 0, 48, 80
2, 122399, Note_on_c, 0, 52, 0
2, 122399, Note_on_c, 0, 48, 0
2, 122400, Note_on_c, 0, 38, 80
2, 122639, Note_on_c, 0, 38, 0
2, 122640, Note_on_c, 0, 53, 80
2, 122640, Note_on_c, 0, 50, 80
2, 122879, Note_on_c, 0, 53, 0
2, 122879, Note_on_c, 0, 50, 0
2, 122880, Note_on_c, 0, 38, 80
2, 123119, Note_on_c, 0, 38, 0
2, 123120, Note_on_c, 0, 53, 80
2, 123120, Note_on_c, 0, 50, 80
2, 123359, Note_on_c, 0, 53, 0
2, 123359, Note_on_c, 0, 50, 0
2, 123360, Note_on_c, 0, 38, 80
2, 123599, Note_on_c, 0, 38, 0
2, 123600, Note_on_c, 0, 53, 80
2, 123600, Note_on_c, 0, 50, 80
2, 123839, Note_on_c, 0, 53, 0
2, 123839, Note_on_c, 0, 50, 0
2, 123840, Note_on_c, 0, 36, 80
2, 124079, Note_on_c, 0, 36, 0
2, 124080, Note_on_c, 0, 52, 80
2, 124080, Note_on_c, 0, 48, 80
2, 124319, Note_on_c, 0, 52, 0
2, 124319, Note_on_c, 0, 48, 0
2, 124320, Note_on_c, 0, 34, 80
2, 124559, Note_on_c, 0, 34, 0
2, 124560, Note_on_c, 0, 50, 80
2, 124560, Note_on_c, 0, 46, 80
2, 124799, Note_on_c, 0, 50, 0
2, 124799, Note_on_c, 0, 46, 0
2, 124800, Note_on_c, 0, 34, 80
2, 125039, Note_on_c, 0, 34, 0
2, 125040, Note_on_c, 0, 50, 80
2, 125040, Note_on_c, 0, 46, 80
2, 125279, Note_on_c, 0, 50, 0
2, 125279, Note_on_c, 0, 46, 0
2, 125280, Note_on_c, 0, 36, 80
2, 125519, Note_on_c, 0, 36, 0
2, 125520, Note_on_c, 0, 52, 80
2, 125520, Note_on_c, 0, 48, 80
2, 125759, Note_on_c, 0, 52, 0
2, 125759, Note_on_c, 0, 48, 0
2, 125760, Note_on_c, 0, 36, 80
2, 125999, Note_on_c, 0, 36, 0
2, 126000, Note_on_c, 0, 52, 80
2, 126000, Note_on_c, 0, 48, 80
2, 126239, Note_on_c, 0, 52, 0
2, 126239, Note_on_c, 0, 48, 0
2, 126240, Note_on_c, 0, 50, 80
2, 126240, Note_on_c, 0, 38, 80
2, 126479, Note_on_c, 0, 50, 0
2, 126479, Note_on_c, 0, 38, 0
2, 126600, Note_on_c, 0, 50, 80
2, 126600, Note_on_c, 0, 38, 80
2, 126839, Note_on_c, 0, 50, 0
2, 126839, Note_on_c, 0, 38, 0
2, 126960, Note_on_c, 0, 62, 80
2, 127440, Note_on_c, 0, 69, 80
2, 127679, Note_on_c, 0, 69, 0
2, 127680, Note_on_c, 0, 74, 80
2, 127919, Note_on_c, 0, 74, 0
2, 127920, Note_on_c, 0, 76, 80
2, 128159, Note_on_c, 0, 76, 0
2, 128159, Note_on_c, 0, 62, 0
2, 128160, Note_on_c, 0, 69, 80
2, 128160, Note_on_c, 0, 62, 80
2, 129119, Note_on_c, 0, 69, 0
2, 129119, Note_on_c, 0, 62, 0
2, 129120, Note_on_c, 0, 67, 80
2, 129120, Note_on_c, 0, 60, 80
2, 130079, Note_on_c, 0, 67, 0
2, 130079, Note_on_c, 0, 60, 0
2, 130080, Note_on_c, 0, 58, 80
2, 130319, Note_on_c, 0, 58, 0
2, 130320, Note_on_c, 0, 65, 80
2, 130559, Note_on_c, 0, 65, 0
2, 130560, Note_on_c, 0, 72, 80
2, 130799, Note_on_c, 0, 72, 0
2, 130800, Note_on_c, 0, 74, 80
2, 131999, Note_on_c, 0, 74, 0
2, 132000, Note_on_c, 0, 69, 80
2, 132000, Note_on_c, 0, 62, 80
2, 132959, Note_on_c, 0, 69, 0
2, 132959, Note_on_c, 0, 62, 0
2, 132960, Note_on_c, 0, 67, 80
2, 132960, Note_on_c, 0, 60, 80
2, 133919, Note_on_c, 0, 67, 0
2, 133919, Note_on_c, 0, 60, 0
2, 133920, Note_on_c, 0, 59, 80
2, 134159, Note_on_c, 0, 59, 0
2, 134160, Note_on_c, 0, 65, 80
2, 134399, Note_on_c, 0, 65, 0
2, 134400, Note_on_c, 0, 69, 80
2, 134639, Note_on_c, 0, 69, 0
2, 134640, Note_on_c, 0, 74, 80
2, 135839, Note_on_c, 0, 74, 0
2, 135840, Note_on_c, 0, 55, 80
2, 136079, Note_on_c, 0, 55, 0
2, 136080, Note_on_c, 0, 58, 80
2, 136319, Note_on_c, 0, 58, 0
2, 136320, Note_on_c, 0, 62, 80
2, 136559, Note_on_c, 0, 62, 0
2, 136560, Note_on_c, 0, 67, 80
2, 136799, Note_on_c, 0, 67, 0
2, 136800, Note_on_c, 0, 70, 80
2, 137759, Note_on_c, 0, 70, 0
2, 137760, Note_on_c, 0, 53, 80
2, 137999, Note_on_c, 0, 53, 0
2, 138000, Note_on_c, 0, 60, 80
2, 138239, Note_on_c, 0, 60, 0
2, 138240, Note_on_c, 0, 65, 80
2, 138479, Note_on_c, 0, 65, 0
2, 138480, Note_on_c, 0, 69, 80
2, 138719, Note_on_c, 0, 69, 0
2, 138720, Note_on_c, 0, 72, 80
2, 139679, Note_on_c, 0, 72, 0
2, 139680, Note_on_c, 0, 62, 80
2, 139680, Note_on_c, 0, 58, 80
2, 139680, Note_on_c, 0, 55, 80
2, 140639, Note_on_c, 0, 62, 0
2, 140639, Note_on_c, 0, 58, 0
2, 140639, Note_on_c, 0, 55, 0
2, 140640, Note_on_c, 0, 64, 80
2, 140640, Note_on_c, 0, 61, 80
2, 140640, Note_on_c, 0, 57, 80
2, 141599, Note_on_c, 0, 64, 0
2, 141599, Note_on_c, 0, 61, 0
2, 141599, Note_on_c, 0, 57, 0
2, 141600, Note_on_c, 0, 62, 80
2, 141600, Note_on_c, 0, 58, 80
2, 142079, Note_on_c, 0, 62, 0
2, 142079, Note_on_c, 0, 58, 0
2, 143520, Note_on_c, 0, 38, 80
2, 143759, Note_on_c, 0, 38, 0
2, 143760, Note_on_c, 0, 53, 80
2, 143760, Note_on_c, 0, 50, 80
2, 143999, Note_on_c, 0, 53, 0
2, 143999, Note_on_c, 0, 50, 0
2, 144000, Note_on_c, 0, 38, 80
2, 144239, Note_on_c, 0, 38, 0
2, 144240, Note_on_c, 0, 53, 80
2, 144240, Note_on_c, 0, 50, 80
2, 144479, Note_on_c, 0, 53, 0
2, 144479, Note_on_c, 0, 50, 0
2, 144480, Note_on_c, 0, 36, 80
2, 144719, Note_on_c, 0, 36, 0
2, 144720, Note_on_c, 0, 52, 80
2, 144720, Note_on_c, 0, 48, 80
2, 144959, Note_on_c, 0, 52, 0
2, 144959, Note_on_c, 0, 48, 0
2, 144960, Note_on_c, 0, 36, 80
2, 145199, Note_on_c, 0, 36, 0
2, 145200, Note_on_c, 0, 52, 80
2, 145200, Note_on_c, 0, 48, 80
2, 145439, Note_on_c, 0, 52, 0
2, 145439, Note_on_c, 0, 48, 0
2, 145440, Note_on_c, 0, 34, 80
2, 145679, Note_on_c, 0, 34, 0
2, 145680, Note_on_c, 0, 50, 80
2, 145680, Note_on_c, 0, 46, 80
2, 145919, Note_on_c, 0, 50, 0
2, 145919, Note_on_c, 0, 46, 0
2, 145920, Note_on_c, 0, 34, 80
2, 146159, Note_on_c, 0, 34, 0
2, 146160, Note_on_c, 0, 50, 80
2, 146160, Note_on_c, 0, 46, 80
2, 146399, Note_on_c, 0, 50, 0
2, 146399, Note_on_c, 0, 46, 0
2, 146400, Note_on_c, 0, 34, 80
2, 146639, Note_on_c, 0, 34, 0
2, 146640, Note_on_c, 0, 50, 80
2, 146640, Note_on_c, 0, 46, 80
2, 146879, Note_on_c, 0, 50, 0
2, 146879, Note_on_c, 0, 46, 0
2, 146880, Note_on_c, 0, 36, 80
2, 147119, Note_on_c, 0, 36, 0
2, 147120, Note_on_c, 0, 52, 80
2, 147120, Note_on_c, 0, 48, 80
2, 147359, Note_on_c, 0, 52, 0
2, 147359, Note_on_c, 0, 48, 0
2, 147360, Note_on_c, 0, 38, 80
2, 147599, Note_on_c, 0, 38, 0
2, 147600, Note_on_c, 0, 53, 80
2, 147600, Note_on_c, 0, 50, 80
2, 147839, Note_on_c, 0, 53, 0
2, 147839, Note_on_c, 0, 50, 0
2, 147840, Note_on_c, 0, 38, 80
2, 148079, Note_on_c, 0, 38, 0
2, 148080, Note_on_c, 0, 53, 80
2, 148080, Note_on_c, 0, 50, 80
2, 148319, Note_on_c, 0, 53, 0
2, 148319, Note_on_c, 0, 50, 0
2, 148320, Note_on_c, 0, 36, 80
2, 148559, Note_on_c, 0, 36, 0
2, 148560, Note_on_c, 0, 52, 80
2, 148560, Note_on_c, 0, 48, 80
2, 148799, Note_on_c, 0, 52, 0
2, 148799, Note_on_c, 0, 48, 0
2, 148800, Note_on_c, 0, 36, 80
2, 149039, Note_on_c, 0, 36, 0
2, 149040, Note_on_c, 0, 52, 80
2, 149040, Note_on_c, 0, 48, 80
2, 149279, Note_on_c, 0, 52, 0
2, 149279, Note_on_c, 0, 48, 0
2, 149280, Note_on_c, 0, 35, 80
2, 149519, Note_on_c, 0, 35, 0
2, 149520, Note_on_c, 0, 50, 80
2, 149520, Note_on_c, 0, 47, 80
2, 149759, Note_on_c, 0, 50, 0
2, 149759, Note_on_c, 0, 47, 0
2, 149760, Note_on_c, 0, 35, 80
2, 149999, Note_on_c, 0, 35, 0
2, 150000, Note_on_c, 0, 50, 80
2, 150000, Note_on_c, 0, 47, 80
2, 150239, Note_on_c, 0, 50, 0
2, 150239, Note_on_c, 0, 47, 0
2, 150240, Note_on_c, 0, 35, 80
2, 150479, Note_on_c, 0, 35, 0
2, 150480, Note_on_c, 0, 50, 80
2, 150480, Note_on_c, 0, 47, 80
2, 150719, Note_on_c, 0, 50, 0
2, 150719, Note_on_c, 0, 47, 0
2, 150720, Note_on_c, 0, 35, 80
2, 150959, Note_on_c, 0, 35, 0
2, 150960, Note_on_c, 0, 50, 80
2, 150960, Note_on_c, 0, 47, 80
2, 151199, Note_on_c, 0, 50, 0
2, 151199, Note_on_c, 0, 47, 0
2, 151200, Note_on_c, 0, 31, 80
2, 151439, Note_on_c, 0, 31, 0
2, 151440, Note_on_c, 0, 46, 80
2, 151679, Note_on_c, 0, 46, 0
2, 151680, Note_on_c, 0, 31, 80
2, 151919, Note_on_c, 0, 31, 0
2, 151920, Note_on_c, 0, 46, 80
2, 152159, Note_on_c, 0, 46, 0
2, 152160, Note_on_c, 0, 31, 80
2, 152399, Note_on_c, 0, 31, 0
2, 152400, Note_on_c, 0, 46, 80
2, 152639, Note_on_c, 0, 46, 0
2, 152640, Note_on_c, 0, 31, 80
2, 152879, Note_on_c, 0, 31, 0
2, 152880, Note_on_c, 0, 46, 80
2, 153119, Note_on_c, 0, 46, 0
2, 153120, Note_on_c, 0, 29, 80
2, 153359, Note_on_c, 0, 29, 0
2, 153360, Note_on_c, 0, 45, 80
2, 153360, Note_on_c, 0, 41, 80
2, 153599, Note_on_c, 0, 45, 0
2, 153599, Note_on_c, 0, 41, 0
2, 153600, Note_on_c, 0, 29, 80
2, 153839, Note_on_c, 0, 29, 0
2, 153840, Note_on_c, 0, 45, 80
2, 153840, Note_on_c, 0, 41, 80
2, 154079, Note_on_c, 0, 45, 0
2, 154079, Note_on_c, 0, 41, 0
2, 154080, Note_on_c, 0, 29, 80
2, 154319, Note_on_c, 0, 29, 0
2, 154320, Note_on_c, 0, 45, 80
2, 154320, Note_on_c, 0, 41, 80
2, 154559, Note_on_c, 0, 45, 0
2, 154559, Note_on_c, 0, 41, 0
2, 154560, Note_on_c, 0, 29, 80
2, 154799, Note_on_c, 0, 29, 0
2, 154800, Note_on_c, 0, 45, 80
2, 154800, Note_on_c, 0, 41, 80
2, 155039, Note_on_c, 0, 45, 0
2, 155039, Note_on_c, 0, 41, 0
2, 155040, Note_on_c, 0, 31, 80
2, 155279, Note_on_c, 0, 31, 0
2, 155280, Note_on_c, 0, 46, 80
2, 155519, Note_on_c, 0, 46, 0
2, 155520, Note_on_c, 0, 31, 80
2, 155759, Note_on_c, 0, 31, 0
2, 155760, Note_on_c, 0, 46, 80
2, 155999, Note_on_c, 0, 46, 0
2, 156000, Note_on_c, 0, 33, 80
2, 156239, Note_on_c, 0, 33, 0
2, 156240, Note_on_c, 0, 49, 80
2, 156479, Note_on_c, 0, 49, 0
2, 156480, Note_on_c, 0, 33, 80
2, 156719, Note_on_c, 0, 33, 0
2, 156720, Note_on_c, 0, 49, 80
2, 156959, Note_on_c, 0, 49, 0
2, 156960, Note_on_c, 0, 34, 80
2, 157199, Note_on_c, 0, 34, 0
2, 157200, Note_on_c, 0, 50, 80
2, 157200, Note_on_c, 0, 46, 80
2, 157439, Note_on_c, 0, 50, 0
2, 157439, Note_on_c, 0, 46, 0
2, 157440, Note_on_c, 0, 34, 80
2, 157679, Note_on_c, 0, 34, 0
2, 157680, Note_on_c, 0, 50, 80
2, 157680, Note_on_c, 0, 46, 80
2, 157919, Note_on_c, 0, 50, 0
2, 157919, Note_on_c, 0, 46, 0
2, 157920, Note_on_c, 0, 36, 80
2, 158159, Note_on_c, 0, 36, 0
2, 158160, Note_on_c, 0, 52, 80
2, 158160, Note_on_c, 0, 48, 80
2, 158399, Note_on_c, 0, 52, 0
2, 158399, Note_on_c, 0, 48, 0
2, 158400, Note_on_c, 0, 36, 80
2, 158639, Note_on_c, 0, 36, 0
2, 158640, Note_on_c, 0, 34, 80
2, 158880, Note_on_c, 0, 46, 80
2, 159599, Note_on_c, 0, 46, 0
2, 159599, Note_on_c, 0, 34, 0
2, 159600, Note_on_c, 0, 53, 80
2, 159840, Note_on_c, 0, 62, 80
2, 159840, Note_on_c, 0, 58, 80
2, 160559, Note_on_c, 0, 62, 0
2, 160559, Note_on_c, 0, 58, 0
2, 160559, Note_on_c, 0, 53, 0
2, 160560, Note_on_c, 0, 36, 80
2, 160800, Note_on_c, 0, 48, 80
2, 161519, Note_on_c, 0, 48, 0
2, 161519, Note_on_c, 0, 36, 0
2, 161520, Note_on_c, 0, 55, 80
2, 161760, Note_on_c, 0, 64, 80
2, 161760, Note_on_c, 0, 60, 80
2, 162479, Note_on_c, 0, 64, 0
2, 162479, Note_on_c, 0, 60, 0
2, 162479, Note_on_c, 0, 55, 0
2, 162480, Note_on_c, 0, 37, 80
2, 162720, Note_on_c, 0, 49, 80
2, 163439, Note_on_c, 0, 49, 0
2, 163439, Note_on_c, 0, 37, 0
2, 163440, Note_on_c, 0, 49, 80
2, 163680, Note_on_c, 0, 57, 80
2, 163680, Note_on_c, 0, 55, 80
2, 163680, Note_on_c, 0, 52, 80
2, 164639, Note_on_c, 0, 57, 0
2, 164639, Note_on_c, 0, 55, 0
2, 164639, Note_on_c, 0, 52, 0
2, 164639, Note_on_c, 0, 49, 0
2, 164640, Note_on_c, 0, 50, 80
2, 164640, Note_on_c, 0, 45, 80
2, 164640, Note_on_c, 0, 38, 80
2, 166079, Note_on_c, 0, 50, 0
2, 166079, Note_on_c, 0, 45, 0
2, 166079, Note_on_c, 0, 38, 0
2, 166080, Note_on_c, 0, 48, 80
2, 166080, Note_on_c, 0, 36, 80
2, 166559, Note_on_c, 0, 48, 0
2, 166559, Note_on_c, 0, 36, 0
2, 166560, Note_on_c, 0, 34, 80
2, 166799, Note_on_c, 0, 34, 0
2, 166800, Note_on_c, 0, 50, 80
2, 166800, Note_on_c, 0, 46, 80
2, 167039, Note_on_c, 0, 50, 0
2, 167039, Note_on_c, 0, 46, 0
2, 167040, Note_on_c, 0, 34, 80
2, 167279, Note_on_c, 0, 34, 0
2, 167280, Note_on_c, 0, 50, 80
2, 167280, Note_on_c, 0, 46, 80
2, 167519, Note_on_c, 0, 50, 0
2, 167519, Note_on_c, 0, 46, 0
2, 167520, Note_on_c, 0, 34, 80
2, 167759, Note_on_c, 0, 34, 0
2, 167760, Note_on_c, 0, 50, 80
2, 167760, Note_on_c, 0, 46, 80
2, 167999, Note_on_c, 0, 50, 0
2, 167999, Note_on_c, 0, 46, 0
2, 168000, Note_on_c, 0, 34, 80
2, 168239, Note_on_c, 0, 34, 0
2, 168240, Note_on_c, 0, 50, 80
2, 168240, Note_on_c, 0, 46, 80
2, 168479, Note_on_c, 0, 50, 0
2, 168479, Note_on_c, 0, 46, 0
2, 168480, Note_on_c, 0, 36, 80
2, 168719, Note_on_c, 0, 36, 0
2, 168720, Note_on_c, 0, 52, 80
2, 168720, Note_on_c, 0, 48, 80
2, 168959, Note_on_c, 0, 52, 0
2, 168959, Note_on_c, 0, 48, 0
2, 168960, Note_on_c, 0, 36, 80
2, 169199, Note_on_c, 0, 36, 0
2, 169200, Note_on_c, 0, 52, 80
2, 169200, Note_on_c, 0, 48, 80
2, 169439, Note_on_c, 0, 52, 0
2, 169439, Note_on_c, 0, 48, 0
2, 169440, Note_on_c, 0, 36, 80
2, 169679, Note_on_c, 0, 36, 0
2, 169680, Note_on_c, 0, 52, 80
2, 169680, Note_on_c, 0, 48, 80
2, 169919, Note_on_c, 0, 52, 0
2, 169919, Note_on_c, 0, 48, 0
2, 169920, Note_on_c, 0, 36, 80
2, 170159, Note_on_c, 0, 36, 0
2, 170160, Note_on_c, 0, 52, 80
2, 170160, Note_on_c, 0, 48, 80
2, 170399, Note_on_c, 0, 52, 0
2, 170399, Note_on_c, 0, 48, 0
2, 170400, Note_on_c, 0, 37, 80
2, 170639, Note_on_c, 0, 37, 0
2, 170640, Note_on_c, 0, 52, 80
2, 170640, Note_on_c, 0, 49, 80
2, 170879, Note_on_c, 0, 52, 0
2, 170879, Note_on_c, 0, 49, 0
2, 170880, Note_on_c, 0, 37, 80
2, 171119, Note_on_c, 0, 37, 0
2, 171120, Note_on_c, 0, 52, 80
2, 171120, Note_on_c, 0, 49, 80
2, 171359, Note_on_c, 0, 52, 0
2, 171359, Note_on_c, 0, 49, 0
2, 171360, Key_signature, -6, "major"
2, 171360, Note_on_c, 0, 49, 80
2, 171360, Note_on_c, 0, 37, 80
2, 171719, Note_on_c, 0, 49, 0
2, 171719, Note_on_c, 0, 37, 0
2, 171720, Note_on_c, 0, 49, 80
2, 171720, Note_on_c, 0, 37, 80
2, 172079, Note_on_c, 0, 49, 0
2, 172079, Note_on_c, 0, 37, 0
2, 172080, Note_on_c, 0, 49, 80
2, 172080, Note_on_c, 0, 37, 80
2, 172319, Note_on_c, 0, 49, 0
2, 172319, Note_on_c, 0, 37, 0
2, 172320, Note_on_c, 0, 45, 80
2, 172320, Note_on_c, 0, 33, 80
2, 173279, Note_on_c, 0, 45, 0
2, 173279, Note_on_c, 0, 33, 0
2, 173280, Note_on_c, 0, 45, 80
2, 173519, Note_on_c, 0, 45, 0
2, 174240, Note_on_c, 0, 35, 80
2, 174479, Note_on_c, 0, 35, 0
2, 174480, Note_on_c, 0, 51, 80
2, 174719, Note_on_c, 0, 51, 0
2, 174720, Note_on_c, 0, 35, 80
2, 174959, Note_on_c, 0, 35, 0
2, 174960, Note_on_c, 0, 51, 80
2, 175199, Note_on_c, 0, 51, 0
2, 175200, Note_on_c, 0, 35, 80
2, 175439, Note_on_c, 0, 35, 0
2, 175440, Note_on_c, 0, 51, 80
2, 175679, Note_on_c, 0, 51, 0
2, 175680, Note_on_c, 0, 35, 80
2, 175919, Note_on_c, 0, 35, 0
2, 175920, Note_on_c, 0, 51, 80
2, 176159, Note_on_c, 0, 51, 0
2, 176160, Note_on_c, 0, 35, 80
2, 176399, Note_on_c, 0, 35, 0
2, 176400, Note_on_c, 0, 51, 80
2, 176639, Note_on_c, 0, 51, 0
2, 176640, Note_on_c, 0, 35, 80
2, 176879, Note_on_c, 0, 35, 0
2, 176880, Note_on_c, 0, 51, 80
2, 177119, Note_on_c, 0, 51, 0
2, 177120, Note_on_c, 0, 35, 80
2, 177359, Note_on_c, 0, 35, 0
2, 177360, Note_on_c, 0, 51, 80
2, 177599, Note_on_c, 0, 51, 0
2, 177600, Note_on_c, 0, 37, 80
2, 177839, Note_on_c, 0, 37, 0
2, 177840, Note_on_c, 0, 49, 80
2, 178079, Note_on_c, 0, 49, 0
2, 178080, Note_on_c, 0, 39, 80
2, 178319, Note_on_c, 0, 39, 0
2, 178320, Note_on_c, 0, 54, 80
2, 178320, Note_on_c, 0, 51, 80
2, 178559, Note_on_c, 0, 54, 0
2, 178559, Note_on_c, 0, 51, 0
2, 178560, Note_on_c, 0, 39, 80
2, 178799, Note_on_c, 0, 39, 0
2, 178800, Note_on_c, 0, 54, 80
2, 178800, Note_on_c, 0, 51, 80
2, 179039, Note_on_c, 0, 54, 0
2, 179039, Note_on_c, 0, 51, 0
2, 179040, Note_on_c, 0, 39, 80
2, 179279, Note_on_c, 0, 39, 0
2, 179280, Note_on_c, 0, 54, 80
2, 179280, Note_on_c, 0, 51, 80
2, 179519, Note_on_c, 0, 54, 0
2, 179519, Note_on_c, 0, 51, 0
2, 179520, Note_on_c, 0, 39, 80
2, 179759, Note_on_c, 0, 39, 0
2, 179760, Note_on_c, 0, 54, 80
2, 179760, Note_on_c, 0, 51, 80
2, 179999, Note_on_c, 0, 54, 0
2, 179999, Note_on_c, 0, 51, 0
2, 180000, Note_on_c, 0, 39, 80
2, 180239, Note_on_c, 0, 39, 0
2, 180240, Note_on_c, 0, 54, 80
2, 180240, Note_on_c, 0, 51, 80
2, 180479, Note_on_c, 0, 54, 0
2, 180479, Note_on_c, 0, 51, 0
2, 180480, Note_on_c, 0, 39, 80
2, 180719, Note_on_c, 0, 39, 0
2, 180720, Note_on_c, 0, 54, 80
2, 180720, Note_on_c, 0, 51, 80
2, 180959, Note_on_c, 0, 54, 0
2, 180959, Note_on_c, 0, 51, 0
2, 180960, Note_on_c, 0, 39, 80
2, 181199, Note_on_c, 0, 39, 0
2, 181200, Note_on_c, 0, 54, 80
2, 181200, Note_on_c, 0, 51, 80
2, 181439, Note_on_c, 0, 54, 0
2, 181439, Note_on_c, 0, 51, 0
2, 181440, Note_on_c, 0, 39, 80
2, 181679, Note_on_c, 0, 39, 0
2, 181680, Note_on_c, 0, 54, 80
2, 181680, Note_on_c, 0, 51, 80
2, 181919, Note_on_c, 0, 54, 0
2, 181919, Note_on_c, 0, 51, 0
2, 181920, Note_on_c, 0, 36, 80
2, 182159, Note_on_c, 0, 36, 0
2, 182160, Note_on_c, 0, 51, 80
2, 182160, Note_on_c, 0, 48, 80
2, 182399, Note_on_c, 0, 51, 0
2, 182399, Note_on_c, 0, 48, 0
2, 182400, Note_on_c, 0, 36, 80
2, 182639, Note_on_c, 0, 36, 0
2, 182640, Note_on_c, 0, 51, 80
2, 182640, Note_on_c, 0, 48, 80
2, 182879, Note_on_c, 0, 51, 0
2, 182879, Note_on_c, 0, 48, 0
2, 182880, Note_on_c, 0, 36, 80
2, 183119, Note_on_c, 0, 36, 0
2, 183120, Note_on_c, 0, 51, 80
2, 183120, Note_on_c, 0, 48, 80
2, 183359, Note_on_c, 0, 51, 0
2, 183359, Note_on_c, 0, 48, 0
2, 183360, Note_on_c, 0, 36, 80
2, 183599, Note_on_c, 0, 36, 0
2, 183600, Note_on_c, 0, 51, 80
2, 183600, Note_on_c, 0, 48, 80
2, 183839, Note_on_c, 0, 51, 0
2, 183839, Note_on_c, 0, 48, 0
2, 183840, Note_on_c, 0, 36, 80
2, 184079, Note_on_c, 0, 36, 0
2, 184080, Note_on_c, 0, 51, 80
2, 184080, Note_on_c, 0, 48, 80
2, 184319, Note_on_c, 0, 51, 0
2, 184319, Note_on_c, 0, 48, 0
2, 184320, Note_on_c, 0, 36, 80
2, 184559, Note_on_c, 0, 36, 0
2, 184560, Note_on_c, 0, 51, 80
2, 184560, Note_on_c, 0, 48, 80
2, 184799, Note_on_c, 0, 51, 0
2, 184799, Note_on_c, 0, 48, 0
2, 184800, Note_on_c, 0, 36, 80
2, 185039, Note_on_c, 0, 36, 0
2, 185040, Note_on_c, 0, 51, 80
2, 185040, Note_on_c, 0, 48, 80
2, 185279, Note_on_c, 0, 51, 0
2, 185279, Note_on_c, 0, 48, 0
2, 185280, Note_on_c, 0, 36, 80
2, 185519, Note_on_c, 0, 36, 0
2, 185520, Note_on_c, 0, 51, 80
2, 185520, Note_on_c, 0, 48, 80
2, 185759, Note_on_c, 0, 51, 0
2, 185759, Note_on_c, 0, 48, 0
2, 185760, Note_on_c, 0, 35, 80
2, 185999, Note_on_c, 0, 35, 0
2, 186000, Note_on_c, 0, 51, 80
2, 186239, Note_on_c, 0, 51, 0
2, 186240, Note_on_c, 0, 35, 80
2, 186479, Note_on_c, 0, 35, 0
2, 186480, Note_on_c, 0, 51, 80
2, 186719, Note_on_c, 0, 51, 0
2, 186720, Note_on_c, 0, 37, 80
2, 186959, Note_on_c, 0, 37, 0
2, 186960, Note_on_c, 0, 49, 80
2, 187199, Note_on_c, 0, 49, 0
2, 187200, Note_on_c, 0, 37, 80
2, 187439, Note_on_c, 0, 37, 0
2, 187440, Note_on_c, 0, 49, 80
2, 187679, Note_on_c, 0, 49, 0
2, 187680, Note_on_c, 0, 39, 80
2, 187919, Note_on_c, 0, 39, 0
2, 187920, Note_on_c, 0, 54, 80
2, 187920, Note_on_c, 0, 51, 80
2, 188159, Note_on_c, 0, 54, 0
2, 188159, Note_on_c, 0, 51, 0
2, 188160, Note_on_c, 0, 39, 80
2, 188399, Note_on_c, 0, 39, 0
2, 188400, Note_on_c, 0, 54, 80
2, 188400, Note_on_c, 0, 51, 80
2, 188639, Note_on_c, 0, 54, 0
2, 188639, Note_on_c, 0, 51, 0
2, 188640, Note_on_c, 0, 39, 80
2, 188879, Note_on_c, 0, 39, 0
2, 188880, Note_on_c, 0, 54, 80
2, 188880, Note_on_c, 0, 51, 80
2, 189119, Note_on_c, 0, 54, 0
2, 189119, Note_on_c, 0, 51, 0
2, 189120, Note_on_c, 0, 39, 80
2, 189359, Note_on_c, 0, 39, 0
2, 189360, Note_on_c, 0, 54, 80
2, 189360, Note_on_c, 0, 51, 80
2, 189599, Note_on_c, 0, 54, 0
2, 189599, Note_on_c, 0, 51, 0
2, 189600, Note_on_c, 0, 35, 80
2, 189839, Note_on_c, 0, 35, 0
2, 189840, Note_on_c, 0, 51, 80
2, 190079, Note_on_c, 0, 51, 0
2, 190080, Note_on_c, 0, 35, 80
2, 190319, Note_on_c, 0, 35, 0
2, 190320, Note_on_c, 0, 51, 80
2, 190559, Note_on_c, 0, 51, 0
2, 190560, Note_on_c, 0, 35, 80
2, 190799, Note_on_c, 0, 35, 0
2, 190800, Note_on_c, 0, 51, 80
2, 191039, Note_on_c, 0, 51, 0
2, 191040, Note_on_c, 0, 35, 80
2, 191279, Note_on_c, 0, 35, 0
2, 191280, Note_on_c, 0, 51, 80
2, 191519, Note_on_c, 0, 51, 0
2, 191520, Note_on_c, 0, 35, 80
2, 191759, Note_on_c, 0, 35, 0
2, 191760, Note_on_c, 0, 51, 80
2, 191999, Note_on_c, 0, 51, 0
2, 192000, Note_on_c, 0, 35, 80
2, 192239, Note_on_c, 0, 35, 0
2, 192240, Note_on_c, 0, 51, 80
2, 192479, Note_on_c, 0, 51, 0
2, 192480, Note_on_c, 0, 35, 80
2, 192719, Note_on_c, 0, 35, 0
2, 192720, Note_on_c, 0, 51, 80
2, 192959, Note_on_c, 0, 51, 0
2, 192960, Note_on_c, 0, 37, 80
2, 193199, Note_on_c, 0, 37, 0
2, 193200, Note_on_c, 0, 49, 80
2, 193439, Note_on_c, 0, 49, 0
2, 193440, Note_on_c, 0, 39, 80
2, 193679, Note_on_c, 0, 39, 0
2, 193680, Note_on_c, 0, 54, 80
2, 193680, Note_on_c, 0, 51, 80
2, 193919, Note_on_c, 0, 54, 0
2, 193919, Note_on_c, 0, 51, 0
2, 193920, Note_on_c, 0, 39, 80
2, 194159, Note_on_c, 0, 39, 0
2, 194160, Note_on_c, 0, 54, 80
2, 194160, Note_on_c, 0, 51, 80
2, 194399, Note_on_c, 0, 54, 0
2, 194399, Note_on_c, 0, 51, 0
2, 194400, Note_on_c, 0, 39, 80
2, 194639, Note_on_c, 0, 39, 0
2, 194640, Note_on_c, 0, 54, 80
2, 194640, Note_on_c, 0, 51, 80
2, 194879, Note_on_c, 0, 54, 0
2, 194879, Note_on_c, 0, 51, 0
2, 194880, Note_on_c, 0, 39, 80
2, 195119, Note_on_c, 0, 39, 0
2, 195120, Note_on_c, 0, 54, 80
2, 195120, Note_on_c, 0, 51, 80
2, 195359, Note_on_c, 0, 54, 0
2, 195359, Note_on_c, 0, 51, 0
2, 195360, Note_on_c, 0, 39, 80
2, 195599, Note_on_c, 0, 39, 0
2, 195600, Note_on_c, 0, 54, 80
2, 195600, Note_on_c, 0, 51, 80
2, 195839, Note_on_c, 0, 54, 0
2, 195839, Note_on_c, 0, 51, 0
2, 195840, Note_on_c, 0, 39, 80
2, 196079, Note_on_c, 0, 39, 0
2, 196080, Note_on_c, 0, 54, 80
2, 196080, Note_on_c, 0, 51, 80
2, 196319, Note_on_c, 0, 54, 0
2, 196319, Note_on_c, 0, 51, 0
2, 196320, Note_on_c, 0, 39, 80
2, 196559, Note_on_c, 0, 39, 0
2, 196560, Note_on_c, 0, 54, 80
2, 196560, Note_on_c, 0, 51, 80
2, 196799, Note_on_c, 0, 54, 0
2, 196799, Note_on_c, 0, 51, 0
2, 196800, Note_on_c, 0, 39, 80
2, 197039, Note_on_c, 0, 39, 0
2, 197040, Note_on_c, 0, 54, 80
2, 197040, Note_on_c, 0, 51, 80
2, 197279, Note_on_c, 0, 54, 0
2, 197279, Note_on_c, 0, 51, 0
2, 197280, Note_on_c, 0, 36, 80
2, 197519, Note_on_c, 0, 36, 0
2, 197520, Note_on_c, 0, 51, 80
2, 197520, Note_on_c, 0, 48, 80
2, 197759, Note_on_c, 0, 51, 0
2, 197759, Note_on_c, 0, 48, 0
2, 197760, Note_on_c, 0, 36, 80
2, 197999, Note_on_c, 0, 36, 0
2, 198000, Note_on_c, 0, 51, 80
2, 198000, Note_on_c, 0, 48, 80
2, 198239, Note_on_c, 0, 51, 0
2, 198239, Note_on_c, 0, 48, 0
2, 198240, Note_on_c, 0, 36, 80
2, 198479, Note_on_c, 0, 36, 0
2, 198480, Note_on_c, 0, 51, 80
2, 198480, Note_on_c, 0, 48, 80
2, 198719, Note_on_c, 0, 51, 0
2, 198719, Note_on_c, 0, 48, 0
2, 198720, Note_on_c, 0, 36, 80
2, 198959, Note_on_c, 0, 36, 0
2, 198960, Note_on_c, 0, 51, 80
2, 198960, Note_on_c, 0, 48, 80
2, 199199, Note_on_c, 0, 51, 0
2, 199199, Note_on_c, 0, 48, 0
2, 199200, Note_on_c, 0, 36, 80
2, 199439, Note_on_c, 0, 36, 0
2, 199440, Note_on_c, 0, 51, 80
2, 199440, Note_on_c, 0, 48, 80
2, 199679, Note_on_c, 0, 51, 0
2, 199679, Note_on_c, 0, 48, 0
2, 199680, Note_on_c, 0, 36, 80
2, 199919, Note_on_c, 0, 36, 0
2, 199920, Note_on_c, 0, 51, 80
2, 199920, Note_on_c, 0, 48, 80
2, 200159, Note_on_c, 0, 51, 0
2, 200159, Note_on_c, 0, 48, 0
2, 200160, Note_on_c, 0, 36, 80
2, 200399, Note_on_c, 0, 36, 0
2, 200400, Note_on_c, 0, 51, 80
2, 200400, Note_on_c, 0, 48, 80
2, 200639, Note_on_c, 0, 51, 0
2, 200639, Note_on_c, 0, 48, 0
2, 200640, Note_on_c, 0, 36, 80
2, 200879, Note_on_c, 0, 36, 0
2, 200880, Note_on_c, 0, 51, 80
2, 200880, Note_on_c, 0, 48, 80
2, 201119, Note_on_c, 0, 51, 0
2, 201119, Note_on_c, 0, 48, 0
2, 201120, Note_on_c, 0, 47, 80
2, 201120, Note_on_c, 0, 35, 80
2, 201599, Note_on_c, 0, 47, 0
2, 201599, Note_on_c, 0, 35, 0
2, 201600, Note_on_c, 0, 35, 80
2, 201839, Note_on_c, 0, 35, 0
2, 201840, Note_on_c, 0, 49, 80
2, 201840, Note_on_c, 0, 37, 80
2, 202319, Note_on_c, 0, 49, 0
2, 202319, Note_on_c, 0, 37, 0
2, 202320, Note_on_c, 0, 37, 80
2, 202559, Note_on_c, 0, 37, 0
2, 202560, Note_on_c, 0, 49, 80
2, 202799, Note_on_c, 0, 49, 0
2, 202800, Note_on_c, 0, 51, 80
2, 202800, Note_on_c, 0, 39, 80
2, 204479, Note_on_c, 0, 51, 0
2, 204479, Note_on_c, 0, 39, 0
2, 204480, Note_on_c, 0, 51, 80
2, 204480, Note_on_c, 0, 39, 80
2, 204959, Note_on_c, 0, 51, 0
2, 204959, Note_on_c, 0, 39, 0
2, 204960, Note_on_c, 0, 34, 80
2, 205200, Note_on_c, 0, 46, 80
2, 205679, Note_on_c, 0, 46, 0
2, 205680, Note_on_c, 0, 46, 80
2, 205919, Note_on_c, 0, 34, 0
2, 205919, Note_on_c, 0, 46, 0
2, 205920, Note_on_c, 0, 37, 80
2, 205920, Note_on_c, 0, 49, 80
2, 206399, Note_on_c, 0, 37, 0
2, 206400, Note_on_c, 0, 37, 80
2, 206639, Note_on_c, 0, 37, 0
2, 206639, Note_on_c, 0, 49, 0
2, 206640, Note_on_c, 0, 39, 80
2, 206640, Note_on_c, 0, 51, 80
2, 207119, Note_on_c, 0, 39, 0
2, 207119, Note_on_c, 0, 51, 0
2, 207120, Note_on_c, 0, 39, 80
2, 207120, Note_on_c, 0, 51, 80
2, 207599, Note_on_c, 0, 39, 0
2, 207600, Note_on_c, 0, 40, 80
2, 207839, Note_on_c, 0, 51, 0
2, 207840, Note_on_c, 0, 52, 80
2, 208319, Note_on_c, 0, 52, 0
2, 208320, Note_on_c, 0, 52, 80
2, 208799, Note_on_c, 0, 40, 0
2, 208799, Note_on_c, 0, 52, 0
2, 208800, Note_on_c, 0, 34, 80
2, 209040, Note_on_c, 0, 46, 80
2, 209519, Note_on_c, 0, 46, 0
2, 209520, Note_on_c, 0, 46, 80
2, 209759, Note_on_c, 0, 34, 0
2, 209759, Note_on_c, 0, 46, 0
2, 209760, Note_on_c, 0, 37, 80
2, 209760, Note_on_c, 0, 49, 80
2, 210239, Note_on_c, 0, 37, 0
2, 210240, Note_on_c, 0, 37, 80
2, 210479, Note_on_c, 0, 37, 0
2, 210479, Note_on_c, 0, 49, 0
2, 210480, Note_on_c, 0, 39, 80
2, 210480, Note_on_c, 0, 51, 80
2, 210959, Note_on_c, 0, 39, 0
2, 210959, Note_on_c, 0, 51, 0
2, 210960, Note_on_c, 0, 39, 80
2, 210960, Note_on_c, 0, 51, 80
2, 211439, Note_on_c, 0, 39, 0
2, 211440, Note_on_c, 0, 32, 80
2, 211679, Note_on_c, 0, 51, 0
2, 211680, Note_on_c, 0, 44, 80
2, 212159, Note_on_c, 0, 32, 0
2, 212159, Note_on_c, 0, 44, 0
2, 212160, Note_on_c, 0, 33, 80
2, 212160, Note_on_c, 0, 45, 80
2, 212639, Note_on_c, 0, 33, 0
2, 212639, Note_on_c, 0, 45, 0
2, 212640, Note_on_c, 0, 34, 80
2, 212880, Note_on_c, 0, 46, 80
2, 213359, Note_on_c, 0, 46, 0
2, 213360, Note_on_c, 0, 46, 80
2, 213599, Note_on_c, 0, 34, 0
2, 213599, Note_on_c, 0, 46, 0
2, 213600, Note_on_c, 0, 37, 80
2, 213600, Note_on_c, 0, 49, 80
2, 213839, Note_on_c, 0, 37, 0
2, 213840, Note_on_c, 0, 37, 80
2, 214079, Note_on_c, 0, 49, 0
2, 214080, Note_on_c, 0, 49, 80
2, 214319, Note_on_c, 0, 37, 0
2, 214319, Note_on_c, 0, 49, 0
2, 214320, Note_on_c, 0, 39, 80
2, 214320, Note_on_c, 0, 51, 80
2, 214799, Note_on_c, 0, 39, 0
2, 214799, Note_on_c, 0, 51, 0
2, 214800, Note_on_c, 0, 39, 80
2, 214800, Note_on_c, 0, 51, 80
2, 215279, Note_on_c, 0, 39, 0
2, 215280, Note_on_c, 0, 40, 80
2, 215519, Note_on_c, 0, 51, 0
2, 215520, Note_on_c, 0, 52, 80
2, 215999, Note_on_c, 0, 52, 0
2, 216000, Note_on_c, 0, 52, 80
2, 216239, Note_on_c, 0, 40, 0
2, 216240, Note_on_c, 0, 41, 80
2, 216479, Note_on_c, 0, 52, 0
2, 216480, Note_on_c, 0, 53, 80
2, 216959, Note_on_c, 0, 53, 0
2, 216960, Note_on_c, 0, 53, 80
2, 217199, Note_on_c, 0, 53, 0
2, 217200, Note_on_c, 0, 53, 80
2, 217679, Note_on_c, 0, 41, 0
2, 217680, Note_on_c, 0, 41, 80
2, 217919, Note_on_c, 0, 53, 0
2, 217920, Note_on_c, 0, 53, 80
2, 218159, Note_on_c, 0, 41, 0
2, 218159, Note_on_c, 0, 53, 0
2, 218160, Note_on_c, 0, 53, 80
2, 218160, Note_on_c, 0, 41, 80
2, 218639, Note_on_c, 0, 53, 0
2, 218639, Note_on_c, 0, 41, 0
2, 218640, Note_on_c, 0, 51, 80
2, 218640, Note_on_c, 0, 39, 80
2, 218879, Note_on_c, 0, 51, 0
2, 218879, Note_on_c, 0, 39, 0
2, 218880, Note_on_c, 0, 49, 80
2, 218880, Note_on_c, 0, 37, 80
2, 219119, Note_on_c, 0, 49, 0
2, 219119, Note_on_c, 0, 37, 0
2, 219120, Note_on_c, 0, 51, 80
2, 219120, Note_on_c, 0, 39, 80
2, 219359, Note_on_c, 0, 51, 0
2, 219359, Note_on_c, 0, 39, 0
2, 219360, Note_on_c, 0, 49, 80
2, 219360, Note_on_c, 0, 37, 80
2, 219599, Note_on_c, 0, 49, 0
2, 219599, Note_on_c, 0, 37, 0
2, 219600, Note_on_c, 0, 46, 80
2, 219600, Note_on_c, 0, 34, 80
2, 219839, Note_on_c, 0, 46, 0
2, 219839, Note_on_c, 0, 34, 0
2, 219840, Note_on_c, 0, 46, 80
2, 219840, Note_on_c, 0, 34, 80
2, 220319, Note_on_c, 0, 46, 0
2, 220319, Note_on_c, 0, 34, 0
2, 220320, Note_on_c, 0, 34, 80
2, 220559, Note_on_c, 0, 34, 0
2, 220560, Note_on_c, 0, 49, 80
2, 220560, Note_on_c, 0, 46, 80
2, 220799, Note_on_c, 0, 49, 0
2, 220799, Note_on_c, 0, 46, 0
2, 220800, Note_on_c, 0, 34, 80
2, 221039, Note_on_c, 0, 34, 0
2, 221040, Note_on_c, 0, 49, 80
2, 221040, Note_on_c, 0, 46, 80
2, 221279, Note_on_c, 0, 49, 0
2, 221279, Note_on_c, 0, 46, 0
2, 221280, Note_on_c, 0, 37, 80
2, 221519, Note_on_c, 0, 37, 0
2, 221520, Note_on_c, 0, 49, 80
2, 221759, Note_on_c, 0, 49, 0
2, 221760, Note_on_c, 0, 37, 80
2, 221999, Note_on_c, 0, 37, 0
2, 222000, Note_on_c, 0, 49, 80
2, 222239, Note_on_c, 0, 49, 0
2, 222240, Note_on_c, 0, 39, 80
2, 222479, Note_on_c, 0, 39, 0
2, 222480, Note_on_c, 0, 51, 80
2, 222719, Note_on_c, 0, 51, 0
2, 222720, Note_on_c, 0, 39, 80
2, 222959, Note_on_c, 0, 39, 0
2, 222960, Note_on_c, 0, 51, 80
2, 223199, Note_on_c, 0, 51, 0
2, 223200, Note_on_c, 0, 40, 80
2, 223439, Note_on_c, 0, 40, 0
2, 223440, Note_on_c, 0, 52, 80
2, 223679, Note_on_c, 0, 52, 0
2, 223680, Note_on_c, 0, 40, 80
2, 223919, Note_on_c, 0, 40, 0
2, 223920, Note_on_c, 0, 52, 80
2, 224159, Note_on_c, 0, 52, 0
2, 224160, Note_on_c, 0, 34, 80
2, 224399, Note_on_c, 0, 34, 0
2, 224400, Note_on_c, 0, 49, 80
2, 224400, Note_on_c, 0, 46, 80
2, 224639, Note_on_c, 0, 49, 0
2, 224639, Note_on_c, 0, 46, 0
2, 224640, Note_on_c, 0, 34, 80
2, 224879, Note_on_c, 0, 34, 0
2, 224880, Note_on_c, 0, 49, 80
2, 224880, Note_on_c, 0, 46, 80
2, 225119, Note_on_c, 0, 49, 0
2, 225119, Note_on_c, 0, 46, 0
2, 225120, Note_on_c, 0, 37, 80
2, 225359, Note_on_c, 0, 37, 0
2, 225360, Note_on_c, 0, 49, 80
2, 225599, Note_on_c, 0, 49, 0
2, 225600, Note_on_c, 0, 37, 80
2, 225839, Note_on_c, 0, 37, 0
2, 225840, Note_on_c, 0, 49, 80
2, 226079, Note_on_c, 0, 49, 0
2, 226080, Note_on_c, 0, 39, 80
2, 226319, Note_on_c, 0, 39, 0
2, 226320, Note_on_c, 0, 51, 80
2, 226559, Note_on_c, 0, 51, 0
2, 226560, Note_on_c, 0, 39, 80
2, 226799, Note_on_c, 0, 39, 0
2, 226800, Note_on_c, 0, 51, 80
2, 227039, Note_on_c, 0, 51, 0
2, 227040, Note_on_c, 0, 40, 80
2, 227279, Note_on_c, 0, 40, 0
2, 227280, Note_on_c, 0, 52, 80
2, 227519, Note_on_c, 0, 52, 0
2, 227520, Note_on_c, 0, 40, 80
2, 227759, Note_on_c, 0, 40, 0
2, 227760, Note_on_c, 0, 52, 80
2, 227999, Note_on_c, 0, 52, 0
2, 228000, Note_on_c, 0, 34, 80
2, 228239, Note_on_c, 0, 34, 0
2, 228240, Note_on_c, 0, 46, 80
2, 228479, Note_on_c, 0, 46, 0
2, 228480, Note_on_c, 0, 34, 80
2, 228719, Note_on_c, 0, 34, 0
2, 228720, Note_on_c, 0, 46, 80
2, 228959, Note_on_c, 0, 46, 0
2, 228960, Note_on_c, 0, 37, 80
2, 229199, Note_on_c, 0, 37, 0
2, 229200, Note_on_c, 0, 49, 80
2, 229439, Note_on_c, 0, 49, 0
2, 229440, Note_on_c, 0, 37, 80
2, 229679, Note_on_c, 0, 37, 0
2, 229680, Note_on_c, 0, 49, 80
2, 229919, Note_on_c, 0, 49, 0
2, 229920, Note_on_c, 0, 39, 80
2, 230159, Note_on_c, 0, 39, 0
2, 230160, Note_on_c, 0, 51, 80
2, 230399, Note_on_c, 0, 51, 0
2, 230400, Note_on_c, 0, 39, 80
2, 230639, Note_on_c, 0, 39, 0
2, 230640, Note_on_c, 0, 51, 80
2, 230879, Note_on_c, 0, 51, 0
2, 230880, Note_on_c, 0, 40, 80
2, 231119, Note_on_c, 0, 40, 0
2, 231120, Note_on_c, 0, 52, 80
2, 231359, Note_on_c, 0, 52, 0
2, 231360, Note_on_c, 0, 40, 80
2, 231599, Note_on_c, 0, 40, 0
2, 231600, Note_on_c, 0, 52, 80
2, 231839, Note_on_c, 0, 52, 0
2, 231840, Note_on_c, 0, 34, 80
2, 232079, Note_on_c, 0, 34, 0
2, 232080, Note_on_c, 0, 46, 80
2, 232319, Note_on_c, 0, 46, 0
2, 232320, Note_on_c, 0, 34, 80
2, 232559, Note_on_c, 0, 34, 0
2, 232560, Note_on_c, 0, 46, 80
2, 232799, Note_on_c, 0, 46, 0
2, 232800, Key_signature, -1, "major"
2, 232800, Note_on_c, 0, 37, 80
2, 233039, Note_on_c, 0, 37, 0
2, 233040, Note_on_c, 0, 49, 80
2, 233279, Note_on_c, 0, 49, 0
2, 233280, Note_on_c, 0, 37, 80
2, 233519, Note_on_c, 0, 37, 0
2, 233520, Note_on_c, 0, 51, 80
2, 233520, Note_on_c, 0, 39, 80
2, 234719, Note_on_c, 0, 51, 0
2, 234719, Note_on_c, 0, 39, 0
2, 234720, Note_on_c, 0, 41, 80
2, 234959, Note_on_c, 0, 41, 0
2, 234960, Note_on_c, 0, 48, 80
2, 235199, Note_on_c, 0, 48, 0
2, 235200, Note_on_c, 0, 53, 80
2, 235439, Note_on_c, 0, 53, 0
2, 235440, Note_on_c, 0, 57, 80
2, 235679, Note_on_c, 0, 57, 0
2, 235680, Note_on_c, 0, 46, 80
2, 236159, Note_on_c, 0, 46, 0
2, 236160, Note_on_c, 0, 53, 80
2, 236399, Note_on_c, 0, 53, 0
2, 236400, Note_on_c, 0, 58, 80
2, 236639, Note_on_c, 0, 58, 0
2, 236640, Note_on_c, 0, 62, 80
2, 236879, Note_on_c, 0, 62, 0
2, 236880, Note_on_c, 0, 65, 80
2, 237119, Note_on_c, 0, 65, 0
2, 237120, Note_on_c, 0, 70, 80
2, 237599, Note_on_c, 0, 70, 0
2, 237600, Note_on_c, 0, 48, 80
2, 238079, Note_on_c, 0, 48, 0
2, 238080, Note_on_c, 0, 55, 80
2, 238319, Note_on_c, 0, 55, 0
2, 238320, Note_on_c, 0, 60, 80
2, 238559, Note_on_c, 0, 60, 0
2, 238560, Note_on_c, 0, 64, 80
2, 238799, Note_on_c, 0, 64, 0
2, 238800, Note_on_c, 0, 67, 80
2, 239519, Note_on_c, 0, 67, 0
2, 239520, Note_on_c, 0, 49, 80
2, 239879, Note_on_c, 0, 49, 0
2, 239880, Note_on_c, 0, 57, 80
2, 240239, Note_on_c, 0, 57, 0
2, 240240, Note_on_c, 0, 61, 80
2, 240479, Note_on_c, 0, 61, 0
2, 240480, Note_on_c, 0, 64, 80
2, 241439, Note_on_c, 0, 64, 0
2, 241440, Note_on_c, 0, 62, 80
2, 241440, Note_on_c, 0, 57, 80
2, 241440, Note_on_c, 0, 50, 80
2, 243359, Note_on_c, 0, 62, 0
2, 243359, Note_on_c, 0, 57, 0
2, 243359, Note_on_c, 0, 50, 0
2, 243360, Note_on_c, 0, 34, 80
2, 243839, Note_on_c, 0, 34, 0
2, 243840, Note_on_c, 0, 41, 80
2, 244079, Note_on_c, 0, 41, 0
2, 244080, Note_on_c, 0, 46, 80
2, 244319, Note_on_c, 0, 46, 0
2, 244320, Note_on_c, 0, 50, 80
2, 244559, Note_on_c, 0, 50, 0
2, 244560, Note_on_c, 0, 53, 80
2, 244799, Note_on_c, 0, 53, 0
2, 244800, Note_on_c, 0, 58, 80
2, 245039, Note_on_c, 0, 58, 0
2, 245040, Note_on_c, 0, 62, 80
2, 245279, Note_on_c, 0, 62, 0
2, 245280, Note_on_c, 0, 36, 80
2, 245759, Note_on_c, 0, 36, 0
2, 245760, Note_on_c, 0, 43, 80
2, 245999, Note_on_c, 0, 43, 0
2, 246000, Note_on_c, 0, 48, 80
2, 246239, Note_on_c, 0, 48, 0
2, 246240, Note_on_c, 0, 52, 80
2, 246479, Note_on_c, 0, 52, 0
2, 246480, Note_on_c, 0, 55, 80
2, 246719, Note_on_c, 0, 55, 0
2, 246720, Note_on_c, 0, 60, 80
2, 247199, Note_on_c, 0, 60, 0
2, 247200, Note_on_c, 0, 49, 80
2, 247200, Note_on_c, 0, 37, 80
2, 247559, Note_on_c, 0, 49, 0
2, 247559, Note_on_c, 0, 37, 0
2, 247560, Note_on_c, 0, 45, 80
2, 247919, Note_on_c, 0, 45, 0
2, 247920, Note_on_c, 0, 49, 80
2, 247920, Note_on_c, 0, 37, 80
2, 248159, Note_on_c, 0, 49, 0
2, 248159, Note_on_c, 0, 37, 0
2, 248160, Note_on_c, 0, 49, 80
2, 248160, Note_on_c, 0, 37, 80
2, 248519, Note_on_c, 0, 49, 0
2, 248519, Note_on_c, 0, 37, 0
2, 248520, Note_on_c, 0, 45, 80
2, 248879, Note_on_c, 0, 45, 0
2, 248880, Note_on_c, 0, 37, 80
2, 249119, Note_on_c, 0, 37, 0
2, 249120, Note_on_c, 0, 45, 80
2, 249120, Note_on_c, 0, 33, 80
2, 250080, Note_on_c, 0, 57, 80
2, 250147, Note_on_c, 0, 57, 0
2, 250148, Note_on_c, 0, 61, 80
2, 250215, Note_on_c, 0, 61, 0
2, 250216, Note_on_c, 0, 64, 80
2, 250283, Note_on_c, 0, 64, 0
2, 250284, Note_on_c, 0, 69, 80
2, 250351, Note_on_c, 0, 69, 0
2, 250352, Note_on_c, 0, 73, 80
2, 250419, Note_on_c, 0, 73, 0
2, 250420, Note_on_c, 0, 76, 80
2, 250487, Note_on_c, 0, 76, 0
2, 250488, Note_on_c, 0, 81, 80
2, 250555, Note_on_c, 0, 81, 0
2, 250560, Note_on_c, 0, 69, 80
2, 250627, Note_on_c, 0, 69, 0
2, 250628, Note_on_c, 0, 73, 80
2, 250695, Note_on_c, 0, 73, 0
2, 250696, Note_on_c, 0, 76, 80
2, 250763, Note_on_c, 0, 76, 0
2, 250764, Note_on_c, 0, 81, 80
2, 250831, Note_on_c, 0, 81, 0
2, 250832, Note_on_c, 0, 85, 80
2, 250899, Note_on_c, 0, 85, 0
2, 250900, Note_on_c, 0, 88, 80
2, 250967, Note_on_c, 0, 88, 0
2, 250968, Note_on_c, 0, 93, 80
2, 251035, Note_on_c, 0, 93, 0
2, 253920, Key_signature, 1, "major"
2, 254399, Note_on_c, 0, 45, 0
2, 254399, Note_on_c, 0, 33, 0
2, 256800, Note_on_c, 0, 36, 80
2, 257039, Note_on_c, 0, 36, 0
2, 257040, Note_on_c, 0, 52, 80
2, 257040, Note_on_c, 0, 48, 80
2, 257279, Note_on_c, 0, 52, 0
2, 257279, Note_on_c, 0, 48, 0
2, 257280, Note_on_c, 0, 36, 80
2, 257519, Note_on_c, 0, 36, 0
2, 257520, Note_on_c, 0, 52, 80
2, 257520, Note_on_c, 0, 48, 80
2, 257759, Note_on_c, 0, 52, 0
2, 257759, Note_on_c, 0, 48, 0
2, 257760, Note_on_c, 0, 36, 80
2, 257999, Note_on_c, 0, 36, 0
2, 258000, Note_on_c, 0, 52, 80
2, 258000, Note_on_c, 0, 48, 80
2, 258239, Note_on_c, 0, 52, 0
2, 258239, Note_on_c, 0, 48, 0
2, 258240, Note_on_c, 0, 36, 80
2, 258479, Note_on_c, 0, 36, 0
2, 258480, Note_on_c, 0, 52, 80
2, 258480, Note_on_c, 0, 48, 80
2, 258719, Note_on_c, 0, 52, 0
2, 258719, Note_on_c, 0, 48, 0
2, 258720, Note_on_c, 0, 36, 80
2, 258959, Note_on_c, 0, 36, 0
2, 258960, Note_on_c, 0, 52, 80
2, 258960, Note_on_c, 0, 48, 80
2, 259199, Note_on_c, 0, 52, 0
2, 259199, Note_on_c, 0, 48, 0
2, 259200, Note_on_c, 0, 36, 80
2, 259439, Note_on_c, 0, 36, 0
2, 259440, Note_on_c, 0, 52, 80
2, 259440, Note_on_c, 0, 48, 80
2, 259679, Note_on_c, 0, 52, 0
2, 259679, Note_on_c, 0, 48, 0
2, 259680, Note_on_c, 0, 36, 80
2, 259919, Note_on_c, 0, 36, 0
2, 259920, Note_on_c, 0, 52, 80
2, 259920, Note_on_c, 0, 48, 80
2, 260159, Note_on_c, 0, 52, 0
2, 260159, Note_on_c, 0, 48, 0
2, 260160, Note_on_c, 0, 38, 80
2, 260399, Note_on_c, 0, 38, 0
2, 260400, Note_on_c, 0, 50, 80
2, 260639, Note_on_c, 0, 50, 0
2, 260640, Note_on_c, 0, 40, 80
2, 260879, Note_on_c, 0, 40, 0
2, 260880, Note_on_c, 0, 55, 80
2, 260880, Note_on_c, 0, 52, 80
2, 261119, Note_on_c, 0, 55, 0
2, 261119, Note_on_c, 0, 52, 0
2, 261120, Note_on_c, 0, 40, 80
2, 261359, Note_on_c, 0, 40, 0
2, 261360, Note_on_c, 0, 55, 80
2, 261360, Note_on_c, 0, 52, 80
2, 261599, Note_on_c, 0, 55, 0
2, 261599, Note_on_c, 0, 52, 0
2, 261600, Note_on_c, 0, 40, 80
2, 261839, Note_on_c, 0, 40, 0
2, 261840, Note_on_c, 0, 55, 80
2, 261840, Note_on_c, 0, 52, 80
2, 262079, Note_on_c, 0, 55, 0
2, 262079, Note_on_c, 0, 52, 0
2, 262080, Note_on_c, 0, 40, 80
2, 262319, Note_on_c, 0, 40, 0
2, 262320, Note_on_c, 0, 55, 80
2, 262320, Note_on_c, 0, 52, 80
2, 262559, Note_on_c, 0, 55, 0
2, 262559, Note_on_c, 0, 52, 0
2, 262560, Note_on_c, 0, 40, 80
2, 262799, Note_on_c, 0, 40, 0
2, 262800, Note_on_c, 0, 55, 80
2, 262800, Note_on_c, 0, 52, 80
2, 263039, Note_on_c, 0, 55, 0
2, 263039, Note_on_c, 0, 52, 0
2, 263040, Note_on_c, 0, 40, 80
2, 263279, Note_on_c, 0, 40, 0
2, 263280, Note_on_c, 0, 55, 80
2, 263280, Note_on_c, 0, 52, 80
2, 263519, Note_on_c, 0, 55, 0
2, 263519, Note_on_c, 0, 52, 0
2, 263520, Note_on_c, 0, 40, 80
2, 263759, Note_on_c, 0, 40, 0
2, 263760, Note_on_c, 0, 55, 80
2, 263760, Note_on_c, 0, 52, 80
2, 263999, Note_on_c, 0, 55, 0
2, 263999, Note_on_c, 0, 52, 0
2, 264000, Note_on_c, 0, 40, 80
2, 264239, Note_on_c, 0, 40, 0
2, 264240, Note_on_c, 0, 55, 80
2, 264240, Note_on_c, 0, 52, 80
2, 264479, Note_on_c, 0, 55, 0
2, 264479, Note_on_c, 0, 52, 0
2, 264480, Note_on_c, 0, 37, 80
2, 264719, Note_on_c, 0, 37, 0
2, 264720, Note_on_c, 0, 52, 80
2, 264720, Note_on_c, 0, 49, 80
2, 264959, Note_on_c, 0, 52, 0
2, 264959, Note_on_c, 0, 49, 0
2, 264960, Note_on_c, 0, 37, 80
2, 265199, Note_on_c, 0, 37, 0
2, 265200, Note_on_c, 0, 52, 80
2, 265200, Note_on_c, 0, 49, 80
2, 265439, Note_on_c, 0, 52, 0
2, 265439, Note_on_c, 0, 49, 0
2, 265440, Note_on_c, 0, 37, 80
2, 265679, Note_on_c, 0, 37, 0
2, 265680, Note_on_c, 0, 52, 80
2, 265680, Note_on_c, 0, 49, 80
2, 265919, Note_on_c, 0, 52, 0
2, 265919, Note_on_c, 0, 49, 0
2, 265920, Note_on_c, 0, 37, 80
2, 266159, Note_on_c, 0, 37, 0
2, 266160, Note_on_c, 0, 52, 80
2, 266160, Note_on_c, 0, 49, 80
2, 266399, Note_on_c, 0, 52, 0
2, 266399, Note_on_c, 0, 49, 0
2, 266400, Note_on_c, 0, 37, 80
2, 266639, Note_on_c, 0, 37, 0
2, 266640, Note_on_c, 0, 52, 80
2, 266640, Note_on_c, 0, 49, 80
2, 266879, Note_on_c, 0, 52, 0
2, 266879, Note_on_c, 0, 49, 0
2, 266880, Note_on_c, 0, 37, 80
2, 267119, Note_on_c, 0, 37, 0
2, 267120, Note_on_c, 0, 52, 80
2, 267120, Note_on_c, 0, 49, 80
2, 267359, Note_on_c, 0, 52, 0
2, 267359, Note_on_c, 0, 49, 0
2, 267360, Note_on_c, 0, 37, 80
2, 267599, Note_on_c, 0, 37, 0
2, 267600, Note_on_c, 0, 52, 80
2, 267600, Note_on_c, 0, 49, 80
2, 267839, Note_on_c, 0, 52, 0
2, 267839, Note_on_c, 0, 49, 0
2, 267840, Note_on_c, 0, 37, 80
2, 268079, Note_on_c, 0, 37, 0
2, 268080, Note_on_c, 0, 52, 80
2, 268080, Note_on_c, 0, 49, 80
2, 268319, Note_on_c, 0, 52, 0
2, 268319, Note_on_c, 0, 49, 0
2, 268320, Note_on_c, 0, 36, 80
2, 268559, Note_on_c, 0, 36, 0
2, 268560, Note_on_c, 0, 52, 80
2, 268560, Note_on_c, 0, 48, 80
2, 268799, Note_on_c, 0, 52, 0
2, 268799, Note_on_c, 0, 48, 0
2, 268800, Note_on_c, 0, 36, 80
2, 269039, Note_on_c, 0, 36, 0
2, 269040, Note_on_c, 0, 52, 80
2, 269040, Note_on_c, 0, 48, 80
2, 269279, Note_on_c, 0, 52, 0
2, 269279, Note_on_c, 0, 48, 0
2, 269280, Note_on_c, 0, 38, 80
2, 269519, Note_on_c, 0, 38, 0
2, 269520, Note_on_c, 0, 50, 80
2, 269759, Note_on_c, 0, 50, 0
2, 269760, Note_on_c, 0, 38, 80
2, 269999, Note_on_c, 0, 38, 0
2, 270000, Note_on_c, 0, 50, 80
2, 270239, Note_on_c, 0, 50, 0
2, 270240, Note_on_c, 0, 40, 80
2, 270479, Note_on_c, 0, 40, 0
2, 270480, Note_on_c, 0, 55, 80
2, 270480, Note_on_c, 0, 52, 80
2, 270719, Note_on_c, 0, 55, 0
2, 270719, Note_on_c, 0, 52, 0
2, 270720, Note_on_c, 0, 40, 80
2, 270959, Note_on_c, 0, 40, 0
2, 270960, Note_on_c, 0, 55, 80
2, 270960, Note_on_c, 0, 52, 80
2, 271199, Note_on_c, 0, 55, 0
2, 271199, Note_on_c, 0, 52, 0
2, 271200, Note_on_c, 0, 50, 80
2, 271200, Note_on_c, 0, 38, 80
2, 271439, Note_on_c, 0, 50, 0
2, 271439, Note_on_c, 0, 38, 0
2, 271440, Note_on_c, 0, 50, 80
2, 271440, Note_on_c, 0, 38, 80
2, 271679, Note_on_c, 0, 50, 0
2, 271679, Note_on_c, 0, 38, 0
2, 271680, Note_on_c, 0, 50, 80
2, 271680, Note_on_c, 0, 38, 80
2, 271919, Note_on_c, 0, 50, 0
2, 271919, Note_on_c, 0, 38, 0
2, 271920, Note_on_c, 0, 50, 80
2, 271920, Note_on_c, 0, 38, 80
2, 272159, Note_on_c, 0, 50, 0
2, 272159, Note_on_c, 0, 38, 0
2, 272640, Note_on_c, 0, 48, 112
2, 272640, Note_on_c, 0, 36, 112
2, 273119, Note_on_c, 0, 48, 0
2, 273119, Note_on_c, 0, 36, 0
2, 273120, Note_on_c, 0, 36, 80
2, 273359, Note_on_c, 0, 36, 0
2, 273360, Note_on_c, 0, 52, 80
2, 273360, Note_on_c, 0, 48, 80
2, 273599, Note_on_c, 0, 52, 0
2, 273599, Note_on_c, 0, 48, 0
2, 273600, Note_on_c, 0, 36, 80
2, 273839, Note_on_c, 0, 36, 0
2, 273840, Note_on_c, 0, 52, 80
2, 273840, Note_on_c, 0, 48, 80
2, 274079, Note_on_c, 0, 52, 0
2, 274079, Note_on_c, 0, 48, 0
2, 274080, Note_on_c, 0, 48, 96
2, 274080, Note_on_c, 0, 36, 96
2, 274559, Note_on_c, 0, 48, 0
2, 274559, Note_on_c, 0, 36, 0
2, 275520, Note_on_c, 0, 48, 112
2, 275520, Note_on_c, 0, 36, 112
2, 275999, Note_on_c, 0, 48, 0
2, 275999, Note_on_c, 0, 36, 0
2, 276480, Note_on_c, 0, 52, 112
2, 276480, Note_on_c, 0, 40, 112
2, 276959, Note_on_c, 0, 52, 0
2, 276959, Note_on_c, 0, 40, 0
2, 276960, Note_on_c, 0, 40, 80
2, 277199, Note_on_c, 0, 40, 0
2, 277200, Note_on_c, 0, 55, 80
2, 277200, Note_on_c, 0, 52, 80
2, 277439, Note_on_c, 0, 55, 0
2, 277439, Note_on_c, 0, 52, 0
2, 277440, Note_on_c, 0, 40, 80
2, 277679, Note_on_c, 0, 40, 0
2, 277680, Note_on_c, 0, 55, 80
2, 277680, Note_on_c, 0, 52, 80
2, 277919, Note_on_c, 0, 55, 0
2, 277919, Note_on_c, 0, 52, 0
2, 277920, Note_on_c, 0, 52, 96
2, 277920, Note_on_c, 0, 40, 96
2, 278279, Note_on_c, 0, 52, 0
2, 278279, Note_on_c, 0, 40, 0
2, 278640, Note_on_c, 0, 52, 96
2, 278640, Note_on_c, 0, 40, 96
2, 278999, Note_on_c, 0, 52, 0
2, 278999, Note_on_c, 0, 40, 0
2, 279000, Note_on_c, 0, 51, 96
2, 279000, Note_on_c, 0, 39, 96
2, 279359, Note_on_c, 0, 51, 0
2, 279359, Note_on_c, 0, 39, 0
2, 279360, Note_on_c, 0, 50, 96
2, 279360, Note_on_c, 0, 38, 96
2, 279839, Note_on_c, 0, 50, 0
2, 279839, Note_on_c, 0, 38, 0
2, 279840, Note_on_c, 0, 37, 80
2, 280079, Note_on_c, 0, 37, 0
2, 280080, Note_on_c, 0, 52, 80
2, 280080, Note_on_c, 0, 49, 80
2, 280319, Note_on_c, 0, 52, 0
2, 280319, Note_on_c, 0, 49, 0
2, 280320, Note_on_c, 0, 37, 80
2, 280559, Note_on_c, 0, 37, 0
2, 280560, Note_on_c, 0, 52, 80
2, 280560, Note_on_c, 0, 49, 80
2, 280799, Note_on_c, 0, 52, 0
2, 280799, Note_on_c, 0, 49, 0
2, 280800, Note_on_c, 0, 37, 80
2, 281039, Note_on_c, 0, 37, 0
2, 281040, Note_on_c, 0, 52, 80
2, 281040, Note_on_c, 0, 49, 80
2, 281279, Note_on_c, 0, 52, 0
2, 281279, Note_on_c, 0, 49, 0
2, 281280, Note_on_c, 0, 37, 80
2, 281519, Note_on_c, 0, 37, 0
2, 281520, Note_on_c, 0, 52, 80
2, 281520, Note_on_c, 0, 49, 80
2, 281759, Note_on_c, 0, 52, 0
2, 281759, Note_on_c, 0, 49, 0
2, 281760, Note_on_c, 0, 37, 80
2, 281999, Note_on_c, 0, 37, 0
2, 282000, Note_on_c, 0, 52, 80
2, 282000, Note_on_c, 0, 49, 80
2, 282239, Note_on_c, 0, 52, 0
2, 282239, Note_on_c, 0, 49, 0
2, 282240, Note_on_c, 0, 37, 80
2, 282479, Note_on_c, 0, 37, 0
2, 282480, Note_on_c, 0, 52, 80
2, 282480, Note_on_c, 0, 49, 80
2, 282719, Note_on_c, 0, 52, 0
2, 282719, Note_on_c, 0, 49, 0
2, 282720, Note_on_c, 0, 37, 80
2, 282959, Note_on_c, 0, 37, 0
2, 282960, Note_on_c, 0, 52, 80
2, 282960, Note_on_c, 0, 49, 80
2, 283199, Note_on_c, 0, 52, 0
2, 283199, Note_on_c, 0, 49, 0
2, 283200, Note_on_c, 0, 37, 80
2, 283439, Note_on_c, 0, 37, 0
2, 283440, Note_on_c, 0, 52, 80
2, 283440, Note_on_c, 0, 49, 80
2, 283679, Note_on_c, 0, 52, 0
2, 283679, Note_on_c, 0, 49, 0
2, 283680, Note_on_c, 0, 48, 80
2, 283680, Note_on_c, 0, 36, 80
2, 284159, Note_on_c, 0, 48, 0
2, 284159, Note_on_c, 0, 36, 0
2, 284160, Note_on_c, 0, 36, 80
2, 284399, Note_on_c, 0, 36, 0
2, 284400, Note_on_c, 0, 50, 80
2, 284400, Note_on_c, 0, 38, 80
2, 284640, Key_signature, 6, "major"
2, 284879, Note_on_c, 0, 50, 0
2, 284879, Note_on_c, 0, 38, 0
2, 284880, Note_on_c, 0, 38, 80
2, 285119, Note_on_c, 0, 38, 0
2, 285120, Note_on_c, 0, 50, 80
2, 285359, Note_on_c, 0, 50, 0
2, 285360, Note_on_c, 0, 52, 80
2, 285360, Note_on_c, 0, 40, 80
2, 287039, Note_on_c, 0, 52, 0
2, 287039, Note_on_c, 0, 40, 0
2, 287040, Note_on_c, 0, 52, 80
2, 287040, Note_on_c, 0, 40, 80
2, 287519, Note_on_c, 0, 52, 0
2, 287519, Note_on_c, 0, 40, 0
2, 287520, Note_on_c, 0, 35, 80
2, 287759, Note_on_c, 0, 35, 0
2, 287760, Note_on_c, 0, 51, 80
2, 287999, Note_on_c, 0, 51, 0
2, 288000, Note_on_c, 0, 35, 80
2, 288239, Note_on_c, 0, 35, 0
2, 288240, Note_on_c, 0, 51, 80
2, 288479, Note_on_c, 0, 51, 0
2, 288480, Note_on_c, 0, 37, 80
2, 288719, Note_on_c, 0, 37, 0
2, 288720, Note_on_c, 0, 53, 80
2, 288720, Note_on_c, 0, 49, 80
2, 288959, Note_on_c, 0, 53, 0
2, 288959, Note_on_c, 0, 49, 0
2, 288960, Note_on_c, 0, 37, 80
2, 289199, Note_on_c, 0, 37, 0
2, 289200, Note_on_c, 0, 53, 80
2, 289200, Note_on_c, 0, 49, 80
2, 289439, Note_on_c, 0, 53, 0
2, 289439, Note_on_c, 0, 49, 0
2, 289440, Note_on_c, 0, 34, 80
2, 289679, Note_on_c, 0, 34, 0
2, 289680, Note_on_c, 0, 49, 80
2, 289680, Note_on_c, 0, 46, 80
2, 289919, Note_on_c, 0, 49, 0
2, 289919, Note_on_c, 0, 46, 0
2, 289920, Note_on_c, 0, 34, 80
2, 290159, Note_on_c, 0, 34, 0
2, 290160, Note_on_c, 0, 49, 80
2, 290160, Note_on_c, 0, 46, 80
2, 290399, Note_on_c, 0, 49, 0
2, 290399, Note_on_c, 0, 46, 0
2, 290400, Note_on_c, 0, 39, 80
2, 290639, Note_on_c, 0, 39, 0
2, 290640, Note_on_c, 0, 54, 80
2, 290640, Note_on_c, 0, 51, 80
2, 290879, Note_on_c, 0, 54, 0
2, 290879, Note_on_c, 0, 51, 0
2, 290880, Note_on_c, 0, 37, 80
2, 291119, Note_on_c, 0, 37, 0
2, 291120, Note_on_c, 0, 53, 80
2, 291120, Note_on_c, 0, 49, 80
2, 291359, Note_on_c, 0, 53, 0
2, 291359, Note_on_c, 0, 49, 0
2, 291360, Note_on_c, 0, 35, 80
2, 291599, Note_on_c, 0, 35, 0
2, 291600, Note_on_c, 0, 51, 80
2, 291839, Note_on_c, 0, 51, 0
2, 291840, Note_on_c, 0, 35, 80
2, 292079, Note_on_c, 0, 35, 0
2, 292080, Note_on_c, 0, 51, 80
2, 292319, Note_on_c, 0, 51, 0
2, 292320, Note_on_c, 0, 37, 80
2, 292559, Note_on_c, 0, 37, 0
2, 292560, Note_on_c, 0, 53, 80
2, 292560, Note_on_c, 0, 49, 80
2, 292799, Note_on_c, 0, 53, 0
2, 292799, Note_on_c, 0, 49, 0
2, 292800, Note_on_c, 0, 37, 80
2, 293039, Note_on_c, 0, 37, 0
2, 293040, Note_on_c, 0, 53, 80
2, 293040, Note_on_c, 0, 49, 80
2, 293279, Note_on_c, 0, 53, 0
2, 293279, Note_on_c, 0, 49, 0
2, 293280, Note_on_c, 0, 51, 80
2, 293280, Note_on_c, 0, 39, 80
2, 293639, Note_on_c, 0, 51, 0
2, 293639, Note_on_c, 0, 39, 0
2, 293640, Note_on_c, 0, 51, 80
2, 293640, Note_on_c, 0, 39, 80
2, 293999, Note_on_c, 0, 51, 0
2, 293999, Note_on_c, 0, 39, 0
2, 294000, Note_on_c, 0, 54, 80
2, 294000, Note_on_c, 0, 42, 80
2, 294359, Note_on_c, 0, 54, 0
2, 294359, Note_on_c, 0, 42, 0
2, 294360, Note_on_c, 0, 54, 80
2, 294360, Note_on_c, 0, 42, 80
2, 294719, Note_on_c, 0, 54, 0
2, 294719, Note_on_c, 0, 42, 0
2, 294720, Note_on_c, 0, 51, 80
2, 294720, Note_on_c, 0, 39, 80
2, 294959, Note_on_c, 0, 51, 0
2, 294959, Note_on_c, 0, 39, 0
2, 294960, Note_on_c, 0, 51, 80
2, 294960, Note_on_c, 0, 39, 80
2, 295199, Note_on_c, 0, 51, 0
2, 295199, Note_on_c, 0, 39, 0
2, 295200, Note_on_c, 0, 35, 80
2, 295439, Note_on_c, 0, 35, 0
2, 295440, Note_on_c, 0, 51, 80
2, 295679, Note_on_c, 0, 51, 0
2, 295680, Note_on_c, 0, 35, 80
2, 295919, Note_on_c, 0, 35, 0
2, 295920, Note_on_c, 0, 51, 80
2, 296159, Note_on_c, 0, 51, 0
2, 296160, Note_on_c, 0, 37, 80
2, 296399, Note_on_c, 0, 37, 0
2, 296400, Note_on_c, 0, 53, 80
2, 296400, Note_on_c, 0, 49, 80
2, 296639, Note_on_c, 0, 53, 0
2, 296639, Note_on_c, 0, 49, 0
2, 296640, Note_on_c, 0, 37, 80
2, 296879, Note_on_c, 0, 37, 0
2, 296880, Note_on_c, 0, 53, 80
2, 296880, Note_on_c, 0, 49, 80
2, 297119, Note_on_c, 0, 53, 0
2, 297119, Note_on_c, 0, 49, 0
2, 297120, Note_on_c, 0, 34, 80
2, 297359, Note_on_c, 0, 34, 0
2, 297360, Note_on_c, 0, 49, 80
2, 297360, Note_on_c, 0, 46, 80
2, 297599, Note_on_c, 0, 49, 0
2, 297599, Note_on_c, 0, 46, 0
2, 297600, Note_on_c, 0, 34, 80
2, 297839, Note_on_c, 0, 34, 0
2, 297840, Note_on_c, 0, 49, 80
2, 297840, Note_on_c, 0, 46, 80
2, 298079, Note_on_c, 0, 49, 0
2, 298079, Note_on_c, 0, 46, 0
2, 298080, Note_on_c, 0, 39, 80
2, 298319, Note_on_c, 0, 39, 0
2, 298320, Note_on_c, 0, 54, 80
2, 298320, Note_on_c, 0, 51, 80
2, 298559, Note_on_c, 0, 54, 0
2, 298559, Note_on_c, 0, 51, 0
2, 298560, Note_on_c, 0, 37, 80
2, 298799, Note_on_c, 0, 37, 0
2, 298800, Note_on_c, 0, 53, 80
2, 298800, Note_on_c, 0, 49, 80
2, 299039, Note_on_c, 0, 53, 0
2, 299039, Note_on_c, 0, 49, 0
2, 299040, Note_on_c, 0, 35, 80
2, 299279, Note_on_c, 0, 35, 0
2, 299280, Note_on_c, 0, 51, 80
2, 299519, Note_on_c, 0, 51, 0
2, 299520, Note_on_c, 0, 35, 80
2, 299759, Note_on_c, 0, 35, 0
2, 299760, Note_on_c, 0, 51, 80
2, 299999, Note_on_c, 0, 51, 0
2, 300000, Note_on_c, 0, 37, 80
2, 300239, Note_on_c, 0, 37, 0
2, 300240, Note_on_c, 0, 53, 80
2, 300240, Note_on_c, 0, 49, 80
2, 300479, Note_on_c, 0, 53, 0
2, 300479, Note_on_c, 0, 49, 0
2, 300480, Note_on_c, 0, 37, 80
2, 300719, Note_on_c, 0, 37, 0
2, 300720, Note_on_c, 0, 53, 80
2, 300720, Note_on_c, 0, 49, 80
2, 300959, Note_on_c, 0, 53, 0
2, 300959, Note_on_c, 0, 49, 0
2, 300960, Note_on_c, 0, 51, 80
2, 300960, Note_on_c, 0, 39, 80
2, 301319, Note_on_c, 0, 51, 0
2, 301319, Note_on_c, 0, 39, 0
2, 301320, Note_on_c, 0, 51, 80
2, 301320, Note_on_c, 0, 39, 80
2, 301679, Note_on_c, 0, 51, 0
2, 301679, Note_on_c, 0, 39, 0
2, 301680, Note_on_c, 0, 51, 80
2, 301680, Note_on_c, 0, 39, 80
2, 302039, Note_on_c, 0, 51, 0
2, 302039, Note_on_c, 0, 39, 0
2, 302040, Note_on_c, 0, 51, 80
2, 302040, Note_on_c, 0, 39, 80
2, 302399, Note_on_c, 0, 51, 0
2, 302399, Note_on_c, 0, 39, 0
2, 302400, Note_on_c, 0, 49, 80
2, 302400, Note_on_c, 0, 37, 80
2, 302639, Note_on_c, 0, 49, 0
2, 302639, Note_on_c, 0, 37, 0
2, 302640, Note_on_c, 0, 49, 80
2, 302640, Note_on_c, 0, 37, 80
2, 302879, Note_on_c, 0, 49, 0
2, 302879, Note_on_c, 0, 37, 0
2, 302880, Note_on_c, 0, 35, 80
2, 303119, Note_on_c, 0, 35, 0
2, 303120, Note_on_c, 0, 51, 80
2, 303359, Note_on_c, 0, 51, 0
2, 303360, Note_on_c, 0, 35, 80
2, 303599, Note_on_c, 0, 35, 0
2, 303600, Note_on_c, 0, 51, 80
2, 303839, Note_on_c, 0, 51, 0
2, 303840, Note_on_c, 0, 37, 80
2, 304079, Note_on_c, 0, 37, 0
2, 304080, Note_on_c, 0, 53, 80
2, 304080, Note_on_c, 0, 49, 80
2, 304319, Note_on_c, 0, 53, 0
2, 304319, Note_on_c, 0, 49, 0
2, 304320, Note_on_c, 0, 37, 80
2, 304559, Note_on_c, 0, 37, 0
2, 304560, Note_on_c, 0, 53, 80
2, 304560, Note_on_c, 0, 49, 80
2, 304799, Note_on_c, 0, 53, 0
2, 304799, Note_on_c, 0, 49, 0
2, 304800, Note_on_c, 0, 34, 80
2, 305039, Note_on_c, 0, 34, 0
2, 305040, Note_on_c, 0, 49, 80
2, 305040, Note_on_c, 0, 46, 80
2, 305279, Note_on_c, 0, 49, 0
2, 305279, Note_on_c, 0, 46, 0
2, 305280, Note_on_c, 0, 34, 80
2, 305519, Note_on_c, 0, 34, 0
2, 305520, Note_on_c, 0, 49, 80
2, 305520, Note_on_c, 0, 46, 80
2, 305759, Note_on_c, 0, 49, 0
2, 305759, Note_on_c, 0, 46, 0
2, 305760, Note_on_c, 0, 39, 80
2, 305999, Note_on_c, 0, 39, 0
2, 306000, Note_on_c, 0, 51, 80
2, 306239, Note_on_c, 0, 51, 0
2, 306240, Note_on_c, 0, 37, 80
2, 306479, Note_on_c, 0, 37, 0
2, 306480, Note_on_c, 0, 49, 80
2, 306719, Note_on_c, 0, 49, 0
2, 306720, Note_on_c, 0, 35, 80
2, 306959, Note_on_c, 0, 35, 0
2, 306960, Note_on_c, 0, 51, 80
2, 307199, Note_on_c, 0, 51, 0
2, 307200, Note_on_c, 0, 35, 80
2, 307439, Note_on_c, 0, 35, 0
2, 307440, Note_on_c, 0, 51, 80
2, 307679, Note_on_c, 0, 51, 0
2, 307680, Note_on_c, 0, 37, 80
2, 307919, Note_on_c, 0, 37, 0
2, 307920, Note_on_c, 0, 53, 80
2, 307920, Note_on_c, 0, 49, 80
2, 308159, Note_on_c, 0, 53, 0
2, 308159, Note_on_c, 0, 49, 0
2, 308160, Note_on_c, 0, 37, 80
2, 308399, Note_on_c, 0, 37, 0
2, 308400, Note_on_c, 0, 53, 80
2, 308400, Note_on_c, 0, 49, 80
2, 308639, Note_on_c, 0, 53, 0
2, 308639, Note_on_c, 0, 49, 0
2, 308640, Note_on_c, 0, 51, 80
2, 308640, Note_on_c, 0, 39, 80
2, 309119, Note_on_c, 0, 51, 0
2, 309119, Note_on_c, 0, 39, 0
2, 309120, Note_on_c, 0, 51, 80
2, 309120, Note_on_c, 0, 39, 80
2, 309359, Note_on_c, 0, 51, 0
2, 309359, Note_on_c, 0, 39, 0
2, 309360, Note_on_c, 0, 51, 80
2, 309360, Note_on_c, 0, 39, 80
2, 309839, Note_on_c, 0, 51, 0
2, 309839, Note_on_c, 0, 39, 0
2, 309840, Note_on_c, 0, 51, 80
2, 309840, Note_on_c, 0, 39, 80
2, 310079, Note_on_c, 0, 51, 0
2, 310079, Note_on_c, 0, 39, 0
2, 310080, Note_on_c, 0, 49, 80
2, 310080, Note_on_c, 0, 37, 80
2, 310559, Note_on_c, 0, 49, 0
2, 310559, Note_on_c, 0, 37, 0
2, 310560, Note_on_c, 0, 35, 80
2, 310799, Note_on_c, 0, 35, 0
2, 310800, Note_on_c, 0, 51, 80
2, 311039, Note_on_c, 0, 51, 0
2, 311040, Note_on_c, 0, 35, 80
2, 311279, Note_on_c, 0, 35, 0
2, 311280, Note_on_c, 0, 51, 80
2, 311519, Note_on_c, 0, 51, 0
2, 311520, Note_on_c, 0, 37, 80
2, 311759, Note_on_c, 0, 37, 0
2, 311760, Note_on_c, 0, 49, 80
2, 311999, Note_on_c, 0, 49, 0
2, 312000, Note_on_c, 0, 37, 80
2, 312239, Note_on_c, 0, 37, 0
2, 312240, Note_on_c, 0, 49, 80
2, 312479, Note_on_c, 0, 49, 0
2, 312480, Note_on_c, 0, 39, 80
2, 312719, Note_on_c, 0, 39, 0
2, 312720, Note_on_c, 0, 51, 80
2, 312959, Note_on_c, 0, 51, 0
2, 312960, Note_on_c, 0, 39, 80
2, 313199, Note_on_c, 0, 39, 0
2, 313200, Note_on_c, 0, 51, 80
2, 313439, Note_on_c, 0, 51, 0
2, 313440, Note_on_c, 0, 39, 80
2, 313679, Note_on_c, 0, 39, 0
2, 313680, Note_on_c, 0, 54, 80
2, 313680, Note_on_c, 0, 51, 80
2, 313919, Note_on_c, 0, 54, 0
2, 313919, Note_on_c, 0, 51, 0
2, 313920, Note_on_c, 0, 39, 80
2, 314159, Note_on_c, 0, 39, 0
2, 314160, Note_on_c, 0, 54, 80
2, 314160, Note_on_c, 0, 51, 80
2, 314399, Note_on_c, 0, 54, 0
2, 314399, Note_on_c, 0, 51, 0
2, 314400, Note_on_c, 0, 35, 80
2, 314639, Note_on_c, 0, 35, 0
2, 314640, Note_on_c, 0, 51, 80
2, 314879, Note_on_c, 0, 51, 0
2, 314880, Note_on_c, 0, 35, 80
2, 315119, Note_on_c, 0, 35, 0
2, 315120, Note_on_c, 0, 51, 80
2, 315359, Note_on_c, 0, 51, 0
2, 315360, Note_on_c, 0, 37, 80
2, 315599, Note_on_c, 0, 37, 0
2, 315600, Note_on_c, 0, 53, 80
2, 315600, Note_on_c, 0, 49, 80
2, 315839, Note_on_c, 0, 53, 0
2, 315839, Note_on_c, 0, 49, 0
2, 315840, Note_on_c, 0, 37, 80
2, 316079, Note_on_c, 0, 37, 0
2, 316080, Note_on_c, 0, 53, 80
2, 316080, Note_on_c, 0, 49, 80
2, 316319, Note_on_c, 0, 53, 0
2, 316319, Note_on_c, 0, 49, 0
2, 316320, Note_on_c, 0, 51, 80
2, 316320, Note_on_c, 0, 39, 80
2, 316679, Note_on_c, 0, 51, 0
2, 316679, Note_on_c, 0, 39, 0
2, 316680, Note_on_c, 0, 51, 80
2, 316680, Note_on_c, 0, 39, 80
2, 317039, Note_on_c, 0, 51, 0
2, 317039, Note_on_c, 0, 39, 0
2, 317040, Note_on_c, 0, 51, 80
2, 317040, Note_on_c, 0, 39, 80
2, 317399, Note_on_c, 0, 51, 0
2, 317399, Note_on_c, 0, 39, 0
2, 317400, Note_on_c, 0, 51, 80
2, 317400, Note_on_c, 0, 39, 80
2, 317759, Note_on_c, 0, 51, 0
2, 317759, Note_on_c, 0, 39, 0
2, 317760, Note_on_c, 0, 49, 80
2, 317760, Note_on_c, 0, 37, 80
2, 317999, Note_on_c, 0, 49, 0
2, 317999, Note_on_c, 0, 37, 0
2, 318000, Note_on_c, 0, 49, 80
2, 318000, Note_on_c, 0, 37, 80
2, 318239, Note_on_c, 0, 49, 0
2, 318239, Note_on_c, 0, 37, 0
2, 318240, Note_on_c, 0, 47, 80
2, 318240, Note_on_c, 0, 42, 80
2, 318240, Note_on_c, 0, 35, 80
2, 318719, Note_on_c, 0, 47, 0
2, 318719, Note_on_c, 0, 42, 0
2, 318719, Note_on_c, 0, 35, 0
2, 319080, Note_on_c, 0, 49, 80
2, 319080, Note_on_c, 0, 44, 80
2, 319080, Note_on_c, 0, 37, 80
2, 319919, Note_on_c, 0, 49, 0
2, 319919, Note_on_c, 0, 44, 0
2, 319919, Note_on_c, 0, 37, 0
2, 321600, Note_on_c, 0, 39, 80
2, 321600, Note_on_c, 0, 27, 80
2, 324959, Note_on_c, 0, 39, 0
2, 324959, Note_on_c, 0, 27, 0
2, 324960, Note_on_c, 0, 34, 80
2, 325079, Note_on_c, 0, 34, 0
2, 325080, Note_on_c, 0, 27, 80
2, 325199, Note_on_c, 0, 27, 0
2, 325200, End_track
0, 0, End_of_file
