0, 0, Header, 1, 2, 256
1, 0, Start_track
1, 0, Time_signature, 4, 2, 24, 8
1, 0, Key_signature, -1, "major"
1, 0, Tempo, 454544
1, 88064, Time_signature, 5, 2, 24, 8
1, 89344, Time_signature, 4, 2, 24, 8
1, 89345, End_track
2, 0, Start_track
2, 0, Program_c, 0, 0
2, 0, Control_c, 0, 121, 0
2, 0, Control_c, 0, 64, 0
2, 0, Control_c, 0, 91, 48
2, 0, Control_c, 0, 10, 51
2, 0, Control_c, 0, 7, 100
2, 0, Note_on_c, 0, 53, 72
2, 0, Note_on_c, 0, 57, 72
2, 0, Control_c, 0, 121, 0
2, 0, Control_c, 0, 64, 0
2, 0, Control_c, 0, 91, 48
2, 0, Control_c, 0, 10, 51
2, 0, Control_c, 0, 7, 100
2, 0, Title_t, "Piano"
2, 128, Note_off_c, 0, 53, 0
2, 128, Note_off_c, 0, 57, 0
2, 128, Note_on_c, 0, 62, 84
2, 256, Note_off_c, 0, 62, 0
2, 256, Note_on_c, 0, 53, 73
2, 256, Note_on_c, 0, 57, 73
2, 384, Note_off_c, 0, 53, 0
2, 384, Note_off_c, 0, 57, 0
2, 384, Note_on_c, 0, 62, 84
2, 512, Note_off_c, 0, 62, 0
2, 512, Note_on_c, 0, 53, 78
2, 512, Note_on_c, 0, 57, 78
2, 640, Note_off_c, 0, 53, 0
2, 640, Note_off_c, 0, 57, 0
2, 640, Note_on_c, 0, 62, 85
2, 768, Note_off_c, 0, 62, 0
2, 768, Note_on_c, 0, 53, 78
2, 768, Note_on_c, 0, 57, 78
2, 896, Note_off_c, 0, 53, 0
2, 896, Note_off_c, 0, 57, 0
2, 896, Note_on_c, 0, 62, 85
2, 942, Note_on_c, 0, 45, 116
2, 968, Note_on_c, 0, 47, 116
2, 996, Note_on_c, 0, 49, 116
2, 1024, Note_off_c, 0, 62, 0
2, 1024, Note_on_c, 0, 53, 71
2, 1024, Note_on_c, 0, 57, 71
2, 1024, Note_on_c, 0, 50, 116
2, 1024, Note_off_c, 0, 45, 0
2, 1024, Note_off_c, 0, 47, 0
2, 1024, Note_off_c, 0, 49, 0
2, 1152, Note_off_c, 0, 53, 0
2, 1152, Note_off_c, 0, 57, 0
2, 1152, Note_on_c, 0, 62, 85
2, 1280, Note_off_c, 0, 62, 0
2, 1280, Note_on_c, 0, 53, 70
2, 1280, Note_on_c, 0, 57, 70
2, 1280, Note_off_c, 0, 50, 0
2, 1280, Note_on_c, 0, 45, 69
2, 1408, Note_off_c, 0, 53, 0
2, 1408, Note_off_c, 0, 57, 0
2, 1408, Note_on_c, 0, 62, 85
2, 1536, Note_off_c, 0, 62, 0
2, 1536, Note_off_c, 0, 45, 0
2, 1536, Note_on_c, 0, 41, 50
2, 1664, Note_on_c, 0, 69, 76
2, 1792, Note_off_c, 0, 69, 0
2, 1792, Note_on_c, 0, 69, 85
2, 1792, Note_off_c, 0, 41, 0
2, 1792, Note_on_c, 0, 38, 81
2, 1920, Note_off_c, 0, 69, 0
2, 1920, Note_on_c, 0, 69, 84
2, 2048, Note_off_c, 0, 69, 0
2, 2048, Note_on_c, 0, 65, 91
2, 2048, Note_on_c, 0, 69, 91
2, 2048, Note_on_c, 0, 74, 91
2, 2048, Note_off_c, 0, 38, 0
2, 2048, Note_on_c, 0, 50, 95
2, 2176, Note_off_c, 0, 50, 0
2, 2176, Note_on_c, 0, 50, 87
2, 2304, Note_off_c, 0, 50, 0
2, 2304, Note_on_c, 0, 50, 82
2, 2432, Note_off_c, 0, 65, 0
2, 2432, Note_off_c, 0, 69, 0
2, 2432, Note_off_c, 0, 74, 0
2, 2432, Note_on_c, 0, 62, 69
2, 2432, Note_on_c, 0, 65, 69
2, 2432, Note_on_c, 0, 69, 69
2, 2432, Note_off_c, 0, 50, 0
2, 2432, Note_on_c, 0, 50, 87
2, 2560, Note_off_c, 0, 62, 0
2, 2560, Note_off_c, 0, 65, 0
2, 2560, Note_off_c, 0, 69, 0
2, 2560, Note_on_c, 0, 69, 101
2, 2560, Note_on_c, 0, 74, 101
2, 2560, Note_on_c, 0, 77, 101
2, 2560, Note_off_c, 0, 50, 0
2, 2560, Note_on_c, 0, 50, 86
2, 2688, Note_off_c, 0, 69, 0
2, 2688, Note_off_c, 0, 74, 0
2, 2688, Note_off_c, 0, 77, 0
2, 2688, Note_on_c, 0, 69, 89
2, 2688, Note_on_c, 0, 74, 89
2, 2688, Note_on_c, 0, 77, 89
2, 2688, Note_off_c, 0, 50, 0
2, 2688, Note_on_c, 0, 50, 88
2, 2816, Note_off_c, 0, 69, 0
2, 2816, Note_off_c, 0, 74, 0
2, 2816, Note_off_c, 0, 77, 0
2, 2816, Note_on_c, 0, 67, 80
2, 2816, Note_on_c, 0, 73, 80
2, 2816, Note_on_c, 0, 76, 80
2, 2816, Note_off_c, 0, 50, 0
2, 2816, Note_on_c, 0, 50, 84
2, 2944, Note_off_c, 0, 67, 0
2, 2944, Note_off_c, 0, 73, 0
2, 2944, Note_off_c, 0, 76, 0
2, 2944, Note_on_c, 0, 67, 83
2, 2944, Note_on_c, 0, 73, 83
2, 2944, Note_on_c, 0, 76, 83
2, 2944, Note_off_c, 0, 50, 0
2, 2944, Note_on_c, 0, 50, 86
2, 3072, Note_off_c, 0, 67, 0
2, 3072, Note_off_c, 0, 73, 0
2, 3072, Note_off_c, 0, 76, 0
2, 3072, Note_on_c, 0, 65, 78
2, 3072, Note_on_c, 0, 74, 78
2, 3072, Note_off_c, 0, 50, 0
2, 3072, Note_on_c, 0, 50, 82
2, 3200, Note_off_c, 0, 50, 0
2, 3200, Note_on_c, 0, 50, 84
2, 3328, Note_off_c, 0, 65, 0
2, 3328, Note_off_c, 0, 74, 0
2, 3328, Note_on_c, 0, 69, 76
2, 3328, Note_off_c, 0, 50, 0
2, 3328, Note_on_c, 0, 50, 85
2, 3456, Note_off_c, 0, 50, 0
2, 3456, Note_on_c, 0, 50, 82
2, 3531, Note_off_c, 0, 69, 0
2, 3531, Note_on_c, 0, 69, 111
2, 3556, Note_on_c, 0, 74, 111
2, 3584, Note_on_c, 0, 77, 111
2, 3584, Note_off_c, 0, 69, 0
2, 3584, Note_off_c, 0, 74, 0
2, 3584, Note_off_c, 0, 50, 0
2, 3584, Note_on_c, 0, 50, 99
2, 3584, Note_on_c, 0, 53, 99
2, 3648, Note_off_c, 0, 50, 0
2, 3648, Note_off_c, 0, 53, 0
2, 3648, Note_on_c, 0, 57, 99
2, 3712, Note_off_c, 0, 57, 0
2, 3712, Note_on_c, 0, 50, 94
2, 3712, Note_on_c, 0, 53, 94
2, 3776, Note_off_c, 0, 50, 0
2, 3776, Note_off_c, 0, 53, 0
2, 3776, Note_on_c, 0, 57, 97
2, 3840, Note_off_c, 0, 77, 0
2, 3840, Note_on_c, 0, 76, 95
2, 3840, Note_off_c, 0, 57, 0
2, 3840, Note_on_c, 0, 50, 94
2, 3840, Note_on_c, 0, 53, 94
2, 3904, Note_off_c, 0, 76, 0
2, 3904, Note_on_c, 0, 74, 93
2, 3904, Note_off_c, 0, 50, 0
2, 3904, Note_off_c, 0, 53, 0
2, 3904, Note_on_c, 0, 57, 102
2, 3968, Note_off_c, 0, 74, 0
2, 3968, Note_on_c, 0, 73, 92
2, 3968, Note_off_c, 0, 57, 0
2, 3968, Note_on_c, 0, 50, 93
2, 3968, Note_on_c, 0, 53, 93
2, 4032, Note_off_c, 0, 73, 0
2, 4032, Note_on_c, 0, 74, 104
2, 4032, Note_off_c, 0, 50, 0
2, 4032, Note_off_c, 0, 53, 0
2, 4032, Note_on_c, 0, 57, 102
2, 4096, Note_off_c, 0, 74, 0
2, 4096, Note_on_c, 0, 73, 67
2, 4096, Note_on_c, 0, 79, 67
2, 4096, Note_off_c, 0, 57, 0
2, 4096, Note_on_c, 0, 52, 61
2, 4096, Note_on_c, 0, 55, 61
2, 4224, Note_off_c, 0, 52, 0
2, 4224, Note_off_c, 0, 55, 0
2, 4224, Note_on_c, 0, 52, 58
2, 4352, Note_off_c, 0, 52, 0
2, 4352, Note_on_c, 0, 52, 57
2, 4480, Note_off_c, 0, 52, 0
2, 4480, Note_on_c, 0, 52, 58
2, 4527, Note_off_c, 0, 73, 0
2, 4527, Note_off_c, 0, 79, 0
2, 4527, Note_on_c, 0, 70, 107
2, 4555, Note_on_c, 0, 73, 107
2, 4580, Note_on_c, 0, 76, 107
2, 4608, Note_on_c, 0, 79, 107
2, 4608, Note_off_c, 0, 70, 0
2, 4608, Note_off_c, 0, 73, 0
2, 4608, Note_off_c, 0, 76, 0
2, 4608, Note_off_c, 0, 52, 0
2, 4608, Note_on_c, 0, 52, 108
2, 4608, Note_on_c, 0, 55, 108
2, 4608, Note_on_c, 0, 58, 108
2, 4672, Note_off_c, 0, 52, 0
2, 4672, Note_off_c, 0, 55, 0
2, 4672, Note_off_c, 0, 58, 0
2, 4672, Note_on_c, 0, 61, 110
2, 4736, Note_off_c, 0, 61, 0
2, 4736, Note_on_c, 0, 52, 94
2, 4736, Note_on_c, 0, 55, 94
2, 4736, Note_on_c, 0, 58, 94
2, 4800, Note_off_c, 0, 52, 0
2, 4800, Note_off_c, 0, 55, 0
2, 4800, Note_off_c, 0, 58, 0
2, 4800, Note_on_c, 0, 61, 100
2, 4864, Note_off_c, 0, 79, 0
2, 4864, Note_on_c, 0, 76, 90
2, 4864, Note_off_c, 0, 61, 0
2, 4864, Note_on_c, 0, 52, 97
2, 4864, Note_on_c, 0, 55, 97
2, 4864, Note_on_c, 0, 58, 97
2, 4928, Note_off_c, 0, 52, 0
2, 4928, Note_off_c, 0, 55, 0
2, 4928, Note_off_c, 0, 58, 0
2, 4928, Note_on_c, 0, 61, 108
2, 4992, Note_on_c, 0, 73, 82
2, 4992, Note_off_c, 0, 61, 0
2, 4992, Note_on_c, 0, 52, 93
2, 4992, Note_on_c, 0, 55, 93
2, 4992, Note_on_c, 0, 58, 93
2, 4994, Note_off_c, 0, 76, 0
2, 5056, Note_off_c, 0, 52, 0
2, 5056, Note_off_c, 0, 55, 0
2, 5056, Note_off_c, 0, 58, 0
2, 5056, Note_on_c, 0, 61, 111
2, 5113, Note_off_c, 0, 73, 0
2, 5120, Note_on_c, 0, 74, 71
2, 5120, Note_on_c, 0, 81, 71
2, 5120, Note_off_c, 0, 61, 0
2, 5120, Note_on_c, 0, 53, 61
2, 5120, Note_on_c, 0, 57, 61
2, 5248, Note_off_c, 0, 53, 0
2, 5248, Note_off_c, 0, 57, 0
2, 5248, Note_on_c, 0, 53, 58
2, 5376, Note_off_c, 0, 74, 0
2, 5376, Note_off_c, 0, 81, 0
2, 5376, Note_on_c, 0, 74, 55
2, 5376, Note_off_c, 0, 53, 0
2, 5376, Note_on_c, 0, 53, 62
2, 5504, Note_off_c, 0, 53, 0
2, 5504, Note_on_c, 0, 53, 60
2, 5573, Note_off_c, 0, 74, 0
2, 5573, Note_on_c, 0, 69, 73
2, 5598, Note_on_c, 0, 74, 73
2, 5632, Note_on_c, 0, 81, 73
2, 5632, Note_off_c, 0, 69, 0
2, 5632, Note_off_c, 0, 74, 0
2, 5632, Note_off_c, 0, 53, 0
2, 5632, Note_on_c, 0, 53, 65
2, 5632, Note_on_c, 0, 57, 65
2, 5696, Note_off_c, 0, 53, 0
2, 5696, Note_off_c, 0, 57, 0
2, 5696, Note_on_c, 0, 62, 71
2, 5760, Note_off_c, 0, 62, 0
2, 5760, Note_on_c, 0, 53, 55
2, 5760, Note_on_c, 0, 57, 55
2, 5824, Note_off_c, 0, 53, 0
2, 5824, Note_off_c, 0, 57, 0
2, 5824, Note_on_c, 0, 62, 72
2, 5888, Note_off_c, 0, 81, 0
2, 5888, Note_on_c, 0, 79, 56
2, 5888, Note_off_c, 0, 62, 0
2, 5888, Note_on_c, 0, 53, 58
2, 5888, Note_on_c, 0, 57, 58
2, 5952, Note_off_c, 0, 79, 0
2, 5952, Note_on_c, 0, 77, 61
2, 5952, Note_off_c, 0, 53, 0
2, 5952, Note_off_c, 0, 57, 0
2, 5952, Note_on_c, 0, 62, 69
2, 6016, Note_off_c, 0, 77, 0
2, 6016, Note_on_c, 0, 76, 60
2, 6016, Note_off_c, 0, 62, 0
2, 6016, Note_on_c, 0, 53, 60
2, 6016, Note_on_c, 0, 57, 60
2, 6080, Note_off_c, 0, 76, 0
2, 6080, Note_on_c, 0, 74, 55
2, 6080, Note_off_c, 0, 53, 0
2, 6080, Note_off_c, 0, 57, 0
2, 6080, Note_on_c, 0, 62, 72
2, 6144, Note_off_c, 0, 74, 0
2, 6144, Note_on_c, 0, 70, 86
2, 6144, Note_on_c, 0, 75, 86
2, 6144, Note_off_c, 0, 62, 0
2, 6144, Note_on_c, 0, 43, 77
2, 6144, Note_on_c, 0, 55, 77
2, 6272, Note_off_c, 0, 43, 0
2, 6272, Note_off_c, 0, 55, 0
2, 6272, Note_on_c, 0, 43, 84
2, 6272, Note_on_c, 0, 55, 84
2, 6400, Note_off_c, 0, 43, 0
2, 6400, Note_off_c, 0, 55, 0
2, 6400, Note_on_c, 0, 43, 83
2, 6400, Note_on_c, 0, 55, 83
2, 6528, Note_off_c, 0, 43, 0
2, 6528, Note_off_c, 0, 55, 0
2, 6528, Note_on_c, 0, 43, 86
2, 6528, Note_on_c, 0, 55, 86
2, 6656, Note_off_c, 0, 70, 0
2, 6656, Note_off_c, 0, 75, 0
2, 6656, Note_on_c, 0, 72, 94
2, 6656, Note_on_c, 0, 78, 94
2, 6656, Note_off_c, 0, 43, 0
2, 6656, Note_off_c, 0, 55, 0
2, 6656, Note_on_c, 0, 45, 92
2, 6656, Note_on_c, 0, 57, 92
2, 6784, Note_off_c, 0, 45, 0
2, 6784, Note_off_c, 0, 57, 0
2, 6784, Note_on_c, 0, 45, 92
2, 6784, Note_on_c, 0, 57, 92
2, 6912, Note_off_c, 0, 45, 0
2, 6912, Note_off_c, 0, 57, 0
2, 6912, Note_on_c, 0, 45, 91
2, 6912, Note_on_c, 0, 57, 91
2, 7040, Note_off_c, 0, 72, 0
2, 7040, Note_off_c, 0, 78, 0
2, 7040, Note_on_c, 0, 72, 95
2, 7040, Note_on_c, 0, 78, 95
2, 7040, Note_off_c, 0, 45, 0
2, 7040, Note_off_c, 0, 57, 0
2, 7040, Note_on_c, 0, 45, 94
2, 7040, Note_on_c, 0, 57, 94
2, 7168, Note_off_c, 0, 72, 0
2, 7168, Note_off_c, 0, 78, 0
2, 7168, Note_on_c, 0, 74, 92
2, 7168, Note_on_c, 0, 79, 92
2, 7168, Note_off_c, 0, 45, 0
2, 7168, Note_off_c, 0, 57, 0
2, 7168, Note_on_c, 0, 46, 98
2, 7168, Note_on_c, 0, 58, 98
2, 7296, Note_off_c, 0, 46, 0
2, 7296, Note_off_c, 0, 58, 0
2, 7296, Note_on_c, 0, 46, 100
2, 7296, Note_on_c, 0, 58, 100
2, 7424, Note_off_c, 0, 74, 0
2, 7424, Note_off_c, 0, 79, 0
2, 7424, Note_on_c, 0, 74, 101
2, 7424, Note_on_c, 0, 81, 101
2, 7424, Note_off_c, 0, 46, 0
2, 7424, Note_off_c, 0, 58, 0
2, 7424, Note_on_c, 0, 42, 88
2, 7424, Note_on_c, 0, 54, 88
2, 7552, Note_off_c, 0, 42, 0
2, 7552, Note_off_c, 0, 54, 0
2, 7552, Note_on_c, 0, 42, 95
2, 7552, Note_on_c, 0, 54, 95
2, 7680, Note_off_c, 0, 74, 0
2, 7680, Note_off_c, 0, 81, 0
2, 7680, Note_on_c, 0, 74, 105
2, 7680, Note_on_c, 0, 82, 105
2, 7680, Note_off_c, 0, 42, 0
2, 7680, Note_off_c, 0, 54, 0
2, 7680, Note_on_c, 0, 43, 100
2, 7680, Note_on_c, 0, 55, 100
2, 7808, Note_off_c, 0, 43, 0
2, 7808, Note_off_c, 0, 55, 0
2, 7808, Note_on_c, 0, 43, 99
2, 7808, Note_on_c, 0, 55, 99
2, 7936, Note_off_c, 0, 43, 0
2, 7936, Note_off_c, 0, 55, 0
2, 7936, Note_on_c, 0, 43, 97
2, 7936, Note_on_c, 0, 55, 97
2, 8064, Note_off_c, 0, 43, 0
2, 8064, Note_off_c, 0, 55, 0
2, 8064, Note_on_c, 0, 43, 96
2, 8064, Note_on_c, 0, 55, 96
2, 8192, Note_off_c, 0, 74, 0
2, 8192, Note_off_c, 0, 82, 0
2, 8192, Note_on_c, 0, 75, 63
2, 8192, Note_on_c, 0, 82, 63
2, 8192, Note_off_c, 0, 43, 0
2, 8192, Note_off_c, 0, 55, 0
2, 8192, Note_on_c, 0, 43, 60
2, 8192, Note_on_c, 0, 55, 60
2, 8320, Note_off_c, 0, 43, 0
2, 8320, Note_off_c, 0, 55, 0
2, 8320, Note_on_c, 0, 43, 61
2, 8320, Note_on_c, 0, 55, 61
2, 8448, Note_off_c, 0, 75, 0
2, 8448, Note_off_c, 0, 82, 0
2, 8448, Note_on_c, 0, 70, 57
2, 8448, Note_on_c, 0, 79, 57
2, 8448, Note_off_c, 0, 43, 0
2, 8448, Note_off_c, 0, 55, 0
2, 8448, Note_on_c, 0, 43, 61
2, 8448, Note_on_c, 0, 55, 61
2, 8576, Note_off_c, 0, 43, 0
2, 8576, Note_off_c, 0, 55, 0
2, 8576, Note_on_c, 0, 43, 65
2, 8576, Note_on_c, 0, 55, 65
2, 8704, Note_off_c, 0, 70, 0
2, 8704, Note_off_c, 0, 79, 0
2, 8704, Note_on_c, 0, 67, 59
2, 8704, Note_on_c, 0, 75, 59
2, 8704, Note_off_c, 0, 43, 0
2, 8704, Note_off_c, 0, 55, 0
2, 8704, Note_on_c, 0, 43, 61
2, 8704, Note_on_c, 0, 55, 61
2, 8832, Note_off_c, 0, 43, 0
2, 8832, Note_off_c, 0, 55, 0
2, 8832, Note_on_c, 0, 43, 63
2, 8832, Note_on_c, 0, 55, 63
2, 8960, Note_off_c, 0, 67, 0
2, 8960, Note_off_c, 0, 75, 0
2, 8960, Note_on_c, 0, 65, 53
2, 8960, Note_on_c, 0, 71, 53
2, 8960, Note_on_c, 0, 74, 53
2, 8960, Note_off_c, 0, 43, 0
2, 8960, Note_off_c, 0, 55, 0
2, 8960, Note_on_c, 0, 44, 61
2, 8960, Note_on_c, 0, 56, 61
2, 9088, Note_off_c, 0, 44, 0
2, 9088, Note_off_c, 0, 56, 0
2, 9088, Note_on_c, 0, 44, 61
2, 9088, Note_on_c, 0, 56, 61
2, 9216, Note_off_c, 0, 65, 0
2, 9216, Note_off_c, 0, 71, 0
2, 9216, Note_off_c, 0, 74, 0
2, 9216, Note_on_c, 0, 64, 95
2, 9216, Note_on_c, 0, 69, 95
2, 9216, Note_on_c, 0, 73, 95
2, 9216, Note_off_c, 0, 44, 0
2, 9216, Note_off_c, 0, 56, 0
2, 9216, Note_on_c, 0, 45, 95
2, 9216, Note_on_c, 0, 57, 95
2, 9472, Note_off_c, 0, 64, 0
2, 9472, Note_off_c, 0, 69, 0
2, 9472, Note_off_c, 0, 73, 0
2, 9472, Note_on_c, 0, 72, 93
2, 9472, Note_off_c, 0, 45, 0
2, 9472, Note_off_c, 0, 57, 0
2, 9472, Note_on_c, 0, 45, 102
2, 9472, Note_on_c, 0, 57, 102
2, 9728, Note_on_c, 0, 71, 96
2, 9728, Note_on_c, 0, 74, 96
2, 9728, Note_on_c, 0, 44, 102
2, 9728, Note_on_c, 0, 56, 102
2, 9733, Note_off_c, 0, 72, 0
2, 9733, Note_off_c, 0, 45, 0
2, 9733, Note_off_c, 0, 57, 0
2, 9984, Note_on_c, 0, 70, 103
2, 9984, Note_on_c, 0, 76, 103
2, 9984, Note_on_c, 0, 43, 97
2, 9984, Note_on_c, 0, 55, 97
2, 9989, Note_off_c, 0, 71, 0
2, 9989, Note_off_c, 0, 74, 0
2, 9989, Note_off_c, 0, 44, 0
2, 9989, Note_off_c, 0, 56, 0
2, 10227, Note_off_c, 0, 70, 0
2, 10227, Note_off_c, 0, 76, 0
2, 10227, Note_off_c, 0, 43, 0
2, 10227, Note_off_c, 0, 55, 0
2, 10240, Note_on_c, 0, 69, 94
2, 10240, Note_on_c, 0, 77, 94
2, 10240, Note_on_c, 0, 41, 95
2, 10240, Note_on_c, 0, 53, 95
2, 10368, Note_off_c, 0, 69, 0
2, 10368, Note_off_c, 0, 77, 0
2, 10368, Note_off_c, 0, 41, 0
2, 10368, Note_off_c, 0, 53, 0
2, 10368, Note_on_c, 0, 53, 102
2, 10368, Note_on_c, 0, 57, 102
2, 10432, Note_off_c, 0, 53, 0
2, 10432, Note_off_c, 0, 57, 0
2, 10432, Note_on_c, 0, 60, 109
2, 10496, Note_on_c, 0, 65, 47
2, 10496, Note_off_c, 0, 60, 0
2, 10496, Note_on_c, 0, 53, 95
2, 10496, Note_on_c, 0, 57, 95
2, 10560, Note_off_c, 0, 53, 0
2, 10560, Note_off_c, 0, 57, 0
2, 10560, Note_on_c, 0, 60, 109
2, 10624, Note_off_c, 0, 65, 0
2, 10624, Note_off_c, 0, 60, 0
2, 10624, Note_on_c, 0, 53, 95
2, 10624, Note_on_c, 0, 57, 95
2, 10688, Note_off_c, 0, 53, 0
2, 10688, Note_off_c, 0, 57, 0
2, 10688, Note_on_c, 0, 60, 103
2, 10752, Note_on_c, 0, 69, 65
2, 10752, Note_off_c, 0, 60, 0
2, 10752, Note_on_c, 0, 53, 94
2, 10752, Note_on_c, 0, 57, 94
2, 10816, Note_off_c, 0, 53, 0
2, 10816, Note_off_c, 0, 57, 0
2, 10816, Note_on_c, 0, 60, 105
2, 10880, Note_off_c, 0, 69, 0
2, 10880, Note_off_c, 0, 60, 0
2, 10880, Note_on_c, 0, 53, 97
2, 10880, Note_on_c, 0, 57, 97
2, 10944, Note_off_c, 0, 53, 0
2, 10944, Note_off_c, 0, 57, 0
2, 10944, Note_on_c, 0, 60, 110
2, 11008, Note_on_c, 0, 72, 69
2, 11008, Note_off_c, 0, 60, 0
2, 11008, Note_on_c, 0, 53, 96
2, 11008, Note_on_c, 0, 57, 96
2, 11072, Note_off_c, 0, 53, 0
2, 11072, Note_off_c, 0, 57, 0
2, 11072, Note_on_c, 0, 60, 106
2, 11136, Note_off_c, 0, 72, 0
2, 11136, Note_off_c, 0, 60, 0
2, 11136, Note_on_c, 0, 53, 95
2, 11136, Note_on_c, 0, 57, 95
2, 11200, Note_off_c, 0, 53, 0
2, 11200, Note_off_c, 0, 57, 0
2, 11200, Note_on_c, 0, 60, 106
2, 11264, Note_on_c, 0, 77, 65
2, 11264, Note_off_c, 0, 60, 0
2, 11264, Note_on_c, 0, 53, 98
2, 11264, Note_on_c, 0, 57, 98
2, 11328, Note_off_c, 0, 53, 0
2, 11328, Note_off_c, 0, 57, 0
2, 11328, Note_on_c, 0, 60, 101
2, 11392, Note_off_c, 0, 60, 0
2, 11392, Note_on_c, 0, 53, 96
2, 11392, Note_on_c, 0, 57, 96
2, 11456, Note_off_c, 0, 53, 0
2, 11456, Note_off_c, 0, 57, 0
2, 11456, Note_on_c, 0, 60, 108
2, 11520, Note_off_c, 0, 60, 0
2, 11520, Note_on_c, 0, 53, 96
2, 11520, Note_on_c, 0, 57, 96
2, 11584, Note_off_c, 0, 53, 0
2, 11584, Note_off_c, 0, 57, 0
2, 11584, Note_on_c, 0, 60, 106
2, 11648, Note_off_c, 0, 60, 0
2, 11648, Note_on_c, 0, 53, 97
2, 11648, Note_on_c, 0, 57, 97
2, 11712, Note_off_c, 0, 53, 0
2, 11712, Note_off_c, 0, 57, 0
2, 11712, Note_on_c, 0, 60, 101
2, 11776, Note_off_c, 0, 60, 0
2, 11776, Note_on_c, 0, 53, 94
2, 11776, Note_on_c, 0, 57, 94
2, 11840, Note_off_c, 0, 53, 0
2, 11840, Note_off_c, 0, 57, 0
2, 11840, Note_on_c, 0, 60, 104
2, 11904, Note_off_c, 0, 60, 0
2, 11904, Note_on_c, 0, 53, 95
2, 11904, Note_on_c, 0, 57, 95
2, 11968, Note_off_c, 0, 53, 0
2, 11968, Note_off_c, 0, 57, 0
2, 11968, Note_on_c, 0, 60, 105
2, 12032, Note_off_c, 0, 77, 0
2, 12032, Note_off_c, 0, 60, 0
2, 12032, Note_on_c, 0, 53, 93
2, 12032, Note_on_c, 0, 57, 93
2, 12096, Note_off_c, 0, 53, 0
2, 12096, Note_off_c, 0, 57, 0
2, 12096, Note_on_c, 0, 60, 104
2, 12160, Note_on_c, 0, 72, 60
2, 12160, Note_off_c, 0, 60, 0
2, 12160, Note_on_c, 0, 53, 96
2, 12160, Note_on_c, 0, 57, 96
2, 12224, Note_off_c, 0, 53, 0
2, 12224, Note_off_c, 0, 57, 0
2, 12224, Note_on_c, 0, 60, 105
2, 12288, Note_off_c, 0, 72, 0
2, 12288, Note_on_c, 0, 81, 71
2, 12288, Note_off_c, 0, 60, 0
2, 12288, Note_on_c, 0, 53, 98
2, 12288, Note_on_c, 0, 57, 98
2, 12352, Note_off_c, 0, 53, 0
2, 12352, Note_off_c, 0, 57, 0
2, 12352, Note_on_c, 0, 60, 108
2, 12416, Note_on_c, 0, 79, 69
2, 12416, Note_off_c, 0, 60, 0
2, 12416, Note_on_c, 0, 53, 98
2, 12416, Note_on_c, 0, 57, 98
2, 12418, Note_off_c, 0, 81, 0
2, 12480, Note_off_c, 0, 53, 0
2, 12480, Note_off_c, 0, 57, 0
2, 12480, Note_on_c, 0, 60, 109
2, 12537, Note_off_c, 0, 79, 0
2, 12544, Note_on_c, 0, 77, 58
2, 12544, Note_off_c, 0, 60, 0
2, 12544, Note_on_c, 0, 53, 98
2, 12544, Note_on_c, 0, 57, 98
2, 12608, Note_off_c, 0, 53, 0
2, 12608, Note_off_c, 0, 57, 0
2, 12608, Note_on_c, 0, 60, 109
2, 12672, Note_on_c, 0, 76, 52
2, 12672, Note_off_c, 0, 60, 0
2, 12672, Note_on_c, 0, 53, 99
2, 12672, Note_on_c, 0, 57, 99
2, 12674, Note_off_c, 0, 77, 0
2, 12736, Note_off_c, 0, 53, 0
2, 12736, Note_off_c, 0, 57, 0
2, 12736, Note_on_c, 0, 60, 106
2, 12793, Note_off_c, 0, 76, 0
2, 12800, Note_on_c, 0, 74, 55
2, 12800, Note_off_c, 0, 60, 0
2, 12800, Note_on_c, 0, 53, 100
2, 12800, Note_on_c, 0, 57, 100
2, 12864, Note_off_c, 0, 53, 0
2, 12864, Note_off_c, 0, 57, 0
2, 12864, Note_on_c, 0, 60, 108
2, 12928, Note_on_c, 0, 72, 54
2, 12928, Note_off_c, 0, 60, 0
2, 12928, Note_on_c, 0, 53, 96
2, 12928, Note_on_c, 0, 57, 96
2, 12930, Note_off_c, 0, 74, 0
2, 12992, Note_off_c, 0, 53, 0
2, 12992, Note_off_c, 0, 57, 0
2, 12992, Note_on_c, 0, 60, 104
2, 13049, Note_off_c, 0, 72, 0
2, 13056, Note_on_c, 0, 70, 56
2, 13056, Note_off_c, 0, 60, 0
2, 13056, Note_on_c, 0, 53, 92
2, 13056, Note_on_c, 0, 57, 92
2, 13120, Note_off_c, 0, 53, 0
2, 13120, Note_off_c, 0, 57, 0
2, 13120, Note_on_c, 0, 60, 107
2, 13184, Note_on_c, 0, 69, 55
2, 13184, Note_off_c, 0, 60, 0
2, 13184, Note_on_c, 0, 53, 100
2, 13184, Note_on_c, 0, 57, 100
2, 13186, Note_off_c, 0, 70, 0
2, 13248, Note_off_c, 0, 53, 0
2, 13248, Note_off_c, 0, 57, 0
2, 13248, Note_on_c, 0, 60, 105
2, 13305, Note_off_c, 0, 69, 0
2, 13312, Note_on_c, 0, 70, 61
2, 13312, Note_off_c, 0, 60, 0
2, 13312, Note_on_c, 0, 53, 96
2, 13312, Note_on_c, 0, 55, 96
2, 13312, Note_on_c, 0, 58, 96
2, 13376, Note_off_c, 0, 53, 0
2, 13376, Note_off_c, 0, 55, 0
2, 13376, Note_off_c, 0, 58, 0
2, 13376, Note_on_c, 0, 62, 110
2, 13440, Note_off_c, 0, 62, 0
2, 13440, Note_on_c, 0, 53, 93
2, 13440, Note_on_c, 0, 55, 93
2, 13440, Note_on_c, 0, 58, 93
2, 13504, Note_off_c, 0, 53, 0
2, 13504, Note_off_c, 0, 55, 0
2, 13504, Note_off_c, 0, 58, 0
2, 13504, Note_on_c, 0, 62, 106
2, 13568, Note_off_c, 0, 70, 0
2, 13568, Note_on_c, 0, 79, 78
2, 13568, Note_off_c, 0, 62, 0
2, 13568, Note_on_c, 0, 53, 90
2, 13568, Note_on_c, 0, 55, 90
2, 13568, Note_on_c, 0, 58, 90
2, 13632, Note_off_c, 0, 53, 0
2, 13632, Note_off_c, 0, 55, 0
2, 13632, Note_off_c, 0, 58, 0
2, 13632, Note_on_c, 0, 62, 106
2, 13696, Note_off_c, 0, 62, 0
2, 13696, Note_on_c, 0, 53, 93
2, 13696, Note_on_c, 0, 55, 93
2, 13696, Note_on_c, 0, 58, 93
2, 13760, Note_off_c, 0, 53, 0
2, 13760, Note_off_c, 0, 55, 0
2, 13760, Note_off_c, 0, 58, 0
2, 13760, Note_on_c, 0, 62, 115
2, 13824, Note_off_c, 0, 79, 0
2, 13824, Note_off_c, 0, 62, 0
2, 13824, Note_on_c, 0, 53, 92
2, 13824, Note_on_c, 0, 55, 92
2, 13824, Note_on_c, 0, 58, 92
2, 13888, Note_off_c, 0, 53, 0
2, 13888, Note_off_c, 0, 55, 0
2, 13888, Note_off_c, 0, 58, 0
2, 13888, Note_on_c, 0, 62, 109
2, 13952, Note_off_c, 0, 62, 0
2, 13952, Note_on_c, 0, 53, 95
2, 13952, Note_on_c, 0, 55, 95
2, 13952, Note_on_c, 0, 58, 95
2, 14016, Note_off_c, 0, 53, 0
2, 14016, Note_off_c, 0, 55, 0
2, 14016, Note_off_c, 0, 58, 0
2, 14016, Note_on_c, 0, 62, 104
2, 14080, Note_off_c, 0, 62, 0
2, 14080, Note_on_c, 0, 53, 94
2, 14080, Note_on_c, 0, 55, 94
2, 14080, Note_on_c, 0, 58, 94
2, 14144, Note_off_c, 0, 53, 0
2, 14144, Note_off_c, 0, 55, 0
2, 14144, Note_off_c, 0, 58, 0
2, 14144, Note_on_c, 0, 62, 110
2, 14208, Note_on_c, 0, 79, 52
2, 14208, Note_off_c, 0, 62, 0
2, 14208, Note_on_c, 0, 53, 97
2, 14208, Note_on_c, 0, 55, 97
2, 14208, Note_on_c, 0, 58, 97
2, 14272, Note_off_c, 0, 53, 0
2, 14272, Note_off_c, 0, 55, 0
2, 14272, Note_off_c, 0, 58, 0
2, 14272, Note_on_c, 0, 62, 113
2, 14336, Note_off_c, 0, 79, 0
2, 14336, Note_on_c, 0, 82, 68
2, 14336, Note_off_c, 0, 62, 0
2, 14336, Note_on_c, 0, 52, 95
2, 14336, Note_on_c, 0, 55, 95
2, 14400, Note_off_c, 0, 52, 0
2, 14400, Note_off_c, 0, 55, 0
2, 14400, Note_on_c, 0, 60, 112
2, 14464, Note_on_c, 0, 81, 68
2, 14464, Note_off_c, 0, 60, 0
2, 14464, Note_on_c, 0, 52, 94
2, 14464, Note_on_c, 0, 55, 94
2, 14466, Note_off_c, 0, 82, 0
2, 14528, Note_off_c, 0, 52, 0
2, 14528, Note_off_c, 0, 55, 0
2, 14528, Note_on_c, 0, 60, 113
2, 14585, Note_off_c, 0, 81, 0
2, 14592, Note_on_c, 0, 79, 61
2, 14592, Note_off_c, 0, 60, 0
2, 14592, Note_on_c, 0, 52, 92
2, 14592, Note_on_c, 0, 55, 92
2, 14656, Note_off_c, 0, 52, 0
2, 14656, Note_off_c, 0, 55, 0
2, 14656, Note_on_c, 0, 60, 111
2, 14720, Note_on_c, 0, 77, 58
2, 14720, Note_off_c, 0, 60, 0
2, 14720, Note_on_c, 0, 52, 92
2, 14720, Note_on_c, 0, 55, 92
2, 14722, Note_off_c, 0, 79, 0
2, 14784, Note_off_c, 0, 52, 0
2, 14784, Note_off_c, 0, 55, 0
2, 14784, Note_on_c, 0, 60, 111
2, 14841, Note_off_c, 0, 77, 0
2, 14848, Note_on_c, 0, 76, 53
2, 14848, Note_off_c, 0, 60, 0
2, 14848, Note_on_c, 0, 52, 92
2, 14848, Note_on_c, 0, 55, 92
2, 14912, Note_off_c, 0, 52, 0
2, 14912, Note_off_c, 0, 55, 0
2, 14912, Note_on_c, 0, 60, 110
2, 14976, Note_on_c, 0, 74, 52
2, 14976, Note_off_c, 0, 60, 0
2, 14976, Note_on_c, 0, 52, 97
2, 14976, Note_on_c, 0, 55, 97
2, 14978, Note_off_c, 0, 76, 0
2, 15040, Note_off_c, 0, 52, 0
2, 15040, Note_off_c, 0, 55, 0
2, 15040, Note_on_c, 0, 60, 107
2, 15097, Note_off_c, 0, 74, 0
2, 15104, Note_on_c, 0, 72, 55
2, 15104, Note_off_c, 0, 60, 0
2, 15104, Note_on_c, 0, 52, 96
2, 15104, Note_on_c, 0, 55, 96
2, 15168, Note_off_c, 0, 52, 0
2, 15168, Note_off_c, 0, 55, 0
2, 15168, Note_on_c, 0, 60, 108
2, 15232, Note_on_c, 0, 70, 51
2, 15232, Note_off_c, 0, 60, 0
2, 15232, Note_on_c, 0, 52, 96
2, 15232, Note_on_c, 0, 55, 96
2, 15234, Note_off_c, 0, 72, 0
2, 15296, Note_off_c, 0, 52, 0
2, 15296, Note_off_c, 0, 55, 0
2, 15296, Note_on_c, 0, 60, 111
2, 15353, Note_off_c, 0, 70, 0
2, 15360, Note_on_c, 0, 69, 57
2, 15360, Note_off_c, 0, 60, 0
2, 15360, Note_on_c, 0, 53, 97
2, 15360, Note_on_c, 0, 57, 97
2, 15424, Note_off_c, 0, 53, 0
2, 15424, Note_off_c, 0, 57, 0
2, 15424, Note_on_c, 0, 60, 109
2, 15488, Note_off_c, 0, 60, 0
2, 15488, Note_on_c, 0, 53, 98
2, 15488, Note_on_c, 0, 57, 98
2, 15552, Note_off_c, 0, 53, 0
2, 15552, Note_off_c, 0, 57, 0
2, 15552, Note_on_c, 0, 60, 107
2, 15616, Note_off_c, 0, 69, 0
2, 15616, Note_on_c, 0, 77, 72
2, 15616, Note_off_c, 0, 60, 0
2, 15616, Note_on_c, 0, 53, 97
2, 15616, Note_on_c, 0, 57, 97
2, 15680, Note_off_c, 0, 53, 0
2, 15680, Note_off_c, 0, 57, 0
2, 15680, Note_on_c, 0, 60, 107
2, 15744, Note_off_c, 0, 60, 0
2, 15744, Note_on_c, 0, 53, 97
2, 15744, Note_on_c, 0, 57, 97
2, 15808, Note_off_c, 0, 53, 0
2, 15808, Note_off_c, 0, 57, 0
2, 15808, Note_on_c, 0, 60, 104
2, 15872, Note_off_c, 0, 77, 0
2, 15872, Note_off_c, 0, 60, 0
2, 15872, Note_on_c, 0, 51, 93
2, 15872, Note_on_c, 0, 53, 93
2, 15872, Note_on_c, 0, 57, 93
2, 15936, Note_off_c, 0, 51, 0
2, 15936, Note_off_c, 0, 53, 0
2, 15936, Note_off_c, 0, 57, 0
2, 15936, Note_on_c, 0, 60, 105
2, 16000, Note_off_c, 0, 60, 0
2, 16000, Note_on_c, 0, 51, 94
2, 16000, Note_on_c, 0, 53, 94
2, 16000, Note_on_c, 0, 57, 94
2, 16064, Note_off_c, 0, 51, 0
2, 16064, Note_off_c, 0, 53, 0
2, 16064, Note_off_c, 0, 57, 0
2, 16064, Note_on_c, 0, 60, 106
2, 16128, Note_off_c, 0, 60, 0
2, 16128, Note_on_c, 0, 51, 92
2, 16128, Note_on_c, 0, 53, 92
2, 16128, Note_on_c, 0, 57, 92
2, 16192, Note_off_c, 0, 51, 0
2, 16192, Note_off_c, 0, 53, 0
2, 16192, Note_off_c, 0, 57, 0
2, 16192, Note_on_c, 0, 60, 106
2, 16256, Note_off_c, 0, 60, 0
2, 16256, Note_on_c, 0, 51, 91
2, 16256, Note_on_c, 0, 53, 91
2, 16256, Note_on_c, 0, 57, 91
2, 16320, Note_off_c, 0, 51, 0
2, 16320, Note_off_c, 0, 53, 0
2, 16320, Note_off_c, 0, 57, 0
2, 16320, Note_on_c, 0, 60, 105
2, 16384, Note_off_c, 0, 60, 0
2, 16384, Note_on_c, 0, 50, 101
2, 16384, Note_on_c, 0, 53, 101
2, 16384, Note_on_c, 0, 58, 101
2, 16512, Note_off_c, 0, 50, 0
2, 16512, Note_off_c, 0, 53, 0
2, 16512, Note_off_c, 0, 58, 0
2, 16640, Note_on_c, 0, 70, 61
2, 16896, Note_off_c, 0, 70, 0
2, 16896, Note_on_c, 0, 74, 64
2, 17152, Note_off_c, 0, 74, 0
2, 17152, Note_on_c, 0, 77, 64
2, 17408, Note_off_c, 0, 77, 0
2, 17408, Note_on_c, 0, 77, 66
2, 17408, Note_on_c, 0, 82, 66
2, 17408, Note_on_c, 0, 50, 54
2, 17408, Note_on_c, 0, 62, 54
2, 17536, Note_off_c, 0, 50, 0
2, 17536, Note_off_c, 0, 62, 0
2, 17536, Note_on_c, 0, 50, 53
2, 17536, Note_on_c, 0, 62, 53
2, 17664, Note_off_c, 0, 50, 0
2, 17664, Note_off_c, 0, 62, 0
2, 17664, Note_on_c, 0, 50, 63
2, 17664, Note_on_c, 0, 62, 63
2, 17792, Note_off_c, 0, 50, 0
2, 17792, Note_off_c, 0, 62, 0
2, 17792, Note_on_c, 0, 50, 58
2, 17792, Note_on_c, 0, 62, 58
2, 17920, Note_off_c, 0, 77, 0
2, 17920, Note_off_c, 0, 82, 0
2, 17920, Note_on_c, 0, 77, 57
2, 17920, Note_on_c, 0, 81, 57
2, 17920, Note_off_c, 0, 50, 0
2, 17920, Note_off_c, 0, 62, 0
2, 17920, Note_on_c, 0, 48, 54
2, 17920, Note_on_c, 0, 60, 54
2, 18048, Note_off_c, 0, 48, 0
2, 18048, Note_off_c, 0, 60, 0
2, 18048, Note_on_c, 0, 48, 61
2, 18048, Note_on_c, 0, 60, 61
2, 18176, Note_off_c, 0, 48, 0
2, 18176, Note_off_c, 0, 60, 0
2, 18176, Note_on_c, 0, 48, 66
2, 18176, Note_on_c, 0, 60, 66
2, 18304, Note_off_c, 0, 48, 0
2, 18304, Note_off_c, 0, 60, 0
2, 18304, Note_on_c, 0, 48, 60
2, 18304, Note_on_c, 0, 60, 60
2, 18432, Note_off_c, 0, 77, 0
2, 18432, Note_off_c, 0, 81, 0
2, 18432, Note_on_c, 0, 77, 58
2, 18432, Note_on_c, 0, 80, 58
2, 18432, Note_off_c, 0, 48, 0
2, 18432, Note_off_c, 0, 60, 0
2, 18432, Note_on_c, 0, 47, 61
2, 18432, Note_on_c, 0, 59, 61
2, 18560, Note_off_c, 0, 47, 0
2, 18560, Note_off_c, 0, 59, 0
2, 18560, Note_on_c, 0, 47, 63
2, 18560, Note_on_c, 0, 59, 63
2, 18688, Note_off_c, 0, 47, 0
2, 18688, Note_off_c, 0, 59, 0
2, 18688, Note_on_c, 0, 47, 61
2, 18688, Note_on_c, 0, 59, 61
2, 18816, Note_off_c, 0, 77, 0
2, 18816, Note_off_c, 0, 80, 0
2, 18816, Note_on_c, 0, 74, 52
2, 18816, Note_on_c, 0, 77, 52
2, 18816, Note_off_c, 0, 47, 0
2, 18816, Note_off_c, 0, 59, 0
2, 18816, Note_on_c, 0, 47, 56
2, 18816, Note_on_c, 0, 59, 56
2, 18944, Note_off_c, 0, 74, 0
2, 18944, Note_off_c, 0, 77, 0
2, 18944, Note_on_c, 0, 77, 66
2, 18944, Note_on_c, 0, 80, 66
2, 18944, Note_off_c, 0, 47, 0
2, 18944, Note_off_c, 0, 59, 0
2, 18944, Note_on_c, 0, 47, 60
2, 18944, Note_on_c, 0, 59, 60
2, 19072, Note_off_c, 0, 47, 0
2, 19072, Note_off_c, 0, 59, 0
2, 19072, Note_on_c, 0, 47, 62
2, 19072, Note_on_c, 0, 59, 62
2, 19200, Note_off_c, 0, 47, 0
2, 19200, Note_off_c, 0, 59, 0
2, 19200, Note_on_c, 0, 47, 63
2, 19200, Note_on_c, 0, 59, 63
2, 19328, Note_off_c, 0, 77, 0
2, 19328, Note_off_c, 0, 80, 0
2, 19328, Note_on_c, 0, 68, 54
2, 19328, Note_on_c, 0, 77, 54
2, 19328, Note_off_c, 0, 47, 0
2, 19328, Note_off_c, 0, 59, 0
2, 19328, Note_on_c, 0, 47, 66
2, 19328, Note_on_c, 0, 59, 66
2, 19456, Note_off_c, 0, 68, 0
2, 19456, Note_off_c, 0, 77, 0
2, 19456, Note_on_c, 0, 67, 58
2, 19456, Note_on_c, 0, 76, 58
2, 19456, Note_off_c, 0, 47, 0
2, 19456, Note_off_c, 0, 59, 0
2, 19456, Note_on_c, 0, 48, 62
2, 19456, Note_on_c, 0, 60, 62
2, 19584, Note_off_c, 0, 67, 0
2, 19584, Note_off_c, 0, 76, 0
2, 19584, Note_off_c, 0, 48, 0
2, 19584, Note_off_c, 0, 60, 0
2, 19584, Note_on_c, 0, 48, 55
2, 19712, Note_on_c, 0, 47, 54
2, 19714, Note_off_c, 0, 48, 0
2, 19840, Note_on_c, 0, 48, 62
2, 19842, Note_off_c, 0, 47, 0
2, 19968, Note_on_c, 0, 47, 60
2, 19970, Note_off_c, 0, 48, 0
2, 20096, Note_on_c, 0, 48, 60
2, 20098, Note_off_c, 0, 47, 0
2, 20224, Note_on_c, 0, 72, 56
2, 20224, Note_on_c, 0, 46, 57
2, 20226, Note_off_c, 0, 48, 0
2, 20352, Note_on_c, 0, 43, 59
2, 20354, Note_off_c, 0, 46, 0
2, 20473, Note_off_c, 0, 43, 0
2, 20480, Note_off_c, 0, 72, 0
2, 20480, Note_on_c, 0, 72, 67
2, 20480, Note_on_c, 0, 77, 67
2, 20480, Note_on_c, 0, 45, 66
2, 20544, Note_off_c, 0, 45, 0
2, 20608, Note_on_c, 0, 60, 77
2, 20672, Note_off_c, 0, 60, 0
2, 20736, Note_on_c, 0, 57, 66
2, 20787, Note_off_c, 0, 72, 0
2, 20787, Note_off_c, 0, 77, 0
2, 20787, Note_on_c, 0, 79, 67
2, 20800, Note_off_c, 0, 57, 0
2, 20811, Note_on_c, 0, 77, 67
2, 20836, Note_on_c, 0, 76, 67
2, 20864, Note_on_c, 0, 72, 67
2, 20864, Note_on_c, 0, 77, 67
2, 20864, Note_off_c, 0, 79, 0
2, 20864, Note_off_c, 0, 77, 0
2, 20864, Note_off_c, 0, 76, 0
2, 20864, Note_on_c, 0, 53, 57
2, 20928, Note_off_c, 0, 53, 0
2, 20985, Note_off_c, 0, 72, 0
2, 20985, Note_off_c, 0, 77, 0
2, 20992, Note_on_c, 0, 72, 61
2, 20992, Note_on_c, 0, 79, 61
2, 20992, Note_on_c, 0, 52, 59
2, 21056, Note_off_c, 0, 52, 0
2, 21120, Note_on_c, 0, 55, 66
2, 21184, Note_off_c, 0, 55, 0
2, 21248, Note_on_c, 0, 52, 59
2, 21295, Note_off_c, 0, 72, 0
2, 21295, Note_off_c, 0, 79, 0
2, 21295, Note_on_c, 0, 81, 65
2, 21312, Note_off_c, 0, 52, 0
2, 21323, Note_on_c, 0, 79, 65
2, 21348, Note_on_c, 0, 77, 65
2, 21376, Note_on_c, 0, 72, 65
2, 21376, Note_on_c, 0, 79, 65
2, 21376, Note_off_c, 0, 81, 0
2, 21376, Note_off_c, 0, 79, 0
2, 21376, Note_off_c, 0, 77, 0
2, 21376, Note_on_c, 0, 48, 57
2, 21440, Note_off_c, 0, 48, 0
2, 21497, Note_off_c, 0, 72, 0
2, 21497, Note_off_c, 0, 79, 0
2, 21504, Note_on_c, 0, 72, 120
2, 21504, Note_on_c, 0, 81, 120
2, 21504, Note_on_c, 0, 53, 70
2, 21568, Note_off_c, 0, 53, 0
2, 21632, Note_off_c, 0, 72, 0
2, 21632, Note_off_c, 0, 81, 0
2, 21632, Note_on_c, 0, 48, 55
2, 21760, Note_on_c, 0, 47, 55
2, 21762, Note_off_c, 0, 48, 0
2, 21888, Note_on_c, 0, 48, 66
2, 21890, Note_off_c, 0, 47, 0
2, 22016, Note_on_c, 0, 47, 62
2, 22018, Note_off_c, 0, 48, 0
2, 22144, Note_on_c, 0, 48, 61
2, 22146, Note_off_c, 0, 47, 0
2, 22272, Note_on_c, 0, 72, 57
2, 22272, Note_on_c, 0, 46, 60
2, 22274, Note_off_c, 0, 48, 0
2, 22400, Note_off_c, 0, 72, 0
2, 22400, Note_on_c, 0, 72, 57
2, 22400, Note_on_c, 0, 43, 62
2, 22402, Note_off_c, 0, 46, 0
2, 22521, Note_off_c, 0, 43, 0
2, 22528, Note_off_c, 0, 72, 0
2, 22528, Note_on_c, 0, 72, 68
2, 22528, Note_on_c, 0, 77, 68
2, 22528, Note_on_c, 0, 45, 63
2, 22592, Note_off_c, 0, 45, 0
2, 22656, Note_on_c, 0, 60, 80
2, 22720, Note_off_c, 0, 60, 0
2, 22784, Note_on_c, 0, 57, 60
2, 22835, Note_off_c, 0, 72, 0
2, 22835, Note_off_c, 0, 77, 0
2, 22835, Note_on_c, 0, 79, 65
2, 22848, Note_off_c, 0, 57, 0
2, 22859, Note_on_c, 0, 77, 65
2, 22884, Note_on_c, 0, 76, 65
2, 22912, Note_on_c, 0, 72, 65
2, 22912, Note_on_c, 0, 77, 65
2, 22912, Note_off_c, 0, 79, 0
2, 22912, Note_off_c, 0, 77, 0
2, 22912, Note_off_c, 0, 76, 0
2, 22912, Note_on_c, 0, 53, 57
2, 22976, Note_off_c, 0, 53, 0
2, 23033, Note_off_c, 0, 72, 0
2, 23033, Note_off_c, 0, 77, 0
2, 23040, Note_on_c, 0, 72, 65
2, 23040, Note_on_c, 0, 79, 65
2, 23040, Note_on_c, 0, 52, 56
2, 23104, Note_off_c, 0, 52, 0
2, 23168, Note_on_c, 0, 55, 59
2, 23232, Note_off_c, 0, 55, 0
2, 23296, Note_on_c, 0, 52, 61
2, 23343, Note_off_c, 0, 72, 0
2, 23343, Note_off_c, 0, 79, 0
2, 23343, Note_on_c, 0, 81, 67
2, 23360, Note_off_c, 0, 52, 0
2, 23371, Note_on_c, 0, 79, 67
2, 23396, Note_on_c, 0, 77, 67
2, 23424, Note_on_c, 0, 72, 67
2, 23424, Note_on_c, 0, 79, 67
2, 23424, Note_off_c, 0, 81, 0
2, 23424, Note_off_c, 0, 79, 0
2, 23424, Note_off_c, 0, 77, 0
2, 23424, Note_on_c, 0, 48, 59
2, 23488, Note_off_c, 0, 48, 0
2, 23545, Note_off_c, 0, 72, 0
2, 23545, Note_off_c, 0, 79, 0
2, 23552, Note_on_c, 0, 72, 62
2, 23552, Note_on_c, 0, 81, 62
2, 23552, Note_on_c, 0, 53, 64
2, 23616, Note_off_c, 0, 53, 0
2, 23680, Note_on_c, 0, 65, 77
2, 23744, Note_off_c, 0, 65, 0
2, 23808, Note_on_c, 0, 65, 62
2, 23872, Note_off_c, 0, 65, 0
2, 23936, Note_on_c, 0, 65, 63
2, 24000, Note_off_c, 0, 65, 0
2, 24064, Note_on_c, 0, 65, 59
2, 24128, Note_off_c, 0, 65, 0
2, 24192, Note_on_c, 0, 65, 61
2, 24256, Note_off_c, 0, 65, 0
2, 24290, Note_off_c, 0, 72, 0
2, 24290, Note_off_c, 0, 81, 0
2, 24290, Note_on_c, 0, 82, 58
2, 24320, Note_on_c, 0, 81, 61
2, 24320, Note_off_c, 0, 82, 0
2, 24320, Note_on_c, 0, 65, 60
2, 24384, Note_on_c, 0, 79, 55
2, 24384, Note_off_c, 0, 65, 0
2, 24385, Note_off_c, 0, 81, 0
2, 24448, Note_on_c, 0, 81, 58
2, 24448, Note_on_c, 0, 65, 59
2, 24449, Note_off_c, 0, 79, 0
2, 24512, Note_on_c, 0, 82, 66
2, 24512, Note_off_c, 0, 65, 0
2, 24513, Note_off_c, 0, 81, 0
2, 24572, Note_off_c, 0, 82, 0
2, 24576, Note_on_c, 0, 79, 71
2, 24576, Note_on_c, 0, 84, 71
2, 24576, Note_on_c, 0, 64, 54
2, 24640, Note_off_c, 0, 79, 0
2, 24640, Note_off_c, 0, 84, 0
2, 24640, Note_off_c, 0, 64, 0
2, 24704, Note_on_c, 0, 79, 59
2, 24704, Note_on_c, 0, 84, 59
2, 24704, Note_on_c, 0, 76, 80
2, 24768, Note_off_c, 0, 79, 0
2, 24768, Note_off_c, 0, 84, 0
2, 24768, Note_off_c, 0, 76, 0
2, 24832, Note_on_c, 0, 79, 59
2, 24832, Note_on_c, 0, 84, 59
2, 24832, Note_on_c, 0, 76, 63
2, 24896, Note_off_c, 0, 79, 0
2, 24896, Note_off_c, 0, 84, 0
2, 24896, Note_off_c, 0, 76, 0
2, 24960, Note_on_c, 0, 79, 60
2, 24960, Note_on_c, 0, 84, 60
2, 24960, Note_on_c, 0, 76, 64
2, 25024, Note_off_c, 0, 79, 0
2, 25024, Note_off_c, 0, 84, 0
2, 25024, Note_off_c, 0, 76, 0
2, 25088, Note_on_c, 0, 79, 59
2, 25088, Note_on_c, 0, 84, 59
2, 25088, Note_on_c, 0, 76, 55
2, 25152, Note_off_c, 0, 79, 0
2, 25152, Note_off_c, 0, 84, 0
2, 25152, Note_off_c, 0, 76, 0
2, 25216, Note_on_c, 0, 79, 60
2, 25216, Note_on_c, 0, 84, 60
2, 25216, Note_on_c, 0, 76, 66
2, 25280, Note_off_c, 0, 79, 0
2, 25280, Note_off_c, 0, 84, 0
2, 25280, Note_off_c, 0, 76, 0
2, 25344, Note_on_c, 0, 79, 64
2, 25344, Note_on_c, 0, 84, 64
2, 25344, Note_on_c, 0, 76, 61
2, 25408, Note_off_c, 0, 79, 0
2, 25408, Note_off_c, 0, 84, 0
2, 25408, Note_off_c, 0, 76, 0
2, 25472, Note_on_c, 0, 79, 61
2, 25472, Note_on_c, 0, 84, 61
2, 25472, Note_on_c, 0, 76, 60
2, 25536, Note_off_c, 0, 79, 0
2, 25536, Note_off_c, 0, 84, 0
2, 25536, Note_off_c, 0, 76, 0
2, 25600, Note_on_c, 0, 77, 53
2, 25600, Note_on_c, 0, 69, 74
2, 25600, Note_on_c, 0, 74, 50
2, 25664, Note_off_c, 0, 69, 0
2, 25664, Note_off_c, 0, 74, 0
2, 25728, Note_on_c, 0, 69, 85
2, 25728, Note_on_c, 0, 62, 44
2, 25792, Note_off_c, 0, 69, 0
2, 25792, Note_off_c, 0, 62, 0
2, 25856, Note_on_c, 0, 69, 84
2, 25856, Note_on_c, 0, 62, 57
2, 25920, Note_off_c, 0, 69, 0
2, 25920, Note_off_c, 0, 62, 0
2, 25984, Note_on_c, 0, 69, 86
2, 25984, Note_on_c, 0, 62, 57
2, 26048, Note_off_c, 0, 69, 0
2, 26048, Note_off_c, 0, 62, 0
2, 26112, Note_off_c, 0, 77, 0
2, 26112, Note_on_c, 0, 69, 82
2, 26112, Note_on_c, 0, 62, 58
2, 26176, Note_off_c, 0, 69, 0
2, 26176, Note_off_c, 0, 62, 0
2, 26240, Note_on_c, 0, 69, 87
2, 26240, Note_on_c, 0, 62, 61
2, 26304, Note_off_c, 0, 69, 0
2, 26304, Note_off_c, 0, 62, 0
2, 26342, Note_on_c, 0, 79, 52
2, 26368, Note_on_c, 0, 77, 52
2, 26368, Note_off_c, 0, 79, 0
2, 26368, Note_on_c, 0, 62, 62
2, 26432, Note_on_c, 0, 76, 48
2, 26432, Note_off_c, 0, 62, 0
2, 26433, Note_off_c, 0, 77, 0
2, 26496, Note_on_c, 0, 77, 67
2, 26496, Note_on_c, 0, 62, 60
2, 26497, Note_off_c, 0, 76, 0
2, 26560, Note_on_c, 0, 79, 69
2, 26560, Note_off_c, 0, 62, 0
2, 26561, Note_off_c, 0, 77, 0
2, 26620, Note_off_c, 0, 79, 0
2, 26624, Note_on_c, 0, 76, 64
2, 26624, Note_on_c, 0, 81, 64
2, 26624, Note_on_c, 0, 60, 56
2, 26688, Note_off_c, 0, 76, 0
2, 26688, Note_off_c, 0, 81, 0
2, 26688, Note_off_c, 0, 60, 0
2, 26752, Note_on_c, 0, 76, 57
2, 26752, Note_on_c, 0, 81, 57
2, 26752, Note_on_c, 0, 72, 77
2, 26816, Note_off_c, 0, 76, 0
2, 26816, Note_off_c, 0, 81, 0
2, 26816, Note_off_c, 0, 72, 0
2, 26880, Note_on_c, 0, 76, 64
2, 26880, Note_on_c, 0, 81, 64
2, 26880, Note_on_c, 0, 72, 64
2, 26944, Note_off_c, 0, 76, 0
2, 26944, Note_off_c, 0, 81, 0
2, 26944, Note_off_c, 0, 72, 0
2, 27008, Note_on_c, 0, 76, 58
2, 27008, Note_on_c, 0, 81, 58
2, 27008, Note_on_c, 0, 72, 63
2, 27072, Note_off_c, 0, 76, 0
2, 27072, Note_off_c, 0, 81, 0
2, 27072, Note_off_c, 0, 72, 0
2, 27136, Note_on_c, 0, 76, 57
2, 27136, Note_on_c, 0, 81, 57
2, 27136, Note_on_c, 0, 72, 62
2, 27200, Note_off_c, 0, 76, 0
2, 27200, Note_off_c, 0, 81, 0
2, 27200, Note_off_c, 0, 72, 0
2, 27264, Note_on_c, 0, 76, 64
2, 27264, Note_on_c, 0, 81, 64
2, 27264, Note_on_c, 0, 72, 61
2, 27328, Note_off_c, 0, 76, 0
2, 27328, Note_off_c, 0, 81, 0
2, 27328, Note_off_c, 0, 72, 0
2, 27392, Note_on_c, 0, 76, 64
2, 27392, Note_on_c, 0, 81, 64
2, 27392, Note_on_c, 0, 72, 60
2, 27456, Note_off_c, 0, 76, 0
2, 27456, Note_off_c, 0, 81, 0
2, 27456, Note_off_c, 0, 72, 0
2, 27520, Note_on_c, 0, 76, 61
2, 27520, Note_on_c, 0, 81, 61
2, 27520, Note_on_c, 0, 72, 61
2, 27584, Note_off_c, 0, 76, 0
2, 27584, Note_off_c, 0, 81, 0
2, 27584, Note_off_c, 0, 72, 0
2, 27648, Note_on_c, 0, 74, 46
2, 27648, Note_on_c, 0, 65, 74
2, 27648, Note_on_c, 0, 70, 60
2, 27712, Note_off_c, 0, 65, 0
2, 27712, Note_off_c, 0, 70, 0
2, 27776, Note_on_c, 0, 65, 79
2, 27776, Note_on_c, 0, 58, 52
2, 27840, Note_off_c, 0, 65, 0
2, 27840, Note_off_c, 0, 58, 0
2, 27904, Note_on_c, 0, 65, 82
2, 27904, Note_on_c, 0, 58, 59
2, 27968, Note_off_c, 0, 65, 0
2, 27968, Note_off_c, 0, 58, 0
2, 28032, Note_on_c, 0, 65, 85
2, 28032, Note_on_c, 0, 58, 60
2, 28096, Note_off_c, 0, 65, 0
2, 28096, Note_off_c, 0, 58, 0
2, 28160, Note_off_c, 0, 74, 0
2, 28160, Note_on_c, 0, 65, 85
2, 28160, Note_on_c, 0, 58, 61
2, 28224, Note_off_c, 0, 65, 0
2, 28224, Note_off_c, 0, 58, 0
2, 28288, Note_on_c, 0, 65, 85
2, 28288, Note_on_c, 0, 58, 59
2, 28352, Note_off_c, 0, 65, 0
2, 28352, Note_off_c, 0, 58, 0
2, 28390, Note_on_c, 0, 76, 52
2, 28416, Note_on_c, 0, 74, 52
2, 28416, Note_off_c, 0, 76, 0
2, 28416, Note_on_c, 0, 58, 58
2, 28480, Note_on_c, 0, 72, 50
2, 28480, Note_off_c, 0, 58, 0
2, 28481, Note_off_c, 0, 74, 0
2, 28544, Note_on_c, 0, 74, 63
2, 28544, Note_on_c, 0, 58, 59
2, 28545, Note_off_c, 0, 72, 0
2, 28608, Note_on_c, 0, 76, 71
2, 28608, Note_off_c, 0, 58, 0
2, 28609, Note_off_c, 0, 74, 0
2, 28668, Note_off_c, 0, 76, 0
2, 28672, Note_on_c, 0, 77, 61
2, 28672, Note_on_c, 0, 57, 71
2, 28672, Note_on_c, 0, 65, 71
2, 28736, Note_off_c, 0, 77, 0
2, 28800, Note_on_c, 0, 77, 63
2, 28864, Note_off_c, 0, 77, 0
2, 28928, Note_on_c, 0, 77, 60
2, 28928, Note_off_c, 0, 57, 0
2, 28928, Note_off_c, 0, 65, 0
2, 28992, Note_off_c, 0, 77, 0
2, 29056, Note_on_c, 0, 72, 52
2, 29120, Note_off_c, 0, 72, 0
2, 29184, Note_on_c, 0, 79, 69
2, 29184, Note_on_c, 0, 64, 52
2, 29184, Note_on_c, 0, 67, 52
2, 29248, Note_off_c, 0, 79, 0
2, 29312, Note_on_c, 0, 79, 63
2, 29376, Note_off_c, 0, 79, 0
2, 29440, Note_on_c, 0, 79, 64
2, 29440, Note_off_c, 0, 64, 0
2, 29440, Note_off_c, 0, 67, 0
2, 29504, Note_off_c, 0, 79, 0
2, 29568, Note_on_c, 0, 72, 48
2, 29632, Note_off_c, 0, 72, 0
2, 29696, Note_on_c, 0, 81, 77
2, 29696, Note_on_c, 0, 65, 58
2, 29696, Note_on_c, 0, 72, 58
2, 29760, Note_off_c, 0, 81, 0
2, 29824, Note_on_c, 0, 77, 60
2, 29888, Note_off_c, 0, 77, 0
2, 29952, Note_on_c, 0, 81, 61
2, 29952, Note_off_c, 0, 65, 0
2, 29952, Note_off_c, 0, 72, 0
2, 30016, Note_off_c, 0, 81, 0
2, 30080, Note_on_c, 0, 84, 65
2, 30144, Note_off_c, 0, 84, 0
2, 30208, Note_on_c, 0, 89, 67
2, 30208, Note_on_c, 0, 77, 52
2, 30208, Note_on_c, 0, 81, 52
2, 30208, Note_on_c, 0, 84, 52
2, 30272, Note_off_c, 0, 89, 0
2, 30336, Note_on_c, 0, 84, 56
2, 30336, Note_off_c, 0, 77, 0
2, 30336, Note_off_c, 0, 81, 0
2, 30336, Note_off_c, 0, 84, 0
2, 30400, Note_off_c, 0, 84, 0
2, 30464, Note_on_c, 0, 86, 62
2, 30464, Note_on_c, 0, 77, 51
2, 30464, Note_on_c, 0, 82, 51
2, 30464, Note_on_c, 0, 86, 51
2, 30528, Note_off_c, 0, 86, 0
2, 30592, Note_on_c, 0, 82, 56
2, 30592, Note_off_c, 0, 77, 0
2, 30592, Note_off_c, 0, 82, 0
2, 30592, Note_off_c, 0, 86, 0
2, 30656, Note_off_c, 0, 82, 0
2, 30720, Note_on_c, 0, 84, 56
2, 30720, Note_on_c, 0, 77, 57
2, 30720, Note_on_c, 0, 81, 57
2, 30720, Note_on_c, 0, 84, 57
2, 30784, Note_off_c, 0, 84, 0
2, 30848, Note_on_c, 0, 77, 49
2, 30912, Note_off_c, 0, 77, 0
2, 30976, Note_on_c, 0, 81, 63
2, 30976, Note_off_c, 0, 77, 0
2, 30976, Note_off_c, 0, 81, 0
2, 30976, Note_off_c, 0, 84, 0
2, 31040, Note_off_c, 0, 81, 0
2, 31104, Note_on_c, 0, 84, 63
2, 31168, Note_off_c, 0, 84, 0
2, 31232, Note_on_c, 0, 89, 71
2, 31232, Note_on_c, 0, 77, 53
2, 31232, Note_on_c, 0, 81, 53
2, 31232, Note_on_c, 0, 84, 53
2, 31296, Note_off_c, 0, 89, 0
2, 31360, Note_on_c, 0, 84, 53
2, 31360, Note_off_c, 0, 77, 0
2, 31360, Note_off_c, 0, 81, 0
2, 31360, Note_off_c, 0, 84, 0
2, 31424, Note_off_c, 0, 84, 0
2, 31488, Note_on_c, 0, 86, 69
2, 31488, Note_on_c, 0, 77, 53
2, 31488, Note_on_c, 0, 82, 53
2, 31488, Note_on_c, 0, 86, 53
2, 31552, Note_off_c, 0, 86, 0
2, 31616, Note_on_c, 0, 82, 61
2, 31616, Note_off_c, 0, 77, 0
2, 31616, Note_off_c, 0, 82, 0
2, 31616, Note_off_c, 0, 86, 0
2, 31680, Note_off_c, 0, 82, 0
2, 31744, Note_on_c, 0, 84, 63
2, 31744, Note_on_c, 0, 77, 48
2, 31744, Note_on_c, 0, 81, 48
2, 31744, Note_on_c, 0, 84, 48
2, 32000, Note_off_c, 0, 84, 0
2, 32000, Note_off_c, 0, 77, 0
2, 32000, Note_off_c, 0, 81, 0
2, 32000, Note_off_c, 0, 84, 0
2, 32256, Note_on_c, 0, 69, 88
2, 32256, Note_on_c, 0, 77, 88
2, 32256, Note_on_c, 0, 50, 85
2, 32256, Note_on_c, 0, 62, 85
2, 32384, Note_off_c, 0, 50, 0
2, 32384, Note_off_c, 0, 62, 0
2, 32384, Note_on_c, 0, 50, 96
2, 32384, Note_on_c, 0, 62, 96
2, 32512, Note_off_c, 0, 50, 0
2, 32512, Note_off_c, 0, 62, 0
2, 32512, Note_on_c, 0, 50, 97
2, 32512, Note_on_c, 0, 62, 97
2, 32640, Note_off_c, 0, 69, 0
2, 32640, Note_off_c, 0, 77, 0
2, 32640, Note_on_c, 0, 69, 94
2, 32640, Note_on_c, 0, 77, 94
2, 32640, Note_off_c, 0, 50, 0
2, 32640, Note_off_c, 0, 62, 0
2, 32640, Note_on_c, 0, 50, 98
2, 32640, Note_on_c, 0, 62, 98
2, 32768, Note_off_c, 0, 69, 0
2, 32768, Note_off_c, 0, 77, 0
2, 32768, Note_on_c, 0, 70, 102
2, 32768, Note_on_c, 0, 74, 102
2, 32768, Note_on_c, 0, 79, 102
2, 32768, Note_off_c, 0, 50, 0
2, 32768, Note_off_c, 0, 62, 0
2, 32768, Note_on_c, 0, 46, 91
2, 32768, Note_on_c, 0, 58, 91
2, 32896, Note_off_c, 0, 46, 0
2, 32896, Note_off_c, 0, 58, 0
2, 32896, Note_on_c, 0, 46, 90
2, 32896, Note_on_c, 0, 58, 90
2, 33024, Note_off_c, 0, 46, 0
2, 33024, Note_off_c, 0, 58, 0
2, 33024, Note_on_c, 0, 46, 99
2, 33024, Note_on_c, 0, 58, 99
2, 33152, Note_off_c, 0, 46, 0
2, 33152, Note_off_c, 0, 58, 0
2, 33152, Note_on_c, 0, 46, 100
2, 33152, Note_on_c, 0, 58, 100
2, 33280, Note_off_c, 0, 70, 0
2, 33280, Note_off_c, 0, 74, 0
2, 33280, Note_off_c, 0, 79, 0
2, 33280, Note_on_c, 0, 74, 108
2, 33280, Note_on_c, 0, 79, 108
2, 33280, Note_on_c, 0, 82, 108
2, 33280, Note_off_c, 0, 46, 0
2, 33280, Note_off_c, 0, 58, 0
2, 33280, Note_on_c, 0, 43, 93
2, 33280, Note_on_c, 0, 55, 93
2, 33408, Note_off_c, 0, 43, 0
2, 33408, Note_off_c, 0, 55, 0
2, 33408, Note_on_c, 0, 43, 98
2, 33408, Note_on_c, 0, 55, 98
2, 33536, Note_off_c, 0, 43, 0
2, 33536, Note_off_c, 0, 55, 0
2, 33536, Note_on_c, 0, 43, 100
2, 33536, Note_on_c, 0, 55, 100
2, 33664, Note_off_c, 0, 43, 0
2, 33664, Note_off_c, 0, 55, 0
2, 33664, Note_on_c, 0, 43, 100
2, 33664, Note_on_c, 0, 55, 100
2, 33792, Note_off_c, 0, 74, 0
2, 33792, Note_off_c, 0, 79, 0
2, 33792, Note_off_c, 0, 82, 0
2, 33792, Note_on_c, 0, 64, 77
2, 33792, Note_on_c, 0, 67, 77
2, 33792, Note_on_c, 0, 72, 77
2, 33792, Note_off_c, 0, 43, 0
2, 33792, Note_off_c, 0, 55, 0
2, 33792, Note_on_c, 0, 48, 110
2, 33792, Note_on_c, 0, 60, 110
2, 33920, Note_off_c, 0, 48, 0
2, 33920, Note_off_c, 0, 60, 0
2, 33920, Note_on_c, 0, 48, 99
2, 33920, Note_on_c, 0, 60, 99
2, 34048, Note_off_c, 0, 48, 0
2, 34048, Note_off_c, 0, 60, 0
2, 34048, Note_on_c, 0, 48, 100
2, 34048, Note_on_c, 0, 60, 100
2, 34176, Note_off_c, 0, 48, 0
2, 34176, Note_off_c, 0, 60, 0
2, 34176, Note_on_c, 0, 48, 98
2, 34176, Note_on_c, 0, 60, 98
2, 34304, Note_off_c, 0, 48, 0
2, 34304, Note_off_c, 0, 60, 0
2, 34304, Note_on_c, 0, 48, 101
2, 34304, Note_on_c, 0, 60, 101
2, 34432, Note_off_c, 0, 48, 0
2, 34432, Note_off_c, 0, 60, 0
2, 34432, Note_on_c, 0, 48, 99
2, 34432, Note_on_c, 0, 60, 99
2, 34560, Note_off_c, 0, 64, 0
2, 34560, Note_off_c, 0, 67, 0
2, 34560, Note_off_c, 0, 72, 0
2, 34560, Note_on_c, 0, 65, 96
2, 34560, Note_on_c, 0, 69, 96
2, 34560, Note_on_c, 0, 74, 96
2, 34560, Note_off_c, 0, 48, 0
2, 34560, Note_off_c, 0, 60, 0
2, 34560, Note_on_c, 0, 48, 99
2, 34560, Note_on_c, 0, 60, 99
2, 34688, Note_off_c, 0, 65, 0
2, 34688, Note_off_c, 0, 69, 0
2, 34688, Note_off_c, 0, 74, 0
2, 34688, Note_on_c, 0, 67, 104
2, 34688, Note_on_c, 0, 70, 104
2, 34688, Note_on_c, 0, 76, 104
2, 34688, Note_off_c, 0, 48, 0
2, 34688, Note_off_c, 0, 60, 0
2, 34688, Note_on_c, 0, 48, 98
2, 34688, Note_on_c, 0, 60, 98
2, 34816, Note_off_c, 0, 67, 0
2, 34816, Note_off_c, 0, 70, 0
2, 34816, Note_off_c, 0, 76, 0
2, 34816, Note_on_c, 0, 69, 99
2, 34816, Note_on_c, 0, 77, 99
2, 34816, Note_off_c, 0, 48, 0
2, 34816, Note_off_c, 0, 60, 0
2, 34816, Note_on_c, 0, 41, 92
2, 34816, Note_on_c, 0, 53, 92
2, 34944, Note_off_c, 0, 41, 0
2, 34944, Note_off_c, 0, 53, 0
2, 34944, Note_on_c, 0, 65, 123
2, 35008, Note_off_c, 0, 65, 0
2, 35072, Note_on_c, 0, 65, 101
2, 35136, Note_off_c, 0, 65, 0
2, 35200, Note_on_c, 0, 65, 93
2, 35264, Note_off_c, 0, 65, 0
2, 35328, Note_on_c, 0, 65, 98
2, 35392, Note_off_c, 0, 65, 0
2, 35456, Note_on_c, 0, 65, 99
2, 35520, Note_off_c, 0, 65, 0
2, 35554, Note_off_c, 0, 69, 0
2, 35554, Note_off_c, 0, 77, 0
2, 35554, Note_on_c, 0, 82, 62
2, 35584, Note_on_c, 0, 81, 62
2, 35584, Note_off_c, 0, 82, 0
2, 35584, Note_on_c, 0, 65, 66
2, 35648, Note_on_c, 0, 79, 58
2, 35648, Note_off_c, 0, 65, 0
2, 35649, Note_off_c, 0, 81, 0
2, 35712, Note_on_c, 0, 81, 71
2, 35712, Note_on_c, 0, 65, 61
2, 35713, Note_off_c, 0, 79, 0
2, 35776, Note_on_c, 0, 82, 76
2, 35776, Note_off_c, 0, 65, 0
2, 35777, Note_off_c, 0, 81, 0
2, 35836, Note_off_c, 0, 82, 0
2, 35840, Note_on_c, 0, 79, 65
2, 35840, Note_on_c, 0, 84, 65
2, 35840, Note_on_c, 0, 64, 62
2, 35904, Note_off_c, 0, 79, 0
2, 35904, Note_off_c, 0, 84, 0
2, 35904, Note_off_c, 0, 64, 0
2, 35968, Note_on_c, 0, 79, 59
2, 35968, Note_on_c, 0, 84, 59
2, 35968, Note_on_c, 0, 76, 77
2, 36032, Note_off_c, 0, 79, 0
2, 36032, Note_off_c, 0, 84, 0
2, 36032, Note_off_c, 0, 76, 0
2, 36096, Note_on_c, 0, 79, 64
2, 36096, Note_on_c, 0, 84, 64
2, 36096, Note_on_c, 0, 76, 65
2, 36160, Note_off_c, 0, 79, 0
2, 36160, Note_off_c, 0, 84, 0
2, 36160, Note_off_c, 0, 76, 0
2, 36224, Note_on_c, 0, 79, 62
2, 36224, Note_on_c, 0, 84, 62
2, 36224, Note_on_c, 0, 76, 69
2, 36288, Note_off_c, 0, 79, 0
2, 36288, Note_off_c, 0, 84, 0
2, 36288, Note_off_c, 0, 76, 0
2, 36352, Note_on_c, 0, 79, 65
2, 36352, Note_on_c, 0, 84, 65
2, 36352, Note_on_c, 0, 76, 63
2, 36416, Note_off_c, 0, 79, 0
2, 36416, Note_off_c, 0, 84, 0
2, 36416, Note_off_c, 0, 76, 0
2, 36480, Note_on_c, 0, 79, 59
2, 36480, Note_on_c, 0, 84, 59
2, 36480, Note_on_c, 0, 76, 58
2, 36544, Note_off_c, 0, 79, 0
2, 36544, Note_off_c, 0, 84, 0
2, 36544, Note_off_c, 0, 76, 0
2, 36608, Note_on_c, 0, 79, 59
2, 36608, Note_on_c, 0, 84, 59
2, 36608, Note_on_c, 0, 76, 59
2, 36672, Note_off_c, 0, 79, 0
2, 36672, Note_off_c, 0, 84, 0
2, 36672, Note_off_c, 0, 76, 0
2, 36736, Note_on_c, 0, 79, 64
2, 36736, Note_on_c, 0, 84, 64
2, 36736, Note_on_c, 0, 76, 65
2, 36800, Note_off_c, 0, 79, 0
2, 36800, Note_off_c, 0, 84, 0
2, 36800, Note_off_c, 0, 76, 0
2, 36864, Note_on_c, 0, 77, 51
2, 36864, Note_on_c, 0, 69, 76
2, 36864, Note_on_c, 0, 74, 55
2, 36928, Note_off_c, 0, 69, 0
2, 36928, Note_off_c, 0, 74, 0
2, 36992, Note_on_c, 0, 69, 80
2, 36992, Note_on_c, 0, 62, 47
2, 37056, Note_off_c, 0, 69, 0
2, 37056, Note_off_c, 0, 62, 0
2, 37120, Note_on_c, 0, 69, 85
2, 37120, Note_on_c, 0, 62, 59
2, 37184, Note_off_c, 0, 69, 0
2, 37184, Note_off_c, 0, 62, 0
2, 37248, Note_on_c, 0, 69, 81
2, 37248, Note_on_c, 0, 62, 57
2, 37312, Note_off_c, 0, 69, 0
2, 37312, Note_off_c, 0, 62, 0
2, 37376, Note_off_c, 0, 77, 0
2, 37376, Note_on_c, 0, 69, 84
2, 37376, Note_on_c, 0, 62, 55
2, 37440, Note_off_c, 0, 69, 0
2, 37440, Note_off_c, 0, 62, 0
2, 37504, Note_on_c, 0, 69, 88
2, 37504, Note_on_c, 0, 62, 63
2, 37568, Note_off_c, 0, 69, 0
2, 37568, Note_off_c, 0, 62, 0
2, 37606, Note_on_c, 0, 79, 53
2, 37632, Note_on_c, 0, 77, 53
2, 37632, Note_off_c, 0, 79, 0
2, 37632, Note_on_c, 0, 62, 59
2, 37696, Note_on_c, 0, 76, 47
2, 37696, Note_off_c, 0, 62, 0
2, 37697, Note_off_c, 0, 77, 0
2, 37760, Note_on_c, 0, 77, 64
2, 37760, Note_on_c, 0, 62, 62
2, 37761, Note_off_c, 0, 76, 0
2, 37824, Note_on_c, 0, 79, 67
2, 37824, Note_off_c, 0, 62, 0
2, 37825, Note_off_c, 0, 77, 0
2, 37884, Note_off_c, 0, 79, 0
2, 37888, Note_on_c, 0, 76, 70
2, 37888, Note_on_c, 0, 81, 70
2, 37888, Note_on_c, 0, 60, 57
2, 37952, Note_off_c, 0, 76, 0
2, 37952, Note_off_c, 0, 81, 0
2, 37952, Note_off_c, 0, 60, 0
2, 38016, Note_on_c, 0, 76, 61
2, 38016, Note_on_c, 0, 81, 61
2, 38016, Note_on_c, 0, 72, 79
2, 38080, Note_off_c, 0, 76, 0
2, 38080, Note_off_c, 0, 81, 0
2, 38080, Note_off_c, 0, 72, 0
2, 38144, Note_on_c, 0, 76, 58
2, 38144, Note_on_c, 0, 81, 58
2, 38144, Note_on_c, 0, 72, 62
2, 38208, Note_off_c, 0, 76, 0
2, 38208, Note_off_c, 0, 81, 0
2, 38208, Note_off_c, 0, 72, 0
2, 38272, Note_on_c, 0, 76, 62
2, 38272, Note_on_c, 0, 81, 62
2, 38272, Note_on_c, 0, 72, 64
2, 38336, Note_off_c, 0, 76, 0
2, 38336, Note_off_c, 0, 81, 0
2, 38336, Note_off_c, 0, 72, 0
2, 38400, Note_on_c, 0, 76, 64
2, 38400, Note_on_c, 0, 81, 64
2, 38400, Note_on_c, 0, 72, 59
2, 38464, Note_off_c, 0, 76, 0
2, 38464, Note_off_c, 0, 81, 0
2, 38464, Note_off_c, 0, 72, 0
2, 38528, Note_on_c, 0, 76, 63
2, 38528, Note_on_c, 0, 81, 63
2, 38528, Note_on_c, 0, 72, 66
2, 38592, Note_off_c, 0, 76, 0
2, 38592, Note_off_c, 0, 81, 0
2, 38592, Note_off_c, 0, 72, 0
2, 38656, Note_on_c, 0, 76, 63
2, 38656, Note_on_c, 0, 81, 63
2, 38656, Note_on_c, 0, 72, 59
2, 38720, Note_off_c, 0, 76, 0
2, 38720, Note_off_c, 0, 81, 0
2, 38720, Note_off_c, 0, 72, 0
2, 38784, Note_on_c, 0, 76, 60
2, 38784, Note_on_c, 0, 81, 60
2, 38784, Note_on_c, 0, 72, 61
2, 38848, Note_off_c, 0, 76, 0
2, 38848, Note_off_c, 0, 81, 0
2, 38848, Note_off_c, 0, 72, 0
2, 38912, Note_on_c, 0, 74, 45
2, 38912, Note_on_c, 0, 65, 75
2, 38912, Note_on_c, 0, 70, 51
2, 38976, Note_off_c, 0, 65, 0
2, 38976, Note_off_c, 0, 70, 0
2, 39040, Note_on_c, 0, 65, 82
2, 39040, Note_on_c, 0, 58, 55
2, 39104, Note_off_c, 0, 65, 0
2, 39104, Note_off_c, 0, 58, 0
2, 39168, Note_on_c, 0, 65, 85
2, 39168, Note_on_c, 0, 58, 60
2, 39232, Note_off_c, 0, 65, 0
2, 39232, Note_off_c, 0, 58, 0
2, 39296, Note_on_c, 0, 65, 82
2, 39296, Note_on_c, 0, 58, 65
2, 39360, Note_off_c, 0, 65, 0
2, 39360, Note_off_c, 0, 58, 0
2, 39424, Note_off_c, 0, 74, 0
2, 39424, Note_on_c, 0, 65, 84
2, 39424, Note_on_c, 0, 58, 55
2, 39488, Note_off_c, 0, 65, 0
2, 39488, Note_off_c, 0, 58, 0
2, 39552, Note_on_c, 0, 65, 82
2, 39552, Note_on_c, 0, 58, 59
2, 39616, Note_off_c, 0, 65, 0
2, 39616, Note_off_c, 0, 58, 0
2, 39654, Note_on_c, 0, 76, 58
2, 39680, Note_on_c, 0, 74, 58
2, 39680, Note_off_c, 0, 76, 0
2, 39680, Note_on_c, 0, 58, 62
2, 39744, Note_on_c, 0, 72, 56
2, 39744, Note_off_c, 0, 58, 0
2, 39745, Note_off_c, 0, 74, 0
2, 39808, Note_on_c, 0, 74, 57
2, 39808, Note_on_c, 0, 58, 59
2, 39809, Note_off_c, 0, 72, 0
2, 39872, Note_on_c, 0, 76, 63
2, 39872, Note_off_c, 0, 58, 0
2, 39873, Note_off_c, 0, 74, 0
2, 39932, Note_off_c, 0, 76, 0
2, 39936, Note_on_c, 0, 77, 67
2, 39936, Note_on_c, 0, 57, 72
2, 39936, Note_on_c, 0, 65, 72
2, 40000, Note_off_c, 0, 77, 0
2, 40064, Note_on_c, 0, 77, 63
2, 40128, Note_off_c, 0, 77, 0
2, 40192, Note_on_c, 0, 77, 60
2, 40192, Note_off_c, 0, 57, 0
2, 40192, Note_off_c, 0, 65, 0
2, 40256, Note_off_c, 0, 77, 0
2, 40320, Note_on_c, 0, 72, 58
2, 40384, Note_off_c, 0, 72, 0
2, 40448, Note_on_c, 0, 79, 76
2, 40448, Note_on_c, 0, 64, 49
2, 40448, Note_on_c, 0, 67, 49
2, 40512, Note_off_c, 0, 79, 0
2, 40576, Note_on_c, 0, 79, 60
2, 40640, Note_off_c, 0, 79, 0
2, 40704, Note_on_c, 0, 79, 59
2, 40704, Note_off_c, 0, 64, 0
2, 40704, Note_off_c, 0, 67, 0
2, 40768, Note_off_c, 0, 79, 0
2, 40832, Note_on_c, 0, 72, 51
2, 40896, Note_off_c, 0, 72, 0
2, 40960, Note_on_c, 0, 81, 71
2, 40960, Note_on_c, 0, 65, 56
2, 40960, Note_on_c, 0, 72, 56
2, 41024, Note_off_c, 0, 81, 0
2, 41088, Note_on_c, 0, 77, 57
2, 41152, Note_off_c, 0, 77, 0
2, 41216, Note_on_c, 0, 81, 69
2, 41216, Note_off_c, 0, 65, 0
2, 41216, Note_off_c, 0, 72, 0
2, 41280, Note_off_c, 0, 81, 0
2, 41344, Note_on_c, 0, 84, 66
2, 41408, Note_off_c, 0, 84, 0
2, 41472, Note_on_c, 0, 89, 75
2, 41472, Note_on_c, 0, 77, 57
2, 41472, Note_on_c, 0, 81, 57
2, 41472, Note_on_c, 0, 84, 57
2, 41536, Note_off_c, 0, 89, 0
2, 41600, Note_on_c, 0, 84, 53
2, 41600, Note_off_c, 0, 77, 0
2, 41600, Note_off_c, 0, 81, 0
2, 41600, Note_off_c, 0, 84, 0
2, 41664, Note_off_c, 0, 84, 0
2, 41728, Note_on_c, 0, 86, 68
2, 41728, Note_on_c, 0, 77, 57
2, 41728, Note_on_c, 0, 82, 57
2, 41728, Note_on_c, 0, 86, 57
2, 41792, Note_off_c, 0, 86, 0
2, 41856, Note_on_c, 0, 82, 58
2, 41856, Note_off_c, 0, 77, 0
2, 41856, Note_off_c, 0, 82, 0
2, 41856, Note_off_c, 0, 86, 0
2, 41920, Note_off_c, 0, 82, 0
2, 41984, Note_on_c, 0, 84, 62
2, 41984, Note_on_c, 0, 77, 53
2, 41984, Note_on_c, 0, 81, 53
2, 41984, Note_on_c, 0, 84, 53
2, 42048, Note_off_c, 0, 84, 0
2, 42112, Note_on_c, 0, 77, 50
2, 42176, Note_off_c, 0, 77, 0
2, 42240, Note_on_c, 0, 81, 63
2, 42240, Note_off_c, 0, 77, 0
2, 42240, Note_off_c, 0, 81, 0
2, 42240, Note_off_c, 0, 84, 0
2, 42304, Note_off_c, 0, 81, 0
2, 42368, Note_on_c, 0, 84, 63
2, 42432, Note_off_c, 0, 84, 0
2, 42496, Note_on_c, 0, 89, 71
2, 42496, Note_on_c, 0, 77, 57
2, 42496, Note_on_c, 0, 81, 57
2, 42496, Note_on_c, 0, 84, 57
2, 42560, Note_off_c, 0, 89, 0
2, 42624, Note_on_c, 0, 84, 57
2, 42624, Note_off_c, 0, 77, 0
2, 42624, Note_off_c, 0, 81, 0
2, 42624, Note_off_c, 0, 84, 0
2, 42688, Note_off_c, 0, 84, 0
2, 42752, Note_on_c, 0, 86, 63
2, 42752, Note_on_c, 0, 77, 53
2, 42752, Note_on_c, 0, 82, 53
2, 42752, Note_on_c, 0, 86, 53
2, 42816, Note_off_c, 0, 86, 0
2, 42880, Note_on_c, 0, 82, 57
2, 42880, Note_off_c, 0, 77, 0
2, 42880, Note_off_c, 0, 82, 0
2, 42880, Note_off_c, 0, 86, 0
2, 42944, Note_off_c, 0, 82, 0
2, 43008, Note_on_c, 0, 77, 65
2, 43008, Note_on_c, 0, 81, 65
2, 43008, Note_on_c, 0, 84, 65
2, 43264, Note_off_c, 0, 77, 0
2, 43264, Note_off_c, 0, 81, 0
2, 43264, Note_off_c, 0, 84, 0
2, 43520, Note_on_c, 0, 72, 88
2, 43520, Note_on_c, 0, 77, 88
2, 43520, Note_on_c, 0, 45, 86
2, 43520, Note_on_c, 0, 57, 86
2, 43648, Note_off_c, 0, 45, 0
2, 43648, Note_off_c, 0, 57, 0
2, 43648, Note_on_c, 0, 45, 56
2, 43648, Note_on_c, 0, 57, 56
2, 43776, Note_off_c, 0, 45, 0
2, 43776, Note_off_c, 0, 57, 0
2, 43776, Note_on_c, 0, 45, 59
2, 43776, Note_on_c, 0, 57, 59
2, 43904, Note_off_c, 0, 45, 0
2, 43904, Note_off_c, 0, 57, 0
2, 43904, Note_on_c, 0, 45, 56
2, 43904, Note_on_c, 0, 57, 56
2, 44032, Note_off_c, 0, 72, 0
2, 44032, Note_off_c, 0, 77, 0
2, 44032, Note_on_c, 0, 74, 97
2, 44032, Note_on_c, 0, 77, 97
2, 44032, Note_on_c, 0, 79, 97
2, 44032, Note_off_c, 0, 45, 0
2, 44032, Note_off_c, 0, 57, 0
2, 44032, Note_on_c, 0, 46, 104
2, 44032, Note_on_c, 0, 58, 104
2, 44160, Note_off_c, 0, 46, 0
2, 44160, Note_off_c, 0, 58, 0
2, 44160, Note_on_c, 0, 46, 62
2, 44160, Note_on_c, 0, 58, 62
2, 44288, Note_off_c, 0, 46, 0
2, 44288, Note_off_c, 0, 58, 0
2, 44288, Note_on_c, 0, 46, 61
2, 44288, Note_on_c, 0, 58, 61
2, 44416, Note_off_c, 0, 74, 0
2, 44416, Note_off_c, 0, 77, 0
2, 44416, Note_off_c, 0, 79, 0
2, 44416, Note_on_c, 0, 74, 59
2, 44416, Note_on_c, 0, 77, 59
2, 44416, Note_on_c, 0, 79, 59
2, 44416, Note_off_c, 0, 46, 0
2, 44416, Note_off_c, 0, 58, 0
2, 44416, Note_on_c, 0, 46, 61
2, 44416, Note_on_c, 0, 58, 61
2, 44544, Note_off_c, 0, 74, 0
2, 44544, Note_off_c, 0, 77, 0
2, 44544, Note_off_c, 0, 79, 0
2, 44544, Note_on_c, 0, 74, 104
2, 44544, Note_on_c, 0, 77, 104
2, 44544, Note_on_c, 0, 80, 104
2, 44544, Note_off_c, 0, 46, 0
2, 44544, Note_off_c, 0, 58, 0
2, 44544, Note_on_c, 0, 47, 101
2, 44544, Note_on_c, 0, 59, 101
2, 44672, Note_off_c, 0, 47, 0
2, 44672, Note_off_c, 0, 59, 0
2, 44672, Note_on_c, 0, 47, 63
2, 44672, Note_on_c, 0, 59, 63
2, 44800, Note_off_c, 0, 47, 0
2, 44800, Note_off_c, 0, 59, 0
2, 44800, Note_on_c, 0, 47, 65
2, 44800, Note_on_c, 0, 59, 65
2, 44928, Note_off_c, 0, 74, 0
2, 44928, Note_off_c, 0, 77, 0
2, 44928, Note_off_c, 0, 80, 0
2, 44928, Note_on_c, 0, 74, 64
2, 44928, Note_on_c, 0, 77, 64
2, 44928, Note_on_c, 0, 80, 64
2, 44928, Note_off_c, 0, 47, 0
2, 44928, Note_off_c, 0, 59, 0
2, 44928, Note_on_c, 0, 47, 62
2, 44928, Note_on_c, 0, 59, 62
2, 45056, Note_off_c, 0, 74, 0
2, 45056, Note_off_c, 0, 77, 0
2, 45056, Note_off_c, 0, 80, 0
2, 45056, Note_on_c, 0, 72, 75
2, 45056, Note_on_c, 0, 77, 75
2, 45056, Note_on_c, 0, 81, 75
2, 45056, Note_off_c, 0, 47, 0
2, 45056, Note_off_c, 0, 59, 0
2, 45056, Note_on_c, 0, 48, 69
2, 45056, Note_on_c, 0, 60, 69
2, 45184, Note_off_c, 0, 48, 0
2, 45184, Note_off_c, 0, 60, 0
2, 45184, Note_on_c, 0, 48, 70
2, 45184, Note_on_c, 0, 60, 70
2, 45312, Note_off_c, 0, 48, 0
2, 45312, Note_off_c, 0, 60, 0
2, 45312, Note_on_c, 0, 48, 69
2, 45312, Note_on_c, 0, 60, 69
2, 45440, Note_off_c, 0, 48, 0
2, 45440, Note_off_c, 0, 60, 0
2, 45440, Note_on_c, 0, 48, 69
2, 45440, Note_on_c, 0, 60, 69
2, 45568, Note_off_c, 0, 72, 0
2, 45568, Note_off_c, 0, 77, 0
2, 45568, Note_off_c, 0, 81, 0
2, 45568, Note_on_c, 0, 72, 60
2, 45568, Note_on_c, 0, 77, 60
2, 45568, Note_off_c, 0, 48, 0
2, 45568, Note_off_c, 0, 60, 0
2, 45568, Note_on_c, 0, 45, 65
2, 45568, Note_on_c, 0, 57, 65
2, 45696, Note_off_c, 0, 45, 0
2, 45696, Note_off_c, 0, 57, 0
2, 45696, Note_on_c, 0, 45, 62
2, 45696, Note_on_c, 0, 57, 62
2, 45824, Note_off_c, 0, 45, 0
2, 45824, Note_off_c, 0, 57, 0
2, 45824, Note_on_c, 0, 41, 59
2, 45824, Note_on_c, 0, 53, 59
2, 45952, Note_off_c, 0, 41, 0
2, 45952, Note_off_c, 0, 53, 0
2, 45952, Note_on_c, 0, 41, 70
2, 45952, Note_on_c, 0, 53, 70
2, 46080, Note_off_c, 0, 72, 0
2, 46080, Note_off_c, 0, 77, 0
2, 46080, Note_on_c, 0, 72, 112
2, 46080, Note_on_c, 0, 77, 112
2, 46080, Note_on_c, 0, 81, 112
2, 46080, Note_on_c, 0, 84, 112
2, 46080, Note_off_c, 0, 41, 0
2, 46080, Note_off_c, 0, 53, 0
2, 46080, Note_on_c, 0, 36, 96
2, 46080, Note_on_c, 0, 48, 96
2, 46336, Note_off_c, 0, 72, 0
2, 46336, Note_off_c, 0, 77, 0
2, 46336, Note_off_c, 0, 81, 0
2, 46336, Note_off_c, 0, 84, 0
2, 46336, Note_on_c, 0, 72, 91
2, 46336, Note_on_c, 0, 77, 91
2, 46336, Note_on_c, 0, 81, 91
2, 46336, Note_off_c, 0, 36, 0
2, 46336, Note_off_c, 0, 48, 0
2, 46528, Note_off_c, 0, 72, 0
2, 46528, Note_off_c, 0, 77, 0
2, 46528, Note_off_c, 0, 81, 0
2, 46528, Note_on_c, 0, 72, 97
2, 46528, Note_on_c, 0, 77, 97
2, 46528, Note_on_c, 0, 81, 97
2, 46592, Note_off_c, 0, 72, 0
2, 46592, Note_off_c, 0, 77, 0
2, 46592, Note_off_c, 0, 81, 0
2, 46592, Note_on_c, 0, 72, 111
2, 46592, Note_on_c, 0, 76, 111
2, 46592, Note_on_c, 0, 79, 111
2, 46592, Note_on_c, 0, 84, 111
2, 46592, Note_on_c, 0, 48, 86
2, 46592, Note_on_c, 0, 52, 86
2, 46592, Note_on_c, 0, 55, 86
2, 46592, Note_on_c, 0, 58, 86
2, 46848, Note_off_c, 0, 72, 0
2, 46848, Note_off_c, 0, 76, 0
2, 46848, Note_off_c, 0, 79, 0
2, 46848, Note_off_c, 0, 84, 0
2, 46848, Note_on_c, 0, 72, 101
2, 46848, Note_on_c, 0, 76, 101
2, 46848, Note_on_c, 0, 79, 101
2, 46848, Note_on_c, 0, 84, 101
2, 46848, Note_off_c, 0, 48, 0
2, 46848, Note_off_c, 0, 52, 0
2, 46848, Note_off_c, 0, 55, 0
2, 46848, Note_off_c, 0, 58, 0
2, 46848, Note_on_c, 0, 50, 83
2, 46976, Note_off_c, 0, 50, 0
2, 46976, Note_on_c, 0, 52, 103
2, 47040, Note_off_c, 0, 72, 0
2, 47040, Note_off_c, 0, 76, 0
2, 47040, Note_off_c, 0, 79, 0
2, 47040, Note_off_c, 0, 84, 0
2, 47040, Note_on_c, 0, 72, 96
2, 47040, Note_on_c, 0, 76, 96
2, 47040, Note_on_c, 0, 79, 96
2, 47040, Note_on_c, 0, 84, 96
2, 47104, Note_off_c, 0, 72, 0
2, 47104, Note_off_c, 0, 76, 0
2, 47104, Note_off_c, 0, 79, 0
2, 47104, Note_off_c, 0, 84, 0
2, 47104, Note_on_c, 0, 77, 81
2, 47104, Note_off_c, 0, 52, 0
2, 47104, Note_on_c, 0, 53, 102
2, 47104, Note_on_c, 0, 57, 102
2, 47168, Note_on_c, 0, 72, 70
2, 47169, Note_off_c, 0, 77, 0
2, 47232, Note_on_c, 0, 74, 98
2, 47233, Note_off_c, 0, 72, 0
2, 47296, Note_on_c, 0, 76, 107
2, 47297, Note_off_c, 0, 74, 0
2, 47360, Note_on_c, 0, 77, 104
2, 47360, Note_off_c, 0, 53, 0
2, 47360, Note_off_c, 0, 57, 0
2, 47361, Note_off_c, 0, 76, 0
2, 47424, Note_on_c, 0, 79, 108
2, 47425, Note_off_c, 0, 77, 0
2, 47488, Note_on_c, 0, 81, 104
2, 47489, Note_off_c, 0, 79, 0
2, 47552, Note_on_c, 0, 82, 108
2, 47553, Note_off_c, 0, 81, 0
2, 47612, Note_off_c, 0, 82, 0
2, 47616, Note_on_c, 0, 84, 107
2, 47680, Note_on_c, 0, 82, 100
2, 47681, Note_off_c, 0, 84, 0
2, 47744, Note_on_c, 0, 81, 93
2, 47745, Note_off_c, 0, 82, 0
2, 47808, Note_on_c, 0, 79, 88
2, 47809, Note_off_c, 0, 81, 0
2, 47868, Note_off_c, 0, 79, 0
2, 47872, Note_on_c, 0, 81, 106
2, 47872, Note_on_c, 0, 48, 91
2, 47872, Note_on_c, 0, 55, 91
2, 47872, Note_on_c, 0, 58, 91
2, 47936, Note_on_c, 0, 79, 95
2, 47937, Note_off_c, 0, 81, 0
2, 48000, Note_on_c, 0, 77, 91
2, 48001, Note_off_c, 0, 79, 0
2, 48064, Note_on_c, 0, 76, 86
2, 48065, Note_off_c, 0, 77, 0
2, 48124, Note_off_c, 0, 76, 0
2, 48128, Note_on_c, 0, 77, 98
2, 48128, Note_off_c, 0, 48, 0
2, 48128, Note_off_c, 0, 55, 0
2, 48128, Note_off_c, 0, 58, 0
2, 48128, Note_on_c, 0, 53, 92
2, 48128, Note_on_c, 0, 57, 92
2, 48192, Note_on_c, 0, 72, 79
2, 48193, Note_off_c, 0, 77, 0
2, 48256, Note_on_c, 0, 74, 101
2, 48257, Note_off_c, 0, 72, 0
2, 48320, Note_on_c, 0, 76, 108
2, 48321, Note_off_c, 0, 74, 0
2, 48384, Note_on_c, 0, 77, 99
2, 48384, Note_off_c, 0, 53, 0
2, 48384, Note_off_c, 0, 57, 0
2, 48385, Note_off_c, 0, 76, 0
2, 48448, Note_on_c, 0, 79, 110
2, 48449, Note_off_c, 0, 77, 0
2, 48512, Note_on_c, 0, 81, 104
2, 48513, Note_off_c, 0, 79, 0
2, 48576, Note_on_c, 0, 82, 111
2, 48577, Note_off_c, 0, 81, 0
2, 48636, Note_off_c, 0, 82, 0
2, 48640, Note_on_c, 0, 84, 106
2, 48704, Note_on_c, 0, 82, 99
2, 48705, Note_off_c, 0, 84, 0
2, 48768, Note_on_c, 0, 81, 93
2, 48769, Note_off_c, 0, 82, 0
2, 48832, Note_on_c, 0, 79, 85
2, 48833, Note_off_c, 0, 81, 0
2, 48892, Note_off_c, 0, 79, 0
2, 48896, Note_on_c, 0, 81, 100
2, 48896, Note_on_c, 0, 48, 90
2, 48896, Note_on_c, 0, 55, 90
2, 48896, Note_on_c, 0, 58, 90
2, 48960, Note_on_c, 0, 79, 88
2, 48961, Note_off_c, 0, 81, 0
2, 49024, Note_on_c, 0, 77, 94
2, 49025, Note_off_c, 0, 79, 0
2, 49088, Note_on_c, 0, 76, 89
2, 49089, Note_off_c, 0, 77, 0
2, 49148, Note_off_c, 0, 76, 0
2, 49152, Note_on_c, 0, 77, 101
2, 49152, Note_off_c, 0, 48, 0
2, 49152, Note_off_c, 0, 55, 0
2, 49152, Note_off_c, 0, 58, 0
2, 49152, Note_on_c, 0, 53, 97
2, 49152, Note_on_c, 0, 57, 97
2, 49280, Note_off_c, 0, 77, 0
2, 49280, Note_on_c, 0, 81, 108
2, 49408, Note_off_c, 0, 81, 0
2, 49408, Note_on_c, 0, 74, 82
2, 49408, Note_off_c, 0, 53, 0
2, 49408, Note_off_c, 0, 57, 0
2, 49408, Note_on_c, 0, 50, 94
2, 49536, Note_off_c, 0, 74, 0
2, 49536, Note_on_c, 0, 77, 105
2, 49536, Note_off_c, 0, 50, 0
2, 49536, Note_on_c, 0, 53, 100
2, 49664, Note_off_c, 0, 77, 0
2, 49664, Note_on_c, 0, 70, 81
2, 49664, Note_off_c, 0, 53, 0
2, 49664, Note_on_c, 0, 46, 88
2, 49792, Note_off_c, 0, 70, 0
2, 49792, Note_on_c, 0, 74, 106
2, 49792, Note_off_c, 0, 46, 0
2, 49792, Note_on_c, 0, 50, 102
2, 49920, Note_off_c, 0, 74, 0
2, 49920, Note_on_c, 0, 67, 80
2, 49920, Note_off_c, 0, 50, 0
2, 49920, Note_on_c, 0, 43, 92
2, 50048, Note_off_c, 0, 67, 0
2, 50048, Note_on_c, 0, 70, 106
2, 50048, Note_off_c, 0, 43, 0
2, 50048, Note_on_c, 0, 46, 98
2, 50176, Note_off_c, 0, 70, 0
2, 50176, Note_on_c, 0, 64, 82
2, 50176, Note_off_c, 0, 46, 0
2, 50176, Note_on_c, 0, 40, 92
2, 50432, Note_off_c, 0, 64, 0
2, 50432, Note_on_c, 0, 72, 121
2, 50432, Note_on_c, 0, 77, 121
2, 50432, Note_on_c, 0, 81, 121
2, 50432, Note_off_c, 0, 40, 0
2, 50432, Note_on_c, 0, 41, 114
2, 50432, Note_on_c, 0, 53, 114
2, 50688, Note_off_c, 0, 72, 0
2, 50688, Note_off_c, 0, 77, 0
2, 50688, Note_off_c, 0, 81, 0
2, 50688, Note_on_c, 0, 74, 108
2, 50688, Note_on_c, 0, 79, 108
2, 50688, Note_on_c, 0, 82, 108
2, 50688, Note_off_c, 0, 41, 0
2, 50688, Note_off_c, 0, 53, 0
2, 50688, Note_on_c, 0, 34, 89
2, 50688, Note_on_c, 0, 46, 89
2, 50944, Note_off_c, 0, 74, 0
2, 50944, Note_off_c, 0, 79, 0
2, 50944, Note_off_c, 0, 82, 0
2, 50944, Note_on_c, 0, 72, 94
2, 50944, Note_on_c, 0, 76, 94
2, 50944, Note_on_c, 0, 79, 94
2, 50944, Note_off_c, 0, 34, 0
2, 50944, Note_off_c, 0, 46, 0
2, 50944, Note_on_c, 0, 36, 100
2, 50944, Note_on_c, 0, 48, 100
2, 51200, Note_off_c, 0, 72, 0
2, 51200, Note_off_c, 0, 76, 0
2, 51200, Note_off_c, 0, 79, 0
2, 51200, Note_on_c, 0, 69, 89
2, 51200, Note_on_c, 0, 77, 89
2, 51200, Note_off_c, 0, 36, 0
2, 51200, Note_off_c, 0, 48, 0
2, 51200, Note_on_c, 0, 41, 100
2, 51200, Note_on_c, 0, 53, 100
2, 51328, Note_off_c, 0, 69, 0
2, 51328, Note_off_c, 0, 77, 0
2, 51328, Note_on_c, 0, 65, 46
2, 51392, Note_off_c, 0, 65, 0
2, 51392, Note_on_c, 0, 77, 79
2, 51456, Note_off_c, 0, 77, 0
2, 51456, Note_on_c, 0, 65, 46
2, 51456, Note_off_c, 0, 41, 0
2, 51456, Note_off_c, 0, 53, 0
2, 51520, Note_off_c, 0, 65, 0
2, 51520, Note_on_c, 0, 77, 75
2, 51584, Note_off_c, 0, 77, 0
2, 51584, Note_on_c, 0, 65, 46
2, 51648, Note_off_c, 0, 65, 0
2, 51648, Note_on_c, 0, 77, 75
2, 51712, Note_off_c, 0, 77, 0
2, 51712, Note_on_c, 0, 65, 43
2, 51776, Note_off_c, 0, 65, 0
2, 51776, Note_on_c, 0, 77, 77
2, 51840, Note_off_c, 0, 77, 0
2, 51840, Note_on_c, 0, 65, 45
2, 51904, Note_off_c, 0, 65, 0
2, 51904, Note_on_c, 0, 77, 75
2, 51968, Note_off_c, 0, 77, 0
2, 51968, Note_on_c, 0, 65, 50
2, 52032, Note_off_c, 0, 65, 0
2, 52032, Note_on_c, 0, 77, 77
2, 52096, Note_off_c, 0, 77, 0
2, 52096, Note_on_c, 0, 65, 47
2, 52160, Note_off_c, 0, 65, 0
2, 52160, Note_on_c, 0, 77, 75
2, 52224, Note_off_c, 0, 77, 0
2, 52224, Note_on_c, 0, 65, 72
2, 52288, Note_off_c, 0, 65, 0
2, 52288, Note_on_c, 0, 77, 124
2, 52352, Note_off_c, 0, 77, 0
2, 52352, Note_on_c, 0, 65, 75
2, 52352, Note_on_c, 0, 53, 88
2, 52352, Note_on_c, 0, 57, 88
2, 52416, Note_off_c, 0, 65, 0
2, 52416, Note_on_c, 0, 77, 122
2, 52416, Note_off_c, 0, 53, 0
2, 52416, Note_off_c, 0, 57, 0
2, 52480, Note_off_c, 0, 77, 0
2, 52480, Note_on_c, 0, 65, 73
2, 52480, Note_on_c, 0, 55, 98
2, 52480, Note_on_c, 0, 58, 98
2, 52544, Note_off_c, 0, 65, 0
2, 52544, Note_on_c, 0, 77, 122
2, 52544, Note_off_c, 0, 55, 0
2, 52544, Note_off_c, 0, 58, 0
2, 52608, Note_off_c, 0, 77, 0
2, 52608, Note_on_c, 0, 65, 81
2, 52608, Note_on_c, 0, 57, 99
2, 52608, Note_on_c, 0, 60, 99
2, 52672, Note_off_c, 0, 65, 0
2, 52672, Note_on_c, 0, 77, 124
2, 52672, Note_off_c, 0, 57, 0
2, 52672, Note_off_c, 0, 60, 0
2, 52736, Note_off_c, 0, 77, 0
2, 52736, Note_on_c, 0, 65, 73
2, 52736, Note_on_c, 0, 58, 106
2, 52736, Note_on_c, 0, 62, 106
2, 52800, Note_off_c, 0, 65, 0
2, 52800, Note_on_c, 0, 77, 122
2, 52800, Note_off_c, 0, 58, 0
2, 52800, Note_off_c, 0, 62, 0
2, 52864, Note_off_c, 0, 77, 0
2, 52864, Note_on_c, 0, 65, 75
2, 52864, Note_on_c, 0, 57, 91
2, 52864, Note_on_c, 0, 60, 91
2, 52928, Note_off_c, 0, 65, 0
2, 52928, Note_on_c, 0, 77, 120
2, 52928, Note_off_c, 0, 57, 0
2, 52928, Note_off_c, 0, 60, 0
2, 52992, Note_off_c, 0, 77, 0
2, 52992, Note_on_c, 0, 65, 72
2, 52992, Note_on_c, 0, 58, 105
2, 52992, Note_on_c, 0, 62, 105
2, 53056, Note_off_c, 0, 65, 0
2, 53056, Note_on_c, 0, 77, 125
2, 53056, Note_off_c, 0, 58, 0
2, 53056, Note_off_c, 0, 62, 0
2, 53120, Note_off_c, 0, 77, 0
2, 53120, Note_on_c, 0, 65, 76
2, 53120, Note_on_c, 0, 55, 95
2, 53120, Note_on_c, 0, 58, 95
2, 53184, Note_off_c, 0, 65, 0
2, 53184, Note_on_c, 0, 77, 124
2, 53184, Note_off_c, 0, 55, 0
2, 53184, Note_off_c, 0, 58, 0
2, 53248, Note_off_c, 0, 77, 0
2, 53248, Note_on_c, 0, 65, 72
2, 53248, Note_on_c, 0, 53, 93
2, 53248, Note_on_c, 0, 57, 93
2, 53312, Note_off_c, 0, 65, 0
2, 53312, Note_on_c, 0, 77, 120
2, 53312, Note_off_c, 0, 53, 0
2, 53312, Note_off_c, 0, 57, 0
2, 53376, Note_off_c, 0, 77, 0
2, 53376, Note_on_c, 0, 69, 49
2, 53376, Note_on_c, 0, 65, 71
2, 53440, Note_off_c, 0, 69, 0
2, 53440, Note_on_c, 0, 77, 72
2, 53440, Note_off_c, 0, 65, 0
2, 53504, Note_off_c, 0, 77, 0
2, 53504, Note_on_c, 0, 70, 50
2, 53504, Note_on_c, 0, 67, 68
2, 53568, Note_off_c, 0, 70, 0
2, 53568, Note_on_c, 0, 77, 72
2, 53568, Note_off_c, 0, 67, 0
2, 53632, Note_off_c, 0, 77, 0
2, 53632, Note_on_c, 0, 72, 53
2, 53632, Note_on_c, 0, 69, 67
2, 53696, Note_off_c, 0, 72, 0
2, 53696, Note_on_c, 0, 77, 73
2, 53696, Note_off_c, 0, 69, 0
2, 53760, Note_off_c, 0, 77, 0
2, 53760, Note_on_c, 0, 74, 58
2, 53760, Note_on_c, 0, 70, 65
2, 53824, Note_off_c, 0, 74, 0
2, 53824, Note_on_c, 0, 77, 66
2, 53824, Note_off_c, 0, 70, 0
2, 53888, Note_off_c, 0, 77, 0
2, 53888, Note_on_c, 0, 72, 53
2, 53888, Note_on_c, 0, 69, 61
2, 53952, Note_off_c, 0, 72, 0
2, 53952, Note_on_c, 0, 77, 67
2, 53952, Note_off_c, 0, 69, 0
2, 54016, Note_off_c, 0, 77, 0
2, 54016, Note_on_c, 0, 74, 60
2, 54016, Note_on_c, 0, 70, 64
2, 54080, Note_off_c, 0, 74, 0
2, 54080, Note_on_c, 0, 77, 67
2, 54080, Note_off_c, 0, 70, 0
2, 54144, Note_off_c, 0, 77, 0
2, 54144, Note_on_c, 0, 70, 51
2, 54144, Note_on_c, 0, 67, 56
2, 54208, Note_off_c, 0, 70, 0
2, 54208, Note_on_c, 0, 77, 70
2, 54208, Note_off_c, 0, 67, 0
2, 54272, Note_off_c, 0, 77, 0
2, 54272, Note_on_c, 0, 69, 51
2, 54272, Note_on_c, 0, 65, 54
2, 54336, Note_off_c, 0, 69, 0
2, 54336, Note_on_c, 0, 77, 72
2, 54336, Note_off_c, 0, 65, 0
2, 54400, Note_off_c, 0, 77, 0
2, 54400, Note_on_c, 0, 65, 71
2, 54400, Note_on_c, 0, 53, 88
2, 54400, Note_on_c, 0, 57, 88
2, 54464, Note_off_c, 0, 65, 0
2, 54464, Note_on_c, 0, 77, 118
2, 54464, Note_off_c, 0, 53, 0
2, 54464, Note_off_c, 0, 57, 0
2, 54528, Note_off_c, 0, 77, 0
2, 54528, Note_on_c, 0, 65, 77
2, 54528, Note_on_c, 0, 55, 99
2, 54528, Note_on_c, 0, 58, 99
2, 54592, Note_off_c, 0, 65, 0
2, 54592, Note_on_c, 0, 77, 122
2, 54592, Note_off_c, 0, 55, 0
2, 54592, Note_off_c, 0, 58, 0
2, 54656, Note_off_c, 0, 77, 0
2, 54656, Note_on_c, 0, 65, 78
2, 54656, Note_on_c, 0, 57, 101
2, 54656, Note_on_c, 0, 60, 101
2, 54720, Note_off_c, 0, 65, 0
2, 54720, Note_on_c, 0, 77, 119
2, 54720, Note_off_c, 0, 57, 0
2, 54720, Note_off_c, 0, 60, 0
2, 54784, Note_off_c, 0, 77, 0
2, 54784, Note_on_c, 0, 65, 75
2, 54784, Note_on_c, 0, 58, 104
2, 54784, Note_on_c, 0, 62, 104
2, 54848, Note_off_c, 0, 65, 0
2, 54848, Note_on_c, 0, 77, 117
2, 54848, Note_off_c, 0, 58, 0
2, 54848, Note_off_c, 0, 62, 0
2, 54912, Note_off_c, 0, 77, 0
2, 54912, Note_on_c, 0, 65, 74
2, 54912, Note_on_c, 0, 57, 94
2, 54912, Note_on_c, 0, 60, 94
2, 54976, Note_off_c, 0, 65, 0
2, 54976, Note_on_c, 0, 77, 120
2, 54976, Note_off_c, 0, 57, 0
2, 54976, Note_off_c, 0, 60, 0
2, 55040, Note_off_c, 0, 77, 0
2, 55040, Note_on_c, 0, 65, 76
2, 55040, Note_on_c, 0, 58, 101
2, 55040, Note_on_c, 0, 62, 101
2, 55104, Note_off_c, 0, 65, 0
2, 55104, Note_on_c, 0, 77, 120
2, 55104, Note_off_c, 0, 58, 0
2, 55104, Note_off_c, 0, 62, 0
2, 55168, Note_off_c, 0, 77, 0
2, 55168, Note_on_c, 0, 65, 77
2, 55168, Note_on_c, 0, 55, 95
2, 55168, Note_on_c, 0, 58, 95
2, 55232, Note_off_c, 0, 65, 0
2, 55232, Note_on_c, 0, 77, 116
2, 55232, Note_off_c, 0, 55, 0
2, 55232, Note_off_c, 0, 58, 0
2, 55296, Note_off_c, 0, 77, 0
2, 55296, Note_on_c, 0, 65, 74
2, 55296, Note_on_c, 0, 53, 98
2, 55296, Note_on_c, 0, 57, 98
2, 55360, Note_off_c, 0, 65, 0
2, 55360, Note_on_c, 0, 77, 125
2, 55360, Note_off_c, 0, 53, 0
2, 55360, Note_off_c, 0, 57, 0
2, 55424, Note_off_c, 0, 77, 0
2, 55424, Note_on_c, 0, 69, 83
2, 55424, Note_on_c, 0, 65, 69
2, 55488, Note_off_c, 0, 69, 0
2, 55488, Note_on_c, 0, 77, 114
2, 55488, Note_off_c, 0, 65, 0
2, 55552, Note_off_c, 0, 77, 0
2, 55552, Note_on_c, 0, 70, 83
2, 55552, Note_on_c, 0, 67, 63
2, 55616, Note_off_c, 0, 70, 0
2, 55616, Note_on_c, 0, 77, 119
2, 55616, Note_off_c, 0, 67, 0
2, 55680, Note_off_c, 0, 77, 0
2, 55680, Note_on_c, 0, 72, 88
2, 55680, Note_on_c, 0, 69, 68
2, 55744, Note_off_c, 0, 72, 0
2, 55744, Note_on_c, 0, 77, 111
2, 55744, Note_off_c, 0, 69, 0
2, 55808, Note_off_c, 0, 77, 0
2, 55808, Note_on_c, 0, 74, 94
2, 55808, Note_on_c, 0, 70, 62
2, 55872, Note_off_c, 0, 74, 0
2, 55872, Note_on_c, 0, 77, 107
2, 55872, Note_off_c, 0, 70, 0
2, 55936, Note_off_c, 0, 77, 0
2, 55936, Note_on_c, 0, 72, 86
2, 55936, Note_on_c, 0, 69, 61
2, 56000, Note_off_c, 0, 72, 0
2, 56000, Note_on_c, 0, 77, 109
2, 56000, Note_off_c, 0, 69, 0
2, 56064, Note_off_c, 0, 77, 0
2, 56064, Note_on_c, 0, 74, 88
2, 56064, Note_on_c, 0, 70, 65
2, 56128, Note_off_c, 0, 74, 0
2, 56128, Note_on_c, 0, 77, 106
2, 56128, Note_off_c, 0, 70, 0
2, 56192, Note_off_c, 0, 77, 0
2, 56192, Note_on_c, 0, 70, 86
2, 56192, Note_on_c, 0, 67, 56
2, 56256, Note_off_c, 0, 70, 0
2, 56256, Note_on_c, 0, 77, 111
2, 56256, Note_off_c, 0, 67, 0
2, 56320, Note_off_c, 0, 77, 0
2, 56320, Note_on_c, 0, 69, 79
2, 56320, Note_on_c, 0, 65, 58
2, 56384, Note_off_c, 0, 69, 0
2, 56384, Note_on_c, 0, 77, 120
2, 56384, Note_off_c, 0, 65, 0
2, 56448, Note_off_c, 0, 77, 0
2, 56448, Note_on_c, 0, 65, 76
2, 56448, Note_on_c, 0, 53, 87
2, 56448, Note_on_c, 0, 57, 87
2, 56512, Note_off_c, 0, 65, 0
2, 56512, Note_on_c, 0, 77, 120
2, 56512, Note_off_c, 0, 53, 0
2, 56512, Note_off_c, 0, 57, 0
2, 56576, Note_off_c, 0, 77, 0
2, 56576, Note_on_c, 0, 65, 74
2, 56576, Note_on_c, 0, 55, 95
2, 56576, Note_on_c, 0, 58, 95
2, 56640, Note_off_c, 0, 65, 0
2, 56640, Note_on_c, 0, 77, 119
2, 56640, Note_off_c, 0, 55, 0
2, 56640, Note_off_c, 0, 58, 0
2, 56704, Note_off_c, 0, 77, 0
2, 56704, Note_on_c, 0, 65, 79
2, 56704, Note_on_c, 0, 57, 99
2, 56704, Note_on_c, 0, 60, 99
2, 56768, Note_off_c, 0, 65, 0
2, 56768, Note_on_c, 0, 77, 119
2, 56768, Note_off_c, 0, 57, 0
2, 56768, Note_off_c, 0, 60, 0
2, 56832, Note_off_c, 0, 77, 0
2, 56832, Note_on_c, 0, 65, 76
2, 56832, Note_on_c, 0, 58, 104
2, 56832, Note_on_c, 0, 62, 104
2, 56896, Note_off_c, 0, 65, 0
2, 56896, Note_on_c, 0, 77, 120
2, 56896, Note_off_c, 0, 58, 0
2, 56896, Note_off_c, 0, 62, 0
2, 56960, Note_off_c, 0, 77, 0
2, 56960, Note_on_c, 0, 65, 74
2, 56960, Note_on_c, 0, 57, 100
2, 56960, Note_on_c, 0, 60, 100
2, 57024, Note_off_c, 0, 65, 0
2, 57024, Note_on_c, 0, 77, 123
2, 57024, Note_off_c, 0, 57, 0
2, 57024, Note_off_c, 0, 60, 0
2, 57088, Note_off_c, 0, 77, 0
2, 57088, Note_on_c, 0, 65, 80
2, 57088, Note_on_c, 0, 58, 105
2, 57088, Note_on_c, 0, 62, 105
2, 57152, Note_off_c, 0, 65, 0
2, 57152, Note_on_c, 0, 77, 125
2, 57152, Note_off_c, 0, 58, 0
2, 57152, Note_off_c, 0, 62, 0
2, 57216, Note_off_c, 0, 77, 0
2, 57216, Note_on_c, 0, 65, 75
2, 57216, Note_on_c, 0, 55, 90
2, 57216, Note_on_c, 0, 58, 90
2, 57280, Note_off_c, 0, 65, 0
2, 57280, Note_on_c, 0, 77, 120
2, 57280, Note_off_c, 0, 55, 0
2, 57280, Note_off_c, 0, 58, 0
2, 57344, Note_off_c, 0, 77, 0
2, 57344, Note_on_c, 0, 65, 75
2, 57344, Note_on_c, 0, 53, 95
2, 57344, Note_on_c, 0, 57, 95
2, 57408, Note_off_c, 0, 65, 0
2, 57408, Note_on_c, 0, 77, 124
2, 57408, Note_off_c, 0, 53, 0
2, 57408, Note_off_c, 0, 57, 0
2, 57472, Note_off_c, 0, 77, 0
2, 57472, Note_on_c, 0, 69, 83
2, 57472, Note_on_c, 0, 65, 71
2, 57536, Note_off_c, 0, 69, 0
2, 57536, Note_on_c, 0, 77, 116
2, 57536, Note_off_c, 0, 65, 0
2, 57600, Note_off_c, 0, 77, 0
2, 57600, Note_on_c, 0, 70, 79
2, 57600, Note_on_c, 0, 67, 64
2, 57664, Note_off_c, 0, 70, 0
2, 57664, Note_on_c, 0, 77, 114
2, 57664, Note_off_c, 0, 67, 0
2, 57728, Note_off_c, 0, 77, 0
2, 57728, Note_on_c, 0, 72, 94
2, 57728, Note_on_c, 0, 69, 64
2, 57792, Note_off_c, 0, 72, 0
2, 57792, Note_on_c, 0, 77, 110
2, 57792, Note_off_c, 0, 69, 0
2, 57856, Note_off_c, 0, 77, 0
2, 57856, Note_on_c, 0, 74, 93
2, 57856, Note_on_c, 0, 70, 63
2, 57920, Note_off_c, 0, 74, 0
2, 57920, Note_on_c, 0, 77, 101
2, 57920, Note_off_c, 0, 70, 0
2, 57984, Note_off_c, 0, 77, 0
2, 57984, Note_on_c, 0, 72, 85
2, 57984, Note_on_c, 0, 69, 61
2, 58048, Note_off_c, 0, 72, 0
2, 58048, Note_on_c, 0, 77, 105
2, 58048, Note_off_c, 0, 69, 0
2, 58112, Note_off_c, 0, 77, 0
2, 58112, Note_on_c, 0, 74, 89
2, 58112, Note_on_c, 0, 70, 66
2, 58176, Note_off_c, 0, 74, 0
2, 58176, Note_on_c, 0, 77, 110
2, 58176, Note_off_c, 0, 70, 0
2, 58240, Note_off_c, 0, 77, 0
2, 58240, Note_on_c, 0, 70, 83
2, 58240, Note_on_c, 0, 67, 59
2, 58304, Note_off_c, 0, 70, 0
2, 58304, Note_on_c, 0, 77, 115
2, 58304, Note_off_c, 0, 67, 0
2, 58368, Note_off_c, 0, 77, 0
2, 58368, Note_on_c, 0, 69, 82
2, 58368, Note_on_c, 0, 65, 56
2, 58432, Note_off_c, 0, 69, 0
2, 58432, Note_on_c, 0, 77, 110
2, 58432, Note_off_c, 0, 65, 0
2, 58496, Note_off_c, 0, 77, 0
2, 58496, Note_on_c, 0, 65, 73
2, 58496, Note_on_c, 0, 53, 87
2, 58496, Note_on_c, 0, 57, 87
2, 58560, Note_off_c, 0, 65, 0
2, 58560, Note_on_c, 0, 77, 123
2, 58560, Note_off_c, 0, 53, 0
2, 58560, Note_off_c, 0, 57, 0
2, 58624, Note_off_c, 0, 77, 0
2, 58624, Note_on_c, 0, 65, 70
2, 58624, Note_on_c, 0, 55, 101
2, 58624, Note_on_c, 0, 58, 101
2, 58688, Note_off_c, 0, 65, 0
2, 58688, Note_on_c, 0, 77, 118
2, 58688, Note_off_c, 0, 55, 0
2, 58688, Note_off_c, 0, 58, 0
2, 58752, Note_off_c, 0, 77, 0
2, 58752, Note_on_c, 0, 65, 75
2, 58752, Note_on_c, 0, 57, 106
2, 58752, Note_on_c, 0, 60, 106
2, 58816, Note_off_c, 0, 65, 0
2, 58816, Note_on_c, 0, 77, 124
2, 58816, Note_off_c, 0, 57, 0
2, 58816, Note_off_c, 0, 60, 0
2, 58880, Note_off_c, 0, 77, 0
2, 58880, Note_on_c, 0, 65, 77
2, 58880, Note_on_c, 0, 58, 104
2, 58880, Note_on_c, 0, 62, 104
2, 58944, Note_off_c, 0, 65, 0
2, 58944, Note_on_c, 0, 77, 116
2, 58944, Note_off_c, 0, 58, 0
2, 58944, Note_off_c, 0, 62, 0
2, 59008, Note_off_c, 0, 77, 0
2, 59008, Note_on_c, 0, 65, 78
2, 59008, Note_on_c, 0, 57, 95
2, 59008, Note_on_c, 0, 60, 95
2, 59072, Note_off_c, 0, 65, 0
2, 59072, Note_on_c, 0, 77, 124
2, 59072, Note_off_c, 0, 57, 0
2, 59072, Note_off_c, 0, 60, 0
2, 59136, Note_off_c, 0, 77, 0
2, 59136, Note_on_c, 0, 65, 78
2, 59136, Note_on_c, 0, 58, 105
2, 59136, Note_on_c, 0, 62, 105
2, 59200, Note_off_c, 0, 65, 0
2, 59200, Note_on_c, 0, 77, 122
2, 59200, Note_off_c, 0, 58, 0
2, 59200, Note_off_c, 0, 62, 0
2, 59264, Note_off_c, 0, 77, 0
2, 59264, Note_on_c, 0, 65, 71
2, 59264, Note_on_c, 0, 55, 96
2, 59264, Note_on_c, 0, 58, 96
2, 59328, Note_off_c, 0, 65, 0
2, 59328, Note_on_c, 0, 77, 124
2, 59328, Note_off_c, 0, 55, 0
2, 59328, Note_off_c, 0, 58, 0
2, 59392, Note_off_c, 0, 77, 0
2, 59392, Note_on_c, 0, 75, 116
2, 59392, Note_on_c, 0, 87, 116
2, 59392, Note_on_c, 0, 54, 105
2, 59392, Note_on_c, 0, 57, 105
2, 59392, Note_on_c, 0, 60, 105
2, 59520, Note_off_c, 0, 54, 0
2, 59520, Note_off_c, 0, 57, 0
2, 59520, Note_off_c, 0, 60, 0
2, 59520, Note_on_c, 0, 63, 103
2, 59648, Note_off_c, 0, 63, 0
2, 59648, Note_on_c, 0, 54, 93
2, 59648, Note_on_c, 0, 57, 93
2, 59648, Note_on_c, 0, 60, 93
2, 59776, Note_off_c, 0, 54, 0
2, 59776, Note_off_c, 0, 57, 0
2, 59776, Note_off_c, 0, 60, 0
2, 59776, Note_on_c, 0, 63, 105
2, 59904, Note_off_c, 0, 75, 0
2, 59904, Note_off_c, 0, 87, 0
2, 59904, Note_on_c, 0, 72, 58
2, 59904, Note_on_c, 0, 84, 58
2, 59904, Note_off_c, 0, 63, 0
2, 59904, Note_on_c, 0, 54, 90
2, 59904, Note_on_c, 0, 57, 90
2, 59904, Note_on_c, 0, 60, 90
2, 60032, Note_off_c, 0, 54, 0
2, 60032, Note_off_c, 0, 57, 0
2, 60032, Note_off_c, 0, 60, 0
2, 60032, Note_on_c, 0, 63, 103
2, 60160, Note_off_c, 0, 63, 0
2, 60160, Note_on_c, 0, 54, 86
2, 60160, Note_on_c, 0, 57, 86
2, 60160, Note_on_c, 0, 60, 86
2, 60288, Note_off_c, 0, 54, 0
2, 60288, Note_off_c, 0, 57, 0
2, 60288, Note_off_c, 0, 60, 0
2, 60288, Note_on_c, 0, 63, 107
2, 60416, Note_off_c, 0, 72, 0
2, 60416, Note_off_c, 0, 84, 0
2, 60416, Note_on_c, 0, 69, 53
2, 60416, Note_on_c, 0, 81, 53
2, 60416, Note_off_c, 0, 63, 0
2, 60416, Note_on_c, 0, 54, 86
2, 60416, Note_on_c, 0, 60, 86
2, 60544, Note_off_c, 0, 54, 0
2, 60544, Note_off_c, 0, 60, 0
2, 60544, Note_on_c, 0, 62, 109
2, 60672, Note_off_c, 0, 62, 0
2, 60672, Note_on_c, 0, 54, 95
2, 60672, Note_on_c, 0, 60, 95
2, 60800, Note_off_c, 0, 54, 0
2, 60800, Note_off_c, 0, 60, 0
2, 60800, Note_on_c, 0, 62, 101
2, 60928, Note_off_c, 0, 69, 0
2, 60928, Note_off_c, 0, 81, 0
2, 60928, Note_on_c, 0, 74, 66
2, 60928, Note_on_c, 0, 86, 66
2, 60928, Note_off_c, 0, 62, 0
2, 60928, Note_on_c, 0, 54, 94
2, 60928, Note_on_c, 0, 60, 94
2, 61056, Note_off_c, 0, 54, 0
2, 61056, Note_off_c, 0, 60, 0
2, 61056, Note_on_c, 0, 62, 102
2, 61184, Note_off_c, 0, 62, 0
2, 61184, Note_on_c, 0, 54, 94
2, 61184, Note_on_c, 0, 60, 94
2, 61312, Note_off_c, 0, 54, 0
2, 61312, Note_off_c, 0, 60, 0
2, 61312, Note_on_c, 0, 62, 102
2, 61440, Note_off_c, 0, 74, 0
2, 61440, Note_off_c, 0, 86, 0
2, 61440, Note_on_c, 0, 67, 44
2, 61440, Note_off_c, 0, 62, 0
2, 61440, Note_on_c, 0, 55, 95
2, 61440, Note_on_c, 0, 58, 95
2, 61504, Note_off_c, 0, 67, 0
2, 61504, Note_on_c, 0, 79, 77
2, 61504, Note_off_c, 0, 55, 0
2, 61504, Note_off_c, 0, 58, 0
2, 61568, Note_off_c, 0, 79, 0
2, 61568, Note_on_c, 0, 70, 54
2, 61568, Note_on_c, 0, 67, 118
2, 61632, Note_off_c, 0, 70, 0
2, 61632, Note_on_c, 0, 79, 71
2, 61632, Note_off_c, 0, 67, 0
2, 61696, Note_off_c, 0, 79, 0
2, 61696, Note_on_c, 0, 72, 51
2, 61696, Note_on_c, 0, 69, 110
2, 61760, Note_off_c, 0, 72, 0
2, 61760, Note_on_c, 0, 79, 72
2, 61760, Note_off_c, 0, 69, 0
2, 61824, Note_off_c, 0, 79, 0
2, 61824, Note_on_c, 0, 74, 55
2, 61824, Note_on_c, 0, 70, 106
2, 61888, Note_off_c, 0, 74, 0
2, 61888, Note_on_c, 0, 79, 65
2, 61888, Note_off_c, 0, 70, 0
2, 61952, Note_off_c, 0, 79, 0
2, 61952, Note_on_c, 0, 75, 60
2, 61952, Note_on_c, 0, 72, 101
2, 62016, Note_off_c, 0, 75, 0
2, 62016, Note_on_c, 0, 79, 63
2, 62016, Note_off_c, 0, 72, 0
2, 62080, Note_off_c, 0, 79, 0
2, 62080, Note_on_c, 0, 74, 53
2, 62080, Note_on_c, 0, 70, 89
2, 62144, Note_off_c, 0, 74, 0
2, 62144, Note_on_c, 0, 79, 68
2, 62144, Note_off_c, 0, 70, 0
2, 62208, Note_off_c, 0, 79, 0
2, 62208, Note_on_c, 0, 75, 57
2, 62208, Note_on_c, 0, 72, 102
2, 62272, Note_off_c, 0, 75, 0
2, 62272, Note_on_c, 0, 79, 64
2, 62272, Note_off_c, 0, 72, 0
2, 62336, Note_off_c, 0, 79, 0
2, 62336, Note_on_c, 0, 72, 50
2, 62336, Note_on_c, 0, 69, 91
2, 62400, Note_off_c, 0, 72, 0
2, 62400, Note_on_c, 0, 79, 76
2, 62400, Note_off_c, 0, 69, 0
2, 62464, Note_off_c, 0, 79, 0
2, 62464, Note_on_c, 0, 70, 48
2, 62464, Note_on_c, 0, 67, 93
2, 62528, Note_off_c, 0, 70, 0
2, 62528, Note_on_c, 0, 79, 68
2, 62528, Note_off_c, 0, 67, 0
2, 62592, Note_off_c, 0, 79, 0
2, 62592, Note_on_c, 0, 67, 39
2, 62592, Note_on_c, 0, 55, 86
2, 62592, Note_on_c, 0, 58, 86
2, 62656, Note_off_c, 0, 67, 0
2, 62656, Note_on_c, 0, 79, 74
2, 62656, Note_off_c, 0, 55, 0
2, 62656, Note_off_c, 0, 58, 0
2, 62720, Note_off_c, 0, 79, 0
2, 62720, Note_on_c, 0, 67, 51
2, 62720, Note_on_c, 0, 57, 102
2, 62720, Note_on_c, 0, 60, 102
2, 62784, Note_off_c, 0, 67, 0
2, 62784, Note_on_c, 0, 79, 77
2, 62784, Note_off_c, 0, 57, 0
2, 62784, Note_off_c, 0, 60, 0
2, 62848, Note_off_c, 0, 79, 0
2, 62848, Note_on_c, 0, 67, 47
2, 62848, Note_on_c, 0, 58, 109
2, 62848, Note_on_c, 0, 62, 109
2, 62912, Note_off_c, 0, 67, 0
2, 62912, Note_on_c, 0, 79, 74
2, 62912, Note_off_c, 0, 58, 0
2, 62912, Note_off_c, 0, 62, 0
2, 62976, Note_off_c, 0, 79, 0
2, 62976, Note_on_c, 0, 67, 49
2, 62976, Note_on_c, 0, 60, 105
2, 62976, Note_on_c, 0, 63, 105
2, 63040, Note_off_c, 0, 67, 0
2, 63040, Note_on_c, 0, 79, 77
2, 63040, Note_off_c, 0, 60, 0
2, 63040, Note_off_c, 0, 63, 0
2, 63104, Note_off_c, 0, 79, 0
2, 63104, Note_on_c, 0, 67, 50
2, 63104, Note_on_c, 0, 58, 96
2, 63104, Note_on_c, 0, 62, 96
2, 63168, Note_off_c, 0, 67, 0
2, 63168, Note_on_c, 0, 79, 75
2, 63168, Note_off_c, 0, 58, 0
2, 63168, Note_off_c, 0, 62, 0
2, 63232, Note_off_c, 0, 79, 0
2, 63232, Note_on_c, 0, 67, 42
2, 63232, Note_on_c, 0, 60, 100
2, 63232, Note_on_c, 0, 63, 100
2, 63296, Note_off_c, 0, 67, 0
2, 63296, Note_on_c, 0, 79, 78
2, 63296, Note_off_c, 0, 60, 0
2, 63296, Note_off_c, 0, 63, 0
2, 63360, Note_off_c, 0, 79, 0
2, 63360, Note_on_c, 0, 67, 51
2, 63360, Note_on_c, 0, 57, 92
2, 63360, Note_on_c, 0, 60, 92
2, 63424, Note_off_c, 0, 67, 0
2, 63424, Note_on_c, 0, 79, 75
2, 63424, Note_off_c, 0, 57, 0
2, 63424, Note_off_c, 0, 60, 0
2, 63488, Note_off_c, 0, 79, 0
2, 63488, Note_on_c, 0, 67, 48
2, 63488, Note_on_c, 0, 55, 91
2, 63488, Note_on_c, 0, 58, 91
2, 63552, Note_off_c, 0, 67, 0
2, 63552, Note_on_c, 0, 79, 76
2, 63552, Note_off_c, 0, 55, 0
2, 63552, Note_off_c, 0, 58, 0
2, 63616, Note_off_c, 0, 79, 0
2, 63616, Note_on_c, 0, 70, 51
2, 63616, Note_on_c, 0, 67, 72
2, 63680, Note_off_c, 0, 70, 0
2, 63680, Note_on_c, 0, 79, 77
2, 63680, Note_off_c, 0, 67, 0
2, 63744, Note_off_c, 0, 79, 0
2, 63744, Note_on_c, 0, 72, 51
2, 63744, Note_on_c, 0, 69, 68
2, 63808, Note_off_c, 0, 72, 0
2, 63808, Note_on_c, 0, 79, 74
2, 63808, Note_off_c, 0, 69, 0
2, 63872, Note_off_c, 0, 79, 0
2, 63872, Note_on_c, 0, 74, 56
2, 63872, Note_on_c, 0, 70, 66
2, 63936, Note_off_c, 0, 74, 0
2, 63936, Note_on_c, 0, 79, 70
2, 63936, Note_off_c, 0, 70, 0
2, 64000, Note_off_c, 0, 79, 0
2, 64000, Note_on_c, 0, 75, 55
2, 64000, Note_on_c, 0, 72, 64
2, 64064, Note_off_c, 0, 75, 0
2, 64064, Note_on_c, 0, 79, 64
2, 64064, Note_off_c, 0, 72, 0
2, 64128, Note_off_c, 0, 79, 0
2, 64128, Note_on_c, 0, 74, 50
2, 64128, Note_on_c, 0, 70, 55
2, 64192, Note_off_c, 0, 74, 0
2, 64192, Note_on_c, 0, 79, 70
2, 64192, Note_off_c, 0, 70, 0
2, 64256, Note_off_c, 0, 79, 0
2, 64256, Note_on_c, 0, 75, 55
2, 64256, Note_on_c, 0, 72, 64
2, 64320, Note_off_c, 0, 75, 0
2, 64320, Note_on_c, 0, 79, 69
2, 64320, Note_off_c, 0, 72, 0
2, 64384, Note_off_c, 0, 79, 0
2, 64384, Note_on_c, 0, 72, 51
2, 64384, Note_on_c, 0, 69, 55
2, 64448, Note_off_c, 0, 72, 0
2, 64448, Note_on_c, 0, 79, 67
2, 64448, Note_off_c, 0, 69, 0
2, 64512, Note_off_c, 0, 79, 0
2, 64512, Note_on_c, 0, 70, 50
2, 64512, Note_on_c, 0, 67, 53
2, 64576, Note_off_c, 0, 70, 0
2, 64576, Note_on_c, 0, 79, 75
2, 64576, Note_off_c, 0, 67, 0
2, 64640, Note_off_c, 0, 79, 0
2, 64640, Note_on_c, 0, 67, 45
2, 64640, Note_on_c, 0, 55, 88
2, 64640, Note_on_c, 0, 58, 88
2, 64704, Note_off_c, 0, 67, 0
2, 64704, Note_on_c, 0, 79, 77
2, 64704, Note_off_c, 0, 55, 0
2, 64704, Note_off_c, 0, 58, 0
2, 64768, Note_off_c, 0, 79, 0
2, 64768, Note_on_c, 0, 67, 45
2, 64768, Note_on_c, 0, 57, 104
2, 64768, Note_on_c, 0, 60, 104
2, 64832, Note_off_c, 0, 67, 0
2, 64832, Note_on_c, 0, 79, 74
2, 64832, Note_off_c, 0, 57, 0
2, 64832, Note_off_c, 0, 60, 0
2, 64896, Note_off_c, 0, 79, 0
2, 64896, Note_on_c, 0, 67, 48
2, 64896, Note_on_c, 0, 58, 102
2, 64896, Note_on_c, 0, 62, 102
2, 64960, Note_off_c, 0, 67, 0
2, 64960, Note_on_c, 0, 79, 76
2, 64960, Note_off_c, 0, 58, 0
2, 64960, Note_off_c, 0, 62, 0
2, 65024, Note_off_c, 0, 79, 0
2, 65024, Note_on_c, 0, 67, 47
2, 65024, Note_on_c, 0, 60, 103
2, 65024, Note_on_c, 0, 63, 103
2, 65088, Note_off_c, 0, 67, 0
2, 65088, Note_on_c, 0, 79, 74
2, 65088, Note_off_c, 0, 60, 0
2, 65088, Note_off_c, 0, 63, 0
2, 65152, Note_off_c, 0, 79, 0
2, 65152, Note_on_c, 0, 67, 47
2, 65152, Note_on_c, 0, 58, 96
2, 65152, Note_on_c, 0, 62, 96
2, 65216, Note_off_c, 0, 67, 0
2, 65216, Note_on_c, 0, 79, 72
2, 65216, Note_off_c, 0, 58, 0
2, 65216, Note_off_c, 0, 62, 0
2, 65280, Note_off_c, 0, 79, 0
2, 65280, Note_on_c, 0, 67, 46
2, 65280, Note_on_c, 0, 60, 105
2, 65280, Note_on_c, 0, 63, 105
2, 65344, Note_off_c, 0, 67, 0
2, 65344, Note_on_c, 0, 79, 70
2, 65344, Note_off_c, 0, 60, 0
2, 65344, Note_off_c, 0, 63, 0
2, 65408, Note_off_c, 0, 79, 0
2, 65408, Note_on_c, 0, 67, 40
2, 65408, Note_on_c, 0, 57, 91
2, 65408, Note_on_c, 0, 60, 91
2, 65472, Note_off_c, 0, 67, 0
2, 65472, Note_on_c, 0, 79, 69
2, 65472, Note_off_c, 0, 57, 0
2, 65472, Note_off_c, 0, 60, 0
2, 65536, Note_off_c, 0, 79, 0
2, 65536, Note_on_c, 0, 77, 109
2, 65536, Note_on_c, 0, 89, 109
2, 65536, Note_on_c, 0, 56, 101
2, 65536, Note_on_c, 0, 59, 101
2, 65536, Note_on_c, 0, 62, 101
2, 65664, Note_off_c, 0, 56, 0
2, 65664, Note_off_c, 0, 59, 0
2, 65664, Note_off_c, 0, 62, 0
2, 65664, Note_on_c, 0, 65, 106
2, 65792, Note_off_c, 0, 65, 0
2, 65792, Note_on_c, 0, 56, 92
2, 65792, Note_on_c, 0, 59, 92
2, 65792, Note_on_c, 0, 62, 92
2, 65920, Note_off_c, 0, 56, 0
2, 65920, Note_off_c, 0, 59, 0
2, 65920, Note_off_c, 0, 62, 0
2, 65920, Note_on_c, 0, 65, 107
2, 66048, Note_off_c, 0, 77, 0
2, 66048, Note_off_c, 0, 89, 0
2, 66048, Note_on_c, 0, 74, 60
2, 66048, Note_on_c, 0, 86, 60
2, 66048, Note_off_c, 0, 65, 0
2, 66048, Note_on_c, 0, 56, 94
2, 66048, Note_on_c, 0, 59, 94
2, 66048, Note_on_c, 0, 62, 94
2, 66176, Note_off_c, 0, 56, 0
2, 66176, Note_off_c, 0, 59, 0
2, 66176, Note_off_c, 0, 62, 0
2, 66176, Note_on_c, 0, 65, 107
2, 66304, Note_off_c, 0, 65, 0
2, 66304, Note_on_c, 0, 56, 88
2, 66304, Note_on_c, 0, 59, 88
2, 66304, Note_on_c, 0, 62, 88
2, 66432, Note_off_c, 0, 56, 0
2, 66432, Note_off_c, 0, 59, 0
2, 66432, Note_off_c, 0, 62, 0
2, 66432, Note_on_c, 0, 65, 103
2, 66560, Note_off_c, 0, 74, 0
2, 66560, Note_off_c, 0, 86, 0
2, 66560, Note_on_c, 0, 71, 59
2, 66560, Note_on_c, 0, 83, 59
2, 66560, Note_off_c, 0, 65, 0
2, 66560, Note_on_c, 0, 56, 92
2, 66560, Note_on_c, 0, 62, 92
2, 66688, Note_off_c, 0, 56, 0
2, 66688, Note_off_c, 0, 62, 0
2, 66688, Note_on_c, 0, 64, 100
2, 66816, Note_off_c, 0, 64, 0
2, 66816, Note_on_c, 0, 56, 96
2, 66816, Note_on_c, 0, 62, 96
2, 66944, Note_off_c, 0, 56, 0
2, 66944, Note_off_c, 0, 62, 0
2, 66944, Note_on_c, 0, 64, 106
2, 67072, Note_off_c, 0, 71, 0
2, 67072, Note_off_c, 0, 83, 0
2, 67072, Note_on_c, 0, 76, 70
2, 67072, Note_on_c, 0, 88, 70
2, 67072, Note_off_c, 0, 64, 0
2, 67072, Note_on_c, 0, 56, 96
2, 67072, Note_on_c, 0, 62, 96
2, 67200, Note_off_c, 0, 56, 0
2, 67200, Note_off_c, 0, 62, 0
2, 67200, Note_on_c, 0, 64, 102
2, 67328, Note_off_c, 0, 64, 0
2, 67328, Note_on_c, 0, 56, 90
2, 67328, Note_on_c, 0, 62, 90
2, 67456, Note_off_c, 0, 56, 0
2, 67456, Note_off_c, 0, 62, 0
2, 67456, Note_on_c, 0, 64, 101
2, 67584, Note_off_c, 0, 76, 0
2, 67584, Note_off_c, 0, 88, 0
2, 67584, Note_on_c, 0, 69, 48
2, 67584, Note_on_c, 0, 81, 48
2, 67584, Note_off_c, 0, 64, 0
2, 67584, Note_on_c, 0, 57, 87
2, 67584, Note_on_c, 0, 61, 87
2, 67712, Note_off_c, 0, 57, 0
2, 67712, Note_off_c, 0, 61, 0
2, 67712, Note_on_c, 0, 57, 93
2, 67840, Note_off_c, 0, 69, 0
2, 67840, Note_off_c, 0, 81, 0
2, 67840, Note_on_c, 0, 69, 92
2, 67840, Note_on_c, 0, 73, 92
2, 67840, Note_on_c, 0, 76, 92
2, 67840, Note_on_c, 0, 81, 92
2, 67840, Note_off_c, 0, 57, 0
2, 67840, Note_on_c, 0, 61, 108
2, 67968, Note_off_c, 0, 61, 0
2, 67968, Note_on_c, 0, 57, 94
2, 68096, Note_off_c, 0, 57, 0
2, 68096, Note_on_c, 0, 52, 94
2, 68224, Note_off_c, 0, 52, 0
2, 68224, Note_on_c, 0, 57, 101
2, 68352, Note_off_c, 0, 69, 0
2, 68352, Note_off_c, 0, 73, 0
2, 68352, Note_off_c, 0, 76, 0
2, 68352, Note_off_c, 0, 81, 0
2, 68352, Note_on_c, 0, 69, 59
2, 68352, Note_on_c, 0, 73, 59
2, 68352, Note_on_c, 0, 76, 59
2, 68352, Note_on_c, 0, 81, 59
2, 68352, Note_off_c, 0, 57, 0
2, 68352, Note_on_c, 0, 49, 92
2, 68480, Note_off_c, 0, 49, 0
2, 68480, Note_on_c, 0, 52, 97
2, 68608, Note_off_c, 0, 69, 0
2, 68608, Note_off_c, 0, 73, 0
2, 68608, Note_off_c, 0, 76, 0
2, 68608, Note_off_c, 0, 81, 0
2, 68608, Note_on_c, 0, 69, 60
2, 68608, Note_on_c, 0, 73, 60
2, 68608, Note_on_c, 0, 76, 60
2, 68608, Note_on_c, 0, 81, 60
2, 68608, Note_off_c, 0, 52, 0
2, 68608, Note_on_c, 0, 45, 89
2, 68864, Note_off_c, 0, 69, 0
2, 68864, Note_off_c, 0, 73, 0
2, 68864, Note_off_c, 0, 76, 0
2, 68864, Note_off_c, 0, 81, 0
2, 68864, Note_off_c, 0, 45, 0
2, 68864, Note_on_c, 0, 57, 73
2, 68864, Note_on_c, 0, 61, 73
2, 68864, Note_on_c, 0, 64, 73
2, 69120, Note_on_c, 0, 76, 53
2, 69120, Note_off_c, 0, 57, 0
2, 69120, Note_off_c, 0, 61, 0
2, 69120, Note_off_c, 0, 64, 0
2, 69120, Note_on_c, 0, 57, 64
2, 69120, Note_on_c, 0, 61, 64
2, 69120, Note_on_c, 0, 64, 64
2, 69376, Note_off_c, 0, 57, 0
2, 69376, Note_off_c, 0, 61, 0
2, 69376, Note_off_c, 0, 64, 0
2, 69376, Note_on_c, 0, 57, 59
2, 69376, Note_on_c, 0, 61, 59
2, 69376, Note_on_c, 0, 64, 59
2, 69632, Note_off_c, 0, 76, 0
2, 69632, Note_on_c, 0, 77, 64
2, 69632, Note_off_c, 0, 57, 0
2, 69632, Note_off_c, 0, 61, 0
2, 69632, Note_off_c, 0, 64, 0
2, 69632, Note_on_c, 0, 45, 56
2, 69717, Note_on_c, 0, 79, 68
2, 69718, Note_off_c, 0, 77, 0
2, 69802, Note_on_c, 0, 77, 61
2, 69803, Note_off_c, 0, 79, 0
2, 69883, Note_off_c, 0, 77, 0
2, 69888, Note_on_c, 0, 81, 69
2, 69888, Note_off_c, 0, 45, 0
2, 69888, Note_on_c, 0, 57, 74
2, 69888, Note_on_c, 0, 62, 74
2, 69888, Note_on_c, 0, 65, 74
2, 69973, Note_on_c, 0, 82, 76
2, 69974, Note_off_c, 0, 81, 0
2, 70058, Note_on_c, 0, 81, 58
2, 70059, Note_off_c, 0, 82, 0
2, 70139, Note_off_c, 0, 81, 0
2, 70144, Note_on_c, 0, 77, 56
2, 70144, Note_off_c, 0, 57, 0
2, 70144, Note_off_c, 0, 62, 0
2, 70144, Note_off_c, 0, 65, 0
2, 70144, Note_on_c, 0, 57, 66
2, 70144, Note_on_c, 0, 62, 66
2, 70144, Note_on_c, 0, 65, 66
2, 70229, Note_on_c, 0, 79, 56
2, 70230, Note_off_c, 0, 77, 0
2, 70314, Note_on_c, 0, 77, 57
2, 70315, Note_off_c, 0, 79, 0
2, 70395, Note_off_c, 0, 77, 0
2, 70400, Note_on_c, 0, 74, 57
2, 70400, Note_off_c, 0, 57, 0
2, 70400, Note_off_c, 0, 62, 0
2, 70400, Note_off_c, 0, 65, 0
2, 70400, Note_on_c, 0, 57, 63
2, 70400, Note_on_c, 0, 62, 63
2, 70400, Note_on_c, 0, 65, 63
2, 70485, Note_on_c, 0, 76, 60
2, 70486, Note_off_c, 0, 74, 0
2, 70570, Note_on_c, 0, 74, 57
2, 70571, Note_off_c, 0, 76, 0
2, 70651, Note_off_c, 0, 74, 0
2, 70656, Note_on_c, 0, 73, 54
2, 70656, Note_off_c, 0, 57, 0
2, 70656, Note_off_c, 0, 62, 0
2, 70656, Note_off_c, 0, 65, 0
2, 70656, Note_on_c, 0, 45, 58
2, 70656, Note_on_c, 0, 57, 58
2, 70741, Note_on_c, 0, 74, 57
2, 70742, Note_off_c, 0, 73, 0
2, 70826, Note_on_c, 0, 73, 57
2, 70827, Note_off_c, 0, 74, 0
2, 70907, Note_off_c, 0, 73, 0
2, 70912, Note_on_c, 0, 69, 50
2, 70912, Note_off_c, 0, 45, 0
2, 70912, Note_off_c, 0, 57, 0
2, 70912, Note_on_c, 0, 57, 71
2, 70912, Note_on_c, 0, 61, 71
2, 70912, Note_on_c, 0, 64, 71
2, 70997, Note_on_c, 0, 71, 52
2, 70998, Note_off_c, 0, 69, 0
2, 71082, Note_on_c, 0, 69, 56
2, 71083, Note_off_c, 0, 71, 0
2, 71163, Note_off_c, 0, 69, 0
2, 71168, Note_on_c, 0, 73, 65
2, 71168, Note_off_c, 0, 57, 0
2, 71168, Note_off_c, 0, 61, 0
2, 71168, Note_off_c, 0, 64, 0
2, 71168, Note_on_c, 0, 57, 65
2, 71168, Note_on_c, 0, 61, 65
2, 71168, Note_on_c, 0, 64, 65
2, 71253, Note_on_c, 0, 74, 71
2, 71254, Note_off_c, 0, 73, 0
2, 71338, Note_on_c, 0, 73, 58
2, 71339, Note_off_c, 0, 74, 0
2, 71419, Note_off_c, 0, 73, 0
2, 71424, Note_on_c, 0, 76, 65
2, 71424, Note_off_c, 0, 57, 0
2, 71424, Note_off_c, 0, 61, 0
2, 71424, Note_off_c, 0, 64, 0
2, 71424, Note_on_c, 0, 57, 59
2, 71424, Note_on_c, 0, 61, 59
2, 71424, Note_on_c, 0, 64, 59
2, 71509, Note_on_c, 0, 77, 68
2, 71510, Note_off_c, 0, 76, 0
2, 71594, Note_on_c, 0, 76, 52
2, 71595, Note_off_c, 0, 77, 0
2, 71675, Note_off_c, 0, 76, 0
2, 71680, Note_on_c, 0, 77, 58
2, 71680, Note_off_c, 0, 57, 0
2, 71680, Note_off_c, 0, 61, 0
2, 71680, Note_off_c, 0, 64, 0
2, 71680, Note_on_c, 0, 45, 61
2, 71680, Note_on_c, 0, 57, 61
2, 71765, Note_on_c, 0, 79, 61
2, 71766, Note_off_c, 0, 77, 0
2, 71850, Note_on_c, 0, 77, 60
2, 71851, Note_off_c, 0, 79, 0
2, 71931, Note_off_c, 0, 77, 0
2, 71936, Note_on_c, 0, 81, 69
2, 71936, Note_off_c, 0, 45, 0
2, 71936, Note_off_c, 0, 57, 0
2, 71936, Note_on_c, 0, 57, 69
2, 71936, Note_on_c, 0, 62, 69
2, 71936, Note_on_c, 0, 65, 69
2, 72021, Note_on_c, 0, 82, 70
2, 72022, Note_off_c, 0, 81, 0
2, 72106, Note_on_c, 0, 81, 55
2, 72107, Note_off_c, 0, 82, 0
2, 72187, Note_off_c, 0, 81, 0
2, 72192, Note_on_c, 0, 77, 58
2, 72192, Note_off_c, 0, 57, 0
2, 72192, Note_off_c, 0, 62, 0
2, 72192, Note_off_c, 0, 65, 0
2, 72192, Note_on_c, 0, 57, 58
2, 72192, Note_on_c, 0, 62, 58
2, 72192, Note_on_c, 0, 65, 58
2, 72277, Note_on_c, 0, 79, 58
2, 72278, Note_off_c, 0, 77, 0
2, 72362, Note_on_c, 0, 77, 57
2, 72363, Note_off_c, 0, 79, 0
2, 72443, Note_off_c, 0, 77, 0
2, 72448, Note_on_c, 0, 74, 52
2, 72448, Note_off_c, 0, 57, 0
2, 72448, Note_off_c, 0, 62, 0
2, 72448, Note_off_c, 0, 65, 0
2, 72448, Note_on_c, 0, 57, 66
2, 72448, Note_on_c, 0, 62, 66
2, 72448, Note_on_c, 0, 65, 66
2, 72533, Note_on_c, 0, 76, 58
2, 72534, Note_off_c, 0, 74, 0
2, 72618, Note_on_c, 0, 74, 54
2, 72619, Note_off_c, 0, 76, 0
2, 72699, Note_off_c, 0, 74, 0
2, 72704, Note_on_c, 0, 73, 56
2, 72704, Note_off_c, 0, 57, 0
2, 72704, Note_off_c, 0, 62, 0
2, 72704, Note_off_c, 0, 65, 0
2, 72704, Note_on_c, 0, 45, 54
2, 72704, Note_on_c, 0, 57, 54
2, 72789, Note_on_c, 0, 74, 56
2, 72790, Note_off_c, 0, 73, 0
2, 72874, Note_on_c, 0, 73, 57
2, 72875, Note_off_c, 0, 74, 0
2, 72955, Note_off_c, 0, 73, 0
2, 72960, Note_on_c, 0, 69, 54
2, 72960, Note_off_c, 0, 45, 0
2, 72960, Note_off_c, 0, 57, 0
2, 72960, Note_on_c, 0, 57, 72
2, 72960, Note_on_c, 0, 61, 72
2, 72960, Note_on_c, 0, 64, 72
2, 73045, Note_on_c, 0, 71, 57
2, 73046, Note_off_c, 0, 69, 0
2, 73130, Note_on_c, 0, 69, 59
2, 73131, Note_off_c, 0, 71, 0
2, 73211, Note_off_c, 0, 69, 0
2, 73216, Note_on_c, 0, 73, 65
2, 73216, Note_off_c, 0, 57, 0
2, 73216, Note_off_c, 0, 61, 0
2, 73216, Note_off_c, 0, 64, 0
2, 73216, Note_on_c, 0, 57, 61
2, 73216, Note_on_c, 0, 61, 61
2, 73216, Note_on_c, 0, 64, 61
2, 73301, Note_on_c, 0, 74, 67
2, 73302, Note_off_c, 0, 73, 0
2, 73386, Note_on_c, 0, 73, 56
2, 73387, Note_off_c, 0, 74, 0
2, 73467, Note_off_c, 0, 73, 0
2, 73472, Note_on_c, 0, 76, 66
2, 73472, Note_off_c, 0, 57, 0
2, 73472, Note_off_c, 0, 61, 0
2, 73472, Note_off_c, 0, 64, 0
2, 73472, Note_on_c, 0, 57, 63
2, 73472, Note_on_c, 0, 61, 63
2, 73472, Note_on_c, 0, 64, 63
2, 73557, Note_on_c, 0, 77, 73
2, 73558, Note_off_c, 0, 76, 0
2, 73642, Note_on_c, 0, 76, 57
2, 73643, Note_off_c, 0, 77, 0
2, 73723, Note_off_c, 0, 76, 0
2, 73728, Note_on_c, 0, 57, 48
2, 73728, Note_on_c, 0, 62, 48
2, 73728, Note_on_c, 0, 65, 48
2, 73728, Note_off_c, 0, 57, 0
2, 73728, Note_off_c, 0, 61, 0
2, 73728, Note_off_c, 0, 64, 0
2, 73728, Note_on_c, 0, 38, 47
2, 73728, Note_on_c, 0, 50, 47
2, 73856, Note_off_c, 0, 57, 0
2, 73856, Note_off_c, 0, 62, 0
2, 73856, Note_off_c, 0, 65, 0
2, 73856, Note_on_c, 0, 74, 71
2, 73920, Note_off_c, 0, 74, 0
2, 73984, Note_on_c, 0, 77, 66
2, 73984, Note_off_c, 0, 38, 0
2, 73984, Note_off_c, 0, 50, 0
2, 74048, Note_off_c, 0, 77, 0
2, 74112, Note_on_c, 0, 81, 67
2, 74176, Note_off_c, 0, 81, 0
2, 74240, Note_on_c, 0, 86, 70
2, 74240, Note_on_c, 0, 62, 50
2, 74240, Note_on_c, 0, 65, 50
2, 74240, Note_on_c, 0, 69, 50
2, 74304, Note_off_c, 0, 86, 0
2, 74368, Note_on_c, 0, 81, 49
2, 74368, Note_off_c, 0, 62, 0
2, 74368, Note_off_c, 0, 65, 0
2, 74368, Note_off_c, 0, 69, 0
2, 74432, Note_off_c, 0, 81, 0
2, 74496, Note_on_c, 0, 82, 65
2, 74496, Note_on_c, 0, 62, 57
2, 74496, Note_on_c, 0, 67, 57
2, 74496, Note_on_c, 0, 70, 57
2, 74560, Note_off_c, 0, 82, 0
2, 74624, Note_on_c, 0, 79, 55
2, 74624, Note_off_c, 0, 62, 0
2, 74624, Note_off_c, 0, 67, 0
2, 74624, Note_off_c, 0, 70, 0
2, 74688, Note_off_c, 0, 79, 0
2, 74752, Note_on_c, 0, 81, 61
2, 74752, Note_on_c, 0, 62, 55
2, 74752, Note_on_c, 0, 65, 55
2, 74752, Note_on_c, 0, 69, 55
2, 74880, Note_off_c, 0, 81, 0
2, 74880, Note_on_c, 0, 74, 50
2, 74880, Note_off_c, 0, 62, 0
2, 74880, Note_off_c, 0, 65, 0
2, 74880, Note_off_c, 0, 69, 0
2, 74944, Note_off_c, 0, 74, 0
2, 75008, Note_on_c, 0, 77, 63
2, 75072, Note_off_c, 0, 77, 0
2, 75136, Note_on_c, 0, 81, 71
2, 75200, Note_off_c, 0, 81, 0
2, 75264, Note_on_c, 0, 86, 72
2, 75264, Note_on_c, 0, 62, 61
2, 75264, Note_on_c, 0, 65, 61
2, 75264, Note_on_c, 0, 69, 61
2, 75328, Note_off_c, 0, 86, 0
2, 75392, Note_on_c, 0, 81, 55
2, 75392, Note_off_c, 0, 62, 0
2, 75392, Note_off_c, 0, 65, 0
2, 75392, Note_off_c, 0, 69, 0
2, 75456, Note_off_c, 0, 81, 0
2, 75520, Note_on_c, 0, 82, 66
2, 75520, Note_on_c, 0, 62, 59
2, 75520, Note_on_c, 0, 67, 59
2, 75520, Note_on_c, 0, 70, 59
2, 75584, Note_off_c, 0, 82, 0
2, 75648, Note_on_c, 0, 79, 59
2, 75648, Note_off_c, 0, 62, 0
2, 75648, Note_off_c, 0, 67, 0
2, 75648, Note_off_c, 0, 70, 0
2, 75712, Note_off_c, 0, 79, 0
2, 75776, Note_on_c, 0, 81, 64
2, 75776, Note_on_c, 0, 62, 55
2, 75776, Note_on_c, 0, 65, 55
2, 75776, Note_on_c, 0, 69, 55
2, 75904, Note_off_c, 0, 81, 0
2, 75904, Note_on_c, 0, 74, 46
2, 75904, Note_off_c, 0, 62, 0
2, 75904, Note_off_c, 0, 65, 0
2, 75904, Note_off_c, 0, 69, 0
2, 75968, Note_off_c, 0, 74, 0
2, 76032, Note_on_c, 0, 77, 61
2, 76096, Note_off_c, 0, 77, 0
2, 76160, Note_on_c, 0, 81, 69
2, 76224, Note_off_c, 0, 81, 0
2, 76288, Note_on_c, 0, 86, 75
2, 76288, Note_on_c, 0, 62, 53
2, 76288, Note_on_c, 0, 65, 53
2, 76288, Note_on_c, 0, 69, 53
2, 76352, Note_off_c, 0, 86, 0
2, 76416, Note_on_c, 0, 81, 56
2, 76416, Note_off_c, 0, 62, 0
2, 76416, Note_off_c, 0, 65, 0
2, 76416, Note_off_c, 0, 69, 0
2, 76480, Note_off_c, 0, 81, 0
2, 76544, Note_on_c, 0, 82, 65
2, 76544, Note_on_c, 0, 62, 54
2, 76544, Note_on_c, 0, 67, 54
2, 76544, Note_on_c, 0, 70, 54
2, 76608, Note_off_c, 0, 82, 0
2, 76672, Note_on_c, 0, 79, 54
2, 76672, Note_off_c, 0, 62, 0
2, 76672, Note_off_c, 0, 67, 0
2, 76672, Note_off_c, 0, 70, 0
2, 76736, Note_off_c, 0, 79, 0
2, 76800, Note_on_c, 0, 81, 61
2, 76800, Note_on_c, 0, 62, 55
2, 76800, Note_on_c, 0, 65, 55
2, 76800, Note_on_c, 0, 69, 55
2, 76928, Note_off_c, 0, 81, 0
2, 76928, Note_on_c, 0, 74, 53
2, 76928, Note_off_c, 0, 62, 0
2, 76928, Note_off_c, 0, 65, 0
2, 76928, Note_off_c, 0, 69, 0
2, 76992, Note_off_c, 0, 74, 0
2, 77056, Note_on_c, 0, 77, 63
2, 77120, Note_off_c, 0, 77, 0
2, 77184, Note_on_c, 0, 81, 66
2, 77248, Note_off_c, 0, 81, 0
2, 77312, Note_on_c, 0, 86, 73
2, 77312, Note_on_c, 0, 62, 54
2, 77312, Note_on_c, 0, 65, 54
2, 77312, Note_on_c, 0, 69, 54
2, 77376, Note_off_c, 0, 86, 0
2, 77440, Note_on_c, 0, 81, 53
2, 77440, Note_off_c, 0, 62, 0
2, 77440, Note_off_c, 0, 65, 0
2, 77440, Note_off_c, 0, 69, 0
2, 77504, Note_off_c, 0, 81, 0
2, 77568, Note_on_c, 0, 82, 63
2, 77568, Note_on_c, 0, 62, 59
2, 77568, Note_on_c, 0, 67, 59
2, 77568, Note_on_c, 0, 70, 59
2, 77632, Note_off_c, 0, 82, 0
2, 77696, Note_on_c, 0, 79, 55
2, 77696, Note_off_c, 0, 62, 0
2, 77696, Note_off_c, 0, 67, 0
2, 77696, Note_off_c, 0, 70, 0
2, 77760, Note_off_c, 0, 79, 0
2, 77824, Note_on_c, 0, 81, 64
2, 77824, Note_on_c, 0, 62, 53
2, 77824, Note_on_c, 0, 65, 53
2, 77824, Note_on_c, 0, 69, 53
2, 77888, Note_off_c, 0, 81, 0
2, 77952, Note_on_c, 0, 74, 54
2, 77952, Note_off_c, 0, 62, 0
2, 77952, Note_off_c, 0, 65, 0
2, 77952, Note_off_c, 0, 69, 0
2, 78016, Note_off_c, 0, 74, 0
2, 78080, Note_on_c, 0, 77, 64
2, 78144, Note_off_c, 0, 77, 0
2, 78208, Note_on_c, 0, 81, 69
2, 78272, Note_off_c, 0, 81, 0
2, 78336, Note_on_c, 0, 86, 73
2, 78400, Note_off_c, 0, 86, 0
2, 78464, Note_on_c, 0, 81, 57
2, 78528, Note_off_c, 0, 81, 0
2, 78592, Note_on_c, 0, 86, 72
2, 78592, Note_on_c, 0, 65, 55
2, 78592, Note_on_c, 0, 69, 55
2, 78592, Note_on_c, 0, 74, 55
2, 78656, Note_off_c, 0, 86, 0
2, 78720, Note_on_c, 0, 84, 57
2, 78720, Note_off_c, 0, 65, 0
2, 78720, Note_off_c, 0, 69, 0
2, 78720, Note_off_c, 0, 74, 0
2, 78784, Note_off_c, 0, 84, 0
2, 78848, Note_on_c, 0, 82, 58
2, 78848, Note_on_c, 0, 67, 55
2, 78848, Note_on_c, 0, 70, 55
2, 78848, Note_on_c, 0, 74, 55
2, 78912, Note_off_c, 0, 82, 0
2, 78976, Note_on_c, 0, 79, 58
2, 78976, Note_off_c, 0, 67, 0
2, 78976, Note_off_c, 0, 70, 0
2, 78976, Note_off_c, 0, 74, 0
2, 79040, Note_off_c, 0, 79, 0
2, 79104, Note_on_c, 0, 84, 67
2, 79104, Note_on_c, 0, 64, 55
2, 79104, Note_on_c, 0, 67, 55
2, 79104, Note_on_c, 0, 72, 55
2, 79168, Note_off_c, 0, 84, 0
2, 79232, Note_on_c, 0, 82, 55
2, 79232, Note_off_c, 0, 64, 0
2, 79232, Note_off_c, 0, 67, 0
2, 79232, Note_off_c, 0, 72, 0
2, 79296, Note_off_c, 0, 82, 0
2, 79360, Note_on_c, 0, 81, 61
2, 79360, Note_on_c, 0, 65, 53
2, 79360, Note_on_c, 0, 69, 53
2, 79360, Note_on_c, 0, 72, 53
2, 79424, Note_off_c, 0, 81, 0
2, 79488, Note_on_c, 0, 77, 54
2, 79488, Note_off_c, 0, 65, 0
2, 79488, Note_off_c, 0, 69, 0
2, 79488, Note_off_c, 0, 72, 0
2, 79552, Note_off_c, 0, 77, 0
2, 79616, Note_on_c, 0, 82, 65
2, 79616, Note_on_c, 0, 62, 55
2, 79616, Note_on_c, 0, 65, 55
2, 79616, Note_on_c, 0, 70, 55
2, 79680, Note_off_c, 0, 82, 0
2, 79744, Note_on_c, 0, 81, 56
2, 79744, Note_off_c, 0, 62, 0
2, 79744, Note_off_c, 0, 65, 0
2, 79744, Note_off_c, 0, 70, 0
2, 79808, Note_off_c, 0, 81, 0
2, 79872, Note_on_c, 0, 79, 55
2, 79872, Note_on_c, 0, 64, 56
2, 79872, Note_on_c, 0, 67, 56
2, 79872, Note_on_c, 0, 70, 56
2, 79936, Note_off_c, 0, 79, 0
2, 80000, Note_on_c, 0, 76, 54
2, 80000, Note_off_c, 0, 64, 0
2, 80000, Note_off_c, 0, 67, 0
2, 80000, Note_off_c, 0, 70, 0
2, 80064, Note_off_c, 0, 76, 0
2, 80128, Note_on_c, 0, 81, 65
2, 80128, Note_on_c, 0, 61, 57
2, 80128, Note_on_c, 0, 64, 57
2, 80128, Note_on_c, 0, 69, 57
2, 80192, Note_off_c, 0, 81, 0
2, 80256, Note_on_c, 0, 79, 59
2, 80256, Note_off_c, 0, 61, 0
2, 80256, Note_off_c, 0, 64, 0
2, 80256, Note_off_c, 0, 69, 0
2, 80320, Note_off_c, 0, 79, 0
2, 80384, Note_on_c, 0, 77, 57
2, 80384, Note_on_c, 0, 62, 54
2, 80384, Note_on_c, 0, 65, 54
2, 80384, Note_on_c, 0, 69, 54
2, 80448, Note_off_c, 0, 77, 0
2, 80512, Note_on_c, 0, 81, 67
2, 80512, Note_off_c, 0, 62, 0
2, 80512, Note_off_c, 0, 65, 0
2, 80512, Note_off_c, 0, 69, 0
2, 80576, Note_off_c, 0, 81, 0
2, 80640, Note_on_c, 0, 74, 50
2, 80704, Note_off_c, 0, 74, 0
2, 80768, Note_on_c, 0, 77, 61
2, 80832, Note_off_c, 0, 77, 0
2, 80896, Note_on_c, 0, 70, 60
2, 80896, Note_on_c, 0, 75, 60
2, 80896, Note_on_c, 0, 43, 54
2, 80896, Note_on_c, 0, 55, 54
2, 81024, Note_off_c, 0, 70, 0
2, 81024, Note_off_c, 0, 75, 0
2, 81024, Note_on_c, 0, 67, 47
2, 81024, Note_off_c, 0, 43, 0
2, 81024, Note_off_c, 0, 55, 0
2, 81024, Note_on_c, 0, 43, 56
2, 81024, Note_on_c, 0, 55, 56
2, 81152, Note_off_c, 0, 67, 0
2, 81152, Note_on_c, 0, 70, 73
2, 81152, Note_on_c, 0, 75, 73
2, 81152, Note_off_c, 0, 43, 0
2, 81152, Note_off_c, 0, 55, 0
2, 81152, Note_on_c, 0, 43, 59
2, 81152, Note_on_c, 0, 55, 59
2, 81280, Note_off_c, 0, 70, 0
2, 81280, Note_off_c, 0, 75, 0
2, 81280, Note_on_c, 0, 67, 52
2, 81280, Note_off_c, 0, 43, 0
2, 81280, Note_off_c, 0, 55, 0
2, 81280, Note_on_c, 0, 43, 64
2, 81280, Note_on_c, 0, 55, 64
2, 81408, Note_off_c, 0, 67, 0
2, 81408, Note_on_c, 0, 70, 69
2, 81408, Note_on_c, 0, 75, 69
2, 81408, Note_off_c, 0, 43, 0
2, 81408, Note_off_c, 0, 55, 0
2, 81408, Note_on_c, 0, 43, 62
2, 81408, Note_on_c, 0, 55, 62
2, 81536, Note_off_c, 0, 70, 0
2, 81536, Note_off_c, 0, 75, 0
2, 81536, Note_on_c, 0, 67, 53
2, 81536, Note_off_c, 0, 43, 0
2, 81536, Note_off_c, 0, 55, 0
2, 81536, Note_on_c, 0, 43, 61
2, 81536, Note_on_c, 0, 55, 61
2, 81664, Note_off_c, 0, 67, 0
2, 81664, Note_on_c, 0, 70, 68
2, 81664, Note_on_c, 0, 75, 68
2, 81664, Note_off_c, 0, 43, 0
2, 81664, Note_off_c, 0, 55, 0
2, 81664, Note_on_c, 0, 43, 62
2, 81664, Note_on_c, 0, 55, 62
2, 81792, Note_off_c, 0, 70, 0
2, 81792, Note_off_c, 0, 75, 0
2, 81792, Note_on_c, 0, 67, 51
2, 81792, Note_off_c, 0, 43, 0
2, 81792, Note_off_c, 0, 55, 0
2, 81792, Note_on_c, 0, 43, 62
2, 81792, Note_on_c, 0, 55, 62
2, 81920, Note_off_c, 0, 67, 0
2, 81920, Note_on_c, 0, 70, 74
2, 81920, Note_on_c, 0, 75, 74
2, 81920, Note_off_c, 0, 43, 0
2, 81920, Note_off_c, 0, 55, 0
2, 81920, Note_on_c, 0, 43, 68
2, 81920, Note_on_c, 0, 55, 68
2, 82048, Note_off_c, 0, 70, 0
2, 82048, Note_off_c, 0, 75, 0
2, 82048, Note_on_c, 0, 67, 58
2, 82048, Note_off_c, 0, 43, 0
2, 82048, Note_off_c, 0, 55, 0
2, 82048, Note_on_c, 0, 43, 63
2, 82048, Note_on_c, 0, 55, 63
2, 82176, Note_off_c, 0, 67, 0
2, 82176, Note_on_c, 0, 70, 79
2, 82176, Note_on_c, 0, 75, 79
2, 82176, Note_off_c, 0, 43, 0
2, 82176, Note_off_c, 0, 55, 0
2, 82176, Note_on_c, 0, 43, 70
2, 82176, Note_on_c, 0, 55, 70
2, 82304, Note_off_c, 0, 70, 0
2, 82304, Note_off_c, 0, 75, 0
2, 82304, Note_on_c, 0, 67, 54
2, 82304, Note_off_c, 0, 43, 0
2, 82304, Note_off_c, 0, 55, 0
2, 82304, Note_on_c, 0, 43, 66
2, 82304, Note_on_c, 0, 55, 66
2, 82432, Note_off_c, 0, 67, 0
2, 82432, Note_on_c, 0, 70, 77
2, 82432, Note_on_c, 0, 75, 77
2, 82432, Note_off_c, 0, 43, 0
2, 82432, Note_off_c, 0, 55, 0
2, 82432, Note_on_c, 0, 43, 69
2, 82432, Note_on_c, 0, 55, 69
2, 82496, Note_off_c, 0, 70, 0
2, 82496, Note_off_c, 0, 75, 0
2, 82496, Note_on_c, 0, 67, 56
2, 82560, Note_off_c, 0, 67, 0
2, 82560, Note_on_c, 0, 70, 78
2, 82560, Note_on_c, 0, 75, 78
2, 82560, Note_off_c, 0, 43, 0
2, 82560, Note_off_c, 0, 55, 0
2, 82560, Note_on_c, 0, 43, 69
2, 82560, Note_on_c, 0, 55, 69
2, 82624, Note_off_c, 0, 70, 0
2, 82624, Note_off_c, 0, 75, 0
2, 82624, Note_on_c, 0, 67, 57
2, 82688, Note_off_c, 0, 67, 0
2, 82688, Note_on_c, 0, 71, 79
2, 82688, Note_on_c, 0, 74, 79
2, 82688, Note_off_c, 0, 43, 0
2, 82688, Note_off_c, 0, 55, 0
2, 82688, Note_on_c, 0, 44, 63
2, 82688, Note_on_c, 0, 56, 63
2, 82752, Note_off_c, 0, 71, 0
2, 82752, Note_off_c, 0, 74, 0
2, 82752, Note_on_c, 0, 65, 50
2, 82816, Note_off_c, 0, 65, 0
2, 82816, Note_on_c, 0, 71, 81
2, 82816, Note_on_c, 0, 74, 81
2, 82816, Note_off_c, 0, 44, 0
2, 82816, Note_off_c, 0, 56, 0
2, 82816, Note_on_c, 0, 44, 65
2, 82816, Note_on_c, 0, 56, 65
2, 82880, Note_off_c, 0, 71, 0
2, 82880, Note_off_c, 0, 74, 0
2, 82880, Note_on_c, 0, 65, 54
2, 82944, Note_off_c, 0, 65, 0
2, 82944, Note_on_c, 0, 64, 81
2, 82944, Note_on_c, 0, 69, 81
2, 82944, Note_on_c, 0, 73, 81
2, 82944, Note_off_c, 0, 44, 0
2, 82944, Note_off_c, 0, 56, 0
2, 82944, Note_on_c, 0, 45, 67
2, 82944, Note_on_c, 0, 57, 67
2, 83200, Note_off_c, 0, 64, 0
2, 83200, Note_off_c, 0, 69, 0
2, 83200, Note_off_c, 0, 73, 0
2, 83200, Note_on_c, 0, 73, 117
2, 83200, Note_on_c, 0, 76, 117
2, 83200, Note_on_c, 0, 81, 117
2, 83200, Note_off_c, 0, 45, 0
2, 83200, Note_off_c, 0, 57, 0
2, 83200, Note_on_c, 0, 45, 97
2, 83200, Note_on_c, 0, 57, 97
2, 83456, Note_off_c, 0, 73, 0
2, 83456, Note_off_c, 0, 76, 0
2, 83456, Note_off_c, 0, 81, 0
2, 83456, Note_on_c, 0, 61, 72
2, 83456, Note_on_c, 0, 64, 72
2, 83456, Note_on_c, 0, 69, 72
2, 83456, Note_off_c, 0, 45, 0
2, 83456, Note_off_c, 0, 57, 0
2, 83456, Note_on_c, 0, 33, 86
2, 83456, Note_on_c, 0, 45, 86
2, 83712, Note_off_c, 0, 61, 0
2, 83712, Note_off_c, 0, 64, 0
2, 83712, Note_off_c, 0, 69, 0
2, 83712, Note_on_c, 0, 69, 90
2, 83712, Note_off_c, 0, 33, 0
2, 83712, Note_off_c, 0, 45, 0
2, 83968, Note_off_c, 0, 69, 0
2, 83968, Note_on_c, 0, 73, 110
2, 84224, Note_off_c, 0, 73, 0
2, 84224, Note_on_c, 0, 73, 121
2, 84224, Note_on_c, 0, 76, 121
2, 84224, Note_on_c, 0, 81, 121
2, 84224, Note_on_c, 0, 45, 88
2, 84224, Note_on_c, 0, 57, 88
2, 84480, Note_off_c, 0, 73, 0
2, 84480, Note_off_c, 0, 76, 0
2, 84480, Note_off_c, 0, 81, 0
2, 84480, Note_on_c, 0, 61, 73
2, 84480, Note_on_c, 0, 64, 73
2, 84480, Note_on_c, 0, 69, 73
2, 84480, Note_off_c, 0, 45, 0
2, 84480, Note_off_c, 0, 57, 0
2, 84480, Note_on_c, 0, 33, 82
2, 84480, Note_on_c, 0, 45, 82
2, 84736, Note_off_c, 0, 61, 0
2, 84736, Note_off_c, 0, 64, 0
2, 84736, Note_off_c, 0, 69, 0
2, 84736, Note_on_c, 0, 73, 109
2, 84736, Note_off_c, 0, 33, 0
2, 84736, Note_off_c, 0, 45, 0
2, 84992, Note_off_c, 0, 73, 0
2, 84992, Note_on_c, 0, 76, 107
2, 85248, Note_off_c, 0, 76, 0
2, 85248, Note_on_c, 0, 73, 112
2, 85248, Note_on_c, 0, 76, 112
2, 85248, Note_on_c, 0, 81, 112
2, 85248, Note_on_c, 0, 45, 88
2, 85248, Note_on_c, 0, 57, 88
2, 85504, Note_off_c, 0, 73, 0
2, 85504, Note_off_c, 0, 76, 0
2, 85504, Note_off_c, 0, 81, 0
2, 85504, Note_on_c, 0, 61, 72
2, 85504, Note_on_c, 0, 64, 72
2, 85504, Note_on_c, 0, 69, 72
2, 85504, Note_off_c, 0, 45, 0
2, 85504, Note_off_c, 0, 57, 0
2, 85504, Note_on_c, 0, 33, 87
2, 85504, Note_on_c, 0, 45, 87
2, 85760, Note_off_c, 0, 61, 0
2, 85760, Note_off_c, 0, 64, 0
2, 85760, Note_off_c, 0, 69, 0
2, 85760, Note_on_c, 0, 76, 115
2, 85760, Note_off_c, 0, 33, 0
2, 85760, Note_off_c, 0, 45, 0
2, 86016, Note_off_c, 0, 76, 0
2, 86016, Note_on_c, 0, 79, 109
2, 86272, Note_off_c, 0, 79, 0
2, 86272, Note_on_c, 0, 76, 93
2, 86528, Note_off_c, 0, 76, 0
2, 86528, Note_on_c, 0, 73, 85
2, 86784, Note_off_c, 0, 73, 0
2, 86784, Note_on_c, 0, 69, 89
2, 87040, Note_off_c, 0, 69, 0
2, 87040, Note_on_c, 0, 70, 102
2, 87296, Note_off_c, 0, 70, 0
2, 87296, Note_on_c, 0, 70, 126
2, 87296, Note_on_c, 0, 79, 126
2, 87296, Note_on_c, 0, 82, 126
2, 87296, Note_on_c, 0, 74, 74
2, 87296, Note_on_c, 0, 43, 95
2, 87360, Note_off_c, 0, 43, 0
2, 87360, Note_on_c, 0, 55, 103
2, 87424, Note_off_c, 0, 55, 0
2, 87424, Note_on_c, 0, 43, 86
2, 87488, Note_off_c, 0, 43, 0
2, 87488, Note_on_c, 0, 55, 113
2, 87552, Note_off_c, 0, 74, 0
2, 87552, Note_on_c, 0, 73, 78
2, 87552, Note_off_c, 0, 55, 0
2, 87552, Note_on_c, 0, 40, 87
2, 87616, Note_off_c, 0, 40, 0
2, 87616, Note_on_c, 0, 52, 109
2, 87680, Note_off_c, 0, 52, 0
2, 87680, Note_on_c, 0, 40, 87
2, 87744, Note_off_c, 0, 40, 0
2, 87744, Note_on_c, 0, 52, 105
2, 87808, Note_off_c, 0, 70, 0
2, 87808, Note_off_c, 0, 79, 0
2, 87808, Note_off_c, 0, 82, 0
2, 87808, Note_off_c, 0, 73, 0
2, 87808, Note_on_c, 0, 70, 102
2, 87808, Note_on_c, 0, 74, 102
2, 87808, Note_on_c, 0, 79, 102
2, 87808, Note_on_c, 0, 82, 102
2, 87808, Note_off_c, 0, 52, 0
2, 87808, Note_on_c, 0, 38, 86
2, 87872, Note_off_c, 0, 38, 0
2, 87872, Note_on_c, 0, 50, 109
2, 87936, Note_off_c, 0, 50, 0
2, 87936, Note_on_c, 0, 38, 87
2, 88000, Note_off_c, 0, 38, 0
2, 88000, Note_on_c, 0, 50, 114
2, 88064, Note_off_c, 0, 70, 0
2, 88064, Note_off_c, 0, 74, 0
2, 88064, Note_off_c, 0, 79, 0
2, 88064, Note_off_c, 0, 82, 0
2, 88064, Note_on_c, 0, 69, 95
2, 88064, Note_on_c, 0, 76, 95
2, 88064, Note_on_c, 0, 79, 95
2, 88064, Note_on_c, 0, 81, 95
2, 88064, Note_off_c, 0, 50, 0
2, 88064, Note_on_c, 0, 37, 97
2, 88064, Note_on_c, 0, 49, 97
2, 88320, Note_off_c, 0, 69, 0
2, 88320, Note_off_c, 0, 76, 0
2, 88320, Note_off_c, 0, 79, 0
2, 88320, Note_off_c, 0, 81, 0
2, 88320, Note_off_c, 0, 37, 0
2, 88320, Note_off_c, 0, 49, 0
2, 89344, Note_on_c, 0, 74, 89
2, 89728, Note_off_c, 0, 74, 0
2, 89728, Note_on_c, 0, 69, 80
2, 89728, Note_on_c, 0, 45, 93
2, 89770, Note_off_c, 0, 69, 0
2, 89770, Note_on_c, 0, 71, 100
2, 89770, Note_off_c, 0, 45, 0
2, 89770, Note_on_c, 0, 47, 98
2, 89813, Note_off_c, 0, 71, 0
2, 89813, Note_on_c, 0, 73, 103
2, 89813, Note_off_c, 0, 47, 0
2, 89813, Note_on_c, 0, 49, 97
2, 89856, Note_off_c, 0, 73, 0
2, 89856, Note_on_c, 0, 62, 102
2, 89856, Note_on_c, 0, 74, 102
2, 89856, Note_off_c, 0, 49, 0
2, 89856, Note_on_c, 0, 38, 98
2, 89856, Note_on_c, 0, 50, 98
2, 90342, Note_off_c, 0, 62, 0
2, 90342, Note_off_c, 0, 74, 0
2, 90342, Note_off_c, 0, 38, 0
2, 90342, Note_off_c, 0, 50, 0
2, 90368, Note_on_c, 0, 77, 103
2, 90752, Note_off_c, 0, 77, 0
2, 90752, Note_on_c, 0, 69, 78
2, 90752, Note_on_c, 0, 49, 85
2, 90794, Note_off_c, 0, 69, 0
2, 90794, Note_on_c, 0, 71, 98
2, 90794, Note_off_c, 0, 49, 0
2, 90794, Note_on_c, 0, 50, 101
2, 90837, Note_off_c, 0, 71, 0
2, 90837, Note_on_c, 0, 73, 103
2, 90837, Note_off_c, 0, 50, 0
2, 90837, Note_on_c, 0, 52, 101
2, 90880, Note_off_c, 0, 73, 0
2, 90880, Note_on_c, 0, 62, 102
2, 90880, Note_on_c, 0, 74, 102
2, 90880, Note_off_c, 0, 52, 0
2, 90880, Note_on_c, 0, 41, 106
2, 90880, Note_on_c, 0, 53, 106
2, 91366, Note_off_c, 0, 62, 0
2, 91366, Note_off_c, 0, 74, 0
2, 91366, Note_off_c, 0, 41, 0
2, 91366, Note_off_c, 0, 53, 0
2, 91392, Note_on_c, 0, 82, 116
2, 91904, Note_off_c, 0, 82, 0
2, 91904, Note_on_c, 0, 62, 80
2, 91904, Note_on_c, 0, 44, 88
2, 91904, Note_on_c, 0, 53, 88
2, 92416, Note_off_c, 0, 62, 0
2, 92416, Note_on_c, 0, 63, 97
2, 92416, Note_off_c, 0, 44, 0
2, 92416, Note_off_c, 0, 53, 0
2, 92416, Note_on_c, 0, 43, 96
2, 92416, Note_on_c, 0, 55, 96
2, 92480, Note_off_c, 0, 63, 0
2, 92480, Note_on_c, 0, 67, 108
2, 92544, Note_off_c, 0, 67, 0
2, 92544, Note_on_c, 0, 65, 90
2, 92544, Note_off_c, 0, 43, 0
2, 92544, Note_off_c, 0, 55, 0
2, 92544, Note_on_c, 0, 43, 98
2, 92544, Note_on_c, 0, 55, 98
2, 92608, Note_off_c, 0, 65, 0
2, 92608, Note_on_c, 0, 63, 89
2, 92672, Note_off_c, 0, 63, 0
2, 92672, Note_on_c, 0, 62, 91
2, 92672, Note_off_c, 0, 43, 0
2, 92672, Note_off_c, 0, 55, 0
2, 92672, Note_on_c, 0, 44, 96
2, 92672, Note_on_c, 0, 53, 96
2, 92736, Note_off_c, 0, 62, 0
2, 92736, Note_on_c, 0, 65, 103
2, 92800, Note_off_c, 0, 65, 0
2, 92800, Note_on_c, 0, 63, 88
2, 92800, Note_off_c, 0, 44, 0
2, 92800, Note_off_c, 0, 53, 0
2, 92800, Note_on_c, 0, 44, 95
2, 92800, Note_on_c, 0, 53, 95
2, 92864, Note_off_c, 0, 63, 0
2, 92864, Note_on_c, 0, 62, 91
2, 92928, Note_off_c, 0, 62, 0
2, 92928, Note_on_c, 0, 63, 104
2, 92928, Note_off_c, 0, 44, 0
2, 92928, Note_off_c, 0, 53, 0
2, 92928, Note_on_c, 0, 43, 104
2, 92928, Note_on_c, 0, 55, 104
2, 92992, Note_off_c, 0, 63, 0
2, 92992, Note_on_c, 0, 67, 110
2, 93056, Note_off_c, 0, 67, 0
2, 93056, Note_on_c, 0, 65, 91
2, 93056, Note_off_c, 0, 43, 0
2, 93056, Note_off_c, 0, 55, 0
2, 93056, Note_on_c, 0, 43, 97
2, 93056, Note_on_c, 0, 55, 97
2, 93120, Note_off_c, 0, 65, 0
2, 93120, Note_on_c, 0, 63, 85
2, 93184, Note_off_c, 0, 63, 0
2, 93184, Note_on_c, 0, 62, 93
2, 93184, Note_off_c, 0, 43, 0
2, 93184, Note_off_c, 0, 55, 0
2, 93184, Note_on_c, 0, 44, 97
2, 93184, Note_on_c, 0, 53, 97
2, 93248, Note_off_c, 0, 62, 0
2, 93248, Note_on_c, 0, 65, 104
2, 93312, Note_off_c, 0, 65, 0
2, 93312, Note_on_c, 0, 63, 88
2, 93312, Note_off_c, 0, 44, 0
2, 93312, Note_off_c, 0, 53, 0
2, 93312, Note_on_c, 0, 44, 98
2, 93312, Note_on_c, 0, 53, 98
2, 93376, Note_off_c, 0, 63, 0
2, 93376, Note_on_c, 0, 62, 95
2, 93440, Note_off_c, 0, 62, 0
2, 93440, Note_on_c, 0, 63, 101
2, 93440, Note_off_c, 0, 44, 0
2, 93440, Note_off_c, 0, 53, 0
2, 93440, Note_on_c, 0, 43, 101
2, 93440, Note_on_c, 0, 55, 101
2, 93696, Note_off_c, 0, 63, 0
2, 93696, Note_off_c, 0, 43, 0
2, 93696, Note_off_c, 0, 55, 0
2, 93952, Note_on_c, 0, 79, 84
2, 94336, Note_off_c, 0, 79, 0
2, 94336, Note_on_c, 0, 75, 83
2, 94464, Note_off_c, 0, 75, 0
2, 94464, Note_on_c, 0, 73, 88
2, 94720, Note_off_c, 0, 73, 0
2, 94720, Note_on_c, 0, 73, 101
2, 94912, Note_off_c, 0, 73, 0
2, 94912, Note_on_c, 0, 73, 125
2, 94912, Note_on_c, 0, 76, 125
2, 94912, Note_on_c, 0, 82, 125
2, 94912, Note_on_c, 0, 85, 125
2, 94912, Note_on_c, 0, 43, 85
2, 94912, Note_on_c, 0, 55, 85
2, 94976, Note_off_c, 0, 73, 0
2, 94976, Note_off_c, 0, 76, 0
2, 94976, Note_off_c, 0, 82, 0
2, 94976, Note_off_c, 0, 85, 0
2, 94976, Note_on_c, 0, 73, 101
2, 94976, Note_on_c, 0, 76, 101
2, 94976, Note_on_c, 0, 82, 101
2, 94976, Note_on_c, 0, 85, 101
2, 94976, Note_off_c, 0, 43, 0
2, 94976, Note_off_c, 0, 55, 0
2, 94976, Note_on_c, 0, 43, 96
2, 94976, Note_on_c, 0, 55, 96
2, 95232, Note_off_c, 0, 73, 0
2, 95232, Note_off_c, 0, 76, 0
2, 95232, Note_off_c, 0, 82, 0
2, 95232, Note_off_c, 0, 85, 0
2, 95232, Note_off_c, 0, 43, 0
2, 95232, Note_off_c, 0, 55, 0
2, 95424, Note_on_c, 0, 74, 91
2, 95424, Note_on_c, 0, 77, 91
2, 95424, Note_on_c, 0, 83, 91
2, 95424, Note_on_c, 0, 86, 91
2, 95424, Note_on_c, 0, 44, 87
2, 95424, Note_on_c, 0, 56, 87
2, 95488, Note_off_c, 0, 74, 0
2, 95488, Note_off_c, 0, 77, 0
2, 95488, Note_off_c, 0, 83, 0
2, 95488, Note_off_c, 0, 86, 0
2, 95488, Note_on_c, 0, 74, 97
2, 95488, Note_on_c, 0, 77, 97
2, 95488, Note_on_c, 0, 83, 97
2, 95488, Note_on_c, 0, 86, 97
2, 95488, Note_off_c, 0, 44, 0
2, 95488, Note_off_c, 0, 56, 0
2, 95488, Note_on_c, 0, 44, 96
2, 95488, Note_on_c, 0, 56, 96
2, 96000, Note_off_c, 0, 74, 0
2, 96000, Note_off_c, 0, 77, 0
2, 96000, Note_off_c, 0, 83, 0
2, 96000, Note_off_c, 0, 86, 0
2, 96000, Note_off_c, 0, 44, 0
2, 96000, Note_off_c, 0, 56, 0
2, 96768, Note_on_c, 0, 74, 92
2, 97024, Note_off_c, 0, 74, 0
2, 97024, Note_on_c, 0, 73, 93
2, 97408, Note_off_c, 0, 73, 0
2, 97408, Note_on_c, 0, 74, 102
2, 97536, Note_off_c, 0, 74, 0
2, 97536, Note_on_c, 0, 69, 87
2, 98048, Note_off_c, 0, 69, 0
2, 98048, Note_on_c, 0, 73, 122
2, 98048, Note_on_c, 0, 76, 122
2, 98048, Note_on_c, 0, 81, 122
2, 98048, Note_on_c, 0, 85, 122
2, 98048, Note_on_c, 0, 45, 88
2, 98048, Note_on_c, 0, 57, 88
2, 98560, Note_off_c, 0, 73, 0
2, 98560, Note_off_c, 0, 76, 0
2, 98560, Note_off_c, 0, 81, 0
2, 98560, Note_off_c, 0, 85, 0
2, 98560, Note_on_c, 0, 74, 104
2, 98560, Note_on_c, 0, 77, 104
2, 98560, Note_on_c, 0, 86, 104
2, 98560, Note_off_c, 0, 45, 0
2, 98560, Note_off_c, 0, 57, 0
2, 98560, Note_on_c, 0, 46, 90
2, 98624, Note_off_c, 0, 46, 0
2, 98624, Note_on_c, 0, 50, 104
2, 98688, Note_off_c, 0, 74, 0
2, 98688, Note_off_c, 0, 77, 0
2, 98688, Note_off_c, 0, 86, 0
2, 98688, Note_on_c, 0, 73, 73
2, 98688, Note_off_c, 0, 50, 0
2, 98688, Note_on_c, 0, 46, 94
2, 98752, Note_off_c, 0, 73, 0
2, 98752, Note_on_c, 0, 85, 118
2, 98752, Note_off_c, 0, 46, 0
2, 98752, Note_on_c, 0, 50, 100
2, 98816, Note_off_c, 0, 85, 0
2, 98816, Note_on_c, 0, 74, 76
2, 98816, Note_off_c, 0, 50, 0
2, 98816, Note_on_c, 0, 46, 93
2, 98880, Note_off_c, 0, 74, 0
2, 98880, Note_on_c, 0, 86, 124
2, 98880, Note_off_c, 0, 46, 0
2, 98880, Note_on_c, 0, 50, 106
2, 98944, Note_off_c, 0, 86, 0
2, 98944, Note_on_c, 0, 76, 79
2, 98944, Note_off_c, 0, 50, 0
2, 98944, Note_on_c, 0, 46, 93
2, 99008, Note_off_c, 0, 76, 0
2, 99008, Note_on_c, 0, 88, 125
2, 99008, Note_off_c, 0, 46, 0
2, 99008, Note_on_c, 0, 50, 103
2, 99072, Note_off_c, 0, 88, 0
2, 99072, Note_on_c, 0, 77, 76
2, 99072, Note_off_c, 0, 50, 0
2, 99072, Note_on_c, 0, 46, 92
2, 99136, Note_off_c, 0, 77, 0
2, 99136, Note_on_c, 0, 89, 115
2, 99136, Note_off_c, 0, 46, 0
2, 99136, Note_on_c, 0, 50, 100
2, 99200, Note_off_c, 0, 89, 0
2, 99200, Note_on_c, 0, 78, 76
2, 99200, Note_off_c, 0, 50, 0
2, 99200, Note_on_c, 0, 46, 95
2, 99264, Note_off_c, 0, 78, 0
2, 99264, Note_on_c, 0, 90, 120
2, 99264, Note_off_c, 0, 46, 0
2, 99264, Note_on_c, 0, 50, 97
2, 99328, Note_off_c, 0, 90, 0
2, 99328, Note_on_c, 0, 79, 73
2, 99328, Note_off_c, 0, 50, 0
2, 99328, Note_on_c, 0, 47, 95
2, 99392, Note_off_c, 0, 79, 0
2, 99392, Note_on_c, 0, 91, 125
2, 99392, Note_off_c, 0, 47, 0
2, 99392, Note_on_c, 0, 50, 105
2, 99456, Note_off_c, 0, 91, 0
2, 99456, Note_on_c, 0, 80, 74
2, 99456, Note_off_c, 0, 50, 0
2, 99456, Note_on_c, 0, 47, 95
2, 99520, Note_off_c, 0, 80, 0
2, 99520, Note_on_c, 0, 92, 118
2, 99520, Note_off_c, 0, 47, 0
2, 99520, Note_on_c, 0, 50, 105
2, 99584, Note_off_c, 0, 92, 0
2, 99584, Note_on_c, 0, 81, 108
2, 99584, Note_on_c, 0, 86, 108
2, 99584, Note_on_c, 0, 89, 108
2, 99584, Note_on_c, 0, 93, 108
2, 99584, Note_off_c, 0, 50, 0
2, 99584, Note_on_c, 0, 45, 96
2, 99840, Note_off_c, 0, 81, 0
2, 99840, Note_off_c, 0, 86, 0
2, 99840, Note_off_c, 0, 89, 0
2, 99840, Note_off_c, 0, 93, 0
2, 99840, Note_off_c, 0, 45, 0
2, 100096, Note_on_c, 0, 69, 85
2, 100096, Note_on_c, 0, 73, 85
2, 100096, Note_on_c, 0, 76, 85
2, 100096, Note_on_c, 0, 81, 85
2, 100096, Note_on_c, 0, 45, 90
2, 100096, Note_on_c, 0, 57, 90
2, 100352, Note_off_c, 0, 69, 0
2, 100352, Note_off_c, 0, 73, 0
2, 100352, Note_off_c, 0, 76, 0
2, 100352, Note_off_c, 0, 81, 0
2, 100352, Note_off_c, 0, 45, 0
2, 100352, Note_off_c, 0, 57, 0
2, 100608, Note_on_c, 0, 62, 92
2, 100608, Note_on_c, 0, 65, 92
2, 100608, Note_on_c, 0, 69, 92
2, 100608, Note_on_c, 0, 74, 92
2, 100608, Note_on_c, 0, 38, 83
2, 100608, Note_on_c, 0, 50, 83
2, 101120, Note_off_c, 0, 62, 0
2, 101120, Note_off_c, 0, 65, 0
2, 101120, Note_off_c, 0, 69, 0
2, 101120, Note_off_c, 0, 74, 0
2, 101120, Note_off_c, 0, 38, 0
2, 101120, Note_off_c, 0, 50, 0
2, 101121, End_track
0, 0, End_of_file
